%TF.GenerationSoftware,KiCad,Pcbnew,5.99.0-unknown-4354fa7bd~104~ubuntu20.04.1*%
%TF.CreationDate,2020-09-06T22:51:51+02:00*%
%TF.ProjectId,matrixctl,6d617472-6978-4637-946c-2e6b69636164,rev?*%
%TF.SameCoordinates,Original*%
%TF.FileFunction,Copper,L2,Bot*%
%TF.FilePolarity,Positive*%
%FSLAX46Y46*%
G04 Gerber Fmt 4.6, Leading zero omitted, Abs format (unit mm)*
G04 Created by KiCad (PCBNEW 5.99.0-unknown-4354fa7bd~104~ubuntu20.04.1) date 2020-09-06 22:51:51*
%MOMM*%
%LPD*%
G01*
G04 APERTURE LIST*
%TA.AperFunction,ComponentPad*%
%ADD10R,1.700000X1.700000*%
%TD*%
%TA.AperFunction,ComponentPad*%
%ADD11O,1.700000X1.700000*%
%TD*%
%TA.AperFunction,ComponentPad*%
%ADD12O,1.100000X5.500000*%
%TD*%
%TA.AperFunction,ComponentPad*%
%ADD13C,1.450000*%
%TD*%
%TA.AperFunction,ComponentPad*%
%ADD14O,1.200000X1.900000*%
%TD*%
%TA.AperFunction,ComponentPad*%
%ADD15C,0.600000*%
%TD*%
%TA.AperFunction,ViaPad*%
%ADD16C,0.600000*%
%TD*%
%TA.AperFunction,Conductor*%
%ADD17C,0.400000*%
%TD*%
%TA.AperFunction,Conductor*%
%ADD18C,0.250000*%
%TD*%
%TA.AperFunction,Conductor*%
%ADD19C,0.600000*%
%TD*%
G04 APERTURE END LIST*
D10*
%TO.P,J103,1,Pin_1*%
%TO.N,Net-(FB102-Pad2)*%
X121200000Y-117800000D03*
D11*
%TO.P,J103,2,Pin_2*%
%TO.N,GND*%
X123740000Y-117800000D03*
%TO.P,J103,3,Pin_3*%
%TO.N,/VIO*%
X126280000Y-117800000D03*
%TO.P,J103,4,Pin_4*%
%TO.N,/SDA*%
X128820000Y-117800000D03*
%TO.P,J103,5,Pin_5*%
%TO.N,/SCL*%
X131360000Y-117800000D03*
%TO.P,J103,6,Pin_6*%
%TO.N,GND*%
X133900000Y-117800000D03*
%TO.P,J103,7,Pin_7*%
%TO.N,/~INTB*%
X136440000Y-117800000D03*
%TO.P,J103,8,Pin_8*%
%TO.N,/~SDB*%
X138980000Y-117800000D03*
%TD*%
D10*
%TO.P,J1,1,Pin_1*%
%TO.N,Net-(F1-Pad2)*%
X155700000Y-126200000D03*
D11*
%TO.P,J1,2,Pin_2*%
%TO.N,GND*%
X158240000Y-126200000D03*
%TD*%
D12*
%TO.P,U2,41*%
%TO.N,N/C*%
X150400000Y-130810000D03*
%TO.P,U2,42*%
X96400000Y-130810000D03*
%TD*%
D13*
%TO.P,J104,6,Shield*%
%TO.N,GND*%
X154500000Y-129737500D03*
X159500000Y-129737500D03*
D14*
X153500000Y-132437500D03*
X160500000Y-132437500D03*
%TD*%
D15*
%TO.P,U101,29,PGND*%
%TO.N,GND*%
X131300000Y-110600000D03*
%TA.AperFunction,SMDPad,CuDef*%
G36*
G01*
X131550000Y-108600000D02*
X131550000Y-110600000D01*
G75*
G02*
X131300000Y-110850000I-250000J0D01*
G01*
X129300000Y-110850000D01*
G75*
G02*
X129050000Y-110600000I0J250000D01*
G01*
X129050000Y-108600000D01*
G75*
G02*
X129300000Y-108350000I250000J0D01*
G01*
X131300000Y-108350000D01*
G75*
G02*
X131550000Y-108600000I0J-250000D01*
G01*
G37*
%TD.AperFunction*%
X130300000Y-108600000D03*
X131300000Y-108600000D03*
X129300000Y-108600000D03*
X129300000Y-110600000D03*
X130300000Y-110600000D03*
X131300000Y-109600000D03*
X130300000Y-109600000D03*
X129300000Y-109600000D03*
%TD*%
D10*
%TO.P,J101,1,Pin_1*%
%TO.N,GND*%
X99060000Y-106875000D03*
D11*
%TO.P,J101,2,Pin_2*%
%TO.N,/CS5*%
X101600000Y-106875000D03*
%TO.P,J101,3,Pin_3*%
%TO.N,GND*%
X99060000Y-109415000D03*
%TO.P,J101,4,Pin_4*%
%TO.N,/CS4*%
X101600000Y-109415000D03*
%TO.P,J101,5,Pin_5*%
%TO.N,GND*%
X99060000Y-111955000D03*
%TO.P,J101,6,Pin_6*%
%TO.N,/CS3*%
X101600000Y-111955000D03*
%TO.P,J101,7,Pin_7*%
%TO.N,GND*%
X99060000Y-114495000D03*
%TO.P,J101,8,Pin_8*%
%TO.N,/CS2*%
X101600000Y-114495000D03*
%TO.P,J101,9,Pin_9*%
%TO.N,GND*%
X99060000Y-117035000D03*
%TO.P,J101,10,Pin_10*%
%TO.N,/CS1*%
X101600000Y-117035000D03*
%TD*%
D10*
%TO.P,J102,1,Pin_1*%
%TO.N,/SW5*%
X144780000Y-106875000D03*
D11*
%TO.P,J102,2,Pin_2*%
%TO.N,GND*%
X147320000Y-106875000D03*
%TO.P,J102,3,Pin_3*%
%TO.N,/SW4*%
X144780000Y-109415000D03*
%TO.P,J102,4,Pin_4*%
%TO.N,GND*%
X147320000Y-109415000D03*
%TO.P,J102,5,Pin_5*%
%TO.N,/SW3*%
X144780000Y-111955000D03*
%TO.P,J102,6,Pin_6*%
%TO.N,GND*%
X147320000Y-111955000D03*
%TO.P,J102,7,Pin_7*%
%TO.N,/SW2*%
X144780000Y-114495000D03*
%TO.P,J102,8,Pin_8*%
%TO.N,GND*%
X147320000Y-114495000D03*
%TO.P,J102,9,Pin_9*%
%TO.N,/SW1*%
X144780000Y-117035000D03*
%TO.P,J102,10,Pin_10*%
%TO.N,GND*%
X147320000Y-117035000D03*
%TD*%
D16*
%TO.N,GND*%
X98000000Y-130500000D03*
X104500000Y-107800000D03*
X142000000Y-118500000D03*
X122100000Y-111200000D03*
X120700000Y-129300000D03*
X116000000Y-113700000D03*
X109800000Y-112100000D03*
X98800000Y-124900000D03*
X114400000Y-120100000D03*
X117700000Y-106400000D03*
X113000000Y-117800000D03*
X106900000Y-129200000D03*
X151600000Y-127700000D03*
X126300000Y-106400000D03*
X111300000Y-117800000D03*
X110300000Y-120000000D03*
X117200000Y-117700000D03*
X103000000Y-113200000D03*
X143000000Y-108100000D03*
X110300000Y-127100000D03*
X104200000Y-129200000D03*
X115800000Y-129300000D03*
X113200000Y-106400000D03*
X142600000Y-115800000D03*
X137700000Y-116500000D03*
X133400000Y-133200000D03*
X120500000Y-106000000D03*
X108200000Y-116900000D03*
X108300000Y-119900000D03*
X143000000Y-110700000D03*
X123900000Y-106000000D03*
X140700000Y-109000000D03*
X126200000Y-116200000D03*
X111700000Y-110600000D03*
X106200000Y-115500000D03*
X124700000Y-133200000D03*
X139000000Y-129300000D03*
X115700000Y-111400000D03*
X95700000Y-120000000D03*
X117000000Y-133200000D03*
X143000000Y-113200000D03*
X120300000Y-114600000D03*
X140000000Y-113700000D03*
X95700000Y-122600000D03*
X160700000Y-120000000D03*
X158600000Y-122100000D03*
X143000000Y-105100000D03*
X104500000Y-104900000D03*
X148800000Y-133200000D03*
X132800000Y-111700000D03*
X139000000Y-125800000D03*
X125600000Y-112700000D03*
X137700000Y-118900000D03*
X98000000Y-133200000D03*
X103000000Y-108100000D03*
X158600000Y-120000000D03*
X132700000Y-120000000D03*
X109300000Y-109800000D03*
X158700000Y-124100000D03*
X110500000Y-116200000D03*
X104400000Y-124900000D03*
X160700000Y-127600000D03*
X101300000Y-129200000D03*
X95700000Y-127600000D03*
X130000000Y-125800000D03*
X144300000Y-129300000D03*
X118262500Y-113700000D03*
X124800000Y-109500000D03*
X135800000Y-120000000D03*
X103100000Y-110600000D03*
X119900000Y-119400000D03*
X102900000Y-115500000D03*
X112300000Y-129300000D03*
X115600000Y-106400000D03*
X137900000Y-111700000D03*
X103000000Y-133200000D03*
X153300000Y-127700000D03*
X106400000Y-126500000D03*
X140700000Y-120000000D03*
X144300000Y-125800000D03*
X106200000Y-118400000D03*
X106000000Y-106500000D03*
X134400000Y-125600000D03*
X99900000Y-119900000D03*
X119500000Y-109000000D03*
X150300000Y-122500000D03*
X136400000Y-113100000D03*
X127900000Y-120000000D03*
X101700000Y-124900000D03*
X108200000Y-108100000D03*
X148800000Y-131100000D03*
X132700000Y-105200000D03*
X111700000Y-114300000D03*
X144900000Y-120000000D03*
X109400000Y-106400000D03*
X141500000Y-133200000D03*
X95700000Y-125300000D03*
X160700000Y-124100000D03*
X132700000Y-107100000D03*
X149000000Y-120000000D03*
X139300000Y-110300000D03*
X114000000Y-113700000D03*
X134400000Y-129300000D03*
X110000000Y-133200000D03*
X113200000Y-107900000D03*
X98000000Y-127600000D03*
X104200000Y-119900000D03*
X148800000Y-127700000D03*
X105200000Y-110600000D03*
X102900000Y-118400000D03*
X105500000Y-113200000D03*
X121500000Y-115900000D03*
X152500000Y-120000000D03*
X128300000Y-129300000D03*
X125600000Y-120000000D03*
%TO.N,/CS1*%
X114200000Y-110000000D03*
X131400000Y-106200000D03*
%TO.N,/CS2*%
X115500000Y-109400000D03*
X130300000Y-106200000D03*
%TO.N,/CS3*%
X115200000Y-108100000D03*
X128400000Y-106000000D03*
%TO.N,/CS4*%
X124000000Y-107000000D03*
X127800000Y-106600000D03*
%TO.N,/CS5*%
X119800000Y-106800000D03*
X125400000Y-108099999D03*
%TO.N,/SCL*%
X131400000Y-124900000D03*
%TO.N,/SDA*%
X128800000Y-126100000D03*
%TO.N,Net-(TP101-Pad1)*%
X124200000Y-113300000D03*
X128000000Y-112800000D03*
%TO.N,VBUS*%
X153000000Y-124500000D03*
X112900000Y-119100000D03*
X153000000Y-125500000D03*
X111600000Y-119100000D03*
X114700000Y-111900000D03*
X116100000Y-114700000D03*
%TO.N,+2V8*%
X125700000Y-111300000D03*
X123700000Y-111300000D03*
%TD*%
D17*
%TO.N,/CS1*%
X115000000Y-105200000D02*
X114200000Y-106000000D01*
X114200000Y-106000000D02*
X114200000Y-110000000D01*
X131100000Y-105200000D02*
X115000000Y-105200000D01*
X131400000Y-106200000D02*
X131400000Y-105500000D01*
X131400000Y-105500000D02*
X131100000Y-105200000D01*
%TO.N,/CS2*%
X118799998Y-109400000D02*
X119599999Y-110200001D01*
X130300000Y-106200000D02*
X126299999Y-110200001D01*
X126299999Y-110200001D02*
X119599999Y-110200001D01*
X115500000Y-109400000D02*
X118799998Y-109400000D01*
%TO.N,/CS3*%
X126800001Y-108799999D02*
X128500001Y-107099999D01*
X119450000Y-108250000D02*
X119300000Y-108100000D01*
X119950000Y-108250000D02*
X119450000Y-108250000D01*
X120050000Y-108350000D02*
X119950000Y-108250000D01*
X128500001Y-106100001D02*
X128400000Y-106000000D01*
X120499999Y-108799999D02*
X120050000Y-108350000D01*
X128500001Y-107099999D02*
X128500001Y-106100001D01*
X121400001Y-108799999D02*
X120499999Y-108799999D01*
X119300000Y-108100000D02*
X115200000Y-108100000D01*
X121400001Y-108799999D02*
X126800001Y-108799999D01*
%TO.N,/CS4*%
X124299999Y-107299999D02*
X127100001Y-107299999D01*
X127100001Y-107299999D02*
X127800000Y-106600000D01*
X124000000Y-107000000D02*
X124299999Y-107299999D01*
%TO.N,/CS5*%
X121099999Y-108099999D02*
X119800000Y-106800000D01*
X125400000Y-108099999D02*
X121099999Y-108099999D01*
%TO.N,/SCL*%
X131400000Y-124900000D02*
X131400000Y-117840000D01*
X131400000Y-117840000D02*
X131360000Y-117800000D01*
%TO.N,/SDA*%
X128820000Y-126080000D02*
X128800000Y-126100000D01*
X128820000Y-117800000D02*
X128820000Y-126080000D01*
D18*
%TO.N,Net-(TP101-Pad1)*%
X128000000Y-112800000D02*
X126900000Y-113900000D01*
X124800000Y-113900000D02*
X124200000Y-113300000D01*
X126900000Y-113900000D02*
X124800000Y-113900000D01*
%TO.N,VBUS*%
X114700000Y-113300000D02*
X116100000Y-114700000D01*
X114700000Y-111900000D02*
X114700000Y-113300000D01*
D19*
%TO.N,+2V8*%
X123700000Y-111300000D02*
X125700000Y-111300000D01*
%TD*%
%TA.AperFunction,Conductor*%
%TO.N,VBUS*%
G36*
X113500000Y-126500000D02*
G01*
X128328923Y-126500000D01*
X128523981Y-126641719D01*
X128704890Y-126700500D01*
X128895110Y-126700500D01*
X129076019Y-126641719D01*
X129271077Y-126500000D01*
X146000000Y-126500000D01*
X146000000Y-124000000D01*
X153500000Y-124000000D01*
X153500000Y-127000000D01*
X148000000Y-127000000D01*
X148000000Y-128500000D01*
X137300000Y-128500000D01*
X137124220Y-128315412D01*
X136953334Y-128193520D01*
X136814395Y-128129910D01*
X136762488Y-128106145D01*
X136558560Y-128056432D01*
X136348910Y-128046179D01*
X136348908Y-128046179D01*
X136279942Y-128055995D01*
X136141105Y-128075754D01*
X136141102Y-128075755D01*
X135942644Y-128144089D01*
X135942641Y-128144091D01*
X135942640Y-128144091D01*
X135760679Y-128248723D01*
X135760677Y-128248725D01*
X135601787Y-128385875D01*
X135511656Y-128500000D01*
X111300000Y-128500000D01*
X111124217Y-128315409D01*
X111000000Y-128226806D01*
X111000000Y-118500000D01*
X113500000Y-118500000D01*
X113500000Y-126500000D01*
G37*
%TD.AperFunction*%
%TD*%
%TA.AperFunction,Conductor*%
%TO.N,GND*%
G36*
X148871619Y-104502109D02*
G01*
X148878860Y-104504567D01*
X148879217Y-104504603D01*
X148985648Y-104515414D01*
X149059510Y-104522917D01*
X149212508Y-104570863D01*
X149352739Y-104648594D01*
X149369734Y-104663160D01*
X149474472Y-104752931D01*
X149533470Y-104828991D01*
X149572744Y-104879623D01*
X149643533Y-105023488D01*
X149684586Y-105181089D01*
X149694950Y-105315778D01*
X149699501Y-105330436D01*
X149699500Y-118284977D01*
X149694923Y-118315420D01*
X149694950Y-118315778D01*
X149694956Y-118315852D01*
X149694955Y-118315852D01*
X149702886Y-118418911D01*
X149706722Y-118468764D01*
X149712140Y-118486212D01*
X149712666Y-118504478D01*
X149712757Y-118504825D01*
X149763703Y-118700411D01*
X149773274Y-118718836D01*
X149776447Y-118732311D01*
X149778033Y-118739049D01*
X149778188Y-118739364D01*
X149867426Y-118920719D01*
X149880504Y-118936839D01*
X149889232Y-118955685D01*
X149889431Y-118955942D01*
X150013325Y-119115666D01*
X150029383Y-119128833D01*
X150041717Y-119145531D01*
X150041720Y-119145535D01*
X150041993Y-119145769D01*
X150195451Y-119277298D01*
X150195453Y-119277299D01*
X150213825Y-119286966D01*
X150229268Y-119300846D01*
X150229582Y-119301020D01*
X150406354Y-119399006D01*
X150426298Y-119404781D01*
X150444219Y-119415275D01*
X150444581Y-119415388D01*
X150622569Y-119471165D01*
X150637423Y-119475820D01*
X150658118Y-119477467D01*
X150677782Y-119484142D01*
X150678139Y-119484178D01*
X150816159Y-119498198D01*
X150879215Y-119504603D01*
X150879217Y-119504603D01*
X150892488Y-119502962D01*
X150912398Y-119500500D01*
X160566878Y-119500500D01*
X160573035Y-119502590D01*
X160578860Y-119504567D01*
X160579217Y-119504603D01*
X160702969Y-119517173D01*
X160759510Y-119522917D01*
X160912508Y-119570863D01*
X161052739Y-119648594D01*
X161069734Y-119663160D01*
X161174472Y-119752931D01*
X161257527Y-119860005D01*
X161272744Y-119879623D01*
X161343533Y-120023488D01*
X161384586Y-120181089D01*
X161394950Y-120315778D01*
X161399501Y-120330436D01*
X161399500Y-132966878D01*
X161395433Y-132978859D01*
X161395402Y-132979166D01*
X161377083Y-133159510D01*
X161357544Y-133221861D01*
X161329137Y-133312507D01*
X161251402Y-133452744D01*
X161229064Y-133478807D01*
X161147067Y-133574475D01*
X161087451Y-133620717D01*
X161020375Y-133672745D01*
X160876515Y-133743532D01*
X160718911Y-133784586D01*
X160584224Y-133794949D01*
X160569569Y-133799500D01*
X150897958Y-133799500D01*
X150839767Y-133780593D01*
X150803803Y-133731093D01*
X150803803Y-133669907D01*
X150846082Y-133616180D01*
X150864666Y-133604747D01*
X150984885Y-133487021D01*
X151076034Y-133345586D01*
X151133583Y-133187472D01*
X151150000Y-133049793D01*
X151150000Y-128567698D01*
X151142407Y-128500002D01*
X151135989Y-128442786D01*
X151084777Y-128295726D01*
X151080654Y-128283885D01*
X150991489Y-128141192D01*
X150872926Y-128021799D01*
X150862611Y-128015253D01*
X150730861Y-127931641D01*
X150572347Y-127875196D01*
X150405269Y-127855273D01*
X150237931Y-127872861D01*
X150237928Y-127872862D01*
X150078648Y-127927084D01*
X149999004Y-127976083D01*
X149935334Y-128015253D01*
X149815116Y-128132979D01*
X149815114Y-128132981D01*
X149775377Y-128194642D01*
X149723967Y-128274414D01*
X149666418Y-128432528D01*
X149650001Y-128570207D01*
X149650001Y-128570210D01*
X149650000Y-133052301D01*
X149664011Y-133177213D01*
X149686531Y-133241882D01*
X149719346Y-133336114D01*
X149808511Y-133478807D01*
X149927074Y-133598201D01*
X149927077Y-133598203D01*
X149956557Y-133616912D01*
X149995558Y-133664056D01*
X149999400Y-133725121D01*
X149966615Y-133776781D01*
X149903510Y-133799500D01*
X96897958Y-133799500D01*
X96839767Y-133780593D01*
X96803803Y-133731093D01*
X96803803Y-133669907D01*
X96846082Y-133616180D01*
X96864666Y-133604747D01*
X96984885Y-133487021D01*
X97076034Y-133345586D01*
X97133583Y-133187472D01*
X97150000Y-133049793D01*
X97150000Y-129146491D01*
X109394849Y-129146491D01*
X109394849Y-129146496D01*
X109414673Y-129348673D01*
X109474749Y-129542748D01*
X109572619Y-129720772D01*
X109704287Y-129875483D01*
X109864376Y-130000557D01*
X110046340Y-130090886D01*
X110046344Y-130090887D01*
X110242759Y-130142782D01*
X110445597Y-130154122D01*
X110445599Y-130154122D01*
X110546085Y-130139283D01*
X110646572Y-130124445D01*
X110837476Y-130054962D01*
X111010508Y-129948511D01*
X111019534Y-129940035D01*
X111158603Y-129809442D01*
X111275706Y-129643437D01*
X111357040Y-129457273D01*
X111399279Y-129258553D01*
X111400011Y-129048426D01*
X111400011Y-129048423D01*
X111359161Y-128849417D01*
X111359161Y-128849416D01*
X111349017Y-128800000D01*
X135461906Y-128800000D01*
X135428352Y-128905778D01*
X135416085Y-128944449D01*
X135394849Y-129146491D01*
X135394849Y-129146496D01*
X135414673Y-129348673D01*
X135474749Y-129542748D01*
X135572619Y-129720772D01*
X135704287Y-129875483D01*
X135864376Y-130000557D01*
X136046340Y-130090886D01*
X136046344Y-130090887D01*
X136242759Y-130142782D01*
X136445597Y-130154122D01*
X136445599Y-130154122D01*
X136546085Y-130139283D01*
X136646572Y-130124445D01*
X136837476Y-130054962D01*
X137010508Y-129948511D01*
X137019534Y-129940035D01*
X137158603Y-129809442D01*
X137275706Y-129643437D01*
X137357040Y-129457273D01*
X137399279Y-129258553D01*
X137400011Y-129048426D01*
X137400011Y-129048423D01*
X137359161Y-128849417D01*
X137359161Y-128849416D01*
X137349017Y-128800000D01*
X148000002Y-128800000D01*
X148133720Y-128768550D01*
X148133721Y-128768549D01*
X148133722Y-128768549D01*
X148221703Y-128702109D01*
X148279742Y-128608372D01*
X148286877Y-128570207D01*
X148300000Y-128500002D01*
X148300000Y-127300000D01*
X153500002Y-127300000D01*
X153633720Y-127268550D01*
X153633721Y-127268549D01*
X153633722Y-127268549D01*
X153721703Y-127202109D01*
X153779742Y-127108372D01*
X153800000Y-127000000D01*
X153800000Y-124400000D01*
X154100000Y-124400000D01*
X154100000Y-128000000D01*
X157200000Y-128000000D01*
X157200000Y-124400000D01*
X154100000Y-124400000D01*
X153800000Y-124400000D01*
X153800000Y-124000000D01*
X153774512Y-123891631D01*
X153768550Y-123866280D01*
X153768549Y-123866279D01*
X153768549Y-123866278D01*
X153702109Y-123778297D01*
X153608372Y-123720258D01*
X153608370Y-123720258D01*
X153608369Y-123720257D01*
X153500002Y-123700000D01*
X145999998Y-123700000D01*
X145866280Y-123731450D01*
X145866279Y-123731451D01*
X145866278Y-123731451D01*
X145778297Y-123797891D01*
X145720258Y-123891628D01*
X145720258Y-123891630D01*
X145720257Y-123891631D01*
X145700000Y-123999998D01*
X145700000Y-126200000D01*
X129300500Y-126200000D01*
X129300500Y-126011746D01*
X129240133Y-125845891D01*
X129220500Y-125822493D01*
X129220500Y-118770923D01*
X129295715Y-118741748D01*
X129469572Y-118631414D01*
X129618690Y-118489411D01*
X129737387Y-118321149D01*
X129791325Y-118200000D01*
X129821140Y-118133035D01*
X129866760Y-117932237D01*
X129867373Y-117888287D01*
X130308620Y-117888287D01*
X130345792Y-118090819D01*
X130421595Y-118282275D01*
X130443186Y-118315778D01*
X130533140Y-118455360D01*
X130648958Y-118575293D01*
X130676182Y-118603484D01*
X130845269Y-118721003D01*
X130845271Y-118721004D01*
X130892755Y-118741749D01*
X130999501Y-118788385D01*
X130999500Y-124598658D01*
X130959868Y-124645890D01*
X130959867Y-124645891D01*
X130959867Y-124645892D01*
X130899500Y-124811746D01*
X130899500Y-124988254D01*
X130959867Y-125154108D01*
X130959868Y-125154110D01*
X131073322Y-125289320D01*
X131073324Y-125289322D01*
X131226177Y-125377572D01*
X131400000Y-125408221D01*
X131573823Y-125377572D01*
X131726676Y-125289322D01*
X131726678Y-125289320D01*
X131840132Y-125154110D01*
X131840133Y-125154108D01*
X131900500Y-124988254D01*
X131900500Y-124811746D01*
X131840133Y-124645892D01*
X131840133Y-124645891D01*
X131840132Y-124645890D01*
X131800500Y-124598658D01*
X131800500Y-118764095D01*
X131835714Y-118741748D01*
X132009572Y-118631414D01*
X132158690Y-118489411D01*
X132182710Y-118455361D01*
X132277387Y-118321149D01*
X132331325Y-118200000D01*
X132361140Y-118133035D01*
X132406760Y-117932237D01*
X132407373Y-117888287D01*
X135388620Y-117888287D01*
X135425792Y-118090819D01*
X135501595Y-118282275D01*
X135523186Y-118315778D01*
X135613140Y-118455360D01*
X135728958Y-118575293D01*
X135756182Y-118603484D01*
X135925269Y-118721003D01*
X135925271Y-118721004D01*
X136113959Y-118803440D01*
X136113960Y-118803440D01*
X136113962Y-118803441D01*
X136315074Y-118847658D01*
X136330691Y-118847985D01*
X136520944Y-118851971D01*
X136723732Y-118816214D01*
X136915713Y-118741749D01*
X137089572Y-118631414D01*
X137238690Y-118489411D01*
X137357387Y-118321149D01*
X137411325Y-118200000D01*
X137441140Y-118133035D01*
X137486760Y-117932237D01*
X137487373Y-117888287D01*
X137928620Y-117888287D01*
X137965792Y-118090819D01*
X138041595Y-118282275D01*
X138063186Y-118315778D01*
X138153140Y-118455360D01*
X138268958Y-118575293D01*
X138296182Y-118603484D01*
X138465269Y-118721003D01*
X138465271Y-118721004D01*
X138653959Y-118803440D01*
X138653960Y-118803440D01*
X138653962Y-118803441D01*
X138855074Y-118847658D01*
X138870691Y-118847985D01*
X139060944Y-118851971D01*
X139263732Y-118816214D01*
X139455713Y-118741749D01*
X139629572Y-118631414D01*
X139778690Y-118489411D01*
X139897387Y-118321149D01*
X139951325Y-118200000D01*
X139981140Y-118133035D01*
X140026760Y-117932237D01*
X140027374Y-117888282D01*
X140030046Y-117697045D01*
X139994450Y-117517275D01*
X139990049Y-117495048D01*
X139911580Y-117304670D01*
X139797628Y-117133159D01*
X139787825Y-117123287D01*
X143728620Y-117123287D01*
X143765792Y-117325819D01*
X143841595Y-117517275D01*
X143841596Y-117517276D01*
X143948005Y-117682391D01*
X143953141Y-117690361D01*
X144096182Y-117838484D01*
X144265269Y-117956003D01*
X144265271Y-117956004D01*
X144453959Y-118038440D01*
X144453960Y-118038440D01*
X144453962Y-118038441D01*
X144655074Y-118082658D01*
X144670691Y-118082985D01*
X144860944Y-118086971D01*
X145063732Y-118051214D01*
X145255713Y-117976749D01*
X145429572Y-117866414D01*
X145578690Y-117724411D01*
X145697387Y-117556149D01*
X145734676Y-117472396D01*
X145781140Y-117368035D01*
X145826760Y-117167237D01*
X145827374Y-117123282D01*
X145830046Y-116932045D01*
X145805050Y-116805808D01*
X145790049Y-116730048D01*
X145711580Y-116539670D01*
X145597628Y-116368159D01*
X145452533Y-116222047D01*
X145409123Y-116192766D01*
X145281825Y-116106901D01*
X145236844Y-116087993D01*
X145091996Y-116027105D01*
X144991141Y-116006403D01*
X144890288Y-115985700D01*
X144887528Y-115985681D01*
X144684375Y-115984262D01*
X144482107Y-116022847D01*
X144291186Y-116099984D01*
X144118883Y-116212736D01*
X143971762Y-116356808D01*
X143855426Y-116526711D01*
X143774308Y-116715976D01*
X143774307Y-116715981D01*
X143731494Y-116917390D01*
X143730652Y-116977736D01*
X143728620Y-117123287D01*
X139787825Y-117123287D01*
X139652533Y-116987047D01*
X139570990Y-116932045D01*
X139481825Y-116871901D01*
X139436844Y-116852993D01*
X139291996Y-116792105D01*
X139191141Y-116771402D01*
X139090288Y-116750700D01*
X139087528Y-116750681D01*
X138884375Y-116749262D01*
X138682107Y-116787847D01*
X138491186Y-116864984D01*
X138318883Y-116977736D01*
X138171762Y-117121808D01*
X138055426Y-117291711D01*
X137974308Y-117480976D01*
X137974307Y-117480981D01*
X137931494Y-117682390D01*
X137929315Y-117838483D01*
X137928620Y-117888287D01*
X137487373Y-117888287D01*
X137487374Y-117888282D01*
X137490046Y-117697045D01*
X137454450Y-117517275D01*
X137450049Y-117495048D01*
X137371580Y-117304670D01*
X137257628Y-117133159D01*
X137112533Y-116987047D01*
X137030990Y-116932045D01*
X136941825Y-116871901D01*
X136896844Y-116852993D01*
X136751996Y-116792105D01*
X136651141Y-116771402D01*
X136550288Y-116750700D01*
X136547528Y-116750681D01*
X136344375Y-116749262D01*
X136142107Y-116787847D01*
X135951186Y-116864984D01*
X135778883Y-116977736D01*
X135631762Y-117121808D01*
X135515426Y-117291711D01*
X135434308Y-117480976D01*
X135434307Y-117480981D01*
X135391494Y-117682390D01*
X135389315Y-117838483D01*
X135388620Y-117888287D01*
X132407373Y-117888287D01*
X132407374Y-117888282D01*
X132410046Y-117697045D01*
X132374450Y-117517275D01*
X132370049Y-117495048D01*
X132291580Y-117304670D01*
X132177628Y-117133159D01*
X132032533Y-116987047D01*
X131950990Y-116932045D01*
X131861825Y-116871901D01*
X131816844Y-116852993D01*
X131671996Y-116792105D01*
X131571141Y-116771402D01*
X131470288Y-116750700D01*
X131467528Y-116750681D01*
X131264375Y-116749262D01*
X131062107Y-116787847D01*
X130871186Y-116864984D01*
X130698883Y-116977736D01*
X130551762Y-117121808D01*
X130435426Y-117291711D01*
X130354308Y-117480976D01*
X130354307Y-117480981D01*
X130311494Y-117682390D01*
X130309315Y-117838483D01*
X130308620Y-117888287D01*
X129867373Y-117888287D01*
X129867374Y-117888282D01*
X129870046Y-117697045D01*
X129834450Y-117517275D01*
X129830049Y-117495048D01*
X129751580Y-117304670D01*
X129637628Y-117133159D01*
X129492533Y-116987047D01*
X129410990Y-116932045D01*
X129321825Y-116871901D01*
X129276844Y-116852993D01*
X129131996Y-116792105D01*
X129031141Y-116771402D01*
X128930288Y-116750700D01*
X128927528Y-116750681D01*
X128724375Y-116749262D01*
X128522107Y-116787847D01*
X128331186Y-116864984D01*
X128158883Y-116977736D01*
X128011762Y-117121808D01*
X127895426Y-117291711D01*
X127814308Y-117480976D01*
X127814307Y-117480981D01*
X127771494Y-117682390D01*
X127769315Y-117838483D01*
X127768620Y-117888287D01*
X127805792Y-118090819D01*
X127881595Y-118282275D01*
X127903186Y-118315778D01*
X127993140Y-118455360D01*
X128108958Y-118575293D01*
X128136182Y-118603484D01*
X128305269Y-118721003D01*
X128305271Y-118721004D01*
X128419500Y-118770909D01*
X128419501Y-125774822D01*
X128359867Y-125845890D01*
X128299500Y-126011746D01*
X128299500Y-126200000D01*
X113800000Y-126200000D01*
X113800000Y-118499998D01*
X113768550Y-118366280D01*
X113768549Y-118366279D01*
X113768549Y-118366278D01*
X113702109Y-118278297D01*
X113608372Y-118220258D01*
X113608370Y-118220258D01*
X113608369Y-118220257D01*
X113500002Y-118200000D01*
X110999998Y-118200000D01*
X110866280Y-118231450D01*
X110866279Y-118231451D01*
X110866278Y-118231451D01*
X110778297Y-118297891D01*
X110720258Y-118391628D01*
X110720258Y-118391630D01*
X110720257Y-118391631D01*
X110708344Y-118455361D01*
X110700000Y-118500000D01*
X110700000Y-128184519D01*
X110653370Y-128177300D01*
X110653369Y-128177300D01*
X110452606Y-128146221D01*
X110249694Y-128156145D01*
X110052921Y-128206667D01*
X109870327Y-128295724D01*
X109709369Y-128419678D01*
X109576624Y-128573466D01*
X109477513Y-128750804D01*
X109416085Y-128944449D01*
X109394849Y-129146491D01*
X97150000Y-129146491D01*
X97150000Y-128567698D01*
X97142407Y-128500002D01*
X97135989Y-128442786D01*
X97084777Y-128295726D01*
X97080654Y-128283885D01*
X96991489Y-128141192D01*
X96872926Y-128021799D01*
X96862611Y-128015253D01*
X96730861Y-127931641D01*
X96572347Y-127875196D01*
X96405269Y-127855273D01*
X96237931Y-127872861D01*
X96237928Y-127872862D01*
X96078648Y-127927084D01*
X95999004Y-127976083D01*
X95935334Y-128015253D01*
X95815116Y-128132979D01*
X95815114Y-128132981D01*
X95775377Y-128194642D01*
X95723967Y-128274414D01*
X95666418Y-128432528D01*
X95650001Y-128570207D01*
X95650001Y-128570210D01*
X95650000Y-133052301D01*
X95664011Y-133177213D01*
X95686531Y-133241882D01*
X95719346Y-133336114D01*
X95808511Y-133478807D01*
X95927074Y-133598201D01*
X95927077Y-133598203D01*
X95956557Y-133616912D01*
X95995558Y-133664056D01*
X95999400Y-133725121D01*
X95966615Y-133776781D01*
X95903510Y-133799500D01*
X95833122Y-133799500D01*
X95821141Y-133795433D01*
X95820834Y-133795402D01*
X95640490Y-133777083D01*
X95544937Y-133747139D01*
X95487493Y-133729137D01*
X95443135Y-133704549D01*
X95347256Y-133651402D01*
X95292822Y-133604747D01*
X95225525Y-133547067D01*
X95127255Y-133420375D01*
X95056468Y-133276515D01*
X95015414Y-133118911D01*
X95005051Y-132984224D01*
X95000500Y-132969569D01*
X95000500Y-120035099D01*
X95004123Y-120025063D01*
X95004124Y-120025061D01*
X95004165Y-120024718D01*
X95021382Y-119882443D01*
X95063240Y-119771668D01*
X95090561Y-119731916D01*
X95130313Y-119674076D01*
X95218729Y-119595301D01*
X95323379Y-119539892D01*
X95395867Y-119521684D01*
X95444038Y-119509584D01*
X95512913Y-119505250D01*
X95529002Y-119500500D01*
X95783567Y-119500500D01*
X95790683Y-119501672D01*
X95812556Y-119505273D01*
X95812914Y-119505250D01*
X95900646Y-119499730D01*
X95918680Y-119494405D01*
X95937486Y-119494028D01*
X95937834Y-119493940D01*
X96100958Y-119452966D01*
X96122943Y-119441788D01*
X96129305Y-119440089D01*
X96146773Y-119435426D01*
X96147072Y-119435267D01*
X96206841Y-119403621D01*
X96295732Y-119356555D01*
X96295734Y-119356554D01*
X96314411Y-119340461D01*
X96336037Y-119328595D01*
X96336039Y-119328594D01*
X96336307Y-119328355D01*
X96461886Y-119216469D01*
X96476190Y-119196379D01*
X96494361Y-119179699D01*
X96494564Y-119179403D01*
X96576554Y-119060109D01*
X96589829Y-119040794D01*
X96589830Y-119040792D01*
X96598930Y-119017866D01*
X96612596Y-118997336D01*
X96612723Y-118997001D01*
X96672174Y-118839666D01*
X96675543Y-118815234D01*
X96679801Y-118803440D01*
X96683918Y-118792033D01*
X96683959Y-118791691D01*
X96704166Y-118624707D01*
X96700500Y-118589527D01*
X96700500Y-117123287D01*
X100548620Y-117123287D01*
X100585792Y-117325819D01*
X100661595Y-117517275D01*
X100661596Y-117517276D01*
X100768005Y-117682391D01*
X100773141Y-117690361D01*
X100916182Y-117838484D01*
X101085269Y-117956003D01*
X101085271Y-117956004D01*
X101273959Y-118038440D01*
X101273960Y-118038440D01*
X101273962Y-118038441D01*
X101475074Y-118082658D01*
X101490691Y-118082985D01*
X101680944Y-118086971D01*
X101883732Y-118051214D01*
X102075713Y-117976749D01*
X102249572Y-117866414D01*
X102398690Y-117724411D01*
X102517387Y-117556149D01*
X102554676Y-117472396D01*
X102601140Y-117368035D01*
X102646760Y-117167237D01*
X102647374Y-117123282D01*
X102649795Y-116950001D01*
X120146082Y-116950001D01*
X120146082Y-118649999D01*
X120161604Y-118728037D01*
X120205808Y-118794192D01*
X120271963Y-118838396D01*
X120310982Y-118846157D01*
X120350000Y-118853918D01*
X122050000Y-118853918D01*
X122089018Y-118846157D01*
X122128037Y-118838396D01*
X122194192Y-118794192D01*
X122238396Y-118728037D01*
X122253918Y-118649999D01*
X122253918Y-117888287D01*
X125228620Y-117888287D01*
X125265792Y-118090819D01*
X125341595Y-118282275D01*
X125363186Y-118315778D01*
X125453140Y-118455360D01*
X125568958Y-118575293D01*
X125596182Y-118603484D01*
X125765269Y-118721003D01*
X125765271Y-118721004D01*
X125953959Y-118803440D01*
X125953960Y-118803440D01*
X125953962Y-118803441D01*
X126155074Y-118847658D01*
X126170691Y-118847985D01*
X126360944Y-118851971D01*
X126563732Y-118816214D01*
X126755713Y-118741749D01*
X126929572Y-118631414D01*
X127078690Y-118489411D01*
X127197387Y-118321149D01*
X127251325Y-118200000D01*
X127281140Y-118133035D01*
X127326760Y-117932237D01*
X127327374Y-117888282D01*
X127330046Y-117697045D01*
X127294450Y-117517275D01*
X127290049Y-117495048D01*
X127211580Y-117304670D01*
X127097628Y-117133159D01*
X126952533Y-116987047D01*
X126870990Y-116932045D01*
X126781825Y-116871901D01*
X126736844Y-116852993D01*
X126591996Y-116792105D01*
X126491141Y-116771402D01*
X126390288Y-116750700D01*
X126387528Y-116750681D01*
X126184375Y-116749262D01*
X125982107Y-116787847D01*
X125791186Y-116864984D01*
X125618883Y-116977736D01*
X125471762Y-117121808D01*
X125355426Y-117291711D01*
X125274308Y-117480976D01*
X125274307Y-117480981D01*
X125231494Y-117682390D01*
X125229315Y-117838483D01*
X125228620Y-117888287D01*
X122253918Y-117888287D01*
X122253918Y-116950001D01*
X122250347Y-116932045D01*
X122238396Y-116871964D01*
X122238396Y-116871963D01*
X122194192Y-116805808D01*
X122128037Y-116761604D01*
X122089018Y-116753843D01*
X122050000Y-116746082D01*
X120350000Y-116746082D01*
X120310982Y-116753843D01*
X120271963Y-116761604D01*
X120205808Y-116805808D01*
X120161604Y-116871963D01*
X120161604Y-116871964D01*
X120149654Y-116932045D01*
X120146082Y-116950001D01*
X102649795Y-116950001D01*
X102650046Y-116932045D01*
X102625050Y-116805808D01*
X102610049Y-116730048D01*
X102531580Y-116539670D01*
X102417628Y-116368159D01*
X102272533Y-116222047D01*
X102229123Y-116192766D01*
X102101825Y-116106901D01*
X102056844Y-116087993D01*
X101911996Y-116027105D01*
X101811141Y-116006403D01*
X101710288Y-115985700D01*
X101707528Y-115985681D01*
X101504375Y-115984262D01*
X101302107Y-116022847D01*
X101111186Y-116099984D01*
X100938883Y-116212736D01*
X100791762Y-116356808D01*
X100675426Y-116526711D01*
X100594308Y-116715976D01*
X100594307Y-116715981D01*
X100551494Y-116917390D01*
X100550652Y-116977736D01*
X100548620Y-117123287D01*
X96700500Y-117123287D01*
X96700500Y-114583287D01*
X100548620Y-114583287D01*
X100585792Y-114785819D01*
X100661595Y-114977275D01*
X100773141Y-115150361D01*
X100916182Y-115298484D01*
X101085269Y-115416003D01*
X101085271Y-115416004D01*
X101273959Y-115498440D01*
X101273960Y-115498440D01*
X101273962Y-115498441D01*
X101475074Y-115542658D01*
X101490691Y-115542985D01*
X101680944Y-115546971D01*
X101883732Y-115511214D01*
X102075713Y-115436749D01*
X102249572Y-115326414D01*
X102398690Y-115184411D01*
X102517387Y-115016149D01*
X102554676Y-114932396D01*
X102601140Y-114828035D01*
X102646760Y-114627237D01*
X102647374Y-114583282D01*
X102650046Y-114392045D01*
X102618331Y-114231876D01*
X102610049Y-114190048D01*
X102531580Y-113999670D01*
X102417628Y-113828159D01*
X102272533Y-113682047D01*
X102229123Y-113652766D01*
X102101825Y-113566901D01*
X102025154Y-113534672D01*
X101911996Y-113487105D01*
X101811141Y-113466402D01*
X101710288Y-113445700D01*
X101707528Y-113445681D01*
X101504375Y-113444262D01*
X101302107Y-113482847D01*
X101111186Y-113559984D01*
X100938883Y-113672736D01*
X100791762Y-113816808D01*
X100675426Y-113986711D01*
X100594308Y-114175976D01*
X100594307Y-114175981D01*
X100551494Y-114377390D01*
X100550538Y-114445892D01*
X100548620Y-114583287D01*
X96700500Y-114583287D01*
X96700500Y-112043287D01*
X100548620Y-112043287D01*
X100585792Y-112245819D01*
X100661595Y-112437275D01*
X100773141Y-112610361D01*
X100916182Y-112758484D01*
X101085269Y-112876003D01*
X101085271Y-112876004D01*
X101273959Y-112958440D01*
X101273960Y-112958440D01*
X101273962Y-112958441D01*
X101475074Y-113002658D01*
X101490691Y-113002985D01*
X101680944Y-113006971D01*
X101883732Y-112971214D01*
X102075713Y-112896749D01*
X102249572Y-112786414D01*
X102398690Y-112644411D01*
X102517387Y-112476149D01*
X102600265Y-112290000D01*
X102601140Y-112288035D01*
X102646760Y-112087237D01*
X102648143Y-111988252D01*
X102650046Y-111852045D01*
X102642067Y-111811746D01*
X114199500Y-111811746D01*
X114199500Y-111988254D01*
X114259867Y-112154110D01*
X114325369Y-112232171D01*
X114373322Y-112289320D01*
X114373323Y-112289321D01*
X114374500Y-112290723D01*
X114374501Y-113267943D01*
X114368124Y-113300000D01*
X114385680Y-113388254D01*
X114393388Y-113427003D01*
X114465329Y-113534672D01*
X114492503Y-113552829D01*
X115599500Y-114659827D01*
X115599500Y-114788254D01*
X115613980Y-114828036D01*
X115659868Y-114954110D01*
X115711924Y-115016148D01*
X115773324Y-115089322D01*
X115926177Y-115177572D01*
X116100000Y-115208221D01*
X116273823Y-115177572D01*
X116426676Y-115089322D01*
X116488076Y-115016148D01*
X116540132Y-114954110D01*
X116586020Y-114828036D01*
X116600500Y-114788254D01*
X116600500Y-114611746D01*
X116590142Y-114583287D01*
X143728620Y-114583287D01*
X143765792Y-114785819D01*
X143841595Y-114977275D01*
X143953141Y-115150361D01*
X144096182Y-115298484D01*
X144265269Y-115416003D01*
X144265271Y-115416004D01*
X144453959Y-115498440D01*
X144453960Y-115498440D01*
X144453962Y-115498441D01*
X144655074Y-115542658D01*
X144670691Y-115542985D01*
X144860944Y-115546971D01*
X145063732Y-115511214D01*
X145255713Y-115436749D01*
X145429572Y-115326414D01*
X145578690Y-115184411D01*
X145697387Y-115016149D01*
X145734676Y-114932396D01*
X145781140Y-114828035D01*
X145826760Y-114627237D01*
X145827374Y-114583282D01*
X145830046Y-114392045D01*
X145798331Y-114231876D01*
X145790049Y-114190048D01*
X145711580Y-113999670D01*
X145597628Y-113828159D01*
X145452533Y-113682047D01*
X145409123Y-113652766D01*
X145281825Y-113566901D01*
X145205154Y-113534672D01*
X145091996Y-113487105D01*
X144991141Y-113466402D01*
X144890288Y-113445700D01*
X144887528Y-113445681D01*
X144684375Y-113444262D01*
X144482107Y-113482847D01*
X144291186Y-113559984D01*
X144118883Y-113672736D01*
X143971762Y-113816808D01*
X143855426Y-113986711D01*
X143774308Y-114175976D01*
X143774307Y-114175981D01*
X143731494Y-114377390D01*
X143730538Y-114445892D01*
X143728620Y-114583287D01*
X116590142Y-114583287D01*
X116540133Y-114445892D01*
X116540133Y-114445891D01*
X116540132Y-114445890D01*
X116426678Y-114310680D01*
X116426677Y-114310680D01*
X116426676Y-114310678D01*
X116273823Y-114222428D01*
X116100000Y-114191779D01*
X116059283Y-114198957D01*
X115072072Y-113211746D01*
X123699500Y-113211746D01*
X123699500Y-113388254D01*
X123759402Y-113552830D01*
X123759868Y-113554110D01*
X123873322Y-113689320D01*
X123873324Y-113689322D01*
X124026177Y-113777572D01*
X124200000Y-113808221D01*
X124240717Y-113801043D01*
X124547170Y-114107497D01*
X124565328Y-114134672D01*
X124672997Y-114206613D01*
X124767946Y-114225500D01*
X124767947Y-114225500D01*
X124799999Y-114231876D01*
X124832054Y-114225500D01*
X126867948Y-114225500D01*
X126900000Y-114231876D01*
X126932052Y-114225500D01*
X126932054Y-114225500D01*
X127027003Y-114206613D01*
X127134672Y-114134672D01*
X127134673Y-114134671D01*
X127152831Y-114107495D01*
X127959283Y-113301043D01*
X128000000Y-113308221D01*
X128173823Y-113277572D01*
X128326676Y-113189322D01*
X128346938Y-113165175D01*
X128440132Y-113054110D01*
X128443124Y-113045890D01*
X128500500Y-112888254D01*
X128500500Y-112711746D01*
X128440133Y-112545892D01*
X128440133Y-112545891D01*
X128440132Y-112545890D01*
X128326678Y-112410680D01*
X128326677Y-112410680D01*
X128326676Y-112410678D01*
X128173823Y-112322428D01*
X128000000Y-112291779D01*
X127826177Y-112322428D01*
X127673324Y-112410678D01*
X127673323Y-112410680D01*
X127673322Y-112410680D01*
X127559868Y-112545890D01*
X127559867Y-112545891D01*
X127559867Y-112545892D01*
X127499500Y-112711746D01*
X127499500Y-112840173D01*
X126765174Y-113574500D01*
X124934826Y-113574500D01*
X124700500Y-113340175D01*
X124700500Y-113211746D01*
X124640133Y-113045892D01*
X124640133Y-113045891D01*
X124640132Y-113045890D01*
X124526678Y-112910680D01*
X124526677Y-112910680D01*
X124526676Y-112910678D01*
X124373823Y-112822428D01*
X124200000Y-112791779D01*
X124026177Y-112822428D01*
X123873324Y-112910678D01*
X123873323Y-112910680D01*
X123873322Y-112910680D01*
X123759868Y-113045890D01*
X123759867Y-113045891D01*
X123759867Y-113045892D01*
X123699500Y-113211746D01*
X115072072Y-113211746D01*
X115025500Y-113165174D01*
X115025500Y-112290723D01*
X115026677Y-112289321D01*
X115026678Y-112289320D01*
X115074631Y-112232171D01*
X115140133Y-112154110D01*
X115180469Y-112043287D01*
X143728620Y-112043287D01*
X143765792Y-112245819D01*
X143841595Y-112437275D01*
X143953141Y-112610361D01*
X144096182Y-112758484D01*
X144265269Y-112876003D01*
X144265271Y-112876004D01*
X144453959Y-112958440D01*
X144453960Y-112958440D01*
X144453962Y-112958441D01*
X144655074Y-113002658D01*
X144670691Y-113002985D01*
X144860944Y-113006971D01*
X145063732Y-112971214D01*
X145255713Y-112896749D01*
X145429572Y-112786414D01*
X145578690Y-112644411D01*
X145697387Y-112476149D01*
X145780265Y-112290000D01*
X145781140Y-112288035D01*
X145826760Y-112087237D01*
X145828143Y-111988252D01*
X145830046Y-111852045D01*
X145797825Y-111689320D01*
X145790049Y-111650048D01*
X145711580Y-111459670D01*
X145597628Y-111288159D01*
X145452533Y-111142047D01*
X145409123Y-111112766D01*
X145281825Y-111026901D01*
X145236844Y-111007993D01*
X145091996Y-110947105D01*
X144991141Y-110926402D01*
X144890288Y-110905700D01*
X144887528Y-110905681D01*
X144684375Y-110904262D01*
X144482107Y-110942847D01*
X144291186Y-111019984D01*
X144118883Y-111132736D01*
X143971762Y-111276808D01*
X143855426Y-111446711D01*
X143774308Y-111635976D01*
X143774307Y-111635981D01*
X143731494Y-111837390D01*
X143729388Y-111988252D01*
X143728620Y-112043287D01*
X115180469Y-112043287D01*
X115200500Y-111988254D01*
X115200500Y-111811746D01*
X115140133Y-111645892D01*
X115140133Y-111645891D01*
X115140132Y-111645890D01*
X115026678Y-111510680D01*
X115026677Y-111510680D01*
X115026676Y-111510678D01*
X114873823Y-111422428D01*
X114700000Y-111391779D01*
X114526177Y-111422428D01*
X114373324Y-111510678D01*
X114373323Y-111510680D01*
X114373322Y-111510680D01*
X114259868Y-111645890D01*
X114259867Y-111645891D01*
X114259867Y-111645892D01*
X114199500Y-111811746D01*
X102642067Y-111811746D01*
X102617825Y-111689320D01*
X102610049Y-111650048D01*
X102531580Y-111459670D01*
X102417628Y-111288159D01*
X102341748Y-111211747D01*
X123199500Y-111211747D01*
X123199500Y-111388254D01*
X123259867Y-111554108D01*
X123259868Y-111554110D01*
X123340369Y-111650048D01*
X123373324Y-111689322D01*
X123526177Y-111777572D01*
X123700000Y-111808221D01*
X123743789Y-111800500D01*
X125656211Y-111800500D01*
X125700000Y-111808221D01*
X125873823Y-111777572D01*
X126026678Y-111689320D01*
X126107176Y-111593387D01*
X126140131Y-111554113D01*
X126140133Y-111554108D01*
X126200500Y-111388252D01*
X126200500Y-111211746D01*
X126140133Y-111045892D01*
X126140133Y-111045891D01*
X126140132Y-111045890D01*
X126026678Y-110910680D01*
X126026677Y-110910680D01*
X126026676Y-110910678D01*
X125873823Y-110822428D01*
X125743789Y-110799500D01*
X125729593Y-110796997D01*
X125703319Y-110783027D01*
X125670406Y-110796997D01*
X125656211Y-110799500D01*
X123743789Y-110799500D01*
X123729594Y-110796997D01*
X123703319Y-110783027D01*
X123670406Y-110796997D01*
X123656210Y-110799500D01*
X123526177Y-110822428D01*
X123381948Y-110905700D01*
X123373322Y-110910680D01*
X123259868Y-111045889D01*
X123259868Y-111045890D01*
X123228258Y-111132736D01*
X123199500Y-111211747D01*
X102341748Y-111211747D01*
X102272533Y-111142047D01*
X102229123Y-111112766D01*
X102101825Y-111026901D01*
X102056844Y-111007993D01*
X101911996Y-110947105D01*
X101811141Y-110926402D01*
X101710288Y-110905700D01*
X101707528Y-110905681D01*
X101504375Y-110904262D01*
X101302107Y-110942847D01*
X101111186Y-111019984D01*
X100938883Y-111132736D01*
X100791762Y-111276808D01*
X100675426Y-111446711D01*
X100594308Y-111635976D01*
X100594307Y-111635981D01*
X100551494Y-111837390D01*
X100549388Y-111988252D01*
X100548620Y-112043287D01*
X96700500Y-112043287D01*
X96700500Y-109503287D01*
X100548620Y-109503287D01*
X100585792Y-109705819D01*
X100661595Y-109897275D01*
X100773141Y-110070361D01*
X100916182Y-110218484D01*
X101085269Y-110336003D01*
X101085271Y-110336004D01*
X101273959Y-110418440D01*
X101273960Y-110418440D01*
X101273962Y-110418441D01*
X101475074Y-110462658D01*
X101490691Y-110462985D01*
X101680944Y-110466971D01*
X101883732Y-110431214D01*
X102075713Y-110356749D01*
X102249572Y-110246414D01*
X102398690Y-110104411D01*
X102517387Y-109936149D01*
X102528251Y-109911746D01*
X113699500Y-109911746D01*
X113699500Y-110088254D01*
X113746901Y-110218484D01*
X113759868Y-110254110D01*
X113828584Y-110336003D01*
X113873324Y-110389322D01*
X114026177Y-110477572D01*
X114200000Y-110508221D01*
X114373823Y-110477572D01*
X114526676Y-110389322D01*
X114571416Y-110336003D01*
X114640132Y-110254110D01*
X114653099Y-110218484D01*
X114700500Y-110088254D01*
X114700500Y-109911746D01*
X114640133Y-109745892D01*
X114640133Y-109745891D01*
X114640132Y-109745890D01*
X114600500Y-109698658D01*
X114600500Y-108436183D01*
X114619407Y-108377992D01*
X114668907Y-108342028D01*
X114730093Y-108342028D01*
X114775338Y-108372546D01*
X114873322Y-108489320D01*
X114873324Y-108489322D01*
X115026177Y-108577572D01*
X115200000Y-108608221D01*
X115373822Y-108577572D01*
X115507314Y-108500500D01*
X119134108Y-108500500D01*
X119138912Y-108505304D01*
X119161256Y-108538744D01*
X119161257Y-108538745D01*
X119293732Y-108627263D01*
X119352144Y-108638882D01*
X119410555Y-108650500D01*
X119410558Y-108650500D01*
X119449999Y-108658345D01*
X119489440Y-108650500D01*
X119784107Y-108650500D01*
X120188914Y-109055307D01*
X120211255Y-109088743D01*
X120244692Y-109111085D01*
X120244697Y-109111090D01*
X120296780Y-109145889D01*
X120343731Y-109177262D01*
X120402143Y-109188880D01*
X120460554Y-109200499D01*
X120460558Y-109200499D01*
X120499999Y-109208344D01*
X120539440Y-109200499D01*
X126494101Y-109200499D01*
X126552292Y-109219406D01*
X126588256Y-109268906D01*
X126588256Y-109330092D01*
X126564105Y-109369503D01*
X126134106Y-109799501D01*
X119765892Y-109799501D01*
X119111084Y-109144693D01*
X119088742Y-109111256D01*
X118956266Y-109022737D01*
X118895639Y-109010678D01*
X118839443Y-108999500D01*
X118839439Y-108999500D01*
X118799998Y-108991655D01*
X118760557Y-108999500D01*
X115807314Y-108999500D01*
X115673822Y-108922428D01*
X115500000Y-108891779D01*
X115326177Y-108922428D01*
X115173324Y-109010678D01*
X115173323Y-109010680D01*
X115173322Y-109010680D01*
X115059868Y-109145890D01*
X115059867Y-109145891D01*
X115059867Y-109145892D01*
X114999500Y-109311746D01*
X114999500Y-109488254D01*
X115059867Y-109654108D01*
X115059868Y-109654110D01*
X115136882Y-109745892D01*
X115173324Y-109789322D01*
X115326177Y-109877572D01*
X115500000Y-109908221D01*
X115673822Y-109877572D01*
X115807314Y-109800500D01*
X118634105Y-109800500D01*
X119288913Y-110455308D01*
X119311255Y-110488745D01*
X119443731Y-110577264D01*
X119502143Y-110588882D01*
X119560554Y-110600501D01*
X119560557Y-110600501D01*
X119599998Y-110608346D01*
X119639439Y-110600501D01*
X123653216Y-110600501D01*
X123698518Y-110615220D01*
X123703384Y-110610521D01*
X123746784Y-110600501D01*
X125653216Y-110600501D01*
X125698519Y-110615220D01*
X125703385Y-110610521D01*
X125746784Y-110600501D01*
X126260558Y-110600501D01*
X126299999Y-110608346D01*
X126339440Y-110600501D01*
X126339444Y-110600501D01*
X126397855Y-110588882D01*
X126456267Y-110577264D01*
X126588743Y-110488745D01*
X126611085Y-110455308D01*
X127563106Y-109503287D01*
X143728620Y-109503287D01*
X143765792Y-109705819D01*
X143841595Y-109897275D01*
X143953141Y-110070361D01*
X144096182Y-110218484D01*
X144265269Y-110336003D01*
X144265271Y-110336004D01*
X144453959Y-110418440D01*
X144453960Y-110418440D01*
X144453962Y-110418441D01*
X144655074Y-110462658D01*
X144670691Y-110462985D01*
X144860944Y-110466971D01*
X145063732Y-110431214D01*
X145255713Y-110356749D01*
X145429572Y-110246414D01*
X145578690Y-110104411D01*
X145697387Y-109936149D01*
X145762758Y-109789322D01*
X145781140Y-109748035D01*
X145826760Y-109547237D01*
X145827584Y-109488252D01*
X145830046Y-109312045D01*
X145813968Y-109230847D01*
X145790049Y-109110048D01*
X145711580Y-108919670D01*
X145597628Y-108748159D01*
X145452533Y-108602047D01*
X145358685Y-108538745D01*
X145281825Y-108486901D01*
X145236844Y-108467993D01*
X145091996Y-108407105D01*
X144991141Y-108386402D01*
X144890288Y-108365700D01*
X144887528Y-108365681D01*
X144684375Y-108364262D01*
X144482107Y-108402847D01*
X144291186Y-108479984D01*
X144118883Y-108592736D01*
X143971762Y-108736808D01*
X143855426Y-108906711D01*
X143774308Y-109095976D01*
X143774307Y-109095981D01*
X143731494Y-109297390D01*
X143728830Y-109488252D01*
X143728620Y-109503287D01*
X127563106Y-109503287D01*
X130370626Y-106695768D01*
X130473823Y-106677572D01*
X130626676Y-106589322D01*
X130642849Y-106570048D01*
X130740132Y-106454110D01*
X130740133Y-106454108D01*
X130756971Y-106407847D01*
X130794640Y-106359633D01*
X130853456Y-106342768D01*
X130910951Y-106363695D01*
X130943029Y-106407847D01*
X130959867Y-106454108D01*
X130959868Y-106454110D01*
X131057151Y-106570048D01*
X131073324Y-106589322D01*
X131226177Y-106677572D01*
X131400000Y-106708221D01*
X131573823Y-106677572D01*
X131726676Y-106589322D01*
X131742849Y-106570048D01*
X131840132Y-106454110D01*
X131840133Y-106454108D01*
X131900500Y-106288254D01*
X131900500Y-106111746D01*
X131868927Y-106025000D01*
X143726082Y-106025000D01*
X143726082Y-107725000D01*
X143733803Y-107763817D01*
X143741604Y-107803037D01*
X143785808Y-107869192D01*
X143851963Y-107913396D01*
X143890982Y-107921157D01*
X143930000Y-107928918D01*
X145630000Y-107928918D01*
X145669018Y-107921157D01*
X145708037Y-107913396D01*
X145774192Y-107869192D01*
X145818396Y-107803037D01*
X145826197Y-107763817D01*
X145833918Y-107725000D01*
X145833918Y-106025000D01*
X145818396Y-105946964D01*
X145818396Y-105946963D01*
X145774192Y-105880808D01*
X145708037Y-105836604D01*
X145669018Y-105828843D01*
X145630000Y-105821082D01*
X143930000Y-105821082D01*
X143890982Y-105828843D01*
X143851963Y-105836604D01*
X143785808Y-105880808D01*
X143741604Y-105946963D01*
X143741604Y-105946964D01*
X143726082Y-106025000D01*
X131868927Y-106025000D01*
X131840133Y-105945892D01*
X131840133Y-105945891D01*
X131840132Y-105945890D01*
X131800500Y-105898658D01*
X131800500Y-105539439D01*
X131808345Y-105499999D01*
X131800500Y-105460559D01*
X131800500Y-105460555D01*
X131777263Y-105343733D01*
X131750657Y-105303915D01*
X131734153Y-105279215D01*
X131711089Y-105244695D01*
X131711084Y-105244690D01*
X131688744Y-105211255D01*
X131655306Y-105188913D01*
X131411088Y-104944696D01*
X131388744Y-104911256D01*
X131256268Y-104822737D01*
X131197856Y-104811118D01*
X131139445Y-104799500D01*
X131139441Y-104799500D01*
X131100000Y-104791655D01*
X131060559Y-104799500D01*
X115039441Y-104799500D01*
X115000000Y-104791655D01*
X114960559Y-104799500D01*
X114960555Y-104799500D01*
X114902144Y-104811118D01*
X114843732Y-104822737D01*
X114834373Y-104828991D01*
X114811076Y-104844558D01*
X114744695Y-104888912D01*
X114744694Y-104888913D01*
X114736587Y-104894330D01*
X114711256Y-104911256D01*
X114688916Y-104944690D01*
X113944693Y-105688914D01*
X113911256Y-105711256D01*
X113822737Y-105843733D01*
X113822737Y-105843734D01*
X113802418Y-105945889D01*
X113799500Y-105960557D01*
X113799500Y-105960559D01*
X113791655Y-106000000D01*
X113799500Y-106039441D01*
X113799501Y-109698657D01*
X113759867Y-109745890D01*
X113699500Y-109911746D01*
X102528251Y-109911746D01*
X102582758Y-109789322D01*
X102601140Y-109748035D01*
X102646760Y-109547237D01*
X102647584Y-109488252D01*
X102650046Y-109312045D01*
X102633968Y-109230847D01*
X102610049Y-109110048D01*
X102531580Y-108919670D01*
X102417628Y-108748159D01*
X102272533Y-108602047D01*
X102178685Y-108538745D01*
X102101825Y-108486901D01*
X102056844Y-108467993D01*
X101911996Y-108407105D01*
X101811141Y-108386402D01*
X101710288Y-108365700D01*
X101707528Y-108365681D01*
X101504375Y-108364262D01*
X101302107Y-108402847D01*
X101111186Y-108479984D01*
X100938883Y-108592736D01*
X100791762Y-108736808D01*
X100675426Y-108906711D01*
X100594308Y-109095976D01*
X100594307Y-109095981D01*
X100551494Y-109297390D01*
X100548830Y-109488252D01*
X100548620Y-109503287D01*
X96700500Y-109503287D01*
X96700500Y-106963282D01*
X100548620Y-106963282D01*
X100548620Y-106963287D01*
X100585792Y-107165819D01*
X100661595Y-107357275D01*
X100773141Y-107530361D01*
X100916182Y-107678484D01*
X101085269Y-107796003D01*
X101085271Y-107796004D01*
X101273959Y-107878440D01*
X101273960Y-107878440D01*
X101273962Y-107878441D01*
X101475074Y-107922658D01*
X101490691Y-107922985D01*
X101680944Y-107926971D01*
X101883732Y-107891214D01*
X102075713Y-107816749D01*
X102249572Y-107706414D01*
X102398690Y-107564411D01*
X102517387Y-107396149D01*
X102580627Y-107254108D01*
X102601140Y-107208035D01*
X102646760Y-107007237D01*
X102648265Y-106899499D01*
X102650046Y-106772045D01*
X102613865Y-106589322D01*
X102610049Y-106570048D01*
X102531580Y-106379670D01*
X102417628Y-106208159D01*
X102272533Y-106062047D01*
X102217609Y-106025000D01*
X102101825Y-105946901D01*
X102018193Y-105911746D01*
X101911996Y-105867105D01*
X101798136Y-105843733D01*
X101710288Y-105825700D01*
X101707528Y-105825681D01*
X101504375Y-105824262D01*
X101302107Y-105862847D01*
X101111186Y-105939984D01*
X100938883Y-106052736D01*
X100791762Y-106196808D01*
X100675426Y-106366711D01*
X100594308Y-106555976D01*
X100594307Y-106555981D01*
X100551494Y-106757390D01*
X100548620Y-106963282D01*
X96700500Y-106963282D01*
X96700500Y-105333122D01*
X96704566Y-105321142D01*
X96704567Y-105321140D01*
X96704603Y-105320783D01*
X96722917Y-105140490D01*
X96770863Y-104987492D01*
X96825505Y-104888914D01*
X96848594Y-104847261D01*
X96929443Y-104752932D01*
X96952931Y-104725528D01*
X97079622Y-104627256D01*
X97223488Y-104556467D01*
X97381089Y-104515414D01*
X97515776Y-104505051D01*
X97530431Y-104500500D01*
X148866878Y-104500500D01*
X148871619Y-104502109D01*
G37*
%TD.AperFunction*%
%TA.AperFunction,Conductor*%
G36*
X127899500Y-105911746D02*
G01*
X127899500Y-106109286D01*
X127800017Y-106091776D01*
X127626177Y-106122428D01*
X127473324Y-106210678D01*
X127473323Y-106210680D01*
X127473322Y-106210680D01*
X127359868Y-106345890D01*
X127306769Y-106491779D01*
X127286706Y-106546901D01*
X126934109Y-106899499D01*
X124496042Y-106899499D01*
X124440133Y-106745892D01*
X124440133Y-106745891D01*
X124440132Y-106745890D01*
X124326678Y-106610680D01*
X124326677Y-106610680D01*
X124326676Y-106610678D01*
X124173823Y-106522428D01*
X124000000Y-106491779D01*
X123826177Y-106522428D01*
X123673324Y-106610678D01*
X123673323Y-106610680D01*
X123673322Y-106610680D01*
X123559868Y-106745890D01*
X123559867Y-106745891D01*
X123559867Y-106745892D01*
X123499500Y-106911746D01*
X123499500Y-107088254D01*
X123543098Y-107208036D01*
X123559868Y-107254110D01*
X123646434Y-107357276D01*
X123673324Y-107389322D01*
X123826177Y-107477572D01*
X123929375Y-107495768D01*
X123951309Y-107517702D01*
X123964104Y-107530496D01*
X123991880Y-107585012D01*
X123982309Y-107645444D01*
X123939044Y-107688709D01*
X123894099Y-107699499D01*
X121265892Y-107699499D01*
X120313295Y-106746902D01*
X120240133Y-106545892D01*
X120240133Y-106545891D01*
X120240132Y-106545890D01*
X120126678Y-106410680D01*
X120126677Y-106410680D01*
X120126676Y-106410678D01*
X119973823Y-106322428D01*
X119800000Y-106291779D01*
X119626177Y-106322428D01*
X119473324Y-106410678D01*
X119473323Y-106410680D01*
X119473322Y-106410680D01*
X119359868Y-106545890D01*
X119359867Y-106545891D01*
X119359867Y-106545892D01*
X119299500Y-106711746D01*
X119299500Y-106888254D01*
X119342807Y-107007237D01*
X119359868Y-107054110D01*
X119453604Y-107165821D01*
X119473324Y-107189322D01*
X119626177Y-107277572D01*
X119729375Y-107295768D01*
X120125254Y-107691646D01*
X120153031Y-107746163D01*
X120143460Y-107806595D01*
X120100195Y-107849860D01*
X120035937Y-107858748D01*
X119989445Y-107849500D01*
X119989441Y-107849500D01*
X119950000Y-107841655D01*
X119910559Y-107849500D01*
X119615892Y-107849500D01*
X119611088Y-107844696D01*
X119588744Y-107811256D01*
X119588743Y-107811255D01*
X119456268Y-107722737D01*
X119383907Y-107708344D01*
X119339445Y-107699500D01*
X119339441Y-107699500D01*
X119300000Y-107691655D01*
X119260559Y-107699500D01*
X115507314Y-107699500D01*
X115373822Y-107622428D01*
X115200000Y-107591779D01*
X115026177Y-107622428D01*
X114873324Y-107710678D01*
X114873323Y-107710680D01*
X114873322Y-107710680D01*
X114775338Y-107827454D01*
X114723451Y-107859876D01*
X114662414Y-107855608D01*
X114615543Y-107816279D01*
X114600500Y-107763817D01*
X114600500Y-106165893D01*
X115165894Y-105600500D01*
X128012786Y-105600500D01*
X127899500Y-105911746D01*
G37*
%TD.AperFunction*%
%TD*%
M02*
