%FSLAX45Y45*%
G04 Gerber Fmt 4.5, Leading zero omitted, Abs format (unit mm)*
G04 Created by KiCad (PCBNEW 5.99.0-unknown-acf13a186~104~ubuntu20.04.1) date 2020-09-23 11:22:36*
%MOMM*%
%LPD*%
G01*
G04 APERTURE LIST*
%TA.AperFunction,Profile*%
%ADD10C,0.050000*%
%TD*%
%ADD11C,0.200000*%
%ADD12C,0.160000*%
G04 APERTURE END LIST*
D10*
X9550000Y-11930000D02*
G75*
G03*
X9480000Y-12000000I0J-70000D01*
G01*
X9650000Y-10530000D02*
X9650000Y-11860000D01*
X9580000Y-11930000D02*
G75*
G03*
X9650000Y-11860000I0J70000D01*
G01*
X9480000Y-12000000D02*
X9480000Y-13300000D01*
X9750000Y-10430000D02*
G75*
G03*
X9650000Y-10530000I0J-100000D01*
G01*
X9480000Y-13300000D02*
G75*
G03*
X9580000Y-13400000I100000J0D01*
G01*
X16060000Y-11930000D02*
X15090000Y-11930000D01*
X14990000Y-11830000D02*
G75*
G03*
X15090000Y-11930000I100000J0D01*
G01*
X16060000Y-13400000D02*
G75*
G03*
X16160000Y-13300000I0J100000D01*
G01*
X9580000Y-13400000D02*
X16060000Y-13400000D01*
X9550000Y-11930000D02*
X9580000Y-11930000D01*
X16160000Y-13300000D02*
X16160000Y-12030000D01*
X14990000Y-10530000D02*
G75*
G03*
X14890000Y-10430000I-100000J0D01*
G01*
X14890000Y-10430000D02*
X9750000Y-10430000D01*
X14990000Y-11830000D02*
X14990000Y-10530000D01*
X16160000Y-12030000D02*
G75*
G03*
X16060000Y-11930000I-100000J0D01*
G01*
D11*
D12*
X10960000Y-12835000D02*
X11120000Y-12995000D01*
X11120000Y-12835000D02*
X10960000Y-12995000D01*
X13560000Y-12835000D02*
X13720000Y-12995000D01*
X13720000Y-12835000D02*
X13560000Y-12995000D01*
D11*
X9735119Y-13712976D02*
X9735119Y-13512976D01*
X9782738Y-13512976D01*
X9811309Y-13522500D01*
X9830357Y-13541548D01*
X9839881Y-13560595D01*
X9849405Y-13598690D01*
X9849405Y-13627262D01*
X9839881Y-13665357D01*
X9830357Y-13684405D01*
X9811309Y-13703452D01*
X9782738Y-13712976D01*
X9735119Y-13712976D01*
X9935119Y-13712976D02*
X9935119Y-13579643D01*
X9935119Y-13617738D02*
X9944643Y-13598690D01*
X9954167Y-13589167D01*
X9973214Y-13579643D01*
X9992262Y-13579643D01*
X10058928Y-13712976D02*
X10058928Y-13579643D01*
X10058928Y-13512976D02*
X10049405Y-13522500D01*
X10058928Y-13532024D01*
X10068452Y-13522500D01*
X10058928Y-13512976D01*
X10058928Y-13532024D01*
X10182738Y-13712976D02*
X10163690Y-13703452D01*
X10154167Y-13684405D01*
X10154167Y-13512976D01*
X10287500Y-13712976D02*
X10268452Y-13703452D01*
X10258928Y-13684405D01*
X10258928Y-13512976D01*
X10516071Y-13712976D02*
X10516071Y-13512976D01*
X10582738Y-13655833D01*
X10649405Y-13512976D01*
X10649405Y-13712976D01*
X10830357Y-13712976D02*
X10830357Y-13608214D01*
X10820833Y-13589167D01*
X10801786Y-13579643D01*
X10763690Y-13579643D01*
X10744643Y-13589167D01*
X10830357Y-13703452D02*
X10811309Y-13712976D01*
X10763690Y-13712976D01*
X10744643Y-13703452D01*
X10735119Y-13684405D01*
X10735119Y-13665357D01*
X10744643Y-13646310D01*
X10763690Y-13636786D01*
X10811309Y-13636786D01*
X10830357Y-13627262D01*
X10925595Y-13579643D02*
X10925595Y-13779643D01*
X10925595Y-13589167D02*
X10944643Y-13579643D01*
X10982738Y-13579643D01*
X11001786Y-13589167D01*
X11011309Y-13598690D01*
X11020833Y-13617738D01*
X11020833Y-13674881D01*
X11011309Y-13693929D01*
X11001786Y-13703452D01*
X10982738Y-13712976D01*
X10944643Y-13712976D01*
X10925595Y-13703452D01*
X11106548Y-13693929D02*
X11116071Y-13703452D01*
X11106548Y-13712976D01*
X11097024Y-13703452D01*
X11106548Y-13693929D01*
X11106548Y-13712976D01*
X11106548Y-13589167D02*
X11116071Y-13598690D01*
X11106548Y-13608214D01*
X11097024Y-13598690D01*
X11106548Y-13589167D01*
X11106548Y-13608214D01*
D12*
X9317500Y-13962500D02*
X9477500Y-14122500D01*
X9477500Y-13962500D02*
X9317500Y-14122500D01*
D11*
X9839881Y-14132976D02*
X9725595Y-14132976D01*
X9782738Y-14132976D02*
X9782738Y-13932976D01*
X9763690Y-13961548D01*
X9744643Y-13980595D01*
X9725595Y-13990119D01*
X9925595Y-14113929D02*
X9935119Y-14123452D01*
X9925595Y-14132976D01*
X9916071Y-14123452D01*
X9925595Y-14113929D01*
X9925595Y-14132976D01*
X10106548Y-13932976D02*
X10068452Y-13932976D01*
X10049405Y-13942500D01*
X10039881Y-13952024D01*
X10020833Y-13980595D01*
X10011309Y-14018690D01*
X10011309Y-14094881D01*
X10020833Y-14113929D01*
X10030357Y-14123452D01*
X10049405Y-14132976D01*
X10087500Y-14132976D01*
X10106548Y-14123452D01*
X10116071Y-14113929D01*
X10125595Y-14094881D01*
X10125595Y-14047262D01*
X10116071Y-14028214D01*
X10106548Y-14018690D01*
X10087500Y-14009167D01*
X10049405Y-14009167D01*
X10030357Y-14018690D01*
X10020833Y-14028214D01*
X10011309Y-14047262D01*
X10249405Y-13932976D02*
X10268452Y-13932976D01*
X10287500Y-13942500D01*
X10297024Y-13952024D01*
X10306548Y-13971071D01*
X10316071Y-14009167D01*
X10316071Y-14056786D01*
X10306548Y-14094881D01*
X10297024Y-14113929D01*
X10287500Y-14123452D01*
X10268452Y-14132976D01*
X10249405Y-14132976D01*
X10230357Y-14123452D01*
X10220833Y-14113929D01*
X10211309Y-14094881D01*
X10201786Y-14056786D01*
X10201786Y-14009167D01*
X10211309Y-13971071D01*
X10220833Y-13952024D01*
X10230357Y-13942500D01*
X10249405Y-13932976D01*
X10439881Y-13932976D02*
X10458928Y-13932976D01*
X10477976Y-13942500D01*
X10487500Y-13952024D01*
X10497024Y-13971071D01*
X10506548Y-14009167D01*
X10506548Y-14056786D01*
X10497024Y-14094881D01*
X10487500Y-14113929D01*
X10477976Y-14123452D01*
X10458928Y-14132976D01*
X10439881Y-14132976D01*
X10420833Y-14123452D01*
X10411309Y-14113929D01*
X10401786Y-14094881D01*
X10392262Y-14056786D01*
X10392262Y-14009167D01*
X10401786Y-13971071D01*
X10411309Y-13952024D01*
X10420833Y-13942500D01*
X10439881Y-13932976D01*
X10592262Y-14132976D02*
X10592262Y-13999643D01*
X10592262Y-14018690D02*
X10601786Y-14009167D01*
X10620833Y-13999643D01*
X10649405Y-13999643D01*
X10668452Y-14009167D01*
X10677976Y-14028214D01*
X10677976Y-14132976D01*
X10677976Y-14028214D02*
X10687500Y-14009167D01*
X10706548Y-13999643D01*
X10735119Y-13999643D01*
X10754167Y-14009167D01*
X10763690Y-14028214D01*
X10763690Y-14132976D01*
X10858928Y-14132976D02*
X10858928Y-13999643D01*
X10858928Y-14018690D02*
X10868452Y-14009167D01*
X10887500Y-13999643D01*
X10916071Y-13999643D01*
X10935119Y-14009167D01*
X10944643Y-14028214D01*
X10944643Y-14132976D01*
X10944643Y-14028214D02*
X10954167Y-14009167D01*
X10973214Y-13999643D01*
X11001786Y-13999643D01*
X11020833Y-14009167D01*
X11030357Y-14028214D01*
X11030357Y-14132976D01*
X11420833Y-13923452D02*
X11249405Y-14180595D01*
X11677976Y-13932976D02*
X11697024Y-13932976D01*
X11716071Y-13942500D01*
X11725595Y-13952024D01*
X11735119Y-13971071D01*
X11744643Y-14009167D01*
X11744643Y-14056786D01*
X11735119Y-14094881D01*
X11725595Y-14113929D01*
X11716071Y-14123452D01*
X11697024Y-14132976D01*
X11677976Y-14132976D01*
X11658928Y-14123452D01*
X11649405Y-14113929D01*
X11639881Y-14094881D01*
X11630357Y-14056786D01*
X11630357Y-14009167D01*
X11639881Y-13971071D01*
X11649405Y-13952024D01*
X11658928Y-13942500D01*
X11677976Y-13932976D01*
X11830357Y-14113929D02*
X11839881Y-14123452D01*
X11830357Y-14132976D01*
X11820833Y-14123452D01*
X11830357Y-14113929D01*
X11830357Y-14132976D01*
X11963690Y-13932976D02*
X11982738Y-13932976D01*
X12001786Y-13942500D01*
X12011309Y-13952024D01*
X12020833Y-13971071D01*
X12030357Y-14009167D01*
X12030357Y-14056786D01*
X12020833Y-14094881D01*
X12011309Y-14113929D01*
X12001786Y-14123452D01*
X11982738Y-14132976D01*
X11963690Y-14132976D01*
X11944643Y-14123452D01*
X11935119Y-14113929D01*
X11925595Y-14094881D01*
X11916071Y-14056786D01*
X11916071Y-14009167D01*
X11925595Y-13971071D01*
X11935119Y-13952024D01*
X11944643Y-13942500D01*
X11963690Y-13932976D01*
X12201786Y-13932976D02*
X12163690Y-13932976D01*
X12144643Y-13942500D01*
X12135119Y-13952024D01*
X12116071Y-13980595D01*
X12106547Y-14018690D01*
X12106547Y-14094881D01*
X12116071Y-14113929D01*
X12125595Y-14123452D01*
X12144643Y-14132976D01*
X12182738Y-14132976D01*
X12201786Y-14123452D01*
X12211309Y-14113929D01*
X12220833Y-14094881D01*
X12220833Y-14047262D01*
X12211309Y-14028214D01*
X12201786Y-14018690D01*
X12182738Y-14009167D01*
X12144643Y-14009167D01*
X12125595Y-14018690D01*
X12116071Y-14028214D01*
X12106547Y-14047262D01*
X12287500Y-13932976D02*
X12411309Y-13932976D01*
X12344643Y-14009167D01*
X12373214Y-14009167D01*
X12392262Y-14018690D01*
X12401786Y-14028214D01*
X12411309Y-14047262D01*
X12411309Y-14094881D01*
X12401786Y-14113929D01*
X12392262Y-14123452D01*
X12373214Y-14132976D01*
X12316071Y-14132976D01*
X12297024Y-14123452D01*
X12287500Y-14113929D01*
X12535119Y-13932976D02*
X12554166Y-13932976D01*
X12573214Y-13942500D01*
X12582738Y-13952024D01*
X12592262Y-13971071D01*
X12601786Y-14009167D01*
X12601786Y-14056786D01*
X12592262Y-14094881D01*
X12582738Y-14113929D01*
X12573214Y-14123452D01*
X12554166Y-14132976D01*
X12535119Y-14132976D01*
X12516071Y-14123452D01*
X12506547Y-14113929D01*
X12497024Y-14094881D01*
X12487500Y-14056786D01*
X12487500Y-14009167D01*
X12497024Y-13971071D01*
X12506547Y-13952024D01*
X12516071Y-13942500D01*
X12535119Y-13932976D01*
X12677976Y-13932976D02*
X12677976Y-13971071D01*
X12754166Y-13932976D02*
X12754166Y-13971071D01*
X13049405Y-14209167D02*
X13039881Y-14199643D01*
X13020833Y-14171071D01*
X13011309Y-14152024D01*
X13001786Y-14123452D01*
X12992262Y-14075833D01*
X12992262Y-14037738D01*
X13001786Y-13990119D01*
X13011309Y-13961548D01*
X13020833Y-13942500D01*
X13039881Y-13913929D01*
X13049405Y-13904405D01*
X13116071Y-13952024D02*
X13125595Y-13942500D01*
X13144643Y-13932976D01*
X13192262Y-13932976D01*
X13211309Y-13942500D01*
X13220833Y-13952024D01*
X13230357Y-13971071D01*
X13230357Y-13990119D01*
X13220833Y-14018690D01*
X13106547Y-14132976D01*
X13230357Y-14132976D01*
X13468452Y-14132976D02*
X13468452Y-13932976D01*
X13554166Y-14132976D02*
X13554166Y-14028214D01*
X13544643Y-14009167D01*
X13525595Y-13999643D01*
X13497024Y-13999643D01*
X13477976Y-14009167D01*
X13468452Y-14018690D01*
X13677976Y-14132976D02*
X13658928Y-14123452D01*
X13649405Y-14113929D01*
X13639881Y-14094881D01*
X13639881Y-14037738D01*
X13649405Y-14018690D01*
X13658928Y-14009167D01*
X13677976Y-13999643D01*
X13706547Y-13999643D01*
X13725595Y-14009167D01*
X13735119Y-14018690D01*
X13744643Y-14037738D01*
X13744643Y-14094881D01*
X13735119Y-14113929D01*
X13725595Y-14123452D01*
X13706547Y-14132976D01*
X13677976Y-14132976D01*
X13858928Y-14132976D02*
X13839881Y-14123452D01*
X13830357Y-14104405D01*
X13830357Y-13932976D01*
X14011309Y-14123452D02*
X13992262Y-14132976D01*
X13954166Y-14132976D01*
X13935119Y-14123452D01*
X13925595Y-14104405D01*
X13925595Y-14028214D01*
X13935119Y-14009167D01*
X13954166Y-13999643D01*
X13992262Y-13999643D01*
X14011309Y-14009167D01*
X14020833Y-14028214D01*
X14020833Y-14047262D01*
X13925595Y-14066310D01*
X14097024Y-14123452D02*
X14116071Y-14132976D01*
X14154166Y-14132976D01*
X14173214Y-14123452D01*
X14182738Y-14104405D01*
X14182738Y-14094881D01*
X14173214Y-14075833D01*
X14154166Y-14066310D01*
X14125595Y-14066310D01*
X14106547Y-14056786D01*
X14097024Y-14037738D01*
X14097024Y-14028214D01*
X14106547Y-14009167D01*
X14125595Y-13999643D01*
X14154166Y-13999643D01*
X14173214Y-14009167D01*
X14249405Y-14209167D02*
X14258928Y-14199643D01*
X14277976Y-14171071D01*
X14287500Y-14152024D01*
X14297024Y-14123452D01*
X14306547Y-14075833D01*
X14306547Y-14037738D01*
X14297024Y-13990119D01*
X14287500Y-13961548D01*
X14277976Y-13942500D01*
X14258928Y-13913929D01*
X14249405Y-13904405D01*
X14611309Y-14209167D02*
X14601786Y-14199643D01*
X14582738Y-14171071D01*
X14573214Y-14152024D01*
X14563690Y-14123452D01*
X14554166Y-14075833D01*
X14554166Y-14037738D01*
X14563690Y-13990119D01*
X14573214Y-13961548D01*
X14582738Y-13942500D01*
X14601786Y-13913929D01*
X14611309Y-13904405D01*
X14687500Y-13999643D02*
X14687500Y-14132976D01*
X14687500Y-14018690D02*
X14697024Y-14009167D01*
X14716071Y-13999643D01*
X14744643Y-13999643D01*
X14763690Y-14009167D01*
X14773214Y-14028214D01*
X14773214Y-14132976D01*
X14897024Y-14132976D02*
X14877976Y-14123452D01*
X14868452Y-14113929D01*
X14858928Y-14094881D01*
X14858928Y-14037738D01*
X14868452Y-14018690D01*
X14877976Y-14009167D01*
X14897024Y-13999643D01*
X14925595Y-13999643D01*
X14944643Y-14009167D01*
X14954166Y-14018690D01*
X14963690Y-14037738D01*
X14963690Y-14094881D01*
X14954166Y-14113929D01*
X14944643Y-14123452D01*
X14925595Y-14132976D01*
X14897024Y-14132976D01*
X15020833Y-13999643D02*
X15097024Y-13999643D01*
X15049405Y-13932976D02*
X15049405Y-14104405D01*
X15058928Y-14123452D01*
X15077976Y-14132976D01*
X15097024Y-14132976D01*
X15316071Y-13999643D02*
X15316071Y-14199643D01*
X15316071Y-14009167D02*
X15335119Y-13999643D01*
X15373214Y-13999643D01*
X15392262Y-14009167D01*
X15401786Y-14018690D01*
X15411309Y-14037738D01*
X15411309Y-14094881D01*
X15401786Y-14113929D01*
X15392262Y-14123452D01*
X15373214Y-14132976D01*
X15335119Y-14132976D01*
X15316071Y-14123452D01*
X15525595Y-14132976D02*
X15506547Y-14123452D01*
X15497024Y-14104405D01*
X15497024Y-13932976D01*
X15687500Y-14132976D02*
X15687500Y-14028214D01*
X15677976Y-14009167D01*
X15658928Y-13999643D01*
X15620833Y-13999643D01*
X15601786Y-14009167D01*
X15687500Y-14123452D02*
X15668452Y-14132976D01*
X15620833Y-14132976D01*
X15601786Y-14123452D01*
X15592262Y-14104405D01*
X15592262Y-14085357D01*
X15601786Y-14066310D01*
X15620833Y-14056786D01*
X15668452Y-14056786D01*
X15687500Y-14047262D01*
X15754166Y-13999643D02*
X15830357Y-13999643D01*
X15782738Y-13932976D02*
X15782738Y-14104405D01*
X15792262Y-14123452D01*
X15811309Y-14132976D01*
X15830357Y-14132976D01*
X15973214Y-14123452D02*
X15954166Y-14132976D01*
X15916071Y-14132976D01*
X15897024Y-14123452D01*
X15887500Y-14104405D01*
X15887500Y-14028214D01*
X15897024Y-14009167D01*
X15916071Y-13999643D01*
X15954166Y-13999643D01*
X15973214Y-14009167D01*
X15982738Y-14028214D01*
X15982738Y-14047262D01*
X15887500Y-14066310D01*
X16154166Y-14132976D02*
X16154166Y-13932976D01*
X16154166Y-14123452D02*
X16135119Y-14132976D01*
X16097024Y-14132976D01*
X16077976Y-14123452D01*
X16068452Y-14113929D01*
X16058928Y-14094881D01*
X16058928Y-14037738D01*
X16068452Y-14018690D01*
X16077976Y-14009167D01*
X16097024Y-13999643D01*
X16135119Y-13999643D01*
X16154166Y-14009167D01*
X16230357Y-14209167D02*
X16239881Y-14199643D01*
X16258928Y-14171071D01*
X16268452Y-14152024D01*
X16277976Y-14123452D01*
X16287500Y-14075833D01*
X16287500Y-14037738D01*
X16277976Y-13990119D01*
X16268452Y-13961548D01*
X16258928Y-13942500D01*
X16239881Y-13913929D01*
X16230357Y-13904405D01*
M02*
