%TF.GenerationSoftware,KiCad,Pcbnew,5.99.0-unknown-acf13a186~104~ubuntu20.04.1*%
%TF.CreationDate,2020-09-23T14:04:27+02:00*%
%TF.ProjectId,matrixctl,6d617472-6978-4637-946c-2e6b69636164,rev?*%
%TF.SameCoordinates,Original*%
%TF.FileFunction,Legend,Top*%
%TF.FilePolarity,Positive*%
%FSLAX46Y46*%
G04 Gerber Fmt 4.6, Leading zero omitted, Abs format (unit mm)*
G04 Created by KiCad (PCBNEW 5.99.0-unknown-acf13a186~104~ubuntu20.04.1) date 2020-09-23 14:04:27*
%MOMM*%
%LPD*%
G01*
G04 APERTURE LIST*
%ADD10C,0.150000*%
%ADD11C,0.120000*%
%ADD12R,1.700000X1.700000*%
%ADD13O,1.700000X1.700000*%
%ADD14C,1.000000*%
%ADD15R,0.600000X0.450000*%
%ADD16R,1.220000X0.650000*%
%ADD17C,1.600000*%
%ADD18R,0.800000X2.500000*%
%ADD19O,1.100000X5.500000*%
%ADD20R,0.400000X1.350000*%
%ADD21R,1.200000X1.900000*%
%ADD22C,1.450000*%
%ADD23R,1.500000X1.900000*%
%ADD24O,1.200000X1.900000*%
G04 APERTURE END LIST*
D10*
X133566666Y-105647380D02*
X133566666Y-104980714D01*
X133566666Y-105075952D02*
X133614285Y-105028333D01*
X133709523Y-104980714D01*
X133852380Y-104980714D01*
X133947619Y-105028333D01*
X133995238Y-105123571D01*
X133995238Y-105647380D01*
X133995238Y-105123571D02*
X134042857Y-105028333D01*
X134138095Y-104980714D01*
X134280952Y-104980714D01*
X134376190Y-105028333D01*
X134423809Y-105123571D01*
X134423809Y-105647380D01*
X135328571Y-105647380D02*
X135328571Y-105123571D01*
X135280952Y-105028333D01*
X135185714Y-104980714D01*
X134995238Y-104980714D01*
X134900000Y-105028333D01*
X135328571Y-105599761D02*
X135233333Y-105647380D01*
X134995238Y-105647380D01*
X134900000Y-105599761D01*
X134852380Y-105504523D01*
X134852380Y-105409285D01*
X134900000Y-105314047D01*
X134995238Y-105266428D01*
X135233333Y-105266428D01*
X135328571Y-105218809D01*
X135661904Y-104980714D02*
X136042857Y-104980714D01*
X135804761Y-104647380D02*
X135804761Y-105504523D01*
X135852380Y-105599761D01*
X135947619Y-105647380D01*
X136042857Y-105647380D01*
X136376190Y-105647380D02*
X136376190Y-104980714D01*
X136376190Y-105171190D02*
X136423809Y-105075952D01*
X136471428Y-105028333D01*
X136566666Y-104980714D01*
X136661904Y-104980714D01*
X136995238Y-105647380D02*
X136995238Y-104980714D01*
X136995238Y-104647380D02*
X136947619Y-104695000D01*
X136995238Y-104742619D01*
X137042857Y-104695000D01*
X136995238Y-104647380D01*
X136995238Y-104742619D01*
X137376190Y-105647380D02*
X137900000Y-104980714D01*
X137376190Y-104980714D02*
X137900000Y-105647380D01*
X138709523Y-105599761D02*
X138614285Y-105647380D01*
X138423809Y-105647380D01*
X138328571Y-105599761D01*
X138280952Y-105552142D01*
X138233333Y-105456904D01*
X138233333Y-105171190D01*
X138280952Y-105075952D01*
X138328571Y-105028333D01*
X138423809Y-104980714D01*
X138614285Y-104980714D01*
X138709523Y-105028333D01*
X138995238Y-104980714D02*
X139376190Y-104980714D01*
X139138095Y-104647380D02*
X139138095Y-105504523D01*
X139185714Y-105599761D01*
X139280952Y-105647380D01*
X139376190Y-105647380D01*
X139852380Y-105647380D02*
X139757142Y-105599761D01*
X139709523Y-105504523D01*
X139709523Y-104647380D01*
X140900000Y-104980714D02*
X141138095Y-105647380D01*
X141376190Y-104980714D01*
X141709523Y-104742619D02*
X141757142Y-104695000D01*
X141852380Y-104647380D01*
X142090476Y-104647380D01*
X142185714Y-104695000D01*
X142233333Y-104742619D01*
X142280952Y-104837857D01*
X142280952Y-104933095D01*
X142233333Y-105075952D01*
X141661904Y-105647380D01*
X142280952Y-105647380D01*
X134090476Y-107257380D02*
X134090476Y-106257380D01*
X134519047Y-107257380D02*
X134519047Y-106733571D01*
X134471428Y-106638333D01*
X134376190Y-106590714D01*
X134233333Y-106590714D01*
X134138095Y-106638333D01*
X134090476Y-106685952D01*
X135423809Y-106590714D02*
X135423809Y-107257380D01*
X134995238Y-106590714D02*
X134995238Y-107114523D01*
X135042857Y-107209761D01*
X135138095Y-107257380D01*
X135280952Y-107257380D01*
X135376190Y-107209761D01*
X135423809Y-107162142D01*
X135900000Y-106590714D02*
X135900000Y-107257380D01*
X135900000Y-106685952D02*
X135947619Y-106638333D01*
X136042857Y-106590714D01*
X136185714Y-106590714D01*
X136280952Y-106638333D01*
X136328571Y-106733571D01*
X136328571Y-107257380D01*
X136709523Y-106590714D02*
X137233333Y-106590714D01*
X136709523Y-107257380D01*
X137233333Y-107257380D01*
X138328571Y-106352619D02*
X138376190Y-106305000D01*
X138471428Y-106257380D01*
X138709523Y-106257380D01*
X138804761Y-106305000D01*
X138852380Y-106352619D01*
X138900000Y-106447857D01*
X138900000Y-106543095D01*
X138852380Y-106685952D01*
X138280952Y-107257380D01*
X138900000Y-107257380D01*
X139519047Y-106257380D02*
X139614285Y-106257380D01*
X139709523Y-106305000D01*
X139757142Y-106352619D01*
X139804761Y-106447857D01*
X139852380Y-106638333D01*
X139852380Y-106876428D01*
X139804761Y-107066904D01*
X139757142Y-107162142D01*
X139709523Y-107209761D01*
X139614285Y-107257380D01*
X139519047Y-107257380D01*
X139423809Y-107209761D01*
X139376190Y-107162142D01*
X139328571Y-107066904D01*
X139280952Y-106876428D01*
X139280952Y-106638333D01*
X139328571Y-106447857D01*
X139376190Y-106352619D01*
X139423809Y-106305000D01*
X139519047Y-106257380D01*
X140233333Y-106352619D02*
X140280952Y-106305000D01*
X140376190Y-106257380D01*
X140614285Y-106257380D01*
X140709523Y-106305000D01*
X140757142Y-106352619D01*
X140804761Y-106447857D01*
X140804761Y-106543095D01*
X140757142Y-106685952D01*
X140185714Y-107257380D01*
X140804761Y-107257380D01*
X141423809Y-106257380D02*
X141519047Y-106257380D01*
X141614285Y-106305000D01*
X141661904Y-106352619D01*
X141709523Y-106447857D01*
X141757142Y-106638333D01*
X141757142Y-106876428D01*
X141709523Y-107066904D01*
X141661904Y-107162142D01*
X141614285Y-107209761D01*
X141519047Y-107257380D01*
X141423809Y-107257380D01*
X141328571Y-107209761D01*
X141280952Y-107162142D01*
X141233333Y-107066904D01*
X141185714Y-106876428D01*
X141185714Y-106638333D01*
X141233333Y-106447857D01*
X141280952Y-106352619D01*
X141328571Y-106305000D01*
X141423809Y-106257380D01*
%TO.C,U2*%
X145047619Y-125547619D02*
X144952380Y-125547619D01*
X144857142Y-125500000D01*
X144809523Y-125452380D01*
X144761904Y-125357142D01*
X144714285Y-125166666D01*
X144714285Y-124928571D01*
X144761904Y-124738095D01*
X144809523Y-124642857D01*
X144857142Y-124595238D01*
X144952380Y-124547619D01*
X145047619Y-124547619D01*
X145142857Y-124595238D01*
X145190476Y-124642857D01*
X145238095Y-124738095D01*
X145285714Y-124928571D01*
X145285714Y-125166666D01*
X145238095Y-125357142D01*
X145190476Y-125452380D01*
X145142857Y-125500000D01*
X145047619Y-125547619D01*
X134514285Y-124547619D02*
X135085714Y-124547619D01*
X134800000Y-124547619D02*
X134800000Y-125547619D01*
X134895238Y-125404761D01*
X134990476Y-125309523D01*
X135085714Y-125261904D01*
X123685714Y-125452380D02*
X123638095Y-125500000D01*
X123542857Y-125547619D01*
X123304761Y-125547619D01*
X123209523Y-125500000D01*
X123161904Y-125452380D01*
X123114285Y-125357142D01*
X123114285Y-125261904D01*
X123161904Y-125119047D01*
X123733333Y-124547619D01*
X123114285Y-124547619D01*
X112761904Y-125547619D02*
X112142857Y-125547619D01*
X112476190Y-125166666D01*
X112333333Y-125166666D01*
X112238095Y-125119047D01*
X112190476Y-125071428D01*
X112142857Y-124976190D01*
X112142857Y-124738095D01*
X112190476Y-124642857D01*
X112238095Y-124595238D01*
X112333333Y-124547619D01*
X112619047Y-124547619D01*
X112714285Y-124595238D01*
X112761904Y-124642857D01*
X111857142Y-125547619D02*
X111523809Y-124547619D01*
X111190476Y-125547619D01*
X102561904Y-125500000D02*
X102657142Y-125547619D01*
X102800000Y-125547619D01*
X102942857Y-125500000D01*
X103038095Y-125404761D01*
X103085714Y-125309523D01*
X103133333Y-125119047D01*
X103133333Y-124976190D01*
X103085714Y-124785714D01*
X103038095Y-124690476D01*
X102942857Y-124595238D01*
X102800000Y-124547619D01*
X102704761Y-124547619D01*
X102561904Y-124595238D01*
X102514285Y-124642857D01*
X102514285Y-124976190D01*
X102704761Y-124976190D01*
X102085714Y-124547619D02*
X102085714Y-125547619D01*
X101514285Y-124547619D01*
X101514285Y-125547619D01*
X101038095Y-124547619D02*
X101038095Y-125547619D01*
X100800000Y-125547619D01*
X100657142Y-125500000D01*
X100561904Y-125404761D01*
X100514285Y-125309523D01*
X100466666Y-125119047D01*
X100466666Y-124976190D01*
X100514285Y-124785714D01*
X100561904Y-124690476D01*
X100657142Y-124595238D01*
X100800000Y-124547619D01*
X101038095Y-124547619D01*
D11*
%TO.C,R106*%
X131290000Y-114737221D02*
X131290000Y-115062779D01*
X132310000Y-114737221D02*
X132310000Y-115062779D01*
%TO.C,R2*%
X112462779Y-116710000D02*
X112137221Y-116710000D01*
X112462779Y-115690000D02*
X112137221Y-115690000D01*
%TO.C,FB102*%
X119010000Y-117958578D02*
X119010000Y-117441422D01*
X117590000Y-117958578D02*
X117590000Y-117441422D01*
%TO.C,J103*%
X122470000Y-119130000D02*
X122470000Y-116470000D01*
X121200000Y-119130000D02*
X119870000Y-119130000D01*
X140310000Y-119130000D02*
X140310000Y-116470000D01*
X119870000Y-119130000D02*
X119870000Y-117800000D01*
X122470000Y-119130000D02*
X140310000Y-119130000D01*
X122470000Y-116470000D02*
X140310000Y-116470000D01*
%TO.C,C2*%
X115462779Y-116710000D02*
X115137221Y-116710000D01*
X115462779Y-115690000D02*
X115137221Y-115690000D01*
%TO.C,C101*%
X123710000Y-109960000D02*
X123710000Y-105750000D01*
X120690000Y-109960000D02*
X123710000Y-109960000D01*
X120690000Y-105750000D02*
X120690000Y-109960000D01*
%TO.C,R112*%
X133910000Y-114462779D02*
X133910000Y-114137221D01*
X132890000Y-114462779D02*
X132890000Y-114137221D01*
%TO.C,R103*%
X129337221Y-113090000D02*
X129662779Y-113090000D01*
X129337221Y-114110000D02*
X129662779Y-114110000D01*
%TO.C,TP101*%
X123600000Y-112700000D02*
G75*
G03*
X123600000Y-112700000I-700000J0D01*
G01*
%TO.C,R1*%
X115462779Y-118210000D02*
X115137221Y-118210000D01*
X115462779Y-117190000D02*
X115137221Y-117190000D01*
%TO.C,C3*%
X112090000Y-113141422D02*
X112090000Y-113658578D01*
X113510000Y-113141422D02*
X113510000Y-113658578D01*
%TO.C,R101*%
X135437221Y-114590000D02*
X135762779Y-114590000D01*
X135437221Y-115610000D02*
X135762779Y-115610000D01*
%TO.C,L1*%
X117938748Y-109490000D02*
X118461252Y-109490000D01*
X117938748Y-111710000D02*
X118461252Y-111710000D01*
%TO.C,D101*%
X124400000Y-115650000D02*
X124400000Y-113950000D01*
X124400000Y-115650000D02*
X121850000Y-115650000D01*
X124400000Y-113950000D02*
X121850000Y-113950000D01*
%TO.C,FB101*%
X152390000Y-122758578D02*
X152390000Y-122241422D01*
X153810000Y-122758578D02*
X153810000Y-122241422D01*
%TO.C,R102*%
X135410000Y-112762779D02*
X135410000Y-112437221D01*
X134390000Y-112762779D02*
X134390000Y-112437221D01*
%TO.C,C105*%
X126562779Y-114110000D02*
X126237221Y-114110000D01*
X126562779Y-113090000D02*
X126237221Y-113090000D01*
%TO.C,F1*%
X157460000Y-121397936D02*
X157460000Y-122602064D01*
X154740000Y-121397936D02*
X154740000Y-122602064D01*
%TO.C,C103*%
X130837221Y-104690000D02*
X131162779Y-104690000D01*
X130837221Y-105710000D02*
X131162779Y-105710000D01*
%TO.C,R105*%
X125762779Y-109890000D02*
X125437221Y-109890000D01*
X125762779Y-110910000D02*
X125437221Y-110910000D01*
%TO.C,U1*%
X115120000Y-115210000D02*
X117550000Y-115210000D01*
X116880000Y-112140000D02*
X115120000Y-112140000D01*
%TO.C,C1*%
X118490000Y-113441422D02*
X118490000Y-113958578D01*
X119910000Y-113441422D02*
X119910000Y-113958578D01*
%TO.C,J1*%
X156970000Y-127530000D02*
X156970000Y-124870000D01*
X159570000Y-127530000D02*
X159570000Y-124870000D01*
X154370000Y-127530000D02*
X154370000Y-126200000D01*
X156970000Y-127530000D02*
X159570000Y-127530000D01*
X155700000Y-127530000D02*
X154370000Y-127530000D01*
X156970000Y-124870000D02*
X159570000Y-124870000D01*
%TO.C,U2*%
X151800000Y-123000000D02*
X149100000Y-123000000D01*
X103682090Y-126308766D02*
X104982090Y-126308766D01*
X113865495Y-126308766D02*
X115165495Y-126308766D01*
X97700195Y-123000000D02*
X97700195Y-121100000D01*
X98636856Y-126300000D02*
X98636856Y-123900000D01*
X143100000Y-126300000D02*
X143100000Y-123900000D01*
X125300000Y-126314825D02*
X121500000Y-126314825D01*
X151800000Y-133600000D02*
X95000000Y-133600000D01*
X103700000Y-123900000D02*
X103700000Y-126300000D01*
X115159701Y-126300000D02*
X115159701Y-123900000D01*
X108800000Y-126300000D02*
X108800000Y-123900000D01*
X125300000Y-123900000D02*
X125300000Y-126300000D01*
X104976296Y-126300000D02*
X104976296Y-123900000D01*
X113900000Y-123900000D02*
X113900000Y-126300000D01*
X121500000Y-126300000D02*
X121500000Y-123900000D01*
X146900000Y-126314825D02*
X143100000Y-126314825D01*
X146900000Y-123900000D02*
X146900000Y-126300000D01*
X99938155Y-126309058D02*
X98638155Y-126309058D01*
X110101299Y-126309058D02*
X108801299Y-126309058D01*
X151800000Y-133600000D02*
X151800000Y-123000000D01*
X136700000Y-126314825D02*
X132900000Y-126314825D01*
X95000000Y-123000000D02*
X97700000Y-123000000D01*
X103700000Y-126314825D02*
X99900000Y-126314825D01*
X149100000Y-123000000D02*
X149100000Y-121100000D01*
X110100000Y-126300000D02*
X110100000Y-123900000D01*
X95000000Y-133600000D02*
X95000000Y-123000000D01*
X99900000Y-126300000D02*
X99900000Y-123900000D01*
X136700000Y-123900000D02*
X136700000Y-126300000D01*
X132900000Y-126300000D02*
X132900000Y-123900000D01*
X113900000Y-126314825D02*
X110100000Y-126314825D01*
X149923607Y-121500000D02*
G75*
G03*
X149923607Y-121500000I-223607J0D01*
G01*
%TO.C,R104*%
X127737221Y-115710000D02*
X128062779Y-115710000D01*
X127737221Y-114690000D02*
X128062779Y-114690000D01*
%TO.C,J104*%
X160900000Y-133837500D02*
X160900000Y-133587500D01*
X153100000Y-129437500D02*
X153550000Y-129437500D01*
X153100000Y-133837500D02*
X153100000Y-133587500D01*
X155300000Y-128887500D02*
X155300000Y-129337500D01*
X153100000Y-131287500D02*
X153100000Y-129437500D01*
X155300000Y-128887500D02*
X155750000Y-128887500D01*
X160900000Y-131287500D02*
X160900000Y-129437500D01*
X160900000Y-129437500D02*
X160450000Y-129437500D01*
%TO.C,C102*%
X125790000Y-108262779D02*
X125790000Y-107937221D01*
X126810000Y-108262779D02*
X126810000Y-107937221D01*
%TO.C,U101*%
X132185000Y-112210000D02*
X132910000Y-112210000D01*
X132910000Y-106990000D02*
X132910000Y-107715000D01*
X128415000Y-112210000D02*
X127690000Y-112210000D01*
X128415000Y-106990000D02*
X127690000Y-106990000D01*
X132185000Y-106990000D02*
X132910000Y-106990000D01*
X127690000Y-106990000D02*
X127690000Y-107715000D01*
X127690000Y-112210000D02*
X127690000Y-111485000D01*
%TO.C,C104*%
X125762779Y-111490000D02*
X125437221Y-111490000D01*
X125762779Y-112510000D02*
X125437221Y-112510000D01*
%TD*%
%LPC*%
%TO.C,R106*%
G36*
G01*
X131543750Y-113675000D02*
X132056250Y-113675000D01*
G75*
G02*
X132275000Y-113893750I0J-218750D01*
G01*
X132275000Y-114331250D01*
G75*
G02*
X132056250Y-114550000I-218750J0D01*
G01*
X131543750Y-114550000D01*
G75*
G02*
X131325000Y-114331250I0J218750D01*
G01*
X131325000Y-113893750D01*
G75*
G02*
X131543750Y-113675000I218750J0D01*
G01*
G37*
G36*
G01*
X131543750Y-115250000D02*
X132056250Y-115250000D01*
G75*
G02*
X132275000Y-115468750I0J-218750D01*
G01*
X132275000Y-115906250D01*
G75*
G02*
X132056250Y-116125000I-218750J0D01*
G01*
X131543750Y-116125000D01*
G75*
G02*
X131325000Y-115906250I0J218750D01*
G01*
X131325000Y-115468750D01*
G75*
G02*
X131543750Y-115250000I218750J0D01*
G01*
G37*
%TD*%
%TO.C,R2*%
G36*
G01*
X113525000Y-115943750D02*
X113525000Y-116456250D01*
G75*
G02*
X113306250Y-116675000I-218750J0D01*
G01*
X112868750Y-116675000D01*
G75*
G02*
X112650000Y-116456250I0J218750D01*
G01*
X112650000Y-115943750D01*
G75*
G02*
X112868750Y-115725000I218750J0D01*
G01*
X113306250Y-115725000D01*
G75*
G02*
X113525000Y-115943750I0J-218750D01*
G01*
G37*
G36*
G01*
X111950000Y-115943750D02*
X111950000Y-116456250D01*
G75*
G02*
X111731250Y-116675000I-218750J0D01*
G01*
X111293750Y-116675000D01*
G75*
G02*
X111075000Y-116456250I0J218750D01*
G01*
X111075000Y-115943750D01*
G75*
G02*
X111293750Y-115725000I218750J0D01*
G01*
X111731250Y-115725000D01*
G75*
G02*
X111950000Y-115943750I0J-218750D01*
G01*
G37*
%TD*%
%TO.C,FB102*%
G36*
G01*
X118756250Y-119125000D02*
X117843750Y-119125000D01*
G75*
G02*
X117600000Y-118881250I0J243750D01*
G01*
X117600000Y-118393750D01*
G75*
G02*
X117843750Y-118150000I243750J0D01*
G01*
X118756250Y-118150000D01*
G75*
G02*
X119000000Y-118393750I0J-243750D01*
G01*
X119000000Y-118881250D01*
G75*
G02*
X118756250Y-119125000I-243750J0D01*
G01*
G37*
G36*
G01*
X118756250Y-117250000D02*
X117843750Y-117250000D01*
G75*
G02*
X117600000Y-117006250I0J243750D01*
G01*
X117600000Y-116518750D01*
G75*
G02*
X117843750Y-116275000I243750J0D01*
G01*
X118756250Y-116275000D01*
G75*
G02*
X119000000Y-116518750I0J-243750D01*
G01*
X119000000Y-117006250D01*
G75*
G02*
X118756250Y-117250000I-243750J0D01*
G01*
G37*
%TD*%
D12*
%TO.C,J103*%
X121200000Y-117800000D03*
D13*
X123740000Y-117800000D03*
X126280000Y-117800000D03*
X128820000Y-117800000D03*
X131360000Y-117800000D03*
X133900000Y-117800000D03*
X136440000Y-117800000D03*
X138980000Y-117800000D03*
%TD*%
%TO.C,C2*%
G36*
G01*
X116525000Y-115943750D02*
X116525000Y-116456250D01*
G75*
G02*
X116306250Y-116675000I-218750J0D01*
G01*
X115868750Y-116675000D01*
G75*
G02*
X115650000Y-116456250I0J218750D01*
G01*
X115650000Y-115943750D01*
G75*
G02*
X115868750Y-115725000I218750J0D01*
G01*
X116306250Y-115725000D01*
G75*
G02*
X116525000Y-115943750I0J-218750D01*
G01*
G37*
G36*
G01*
X114950000Y-115943750D02*
X114950000Y-116456250D01*
G75*
G02*
X114731250Y-116675000I-218750J0D01*
G01*
X114293750Y-116675000D01*
G75*
G02*
X114075000Y-116456250I0J218750D01*
G01*
X114075000Y-115943750D01*
G75*
G02*
X114293750Y-115725000I218750J0D01*
G01*
X114731250Y-115725000D01*
G75*
G02*
X114950000Y-115943750I0J-218750D01*
G01*
G37*
%TD*%
%TO.C,C101*%
G36*
G01*
X123125000Y-109700000D02*
X121275000Y-109700000D01*
G75*
G02*
X121025000Y-109450000I0J250000D01*
G01*
X121025000Y-108625000D01*
G75*
G02*
X121275000Y-108375000I250000J0D01*
G01*
X123125000Y-108375000D01*
G75*
G02*
X123375000Y-108625000I0J-250000D01*
G01*
X123375000Y-109450000D01*
G75*
G02*
X123125000Y-109700000I-250000J0D01*
G01*
G37*
G36*
G01*
X123125000Y-106625000D02*
X121275000Y-106625000D01*
G75*
G02*
X121025000Y-106375000I0J250000D01*
G01*
X121025000Y-105550000D01*
G75*
G02*
X121275000Y-105300000I250000J0D01*
G01*
X123125000Y-105300000D01*
G75*
G02*
X123375000Y-105550000I0J-250000D01*
G01*
X123375000Y-106375000D01*
G75*
G02*
X123125000Y-106625000I-250000J0D01*
G01*
G37*
%TD*%
%TO.C,R112*%
G36*
G01*
X133656250Y-115525000D02*
X133143750Y-115525000D01*
G75*
G02*
X132925000Y-115306250I0J218750D01*
G01*
X132925000Y-114868750D01*
G75*
G02*
X133143750Y-114650000I218750J0D01*
G01*
X133656250Y-114650000D01*
G75*
G02*
X133875000Y-114868750I0J-218750D01*
G01*
X133875000Y-115306250D01*
G75*
G02*
X133656250Y-115525000I-218750J0D01*
G01*
G37*
G36*
G01*
X133656250Y-113950000D02*
X133143750Y-113950000D01*
G75*
G02*
X132925000Y-113731250I0J218750D01*
G01*
X132925000Y-113293750D01*
G75*
G02*
X133143750Y-113075000I218750J0D01*
G01*
X133656250Y-113075000D01*
G75*
G02*
X133875000Y-113293750I0J-218750D01*
G01*
X133875000Y-113731250D01*
G75*
G02*
X133656250Y-113950000I-218750J0D01*
G01*
G37*
%TD*%
%TO.C,R103*%
G36*
G01*
X128275000Y-113856250D02*
X128275000Y-113343750D01*
G75*
G02*
X128493750Y-113125000I218750J0D01*
G01*
X128931250Y-113125000D01*
G75*
G02*
X129150000Y-113343750I0J-218750D01*
G01*
X129150000Y-113856250D01*
G75*
G02*
X128931250Y-114075000I-218750J0D01*
G01*
X128493750Y-114075000D01*
G75*
G02*
X128275000Y-113856250I0J218750D01*
G01*
G37*
G36*
G01*
X129850000Y-113856250D02*
X129850000Y-113343750D01*
G75*
G02*
X130068750Y-113125000I218750J0D01*
G01*
X130506250Y-113125000D01*
G75*
G02*
X130725000Y-113343750I0J-218750D01*
G01*
X130725000Y-113856250D01*
G75*
G02*
X130506250Y-114075000I-218750J0D01*
G01*
X130068750Y-114075000D01*
G75*
G02*
X129850000Y-113856250I0J218750D01*
G01*
G37*
%TD*%
D14*
%TO.C,TP101*%
X122900000Y-112700000D03*
%TD*%
%TO.C,R1*%
G36*
G01*
X116525000Y-117443750D02*
X116525000Y-117956250D01*
G75*
G02*
X116306250Y-118175000I-218750J0D01*
G01*
X115868750Y-118175000D01*
G75*
G02*
X115650000Y-117956250I0J218750D01*
G01*
X115650000Y-117443750D01*
G75*
G02*
X115868750Y-117225000I218750J0D01*
G01*
X116306250Y-117225000D01*
G75*
G02*
X116525000Y-117443750I0J-218750D01*
G01*
G37*
G36*
G01*
X114950000Y-117443750D02*
X114950000Y-117956250D01*
G75*
G02*
X114731250Y-118175000I-218750J0D01*
G01*
X114293750Y-118175000D01*
G75*
G02*
X114075000Y-117956250I0J218750D01*
G01*
X114075000Y-117443750D01*
G75*
G02*
X114293750Y-117225000I218750J0D01*
G01*
X114731250Y-117225000D01*
G75*
G02*
X114950000Y-117443750I0J-218750D01*
G01*
G37*
%TD*%
%TO.C,C3*%
G36*
G01*
X112343750Y-111975000D02*
X113256250Y-111975000D01*
G75*
G02*
X113500000Y-112218750I0J-243750D01*
G01*
X113500000Y-112706250D01*
G75*
G02*
X113256250Y-112950000I-243750J0D01*
G01*
X112343750Y-112950000D01*
G75*
G02*
X112100000Y-112706250I0J243750D01*
G01*
X112100000Y-112218750D01*
G75*
G02*
X112343750Y-111975000I243750J0D01*
G01*
G37*
G36*
G01*
X112343750Y-113850000D02*
X113256250Y-113850000D01*
G75*
G02*
X113500000Y-114093750I0J-243750D01*
G01*
X113500000Y-114581250D01*
G75*
G02*
X113256250Y-114825000I-243750J0D01*
G01*
X112343750Y-114825000D01*
G75*
G02*
X112100000Y-114581250I0J243750D01*
G01*
X112100000Y-114093750D01*
G75*
G02*
X112343750Y-113850000I243750J0D01*
G01*
G37*
%TD*%
%TO.C,R101*%
G36*
G01*
X134375000Y-115356250D02*
X134375000Y-114843750D01*
G75*
G02*
X134593750Y-114625000I218750J0D01*
G01*
X135031250Y-114625000D01*
G75*
G02*
X135250000Y-114843750I0J-218750D01*
G01*
X135250000Y-115356250D01*
G75*
G02*
X135031250Y-115575000I-218750J0D01*
G01*
X134593750Y-115575000D01*
G75*
G02*
X134375000Y-115356250I0J218750D01*
G01*
G37*
G36*
G01*
X135950000Y-115356250D02*
X135950000Y-114843750D01*
G75*
G02*
X136168750Y-114625000I218750J0D01*
G01*
X136606250Y-114625000D01*
G75*
G02*
X136825000Y-114843750I0J-218750D01*
G01*
X136825000Y-115356250D01*
G75*
G02*
X136606250Y-115575000I-218750J0D01*
G01*
X136168750Y-115575000D01*
G75*
G02*
X135950000Y-115356250I0J218750D01*
G01*
G37*
%TD*%
%TO.C,L1*%
G36*
G01*
X116500000Y-111450000D02*
X116500000Y-109750000D01*
G75*
G02*
X116750000Y-109500000I250000J0D01*
G01*
X117500000Y-109500000D01*
G75*
G02*
X117750000Y-109750000I0J-250000D01*
G01*
X117750000Y-111450000D01*
G75*
G02*
X117500000Y-111700000I-250000J0D01*
G01*
X116750000Y-111700000D01*
G75*
G02*
X116500000Y-111450000I0J250000D01*
G01*
G37*
G36*
G01*
X118650000Y-111450000D02*
X118650000Y-109750000D01*
G75*
G02*
X118900000Y-109500000I250000J0D01*
G01*
X119650000Y-109500000D01*
G75*
G02*
X119900000Y-109750000I0J-250000D01*
G01*
X119900000Y-111450000D01*
G75*
G02*
X119650000Y-111700000I-250000J0D01*
G01*
X118900000Y-111700000D01*
G75*
G02*
X118650000Y-111450000I0J250000D01*
G01*
G37*
%TD*%
D15*
%TO.C,D101*%
X123950000Y-114800000D03*
X121850000Y-114800000D03*
%TD*%
%TO.C,FB101*%
G36*
G01*
X153556250Y-123925000D02*
X152643750Y-123925000D01*
G75*
G02*
X152400000Y-123681250I0J243750D01*
G01*
X152400000Y-123193750D01*
G75*
G02*
X152643750Y-122950000I243750J0D01*
G01*
X153556250Y-122950000D01*
G75*
G02*
X153800000Y-123193750I0J-243750D01*
G01*
X153800000Y-123681250D01*
G75*
G02*
X153556250Y-123925000I-243750J0D01*
G01*
G37*
G36*
G01*
X153556250Y-122050000D02*
X152643750Y-122050000D01*
G75*
G02*
X152400000Y-121806250I0J243750D01*
G01*
X152400000Y-121318750D01*
G75*
G02*
X152643750Y-121075000I243750J0D01*
G01*
X153556250Y-121075000D01*
G75*
G02*
X153800000Y-121318750I0J-243750D01*
G01*
X153800000Y-121806250D01*
G75*
G02*
X153556250Y-122050000I-243750J0D01*
G01*
G37*
%TD*%
%TO.C,R102*%
G36*
G01*
X135156250Y-113825000D02*
X134643750Y-113825000D01*
G75*
G02*
X134425000Y-113606250I0J218750D01*
G01*
X134425000Y-113168750D01*
G75*
G02*
X134643750Y-112950000I218750J0D01*
G01*
X135156250Y-112950000D01*
G75*
G02*
X135375000Y-113168750I0J-218750D01*
G01*
X135375000Y-113606250D01*
G75*
G02*
X135156250Y-113825000I-218750J0D01*
G01*
G37*
G36*
G01*
X135156250Y-112250000D02*
X134643750Y-112250000D01*
G75*
G02*
X134425000Y-112031250I0J218750D01*
G01*
X134425000Y-111593750D01*
G75*
G02*
X134643750Y-111375000I218750J0D01*
G01*
X135156250Y-111375000D01*
G75*
G02*
X135375000Y-111593750I0J-218750D01*
G01*
X135375000Y-112031250D01*
G75*
G02*
X135156250Y-112250000I-218750J0D01*
G01*
G37*
%TD*%
%TO.C,C105*%
G36*
G01*
X127625000Y-113343750D02*
X127625000Y-113856250D01*
G75*
G02*
X127406250Y-114075000I-218750J0D01*
G01*
X126968750Y-114075000D01*
G75*
G02*
X126750000Y-113856250I0J218750D01*
G01*
X126750000Y-113343750D01*
G75*
G02*
X126968750Y-113125000I218750J0D01*
G01*
X127406250Y-113125000D01*
G75*
G02*
X127625000Y-113343750I0J-218750D01*
G01*
G37*
G36*
G01*
X126050000Y-113343750D02*
X126050000Y-113856250D01*
G75*
G02*
X125831250Y-114075000I-218750J0D01*
G01*
X125393750Y-114075000D01*
G75*
G02*
X125175000Y-113856250I0J218750D01*
G01*
X125175000Y-113343750D01*
G75*
G02*
X125393750Y-113125000I218750J0D01*
G01*
X125831250Y-113125000D01*
G75*
G02*
X126050000Y-113343750I0J-218750D01*
G01*
G37*
%TD*%
%TO.C,F1*%
G36*
G01*
X155025000Y-119975000D02*
X157175000Y-119975000D01*
G75*
G02*
X157425000Y-120225000I0J-250000D01*
G01*
X157425000Y-120975000D01*
G75*
G02*
X157175000Y-121225000I-250000J0D01*
G01*
X155025000Y-121225000D01*
G75*
G02*
X154775000Y-120975000I0J250000D01*
G01*
X154775000Y-120225000D01*
G75*
G02*
X155025000Y-119975000I250000J0D01*
G01*
G37*
G36*
G01*
X155025000Y-122775000D02*
X157175000Y-122775000D01*
G75*
G02*
X157425000Y-123025000I0J-250000D01*
G01*
X157425000Y-123775000D01*
G75*
G02*
X157175000Y-124025000I-250000J0D01*
G01*
X155025000Y-124025000D01*
G75*
G02*
X154775000Y-123775000I0J250000D01*
G01*
X154775000Y-123025000D01*
G75*
G02*
X155025000Y-122775000I250000J0D01*
G01*
G37*
%TD*%
%TO.C,C103*%
G36*
G01*
X129775000Y-105456250D02*
X129775000Y-104943750D01*
G75*
G02*
X129993750Y-104725000I218750J0D01*
G01*
X130431250Y-104725000D01*
G75*
G02*
X130650000Y-104943750I0J-218750D01*
G01*
X130650000Y-105456250D01*
G75*
G02*
X130431250Y-105675000I-218750J0D01*
G01*
X129993750Y-105675000D01*
G75*
G02*
X129775000Y-105456250I0J218750D01*
G01*
G37*
G36*
G01*
X131350000Y-105456250D02*
X131350000Y-104943750D01*
G75*
G02*
X131568750Y-104725000I218750J0D01*
G01*
X132006250Y-104725000D01*
G75*
G02*
X132225000Y-104943750I0J-218750D01*
G01*
X132225000Y-105456250D01*
G75*
G02*
X132006250Y-105675000I-218750J0D01*
G01*
X131568750Y-105675000D01*
G75*
G02*
X131350000Y-105456250I0J218750D01*
G01*
G37*
%TD*%
%TO.C,R105*%
G36*
G01*
X126825000Y-110143750D02*
X126825000Y-110656250D01*
G75*
G02*
X126606250Y-110875000I-218750J0D01*
G01*
X126168750Y-110875000D01*
G75*
G02*
X125950000Y-110656250I0J218750D01*
G01*
X125950000Y-110143750D01*
G75*
G02*
X126168750Y-109925000I218750J0D01*
G01*
X126606250Y-109925000D01*
G75*
G02*
X126825000Y-110143750I0J-218750D01*
G01*
G37*
G36*
G01*
X125250000Y-110143750D02*
X125250000Y-110656250D01*
G75*
G02*
X125031250Y-110875000I-218750J0D01*
G01*
X124593750Y-110875000D01*
G75*
G02*
X124375000Y-110656250I0J218750D01*
G01*
X124375000Y-110143750D01*
G75*
G02*
X124593750Y-109925000I218750J0D01*
G01*
X125031250Y-109925000D01*
G75*
G02*
X125250000Y-110143750I0J-218750D01*
G01*
G37*
%TD*%
D16*
%TO.C,U1*%
X117310000Y-114650000D03*
X117310000Y-113700000D03*
X117310000Y-112750000D03*
X114690000Y-112750000D03*
X114690000Y-114650000D03*
%TD*%
%TO.C,C1*%
G36*
G01*
X118743750Y-112275000D02*
X119656250Y-112275000D01*
G75*
G02*
X119900000Y-112518750I0J-243750D01*
G01*
X119900000Y-113006250D01*
G75*
G02*
X119656250Y-113250000I-243750J0D01*
G01*
X118743750Y-113250000D01*
G75*
G02*
X118500000Y-113006250I0J243750D01*
G01*
X118500000Y-112518750D01*
G75*
G02*
X118743750Y-112275000I243750J0D01*
G01*
G37*
G36*
G01*
X118743750Y-114150000D02*
X119656250Y-114150000D01*
G75*
G02*
X119900000Y-114393750I0J-243750D01*
G01*
X119900000Y-114881250D01*
G75*
G02*
X119656250Y-115125000I-243750J0D01*
G01*
X118743750Y-115125000D01*
G75*
G02*
X118500000Y-114881250I0J243750D01*
G01*
X118500000Y-114393750D01*
G75*
G02*
X118743750Y-114150000I243750J0D01*
G01*
G37*
%TD*%
D12*
%TO.C,J1*%
X155700000Y-126200000D03*
D13*
X158240000Y-126200000D03*
%TD*%
D17*
%TO.C,U2*%
X136400000Y-129150000D03*
X110400000Y-129150000D03*
D18*
X148165000Y-122300000D03*
X146895000Y-122300000D03*
X145625000Y-122300000D03*
X144355000Y-122300000D03*
X143085000Y-122300000D03*
X141815000Y-122300000D03*
X140545000Y-122300000D03*
X139275000Y-122300000D03*
X138005000Y-122300000D03*
X136735000Y-122300000D03*
X135465000Y-122300000D03*
X134195000Y-122300000D03*
X132925000Y-122300000D03*
X131655000Y-122300000D03*
X130385000Y-122300000D03*
X129115000Y-122300000D03*
X127845000Y-122300000D03*
X126575000Y-122300000D03*
X125305000Y-122300000D03*
X124035000Y-122300000D03*
X122765000Y-122300000D03*
X121495000Y-122300000D03*
X120225000Y-122300000D03*
X118955000Y-122300000D03*
X117685000Y-122300000D03*
X116415000Y-122300000D03*
X115145000Y-122300000D03*
X113875000Y-122300000D03*
X112605000Y-122300000D03*
X111335000Y-122300000D03*
X110065000Y-122300000D03*
X108795000Y-122300000D03*
X107525000Y-122300000D03*
X106255000Y-122300000D03*
X104985000Y-122300000D03*
X103715000Y-122300000D03*
X102445000Y-122300000D03*
X101175000Y-122300000D03*
X99905000Y-122300000D03*
X98635000Y-122300000D03*
D19*
X150400000Y-130810000D03*
X96400000Y-130810000D03*
%TD*%
%TO.C,R104*%
G36*
G01*
X126675000Y-115456250D02*
X126675000Y-114943750D01*
G75*
G02*
X126893750Y-114725000I218750J0D01*
G01*
X127331250Y-114725000D01*
G75*
G02*
X127550000Y-114943750I0J-218750D01*
G01*
X127550000Y-115456250D01*
G75*
G02*
X127331250Y-115675000I-218750J0D01*
G01*
X126893750Y-115675000D01*
G75*
G02*
X126675000Y-115456250I0J218750D01*
G01*
G37*
G36*
G01*
X128250000Y-115456250D02*
X128250000Y-114943750D01*
G75*
G02*
X128468750Y-114725000I218750J0D01*
G01*
X128906250Y-114725000D01*
G75*
G02*
X129125000Y-114943750I0J-218750D01*
G01*
X129125000Y-115456250D01*
G75*
G02*
X128906250Y-115675000I-218750J0D01*
G01*
X128468750Y-115675000D01*
G75*
G02*
X128250000Y-115456250I0J218750D01*
G01*
G37*
%TD*%
D20*
%TO.C,J104*%
X155700000Y-129737500D03*
X156350000Y-129737500D03*
X157000000Y-129737500D03*
X157650000Y-129737500D03*
X158300000Y-129737500D03*
D21*
X154100000Y-132437500D03*
D22*
X154500000Y-129737500D03*
D23*
X156000000Y-132437500D03*
D22*
X159500000Y-129737500D03*
D24*
X153500000Y-132437500D03*
D21*
X159900000Y-132437500D03*
D24*
X160500000Y-132437500D03*
D23*
X158000000Y-132437500D03*
%TD*%
%TO.C,C102*%
G36*
G01*
X126556250Y-109325000D02*
X126043750Y-109325000D01*
G75*
G02*
X125825000Y-109106250I0J218750D01*
G01*
X125825000Y-108668750D01*
G75*
G02*
X126043750Y-108450000I218750J0D01*
G01*
X126556250Y-108450000D01*
G75*
G02*
X126775000Y-108668750I0J-218750D01*
G01*
X126775000Y-109106250D01*
G75*
G02*
X126556250Y-109325000I-218750J0D01*
G01*
G37*
G36*
G01*
X126556250Y-107750000D02*
X126043750Y-107750000D01*
G75*
G02*
X125825000Y-107531250I0J218750D01*
G01*
X125825000Y-107093750D01*
G75*
G02*
X126043750Y-106875000I218750J0D01*
G01*
X126556250Y-106875000D01*
G75*
G02*
X126775000Y-107093750I0J-218750D01*
G01*
X126775000Y-107531250D01*
G75*
G02*
X126556250Y-107750000I-218750J0D01*
G01*
G37*
%TD*%
%TO.C,U101*%
G36*
G01*
X133150000Y-111037500D02*
X133150000Y-111162500D01*
G75*
G02*
X133087500Y-111225000I-62500J0D01*
G01*
X132412500Y-111225000D01*
G75*
G02*
X132350000Y-111162500I0J62500D01*
G01*
X132350000Y-111037500D01*
G75*
G02*
X132412500Y-110975000I62500J0D01*
G01*
X133087500Y-110975000D01*
G75*
G02*
X133150000Y-111037500I0J-62500D01*
G01*
G37*
G36*
G01*
X133150000Y-110537500D02*
X133150000Y-110662500D01*
G75*
G02*
X133087500Y-110725000I-62500J0D01*
G01*
X132412500Y-110725000D01*
G75*
G02*
X132350000Y-110662500I0J62500D01*
G01*
X132350000Y-110537500D01*
G75*
G02*
X132412500Y-110475000I62500J0D01*
G01*
X133087500Y-110475000D01*
G75*
G02*
X133150000Y-110537500I0J-62500D01*
G01*
G37*
G36*
G01*
X133150000Y-110037500D02*
X133150000Y-110162500D01*
G75*
G02*
X133087500Y-110225000I-62500J0D01*
G01*
X132412500Y-110225000D01*
G75*
G02*
X132350000Y-110162500I0J62500D01*
G01*
X132350000Y-110037500D01*
G75*
G02*
X132412500Y-109975000I62500J0D01*
G01*
X133087500Y-109975000D01*
G75*
G02*
X133150000Y-110037500I0J-62500D01*
G01*
G37*
G36*
G01*
X133150000Y-109537500D02*
X133150000Y-109662500D01*
G75*
G02*
X133087500Y-109725000I-62500J0D01*
G01*
X132412500Y-109725000D01*
G75*
G02*
X132350000Y-109662500I0J62500D01*
G01*
X132350000Y-109537500D01*
G75*
G02*
X132412500Y-109475000I62500J0D01*
G01*
X133087500Y-109475000D01*
G75*
G02*
X133150000Y-109537500I0J-62500D01*
G01*
G37*
G36*
G01*
X133150000Y-109037500D02*
X133150000Y-109162500D01*
G75*
G02*
X133087500Y-109225000I-62500J0D01*
G01*
X132412500Y-109225000D01*
G75*
G02*
X132350000Y-109162500I0J62500D01*
G01*
X132350000Y-109037500D01*
G75*
G02*
X132412500Y-108975000I62500J0D01*
G01*
X133087500Y-108975000D01*
G75*
G02*
X133150000Y-109037500I0J-62500D01*
G01*
G37*
G36*
G01*
X133150000Y-108537500D02*
X133150000Y-108662500D01*
G75*
G02*
X133087500Y-108725000I-62500J0D01*
G01*
X132412500Y-108725000D01*
G75*
G02*
X132350000Y-108662500I0J62500D01*
G01*
X132350000Y-108537500D01*
G75*
G02*
X132412500Y-108475000I62500J0D01*
G01*
X133087500Y-108475000D01*
G75*
G02*
X133150000Y-108537500I0J-62500D01*
G01*
G37*
G36*
G01*
X133150000Y-108037500D02*
X133150000Y-108162500D01*
G75*
G02*
X133087500Y-108225000I-62500J0D01*
G01*
X132412500Y-108225000D01*
G75*
G02*
X132350000Y-108162500I0J62500D01*
G01*
X132350000Y-108037500D01*
G75*
G02*
X132412500Y-107975000I62500J0D01*
G01*
X133087500Y-107975000D01*
G75*
G02*
X133150000Y-108037500I0J-62500D01*
G01*
G37*
G36*
G01*
X131925000Y-106812500D02*
X131925000Y-107487500D01*
G75*
G02*
X131862500Y-107550000I-62500J0D01*
G01*
X131737500Y-107550000D01*
G75*
G02*
X131675000Y-107487500I0J62500D01*
G01*
X131675000Y-106812500D01*
G75*
G02*
X131737500Y-106750000I62500J0D01*
G01*
X131862500Y-106750000D01*
G75*
G02*
X131925000Y-106812500I0J-62500D01*
G01*
G37*
G36*
G01*
X131425000Y-106812500D02*
X131425000Y-107487500D01*
G75*
G02*
X131362500Y-107550000I-62500J0D01*
G01*
X131237500Y-107550000D01*
G75*
G02*
X131175000Y-107487500I0J62500D01*
G01*
X131175000Y-106812500D01*
G75*
G02*
X131237500Y-106750000I62500J0D01*
G01*
X131362500Y-106750000D01*
G75*
G02*
X131425000Y-106812500I0J-62500D01*
G01*
G37*
G36*
G01*
X130925000Y-106812500D02*
X130925000Y-107487500D01*
G75*
G02*
X130862500Y-107550000I-62500J0D01*
G01*
X130737500Y-107550000D01*
G75*
G02*
X130675000Y-107487500I0J62500D01*
G01*
X130675000Y-106812500D01*
G75*
G02*
X130737500Y-106750000I62500J0D01*
G01*
X130862500Y-106750000D01*
G75*
G02*
X130925000Y-106812500I0J-62500D01*
G01*
G37*
G36*
G01*
X130425000Y-106812500D02*
X130425000Y-107487500D01*
G75*
G02*
X130362500Y-107550000I-62500J0D01*
G01*
X130237500Y-107550000D01*
G75*
G02*
X130175000Y-107487500I0J62500D01*
G01*
X130175000Y-106812500D01*
G75*
G02*
X130237500Y-106750000I62500J0D01*
G01*
X130362500Y-106750000D01*
G75*
G02*
X130425000Y-106812500I0J-62500D01*
G01*
G37*
G36*
G01*
X129925000Y-106812500D02*
X129925000Y-107487500D01*
G75*
G02*
X129862500Y-107550000I-62500J0D01*
G01*
X129737500Y-107550000D01*
G75*
G02*
X129675000Y-107487500I0J62500D01*
G01*
X129675000Y-106812500D01*
G75*
G02*
X129737500Y-106750000I62500J0D01*
G01*
X129862500Y-106750000D01*
G75*
G02*
X129925000Y-106812500I0J-62500D01*
G01*
G37*
G36*
G01*
X129425000Y-106812500D02*
X129425000Y-107487500D01*
G75*
G02*
X129362500Y-107550000I-62500J0D01*
G01*
X129237500Y-107550000D01*
G75*
G02*
X129175000Y-107487500I0J62500D01*
G01*
X129175000Y-106812500D01*
G75*
G02*
X129237500Y-106750000I62500J0D01*
G01*
X129362500Y-106750000D01*
G75*
G02*
X129425000Y-106812500I0J-62500D01*
G01*
G37*
G36*
G01*
X128925000Y-106812500D02*
X128925000Y-107487500D01*
G75*
G02*
X128862500Y-107550000I-62500J0D01*
G01*
X128737500Y-107550000D01*
G75*
G02*
X128675000Y-107487500I0J62500D01*
G01*
X128675000Y-106812500D01*
G75*
G02*
X128737500Y-106750000I62500J0D01*
G01*
X128862500Y-106750000D01*
G75*
G02*
X128925000Y-106812500I0J-62500D01*
G01*
G37*
G36*
G01*
X128250000Y-108037500D02*
X128250000Y-108162500D01*
G75*
G02*
X128187500Y-108225000I-62500J0D01*
G01*
X127512500Y-108225000D01*
G75*
G02*
X127450000Y-108162500I0J62500D01*
G01*
X127450000Y-108037500D01*
G75*
G02*
X127512500Y-107975000I62500J0D01*
G01*
X128187500Y-107975000D01*
G75*
G02*
X128250000Y-108037500I0J-62500D01*
G01*
G37*
G36*
G01*
X128250000Y-108537500D02*
X128250000Y-108662500D01*
G75*
G02*
X128187500Y-108725000I-62500J0D01*
G01*
X127512500Y-108725000D01*
G75*
G02*
X127450000Y-108662500I0J62500D01*
G01*
X127450000Y-108537500D01*
G75*
G02*
X127512500Y-108475000I62500J0D01*
G01*
X128187500Y-108475000D01*
G75*
G02*
X128250000Y-108537500I0J-62500D01*
G01*
G37*
G36*
G01*
X128250000Y-109037500D02*
X128250000Y-109162500D01*
G75*
G02*
X128187500Y-109225000I-62500J0D01*
G01*
X127512500Y-109225000D01*
G75*
G02*
X127450000Y-109162500I0J62500D01*
G01*
X127450000Y-109037500D01*
G75*
G02*
X127512500Y-108975000I62500J0D01*
G01*
X128187500Y-108975000D01*
G75*
G02*
X128250000Y-109037500I0J-62500D01*
G01*
G37*
G36*
G01*
X128250000Y-109537500D02*
X128250000Y-109662500D01*
G75*
G02*
X128187500Y-109725000I-62500J0D01*
G01*
X127512500Y-109725000D01*
G75*
G02*
X127450000Y-109662500I0J62500D01*
G01*
X127450000Y-109537500D01*
G75*
G02*
X127512500Y-109475000I62500J0D01*
G01*
X128187500Y-109475000D01*
G75*
G02*
X128250000Y-109537500I0J-62500D01*
G01*
G37*
G36*
G01*
X128250000Y-110037500D02*
X128250000Y-110162500D01*
G75*
G02*
X128187500Y-110225000I-62500J0D01*
G01*
X127512500Y-110225000D01*
G75*
G02*
X127450000Y-110162500I0J62500D01*
G01*
X127450000Y-110037500D01*
G75*
G02*
X127512500Y-109975000I62500J0D01*
G01*
X128187500Y-109975000D01*
G75*
G02*
X128250000Y-110037500I0J-62500D01*
G01*
G37*
G36*
G01*
X128250000Y-110537500D02*
X128250000Y-110662500D01*
G75*
G02*
X128187500Y-110725000I-62500J0D01*
G01*
X127512500Y-110725000D01*
G75*
G02*
X127450000Y-110662500I0J62500D01*
G01*
X127450000Y-110537500D01*
G75*
G02*
X127512500Y-110475000I62500J0D01*
G01*
X128187500Y-110475000D01*
G75*
G02*
X128250000Y-110537500I0J-62500D01*
G01*
G37*
G36*
G01*
X128250000Y-111037500D02*
X128250000Y-111162500D01*
G75*
G02*
X128187500Y-111225000I-62500J0D01*
G01*
X127512500Y-111225000D01*
G75*
G02*
X127450000Y-111162500I0J62500D01*
G01*
X127450000Y-111037500D01*
G75*
G02*
X127512500Y-110975000I62500J0D01*
G01*
X128187500Y-110975000D01*
G75*
G02*
X128250000Y-111037500I0J-62500D01*
G01*
G37*
G36*
G01*
X128925000Y-111712500D02*
X128925000Y-112387500D01*
G75*
G02*
X128862500Y-112450000I-62500J0D01*
G01*
X128737500Y-112450000D01*
G75*
G02*
X128675000Y-112387500I0J62500D01*
G01*
X128675000Y-111712500D01*
G75*
G02*
X128737500Y-111650000I62500J0D01*
G01*
X128862500Y-111650000D01*
G75*
G02*
X128925000Y-111712500I0J-62500D01*
G01*
G37*
G36*
G01*
X129425000Y-111712500D02*
X129425000Y-112387500D01*
G75*
G02*
X129362500Y-112450000I-62500J0D01*
G01*
X129237500Y-112450000D01*
G75*
G02*
X129175000Y-112387500I0J62500D01*
G01*
X129175000Y-111712500D01*
G75*
G02*
X129237500Y-111650000I62500J0D01*
G01*
X129362500Y-111650000D01*
G75*
G02*
X129425000Y-111712500I0J-62500D01*
G01*
G37*
G36*
G01*
X129925000Y-111712500D02*
X129925000Y-112387500D01*
G75*
G02*
X129862500Y-112450000I-62500J0D01*
G01*
X129737500Y-112450000D01*
G75*
G02*
X129675000Y-112387500I0J62500D01*
G01*
X129675000Y-111712500D01*
G75*
G02*
X129737500Y-111650000I62500J0D01*
G01*
X129862500Y-111650000D01*
G75*
G02*
X129925000Y-111712500I0J-62500D01*
G01*
G37*
G36*
G01*
X130425000Y-111712500D02*
X130425000Y-112387500D01*
G75*
G02*
X130362500Y-112450000I-62500J0D01*
G01*
X130237500Y-112450000D01*
G75*
G02*
X130175000Y-112387500I0J62500D01*
G01*
X130175000Y-111712500D01*
G75*
G02*
X130237500Y-111650000I62500J0D01*
G01*
X130362500Y-111650000D01*
G75*
G02*
X130425000Y-111712500I0J-62500D01*
G01*
G37*
G36*
G01*
X130925000Y-111712500D02*
X130925000Y-112387500D01*
G75*
G02*
X130862500Y-112450000I-62500J0D01*
G01*
X130737500Y-112450000D01*
G75*
G02*
X130675000Y-112387500I0J62500D01*
G01*
X130675000Y-111712500D01*
G75*
G02*
X130737500Y-111650000I62500J0D01*
G01*
X130862500Y-111650000D01*
G75*
G02*
X130925000Y-111712500I0J-62500D01*
G01*
G37*
G36*
G01*
X131425000Y-111712500D02*
X131425000Y-112387500D01*
G75*
G02*
X131362500Y-112450000I-62500J0D01*
G01*
X131237500Y-112450000D01*
G75*
G02*
X131175000Y-112387500I0J62500D01*
G01*
X131175000Y-111712500D01*
G75*
G02*
X131237500Y-111650000I62500J0D01*
G01*
X131362500Y-111650000D01*
G75*
G02*
X131425000Y-111712500I0J-62500D01*
G01*
G37*
G36*
G01*
X131925000Y-111712500D02*
X131925000Y-112387500D01*
G75*
G02*
X131862500Y-112450000I-62500J0D01*
G01*
X131737500Y-112450000D01*
G75*
G02*
X131675000Y-112387500I0J62500D01*
G01*
X131675000Y-111712500D01*
G75*
G02*
X131737500Y-111650000I62500J0D01*
G01*
X131862500Y-111650000D01*
G75*
G02*
X131925000Y-111712500I0J-62500D01*
G01*
G37*
G36*
G01*
X132050000Y-108112500D02*
X132050000Y-111087500D01*
G75*
G02*
X131787500Y-111350000I-262500J0D01*
G01*
X128812500Y-111350000D01*
G75*
G02*
X128550000Y-111087500I0J262500D01*
G01*
X128550000Y-108112500D01*
G75*
G02*
X128812500Y-107850000I262500J0D01*
G01*
X131787500Y-107850000D01*
G75*
G02*
X132050000Y-108112500I0J-262500D01*
G01*
G37*
%TD*%
%TO.C,C104*%
G36*
G01*
X126825000Y-111743750D02*
X126825000Y-112256250D01*
G75*
G02*
X126606250Y-112475000I-218750J0D01*
G01*
X126168750Y-112475000D01*
G75*
G02*
X125950000Y-112256250I0J218750D01*
G01*
X125950000Y-111743750D01*
G75*
G02*
X126168750Y-111525000I218750J0D01*
G01*
X126606250Y-111525000D01*
G75*
G02*
X126825000Y-111743750I0J-218750D01*
G01*
G37*
G36*
G01*
X125250000Y-111743750D02*
X125250000Y-112256250D01*
G75*
G02*
X125031250Y-112475000I-218750J0D01*
G01*
X124593750Y-112475000D01*
G75*
G02*
X124375000Y-112256250I0J218750D01*
G01*
X124375000Y-111743750D01*
G75*
G02*
X124593750Y-111525000I218750J0D01*
G01*
X125031250Y-111525000D01*
G75*
G02*
X125250000Y-111743750I0J-218750D01*
G01*
G37*
%TD*%
D12*
%TO.C,J101*%
X99060000Y-106875000D03*
D13*
X101600000Y-106875000D03*
X99060000Y-109415000D03*
X101600000Y-109415000D03*
X99060000Y-111955000D03*
X101600000Y-111955000D03*
X99060000Y-114495000D03*
X101600000Y-114495000D03*
X99060000Y-117035000D03*
X101600000Y-117035000D03*
%TD*%
D12*
%TO.C,J102*%
X144780000Y-106875000D03*
D13*
X147320000Y-106875000D03*
X144780000Y-109415000D03*
X147320000Y-109415000D03*
X144780000Y-111955000D03*
X147320000Y-111955000D03*
X144780000Y-114495000D03*
X147320000Y-114495000D03*
X144780000Y-117035000D03*
X147320000Y-117035000D03*
%TD*%
M02*
