%TF.GenerationSoftware,KiCad,Pcbnew,5.99.0-unknown-acf13a186~104~ubuntu20.04.1*%
%TF.CreationDate,2020-09-23T14:04:27+02:00*%
%TF.ProjectId,matrixctl,6d617472-6978-4637-946c-2e6b69636164,rev?*%
%TF.SameCoordinates,Original*%
%TF.FileFunction,Copper,L1,Top*%
%TF.FilePolarity,Positive*%
%FSLAX46Y46*%
G04 Gerber Fmt 4.6, Leading zero omitted, Abs format (unit mm)*
G04 Created by KiCad (PCBNEW 5.99.0-unknown-acf13a186~104~ubuntu20.04.1) date 2020-09-23 14:04:27*
%MOMM*%
%LPD*%
G01*
G04 APERTURE LIST*
%TA.AperFunction,ComponentPad*%
%ADD10R,1.700000X1.700000*%
%TD*%
%TA.AperFunction,ComponentPad*%
%ADD11O,1.700000X1.700000*%
%TD*%
%TA.AperFunction,SMDPad,CuDef*%
%ADD12C,1.000000*%
%TD*%
%TA.AperFunction,SMDPad,CuDef*%
%ADD13R,0.600000X0.450000*%
%TD*%
%TA.AperFunction,SMDPad,CuDef*%
%ADD14R,1.220000X0.650000*%
%TD*%
%TA.AperFunction,SMDPad,CuDef*%
%ADD15R,0.800000X2.500000*%
%TD*%
%TA.AperFunction,ComponentPad*%
%ADD16O,1.100000X5.500000*%
%TD*%
%TA.AperFunction,SMDPad,CuDef*%
%ADD17R,0.400000X1.350000*%
%TD*%
%TA.AperFunction,SMDPad,CuDef*%
%ADD18R,1.200000X1.900000*%
%TD*%
%TA.AperFunction,ComponentPad*%
%ADD19C,1.450000*%
%TD*%
%TA.AperFunction,SMDPad,CuDef*%
%ADD20R,1.500000X1.900000*%
%TD*%
%TA.AperFunction,ComponentPad*%
%ADD21O,1.200000X1.900000*%
%TD*%
%TA.AperFunction,ComponentPad*%
%ADD22C,0.600000*%
%TD*%
%TA.AperFunction,ViaPad*%
%ADD23C,0.600000*%
%TD*%
%TA.AperFunction,Conductor*%
%ADD24C,0.400000*%
%TD*%
%TA.AperFunction,Conductor*%
%ADD25C,0.600000*%
%TD*%
%TA.AperFunction,Conductor*%
%ADD26C,0.250000*%
%TD*%
%TA.AperFunction,Conductor*%
%ADD27C,0.800000*%
%TD*%
%TA.AperFunction,Conductor*%
%ADD28C,1.000000*%
%TD*%
G04 APERTURE END LIST*
%TO.P,R106,1*%
%TO.N,Net-(R106-Pad1)*%
%TA.AperFunction,SMDPad,CuDef*%
G36*
G01*
X131543750Y-113675000D02*
X132056250Y-113675000D01*
G75*
G02*
X132275000Y-113893750I0J-218750D01*
G01*
X132275000Y-114331250D01*
G75*
G02*
X132056250Y-114550000I-218750J0D01*
G01*
X131543750Y-114550000D01*
G75*
G02*
X131325000Y-114331250I0J218750D01*
G01*
X131325000Y-113893750D01*
G75*
G02*
X131543750Y-113675000I218750J0D01*
G01*
G37*
%TD.AperFunction*%
%TO.P,R106,2*%
%TO.N,GND*%
%TA.AperFunction,SMDPad,CuDef*%
G36*
G01*
X131543750Y-115250000D02*
X132056250Y-115250000D01*
G75*
G02*
X132275000Y-115468750I0J-218750D01*
G01*
X132275000Y-115906250D01*
G75*
G02*
X132056250Y-116125000I-218750J0D01*
G01*
X131543750Y-116125000D01*
G75*
G02*
X131325000Y-115906250I0J218750D01*
G01*
X131325000Y-115468750D01*
G75*
G02*
X131543750Y-115250000I218750J0D01*
G01*
G37*
%TD.AperFunction*%
%TD*%
%TO.P,R2,1*%
%TO.N,Net-(C2-Pad2)*%
%TA.AperFunction,SMDPad,CuDef*%
G36*
G01*
X113525000Y-115943750D02*
X113525000Y-116456250D01*
G75*
G02*
X113306250Y-116675000I-218750J0D01*
G01*
X112868750Y-116675000D01*
G75*
G02*
X112650000Y-116456250I0J218750D01*
G01*
X112650000Y-115943750D01*
G75*
G02*
X112868750Y-115725000I218750J0D01*
G01*
X113306250Y-115725000D01*
G75*
G02*
X113525000Y-115943750I0J-218750D01*
G01*
G37*
%TD.AperFunction*%
%TO.P,R2,2*%
%TO.N,GND*%
%TA.AperFunction,SMDPad,CuDef*%
G36*
G01*
X111950000Y-115943750D02*
X111950000Y-116456250D01*
G75*
G02*
X111731250Y-116675000I-218750J0D01*
G01*
X111293750Y-116675000D01*
G75*
G02*
X111075000Y-116456250I0J218750D01*
G01*
X111075000Y-115943750D01*
G75*
G02*
X111293750Y-115725000I218750J0D01*
G01*
X111731250Y-115725000D01*
G75*
G02*
X111950000Y-115943750I0J-218750D01*
G01*
G37*
%TD.AperFunction*%
%TD*%
%TO.P,FB102,1*%
%TO.N,VBUS*%
%TA.AperFunction,SMDPad,CuDef*%
G36*
G01*
X118756250Y-119125000D02*
X117843750Y-119125000D01*
G75*
G02*
X117600000Y-118881250I0J243750D01*
G01*
X117600000Y-118393750D01*
G75*
G02*
X117843750Y-118150000I243750J0D01*
G01*
X118756250Y-118150000D01*
G75*
G02*
X119000000Y-118393750I0J-243750D01*
G01*
X119000000Y-118881250D01*
G75*
G02*
X118756250Y-119125000I-243750J0D01*
G01*
G37*
%TD.AperFunction*%
%TO.P,FB102,2*%
%TO.N,Net-(FB102-Pad2)*%
%TA.AperFunction,SMDPad,CuDef*%
G36*
G01*
X118756250Y-117250000D02*
X117843750Y-117250000D01*
G75*
G02*
X117600000Y-117006250I0J243750D01*
G01*
X117600000Y-116518750D01*
G75*
G02*
X117843750Y-116275000I243750J0D01*
G01*
X118756250Y-116275000D01*
G75*
G02*
X119000000Y-116518750I0J-243750D01*
G01*
X119000000Y-117006250D01*
G75*
G02*
X118756250Y-117250000I-243750J0D01*
G01*
G37*
%TD.AperFunction*%
%TD*%
D10*
%TO.P,J103,1,Pin_1*%
%TO.N,Net-(FB102-Pad2)*%
X121200000Y-117800000D03*
D11*
%TO.P,J103,2,Pin_2*%
%TO.N,GND*%
X123740000Y-117800000D03*
%TO.P,J103,3,Pin_3*%
%TO.N,/VIO*%
X126280000Y-117800000D03*
%TO.P,J103,4,Pin_4*%
%TO.N,/SDA*%
X128820000Y-117800000D03*
%TO.P,J103,5,Pin_5*%
%TO.N,/SCL*%
X131360000Y-117800000D03*
%TO.P,J103,6,Pin_6*%
%TO.N,GND*%
X133900000Y-117800000D03*
%TO.P,J103,7,Pin_7*%
%TO.N,/~INTB*%
X136440000Y-117800000D03*
%TO.P,J103,8,Pin_8*%
%TO.N,/~SDB*%
X138980000Y-117800000D03*
%TD*%
%TO.P,C2,1*%
%TO.N,+2V8*%
%TA.AperFunction,SMDPad,CuDef*%
G36*
G01*
X116525000Y-115943750D02*
X116525000Y-116456250D01*
G75*
G02*
X116306250Y-116675000I-218750J0D01*
G01*
X115868750Y-116675000D01*
G75*
G02*
X115650000Y-116456250I0J218750D01*
G01*
X115650000Y-115943750D01*
G75*
G02*
X115868750Y-115725000I218750J0D01*
G01*
X116306250Y-115725000D01*
G75*
G02*
X116525000Y-115943750I0J-218750D01*
G01*
G37*
%TD.AperFunction*%
%TO.P,C2,2*%
%TO.N,Net-(C2-Pad2)*%
%TA.AperFunction,SMDPad,CuDef*%
G36*
G01*
X114950000Y-115943750D02*
X114950000Y-116456250D01*
G75*
G02*
X114731250Y-116675000I-218750J0D01*
G01*
X114293750Y-116675000D01*
G75*
G02*
X114075000Y-116456250I0J218750D01*
G01*
X114075000Y-115943750D01*
G75*
G02*
X114293750Y-115725000I218750J0D01*
G01*
X114731250Y-115725000D01*
G75*
G02*
X114950000Y-115943750I0J-218750D01*
G01*
G37*
%TD.AperFunction*%
%TD*%
%TO.P,C101,1*%
%TO.N,+2V8*%
%TA.AperFunction,SMDPad,CuDef*%
G36*
G01*
X123125000Y-109700000D02*
X121275000Y-109700000D01*
G75*
G02*
X121025000Y-109450000I0J250000D01*
G01*
X121025000Y-108625000D01*
G75*
G02*
X121275000Y-108375000I250000J0D01*
G01*
X123125000Y-108375000D01*
G75*
G02*
X123375000Y-108625000I0J-250000D01*
G01*
X123375000Y-109450000D01*
G75*
G02*
X123125000Y-109700000I-250000J0D01*
G01*
G37*
%TD.AperFunction*%
%TO.P,C101,2*%
%TO.N,GND*%
%TA.AperFunction,SMDPad,CuDef*%
G36*
G01*
X123125000Y-106625000D02*
X121275000Y-106625000D01*
G75*
G02*
X121025000Y-106375000I0J250000D01*
G01*
X121025000Y-105550000D01*
G75*
G02*
X121275000Y-105300000I250000J0D01*
G01*
X123125000Y-105300000D01*
G75*
G02*
X123375000Y-105550000I0J-250000D01*
G01*
X123375000Y-106375000D01*
G75*
G02*
X123125000Y-106625000I-250000J0D01*
G01*
G37*
%TD.AperFunction*%
%TD*%
%TO.P,R112,1*%
%TO.N,/VIO*%
%TA.AperFunction,SMDPad,CuDef*%
G36*
G01*
X133656250Y-115525000D02*
X133143750Y-115525000D01*
G75*
G02*
X132925000Y-115306250I0J218750D01*
G01*
X132925000Y-114868750D01*
G75*
G02*
X133143750Y-114650000I218750J0D01*
G01*
X133656250Y-114650000D01*
G75*
G02*
X133875000Y-114868750I0J-218750D01*
G01*
X133875000Y-115306250D01*
G75*
G02*
X133656250Y-115525000I-218750J0D01*
G01*
G37*
%TD.AperFunction*%
%TO.P,R112,2*%
%TO.N,/~SDB*%
%TA.AperFunction,SMDPad,CuDef*%
G36*
G01*
X133656250Y-113950000D02*
X133143750Y-113950000D01*
G75*
G02*
X132925000Y-113731250I0J218750D01*
G01*
X132925000Y-113293750D01*
G75*
G02*
X133143750Y-113075000I218750J0D01*
G01*
X133656250Y-113075000D01*
G75*
G02*
X133875000Y-113293750I0J-218750D01*
G01*
X133875000Y-113731250D01*
G75*
G02*
X133656250Y-113950000I-218750J0D01*
G01*
G37*
%TD.AperFunction*%
%TD*%
%TO.P,R103,1*%
%TO.N,/VIO*%
%TA.AperFunction,SMDPad,CuDef*%
G36*
G01*
X128275000Y-113856250D02*
X128275000Y-113343750D01*
G75*
G02*
X128493750Y-113125000I218750J0D01*
G01*
X128931250Y-113125000D01*
G75*
G02*
X129150000Y-113343750I0J-218750D01*
G01*
X129150000Y-113856250D01*
G75*
G02*
X128931250Y-114075000I-218750J0D01*
G01*
X128493750Y-114075000D01*
G75*
G02*
X128275000Y-113856250I0J218750D01*
G01*
G37*
%TD.AperFunction*%
%TO.P,R103,2*%
%TO.N,/SCL*%
%TA.AperFunction,SMDPad,CuDef*%
G36*
G01*
X129850000Y-113856250D02*
X129850000Y-113343750D01*
G75*
G02*
X130068750Y-113125000I218750J0D01*
G01*
X130506250Y-113125000D01*
G75*
G02*
X130725000Y-113343750I0J-218750D01*
G01*
X130725000Y-113856250D01*
G75*
G02*
X130506250Y-114075000I-218750J0D01*
G01*
X130068750Y-114075000D01*
G75*
G02*
X129850000Y-113856250I0J218750D01*
G01*
G37*
%TD.AperFunction*%
%TD*%
D12*
%TO.P,TP101,1,1*%
%TO.N,Net-(TP101-Pad1)*%
X122900000Y-112700000D03*
%TD*%
%TO.P,R1,1*%
%TO.N,+2V8*%
%TA.AperFunction,SMDPad,CuDef*%
G36*
G01*
X116525000Y-117443750D02*
X116525000Y-117956250D01*
G75*
G02*
X116306250Y-118175000I-218750J0D01*
G01*
X115868750Y-118175000D01*
G75*
G02*
X115650000Y-117956250I0J218750D01*
G01*
X115650000Y-117443750D01*
G75*
G02*
X115868750Y-117225000I218750J0D01*
G01*
X116306250Y-117225000D01*
G75*
G02*
X116525000Y-117443750I0J-218750D01*
G01*
G37*
%TD.AperFunction*%
%TO.P,R1,2*%
%TO.N,Net-(C2-Pad2)*%
%TA.AperFunction,SMDPad,CuDef*%
G36*
G01*
X114950000Y-117443750D02*
X114950000Y-117956250D01*
G75*
G02*
X114731250Y-118175000I-218750J0D01*
G01*
X114293750Y-118175000D01*
G75*
G02*
X114075000Y-117956250I0J218750D01*
G01*
X114075000Y-117443750D01*
G75*
G02*
X114293750Y-117225000I218750J0D01*
G01*
X114731250Y-117225000D01*
G75*
G02*
X114950000Y-117443750I0J-218750D01*
G01*
G37*
%TD.AperFunction*%
%TD*%
%TO.P,C3,1*%
%TO.N,VBUS*%
%TA.AperFunction,SMDPad,CuDef*%
G36*
G01*
X112343750Y-111975000D02*
X113256250Y-111975000D01*
G75*
G02*
X113500000Y-112218750I0J-243750D01*
G01*
X113500000Y-112706250D01*
G75*
G02*
X113256250Y-112950000I-243750J0D01*
G01*
X112343750Y-112950000D01*
G75*
G02*
X112100000Y-112706250I0J243750D01*
G01*
X112100000Y-112218750D01*
G75*
G02*
X112343750Y-111975000I243750J0D01*
G01*
G37*
%TD.AperFunction*%
%TO.P,C3,2*%
%TO.N,GND*%
%TA.AperFunction,SMDPad,CuDef*%
G36*
G01*
X112343750Y-113850000D02*
X113256250Y-113850000D01*
G75*
G02*
X113500000Y-114093750I0J-243750D01*
G01*
X113500000Y-114581250D01*
G75*
G02*
X113256250Y-114825000I-243750J0D01*
G01*
X112343750Y-114825000D01*
G75*
G02*
X112100000Y-114581250I0J243750D01*
G01*
X112100000Y-114093750D01*
G75*
G02*
X112343750Y-113850000I243750J0D01*
G01*
G37*
%TD.AperFunction*%
%TD*%
%TO.P,R101,1*%
%TO.N,/VIO*%
%TA.AperFunction,SMDPad,CuDef*%
G36*
G01*
X134375000Y-115356250D02*
X134375000Y-114843750D01*
G75*
G02*
X134593750Y-114625000I218750J0D01*
G01*
X135031250Y-114625000D01*
G75*
G02*
X135250000Y-114843750I0J-218750D01*
G01*
X135250000Y-115356250D01*
G75*
G02*
X135031250Y-115575000I-218750J0D01*
G01*
X134593750Y-115575000D01*
G75*
G02*
X134375000Y-115356250I0J218750D01*
G01*
G37*
%TD.AperFunction*%
%TO.P,R101,2*%
%TO.N,/~INTB*%
%TA.AperFunction,SMDPad,CuDef*%
G36*
G01*
X135950000Y-115356250D02*
X135950000Y-114843750D01*
G75*
G02*
X136168750Y-114625000I218750J0D01*
G01*
X136606250Y-114625000D01*
G75*
G02*
X136825000Y-114843750I0J-218750D01*
G01*
X136825000Y-115356250D01*
G75*
G02*
X136606250Y-115575000I-218750J0D01*
G01*
X136168750Y-115575000D01*
G75*
G02*
X135950000Y-115356250I0J218750D01*
G01*
G37*
%TD.AperFunction*%
%TD*%
%TO.P,L1,1,1*%
%TO.N,Net-(L1-Pad1)*%
%TA.AperFunction,SMDPad,CuDef*%
G36*
G01*
X116500000Y-111450000D02*
X116500000Y-109750000D01*
G75*
G02*
X116750000Y-109500000I250000J0D01*
G01*
X117500000Y-109500000D01*
G75*
G02*
X117750000Y-109750000I0J-250000D01*
G01*
X117750000Y-111450000D01*
G75*
G02*
X117500000Y-111700000I-250000J0D01*
G01*
X116750000Y-111700000D01*
G75*
G02*
X116500000Y-111450000I0J250000D01*
G01*
G37*
%TD.AperFunction*%
%TO.P,L1,2,2*%
%TO.N,+2V8*%
%TA.AperFunction,SMDPad,CuDef*%
G36*
G01*
X118650000Y-111450000D02*
X118650000Y-109750000D01*
G75*
G02*
X118900000Y-109500000I250000J0D01*
G01*
X119650000Y-109500000D01*
G75*
G02*
X119900000Y-109750000I0J-250000D01*
G01*
X119900000Y-111450000D01*
G75*
G02*
X119650000Y-111700000I-250000J0D01*
G01*
X118900000Y-111700000D01*
G75*
G02*
X118650000Y-111450000I0J250000D01*
G01*
G37*
%TD.AperFunction*%
%TD*%
D13*
%TO.P,D101,1,K*%
%TO.N,/VIO*%
X123950000Y-114800000D03*
%TO.P,D101,2,A*%
%TO.N,+2V8*%
X121850000Y-114800000D03*
%TD*%
%TO.P,FB101,1*%
%TO.N,VBUS*%
%TA.AperFunction,SMDPad,CuDef*%
G36*
G01*
X153556250Y-123925000D02*
X152643750Y-123925000D01*
G75*
G02*
X152400000Y-123681250I0J243750D01*
G01*
X152400000Y-123193750D01*
G75*
G02*
X152643750Y-122950000I243750J0D01*
G01*
X153556250Y-122950000D01*
G75*
G02*
X153800000Y-123193750I0J-243750D01*
G01*
X153800000Y-123681250D01*
G75*
G02*
X153556250Y-123925000I-243750J0D01*
G01*
G37*
%TD.AperFunction*%
%TO.P,FB101,2*%
%TO.N,Net-(F1-Pad1)*%
%TA.AperFunction,SMDPad,CuDef*%
G36*
G01*
X153556250Y-122050000D02*
X152643750Y-122050000D01*
G75*
G02*
X152400000Y-121806250I0J243750D01*
G01*
X152400000Y-121318750D01*
G75*
G02*
X152643750Y-121075000I243750J0D01*
G01*
X153556250Y-121075000D01*
G75*
G02*
X153800000Y-121318750I0J-243750D01*
G01*
X153800000Y-121806250D01*
G75*
G02*
X153556250Y-122050000I-243750J0D01*
G01*
G37*
%TD.AperFunction*%
%TD*%
%TO.P,R102,1*%
%TO.N,/~SDB*%
%TA.AperFunction,SMDPad,CuDef*%
G36*
G01*
X135156250Y-113825000D02*
X134643750Y-113825000D01*
G75*
G02*
X134425000Y-113606250I0J218750D01*
G01*
X134425000Y-113168750D01*
G75*
G02*
X134643750Y-112950000I218750J0D01*
G01*
X135156250Y-112950000D01*
G75*
G02*
X135375000Y-113168750I0J-218750D01*
G01*
X135375000Y-113606250D01*
G75*
G02*
X135156250Y-113825000I-218750J0D01*
G01*
G37*
%TD.AperFunction*%
%TO.P,R102,2*%
%TO.N,GND*%
%TA.AperFunction,SMDPad,CuDef*%
G36*
G01*
X135156250Y-112250000D02*
X134643750Y-112250000D01*
G75*
G02*
X134425000Y-112031250I0J218750D01*
G01*
X134425000Y-111593750D01*
G75*
G02*
X134643750Y-111375000I218750J0D01*
G01*
X135156250Y-111375000D01*
G75*
G02*
X135375000Y-111593750I0J-218750D01*
G01*
X135375000Y-112031250D01*
G75*
G02*
X135156250Y-112250000I-218750J0D01*
G01*
G37*
%TD.AperFunction*%
%TD*%
%TO.P,C105,1*%
%TO.N,/VIO*%
%TA.AperFunction,SMDPad,CuDef*%
G36*
G01*
X127625000Y-113343750D02*
X127625000Y-113856250D01*
G75*
G02*
X127406250Y-114075000I-218750J0D01*
G01*
X126968750Y-114075000D01*
G75*
G02*
X126750000Y-113856250I0J218750D01*
G01*
X126750000Y-113343750D01*
G75*
G02*
X126968750Y-113125000I218750J0D01*
G01*
X127406250Y-113125000D01*
G75*
G02*
X127625000Y-113343750I0J-218750D01*
G01*
G37*
%TD.AperFunction*%
%TO.P,C105,2*%
%TO.N,GND*%
%TA.AperFunction,SMDPad,CuDef*%
G36*
G01*
X126050000Y-113343750D02*
X126050000Y-113856250D01*
G75*
G02*
X125831250Y-114075000I-218750J0D01*
G01*
X125393750Y-114075000D01*
G75*
G02*
X125175000Y-113856250I0J218750D01*
G01*
X125175000Y-113343750D01*
G75*
G02*
X125393750Y-113125000I218750J0D01*
G01*
X125831250Y-113125000D01*
G75*
G02*
X126050000Y-113343750I0J-218750D01*
G01*
G37*
%TD.AperFunction*%
%TD*%
%TO.P,F1,1*%
%TO.N,Net-(F1-Pad1)*%
%TA.AperFunction,SMDPad,CuDef*%
G36*
G01*
X155025000Y-119975000D02*
X157175000Y-119975000D01*
G75*
G02*
X157425000Y-120225000I0J-250000D01*
G01*
X157425000Y-120975000D01*
G75*
G02*
X157175000Y-121225000I-250000J0D01*
G01*
X155025000Y-121225000D01*
G75*
G02*
X154775000Y-120975000I0J250000D01*
G01*
X154775000Y-120225000D01*
G75*
G02*
X155025000Y-119975000I250000J0D01*
G01*
G37*
%TD.AperFunction*%
%TO.P,F1,2*%
%TO.N,Net-(F1-Pad2)*%
%TA.AperFunction,SMDPad,CuDef*%
G36*
G01*
X155025000Y-122775000D02*
X157175000Y-122775000D01*
G75*
G02*
X157425000Y-123025000I0J-250000D01*
G01*
X157425000Y-123775000D01*
G75*
G02*
X157175000Y-124025000I-250000J0D01*
G01*
X155025000Y-124025000D01*
G75*
G02*
X154775000Y-123775000I0J250000D01*
G01*
X154775000Y-123025000D01*
G75*
G02*
X155025000Y-122775000I250000J0D01*
G01*
G37*
%TD.AperFunction*%
%TD*%
%TO.P,C103,1*%
%TO.N,+2V8*%
%TA.AperFunction,SMDPad,CuDef*%
G36*
G01*
X129775000Y-105456250D02*
X129775000Y-104943750D01*
G75*
G02*
X129993750Y-104725000I218750J0D01*
G01*
X130431250Y-104725000D01*
G75*
G02*
X130650000Y-104943750I0J-218750D01*
G01*
X130650000Y-105456250D01*
G75*
G02*
X130431250Y-105675000I-218750J0D01*
G01*
X129993750Y-105675000D01*
G75*
G02*
X129775000Y-105456250I0J218750D01*
G01*
G37*
%TD.AperFunction*%
%TO.P,C103,2*%
%TO.N,GND*%
%TA.AperFunction,SMDPad,CuDef*%
G36*
G01*
X131350000Y-105456250D02*
X131350000Y-104943750D01*
G75*
G02*
X131568750Y-104725000I218750J0D01*
G01*
X132006250Y-104725000D01*
G75*
G02*
X132225000Y-104943750I0J-218750D01*
G01*
X132225000Y-105456250D01*
G75*
G02*
X132006250Y-105675000I-218750J0D01*
G01*
X131568750Y-105675000D01*
G75*
G02*
X131350000Y-105456250I0J218750D01*
G01*
G37*
%TD.AperFunction*%
%TD*%
%TO.P,R105,1*%
%TO.N,Net-(R105-Pad1)*%
%TA.AperFunction,SMDPad,CuDef*%
G36*
G01*
X126825000Y-110143750D02*
X126825000Y-110656250D01*
G75*
G02*
X126606250Y-110875000I-218750J0D01*
G01*
X126168750Y-110875000D01*
G75*
G02*
X125950000Y-110656250I0J218750D01*
G01*
X125950000Y-110143750D01*
G75*
G02*
X126168750Y-109925000I218750J0D01*
G01*
X126606250Y-109925000D01*
G75*
G02*
X126825000Y-110143750I0J-218750D01*
G01*
G37*
%TD.AperFunction*%
%TO.P,R105,2*%
%TO.N,GND*%
%TA.AperFunction,SMDPad,CuDef*%
G36*
G01*
X125250000Y-110143750D02*
X125250000Y-110656250D01*
G75*
G02*
X125031250Y-110875000I-218750J0D01*
G01*
X124593750Y-110875000D01*
G75*
G02*
X124375000Y-110656250I0J218750D01*
G01*
X124375000Y-110143750D01*
G75*
G02*
X124593750Y-109925000I218750J0D01*
G01*
X125031250Y-109925000D01*
G75*
G02*
X125250000Y-110143750I0J-218750D01*
G01*
G37*
%TD.AperFunction*%
%TD*%
D14*
%TO.P,U1,1,EN*%
%TO.N,VBUS*%
X117310000Y-114650000D03*
%TO.P,U1,2,GND*%
%TO.N,GND*%
X117310000Y-113700000D03*
%TO.P,U1,3,LX*%
%TO.N,Net-(L1-Pad1)*%
X117310000Y-112750000D03*
%TO.P,U1,4,VIN*%
%TO.N,VBUS*%
X114690000Y-112750000D03*
%TO.P,U1,5,FB*%
%TO.N,Net-(C2-Pad2)*%
X114690000Y-114650000D03*
%TD*%
%TO.P,C1,1*%
%TO.N,+2V8*%
%TA.AperFunction,SMDPad,CuDef*%
G36*
G01*
X118743750Y-112275000D02*
X119656250Y-112275000D01*
G75*
G02*
X119900000Y-112518750I0J-243750D01*
G01*
X119900000Y-113006250D01*
G75*
G02*
X119656250Y-113250000I-243750J0D01*
G01*
X118743750Y-113250000D01*
G75*
G02*
X118500000Y-113006250I0J243750D01*
G01*
X118500000Y-112518750D01*
G75*
G02*
X118743750Y-112275000I243750J0D01*
G01*
G37*
%TD.AperFunction*%
%TO.P,C1,2*%
%TO.N,GND*%
%TA.AperFunction,SMDPad,CuDef*%
G36*
G01*
X118743750Y-114150000D02*
X119656250Y-114150000D01*
G75*
G02*
X119900000Y-114393750I0J-243750D01*
G01*
X119900000Y-114881250D01*
G75*
G02*
X119656250Y-115125000I-243750J0D01*
G01*
X118743750Y-115125000D01*
G75*
G02*
X118500000Y-114881250I0J243750D01*
G01*
X118500000Y-114393750D01*
G75*
G02*
X118743750Y-114150000I243750J0D01*
G01*
G37*
%TD.AperFunction*%
%TD*%
D10*
%TO.P,J1,1,Pin_1*%
%TO.N,Net-(F1-Pad2)*%
X155700000Y-126200000D03*
D11*
%TO.P,J1,2,Pin_2*%
%TO.N,GND*%
X158240000Y-126200000D03*
%TD*%
D15*
%TO.P,U2,1,P3/ANA_IN/LED_COL1*%
%TO.N,Net-(U2-Pad1)*%
X148165000Y-122300000D03*
%TO.P,U2,2,P0/ANA_IN*%
%TO.N,Net-(U2-Pad2)*%
X146895000Y-122300000D03*
%TO.P,U2,3,P0/ANA_IN*%
X145625000Y-122300000D03*
%TO.P,U2,4,P0/ANA_IN*%
X144355000Y-122300000D03*
%TO.P,U2,5,P0/ANA_IN*%
X143085000Y-122300000D03*
%TO.P,U2,6,P4/ANA_IN/LED_COL2*%
%TO.N,Net-(U2-Pad6)*%
X141815000Y-122300000D03*
%TO.P,U2,7,P5/BTN_A*%
%TO.N,Net-(U2-Pad7)*%
X140545000Y-122300000D03*
%TO.P,U2,8,P6/LED_COL9*%
%TO.N,Net-(U2-Pad8)*%
X139275000Y-122300000D03*
%TO.P,U2,9,P7/LED_COL8*%
%TO.N,Net-(U2-Pad9)*%
X138005000Y-122300000D03*
%TO.P,U2,10,P1/ANA_IN*%
%TO.N,Net-(U2-Pad10)*%
X136735000Y-122300000D03*
%TO.P,U2,11,P1/ANA_IN*%
X135465000Y-122300000D03*
%TO.P,U2,12,P1/ANA_IN*%
X134195000Y-122300000D03*
%TO.P,U2,13,P1/ANA_IN*%
X132925000Y-122300000D03*
%TO.P,U2,14,P8*%
%TO.N,Net-(U2-Pad14)*%
X131655000Y-122300000D03*
%TO.P,U2,15,P9/LED_COL7*%
%TO.N,Net-(U2-Pad15)*%
X130385000Y-122300000D03*
%TO.P,U2,16,P10/ANA_IN/LED_COL3*%
%TO.N,Net-(U2-Pad16)*%
X129115000Y-122300000D03*
%TO.P,U2,17,P11/BTN_B*%
%TO.N,Net-(U2-Pad17)*%
X127845000Y-122300000D03*
%TO.P,U2,18,P12/RESRVD*%
%TO.N,Net-(U2-Pad18)*%
X126575000Y-122300000D03*
%TO.P,U2,19,P2/ANA_IN*%
%TO.N,Net-(U2-Pad19)*%
X125305000Y-122300000D03*
%TO.P,U2,20,P2/ANA_IN*%
X124035000Y-122300000D03*
%TO.P,U2,21,P2/ANA_IN*%
X122765000Y-122300000D03*
%TO.P,U2,22,P2/ANA_IN*%
X121495000Y-122300000D03*
%TO.P,U2,23,P13/SPI1_SCK*%
%TO.N,Net-(U2-Pad23)*%
X120225000Y-122300000D03*
%TO.P,U2,24,P14/SPI1_MISO*%
%TO.N,Net-(U2-Pad24)*%
X118955000Y-122300000D03*
%TO.P,U2,25,P15/SPI1_MOSI*%
%TO.N,Net-(U2-Pad25)*%
X117685000Y-122300000D03*
%TO.P,U2,26,P16*%
%TO.N,Net-(U2-Pad26)*%
X116415000Y-122300000D03*
%TO.P,U2,27,3V*%
%TO.N,/VIO*%
X115145000Y-122300000D03*
%TO.P,U2,28,3V*%
X113875000Y-122300000D03*
%TO.P,U2,29,3V*%
X112605000Y-122300000D03*
%TO.P,U2,30,3V*%
X111335000Y-122300000D03*
%TO.P,U2,31,3V*%
X110065000Y-122300000D03*
%TO.P,U2,32,3V*%
X108795000Y-122300000D03*
%TO.P,U2,33,P19/I2C1_SCL*%
%TO.N,/SCL*%
X107525000Y-122300000D03*
%TO.P,U2,34,P20/I2C1_SDA*%
%TO.N,/SDA*%
X106255000Y-122300000D03*
%TO.P,U2,35,GND*%
%TO.N,GND*%
X104985000Y-122300000D03*
%TO.P,U2,36,GND*%
X103715000Y-122300000D03*
%TO.P,U2,37,GND*%
X102445000Y-122300000D03*
%TO.P,U2,38,GND*%
X101175000Y-122300000D03*
%TO.P,U2,39,GND*%
X99905000Y-122300000D03*
%TO.P,U2,40,GND*%
X98635000Y-122300000D03*
D16*
%TO.P,U2,41*%
%TO.N,N/C*%
X150400000Y-130810000D03*
%TO.P,U2,42*%
X96400000Y-130810000D03*
%TD*%
%TO.P,R104,1*%
%TO.N,/VIO*%
%TA.AperFunction,SMDPad,CuDef*%
G36*
G01*
X126675000Y-115456250D02*
X126675000Y-114943750D01*
G75*
G02*
X126893750Y-114725000I218750J0D01*
G01*
X127331250Y-114725000D01*
G75*
G02*
X127550000Y-114943750I0J-218750D01*
G01*
X127550000Y-115456250D01*
G75*
G02*
X127331250Y-115675000I-218750J0D01*
G01*
X126893750Y-115675000D01*
G75*
G02*
X126675000Y-115456250I0J218750D01*
G01*
G37*
%TD.AperFunction*%
%TO.P,R104,2*%
%TO.N,/SDA*%
%TA.AperFunction,SMDPad,CuDef*%
G36*
G01*
X128250000Y-115456250D02*
X128250000Y-114943750D01*
G75*
G02*
X128468750Y-114725000I218750J0D01*
G01*
X128906250Y-114725000D01*
G75*
G02*
X129125000Y-114943750I0J-218750D01*
G01*
X129125000Y-115456250D01*
G75*
G02*
X128906250Y-115675000I-218750J0D01*
G01*
X128468750Y-115675000D01*
G75*
G02*
X128250000Y-115456250I0J218750D01*
G01*
G37*
%TD.AperFunction*%
%TD*%
D17*
%TO.P,J104,1,VBUS*%
%TO.N,Net-(F1-Pad2)*%
X155700000Y-129737500D03*
%TO.P,J104,2,D-*%
%TO.N,Net-(J104-Pad2)*%
X156350000Y-129737500D03*
%TO.P,J104,3,D+*%
%TO.N,Net-(J104-Pad3)*%
X157000000Y-129737500D03*
%TO.P,J104,4,ID*%
%TO.N,Net-(J104-Pad4)*%
X157650000Y-129737500D03*
%TO.P,J104,5,GND*%
%TO.N,GND*%
X158300000Y-129737500D03*
D18*
%TO.P,J104,6,Shield*%
X154100000Y-132437500D03*
D19*
X154500000Y-129737500D03*
D20*
X156000000Y-132437500D03*
D19*
X159500000Y-129737500D03*
D21*
X153500000Y-132437500D03*
D18*
X159900000Y-132437500D03*
D21*
X160500000Y-132437500D03*
D20*
X158000000Y-132437500D03*
%TD*%
%TO.P,C102,1*%
%TO.N,+2V8*%
%TA.AperFunction,SMDPad,CuDef*%
G36*
G01*
X126556250Y-109325000D02*
X126043750Y-109325000D01*
G75*
G02*
X125825000Y-109106250I0J218750D01*
G01*
X125825000Y-108668750D01*
G75*
G02*
X126043750Y-108450000I218750J0D01*
G01*
X126556250Y-108450000D01*
G75*
G02*
X126775000Y-108668750I0J-218750D01*
G01*
X126775000Y-109106250D01*
G75*
G02*
X126556250Y-109325000I-218750J0D01*
G01*
G37*
%TD.AperFunction*%
%TO.P,C102,2*%
%TO.N,GND*%
%TA.AperFunction,SMDPad,CuDef*%
G36*
G01*
X126556250Y-107750000D02*
X126043750Y-107750000D01*
G75*
G02*
X125825000Y-107531250I0J218750D01*
G01*
X125825000Y-107093750D01*
G75*
G02*
X126043750Y-106875000I218750J0D01*
G01*
X126556250Y-106875000D01*
G75*
G02*
X126775000Y-107093750I0J-218750D01*
G01*
X126775000Y-107531250D01*
G75*
G02*
X126556250Y-107750000I-218750J0D01*
G01*
G37*
%TD.AperFunction*%
%TD*%
%TO.P,U101,1,GND*%
%TO.N,GND*%
%TA.AperFunction,SMDPad,CuDef*%
G36*
G01*
X133150000Y-111037500D02*
X133150000Y-111162500D01*
G75*
G02*
X133087500Y-111225000I-62500J0D01*
G01*
X132412500Y-111225000D01*
G75*
G02*
X132350000Y-111162500I0J62500D01*
G01*
X132350000Y-111037500D01*
G75*
G02*
X132412500Y-110975000I62500J0D01*
G01*
X133087500Y-110975000D01*
G75*
G02*
X133150000Y-111037500I0J-62500D01*
G01*
G37*
%TD.AperFunction*%
%TO.P,U101,2,SW1*%
%TO.N,/SW1*%
%TA.AperFunction,SMDPad,CuDef*%
G36*
G01*
X133150000Y-110537500D02*
X133150000Y-110662500D01*
G75*
G02*
X133087500Y-110725000I-62500J0D01*
G01*
X132412500Y-110725000D01*
G75*
G02*
X132350000Y-110662500I0J62500D01*
G01*
X132350000Y-110537500D01*
G75*
G02*
X132412500Y-110475000I62500J0D01*
G01*
X133087500Y-110475000D01*
G75*
G02*
X133150000Y-110537500I0J-62500D01*
G01*
G37*
%TD.AperFunction*%
%TO.P,U101,3,SW2*%
%TO.N,/SW2*%
%TA.AperFunction,SMDPad,CuDef*%
G36*
G01*
X133150000Y-110037500D02*
X133150000Y-110162500D01*
G75*
G02*
X133087500Y-110225000I-62500J0D01*
G01*
X132412500Y-110225000D01*
G75*
G02*
X132350000Y-110162500I0J62500D01*
G01*
X132350000Y-110037500D01*
G75*
G02*
X132412500Y-109975000I62500J0D01*
G01*
X133087500Y-109975000D01*
G75*
G02*
X133150000Y-110037500I0J-62500D01*
G01*
G37*
%TD.AperFunction*%
%TO.P,U101,4,PGND*%
%TO.N,GND*%
%TA.AperFunction,SMDPad,CuDef*%
G36*
G01*
X133150000Y-109537500D02*
X133150000Y-109662500D01*
G75*
G02*
X133087500Y-109725000I-62500J0D01*
G01*
X132412500Y-109725000D01*
G75*
G02*
X132350000Y-109662500I0J62500D01*
G01*
X132350000Y-109537500D01*
G75*
G02*
X132412500Y-109475000I62500J0D01*
G01*
X133087500Y-109475000D01*
G75*
G02*
X133150000Y-109537500I0J-62500D01*
G01*
G37*
%TD.AperFunction*%
%TO.P,U101,5,SW3*%
%TO.N,/SW3*%
%TA.AperFunction,SMDPad,CuDef*%
G36*
G01*
X133150000Y-109037500D02*
X133150000Y-109162500D01*
G75*
G02*
X133087500Y-109225000I-62500J0D01*
G01*
X132412500Y-109225000D01*
G75*
G02*
X132350000Y-109162500I0J62500D01*
G01*
X132350000Y-109037500D01*
G75*
G02*
X132412500Y-108975000I62500J0D01*
G01*
X133087500Y-108975000D01*
G75*
G02*
X133150000Y-109037500I0J-62500D01*
G01*
G37*
%TD.AperFunction*%
%TO.P,U101,6,SW4*%
%TO.N,/SW4*%
%TA.AperFunction,SMDPad,CuDef*%
G36*
G01*
X133150000Y-108537500D02*
X133150000Y-108662500D01*
G75*
G02*
X133087500Y-108725000I-62500J0D01*
G01*
X132412500Y-108725000D01*
G75*
G02*
X132350000Y-108662500I0J62500D01*
G01*
X132350000Y-108537500D01*
G75*
G02*
X132412500Y-108475000I62500J0D01*
G01*
X133087500Y-108475000D01*
G75*
G02*
X133150000Y-108537500I0J-62500D01*
G01*
G37*
%TD.AperFunction*%
%TO.P,U101,7,SW5*%
%TO.N,/SW5*%
%TA.AperFunction,SMDPad,CuDef*%
G36*
G01*
X133150000Y-108037500D02*
X133150000Y-108162500D01*
G75*
G02*
X133087500Y-108225000I-62500J0D01*
G01*
X132412500Y-108225000D01*
G75*
G02*
X132350000Y-108162500I0J62500D01*
G01*
X132350000Y-108037500D01*
G75*
G02*
X132412500Y-107975000I62500J0D01*
G01*
X133087500Y-107975000D01*
G75*
G02*
X133150000Y-108037500I0J-62500D01*
G01*
G37*
%TD.AperFunction*%
%TO.P,U101,8,PGND*%
%TO.N,GND*%
%TA.AperFunction,SMDPad,CuDef*%
G36*
G01*
X131925000Y-106812500D02*
X131925000Y-107487500D01*
G75*
G02*
X131862500Y-107550000I-62500J0D01*
G01*
X131737500Y-107550000D01*
G75*
G02*
X131675000Y-107487500I0J62500D01*
G01*
X131675000Y-106812500D01*
G75*
G02*
X131737500Y-106750000I62500J0D01*
G01*
X131862500Y-106750000D01*
G75*
G02*
X131925000Y-106812500I0J-62500D01*
G01*
G37*
%TD.AperFunction*%
%TO.P,U101,9,SW6*%
%TO.N,Net-(U101-Pad9)*%
%TA.AperFunction,SMDPad,CuDef*%
G36*
G01*
X131425000Y-106812500D02*
X131425000Y-107487500D01*
G75*
G02*
X131362500Y-107550000I-62500J0D01*
G01*
X131237500Y-107550000D01*
G75*
G02*
X131175000Y-107487500I0J62500D01*
G01*
X131175000Y-106812500D01*
G75*
G02*
X131237500Y-106750000I62500J0D01*
G01*
X131362500Y-106750000D01*
G75*
G02*
X131425000Y-106812500I0J-62500D01*
G01*
G37*
%TD.AperFunction*%
%TO.P,U101,10,CS1*%
%TO.N,/CS1*%
%TA.AperFunction,SMDPad,CuDef*%
G36*
G01*
X130925000Y-106812500D02*
X130925000Y-107487500D01*
G75*
G02*
X130862500Y-107550000I-62500J0D01*
G01*
X130737500Y-107550000D01*
G75*
G02*
X130675000Y-107487500I0J62500D01*
G01*
X130675000Y-106812500D01*
G75*
G02*
X130737500Y-106750000I62500J0D01*
G01*
X130862500Y-106750000D01*
G75*
G02*
X130925000Y-106812500I0J-62500D01*
G01*
G37*
%TD.AperFunction*%
%TO.P,U101,11,CS2*%
%TO.N,/CS2*%
%TA.AperFunction,SMDPad,CuDef*%
G36*
G01*
X130425000Y-106812500D02*
X130425000Y-107487500D01*
G75*
G02*
X130362500Y-107550000I-62500J0D01*
G01*
X130237500Y-107550000D01*
G75*
G02*
X130175000Y-107487500I0J62500D01*
G01*
X130175000Y-106812500D01*
G75*
G02*
X130237500Y-106750000I62500J0D01*
G01*
X130362500Y-106750000D01*
G75*
G02*
X130425000Y-106812500I0J-62500D01*
G01*
G37*
%TD.AperFunction*%
%TO.P,U101,12,PVCC*%
%TO.N,+2V8*%
%TA.AperFunction,SMDPad,CuDef*%
G36*
G01*
X129925000Y-106812500D02*
X129925000Y-107487500D01*
G75*
G02*
X129862500Y-107550000I-62500J0D01*
G01*
X129737500Y-107550000D01*
G75*
G02*
X129675000Y-107487500I0J62500D01*
G01*
X129675000Y-106812500D01*
G75*
G02*
X129737500Y-106750000I62500J0D01*
G01*
X129862500Y-106750000D01*
G75*
G02*
X129925000Y-106812500I0J-62500D01*
G01*
G37*
%TD.AperFunction*%
%TO.P,U101,13,CS3*%
%TO.N,/CS3*%
%TA.AperFunction,SMDPad,CuDef*%
G36*
G01*
X129425000Y-106812500D02*
X129425000Y-107487500D01*
G75*
G02*
X129362500Y-107550000I-62500J0D01*
G01*
X129237500Y-107550000D01*
G75*
G02*
X129175000Y-107487500I0J62500D01*
G01*
X129175000Y-106812500D01*
G75*
G02*
X129237500Y-106750000I62500J0D01*
G01*
X129362500Y-106750000D01*
G75*
G02*
X129425000Y-106812500I0J-62500D01*
G01*
G37*
%TD.AperFunction*%
%TO.P,U101,14,CS4*%
%TO.N,/CS4*%
%TA.AperFunction,SMDPad,CuDef*%
G36*
G01*
X128925000Y-106812500D02*
X128925000Y-107487500D01*
G75*
G02*
X128862500Y-107550000I-62500J0D01*
G01*
X128737500Y-107550000D01*
G75*
G02*
X128675000Y-107487500I0J62500D01*
G01*
X128675000Y-106812500D01*
G75*
G02*
X128737500Y-106750000I62500J0D01*
G01*
X128862500Y-106750000D01*
G75*
G02*
X128925000Y-106812500I0J-62500D01*
G01*
G37*
%TD.AperFunction*%
%TO.P,U101,15,CS5*%
%TO.N,/CS5*%
%TA.AperFunction,SMDPad,CuDef*%
G36*
G01*
X128250000Y-108037500D02*
X128250000Y-108162500D01*
G75*
G02*
X128187500Y-108225000I-62500J0D01*
G01*
X127512500Y-108225000D01*
G75*
G02*
X127450000Y-108162500I0J62500D01*
G01*
X127450000Y-108037500D01*
G75*
G02*
X127512500Y-107975000I62500J0D01*
G01*
X128187500Y-107975000D01*
G75*
G02*
X128250000Y-108037500I0J-62500D01*
G01*
G37*
%TD.AperFunction*%
%TO.P,U101,16,CS6*%
%TO.N,Net-(U101-Pad16)*%
%TA.AperFunction,SMDPad,CuDef*%
G36*
G01*
X128250000Y-108537500D02*
X128250000Y-108662500D01*
G75*
G02*
X128187500Y-108725000I-62500J0D01*
G01*
X127512500Y-108725000D01*
G75*
G02*
X127450000Y-108662500I0J62500D01*
G01*
X127450000Y-108537500D01*
G75*
G02*
X127512500Y-108475000I62500J0D01*
G01*
X128187500Y-108475000D01*
G75*
G02*
X128250000Y-108537500I0J-62500D01*
G01*
G37*
%TD.AperFunction*%
%TO.P,U101,17,PVCC*%
%TO.N,+2V8*%
%TA.AperFunction,SMDPad,CuDef*%
G36*
G01*
X128250000Y-109037500D02*
X128250000Y-109162500D01*
G75*
G02*
X128187500Y-109225000I-62500J0D01*
G01*
X127512500Y-109225000D01*
G75*
G02*
X127450000Y-109162500I0J62500D01*
G01*
X127450000Y-109037500D01*
G75*
G02*
X127512500Y-108975000I62500J0D01*
G01*
X128187500Y-108975000D01*
G75*
G02*
X128250000Y-109037500I0J-62500D01*
G01*
G37*
%TD.AperFunction*%
%TO.P,U101,18,CS7*%
%TO.N,Net-(U101-Pad18)*%
%TA.AperFunction,SMDPad,CuDef*%
G36*
G01*
X128250000Y-109537500D02*
X128250000Y-109662500D01*
G75*
G02*
X128187500Y-109725000I-62500J0D01*
G01*
X127512500Y-109725000D01*
G75*
G02*
X127450000Y-109662500I0J62500D01*
G01*
X127450000Y-109537500D01*
G75*
G02*
X127512500Y-109475000I62500J0D01*
G01*
X128187500Y-109475000D01*
G75*
G02*
X128250000Y-109537500I0J-62500D01*
G01*
G37*
%TD.AperFunction*%
%TO.P,U101,19,CS8*%
%TO.N,Net-(U101-Pad19)*%
%TA.AperFunction,SMDPad,CuDef*%
G36*
G01*
X128250000Y-110037500D02*
X128250000Y-110162500D01*
G75*
G02*
X128187500Y-110225000I-62500J0D01*
G01*
X127512500Y-110225000D01*
G75*
G02*
X127450000Y-110162500I0J62500D01*
G01*
X127450000Y-110037500D01*
G75*
G02*
X127512500Y-109975000I62500J0D01*
G01*
X128187500Y-109975000D01*
G75*
G02*
X128250000Y-110037500I0J-62500D01*
G01*
G37*
%TD.AperFunction*%
%TO.P,U101,20,R_EXT*%
%TO.N,Net-(R105-Pad1)*%
%TA.AperFunction,SMDPad,CuDef*%
G36*
G01*
X128250000Y-110537500D02*
X128250000Y-110662500D01*
G75*
G02*
X128187500Y-110725000I-62500J0D01*
G01*
X127512500Y-110725000D01*
G75*
G02*
X127450000Y-110662500I0J62500D01*
G01*
X127450000Y-110537500D01*
G75*
G02*
X127512500Y-110475000I62500J0D01*
G01*
X128187500Y-110475000D01*
G75*
G02*
X128250000Y-110537500I0J-62500D01*
G01*
G37*
%TD.AperFunction*%
%TO.P,U101,21,AVCC*%
%TO.N,+2V8*%
%TA.AperFunction,SMDPad,CuDef*%
G36*
G01*
X128250000Y-111037500D02*
X128250000Y-111162500D01*
G75*
G02*
X128187500Y-111225000I-62500J0D01*
G01*
X127512500Y-111225000D01*
G75*
G02*
X127450000Y-111162500I0J62500D01*
G01*
X127450000Y-111037500D01*
G75*
G02*
X127512500Y-110975000I62500J0D01*
G01*
X128187500Y-110975000D01*
G75*
G02*
X128250000Y-111037500I0J-62500D01*
G01*
G37*
%TD.AperFunction*%
%TO.P,U101,22,VIO*%
%TO.N,/VIO*%
%TA.AperFunction,SMDPad,CuDef*%
G36*
G01*
X128925000Y-111712500D02*
X128925000Y-112387500D01*
G75*
G02*
X128862500Y-112450000I-62500J0D01*
G01*
X128737500Y-112450000D01*
G75*
G02*
X128675000Y-112387500I0J62500D01*
G01*
X128675000Y-111712500D01*
G75*
G02*
X128737500Y-111650000I62500J0D01*
G01*
X128862500Y-111650000D01*
G75*
G02*
X128925000Y-111712500I0J-62500D01*
G01*
G37*
%TD.AperFunction*%
%TO.P,U101,23,SYNC*%
%TO.N,Net-(TP101-Pad1)*%
%TA.AperFunction,SMDPad,CuDef*%
G36*
G01*
X129425000Y-111712500D02*
X129425000Y-112387500D01*
G75*
G02*
X129362500Y-112450000I-62500J0D01*
G01*
X129237500Y-112450000D01*
G75*
G02*
X129175000Y-112387500I0J62500D01*
G01*
X129175000Y-111712500D01*
G75*
G02*
X129237500Y-111650000I62500J0D01*
G01*
X129362500Y-111650000D01*
G75*
G02*
X129425000Y-111712500I0J-62500D01*
G01*
G37*
%TD.AperFunction*%
%TO.P,U101,24,SDA*%
%TO.N,/SDA*%
%TA.AperFunction,SMDPad,CuDef*%
G36*
G01*
X129925000Y-111712500D02*
X129925000Y-112387500D01*
G75*
G02*
X129862500Y-112450000I-62500J0D01*
G01*
X129737500Y-112450000D01*
G75*
G02*
X129675000Y-112387500I0J62500D01*
G01*
X129675000Y-111712500D01*
G75*
G02*
X129737500Y-111650000I62500J0D01*
G01*
X129862500Y-111650000D01*
G75*
G02*
X129925000Y-111712500I0J-62500D01*
G01*
G37*
%TD.AperFunction*%
%TO.P,U101,25,SCL*%
%TO.N,/SCL*%
%TA.AperFunction,SMDPad,CuDef*%
G36*
G01*
X130425000Y-111712500D02*
X130425000Y-112387500D01*
G75*
G02*
X130362500Y-112450000I-62500J0D01*
G01*
X130237500Y-112450000D01*
G75*
G02*
X130175000Y-112387500I0J62500D01*
G01*
X130175000Y-111712500D01*
G75*
G02*
X130237500Y-111650000I62500J0D01*
G01*
X130362500Y-111650000D01*
G75*
G02*
X130425000Y-111712500I0J-62500D01*
G01*
G37*
%TD.AperFunction*%
%TO.P,U101,26,ADDR*%
%TO.N,Net-(R106-Pad1)*%
%TA.AperFunction,SMDPad,CuDef*%
G36*
G01*
X130925000Y-111712500D02*
X130925000Y-112387500D01*
G75*
G02*
X130862500Y-112450000I-62500J0D01*
G01*
X130737500Y-112450000D01*
G75*
G02*
X130675000Y-112387500I0J62500D01*
G01*
X130675000Y-111712500D01*
G75*
G02*
X130737500Y-111650000I62500J0D01*
G01*
X130862500Y-111650000D01*
G75*
G02*
X130925000Y-111712500I0J-62500D01*
G01*
G37*
%TD.AperFunction*%
%TO.P,U101,27,~INTB*%
%TO.N,/~INTB*%
%TA.AperFunction,SMDPad,CuDef*%
G36*
G01*
X131425000Y-111712500D02*
X131425000Y-112387500D01*
G75*
G02*
X131362500Y-112450000I-62500J0D01*
G01*
X131237500Y-112450000D01*
G75*
G02*
X131175000Y-112387500I0J62500D01*
G01*
X131175000Y-111712500D01*
G75*
G02*
X131237500Y-111650000I62500J0D01*
G01*
X131362500Y-111650000D01*
G75*
G02*
X131425000Y-111712500I0J-62500D01*
G01*
G37*
%TD.AperFunction*%
%TO.P,U101,28,~SDB*%
%TO.N,/~SDB*%
%TA.AperFunction,SMDPad,CuDef*%
G36*
G01*
X131925000Y-111712500D02*
X131925000Y-112387500D01*
G75*
G02*
X131862500Y-112450000I-62500J0D01*
G01*
X131737500Y-112450000D01*
G75*
G02*
X131675000Y-112387500I0J62500D01*
G01*
X131675000Y-111712500D01*
G75*
G02*
X131737500Y-111650000I62500J0D01*
G01*
X131862500Y-111650000D01*
G75*
G02*
X131925000Y-111712500I0J-62500D01*
G01*
G37*
%TD.AperFunction*%
D22*
%TO.P,U101,29,PGND*%
%TO.N,GND*%
X131300000Y-110600000D03*
X130300000Y-108600000D03*
X131300000Y-108600000D03*
X129300000Y-108600000D03*
%TA.AperFunction,SMDPad,CuDef*%
G36*
G01*
X132050000Y-108112500D02*
X132050000Y-111087500D01*
G75*
G02*
X131787500Y-111350000I-262500J0D01*
G01*
X128812500Y-111350000D01*
G75*
G02*
X128550000Y-111087500I0J262500D01*
G01*
X128550000Y-108112500D01*
G75*
G02*
X128812500Y-107850000I262500J0D01*
G01*
X131787500Y-107850000D01*
G75*
G02*
X132050000Y-108112500I0J-262500D01*
G01*
G37*
%TD.AperFunction*%
X129300000Y-110600000D03*
X130300000Y-110600000D03*
X131300000Y-109600000D03*
X130300000Y-109600000D03*
X129300000Y-109600000D03*
%TD*%
%TO.P,C104,1*%
%TO.N,+2V8*%
%TA.AperFunction,SMDPad,CuDef*%
G36*
G01*
X126825000Y-111743750D02*
X126825000Y-112256250D01*
G75*
G02*
X126606250Y-112475000I-218750J0D01*
G01*
X126168750Y-112475000D01*
G75*
G02*
X125950000Y-112256250I0J218750D01*
G01*
X125950000Y-111743750D01*
G75*
G02*
X126168750Y-111525000I218750J0D01*
G01*
X126606250Y-111525000D01*
G75*
G02*
X126825000Y-111743750I0J-218750D01*
G01*
G37*
%TD.AperFunction*%
%TO.P,C104,2*%
%TO.N,GND*%
%TA.AperFunction,SMDPad,CuDef*%
G36*
G01*
X125250000Y-111743750D02*
X125250000Y-112256250D01*
G75*
G02*
X125031250Y-112475000I-218750J0D01*
G01*
X124593750Y-112475000D01*
G75*
G02*
X124375000Y-112256250I0J218750D01*
G01*
X124375000Y-111743750D01*
G75*
G02*
X124593750Y-111525000I218750J0D01*
G01*
X125031250Y-111525000D01*
G75*
G02*
X125250000Y-111743750I0J-218750D01*
G01*
G37*
%TD.AperFunction*%
%TD*%
D10*
%TO.P,J101,1,Pin_1*%
%TO.N,GND*%
X99060000Y-106875000D03*
D11*
%TO.P,J101,2,Pin_2*%
%TO.N,/CS5*%
X101600000Y-106875000D03*
%TO.P,J101,3,Pin_3*%
%TO.N,GND*%
X99060000Y-109415000D03*
%TO.P,J101,4,Pin_4*%
%TO.N,/CS4*%
X101600000Y-109415000D03*
%TO.P,J101,5,Pin_5*%
%TO.N,GND*%
X99060000Y-111955000D03*
%TO.P,J101,6,Pin_6*%
%TO.N,/CS3*%
X101600000Y-111955000D03*
%TO.P,J101,7,Pin_7*%
%TO.N,GND*%
X99060000Y-114495000D03*
%TO.P,J101,8,Pin_8*%
%TO.N,/CS2*%
X101600000Y-114495000D03*
%TO.P,J101,9,Pin_9*%
%TO.N,GND*%
X99060000Y-117035000D03*
%TO.P,J101,10,Pin_10*%
%TO.N,/CS1*%
X101600000Y-117035000D03*
%TD*%
D10*
%TO.P,J102,1,Pin_1*%
%TO.N,/SW5*%
X144780000Y-106875000D03*
D11*
%TO.P,J102,2,Pin_2*%
%TO.N,GND*%
X147320000Y-106875000D03*
%TO.P,J102,3,Pin_3*%
%TO.N,/SW4*%
X144780000Y-109415000D03*
%TO.P,J102,4,Pin_4*%
%TO.N,GND*%
X147320000Y-109415000D03*
%TO.P,J102,5,Pin_5*%
%TO.N,/SW3*%
X144780000Y-111955000D03*
%TO.P,J102,6,Pin_6*%
%TO.N,GND*%
X147320000Y-111955000D03*
%TO.P,J102,7,Pin_7*%
%TO.N,/SW2*%
X144780000Y-114495000D03*
%TO.P,J102,8,Pin_8*%
%TO.N,GND*%
X147320000Y-114495000D03*
%TO.P,J102,9,Pin_9*%
%TO.N,/SW1*%
X144780000Y-117035000D03*
%TO.P,J102,10,Pin_10*%
%TO.N,GND*%
X147320000Y-117035000D03*
%TD*%
D23*
%TO.N,GND*%
X98000000Y-130500000D03*
X104500000Y-107800000D03*
X142000000Y-118500000D03*
X122100000Y-111200000D03*
X120700000Y-129300000D03*
X116000000Y-113700000D03*
X109800000Y-112100000D03*
X98800000Y-124900000D03*
X114400000Y-120100000D03*
X117700000Y-106400000D03*
X113000000Y-117800000D03*
X106900000Y-129200000D03*
X151600000Y-127700000D03*
X126300000Y-106400000D03*
X111300000Y-117800000D03*
X110300000Y-120000000D03*
X117200000Y-117700000D03*
X103000000Y-113200000D03*
X143000000Y-108100000D03*
X110300000Y-127100000D03*
X104200000Y-129200000D03*
X115800000Y-129300000D03*
X113200000Y-106400000D03*
X142600000Y-115800000D03*
X137700000Y-116500000D03*
X133400000Y-133200000D03*
X120500000Y-106000000D03*
X108200000Y-116900000D03*
X108300000Y-119900000D03*
X143000000Y-110700000D03*
X123900000Y-106000000D03*
X140700000Y-109000000D03*
X126200000Y-116200000D03*
X111700000Y-110600000D03*
X106200000Y-115500000D03*
X124700000Y-133200000D03*
X139000000Y-129300000D03*
X115700000Y-111400000D03*
X95700000Y-120000000D03*
X117000000Y-133200000D03*
X143000000Y-113200000D03*
X120300000Y-114600000D03*
X140000000Y-113700000D03*
X95700000Y-122600000D03*
X160700000Y-120000000D03*
X158600000Y-122100000D03*
X143000000Y-105100000D03*
X104500000Y-104900000D03*
X148800000Y-133200000D03*
X132800000Y-111700000D03*
X139000000Y-125800000D03*
X125600000Y-112700000D03*
X137700000Y-118900000D03*
X98000000Y-133200000D03*
X103000000Y-108100000D03*
X158600000Y-120000000D03*
X132700000Y-120000000D03*
X109300000Y-109800000D03*
X158700000Y-124100000D03*
X110500000Y-116200000D03*
X104400000Y-124900000D03*
X160700000Y-127600000D03*
X101300000Y-129200000D03*
X95700000Y-127600000D03*
X130000000Y-125800000D03*
X144300000Y-129300000D03*
X118262500Y-113700000D03*
X124800000Y-109500000D03*
X135800000Y-120000000D03*
X103100000Y-110600000D03*
X119900000Y-119400000D03*
X102900000Y-115500000D03*
X112300000Y-129300000D03*
X115600000Y-106400000D03*
X137900000Y-111700000D03*
X103000000Y-133200000D03*
X153300000Y-127700000D03*
X106400000Y-126500000D03*
X140700000Y-120000000D03*
X144300000Y-125800000D03*
X106200000Y-118400000D03*
X106000000Y-106500000D03*
X134400000Y-125600000D03*
X99900000Y-119900000D03*
X119500000Y-109000000D03*
X150300000Y-122500000D03*
X136400000Y-113100000D03*
X127900000Y-120000000D03*
X101700000Y-124900000D03*
X108200000Y-108100000D03*
X148800000Y-131100000D03*
X132700000Y-105200000D03*
X111700000Y-114300000D03*
X144900000Y-120000000D03*
X109400000Y-106400000D03*
X141500000Y-133200000D03*
X95700000Y-125300000D03*
X160700000Y-124100000D03*
X132700000Y-107100000D03*
X149000000Y-120000000D03*
X139300000Y-110300000D03*
X114000000Y-113700000D03*
X134400000Y-129300000D03*
X110000000Y-133200000D03*
X113200000Y-107900000D03*
X98000000Y-127600000D03*
X104200000Y-119900000D03*
X148800000Y-127700000D03*
X105200000Y-110600000D03*
X102900000Y-118400000D03*
X105500000Y-113200000D03*
X121500000Y-115900000D03*
X152500000Y-120000000D03*
X128300000Y-129300000D03*
X125600000Y-120000000D03*
%TO.N,/CS1*%
X114200000Y-110000000D03*
X131400000Y-106200000D03*
%TO.N,/CS2*%
X115500000Y-109400000D03*
X130300000Y-106200000D03*
%TO.N,/CS3*%
X115200000Y-108100000D03*
X128400000Y-106000000D03*
%TO.N,/CS4*%
X124000000Y-107000000D03*
X127800000Y-106600000D03*
%TO.N,/CS5*%
X119800000Y-106800000D03*
X125400000Y-108099999D03*
%TO.N,/SCL*%
X131400000Y-124900000D03*
%TO.N,/SDA*%
X128800000Y-126100000D03*
%TO.N,Net-(TP101-Pad1)*%
X124200000Y-113300000D03*
X128000000Y-112800000D03*
%TO.N,VBUS*%
X153000000Y-124500000D03*
X112900000Y-119100000D03*
X153000000Y-125500000D03*
X111600000Y-119100000D03*
X114700000Y-111900000D03*
X116100000Y-114700000D03*
%TO.N,+2V8*%
X125700000Y-111300000D03*
X123700000Y-111300000D03*
%TD*%
D24*
%TO.N,GND*%
X125600000Y-112700000D02*
X125512500Y-112700000D01*
D25*
X118262500Y-113700000D02*
X119200000Y-114637500D01*
X101175000Y-122300000D02*
X102445000Y-122300000D01*
X115600000Y-113700000D02*
X114000000Y-113700000D01*
D26*
X132750000Y-111100000D02*
X132750000Y-111650000D01*
D25*
X103715000Y-122300000D02*
X104985000Y-122300000D01*
D24*
X125612500Y-112712500D02*
X125600000Y-112700000D01*
X125612500Y-113600000D02*
X125612500Y-112712500D01*
X124812500Y-109512500D02*
X124800000Y-109500000D01*
D26*
X131800000Y-108100000D02*
X130300000Y-109600000D01*
D25*
X113437500Y-113700000D02*
X114000000Y-113700000D01*
X122200000Y-105962500D02*
X120537500Y-105962500D01*
X123862500Y-105962500D02*
X123900000Y-106000000D01*
X102445000Y-122300000D02*
X103715000Y-122300000D01*
D26*
X132750000Y-111100000D02*
X131800000Y-111100000D01*
D25*
X119200000Y-114637500D02*
X120262500Y-114637500D01*
D26*
X131800000Y-105212500D02*
X131787500Y-105200000D01*
D25*
X120537500Y-105962500D02*
X120500000Y-106000000D01*
D26*
X131800000Y-107150000D02*
X131800000Y-108100000D01*
D25*
X120262500Y-114637500D02*
X120300000Y-114600000D01*
D24*
X126300000Y-107312500D02*
X126300000Y-106400000D01*
D25*
X112800000Y-114337500D02*
X111737500Y-114337500D01*
X111737500Y-114337500D02*
X111700000Y-114300000D01*
D26*
X131800000Y-111100000D02*
X130300000Y-109600000D01*
D25*
X98635000Y-122300000D02*
X99905000Y-122300000D01*
X99905000Y-122300000D02*
X101175000Y-122300000D01*
D26*
X132750000Y-109600000D02*
X130300000Y-109600000D01*
D25*
X117310000Y-113700000D02*
X115600000Y-113700000D01*
X111512500Y-116200000D02*
X110500000Y-116200000D01*
X112800000Y-114337500D02*
X113437500Y-113700000D01*
X115600000Y-113700000D02*
X116000000Y-113700000D01*
D24*
X125512500Y-112700000D02*
X124812500Y-112000000D01*
D25*
X122200000Y-105962500D02*
X123862500Y-105962500D01*
D26*
X132750000Y-111650000D02*
X132800000Y-111700000D01*
D24*
X124812500Y-110400000D02*
X124812500Y-109512500D01*
D25*
X117310000Y-113700000D02*
X118262500Y-113700000D01*
D26*
%TO.N,/VIO*%
X134812500Y-115100000D02*
X134812500Y-116612500D01*
D24*
X115600000Y-120300000D02*
X123780000Y-120300000D01*
D25*
X110065000Y-122300000D02*
X111335000Y-122300000D01*
X108795000Y-122300000D02*
X110065000Y-122300000D01*
D24*
X126200000Y-115200000D02*
X127112500Y-115200000D01*
X115145000Y-120755000D02*
X115600000Y-120300000D01*
X123950000Y-114800000D02*
X125800000Y-114800000D01*
D26*
X135200000Y-118600000D02*
X134800000Y-119000000D01*
D24*
X125800000Y-114800000D02*
X126200000Y-115200000D01*
D26*
X128800000Y-113512500D02*
X128712500Y-113600000D01*
X134800000Y-115087500D02*
X134812500Y-115100000D01*
X127480000Y-119000000D02*
X126280000Y-117800000D01*
X133400000Y-115087500D02*
X134800000Y-115087500D01*
D24*
X127225010Y-113562490D02*
X127187500Y-113600000D01*
D26*
X134800000Y-119000000D02*
X127480000Y-119000000D01*
D25*
X111335000Y-122300000D02*
X112605000Y-122300000D01*
D24*
X128712500Y-113600000D02*
X127187500Y-113600000D01*
X127112500Y-115200000D02*
X127112500Y-113675000D01*
X127112500Y-116967500D02*
X126280000Y-117800000D01*
X127112500Y-113675000D02*
X127187500Y-113600000D01*
D26*
X134812500Y-116612500D02*
X135200000Y-117000000D01*
D24*
X127550000Y-112050000D02*
X127225010Y-112374990D01*
X123780000Y-120300000D02*
X126280000Y-117800000D01*
X127112500Y-115200000D02*
X127112500Y-116967500D01*
X127225010Y-112374990D02*
X127225010Y-113562490D01*
X128250000Y-112050000D02*
X127550000Y-112050000D01*
D26*
X128800000Y-112050000D02*
X128250000Y-112050000D01*
X135200000Y-117000000D02*
X135200000Y-118600000D01*
D25*
X112605000Y-122300000D02*
X113875000Y-122300000D01*
D24*
X115145000Y-122300000D02*
X115145000Y-120755000D01*
D25*
X113875000Y-122300000D02*
X115145000Y-122300000D01*
D24*
%TO.N,/CS1*%
X110912500Y-112187500D02*
X111700000Y-111400000D01*
D26*
X131400000Y-106200000D02*
X130800000Y-106600000D01*
D24*
X106065000Y-117035000D02*
X110912500Y-112187500D01*
X101600000Y-117035000D02*
X106065000Y-117035000D01*
X112800000Y-111400000D02*
X114200000Y-110000000D01*
X111700000Y-111400000D02*
X112800000Y-111400000D01*
D26*
X130800000Y-106600000D02*
X130800000Y-107150000D01*
D24*
%TO.N,/CS2*%
X101600000Y-114495000D02*
X106217500Y-114495000D01*
X110912500Y-109800000D02*
X112487500Y-109800000D01*
X112487500Y-109800000D02*
X113100000Y-109800000D01*
X113100000Y-109800000D02*
X113600001Y-109299999D01*
X106217500Y-114495000D02*
X110912500Y-109800000D01*
X115399999Y-109299999D02*
X113600001Y-109299999D01*
D26*
X130300000Y-107150000D02*
X130300000Y-106200000D01*
D24*
X115500000Y-109400000D02*
X115399999Y-109299999D01*
D26*
%TO.N,/CS3*%
X128600000Y-106000000D02*
X128400000Y-106000000D01*
D24*
X114600001Y-108699999D02*
X115200000Y-108100000D01*
D26*
X129300000Y-107150000D02*
X129300000Y-106700000D01*
X129300000Y-106700000D02*
X129000000Y-106400000D01*
D24*
X101655000Y-111900000D02*
X101600000Y-111955000D01*
X105645000Y-111955000D02*
X108900001Y-108699999D01*
X101600000Y-111955000D02*
X105645000Y-111955000D01*
D26*
X129300000Y-106700000D02*
X128600000Y-106000000D01*
D24*
X108900001Y-108699999D02*
X114600001Y-108699999D01*
%TO.N,/CS4*%
X119200000Y-107700000D02*
X121600000Y-107700000D01*
X116800000Y-107200000D02*
X107000000Y-107200000D01*
D26*
X128800000Y-107150000D02*
X128800000Y-106836410D01*
D24*
X116912500Y-107200000D02*
X116800000Y-107200000D01*
D26*
X128800000Y-106836410D02*
X128588591Y-106625001D01*
X128588591Y-106625001D02*
X127825001Y-106625001D01*
D24*
X104785000Y-109415000D02*
X107000000Y-107200000D01*
X123374990Y-107025010D02*
X122274990Y-107025010D01*
X101600000Y-109415000D02*
X104785000Y-109415000D01*
D26*
X127825001Y-106625001D02*
X127800000Y-106600000D01*
D24*
X118700000Y-107200000D02*
X119200000Y-107700000D01*
X116800000Y-107200000D02*
X117900000Y-107200000D01*
X123374990Y-107025010D02*
X123974990Y-107025010D01*
X117900000Y-107200000D02*
X118700000Y-107200000D01*
X123974990Y-107025010D02*
X124000000Y-107000000D01*
X121600000Y-107700000D02*
X122274990Y-107025010D01*
%TO.N,/CS5*%
X118600000Y-105600000D02*
X118400000Y-105600000D01*
X104700000Y-105600000D02*
X103425000Y-106875000D01*
X116912500Y-105600000D02*
X104700000Y-105600000D01*
X116912500Y-105600000D02*
X118400000Y-105600000D01*
X119800000Y-106800000D02*
X118600000Y-105600000D01*
X103425000Y-106875000D02*
X101600000Y-106875000D01*
D26*
X125400000Y-108100000D02*
X125400000Y-108099999D01*
X127850000Y-108100000D02*
X125400000Y-108100000D01*
%TO.N,/SW5*%
X133200000Y-108100000D02*
X133700000Y-107600000D01*
D25*
X144780000Y-106875000D02*
X134425000Y-106875000D01*
D26*
X132750000Y-108100000D02*
X133200000Y-108100000D01*
D25*
X134425000Y-106875000D02*
X133700000Y-107600000D01*
%TO.N,/SW4*%
X142515000Y-109415000D02*
X141100000Y-108000000D01*
X135000000Y-108000000D02*
X134650000Y-108350000D01*
D26*
X134650000Y-108350000D02*
X134400000Y-108600000D01*
D25*
X141100000Y-108000000D02*
X135000000Y-108000000D01*
X144780000Y-109415000D02*
X142515000Y-109415000D01*
D26*
X132750000Y-108600000D02*
X134400000Y-108600000D01*
%TO.N,/SW3*%
X132750000Y-109100000D02*
X135700000Y-109100000D01*
D25*
X135700000Y-109100000D02*
X139400000Y-109100000D01*
X142255000Y-111955000D02*
X144780000Y-111955000D01*
X139400000Y-109100000D02*
X142255000Y-111955000D01*
D26*
%TO.N,/SW2*%
X132750000Y-110100000D02*
X136100000Y-110100000D01*
D25*
X137900000Y-110100000D02*
X136100000Y-110100000D01*
X142295000Y-114495000D02*
X137900000Y-110100000D01*
X144780000Y-114495000D02*
X142295000Y-114495000D01*
D26*
%TO.N,/SW1*%
X135300000Y-110600000D02*
X135700000Y-111000000D01*
X135000000Y-110600000D02*
X135300000Y-110600000D01*
X134000000Y-110600000D02*
X135000000Y-110600000D01*
X132750000Y-110600000D02*
X134000000Y-110600000D01*
D25*
X141735000Y-117035000D02*
X144780000Y-117035000D01*
X141735000Y-117035000D02*
X135700000Y-111000000D01*
D26*
%TO.N,/~INTB*%
X136387500Y-117747500D02*
X136440000Y-117800000D01*
X132600000Y-113600000D02*
X132600000Y-114100000D01*
X135587490Y-114299990D02*
X136387500Y-115100000D01*
X132450000Y-113450000D02*
X132600000Y-113600000D01*
X132800000Y-114300000D02*
X132800010Y-114299990D01*
X131300000Y-112050000D02*
X131300000Y-112600000D01*
X131300000Y-112600000D02*
X131900000Y-113200000D01*
X132800010Y-114299990D02*
X135587490Y-114299990D01*
X136387500Y-115100000D02*
X136387500Y-117747500D01*
X132200000Y-113200000D02*
X132450000Y-113450000D01*
X131900000Y-113200000D02*
X132200000Y-113200000D01*
X132600000Y-114100000D02*
X132800000Y-114300000D01*
%TO.N,/~SDB*%
X132293750Y-112193750D02*
X132293750Y-112406250D01*
X132150000Y-112050000D02*
X132293750Y-112193750D01*
X133400000Y-113512500D02*
X134775000Y-113512500D01*
X134775000Y-113512500D02*
X134900000Y-113387500D01*
X138980000Y-117800000D02*
X138980000Y-116180000D01*
X135587500Y-113387500D02*
X136450000Y-114250000D01*
X134900000Y-113387500D02*
X135587500Y-113387500D01*
X131800000Y-112050000D02*
X132150000Y-112050000D01*
X136450000Y-114250000D02*
X137050000Y-114250000D01*
X138980000Y-116180000D02*
X137050000Y-114250000D01*
X132293750Y-112406250D02*
X133400000Y-113512500D01*
%TO.N,/SCL*%
X130287500Y-113600000D02*
X130287500Y-116727500D01*
X130300000Y-112050000D02*
X130300000Y-113587500D01*
X130300000Y-113587500D02*
X130287500Y-113600000D01*
D24*
X108200000Y-124900000D02*
X131400000Y-124900000D01*
X107525000Y-122300000D02*
X107525000Y-124225000D01*
X107525000Y-124225000D02*
X108200000Y-124900000D01*
D26*
X130287500Y-116727500D02*
X131360000Y-117800000D01*
%TO.N,/SDA*%
X129500000Y-114387500D02*
X128687500Y-115200000D01*
X129500000Y-113000000D02*
X129500000Y-114387500D01*
X128687500Y-115200000D02*
X128687500Y-117667500D01*
D24*
X106255000Y-124655000D02*
X106255000Y-122300000D01*
D26*
X128687500Y-117667500D02*
X128820000Y-117800000D01*
X129800000Y-112700000D02*
X129500000Y-113000000D01*
D24*
X107700000Y-126100000D02*
X106255000Y-124655000D01*
D26*
X129800000Y-112050000D02*
X129800000Y-112700000D01*
D24*
X128800000Y-126100000D02*
X107700000Y-126100000D01*
D26*
%TO.N,Net-(R105-Pad1)*%
X126587500Y-110600000D02*
X126387500Y-110400000D01*
X127850000Y-110600000D02*
X126587500Y-110600000D01*
%TO.N,Net-(R106-Pad1)*%
X131800000Y-113736410D02*
X131800000Y-114112500D01*
X130800000Y-112050000D02*
X130800000Y-112736410D01*
X130800000Y-112736410D02*
X131800000Y-113736410D01*
%TO.N,Net-(TP101-Pad1)*%
X129300000Y-112500000D02*
X129000000Y-112800000D01*
X123500000Y-113300000D02*
X122900000Y-112700000D01*
X129300000Y-112050000D02*
X129300000Y-112500000D01*
X124200000Y-113300000D02*
X123500000Y-113300000D01*
X129000000Y-112800000D02*
X128000000Y-112800000D01*
D27*
%TO.N,VBUS*%
X153100000Y-124400000D02*
X153000000Y-124500000D01*
D25*
X112900000Y-119100000D02*
X116000000Y-119100000D01*
X114690000Y-112750000D02*
X113087500Y-112750000D01*
X110900000Y-119100000D02*
X112900000Y-119100000D01*
X116000000Y-119100000D02*
X117837500Y-119100000D01*
X110900000Y-119100000D02*
X111600000Y-119100000D01*
D27*
X153100000Y-123437500D02*
X153100000Y-124400000D01*
D25*
X110700000Y-119100000D02*
X110900000Y-119100000D01*
X109400000Y-115100000D02*
X109400000Y-117800000D01*
D27*
X153000000Y-124500000D02*
X153000000Y-125500000D01*
D26*
X114690000Y-111910000D02*
X114700000Y-111900000D01*
D25*
X113087500Y-112750000D02*
X112800000Y-112462500D01*
D26*
X116100000Y-114700000D02*
X117260000Y-114700000D01*
D25*
X111600000Y-119100000D02*
X112900000Y-119100000D01*
X117837500Y-119100000D02*
X118300000Y-118637500D01*
D26*
X117260000Y-114700000D02*
X117310000Y-114650000D01*
D25*
X112037500Y-112462500D02*
X109400000Y-115100000D01*
X112800000Y-112462500D02*
X112037500Y-112462500D01*
D26*
X114690000Y-112750000D02*
X114690000Y-111910000D01*
D25*
X109400000Y-117800000D02*
X110700000Y-119100000D01*
D26*
%TO.N,+2V8*%
X119800000Y-115700000D02*
X120400000Y-115700000D01*
D24*
X126300000Y-108887500D02*
X126212499Y-108799999D01*
D27*
X119200000Y-110675000D02*
X119275000Y-110600000D01*
D26*
X129600000Y-106363590D02*
X129600000Y-106000000D01*
D25*
X122700000Y-107800000D02*
X122200000Y-108300000D01*
D27*
X122200000Y-109037500D02*
X122137500Y-109100000D01*
D26*
X116600000Y-116200000D02*
X117100000Y-115700000D01*
D27*
X120900000Y-112400000D02*
X121100000Y-112200000D01*
D24*
X121850000Y-114800000D02*
X121850000Y-113350000D01*
D26*
X127850000Y-111100000D02*
X127287500Y-111100000D01*
X127850000Y-109100000D02*
X126512500Y-109100000D01*
X120500000Y-113800000D02*
X119500000Y-113800000D01*
X126512500Y-109100000D02*
X126300000Y-108887500D01*
D25*
X124800000Y-107400000D02*
X124400000Y-107800000D01*
X124400000Y-107800000D02*
X122700000Y-107800000D01*
D26*
X120925001Y-115174999D02*
X120925001Y-114225001D01*
D27*
X122137500Y-109100000D02*
X121700000Y-109100000D01*
D26*
X119200000Y-113500000D02*
X119200000Y-112762500D01*
X129800000Y-106700000D02*
X129750010Y-106650010D01*
X129750010Y-106513600D02*
X129600000Y-106363590D01*
D24*
X126212499Y-108799999D02*
X124099999Y-108799999D01*
D25*
X122200000Y-109037500D02*
X122200000Y-109800000D01*
X130212500Y-105200000D02*
X126300000Y-105200000D01*
X122200000Y-108300000D02*
X122200000Y-109037500D01*
D27*
X119200000Y-112762500D02*
X120537500Y-112762500D01*
X119200000Y-112762500D02*
X119200000Y-110675000D01*
D26*
X127287500Y-111100000D02*
X126387500Y-112000000D01*
D24*
X116087500Y-117700000D02*
X116087500Y-116200000D01*
X121850000Y-113350000D02*
X120900000Y-112400000D01*
X126387500Y-111987500D02*
X125700000Y-111300000D01*
D25*
X126300000Y-105200000D02*
X124800000Y-106700000D01*
D26*
X130212500Y-105387500D02*
X130212500Y-105200000D01*
X129750010Y-106650010D02*
X129750010Y-106513600D01*
X120400000Y-115700000D02*
X120925001Y-115174999D01*
D24*
X126387500Y-112000000D02*
X126387500Y-111987500D01*
D27*
X120537500Y-112762500D02*
X120900000Y-112400000D01*
D25*
X124800000Y-106700000D02*
X124800000Y-107400000D01*
D26*
X120925001Y-114225001D02*
X120500000Y-113800000D01*
D25*
X122200000Y-109037500D02*
X123862498Y-109037500D01*
D27*
X121700000Y-109100000D02*
X121100000Y-109700000D01*
D25*
X123862498Y-109037500D02*
X124099999Y-108799999D01*
X122200000Y-109800000D02*
X123700000Y-111300000D01*
D26*
X117100000Y-115700000D02*
X119800000Y-115700000D01*
X129800000Y-107150000D02*
X129800000Y-106700000D01*
X116087500Y-116200000D02*
X116600000Y-116200000D01*
X119500000Y-113800000D02*
X119200000Y-113500000D01*
D27*
X121100000Y-112200000D02*
X121100000Y-109700000D01*
D26*
X129600000Y-106000000D02*
X130212500Y-105387500D01*
D24*
%TO.N,Net-(C2-Pad2)*%
X114512500Y-116200000D02*
X114512500Y-117700000D01*
X114512500Y-114827500D02*
X114690000Y-114650000D01*
X113087500Y-116200000D02*
X114512500Y-116200000D01*
X114512500Y-116200000D02*
X114512500Y-114827500D01*
D25*
%TO.N,Net-(FB102-Pad2)*%
X118300000Y-116762500D02*
X120162500Y-116762500D01*
X120162500Y-116762500D02*
X121200000Y-117800000D01*
D28*
%TO.N,Net-(F1-Pad2)*%
X155700000Y-126200000D02*
X155700000Y-128400000D01*
D27*
X155700000Y-128400000D02*
X155700000Y-128600000D01*
D28*
X155700000Y-126200000D02*
X155700000Y-125900000D01*
X155700000Y-123800000D02*
X156100000Y-123400000D01*
X155700000Y-126200000D02*
X155700000Y-123800000D01*
D24*
X155700000Y-129737500D02*
X155700000Y-128600000D01*
D27*
%TO.N,Net-(F1-Pad1)*%
X156100000Y-120600000D02*
X154062500Y-120600000D01*
X154062500Y-120600000D02*
X153100000Y-121562500D01*
%TO.N,Net-(L1-Pad1)*%
X117310000Y-112750000D02*
X117310000Y-110785000D01*
X117310000Y-110785000D02*
X117125000Y-110600000D01*
D25*
%TO.N,Net-(U2-Pad19)*%
X124035000Y-122300000D02*
X125305000Y-122300000D01*
X122765000Y-122300000D02*
X124035000Y-122300000D01*
X121495000Y-122300000D02*
X122765000Y-122300000D01*
%TO.N,Net-(U2-Pad10)*%
X135465000Y-122300000D02*
X136735000Y-122300000D01*
X132925000Y-122300000D02*
X134195000Y-122300000D01*
X134195000Y-122300000D02*
X135465000Y-122300000D01*
%TO.N,Net-(U2-Pad2)*%
X145625000Y-122300000D02*
X146895000Y-122300000D01*
X144355000Y-122300000D02*
X145625000Y-122300000D01*
X143085000Y-122300000D02*
X144355000Y-122300000D01*
%TD*%
%TA.AperFunction,Conductor*%
%TO.N,GND*%
G36*
X126323604Y-104508416D02*
G01*
X126362084Y-104500500D01*
X129599114Y-104500500D01*
X129657305Y-104519407D01*
X129693269Y-104568907D01*
X129693269Y-104630093D01*
X129669120Y-104669501D01*
X129639121Y-104699500D01*
X126355442Y-104699500D01*
X126340540Y-104696128D01*
X126340538Y-104696128D01*
X126340233Y-104696059D01*
X126329460Y-104689649D01*
X126305370Y-104698310D01*
X126286189Y-104699500D01*
X126265085Y-104699500D01*
X126257021Y-104700655D01*
X126248956Y-104701810D01*
X126223223Y-104703406D01*
X126197489Y-104705003D01*
X126178308Y-104711927D01*
X126163170Y-104714095D01*
X126158123Y-104714818D01*
X126111175Y-104736164D01*
X126062681Y-104753671D01*
X126046218Y-104765698D01*
X126027651Y-104774140D01*
X126027650Y-104774141D01*
X125988586Y-104807801D01*
X125972997Y-104819189D01*
X125958218Y-104833968D01*
X125919073Y-104867698D01*
X125909100Y-104883085D01*
X124485297Y-106306889D01*
X124472374Y-106315042D01*
X124455750Y-106333866D01*
X124436318Y-106355869D01*
X124421405Y-106370782D01*
X124411638Y-106383815D01*
X124377499Y-106422469D01*
X124368831Y-106440930D01*
X124356603Y-106457246D01*
X124355799Y-106459391D01*
X124338503Y-106505529D01*
X124316588Y-106552207D01*
X124313586Y-106571488D01*
X124074718Y-106500051D01*
X123931398Y-106499177D01*
X123931396Y-106499177D01*
X123839525Y-106525434D01*
X123793588Y-106538562D01*
X123657369Y-106624510D01*
X122338445Y-106624510D01*
X122338423Y-106624503D01*
X122211556Y-106624503D01*
X122181205Y-106634364D01*
X122149684Y-106639357D01*
X122121247Y-106653846D01*
X122115686Y-106655653D01*
X122090897Y-106663707D01*
X122090895Y-106663708D01*
X122090896Y-106663708D01*
X122065078Y-106682466D01*
X122036643Y-106696954D01*
X121946934Y-106786663D01*
X121946925Y-106786682D01*
X121434107Y-107299500D01*
X120245958Y-107299500D01*
X120187767Y-107280593D01*
X120151803Y-107231093D01*
X120151803Y-107169907D01*
X120172560Y-107134064D01*
X120183819Y-107121626D01*
X120219078Y-107082672D01*
X120281570Y-106953689D01*
X120295477Y-106871026D01*
X120305349Y-106812352D01*
X120305352Y-106812067D01*
X120305500Y-106800000D01*
X120285182Y-106658123D01*
X120225860Y-106527651D01*
X120225860Y-106527650D01*
X120132303Y-106419074D01*
X120012034Y-106341118D01*
X119897579Y-106306889D01*
X119874718Y-106300052D01*
X119874717Y-106300052D01*
X119862917Y-106296523D01*
X118928067Y-105361675D01*
X118928055Y-105361651D01*
X118838346Y-105271943D01*
X118809907Y-105257452D01*
X118784093Y-105238698D01*
X118753745Y-105228837D01*
X118725307Y-105214347D01*
X118693786Y-105209354D01*
X118663435Y-105199493D01*
X118536567Y-105199493D01*
X118536545Y-105199500D01*
X104763455Y-105199500D01*
X104763433Y-105199493D01*
X104636565Y-105199493D01*
X104606215Y-105209354D01*
X104574694Y-105214347D01*
X104546257Y-105228836D01*
X104536396Y-105232040D01*
X104515907Y-105238697D01*
X104515905Y-105238698D01*
X104515906Y-105238698D01*
X104490088Y-105257456D01*
X104461653Y-105271944D01*
X104371945Y-105361651D01*
X104371934Y-105361673D01*
X103259107Y-106474500D01*
X102576210Y-106474500D01*
X102478731Y-106291170D01*
X102348596Y-106131610D01*
X102189952Y-106000366D01*
X102008831Y-105902435D01*
X102008829Y-105902434D01*
X101812137Y-105841548D01*
X101607365Y-105820026D01*
X101436179Y-105835605D01*
X101402311Y-105838687D01*
X101312482Y-105865126D01*
X101204790Y-105896821D01*
X101145820Y-105927650D01*
X101022324Y-105992212D01*
X101022322Y-105992213D01*
X101022321Y-105992214D01*
X100861855Y-106121231D01*
X100861852Y-106121234D01*
X100729505Y-106278959D01*
X100695333Y-106341118D01*
X100630312Y-106459391D01*
X100568054Y-106655653D01*
X100545103Y-106860270D01*
X100562332Y-107065448D01*
X100619086Y-107263371D01*
X100619088Y-107263375D01*
X100708856Y-107438045D01*
X100713202Y-107446502D01*
X100841097Y-107607865D01*
X100896946Y-107655396D01*
X100997897Y-107741313D01*
X101177629Y-107841762D01*
X101177632Y-107841763D01*
X101373454Y-107905389D01*
X101577906Y-107929769D01*
X101577909Y-107929769D01*
X101783201Y-107913972D01*
X101981512Y-107858603D01*
X102165299Y-107765765D01*
X102327548Y-107639002D01*
X102331893Y-107633968D01*
X102462088Y-107483136D01*
X102512977Y-107393555D01*
X102580042Y-107275500D01*
X103361545Y-107275500D01*
X103361567Y-107275507D01*
X103488435Y-107275507D01*
X103518786Y-107265646D01*
X103550307Y-107260653D01*
X103578745Y-107246163D01*
X103609093Y-107236302D01*
X103634907Y-107217548D01*
X103663346Y-107203057D01*
X103753055Y-107113349D01*
X103753067Y-107113325D01*
X104865894Y-106000500D01*
X118434107Y-106000500D01*
X119304633Y-106871027D01*
X119313121Y-106935939D01*
X119336439Y-106988932D01*
X119344783Y-107007895D01*
X119350913Y-107068772D01*
X119320090Y-107121626D01*
X119264086Y-107146269D01*
X119184164Y-107117771D01*
X119074287Y-107007895D01*
X119028067Y-106961675D01*
X119028055Y-106961651D01*
X118938346Y-106871943D01*
X118909907Y-106857452D01*
X118884093Y-106838698D01*
X118853745Y-106828837D01*
X118825307Y-106814347D01*
X118793786Y-106809354D01*
X118763435Y-106799493D01*
X118636567Y-106799493D01*
X118636545Y-106799500D01*
X107063455Y-106799500D01*
X107063433Y-106799493D01*
X106936566Y-106799493D01*
X106906215Y-106809354D01*
X106887289Y-106812352D01*
X106874694Y-106814347D01*
X106846257Y-106828836D01*
X106836396Y-106832040D01*
X106815907Y-106838697D01*
X106815905Y-106838698D01*
X106815906Y-106838698D01*
X106790088Y-106857456D01*
X106761653Y-106871944D01*
X106671945Y-106961651D01*
X106671934Y-106961673D01*
X104619107Y-109014500D01*
X102576210Y-109014500D01*
X102478731Y-108831170D01*
X102350952Y-108674499D01*
X102348597Y-108671611D01*
X102345237Y-108668831D01*
X102189952Y-108540366D01*
X102008831Y-108442435D01*
X102008829Y-108442434D01*
X101812137Y-108381548D01*
X101607365Y-108360026D01*
X101433886Y-108375814D01*
X101402311Y-108378687D01*
X101312482Y-108405126D01*
X101204790Y-108436821D01*
X101157297Y-108461650D01*
X101022324Y-108532212D01*
X101022322Y-108532213D01*
X101022321Y-108532214D01*
X100861855Y-108661231D01*
X100861852Y-108661234D01*
X100729505Y-108818959D01*
X100695622Y-108880592D01*
X100630312Y-108999391D01*
X100568054Y-109195653D01*
X100545103Y-109400270D01*
X100562332Y-109605448D01*
X100619086Y-109803371D01*
X100619088Y-109803375D01*
X100686914Y-109935350D01*
X100713202Y-109986502D01*
X100841097Y-110147865D01*
X100868472Y-110171163D01*
X100997897Y-110281313D01*
X101177629Y-110381762D01*
X101177632Y-110381763D01*
X101373454Y-110445389D01*
X101577906Y-110469769D01*
X101577909Y-110469769D01*
X101783201Y-110453972D01*
X101981512Y-110398603D01*
X102165299Y-110305765D01*
X102327548Y-110179002D01*
X102332544Y-110173214D01*
X102462088Y-110023136D01*
X102521059Y-109919328D01*
X102580042Y-109815500D01*
X104721545Y-109815500D01*
X104721567Y-109815507D01*
X104848435Y-109815507D01*
X104878786Y-109805646D01*
X104910307Y-109800653D01*
X104938745Y-109786163D01*
X104969093Y-109776302D01*
X104994907Y-109757548D01*
X105023346Y-109743057D01*
X105113055Y-109653349D01*
X105113067Y-109653325D01*
X107165894Y-107600500D01*
X114754019Y-107600500D01*
X114812210Y-107619407D01*
X114848174Y-107668907D01*
X114848174Y-107730093D01*
X114828223Y-107765034D01*
X114809934Y-107785743D01*
X114777499Y-107822469D01*
X114716588Y-107952206D01*
X114704636Y-108028971D01*
X114434108Y-108299499D01*
X108963457Y-108299499D01*
X108963435Y-108299492D01*
X108836566Y-108299492D01*
X108806215Y-108309353D01*
X108774694Y-108314346D01*
X108746257Y-108328836D01*
X108715908Y-108338697D01*
X108690091Y-108357454D01*
X108661654Y-108371943D01*
X108571946Y-108461650D01*
X108571935Y-108461672D01*
X105479107Y-111554500D01*
X102576210Y-111554500D01*
X102478731Y-111371170D01*
X102369562Y-111237317D01*
X102348597Y-111211611D01*
X102346158Y-111209593D01*
X102189952Y-111080366D01*
X102008831Y-110982435D01*
X102008829Y-110982434D01*
X101812137Y-110921548D01*
X101607365Y-110900026D01*
X101433886Y-110915814D01*
X101402311Y-110918687D01*
X101312482Y-110945126D01*
X101204790Y-110976821D01*
X101136803Y-111012364D01*
X101022324Y-111072212D01*
X101022322Y-111072213D01*
X101022321Y-111072214D01*
X100861855Y-111201231D01*
X100861852Y-111201234D01*
X100729505Y-111358959D01*
X100722792Y-111371170D01*
X100630312Y-111539391D01*
X100568054Y-111735653D01*
X100545103Y-111940270D01*
X100562332Y-112145448D01*
X100619086Y-112343371D01*
X100619088Y-112343375D01*
X100712263Y-112524674D01*
X100713202Y-112526502D01*
X100841097Y-112687865D01*
X100872709Y-112714769D01*
X100997897Y-112821313D01*
X101177629Y-112921762D01*
X101177632Y-112921763D01*
X101373454Y-112985389D01*
X101577906Y-113009769D01*
X101577909Y-113009769D01*
X101783201Y-112993972D01*
X101981512Y-112938603D01*
X102165299Y-112845765D01*
X102327548Y-112719002D01*
X102343950Y-112700000D01*
X102462088Y-112563136D01*
X102521058Y-112459329D01*
X102580042Y-112355500D01*
X105581545Y-112355500D01*
X105581567Y-112355507D01*
X105708435Y-112355507D01*
X105738786Y-112345646D01*
X105770307Y-112340653D01*
X105798745Y-112326163D01*
X105829093Y-112316302D01*
X105854907Y-112297548D01*
X105883346Y-112283057D01*
X105973055Y-112193349D01*
X105973067Y-112193325D01*
X109065895Y-109100499D01*
X112994102Y-109100499D01*
X113052293Y-109119406D01*
X113088257Y-109168906D01*
X113088257Y-109230092D01*
X113064108Y-109269499D01*
X112934108Y-109399500D01*
X110975956Y-109399500D01*
X110975934Y-109399493D01*
X110849065Y-109399493D01*
X110818714Y-109409354D01*
X110787193Y-109414347D01*
X110758756Y-109428837D01*
X110728407Y-109438698D01*
X110702590Y-109457455D01*
X110674153Y-109471944D01*
X110584445Y-109561651D01*
X110584434Y-109561673D01*
X106051607Y-114094500D01*
X102576210Y-114094500D01*
X102478731Y-113911170D01*
X102358640Y-113763925D01*
X102348597Y-113751611D01*
X102348596Y-113751610D01*
X102189952Y-113620366D01*
X102008831Y-113522435D01*
X102008829Y-113522434D01*
X101812137Y-113461548D01*
X101607365Y-113440026D01*
X101442827Y-113455000D01*
X101402311Y-113458687D01*
X101312482Y-113485126D01*
X101204790Y-113516821D01*
X101147404Y-113546822D01*
X101022324Y-113612212D01*
X101022322Y-113612213D01*
X101022321Y-113612214D01*
X100861855Y-113741231D01*
X100861852Y-113741234D01*
X100729505Y-113898959D01*
X100703257Y-113946704D01*
X100630312Y-114079391D01*
X100568054Y-114275653D01*
X100559027Y-114356136D01*
X100548188Y-114452770D01*
X100545103Y-114480270D01*
X100562332Y-114685448D01*
X100619086Y-114883371D01*
X100619088Y-114883375D01*
X100710867Y-115061958D01*
X100713202Y-115066502D01*
X100841097Y-115227865D01*
X100861836Y-115245515D01*
X100997897Y-115361313D01*
X101177629Y-115461762D01*
X101177632Y-115461763D01*
X101373454Y-115525389D01*
X101577906Y-115549769D01*
X101577909Y-115549769D01*
X101783201Y-115533972D01*
X101981512Y-115478603D01*
X102165299Y-115385765D01*
X102327548Y-115259002D01*
X102339190Y-115245515D01*
X102462088Y-115103136D01*
X102514261Y-115011295D01*
X102580042Y-114895500D01*
X106154045Y-114895500D01*
X106154067Y-114895507D01*
X106280935Y-114895507D01*
X106311286Y-114885646D01*
X106342807Y-114880653D01*
X106371245Y-114866163D01*
X106401593Y-114856302D01*
X106427407Y-114837548D01*
X106455846Y-114823057D01*
X106545555Y-114733349D01*
X106545567Y-114733325D01*
X111078394Y-110200500D01*
X113036545Y-110200500D01*
X113036567Y-110200507D01*
X113163433Y-110200507D01*
X113170712Y-110198142D01*
X113231896Y-110198142D01*
X113281396Y-110234106D01*
X113300303Y-110292297D01*
X113271307Y-110362301D01*
X112634107Y-110999500D01*
X111763455Y-110999500D01*
X111763433Y-110999493D01*
X111636566Y-110999493D01*
X111606215Y-111009354D01*
X111574694Y-111014347D01*
X111546257Y-111028836D01*
X111536396Y-111032040D01*
X111515907Y-111038697D01*
X111515905Y-111038698D01*
X111515906Y-111038698D01*
X111490088Y-111057456D01*
X111461653Y-111071944D01*
X111371944Y-111161653D01*
X111371935Y-111161672D01*
X105899107Y-116634500D01*
X102576210Y-116634500D01*
X102478731Y-116451170D01*
X102367532Y-116314828D01*
X102348597Y-116291611D01*
X102348596Y-116291610D01*
X102189952Y-116160366D01*
X102008831Y-116062435D01*
X102008829Y-116062434D01*
X101812137Y-116001548D01*
X101607365Y-115980026D01*
X101433886Y-115995814D01*
X101402311Y-115998687D01*
X101312482Y-116025126D01*
X101204790Y-116056821D01*
X101129148Y-116096366D01*
X101022324Y-116152212D01*
X101022322Y-116152213D01*
X101022321Y-116152214D01*
X100861855Y-116281231D01*
X100861852Y-116281234D01*
X100729505Y-116438959D01*
X100691211Y-116508616D01*
X100630312Y-116619391D01*
X100568054Y-116815653D01*
X100545103Y-117020270D01*
X100562332Y-117225448D01*
X100619086Y-117423371D01*
X100619088Y-117423375D01*
X100707336Y-117595087D01*
X100713202Y-117606502D01*
X100841097Y-117767865D01*
X100861547Y-117785269D01*
X100997897Y-117901313D01*
X101177629Y-118001762D01*
X101177632Y-118001763D01*
X101373454Y-118065389D01*
X101577906Y-118089769D01*
X101577909Y-118089769D01*
X101783201Y-118073972D01*
X101981512Y-118018603D01*
X102165299Y-117925765D01*
X102327548Y-117799002D01*
X102374547Y-117744553D01*
X102462088Y-117643136D01*
X102521058Y-117539329D01*
X102580042Y-117435500D01*
X106001545Y-117435500D01*
X106001567Y-117435507D01*
X106128435Y-117435507D01*
X106158786Y-117425646D01*
X106190307Y-117420653D01*
X106218745Y-117406163D01*
X106249093Y-117396302D01*
X106274907Y-117377548D01*
X106303346Y-117363057D01*
X106393055Y-117273349D01*
X106393067Y-117273325D01*
X108736379Y-114930014D01*
X108790896Y-114902237D01*
X108851328Y-114911808D01*
X108894593Y-114955073D01*
X108905111Y-115007352D01*
X108902471Y-115042877D01*
X108900825Y-115053450D01*
X108899500Y-115061958D01*
X108899500Y-115082851D01*
X108895671Y-115134383D01*
X108899500Y-115152321D01*
X108899501Y-117744554D01*
X108896128Y-117759460D01*
X108899501Y-117813827D01*
X108899501Y-117834914D01*
X108901809Y-117851033D01*
X108905003Y-117902509D01*
X108911928Y-117921692D01*
X108913663Y-117933803D01*
X108914819Y-117941879D01*
X108936160Y-117988815D01*
X108936750Y-117990448D01*
X108953670Y-118037317D01*
X108965700Y-118053784D01*
X108974141Y-118072349D01*
X109007802Y-118111414D01*
X109019192Y-118127005D01*
X109033969Y-118141782D01*
X109067699Y-118180927D01*
X109083086Y-118190900D01*
X109704626Y-118812439D01*
X110306889Y-119414702D01*
X110315042Y-119427625D01*
X110315045Y-119427627D01*
X110315045Y-119427628D01*
X110355857Y-119463672D01*
X110370782Y-119478596D01*
X110383822Y-119488369D01*
X110402049Y-119504467D01*
X110422470Y-119522502D01*
X110440930Y-119531170D01*
X110457246Y-119543397D01*
X110505530Y-119561498D01*
X110552206Y-119583412D01*
X110572355Y-119586549D01*
X110591449Y-119593708D01*
X110608799Y-119594997D01*
X110642876Y-119597529D01*
X110661955Y-119600500D01*
X110682851Y-119600500D01*
X110708617Y-119602415D01*
X110734381Y-119604329D01*
X110734383Y-119604329D01*
X110752321Y-119600500D01*
X111601168Y-119600500D01*
X111656642Y-119601517D01*
X111662479Y-119601624D01*
X111662481Y-119601624D01*
X111666604Y-119600500D01*
X112901168Y-119600500D01*
X112956642Y-119601517D01*
X112962479Y-119601624D01*
X112962481Y-119601624D01*
X112966604Y-119600500D01*
X117782058Y-119600500D01*
X117796960Y-119603872D01*
X117796961Y-119603872D01*
X117851311Y-119600500D01*
X117872414Y-119600500D01*
X117888545Y-119598190D01*
X117940009Y-119594997D01*
X117959188Y-119588073D01*
X117979377Y-119585182D01*
X118026325Y-119563836D01*
X118074816Y-119546331D01*
X118091277Y-119534305D01*
X118109849Y-119525860D01*
X118148923Y-119492192D01*
X118164503Y-119480810D01*
X118179275Y-119466038D01*
X118218425Y-119432304D01*
X118221640Y-119427345D01*
X118228402Y-119416912D01*
X118315314Y-119330000D01*
X118782677Y-119330000D01*
X118922022Y-119303635D01*
X119039160Y-119236005D01*
X119131156Y-119136857D01*
X119189841Y-119014995D01*
X119205000Y-118914424D01*
X119205000Y-118367323D01*
X119178635Y-118227978D01*
X119111005Y-118110840D01*
X119011857Y-118018844D01*
X118889995Y-117960159D01*
X118789424Y-117945000D01*
X117817323Y-117945000D01*
X117677978Y-117971365D01*
X117560840Y-118038995D01*
X117468844Y-118138143D01*
X117410159Y-118260005D01*
X117399736Y-118329159D01*
X117395000Y-118360577D01*
X117395000Y-118599500D01*
X112884302Y-118599500D01*
X112838450Y-118599220D01*
X112831400Y-118599177D01*
X112831396Y-118599177D01*
X112830266Y-118599500D01*
X111584302Y-118599500D01*
X111538450Y-118599220D01*
X111531400Y-118599177D01*
X111531396Y-118599177D01*
X111530266Y-118599500D01*
X110907315Y-118599500D01*
X109900500Y-117592686D01*
X109900500Y-115307314D01*
X112114139Y-113093676D01*
X112163841Y-113117610D01*
X112210005Y-113139841D01*
X112260291Y-113147420D01*
X112310576Y-113155000D01*
X112790146Y-113155000D01*
X112809964Y-113172499D01*
X112828431Y-113181170D01*
X112844744Y-113193396D01*
X112844745Y-113193396D01*
X112844746Y-113193397D01*
X112878340Y-113205991D01*
X112893030Y-113211498D01*
X112939706Y-113233412D01*
X112959855Y-113236549D01*
X112978950Y-113243708D01*
X113030370Y-113247529D01*
X113039913Y-113249014D01*
X113049455Y-113250500D01*
X113070360Y-113250500D01*
X113104708Y-113253052D01*
X113121881Y-113254328D01*
X113121882Y-113254328D01*
X113139815Y-113250500D01*
X113980754Y-113250500D01*
X114001550Y-113264395D01*
X114080000Y-113280000D01*
X115300000Y-113280000D01*
X115378450Y-113264395D01*
X115444957Y-113219957D01*
X115489395Y-113153450D01*
X115505000Y-113075000D01*
X115505000Y-112425000D01*
X115489395Y-112346550D01*
X115444957Y-112280043D01*
X115378450Y-112235605D01*
X115300000Y-112220000D01*
X115100995Y-112220000D01*
X115181570Y-112053690D01*
X115205349Y-111912352D01*
X115205361Y-111911391D01*
X115205500Y-111900000D01*
X115185182Y-111758123D01*
X115141513Y-111662077D01*
X115125860Y-111627650D01*
X115032303Y-111519074D01*
X114912033Y-111441118D01*
X114774718Y-111400051D01*
X114631398Y-111399177D01*
X114631396Y-111399177D01*
X114502767Y-111435939D01*
X114493586Y-111438563D01*
X114372375Y-111515041D01*
X114342552Y-111548810D01*
X114277499Y-111622469D01*
X114235185Y-111712596D01*
X114216587Y-111752208D01*
X114194537Y-111893824D01*
X114213120Y-112035937D01*
X114213121Y-112035939D01*
X114269886Y-112164945D01*
X114294111Y-112220000D01*
X114080000Y-112220000D01*
X114001550Y-112235605D01*
X113980754Y-112249500D01*
X113715818Y-112249500D01*
X113704321Y-112188734D01*
X113678634Y-112052977D01*
X113611006Y-111935842D01*
X113611005Y-111935840D01*
X113511857Y-111843844D01*
X113389995Y-111785159D01*
X113289424Y-111770000D01*
X113235400Y-111770000D01*
X113177209Y-111751093D01*
X113141245Y-111701593D01*
X113141245Y-111640407D01*
X113165396Y-111600996D01*
X114265626Y-110500766D01*
X114363918Y-110473969D01*
X114400759Y-110463925D01*
X114522896Y-110388932D01*
X114547001Y-110362301D01*
X114619078Y-110282672D01*
X114681570Y-110153689D01*
X114701149Y-110037317D01*
X114705349Y-110012352D01*
X114705362Y-110011259D01*
X114705500Y-110000000D01*
X114685182Y-109858123D01*
X114659052Y-109800653D01*
X114613517Y-109700499D01*
X115098898Y-109700499D01*
X115163068Y-109776838D01*
X115282377Y-109856257D01*
X115395942Y-109891737D01*
X115419183Y-109898998D01*
X115562479Y-109901624D01*
X115562481Y-109901624D01*
X115654666Y-109876491D01*
X115700759Y-109863925D01*
X115822896Y-109788932D01*
X115825783Y-109785743D01*
X115919078Y-109682672D01*
X115981570Y-109553689D01*
X115996767Y-109463360D01*
X116005349Y-109412352D01*
X116005352Y-109412067D01*
X116005500Y-109400000D01*
X115985182Y-109258123D01*
X115944618Y-109168906D01*
X115925860Y-109127650D01*
X115832303Y-109019074D01*
X115712033Y-108941118D01*
X115574718Y-108900051D01*
X115431400Y-108899177D01*
X115431396Y-108899177D01*
X115430294Y-108899492D01*
X115336566Y-108899492D01*
X115336544Y-108899499D01*
X115205901Y-108899499D01*
X115147710Y-108880592D01*
X115111746Y-108831092D01*
X115111746Y-108769906D01*
X115135896Y-108730496D01*
X115265625Y-108600768D01*
X115400759Y-108563925D01*
X115522896Y-108488932D01*
X115522897Y-108488931D01*
X115619078Y-108382672D01*
X115681570Y-108253689D01*
X115696316Y-108166039D01*
X115705349Y-108112352D01*
X115705432Y-108105529D01*
X115705500Y-108100000D01*
X115685182Y-107958123D01*
X115658210Y-107898802D01*
X115625861Y-107827652D01*
X115571121Y-107764124D01*
X115547460Y-107707698D01*
X115561483Y-107648142D01*
X115607835Y-107608202D01*
X115646120Y-107600500D01*
X118534108Y-107600500D01*
X118871933Y-107938326D01*
X118871944Y-107938347D01*
X118961653Y-108028056D01*
X118961655Y-108028057D01*
X118961656Y-108028058D01*
X118990090Y-108042545D01*
X119015907Y-108061302D01*
X119046256Y-108071163D01*
X119074693Y-108085653D01*
X119106214Y-108090646D01*
X119136565Y-108100507D01*
X119263433Y-108100507D01*
X119263455Y-108100500D01*
X120914251Y-108100500D01*
X120972442Y-108119407D01*
X121008406Y-108168907D01*
X121008406Y-108230093D01*
X120986822Y-108266837D01*
X120969801Y-108285182D01*
X120894930Y-108365872D01*
X120835437Y-108489413D01*
X120820000Y-108591827D01*
X120820000Y-109130765D01*
X120769004Y-109181762D01*
X120714487Y-109209539D01*
X120654257Y-109200000D01*
X116500000Y-109200000D01*
X116500000Y-109369030D01*
X116463237Y-109390314D01*
X116463198Y-109390357D01*
X116463195Y-109390358D01*
X116369930Y-109490873D01*
X116369929Y-109490875D01*
X116310437Y-109614413D01*
X116295000Y-109716827D01*
X116295000Y-111476427D01*
X116302553Y-111516347D01*
X116321798Y-111618057D01*
X116390358Y-111736805D01*
X116460216Y-111801624D01*
X116500000Y-111838539D01*
X116500000Y-112000000D01*
X116709500Y-112000000D01*
X116709500Y-112218109D01*
X116621552Y-112235604D01*
X116621551Y-112235605D01*
X116621550Y-112235605D01*
X116555043Y-112280043D01*
X116510605Y-112346550D01*
X116495000Y-112425000D01*
X116495000Y-113075000D01*
X116510605Y-113153450D01*
X116555043Y-113219957D01*
X116621550Y-113264395D01*
X116700000Y-113280000D01*
X117020822Y-113280000D01*
X117069107Y-113300000D01*
X117153285Y-113334868D01*
X117310000Y-113355500D01*
X117466714Y-113334868D01*
X117550892Y-113300000D01*
X117599177Y-113280000D01*
X117920000Y-113280000D01*
X117998450Y-113264395D01*
X118064957Y-113219957D01*
X118082704Y-113193397D01*
X118109395Y-113153451D01*
X118111211Y-113144318D01*
X118116702Y-113116716D01*
X118146597Y-113063334D01*
X118202162Y-113037718D01*
X118262172Y-113049655D01*
X118311073Y-113117626D01*
X118315812Y-113142669D01*
X118321366Y-113172023D01*
X118366675Y-113250500D01*
X118388995Y-113289160D01*
X118488143Y-113381156D01*
X118610005Y-113439841D01*
X118710576Y-113455000D01*
X118850981Y-113455000D01*
X118881933Y-113570511D01*
X118889432Y-113613037D01*
X118889433Y-113613038D01*
X118896703Y-113625632D01*
X118900466Y-113639674D01*
X118925225Y-113675034D01*
X118942869Y-113705593D01*
X118946822Y-113712440D01*
X118979719Y-113740044D01*
X119259956Y-114020282D01*
X119287559Y-114053178D01*
X119287561Y-114053179D01*
X119324965Y-114074775D01*
X119360325Y-114099534D01*
X119374367Y-114103297D01*
X119381638Y-114107494D01*
X119386962Y-114110568D01*
X119421988Y-114116744D01*
X119429487Y-114118067D01*
X119450341Y-114123655D01*
X119471194Y-114129242D01*
X119471195Y-114129242D01*
X119479748Y-114128494D01*
X119513965Y-114125500D01*
X120365175Y-114125500D01*
X120599502Y-114359828D01*
X120599501Y-115040172D01*
X120265175Y-115374500D01*
X117947346Y-115374500D01*
X117889155Y-115355593D01*
X117853191Y-115306093D01*
X117853191Y-115244907D01*
X117889155Y-115195407D01*
X117928031Y-115178403D01*
X117998450Y-115164395D01*
X118064957Y-115119957D01*
X118109395Y-115053450D01*
X118125000Y-114975000D01*
X118125000Y-114325000D01*
X118109395Y-114246550D01*
X118064957Y-114180043D01*
X117998450Y-114135605D01*
X117920000Y-114120000D01*
X116700000Y-114120000D01*
X116621550Y-114135605D01*
X116555043Y-114180043D01*
X116453128Y-114332571D01*
X116312034Y-114241118D01*
X116174718Y-114200051D01*
X116031398Y-114199177D01*
X116031396Y-114199177D01*
X115893589Y-114238562D01*
X115893586Y-114238563D01*
X115772375Y-114315041D01*
X115678204Y-114421670D01*
X115625512Y-114452770D01*
X115564604Y-114446960D01*
X115518743Y-114406457D01*
X115505000Y-114356136D01*
X115505000Y-114325001D01*
X115489395Y-114246550D01*
X115444957Y-114180043D01*
X115378450Y-114135605D01*
X115300000Y-114120000D01*
X114080000Y-114120000D01*
X114001550Y-114135605D01*
X113935043Y-114180043D01*
X113890605Y-114246550D01*
X113875000Y-114325000D01*
X113875000Y-114975000D01*
X113890605Y-115053450D01*
X113935043Y-115119957D01*
X114001550Y-115164395D01*
X114080000Y-115180000D01*
X114080005Y-115180000D01*
X114112001Y-115186364D01*
X114112000Y-115561083D01*
X114041737Y-115596884D01*
X113946884Y-115691737D01*
X113891976Y-115799500D01*
X113708024Y-115799500D01*
X113653116Y-115691737D01*
X113558263Y-115596884D01*
X113438741Y-115535985D01*
X113337818Y-115520000D01*
X112837182Y-115520000D01*
X112736259Y-115535985D01*
X112616737Y-115596884D01*
X112521884Y-115691737D01*
X112460985Y-115811259D01*
X112445000Y-115912182D01*
X112445000Y-116487818D01*
X112460985Y-116588741D01*
X112521884Y-116708263D01*
X112616737Y-116803116D01*
X112736259Y-116864015D01*
X112837182Y-116880000D01*
X113337818Y-116880000D01*
X113438741Y-116864015D01*
X113558263Y-116803116D01*
X113653116Y-116708263D01*
X113708024Y-116600500D01*
X113891976Y-116600500D01*
X113946884Y-116708263D01*
X114041737Y-116803116D01*
X114111999Y-116838916D01*
X114112000Y-116880000D01*
X114112001Y-117061083D01*
X114041737Y-117096884D01*
X113946884Y-117191737D01*
X113885985Y-117311259D01*
X113870000Y-117412182D01*
X113870000Y-117987818D01*
X113885985Y-118088741D01*
X113946884Y-118208263D01*
X114041737Y-118303116D01*
X114161259Y-118364015D01*
X114262182Y-118380000D01*
X114762818Y-118380000D01*
X114863741Y-118364015D01*
X114983263Y-118303116D01*
X115078116Y-118208263D01*
X115139015Y-118088741D01*
X115155000Y-117987818D01*
X115155000Y-117412182D01*
X115139015Y-117311259D01*
X115078116Y-117191737D01*
X114983263Y-117096884D01*
X114943288Y-117076516D01*
X114913000Y-117061083D01*
X114913000Y-116838917D01*
X114959546Y-116815200D01*
X114983263Y-116803116D01*
X115078116Y-116708263D01*
X115139015Y-116588741D01*
X115155000Y-116487818D01*
X115155000Y-115912182D01*
X115139015Y-115811259D01*
X115078116Y-115691737D01*
X114983263Y-115596884D01*
X114959546Y-115584800D01*
X114913000Y-115561083D01*
X114913000Y-115180000D01*
X115300000Y-115180000D01*
X115378450Y-115164395D01*
X115444957Y-115119957D01*
X115489395Y-115053450D01*
X115497781Y-115011294D01*
X115527677Y-114957911D01*
X115583242Y-114932295D01*
X115643252Y-114944232D01*
X115670661Y-114966907D01*
X115670845Y-114967126D01*
X115763068Y-115076838D01*
X115882377Y-115156257D01*
X116007689Y-115195407D01*
X116019183Y-115198998D01*
X116162479Y-115201624D01*
X116162481Y-115201624D01*
X116254666Y-115176491D01*
X116300759Y-115163925D01*
X116501900Y-115040424D01*
X116555042Y-115119956D01*
X116555043Y-115119957D01*
X116621550Y-115164395D01*
X116700000Y-115180000D01*
X117031132Y-115180000D01*
X117089323Y-115198907D01*
X117125287Y-115248407D01*
X117125287Y-115309593D01*
X117089323Y-115359093D01*
X117056755Y-115374627D01*
X117029487Y-115381933D01*
X117021988Y-115383256D01*
X116986962Y-115389432D01*
X116981638Y-115392506D01*
X116974367Y-115396703D01*
X116967346Y-115398585D01*
X116960325Y-115400466D01*
X116942425Y-115413000D01*
X116924957Y-115425231D01*
X116887560Y-115446821D01*
X116887559Y-115446822D01*
X116860893Y-115478602D01*
X116859968Y-115479704D01*
X116650527Y-115689145D01*
X116558263Y-115596884D01*
X116507784Y-115571164D01*
X116438741Y-115535985D01*
X116337818Y-115520000D01*
X115837182Y-115520000D01*
X115736259Y-115535985D01*
X115616737Y-115596884D01*
X115521884Y-115691737D01*
X115460985Y-115811259D01*
X115445000Y-115912182D01*
X115445000Y-116487818D01*
X115460985Y-116588741D01*
X115521884Y-116708263D01*
X115616737Y-116803116D01*
X115687001Y-116838917D01*
X115687001Y-116880000D01*
X115686999Y-117061084D01*
X115616737Y-117096884D01*
X115521884Y-117191737D01*
X115460985Y-117311259D01*
X115445000Y-117412182D01*
X115445000Y-117987818D01*
X115460985Y-118088741D01*
X115521884Y-118208263D01*
X115616737Y-118303116D01*
X115736259Y-118364015D01*
X115837182Y-118380000D01*
X116337818Y-118380000D01*
X116438741Y-118364015D01*
X116558263Y-118303116D01*
X116653116Y-118208263D01*
X116714015Y-118088741D01*
X116730000Y-117987818D01*
X116730000Y-117412182D01*
X116714015Y-117311259D01*
X116653116Y-117191737D01*
X116558263Y-117096884D01*
X116518288Y-117076516D01*
X116488000Y-117061083D01*
X116488000Y-116838917D01*
X116534546Y-116815200D01*
X116558263Y-116803116D01*
X116653116Y-116708263D01*
X116714015Y-116588741D01*
X116726705Y-116508616D01*
X116775037Y-116474773D01*
X116812443Y-116453177D01*
X116840052Y-116420273D01*
X117234827Y-116025500D01*
X117462434Y-116025500D01*
X117520625Y-116044407D01*
X117556589Y-116093907D01*
X117556589Y-116155093D01*
X117535006Y-116191837D01*
X117468844Y-116263143D01*
X117410159Y-116385005D01*
X117395000Y-116485576D01*
X117395000Y-117032677D01*
X117421365Y-117172022D01*
X117488995Y-117289160D01*
X117588143Y-117381156D01*
X117710005Y-117439841D01*
X117810576Y-117455000D01*
X118782677Y-117455000D01*
X118922022Y-117428635D01*
X119039160Y-117361005D01*
X119130095Y-117263000D01*
X119955186Y-117263000D01*
X120145000Y-117452814D01*
X120145000Y-118650000D01*
X120160605Y-118728450D01*
X120205043Y-118794957D01*
X120271550Y-118839395D01*
X120350000Y-118855000D01*
X122050000Y-118855000D01*
X122128450Y-118839395D01*
X122194957Y-118794957D01*
X122239395Y-118728450D01*
X122255000Y-118650000D01*
X122255000Y-116950000D01*
X122239395Y-116871550D01*
X122194957Y-116805043D01*
X122128450Y-116760605D01*
X122050000Y-116745000D01*
X120852814Y-116745000D01*
X120555611Y-116447797D01*
X120547458Y-116434874D01*
X120528634Y-116418250D01*
X120506631Y-116398818D01*
X120491718Y-116383905D01*
X120478683Y-116374136D01*
X120440032Y-116339999D01*
X120421572Y-116331332D01*
X120405256Y-116319104D01*
X120356979Y-116301005D01*
X120310296Y-116279088D01*
X120290141Y-116275950D01*
X120271048Y-116268792D01*
X120219621Y-116264970D01*
X120200548Y-116262000D01*
X120179649Y-116262000D01*
X120153883Y-116260085D01*
X120128119Y-116258171D01*
X120128117Y-116258171D01*
X120110179Y-116262000D01*
X119139197Y-116262000D01*
X119069222Y-116197072D01*
X119039425Y-116143632D01*
X119046731Y-116082884D01*
X119088347Y-116038033D01*
X119136559Y-116025500D01*
X120386035Y-116025500D01*
X120428805Y-116029242D01*
X120470508Y-116018067D01*
X120513036Y-116010569D01*
X120522749Y-116004961D01*
X120525633Y-116003296D01*
X120535913Y-116000542D01*
X120539675Y-115999534D01*
X120555154Y-115988695D01*
X120575034Y-115974775D01*
X120612441Y-115953178D01*
X120623535Y-115939957D01*
X120640052Y-115920273D01*
X121145286Y-115415041D01*
X121178177Y-115387442D01*
X121178177Y-115387441D01*
X121178179Y-115387440D01*
X121199768Y-115350047D01*
X121224536Y-115314674D01*
X121228300Y-115300629D01*
X121235569Y-115288038D01*
X121243067Y-115245517D01*
X121284833Y-115089636D01*
X121405043Y-115169957D01*
X121471550Y-115214395D01*
X121550000Y-115230000D01*
X122150000Y-115230000D01*
X122228450Y-115214395D01*
X122294957Y-115169957D01*
X122339395Y-115103450D01*
X122355000Y-115025000D01*
X122355000Y-114575000D01*
X122339395Y-114496550D01*
X122294957Y-114430043D01*
X122294486Y-114429728D01*
X122250500Y-114400337D01*
X122250500Y-113413455D01*
X122250507Y-113413433D01*
X122250507Y-113279215D01*
X122269414Y-113221024D01*
X122318914Y-113185060D01*
X122380100Y-113185060D01*
X122416133Y-113205990D01*
X122422187Y-113211498D01*
X122491609Y-113274667D01*
X122585000Y-113325373D01*
X122640472Y-113355492D01*
X122669091Y-113363000D01*
X122804318Y-113398477D01*
X122931350Y-113400473D01*
X122973693Y-113401138D01*
X122973694Y-113401138D01*
X122992153Y-113396910D01*
X123109668Y-113369995D01*
X123259963Y-113520290D01*
X123287560Y-113553179D01*
X123324965Y-113574775D01*
X123360325Y-113599534D01*
X123374367Y-113603297D01*
X123381638Y-113607494D01*
X123386962Y-113610568D01*
X123421988Y-113616744D01*
X123429487Y-113618067D01*
X123450341Y-113623655D01*
X123471194Y-113629242D01*
X123471195Y-113629242D01*
X123479748Y-113628494D01*
X123513965Y-113625500D01*
X123819914Y-113625500D01*
X123863068Y-113676838D01*
X123982377Y-113756257D01*
X124107744Y-113795424D01*
X124119183Y-113798998D01*
X124262479Y-113801624D01*
X124262481Y-113801624D01*
X124354666Y-113776491D01*
X124400759Y-113763925D01*
X124522896Y-113688932D01*
X124535476Y-113675034D01*
X124619078Y-113582672D01*
X124681570Y-113453689D01*
X124696828Y-113363000D01*
X124705349Y-113312352D01*
X124705352Y-113312067D01*
X124705500Y-113300000D01*
X124685182Y-113158123D01*
X124632265Y-113041737D01*
X124625860Y-113027650D01*
X124532303Y-112919074D01*
X124412033Y-112841118D01*
X124274718Y-112800051D01*
X124131398Y-112799177D01*
X124131396Y-112799177D01*
X124053943Y-112821313D01*
X123993588Y-112838562D01*
X123942561Y-112870758D01*
X123872375Y-112915042D01*
X123819864Y-112974500D01*
X123634826Y-112974500D01*
X123576221Y-112915895D01*
X123586201Y-112845765D01*
X123604845Y-112714764D01*
X123605000Y-112700000D01*
X123605000Y-112699995D01*
X123584650Y-112531834D01*
X123553239Y-112448708D01*
X123524774Y-112373376D01*
X123520291Y-112366853D01*
X123428830Y-112233776D01*
X123302354Y-112121090D01*
X123152647Y-112041825D01*
X122988363Y-112000559D01*
X122985743Y-112000545D01*
X122818969Y-111999672D01*
X122654257Y-112039216D01*
X122503731Y-112116908D01*
X122376083Y-112228263D01*
X122278681Y-112366852D01*
X122217149Y-112524674D01*
X122204558Y-112620314D01*
X122195039Y-112692618D01*
X122213626Y-112860987D01*
X122224735Y-112891343D01*
X122226977Y-112952487D01*
X122192852Y-113003272D01*
X122135393Y-113024299D01*
X122061761Y-112995369D01*
X121608199Y-112541806D01*
X121624375Y-112502753D01*
X121624378Y-112502750D01*
X121684868Y-112356715D01*
X121700500Y-112237979D01*
X121700500Y-112237973D01*
X121705499Y-112200000D01*
X121700500Y-112162027D01*
X121700500Y-110253442D01*
X121719407Y-110195251D01*
X121768907Y-110159287D01*
X121830093Y-110159287D01*
X121854365Y-110175429D01*
X121855800Y-110173214D01*
X121883086Y-110190900D01*
X123331665Y-111639480D01*
X123363068Y-111676838D01*
X123411083Y-111708800D01*
X123457246Y-111743397D01*
X123470551Y-111748385D01*
X123482377Y-111756257D01*
X123498525Y-111761302D01*
X123537436Y-111773459D01*
X123572082Y-111786447D01*
X123591451Y-111793708D01*
X123605621Y-111794761D01*
X123615482Y-111797842D01*
X123619182Y-111798998D01*
X123651049Y-111799581D01*
X123676866Y-111800054D01*
X123734381Y-111804328D01*
X123748270Y-111801363D01*
X123762481Y-111801624D01*
X123818140Y-111786450D01*
X123860632Y-111777379D01*
X123874548Y-111774408D01*
X123887050Y-111767662D01*
X123900758Y-111763925D01*
X123949924Y-111733737D01*
X124000682Y-111706349D01*
X124010786Y-111696367D01*
X124022897Y-111688932D01*
X124061614Y-111646158D01*
X124102645Y-111605625D01*
X124109544Y-111593205D01*
X124119078Y-111582672D01*
X124144236Y-111530747D01*
X124172240Y-111480332D01*
X124175375Y-111466473D01*
X124181570Y-111453689D01*
X124191140Y-111396808D01*
X124203872Y-111340540D01*
X124202992Y-111326360D01*
X124205349Y-111312353D01*
X124205354Y-111311931D01*
X124205500Y-111300000D01*
X124198190Y-111248955D01*
X124194997Y-111197490D01*
X124191440Y-111187636D01*
X124188073Y-111178308D01*
X124185905Y-111163170D01*
X124185182Y-111158123D01*
X124163836Y-111111175D01*
X124146329Y-111062681D01*
X124134302Y-111046218D01*
X124125860Y-111027651D01*
X124092199Y-110988586D01*
X124080811Y-110972997D01*
X124066032Y-110958218D01*
X124044491Y-110933219D01*
X124032303Y-110919074D01*
X124032302Y-110919073D01*
X124016915Y-110909100D01*
X123167321Y-110059508D01*
X123139544Y-110004991D01*
X123149115Y-109944559D01*
X123218919Y-109892230D01*
X123293057Y-109878202D01*
X123327360Y-109858397D01*
X123411805Y-109809642D01*
X123505070Y-109709127D01*
X123531932Y-109653347D01*
X123587480Y-109538000D01*
X123807056Y-109538000D01*
X123821958Y-109541372D01*
X123821959Y-109541372D01*
X123876309Y-109538000D01*
X123897412Y-109538000D01*
X123913543Y-109535690D01*
X123965007Y-109532497D01*
X123984186Y-109525573D01*
X124004375Y-109522682D01*
X124051323Y-109501336D01*
X124099814Y-109483831D01*
X124116275Y-109471805D01*
X124134847Y-109463360D01*
X124173921Y-109429692D01*
X124189501Y-109418310D01*
X124204273Y-109403538D01*
X124243423Y-109369804D01*
X124253400Y-109354412D01*
X124407313Y-109200499D01*
X125616501Y-109200499D01*
X125635985Y-109238739D01*
X125635985Y-109238741D01*
X125696884Y-109358263D01*
X125791737Y-109453116D01*
X125911259Y-109514015D01*
X126012182Y-109530000D01*
X126078882Y-109530000D01*
X126137073Y-109548907D01*
X126173037Y-109598407D01*
X126173037Y-109659593D01*
X126137073Y-109709093D01*
X126094370Y-109726781D01*
X126036259Y-109735985D01*
X125916737Y-109796884D01*
X125821884Y-109891737D01*
X125760985Y-110011259D01*
X125745000Y-110112182D01*
X125745000Y-110687818D01*
X125760985Y-110788741D01*
X125760987Y-110788745D01*
X125762767Y-110799979D01*
X125631770Y-110799179D01*
X125631397Y-110799177D01*
X125631396Y-110799177D01*
X125493589Y-110838562D01*
X125493586Y-110838563D01*
X125372375Y-110915041D01*
X125312856Y-110982435D01*
X125277499Y-111022469D01*
X125219899Y-111145154D01*
X125216587Y-111152208D01*
X125194537Y-111293824D01*
X125213120Y-111435938D01*
X125270845Y-111567126D01*
X125363068Y-111676838D01*
X125482376Y-111756257D01*
X125537431Y-111773457D01*
X125619180Y-111798997D01*
X125619181Y-111798997D01*
X125638703Y-111805096D01*
X125745000Y-111911392D01*
X125745000Y-112287818D01*
X125760985Y-112388741D01*
X125821884Y-112508263D01*
X125916737Y-112603116D01*
X126036259Y-112664015D01*
X126137182Y-112680000D01*
X126637819Y-112680000D01*
X126824510Y-112650431D01*
X126824510Y-112941971D01*
X126716737Y-112996884D01*
X126621884Y-113091737D01*
X126560985Y-113211259D01*
X126545000Y-113312182D01*
X126545000Y-113887818D01*
X126560985Y-113988741D01*
X126621884Y-114108263D01*
X126621885Y-114108264D01*
X126712001Y-114198381D01*
X126712000Y-114561083D01*
X126641737Y-114596884D01*
X126546884Y-114691737D01*
X126491976Y-114799500D01*
X126365893Y-114799500D01*
X126128067Y-114561675D01*
X126128055Y-114561651D01*
X126038346Y-114471943D01*
X126009907Y-114457452D01*
X125984093Y-114438698D01*
X125953745Y-114428837D01*
X125925307Y-114414347D01*
X125893786Y-114409354D01*
X125863435Y-114399493D01*
X125736567Y-114399493D01*
X125736545Y-114399500D01*
X124349246Y-114399500D01*
X124328450Y-114385605D01*
X124250000Y-114370000D01*
X123650000Y-114370000D01*
X123571550Y-114385605D01*
X123505043Y-114430043D01*
X123460605Y-114496550D01*
X123445000Y-114575000D01*
X123445000Y-115025000D01*
X123460605Y-115103450D01*
X123505043Y-115169957D01*
X123571550Y-115214395D01*
X123650000Y-115230000D01*
X124250000Y-115230000D01*
X124328450Y-115214395D01*
X124349246Y-115200500D01*
X125634107Y-115200500D01*
X125871933Y-115438325D01*
X125871945Y-115438349D01*
X125961653Y-115528056D01*
X125990087Y-115542544D01*
X126015905Y-115561302D01*
X126031082Y-115566233D01*
X126046257Y-115571164D01*
X126074694Y-115585653D01*
X126106215Y-115590646D01*
X126136565Y-115600507D01*
X126263433Y-115600507D01*
X126263455Y-115600500D01*
X126491976Y-115600500D01*
X126546884Y-115708263D01*
X126641737Y-115803116D01*
X126711998Y-115838916D01*
X126712000Y-115838917D01*
X126712001Y-116331332D01*
X126712001Y-116801606D01*
X126686802Y-116826805D01*
X126553000Y-116785388D01*
X126492137Y-116766548D01*
X126287365Y-116745026D01*
X126116179Y-116760605D01*
X126082311Y-116763687D01*
X125992482Y-116790126D01*
X125884790Y-116821821D01*
X125852089Y-116838917D01*
X125702324Y-116917212D01*
X125702322Y-116917213D01*
X125702321Y-116917214D01*
X125541855Y-117046231D01*
X125541852Y-117046234D01*
X125409505Y-117203959D01*
X125377047Y-117263000D01*
X125310312Y-117384391D01*
X125248054Y-117580653D01*
X125225103Y-117785270D01*
X125229272Y-117834914D01*
X125242332Y-117990449D01*
X125304913Y-118208693D01*
X123614107Y-119899500D01*
X115663455Y-119899500D01*
X115663433Y-119899493D01*
X115536566Y-119899493D01*
X115506215Y-119909354D01*
X115474694Y-119914347D01*
X115446257Y-119928836D01*
X115436396Y-119932040D01*
X115415907Y-119938697D01*
X115415905Y-119938698D01*
X115415906Y-119938698D01*
X115390088Y-119957456D01*
X115361653Y-119971944D01*
X115271944Y-120061653D01*
X115271933Y-120061674D01*
X114906674Y-120426934D01*
X114906652Y-120426945D01*
X114816945Y-120516653D01*
X114802457Y-120545086D01*
X114783698Y-120570907D01*
X114783698Y-120570908D01*
X114773835Y-120601261D01*
X114759348Y-120629693D01*
X114754356Y-120661208D01*
X114744493Y-120691565D01*
X114744493Y-120845101D01*
X114666550Y-120860605D01*
X114600043Y-120905043D01*
X114510000Y-121039804D01*
X114419957Y-120905043D01*
X114353450Y-120860605D01*
X114338720Y-120857675D01*
X114275000Y-120845000D01*
X113475000Y-120845000D01*
X113411280Y-120857675D01*
X113396550Y-120860605D01*
X113330043Y-120905043D01*
X113240000Y-121039804D01*
X113149957Y-120905043D01*
X113083450Y-120860605D01*
X113068720Y-120857675D01*
X113005000Y-120845000D01*
X112205000Y-120845000D01*
X112141280Y-120857675D01*
X112126550Y-120860605D01*
X112060043Y-120905043D01*
X111970000Y-121039804D01*
X111879957Y-120905043D01*
X111813450Y-120860605D01*
X111798720Y-120857675D01*
X111735000Y-120845000D01*
X110935000Y-120845000D01*
X110871280Y-120857675D01*
X110856550Y-120860605D01*
X110790043Y-120905043D01*
X110700000Y-121039804D01*
X110609957Y-120905043D01*
X110543450Y-120860605D01*
X110528720Y-120857675D01*
X110465000Y-120845000D01*
X109665000Y-120845000D01*
X109601280Y-120857675D01*
X109586550Y-120860605D01*
X109520043Y-120905043D01*
X109430000Y-121039804D01*
X109339957Y-120905043D01*
X109273450Y-120860605D01*
X109258720Y-120857675D01*
X109195000Y-120845000D01*
X108395000Y-120845000D01*
X108331280Y-120857675D01*
X108316550Y-120860605D01*
X108250043Y-120905043D01*
X108160000Y-121039804D01*
X108069957Y-120905043D01*
X108003450Y-120860605D01*
X107988720Y-120857675D01*
X107925000Y-120845000D01*
X107125000Y-120845000D01*
X107061280Y-120857675D01*
X107046550Y-120860605D01*
X106980043Y-120905043D01*
X106890000Y-121039804D01*
X106799957Y-120905043D01*
X106733450Y-120860605D01*
X106718720Y-120857675D01*
X106655000Y-120845000D01*
X105856851Y-120845000D01*
X105772698Y-120714054D01*
X105662351Y-120618438D01*
X105529526Y-120557779D01*
X105385003Y-120537000D01*
X105239000Y-120537000D01*
X105238999Y-122046001D01*
X105239000Y-122046001D01*
X105238999Y-124063000D01*
X105384998Y-124063000D01*
X105598110Y-124016640D01*
X105701977Y-123949890D01*
X105761152Y-123934335D01*
X105818169Y-123956534D01*
X105854500Y-124033174D01*
X105854500Y-124591545D01*
X105854493Y-124591567D01*
X105854493Y-124718433D01*
X105864354Y-124748784D01*
X105867005Y-124765520D01*
X105869347Y-124780305D01*
X105883836Y-124808742D01*
X105893697Y-124839092D01*
X105893698Y-124839093D01*
X105912456Y-124864911D01*
X105926944Y-124893346D01*
X106016653Y-124983056D01*
X106016675Y-124983067D01*
X107371934Y-126338327D01*
X107371945Y-126338349D01*
X107461653Y-126428056D01*
X107490090Y-126442545D01*
X107515907Y-126461302D01*
X107546256Y-126471163D01*
X107574693Y-126485653D01*
X107606214Y-126490646D01*
X107636565Y-126500507D01*
X107763434Y-126500507D01*
X107763456Y-126500500D01*
X128498615Y-126500500D01*
X128582377Y-126556257D01*
X128707744Y-126595424D01*
X128719183Y-126598998D01*
X128862479Y-126601624D01*
X128862481Y-126601624D01*
X128954666Y-126576491D01*
X129000759Y-126563925D01*
X129122896Y-126488932D01*
X129138980Y-126471163D01*
X129219078Y-126382672D01*
X129281570Y-126253689D01*
X129305349Y-126112350D01*
X129305500Y-126100000D01*
X129285182Y-125958123D01*
X129225860Y-125827651D01*
X129225860Y-125827650D01*
X129132303Y-125719074D01*
X129000000Y-125633318D01*
X129000000Y-125300500D01*
X131098615Y-125300500D01*
X131182377Y-125356257D01*
X131307744Y-125395424D01*
X131319183Y-125398998D01*
X131462479Y-125401624D01*
X131462481Y-125401624D01*
X131554666Y-125376491D01*
X131600759Y-125363925D01*
X131722896Y-125288932D01*
X131738979Y-125271164D01*
X131819078Y-125182672D01*
X131881570Y-125053689D01*
X131905349Y-124912350D01*
X131905500Y-124900000D01*
X131885182Y-124758123D01*
X131825860Y-124627651D01*
X131825860Y-124627650D01*
X131732303Y-124519074D01*
X131600000Y-124433318D01*
X131600000Y-123755000D01*
X132055000Y-123755000D01*
X132133450Y-123739395D01*
X132199957Y-123694957D01*
X132244395Y-123628450D01*
X132290000Y-123560196D01*
X132335605Y-123628450D01*
X132380043Y-123694957D01*
X132446550Y-123739395D01*
X132525000Y-123755000D01*
X133325000Y-123755000D01*
X133403450Y-123739395D01*
X133469957Y-123694957D01*
X133514395Y-123628450D01*
X133560000Y-123560196D01*
X133605605Y-123628450D01*
X133650043Y-123694957D01*
X133716550Y-123739395D01*
X133795000Y-123755000D01*
X134595000Y-123755000D01*
X134673450Y-123739395D01*
X134739957Y-123694957D01*
X134784395Y-123628450D01*
X134830000Y-123560196D01*
X134875605Y-123628450D01*
X134920043Y-123694957D01*
X134986550Y-123739395D01*
X135065000Y-123755000D01*
X135865000Y-123755000D01*
X135943450Y-123739395D01*
X136009957Y-123694957D01*
X136054395Y-123628450D01*
X136100000Y-123560196D01*
X136145605Y-123628450D01*
X136190043Y-123694957D01*
X136256550Y-123739395D01*
X136335000Y-123755000D01*
X137135000Y-123755000D01*
X137213450Y-123739395D01*
X137279957Y-123694957D01*
X137324395Y-123628450D01*
X137370000Y-123560196D01*
X137415605Y-123628450D01*
X137460043Y-123694957D01*
X137526550Y-123739395D01*
X137605000Y-123755000D01*
X138405000Y-123755000D01*
X138483450Y-123739395D01*
X138549957Y-123694957D01*
X138594395Y-123628450D01*
X138640000Y-123560196D01*
X138685605Y-123628450D01*
X138730043Y-123694957D01*
X138796550Y-123739395D01*
X138875000Y-123755000D01*
X139675000Y-123755000D01*
X139753450Y-123739395D01*
X139819957Y-123694957D01*
X139864395Y-123628450D01*
X139910000Y-123560196D01*
X139955605Y-123628450D01*
X140000043Y-123694957D01*
X140066550Y-123739395D01*
X140145000Y-123755000D01*
X140945000Y-123755000D01*
X141023450Y-123739395D01*
X141089957Y-123694957D01*
X141134395Y-123628450D01*
X141180000Y-123560196D01*
X141225605Y-123628450D01*
X141270043Y-123694957D01*
X141336550Y-123739395D01*
X141415000Y-123755000D01*
X142215000Y-123755000D01*
X142293450Y-123739395D01*
X142359957Y-123694957D01*
X142404395Y-123628450D01*
X142450000Y-123560196D01*
X142495605Y-123628450D01*
X142540043Y-123694957D01*
X142606550Y-123739395D01*
X142685000Y-123755000D01*
X143485000Y-123755000D01*
X143563450Y-123739395D01*
X143629957Y-123694957D01*
X143674395Y-123628450D01*
X143720000Y-123560196D01*
X143765605Y-123628450D01*
X143810043Y-123694957D01*
X143876550Y-123739395D01*
X143955000Y-123755000D01*
X144755000Y-123755000D01*
X144833450Y-123739395D01*
X144899957Y-123694957D01*
X144944395Y-123628450D01*
X144990000Y-123560196D01*
X145035605Y-123628450D01*
X145080043Y-123694957D01*
X145146550Y-123739395D01*
X145225000Y-123755000D01*
X146025000Y-123755000D01*
X146103450Y-123739395D01*
X146169957Y-123694957D01*
X146214395Y-123628450D01*
X146260000Y-123560196D01*
X146305605Y-123628450D01*
X146350043Y-123694957D01*
X146416550Y-123739395D01*
X146495000Y-123755000D01*
X147295000Y-123755000D01*
X147373450Y-123739395D01*
X147439957Y-123694957D01*
X147484395Y-123628450D01*
X147530000Y-123560196D01*
X147575605Y-123628450D01*
X147620043Y-123694957D01*
X147686550Y-123739395D01*
X147765000Y-123755000D01*
X148565000Y-123755000D01*
X148643450Y-123739395D01*
X148709957Y-123694957D01*
X148754395Y-123628450D01*
X148770000Y-123550000D01*
X148770000Y-121285576D01*
X152195000Y-121285576D01*
X152195000Y-121832677D01*
X152221365Y-121972022D01*
X152288995Y-122089160D01*
X152388143Y-122181156D01*
X152510005Y-122239841D01*
X152610576Y-122255000D01*
X153582676Y-122255000D01*
X153722023Y-122228634D01*
X153722024Y-122228633D01*
X153800000Y-122213879D01*
X153800000Y-122776741D01*
X153689997Y-122760160D01*
X153689995Y-122760159D01*
X153589423Y-122745000D01*
X152617323Y-122745000D01*
X152477978Y-122771365D01*
X152360840Y-122838995D01*
X152268844Y-122938143D01*
X152210159Y-123060005D01*
X152195000Y-123160576D01*
X152195000Y-123707677D01*
X152221365Y-123847022D01*
X152288995Y-123964160D01*
X152388144Y-124056156D01*
X152499501Y-124109783D01*
X152499501Y-124139603D01*
X152475623Y-124197250D01*
X152475622Y-124197251D01*
X152415132Y-124343286D01*
X152399500Y-124462022D01*
X152399500Y-124462029D01*
X152394501Y-124500000D01*
X152399500Y-124537971D01*
X152399501Y-125537979D01*
X152415133Y-125656715D01*
X152475623Y-125802750D01*
X152571848Y-125928153D01*
X152697251Y-126024378D01*
X152843286Y-126084868D01*
X153000000Y-126105500D01*
X153156715Y-126084868D01*
X153302750Y-126024378D01*
X153310143Y-126018705D01*
X153334521Y-126000000D01*
X153800000Y-126000000D01*
X153800000Y-129100000D01*
X154800000Y-129100000D01*
X154800000Y-130700000D01*
X156000000Y-130700000D01*
X156000000Y-130587663D01*
X156105798Y-130608708D01*
X156150000Y-130617500D01*
X156550000Y-130617500D01*
X156628450Y-130601895D01*
X156628451Y-130601894D01*
X156628452Y-130601894D01*
X156675000Y-130570794D01*
X156721548Y-130601894D01*
X156721549Y-130601894D01*
X156721550Y-130601895D01*
X156800000Y-130617500D01*
X157200000Y-130617500D01*
X157278450Y-130601895D01*
X157278451Y-130601894D01*
X157278452Y-130601894D01*
X157325000Y-130570794D01*
X157371548Y-130601894D01*
X157371549Y-130601894D01*
X157371550Y-130601895D01*
X157450000Y-130617500D01*
X157850000Y-130617500D01*
X157928450Y-130601895D01*
X157994957Y-130557457D01*
X158039395Y-130490950D01*
X158055000Y-130412500D01*
X158055000Y-129062500D01*
X158039395Y-128984050D01*
X157994957Y-128917543D01*
X157928450Y-128873105D01*
X157850000Y-128857500D01*
X157700000Y-128857500D01*
X157700000Y-124600000D01*
X158300000Y-124600000D01*
X158300000Y-119700000D01*
X153800000Y-119700000D01*
X153800000Y-120044737D01*
X153664738Y-120148526D01*
X153664733Y-120148531D01*
X153634347Y-120171847D01*
X153611035Y-120202228D01*
X152943264Y-120870000D01*
X152617323Y-120870000D01*
X152477978Y-120896365D01*
X152360840Y-120963995D01*
X152268844Y-121063143D01*
X152210159Y-121185005D01*
X152195000Y-121285576D01*
X148770000Y-121285576D01*
X148770000Y-121050000D01*
X148754395Y-120971550D01*
X148709957Y-120905043D01*
X148643450Y-120860605D01*
X148565000Y-120845000D01*
X147765000Y-120845000D01*
X147701280Y-120857675D01*
X147686550Y-120860605D01*
X147620043Y-120905043D01*
X147530000Y-121039804D01*
X147439957Y-120905043D01*
X147373450Y-120860605D01*
X147358720Y-120857675D01*
X147295000Y-120845000D01*
X146495000Y-120845000D01*
X146431280Y-120857675D01*
X146416550Y-120860605D01*
X146350043Y-120905043D01*
X146260000Y-121039804D01*
X146169957Y-120905043D01*
X146103450Y-120860605D01*
X146088720Y-120857675D01*
X146025000Y-120845000D01*
X145225000Y-120845000D01*
X145161280Y-120857675D01*
X145146550Y-120860605D01*
X145080043Y-120905043D01*
X144990000Y-121039804D01*
X144899957Y-120905043D01*
X144833450Y-120860605D01*
X144818720Y-120857675D01*
X144755000Y-120845000D01*
X143955000Y-120845000D01*
X143891280Y-120857675D01*
X143876550Y-120860605D01*
X143810043Y-120905043D01*
X143720000Y-121039804D01*
X143629957Y-120905043D01*
X143563450Y-120860605D01*
X143548720Y-120857675D01*
X143485000Y-120845000D01*
X142685000Y-120845000D01*
X142621280Y-120857675D01*
X142606550Y-120860605D01*
X142540043Y-120905043D01*
X142450000Y-121039804D01*
X142359957Y-120905043D01*
X142293450Y-120860605D01*
X142278720Y-120857675D01*
X142215000Y-120845000D01*
X141415000Y-120845000D01*
X141351280Y-120857675D01*
X141336550Y-120860605D01*
X141270043Y-120905043D01*
X141180000Y-121039804D01*
X141089957Y-120905043D01*
X141023450Y-120860605D01*
X141008720Y-120857675D01*
X140945000Y-120845000D01*
X140145000Y-120845000D01*
X140081280Y-120857675D01*
X140066550Y-120860605D01*
X140000043Y-120905043D01*
X139910000Y-121039804D01*
X139819957Y-120905043D01*
X139753450Y-120860605D01*
X139738720Y-120857675D01*
X139675000Y-120845000D01*
X138875000Y-120845000D01*
X138811280Y-120857675D01*
X138796550Y-120860605D01*
X138730043Y-120905043D01*
X138640000Y-121039804D01*
X138549957Y-120905043D01*
X138483450Y-120860605D01*
X138468720Y-120857675D01*
X138405000Y-120845000D01*
X137605000Y-120845000D01*
X137541280Y-120857675D01*
X137526550Y-120860605D01*
X137460043Y-120905043D01*
X137370000Y-121039804D01*
X137279957Y-120905043D01*
X137213450Y-120860605D01*
X137198720Y-120857675D01*
X137135000Y-120845000D01*
X136335000Y-120845000D01*
X136271280Y-120857675D01*
X136256550Y-120860605D01*
X136190043Y-120905043D01*
X136100000Y-121039804D01*
X136009957Y-120905043D01*
X135943450Y-120860605D01*
X135928720Y-120857675D01*
X135865000Y-120845000D01*
X135065000Y-120845000D01*
X135001280Y-120857675D01*
X134986550Y-120860605D01*
X134920043Y-120905043D01*
X134830000Y-121039804D01*
X134739957Y-120905043D01*
X134673450Y-120860605D01*
X134658720Y-120857675D01*
X134595000Y-120845000D01*
X133795000Y-120845000D01*
X133731280Y-120857675D01*
X133716550Y-120860605D01*
X133650043Y-120905043D01*
X133560000Y-121039804D01*
X133469957Y-120905043D01*
X133403450Y-120860605D01*
X133388720Y-120857675D01*
X133325000Y-120845000D01*
X132525000Y-120845000D01*
X132461280Y-120857675D01*
X132446550Y-120860605D01*
X132380043Y-120905043D01*
X132290000Y-121039804D01*
X132199957Y-120905043D01*
X132133450Y-120860605D01*
X132118720Y-120857675D01*
X132055000Y-120845000D01*
X131255000Y-120845000D01*
X131191280Y-120857675D01*
X131176550Y-120860605D01*
X131110043Y-120905043D01*
X131020000Y-121039804D01*
X130929957Y-120905043D01*
X130863450Y-120860605D01*
X130848720Y-120857675D01*
X130785000Y-120845000D01*
X129985000Y-120845000D01*
X129921280Y-120857675D01*
X129906550Y-120860605D01*
X129840043Y-120905043D01*
X129750000Y-121039804D01*
X129659957Y-120905043D01*
X129593450Y-120860605D01*
X129578720Y-120857675D01*
X129515000Y-120845000D01*
X128715000Y-120845000D01*
X128651280Y-120857675D01*
X128636550Y-120860605D01*
X128570043Y-120905043D01*
X128480000Y-121039804D01*
X128389957Y-120905043D01*
X128323450Y-120860605D01*
X128308720Y-120857675D01*
X128245000Y-120845000D01*
X127445000Y-120845000D01*
X127381280Y-120857675D01*
X127366550Y-120860605D01*
X127300043Y-120905043D01*
X127210000Y-121039804D01*
X127119957Y-120905043D01*
X127053450Y-120860605D01*
X127038720Y-120857675D01*
X126975000Y-120845000D01*
X126175000Y-120845000D01*
X126111280Y-120857675D01*
X126096550Y-120860605D01*
X126030043Y-120905043D01*
X125940000Y-121039804D01*
X125849957Y-120905043D01*
X125783450Y-120860605D01*
X125768720Y-120857675D01*
X125705000Y-120845000D01*
X124905000Y-120845000D01*
X124841280Y-120857675D01*
X124826550Y-120860605D01*
X124760043Y-120905043D01*
X124670000Y-121039804D01*
X124579957Y-120905043D01*
X124513450Y-120860605D01*
X124498720Y-120857675D01*
X124435000Y-120845000D01*
X124015945Y-120845000D01*
X123957754Y-120826093D01*
X123921790Y-120776593D01*
X123921790Y-120715407D01*
X123957755Y-120665907D01*
X123989907Y-120642548D01*
X124018346Y-120628057D01*
X124108055Y-120538349D01*
X124108067Y-120538325D01*
X125874235Y-118772158D01*
X126053454Y-118830389D01*
X126257906Y-118854769D01*
X126257909Y-118854769D01*
X126463199Y-118838972D01*
X126661515Y-118783602D01*
X126755701Y-118736026D01*
X127239953Y-119220279D01*
X127267559Y-119253178D01*
X127304965Y-119274775D01*
X127340325Y-119299534D01*
X127354367Y-119303297D01*
X127361638Y-119307494D01*
X127366962Y-119310568D01*
X127401988Y-119316744D01*
X127409487Y-119318067D01*
X127430341Y-119323654D01*
X127451194Y-119329242D01*
X127451195Y-119329242D01*
X127459748Y-119328494D01*
X127493965Y-119325500D01*
X134786035Y-119325500D01*
X134828805Y-119329242D01*
X134870508Y-119318067D01*
X134913036Y-119310569D01*
X134913038Y-119310568D01*
X134925633Y-119303296D01*
X134935913Y-119300542D01*
X134939675Y-119299534D01*
X134959300Y-119285792D01*
X134975034Y-119274775D01*
X135012441Y-119253178D01*
X135020067Y-119244090D01*
X135040052Y-119220273D01*
X135420283Y-118840043D01*
X135421055Y-118839395D01*
X135453178Y-118812441D01*
X135474770Y-118775042D01*
X135499534Y-118739676D01*
X135503297Y-118725631D01*
X135510568Y-118713038D01*
X135510569Y-118713034D01*
X135518067Y-118670511D01*
X135529242Y-118628806D01*
X135528995Y-118625981D01*
X135542758Y-118566363D01*
X135588935Y-118526221D01*
X135649887Y-118520888D01*
X135691782Y-118541959D01*
X135837897Y-118666313D01*
X136017629Y-118766762D01*
X136017632Y-118766763D01*
X136213454Y-118830389D01*
X136417906Y-118854769D01*
X136417909Y-118854769D01*
X136623201Y-118838972D01*
X136821512Y-118783603D01*
X137005299Y-118690765D01*
X137167548Y-118564002D01*
X137194425Y-118532865D01*
X137302088Y-118408136D01*
X137367890Y-118292303D01*
X137403789Y-118229110D01*
X137419818Y-118180926D01*
X137468783Y-118033734D01*
X137470695Y-118018603D01*
X137494589Y-117829456D01*
X137495001Y-117799998D01*
X137474909Y-117595087D01*
X137474185Y-117592687D01*
X137415396Y-117397971D01*
X137354799Y-117284005D01*
X137318731Y-117216170D01*
X137188596Y-117056610D01*
X137029952Y-116925366D01*
X136848831Y-116827435D01*
X136848829Y-116827434D01*
X136713000Y-116785388D01*
X136713000Y-115777131D01*
X136778054Y-115743984D01*
X136858263Y-115703116D01*
X136953116Y-115608263D01*
X137014015Y-115488741D01*
X137030000Y-115387818D01*
X137030000Y-114929333D01*
X137048907Y-114871142D01*
X137098407Y-114835178D01*
X137159593Y-114835178D01*
X137199004Y-114859329D01*
X138654501Y-116314828D01*
X138654501Y-116801304D01*
X138584790Y-116821821D01*
X138584786Y-116821823D01*
X138402324Y-116917212D01*
X138402322Y-116917213D01*
X138402321Y-116917214D01*
X138241855Y-117046231D01*
X138241852Y-117046234D01*
X138109505Y-117203959D01*
X138077047Y-117263000D01*
X138010312Y-117384391D01*
X137948054Y-117580653D01*
X137925103Y-117785270D01*
X137942332Y-117990448D01*
X137999086Y-118188371D01*
X137999088Y-118188375D01*
X138091055Y-118367324D01*
X138093202Y-118371502D01*
X138221097Y-118532865D01*
X138257682Y-118564001D01*
X138377897Y-118666313D01*
X138557629Y-118766762D01*
X138557632Y-118766763D01*
X138753454Y-118830389D01*
X138957906Y-118854769D01*
X138957909Y-118854769D01*
X139163201Y-118838972D01*
X139361512Y-118783603D01*
X139545299Y-118690765D01*
X139707548Y-118564002D01*
X139734425Y-118532865D01*
X139842088Y-118408136D01*
X139907890Y-118292303D01*
X139943789Y-118229110D01*
X139959818Y-118180926D01*
X140008783Y-118033734D01*
X140010695Y-118018603D01*
X140034589Y-117829456D01*
X140035001Y-117799998D01*
X140014909Y-117595087D01*
X140014185Y-117592687D01*
X139955396Y-117397971D01*
X139894799Y-117284005D01*
X139858731Y-117216170D01*
X139728596Y-117056610D01*
X139569952Y-116925366D01*
X139388829Y-116827434D01*
X139305500Y-116801638D01*
X139305500Y-116193961D01*
X139309242Y-116151195D01*
X139307273Y-116143844D01*
X139298067Y-116109488D01*
X139290568Y-116066962D01*
X139284714Y-116056822D01*
X139283297Y-116054367D01*
X139279534Y-116040325D01*
X139254775Y-116004965D01*
X139233178Y-115967559D01*
X139200285Y-115939958D01*
X137290047Y-114029721D01*
X137262442Y-113996823D01*
X137262441Y-113996822D01*
X137225034Y-113975225D01*
X137193459Y-113953116D01*
X137189675Y-113950466D01*
X137185913Y-113949458D01*
X137175633Y-113946704D01*
X137163038Y-113939432D01*
X137163036Y-113939431D01*
X137120508Y-113931933D01*
X137078805Y-113920758D01*
X137036035Y-113924500D01*
X136584827Y-113924500D01*
X135827547Y-113167221D01*
X135799942Y-113134323D01*
X135799941Y-113134322D01*
X135762534Y-113112725D01*
X135735329Y-113093676D01*
X135727175Y-113087966D01*
X135723413Y-113086958D01*
X135713133Y-113084204D01*
X135700538Y-113076932D01*
X135700536Y-113076931D01*
X135658008Y-113069433D01*
X135630270Y-113062000D01*
X135568727Y-113045508D01*
X135564015Y-113036260D01*
X135564015Y-113036259D01*
X135503116Y-112916737D01*
X135408263Y-112821884D01*
X135288741Y-112760985D01*
X135187818Y-112745000D01*
X134612182Y-112745000D01*
X134511259Y-112760985D01*
X134391737Y-112821884D01*
X134296884Y-112916737D01*
X134235985Y-113036259D01*
X134235118Y-113041737D01*
X134227766Y-113088152D01*
X134199989Y-113142669D01*
X134145472Y-113170446D01*
X134085040Y-113160875D01*
X134041775Y-113117610D01*
X134029580Y-113093676D01*
X134003116Y-113041737D01*
X133908263Y-112946884D01*
X133788741Y-112885985D01*
X133687818Y-112870000D01*
X133217827Y-112870000D01*
X132619250Y-112271424D01*
X132619250Y-112207711D01*
X132620597Y-112192324D01*
X132622992Y-112164944D01*
X132611817Y-112123238D01*
X132604318Y-112080712D01*
X132597214Y-112068407D01*
X132597047Y-112068117D01*
X132593284Y-112054075D01*
X132568525Y-112018715D01*
X132546929Y-111981310D01*
X132542172Y-111977318D01*
X132514034Y-111953708D01*
X132390042Y-111829716D01*
X132380065Y-111817825D01*
X132362441Y-111796822D01*
X132325034Y-111775225D01*
X132300611Y-111758124D01*
X132289675Y-111750466D01*
X132285913Y-111749458D01*
X132275633Y-111746704D01*
X132263038Y-111739432D01*
X132263036Y-111739431D01*
X132220505Y-111731932D01*
X132178805Y-111720758D01*
X132178803Y-111720758D01*
X132134268Y-111708825D01*
X132130000Y-111687367D01*
X132130000Y-111687364D01*
X132114257Y-111608219D01*
X132055187Y-111519813D01*
X131966781Y-111460743D01*
X131887636Y-111445000D01*
X131712364Y-111445000D01*
X131633219Y-111460743D01*
X131550000Y-111516347D01*
X131466781Y-111460743D01*
X131387636Y-111445000D01*
X131212364Y-111445000D01*
X131133219Y-111460743D01*
X131050000Y-111516347D01*
X130966781Y-111460743D01*
X130887636Y-111445000D01*
X130712364Y-111445000D01*
X130633219Y-111460743D01*
X130550000Y-111516347D01*
X130466781Y-111460743D01*
X130387636Y-111445000D01*
X130212364Y-111445000D01*
X130133219Y-111460743D01*
X130050000Y-111516347D01*
X129966781Y-111460743D01*
X129887636Y-111445000D01*
X129712364Y-111445000D01*
X129633219Y-111460743D01*
X129550000Y-111516347D01*
X129466781Y-111460743D01*
X129387636Y-111445000D01*
X129212364Y-111445000D01*
X129133219Y-111460743D01*
X129050000Y-111516347D01*
X128966781Y-111460743D01*
X128887636Y-111445000D01*
X128712364Y-111445000D01*
X128668682Y-111453689D01*
X128633219Y-111460743D01*
X128544813Y-111519813D01*
X128441260Y-111674793D01*
X128281569Y-111649500D01*
X127613455Y-111649500D01*
X127613433Y-111649493D01*
X127486565Y-111649493D01*
X127456215Y-111659354D01*
X127439025Y-111662077D01*
X127378593Y-111652506D01*
X127335328Y-111609242D01*
X127325756Y-111548810D01*
X127353532Y-111494294D01*
X127422326Y-111425500D01*
X127464741Y-111425500D01*
X127471627Y-111426870D01*
X127487362Y-111430000D01*
X128212636Y-111430000D01*
X128291781Y-111414257D01*
X128380187Y-111355187D01*
X128439257Y-111266781D01*
X128455000Y-111187636D01*
X128455000Y-111012364D01*
X128439257Y-110933219D01*
X128383653Y-110850000D01*
X128439257Y-110766781D01*
X128455000Y-110687636D01*
X128455000Y-110512364D01*
X128439257Y-110433219D01*
X128383653Y-110350000D01*
X128439257Y-110266781D01*
X128455000Y-110187636D01*
X128455000Y-110012364D01*
X128439257Y-109933219D01*
X128383653Y-109850000D01*
X128439257Y-109766781D01*
X128455000Y-109687636D01*
X128455000Y-109512364D01*
X128439257Y-109433219D01*
X128383653Y-109350000D01*
X128439257Y-109266781D01*
X128455000Y-109187636D01*
X128455000Y-109012364D01*
X128439257Y-108933219D01*
X128383653Y-108850000D01*
X128439257Y-108766781D01*
X128455000Y-108687636D01*
X128455000Y-108512364D01*
X128439257Y-108433219D01*
X128383653Y-108350000D01*
X128439257Y-108266781D01*
X128455000Y-108187636D01*
X128455000Y-108012364D01*
X132145000Y-108012364D01*
X132145000Y-108187636D01*
X132160743Y-108266781D01*
X132216347Y-108350000D01*
X132160743Y-108433219D01*
X132145000Y-108512364D01*
X132145000Y-108687636D01*
X132160743Y-108766781D01*
X132216347Y-108850000D01*
X132160743Y-108933219D01*
X132145000Y-109012364D01*
X132145000Y-109187636D01*
X132160743Y-109266781D01*
X132219813Y-109355187D01*
X132308219Y-109414257D01*
X132387364Y-109430000D01*
X133112637Y-109430000D01*
X133135261Y-109425500D01*
X135312635Y-109425500D01*
X135365224Y-109471944D01*
X135422469Y-109522501D01*
X135552206Y-109583412D01*
X135552207Y-109583412D01*
X135557474Y-109585885D01*
X135602113Y-109627731D01*
X135613630Y-109687822D01*
X135587627Y-109743207D01*
X135515400Y-109774500D01*
X133135261Y-109774500D01*
X133112637Y-109770000D01*
X132387364Y-109770000D01*
X132308219Y-109785743D01*
X132219813Y-109844813D01*
X132160743Y-109933219D01*
X132145000Y-110012364D01*
X132145000Y-110187636D01*
X132160743Y-110266781D01*
X132216347Y-110350000D01*
X132160743Y-110433219D01*
X132145000Y-110512364D01*
X132145000Y-110687636D01*
X132160743Y-110766781D01*
X132219813Y-110855187D01*
X132308219Y-110914257D01*
X132387364Y-110930000D01*
X133112637Y-110930000D01*
X133135261Y-110925500D01*
X135165175Y-110925500D01*
X135195929Y-110956254D01*
X135205003Y-111102509D01*
X135253669Y-111237316D01*
X135253670Y-111237317D01*
X135319192Y-111327005D01*
X136830749Y-112838562D01*
X141341888Y-117349702D01*
X141350042Y-117362626D01*
X141390866Y-117398680D01*
X141405783Y-117413596D01*
X141418809Y-117423359D01*
X141445207Y-117446671D01*
X141457469Y-117457501D01*
X141457471Y-117457502D01*
X141475931Y-117466170D01*
X141492244Y-117478396D01*
X141492245Y-117478396D01*
X141492246Y-117478397D01*
X141540530Y-117496498D01*
X141587206Y-117518412D01*
X141607355Y-117521549D01*
X141626449Y-117528708D01*
X141647021Y-117530236D01*
X141677876Y-117532529D01*
X141696955Y-117535500D01*
X141717851Y-117535500D01*
X141743617Y-117537414D01*
X141769381Y-117539329D01*
X141769383Y-117539329D01*
X141787321Y-117535500D01*
X143856711Y-117535500D01*
X143874706Y-117570512D01*
X143893202Y-117606502D01*
X144021097Y-117767865D01*
X144041547Y-117785269D01*
X144177897Y-117901313D01*
X144357629Y-118001762D01*
X144357632Y-118001763D01*
X144553454Y-118065389D01*
X144757906Y-118089769D01*
X144757909Y-118089769D01*
X144963201Y-118073972D01*
X145161512Y-118018603D01*
X145345299Y-117925765D01*
X145507548Y-117799002D01*
X145554547Y-117744553D01*
X145642088Y-117643136D01*
X145701058Y-117539329D01*
X145743789Y-117464110D01*
X145770309Y-117384390D01*
X145808783Y-117268734D01*
X145809508Y-117263000D01*
X145834589Y-117064456D01*
X145835001Y-117034998D01*
X145814909Y-116830087D01*
X145814109Y-116827435D01*
X145755396Y-116632971D01*
X145686162Y-116502760D01*
X145658731Y-116451170D01*
X145547532Y-116314828D01*
X145528597Y-116291611D01*
X145528596Y-116291610D01*
X145369952Y-116160366D01*
X145188831Y-116062435D01*
X145188829Y-116062434D01*
X144992137Y-116001548D01*
X144787365Y-115980026D01*
X144613886Y-115995814D01*
X144582311Y-115998687D01*
X144492482Y-116025126D01*
X144384790Y-116056821D01*
X144309148Y-116096366D01*
X144202324Y-116152212D01*
X144202322Y-116152213D01*
X144202321Y-116152214D01*
X144041855Y-116281231D01*
X144041852Y-116281234D01*
X143909505Y-116438959D01*
X143856981Y-116534500D01*
X141942314Y-116534500D01*
X137625922Y-112218109D01*
X136177315Y-110769502D01*
X136149539Y-110714987D01*
X136159110Y-110654555D01*
X136202375Y-110611290D01*
X136247320Y-110600500D01*
X137692686Y-110600500D01*
X141901890Y-114809705D01*
X141910042Y-114822625D01*
X141950857Y-114858672D01*
X141965782Y-114873596D01*
X141978822Y-114883369D01*
X141981400Y-114885646D01*
X142017470Y-114917502D01*
X142035930Y-114926170D01*
X142052246Y-114938397D01*
X142067811Y-114944232D01*
X142100530Y-114956498D01*
X142147206Y-114978412D01*
X142167355Y-114981549D01*
X142186449Y-114988708D01*
X142207021Y-114990236D01*
X142237876Y-114992529D01*
X142256955Y-114995500D01*
X142277851Y-114995500D01*
X142303617Y-114997414D01*
X142329381Y-114999329D01*
X142329383Y-114999329D01*
X142347321Y-114995500D01*
X143856711Y-114995500D01*
X143868186Y-115017826D01*
X143893202Y-115066502D01*
X144021097Y-115227865D01*
X144041836Y-115245515D01*
X144177897Y-115361313D01*
X144357629Y-115461762D01*
X144357632Y-115461763D01*
X144553454Y-115525389D01*
X144757906Y-115549769D01*
X144757909Y-115549769D01*
X144963201Y-115533972D01*
X145161512Y-115478603D01*
X145345299Y-115385765D01*
X145507548Y-115259002D01*
X145519190Y-115245515D01*
X145642088Y-115103136D01*
X145694261Y-115011295D01*
X145743789Y-114924110D01*
X145772585Y-114837546D01*
X145808783Y-114728734D01*
X145813194Y-114693824D01*
X145831064Y-114552357D01*
X145834589Y-114524457D01*
X145834651Y-114520000D01*
X145835001Y-114494998D01*
X145814909Y-114290087D01*
X145810998Y-114277131D01*
X145755396Y-114092971D01*
X145692791Y-113975228D01*
X145658731Y-113911170D01*
X145538640Y-113763925D01*
X145528597Y-113751611D01*
X145528596Y-113751610D01*
X145369952Y-113620366D01*
X145188831Y-113522435D01*
X145188829Y-113522434D01*
X144992137Y-113461548D01*
X144787365Y-113440026D01*
X144622827Y-113455000D01*
X144582311Y-113458687D01*
X144492482Y-113485126D01*
X144384790Y-113516821D01*
X144327404Y-113546822D01*
X144202324Y-113612212D01*
X144202322Y-113612213D01*
X144202321Y-113612214D01*
X144041855Y-113741231D01*
X144041852Y-113741234D01*
X143909505Y-113898959D01*
X143856981Y-113994500D01*
X142502315Y-113994500D01*
X138293112Y-109785298D01*
X138277393Y-109760385D01*
X138278273Y-109759830D01*
X138255363Y-109721013D01*
X138261173Y-109660104D01*
X138301675Y-109614243D01*
X138351997Y-109600500D01*
X139192686Y-109600500D01*
X141861890Y-112269705D01*
X141870042Y-112282625D01*
X141910857Y-112318672D01*
X141925782Y-112333596D01*
X141938822Y-112343369D01*
X141952557Y-112355500D01*
X141977470Y-112377502D01*
X141995930Y-112386170D01*
X142012246Y-112398397D01*
X142050228Y-112412636D01*
X142060530Y-112416498D01*
X142107206Y-112438412D01*
X142127355Y-112441549D01*
X142146449Y-112448708D01*
X142167021Y-112450236D01*
X142197876Y-112452529D01*
X142216955Y-112455500D01*
X142237851Y-112455500D01*
X142263617Y-112457414D01*
X142289381Y-112459329D01*
X142289383Y-112459329D01*
X142307321Y-112455500D01*
X143856711Y-112455500D01*
X143872169Y-112485577D01*
X143893202Y-112526502D01*
X144021097Y-112687865D01*
X144052709Y-112714769D01*
X144177897Y-112821313D01*
X144357629Y-112921762D01*
X144357632Y-112921763D01*
X144553454Y-112985389D01*
X144757906Y-113009769D01*
X144757909Y-113009769D01*
X144963201Y-112993972D01*
X145161512Y-112938603D01*
X145345299Y-112845765D01*
X145507548Y-112719002D01*
X145523950Y-112700000D01*
X145642088Y-112563136D01*
X145701058Y-112459329D01*
X145743789Y-112384110D01*
X145772585Y-112297546D01*
X145808783Y-112188734D01*
X145811613Y-112166337D01*
X145834589Y-111984456D01*
X145835001Y-111954998D01*
X145814909Y-111750087D01*
X145810552Y-111735654D01*
X145755396Y-111552971D01*
X145687619Y-111425500D01*
X145658731Y-111371170D01*
X145549562Y-111237317D01*
X145528597Y-111211611D01*
X145526158Y-111209593D01*
X145369952Y-111080366D01*
X145188831Y-110982435D01*
X145188829Y-110982434D01*
X144992137Y-110921548D01*
X144787365Y-110900026D01*
X144613886Y-110915814D01*
X144582311Y-110918687D01*
X144492482Y-110945126D01*
X144384790Y-110976821D01*
X144316803Y-111012364D01*
X144202324Y-111072212D01*
X144202322Y-111072213D01*
X144202321Y-111072214D01*
X144041855Y-111201231D01*
X144041852Y-111201234D01*
X143909505Y-111358959D01*
X143856981Y-111454500D01*
X142462315Y-111454500D01*
X139793112Y-108785298D01*
X139784959Y-108772376D01*
X139744134Y-108736320D01*
X139729219Y-108721405D01*
X139716183Y-108711636D01*
X139673233Y-108673703D01*
X139642133Y-108621011D01*
X139647945Y-108560103D01*
X139688448Y-108514242D01*
X139738768Y-108500500D01*
X140892686Y-108500500D01*
X142121890Y-109729705D01*
X142130042Y-109742625D01*
X142170857Y-109778672D01*
X142185782Y-109793596D01*
X142190170Y-109796884D01*
X142198816Y-109803364D01*
X142228439Y-109829526D01*
X142237471Y-109837503D01*
X142255931Y-109846170D01*
X142272244Y-109858396D01*
X142272245Y-109858396D01*
X142272246Y-109858397D01*
X142286992Y-109863925D01*
X142320530Y-109876498D01*
X142367206Y-109898412D01*
X142387355Y-109901549D01*
X142406450Y-109908708D01*
X142457870Y-109912529D01*
X142467413Y-109914014D01*
X142476955Y-109915500D01*
X142497860Y-109915500D01*
X142532208Y-109918052D01*
X142549381Y-109919328D01*
X142549382Y-109919328D01*
X142567315Y-109915500D01*
X143856711Y-109915500D01*
X143866913Y-109935350D01*
X143893202Y-109986502D01*
X144021097Y-110147865D01*
X144048472Y-110171163D01*
X144177897Y-110281313D01*
X144357629Y-110381762D01*
X144357632Y-110381763D01*
X144553454Y-110445389D01*
X144757906Y-110469769D01*
X144757909Y-110469769D01*
X144963201Y-110453972D01*
X145161512Y-110398603D01*
X145345299Y-110305765D01*
X145507548Y-110179002D01*
X145512544Y-110173214D01*
X145642088Y-110023136D01*
X145701059Y-109919328D01*
X145743789Y-109844110D01*
X145760594Y-109793594D01*
X145808783Y-109648734D01*
X145810076Y-109638504D01*
X145834589Y-109444456D01*
X145835001Y-109414998D01*
X145814909Y-109210087D01*
X145810552Y-109195654D01*
X145755396Y-109012971D01*
X145658732Y-108831172D01*
X145658731Y-108831170D01*
X145530952Y-108674499D01*
X145528597Y-108671611D01*
X145525237Y-108668831D01*
X145369952Y-108540366D01*
X145188831Y-108442435D01*
X145188829Y-108442434D01*
X144992137Y-108381548D01*
X144787365Y-108360026D01*
X144613886Y-108375814D01*
X144582311Y-108378687D01*
X144492482Y-108405126D01*
X144384790Y-108436821D01*
X144337297Y-108461650D01*
X144202324Y-108532212D01*
X144202322Y-108532213D01*
X144202321Y-108532214D01*
X144041855Y-108661231D01*
X144041852Y-108661234D01*
X143909505Y-108818959D01*
X143856981Y-108914500D01*
X142722315Y-108914500D01*
X141493111Y-107685297D01*
X141484958Y-107672374D01*
X141457519Y-107648142D01*
X141444131Y-107636318D01*
X141429219Y-107621406D01*
X141426552Y-107619407D01*
X141416183Y-107611636D01*
X141411914Y-107607865D01*
X141393702Y-107591781D01*
X141377533Y-107577500D01*
X141377531Y-107577499D01*
X141359069Y-107568831D01*
X141342753Y-107556603D01*
X141338910Y-107553723D01*
X141303682Y-107503696D01*
X141304587Y-107442517D01*
X141341280Y-107393555D01*
X141398279Y-107375500D01*
X143725000Y-107375500D01*
X143725000Y-107725000D01*
X143740605Y-107803450D01*
X143785043Y-107869957D01*
X143851550Y-107914395D01*
X143930000Y-107930000D01*
X145630000Y-107930000D01*
X145708450Y-107914395D01*
X145774957Y-107869957D01*
X145819395Y-107803450D01*
X145835000Y-107725000D01*
X145835000Y-106025000D01*
X145819395Y-105946550D01*
X145774957Y-105880043D01*
X145708450Y-105835605D01*
X145630000Y-105820000D01*
X143930000Y-105820000D01*
X143851550Y-105835605D01*
X143785043Y-105880043D01*
X143740605Y-105946550D01*
X143729874Y-106000500D01*
X143725000Y-106025001D01*
X143725000Y-106374500D01*
X134480442Y-106374500D01*
X134465540Y-106371128D01*
X134465539Y-106371128D01*
X134411189Y-106374500D01*
X134390085Y-106374500D01*
X134382021Y-106375655D01*
X134373956Y-106376810D01*
X134348223Y-106378406D01*
X134322489Y-106380003D01*
X134303308Y-106386927D01*
X134288170Y-106389095D01*
X134283123Y-106389818D01*
X134236179Y-106411162D01*
X134204859Y-106422469D01*
X134187682Y-106428670D01*
X134171216Y-106440699D01*
X134152651Y-106449140D01*
X134113580Y-106482807D01*
X134103190Y-106490397D01*
X134097996Y-106494191D01*
X134083225Y-106508962D01*
X134044075Y-106542696D01*
X134034098Y-106558088D01*
X133805596Y-106786591D01*
X133321406Y-107270781D01*
X133321403Y-107270785D01*
X133256603Y-107357247D01*
X133206292Y-107491451D01*
X133194898Y-107644776D01*
X133069675Y-107770000D01*
X132387364Y-107770000D01*
X132308219Y-107785743D01*
X132219813Y-107844813D01*
X132160743Y-107933219D01*
X132145000Y-108012364D01*
X128455000Y-108012364D01*
X128439257Y-107933219D01*
X128380187Y-107844813D01*
X128291781Y-107785743D01*
X128212636Y-107770000D01*
X127487363Y-107770000D01*
X127464739Y-107774500D01*
X125780063Y-107774500D01*
X125732303Y-107719073D01*
X125732302Y-107719072D01*
X125612033Y-107641117D01*
X125474718Y-107600050D01*
X125286994Y-107598904D01*
X125297529Y-107457130D01*
X125300500Y-107438044D01*
X125300500Y-107417140D01*
X125304328Y-107365618D01*
X125300500Y-107347685D01*
X125300500Y-106907314D01*
X126507315Y-105700500D01*
X127987812Y-105700500D01*
X127934894Y-105813215D01*
X127928879Y-105826028D01*
X127916588Y-105852207D01*
X127894537Y-105993827D01*
X127908447Y-106100258D01*
X127874718Y-106100052D01*
X127743959Y-106099254D01*
X127731397Y-106099177D01*
X127731396Y-106099177D01*
X127593589Y-106138562D01*
X127593586Y-106138563D01*
X127472375Y-106215041D01*
X127415925Y-106278960D01*
X127377499Y-106322469D01*
X127321883Y-106440928D01*
X127316587Y-106452208D01*
X127294537Y-106593824D01*
X127313120Y-106735938D01*
X127353997Y-106828836D01*
X127370845Y-106867126D01*
X127463068Y-106976838D01*
X127582377Y-107056257D01*
X127666927Y-107082672D01*
X127719183Y-107098998D01*
X127862479Y-107101624D01*
X127862481Y-107101624D01*
X127982980Y-107068772D01*
X128000759Y-107063925D01*
X128122897Y-106988932D01*
X128157683Y-106950501D01*
X128453766Y-106950501D01*
X128470000Y-106966736D01*
X128470000Y-107512636D01*
X128485743Y-107591781D01*
X128544813Y-107680187D01*
X128633219Y-107739257D01*
X128712364Y-107755000D01*
X128887636Y-107755000D01*
X128966781Y-107739257D01*
X129050000Y-107683653D01*
X129133219Y-107739257D01*
X129212364Y-107755000D01*
X129387636Y-107755000D01*
X129466781Y-107739257D01*
X129550000Y-107683653D01*
X129633219Y-107739257D01*
X129712364Y-107755000D01*
X129887636Y-107755000D01*
X129966781Y-107739257D01*
X130050000Y-107683653D01*
X130133219Y-107739257D01*
X130212364Y-107755000D01*
X130387636Y-107755000D01*
X130466781Y-107739257D01*
X130550000Y-107683653D01*
X130633219Y-107739257D01*
X130712364Y-107755000D01*
X130887636Y-107755000D01*
X130966781Y-107739257D01*
X131050000Y-107683653D01*
X131133219Y-107739257D01*
X131212364Y-107755000D01*
X131387636Y-107755000D01*
X131466781Y-107739257D01*
X131555187Y-107680187D01*
X131614257Y-107591781D01*
X131630000Y-107512636D01*
X131630000Y-106787364D01*
X131614257Y-106708219D01*
X131614256Y-106708217D01*
X131604935Y-106661360D01*
X131610206Y-106658124D01*
X131664963Y-106624503D01*
X131722896Y-106588932D01*
X131750812Y-106558091D01*
X131819078Y-106482672D01*
X131881570Y-106353689D01*
X131892088Y-106291170D01*
X131905349Y-106212352D01*
X131905352Y-106212067D01*
X131905500Y-106200000D01*
X131885182Y-106058123D01*
X131825860Y-105927651D01*
X131825860Y-105927650D01*
X131732303Y-105819074D01*
X131612033Y-105741118D01*
X131474718Y-105700051D01*
X131331398Y-105699177D01*
X131331396Y-105699177D01*
X131193589Y-105738562D01*
X131193586Y-105738563D01*
X131072375Y-105815041D01*
X131000150Y-105896821D01*
X130977499Y-105922469D01*
X130939521Y-106003361D01*
X130897675Y-106048000D01*
X130837584Y-106059517D01*
X130782199Y-106033514D01*
X130759784Y-106002263D01*
X130725860Y-105927650D01*
X130679952Y-105874373D01*
X130648504Y-105837875D01*
X130778116Y-105708263D01*
X130839015Y-105588741D01*
X130855000Y-105487818D01*
X130855000Y-104912182D01*
X130839015Y-104811259D01*
X130778116Y-104691737D01*
X130755881Y-104669502D01*
X130728105Y-104614987D01*
X130737676Y-104554555D01*
X130780941Y-104511290D01*
X130825886Y-104500500D01*
X148889852Y-104500500D01*
X148946753Y-104506280D01*
X149060552Y-104517840D01*
X149118454Y-104535985D01*
X149214551Y-104566100D01*
X149258064Y-104590219D01*
X149355696Y-104644338D01*
X149478231Y-104749362D01*
X149577140Y-104876876D01*
X149648390Y-105021678D01*
X149689692Y-105180237D01*
X149699501Y-105307707D01*
X149699500Y-118286000D01*
X149698396Y-118293344D01*
X149699500Y-118307690D01*
X149699500Y-118321920D01*
X149701152Y-118329163D01*
X149711728Y-118466599D01*
X149712175Y-118482136D01*
X149713235Y-118486206D01*
X149713544Y-118490221D01*
X149716819Y-118500765D01*
X149718115Y-118504939D01*
X149766519Y-118690765D01*
X149769654Y-118702800D01*
X149772064Y-118713034D01*
X149773060Y-118717262D01*
X149773827Y-118718821D01*
X149774218Y-118720322D01*
X149774220Y-118720327D01*
X149774221Y-118720329D01*
X149780810Y-118733013D01*
X149873749Y-118921891D01*
X149879977Y-118935337D01*
X149879979Y-118935341D01*
X149881043Y-118936712D01*
X149881729Y-118938107D01*
X149890748Y-118949224D01*
X150019750Y-119115534D01*
X150024089Y-119121408D01*
X150028567Y-119127471D01*
X150029884Y-119128601D01*
X150030834Y-119129824D01*
X150030836Y-119129826D01*
X150041884Y-119138884D01*
X150200430Y-119274775D01*
X150201755Y-119275911D01*
X150212751Y-119285794D01*
X150214266Y-119286634D01*
X150215448Y-119287647D01*
X150215450Y-119287648D01*
X150215451Y-119287649D01*
X150218156Y-119289072D01*
X150228150Y-119294330D01*
X150412219Y-119396361D01*
X150425009Y-119403850D01*
X150426666Y-119404369D01*
X150428024Y-119405122D01*
X150428026Y-119405123D01*
X150441763Y-119409100D01*
X150642655Y-119472057D01*
X150656671Y-119476814D01*
X150658397Y-119476989D01*
X150659880Y-119477454D01*
X150674158Y-119478590D01*
X150868436Y-119498325D01*
X150877895Y-119500500D01*
X150889850Y-119500500D01*
X150901545Y-119501688D01*
X150901546Y-119501688D01*
X150911156Y-119500500D01*
X160589852Y-119500500D01*
X160628905Y-119504467D01*
X160760552Y-119517840D01*
X160815442Y-119535041D01*
X160914551Y-119566100D01*
X160954188Y-119588071D01*
X161055696Y-119644338D01*
X161146316Y-119722008D01*
X161178231Y-119749362D01*
X161277140Y-119876876D01*
X161348390Y-120021678D01*
X161389692Y-120180237D01*
X161399501Y-120307707D01*
X161399500Y-132989852D01*
X161382160Y-133160552D01*
X161346868Y-133273172D01*
X161333901Y-133314551D01*
X161268237Y-133433014D01*
X161255666Y-133455692D01*
X161241709Y-133471976D01*
X161150641Y-133578227D01*
X161023125Y-133677139D01*
X160878323Y-133748389D01*
X160754694Y-133780593D01*
X160719763Y-133789692D01*
X160592303Y-133799500D01*
X150893969Y-133799500D01*
X150835778Y-133780593D01*
X150799814Y-133731093D01*
X150799814Y-133669907D01*
X150835290Y-133620764D01*
X150841328Y-133616321D01*
X150893092Y-133578227D01*
X150914910Y-133562171D01*
X151028125Y-133428908D01*
X151107647Y-133273175D01*
X151111517Y-133257359D01*
X151149211Y-133103319D01*
X151150000Y-133090600D01*
X151150000Y-128567114D01*
X151134750Y-128436312D01*
X151102269Y-128346828D01*
X151075087Y-128271944D01*
X151058545Y-128246712D01*
X150999616Y-128156830D01*
X150979209Y-128125704D01*
X150907556Y-128057828D01*
X150852263Y-128005448D01*
X150764002Y-127954182D01*
X150701059Y-127917621D01*
X150701056Y-127917620D01*
X150533699Y-127866932D01*
X150359171Y-127856105D01*
X150186832Y-127885718D01*
X150025931Y-127954182D01*
X150025929Y-127954183D01*
X150025930Y-127954183D01*
X149885092Y-128057828D01*
X149810015Y-128146200D01*
X149771876Y-128191092D01*
X149692354Y-128346825D01*
X149692354Y-128346827D01*
X149692353Y-128346828D01*
X149656509Y-128493312D01*
X149650790Y-128516683D01*
X149650001Y-128529399D01*
X149650000Y-133052884D01*
X149665250Y-133183687D01*
X149724914Y-133348058D01*
X149820789Y-133494292D01*
X149820790Y-133494293D01*
X149947737Y-133614552D01*
X149948328Y-133614895D01*
X149949605Y-133616321D01*
X149956117Y-133622490D01*
X149955610Y-133623025D01*
X149989147Y-133660470D01*
X149995383Y-133721337D01*
X149964652Y-133774245D01*
X149898601Y-133799500D01*
X96893969Y-133799500D01*
X96835778Y-133780593D01*
X96799814Y-133731093D01*
X96799814Y-133669907D01*
X96835290Y-133620764D01*
X96841328Y-133616321D01*
X96893092Y-133578227D01*
X96914910Y-133562171D01*
X97028125Y-133428908D01*
X97107647Y-133273175D01*
X97111517Y-133257359D01*
X97149211Y-133103319D01*
X97150000Y-133090600D01*
X97150000Y-129248071D01*
X109399796Y-129248071D01*
X109439945Y-129447187D01*
X109519312Y-129634163D01*
X109580045Y-129722201D01*
X109634654Y-129801361D01*
X109634656Y-129801363D01*
X109781261Y-129941952D01*
X109882947Y-130005986D01*
X109953142Y-130050190D01*
X110143277Y-130121658D01*
X110293743Y-130145489D01*
X110343898Y-130153433D01*
X110343899Y-130153433D01*
X110546813Y-130144219D01*
X110743730Y-130094391D01*
X110835165Y-130050190D01*
X110926605Y-130005987D01*
X111010360Y-129941951D01*
X111087970Y-129882613D01*
X111158602Y-129801361D01*
X111221232Y-129729313D01*
X111320945Y-129552352D01*
X111383038Y-129358951D01*
X111395084Y-129248071D01*
X135399796Y-129248071D01*
X135439945Y-129447187D01*
X135519312Y-129634163D01*
X135580045Y-129722201D01*
X135634654Y-129801361D01*
X135634656Y-129801363D01*
X135781261Y-129941952D01*
X135882947Y-130005986D01*
X135953142Y-130050190D01*
X136143277Y-130121658D01*
X136293743Y-130145489D01*
X136343898Y-130153433D01*
X136343899Y-130153433D01*
X136546813Y-130144219D01*
X136743730Y-130094391D01*
X136835165Y-130050190D01*
X136926605Y-130005987D01*
X137010360Y-129941951D01*
X137087970Y-129882613D01*
X137158602Y-129801361D01*
X137221232Y-129729313D01*
X137320945Y-129552352D01*
X137383038Y-129358951D01*
X137404977Y-129157013D01*
X137405000Y-129150004D01*
X137384473Y-128947919D01*
X137384473Y-128947917D01*
X137323731Y-128754088D01*
X137323730Y-128754085D01*
X137225255Y-128576433D01*
X137093072Y-128422210D01*
X137004813Y-128353750D01*
X136932569Y-128297712D01*
X136750315Y-128208032D01*
X136750313Y-128208031D01*
X136750312Y-128208031D01*
X136629548Y-128176574D01*
X136553751Y-128156830D01*
X136544564Y-128156349D01*
X136350908Y-128146199D01*
X136185854Y-128171162D01*
X136150067Y-128176574D01*
X135959437Y-128246712D01*
X135786804Y-128353749D01*
X135786803Y-128353750D01*
X135639221Y-128493310D01*
X135581018Y-128576433D01*
X135522713Y-128659701D01*
X135442043Y-128846118D01*
X135400505Y-129044949D01*
X135399796Y-129248071D01*
X111395084Y-129248071D01*
X111404977Y-129157013D01*
X111405000Y-129150004D01*
X111384473Y-128947919D01*
X111384473Y-128947917D01*
X111323731Y-128754088D01*
X111323730Y-128754085D01*
X111225255Y-128576433D01*
X111093072Y-128422210D01*
X111004813Y-128353750D01*
X110932569Y-128297712D01*
X110750315Y-128208032D01*
X110750313Y-128208031D01*
X110750312Y-128208031D01*
X110629548Y-128176574D01*
X110553751Y-128156830D01*
X110544564Y-128156349D01*
X110350908Y-128146199D01*
X110185854Y-128171162D01*
X110150067Y-128176574D01*
X109959437Y-128246712D01*
X109786804Y-128353749D01*
X109786803Y-128353750D01*
X109639221Y-128493310D01*
X109581018Y-128576433D01*
X109522713Y-128659701D01*
X109442043Y-128846118D01*
X109400505Y-129044949D01*
X109399796Y-129248071D01*
X97150000Y-129248071D01*
X97150000Y-128567114D01*
X97134750Y-128436312D01*
X97102269Y-128346828D01*
X97075087Y-128271944D01*
X97058545Y-128246712D01*
X96999616Y-128156830D01*
X96979209Y-128125704D01*
X96907556Y-128057828D01*
X96852263Y-128005448D01*
X96764002Y-127954182D01*
X96701059Y-127917621D01*
X96701056Y-127917620D01*
X96533699Y-127866932D01*
X96359171Y-127856105D01*
X96186832Y-127885718D01*
X96025931Y-127954182D01*
X96025929Y-127954183D01*
X96025930Y-127954183D01*
X95885092Y-128057828D01*
X95810015Y-128146200D01*
X95771876Y-128191092D01*
X95692354Y-128346825D01*
X95692354Y-128346827D01*
X95692353Y-128346828D01*
X95656509Y-128493312D01*
X95650790Y-128516683D01*
X95650001Y-128529399D01*
X95650000Y-133052884D01*
X95665250Y-133183687D01*
X95724914Y-133348058D01*
X95820789Y-133494292D01*
X95820790Y-133494293D01*
X95947737Y-133614552D01*
X95948328Y-133614895D01*
X95949605Y-133616321D01*
X95956117Y-133622490D01*
X95955610Y-133623025D01*
X95989147Y-133660470D01*
X95995383Y-133721337D01*
X95964652Y-133774245D01*
X95898601Y-133799500D01*
X95810149Y-133799500D01*
X95713595Y-133789692D01*
X95639448Y-133782160D01*
X95485447Y-133733900D01*
X95428583Y-133702380D01*
X95344307Y-133655665D01*
X95235225Y-133562171D01*
X95221773Y-133550641D01*
X95122861Y-133423125D01*
X95112873Y-133402827D01*
X95051611Y-133278323D01*
X95010308Y-133119763D01*
X95000500Y-132992305D01*
X95000500Y-123549998D01*
X97722000Y-123549998D01*
X97768360Y-123763110D01*
X97847299Y-123885944D01*
X97957649Y-123981562D01*
X98090474Y-124042221D01*
X98234997Y-124063000D01*
X98381000Y-124063000D01*
X98888999Y-124063000D01*
X99034998Y-124063000D01*
X99286280Y-124008337D01*
X99360473Y-124042221D01*
X99504997Y-124063000D01*
X99651000Y-124063000D01*
X100158999Y-124063000D01*
X100304998Y-124063000D01*
X100556280Y-124008337D01*
X100630473Y-124042221D01*
X100774997Y-124063000D01*
X100921000Y-124063000D01*
X101428999Y-124063000D01*
X101574998Y-124063000D01*
X101826280Y-124008337D01*
X101900473Y-124042221D01*
X102044997Y-124063000D01*
X102191000Y-124063000D01*
X102698999Y-124063000D01*
X102844998Y-124063000D01*
X103096280Y-124008337D01*
X103170473Y-124042221D01*
X103314997Y-124063000D01*
X103461000Y-124063000D01*
X103968999Y-124063000D01*
X104114998Y-124063000D01*
X104366280Y-124008337D01*
X104440473Y-124042221D01*
X104584997Y-124063000D01*
X104731000Y-124063000D01*
X104731001Y-122554000D01*
X104663000Y-122554000D01*
X103969000Y-122553999D01*
X103968999Y-124063000D01*
X103461000Y-124063000D01*
X103461001Y-122554000D01*
X103393000Y-122554000D01*
X102699000Y-122553999D01*
X102698999Y-124063000D01*
X102191000Y-124063000D01*
X102191001Y-122554000D01*
X102123000Y-122554000D01*
X101429000Y-122553999D01*
X101428999Y-124063000D01*
X100921000Y-124063000D01*
X100921001Y-122554000D01*
X100853000Y-122554000D01*
X100159000Y-122553999D01*
X100158999Y-124063000D01*
X99651000Y-124063000D01*
X99651001Y-122554000D01*
X99583000Y-122554000D01*
X98889000Y-122553999D01*
X98888999Y-124063000D01*
X98381000Y-124063000D01*
X98381001Y-122554000D01*
X97722000Y-122553999D01*
X97722000Y-123549998D01*
X95000500Y-123549998D01*
X95000500Y-121049997D01*
X97722000Y-121049997D01*
X97722000Y-122046000D01*
X98381000Y-122046001D01*
X98381000Y-122046000D01*
X98888999Y-122046000D01*
X98957000Y-122046000D01*
X99651000Y-122046001D01*
X99651000Y-122046000D01*
X100158999Y-122046000D01*
X100227000Y-122046000D01*
X100921000Y-122046001D01*
X100921000Y-122046000D01*
X101428999Y-122046000D01*
X101497000Y-122046000D01*
X102191000Y-122046001D01*
X102191000Y-122046000D01*
X102698999Y-122046000D01*
X102767000Y-122046000D01*
X103461000Y-122046001D01*
X103461000Y-122046000D01*
X103968999Y-122046000D01*
X104037000Y-122046000D01*
X104731000Y-122046001D01*
X104731001Y-120537000D01*
X104585002Y-120537000D01*
X104333720Y-120591663D01*
X104259527Y-120557779D01*
X104115003Y-120537000D01*
X103969000Y-120537000D01*
X103968999Y-122046000D01*
X103461000Y-122046000D01*
X103461001Y-120537000D01*
X103315002Y-120537000D01*
X103063720Y-120591663D01*
X102989527Y-120557779D01*
X102845003Y-120537000D01*
X102699000Y-120537000D01*
X102698999Y-122046000D01*
X102191000Y-122046000D01*
X102191001Y-120537000D01*
X102045002Y-120537000D01*
X101793720Y-120591663D01*
X101719527Y-120557779D01*
X101575003Y-120537000D01*
X101429000Y-120537000D01*
X101428999Y-122046000D01*
X100921000Y-122046000D01*
X100921001Y-120537000D01*
X100775002Y-120537000D01*
X100523720Y-120591663D01*
X100449527Y-120557779D01*
X100305003Y-120537000D01*
X100159000Y-120537000D01*
X100158999Y-122046000D01*
X99651000Y-122046000D01*
X99651001Y-120537000D01*
X99505002Y-120537000D01*
X99253720Y-120591663D01*
X99179527Y-120557779D01*
X99035003Y-120537000D01*
X98889000Y-120537000D01*
X98888999Y-122046000D01*
X98381000Y-122046000D01*
X98381001Y-120537000D01*
X98235002Y-120537000D01*
X98021890Y-120583360D01*
X97899056Y-120662299D01*
X97803438Y-120772649D01*
X97742779Y-120905474D01*
X97722000Y-121049997D01*
X95000500Y-121049997D01*
X95000500Y-120012084D01*
X95016339Y-119881198D01*
X95058638Y-119769259D01*
X95068911Y-119754313D01*
X95126416Y-119670643D01*
X95215764Y-119591037D01*
X95321518Y-119535042D01*
X95419172Y-119510513D01*
X95443239Y-119504468D01*
X95506294Y-119500500D01*
X95784504Y-119500500D01*
X95790529Y-119501492D01*
X95790531Y-119501492D01*
X95794034Y-119501272D01*
X95806303Y-119500500D01*
X95821920Y-119500500D01*
X95827868Y-119499143D01*
X95875722Y-119496131D01*
X95899458Y-119494638D01*
X95913433Y-119494357D01*
X95915145Y-119494323D01*
X95918706Y-119493429D01*
X95922193Y-119493209D01*
X95937098Y-119488808D01*
X96027747Y-119466038D01*
X96057196Y-119458641D01*
X96058388Y-119458868D01*
X96058389Y-119458868D01*
X96091598Y-119450001D01*
X96120857Y-119442651D01*
X96120961Y-119442625D01*
X96122887Y-119441646D01*
X96125144Y-119441043D01*
X96147083Y-119429427D01*
X96151015Y-119427345D01*
X96182390Y-119411393D01*
X96182400Y-119411388D01*
X96183246Y-119410279D01*
X96209553Y-119396350D01*
X96254586Y-119372507D01*
X96255797Y-119372442D01*
X96285951Y-119355899D01*
X96312690Y-119341741D01*
X96314325Y-119340332D01*
X96316374Y-119339208D01*
X96316375Y-119339207D01*
X96316377Y-119339206D01*
X96338249Y-119319718D01*
X96364913Y-119296743D01*
X96365471Y-119295465D01*
X96372646Y-119289072D01*
X96425733Y-119241774D01*
X96426894Y-119241422D01*
X96432796Y-119236005D01*
X96452209Y-119218184D01*
X96474821Y-119198038D01*
X96476075Y-119196277D01*
X96477795Y-119194698D01*
X96480406Y-119190900D01*
X96494371Y-119170580D01*
X96502645Y-119158959D01*
X96514797Y-119141892D01*
X96514797Y-119141891D01*
X96514800Y-119141887D01*
X96515036Y-119140513D01*
X96532199Y-119115540D01*
X96560757Y-119073989D01*
X96561800Y-119073371D01*
X96580816Y-119044804D01*
X96597997Y-119019806D01*
X96598796Y-119017793D01*
X96600084Y-119015857D01*
X96600086Y-119015854D01*
X96610426Y-118988491D01*
X96623423Y-118955746D01*
X96623325Y-118954355D01*
X96651858Y-118878844D01*
X96652723Y-118877995D01*
X96664388Y-118845684D01*
X96675095Y-118817348D01*
X96675098Y-118817340D01*
X96675393Y-118815199D01*
X96676186Y-118813003D01*
X96678370Y-118794957D01*
X96679709Y-118783896D01*
X96684512Y-118749057D01*
X96684085Y-118747732D01*
X96697942Y-118633227D01*
X96700500Y-118622103D01*
X96700500Y-118612087D01*
X96701681Y-118602328D01*
X96700500Y-118590994D01*
X96700500Y-105310147D01*
X96717840Y-105139448D01*
X96743779Y-105056675D01*
X96766100Y-104985449D01*
X96815018Y-104897198D01*
X96844338Y-104844304D01*
X96949363Y-104721768D01*
X96962050Y-104711927D01*
X97076876Y-104622860D01*
X97092876Y-104614987D01*
X97221678Y-104551610D01*
X97380237Y-104510308D01*
X97404824Y-104508416D01*
X97507696Y-104500500D01*
X126299240Y-104500500D01*
X126323604Y-104508416D01*
G37*
%TD.AperFunction*%
%TA.AperFunction,Conductor*%
G36*
X131099002Y-113495739D02*
G01*
X131213125Y-113609862D01*
X131196884Y-113641737D01*
X131135985Y-113761259D01*
X131135985Y-113761260D01*
X131126781Y-113819370D01*
X131099003Y-113873886D01*
X131087688Y-113879651D01*
X131109210Y-113901173D01*
X131120000Y-113946118D01*
X131120000Y-114362818D01*
X131135985Y-114463741D01*
X131196884Y-114583263D01*
X131291737Y-114678116D01*
X131411259Y-114739015D01*
X131512182Y-114755000D01*
X132087818Y-114755000D01*
X132188741Y-114739015D01*
X132308263Y-114678116D01*
X132403116Y-114583263D01*
X132464015Y-114463741D01*
X132464015Y-114463739D01*
X132477313Y-114437639D01*
X132560069Y-114520395D01*
X132563478Y-114524457D01*
X132587569Y-114553168D01*
X132600118Y-114560413D01*
X132610435Y-114570730D01*
X132636635Y-114582948D01*
X132660326Y-114599535D01*
X132674414Y-114603311D01*
X132774339Y-114660985D01*
X132735985Y-114736259D01*
X132720000Y-114837182D01*
X132720000Y-115337818D01*
X132735985Y-115438741D01*
X132796884Y-115558263D01*
X132891737Y-115653116D01*
X133011259Y-115714015D01*
X133112182Y-115730000D01*
X133687818Y-115730000D01*
X133788741Y-115714015D01*
X133908263Y-115653116D01*
X134003116Y-115558263D01*
X134024052Y-115517173D01*
X134067317Y-115473908D01*
X134127749Y-115464337D01*
X134182266Y-115492114D01*
X134200471Y-115517172D01*
X134246884Y-115608263D01*
X134341737Y-115703116D01*
X134461259Y-115764015D01*
X134461261Y-115764015D01*
X134487000Y-115777130D01*
X134487001Y-116598523D01*
X134483258Y-116641305D01*
X134494436Y-116683020D01*
X134501933Y-116725538D01*
X134509202Y-116738128D01*
X134511051Y-116745027D01*
X134512966Y-116752174D01*
X134537731Y-116787542D01*
X134556431Y-116819933D01*
X134559324Y-116824943D01*
X134592221Y-116852547D01*
X134874500Y-117134827D01*
X134874501Y-118465173D01*
X134665175Y-118674500D01*
X132208404Y-118674500D01*
X132150213Y-118655593D01*
X132114249Y-118606093D01*
X132114249Y-118544907D01*
X132133461Y-118510812D01*
X132222088Y-118408136D01*
X132323789Y-118229110D01*
X132339818Y-118180926D01*
X132388783Y-118033734D01*
X132390695Y-118018603D01*
X132414589Y-117829456D01*
X132415001Y-117799998D01*
X132394909Y-117595087D01*
X132394185Y-117592687D01*
X132335396Y-117397971D01*
X132274799Y-117284005D01*
X132238731Y-117216170D01*
X132108596Y-117056610D01*
X131949952Y-116925366D01*
X131768831Y-116827435D01*
X131768829Y-116827434D01*
X131572137Y-116766548D01*
X131367365Y-116745026D01*
X131196179Y-116760605D01*
X131162311Y-116763687D01*
X131046043Y-116797907D01*
X130964790Y-116821821D01*
X130964788Y-116821822D01*
X130884250Y-116863924D01*
X130613000Y-116592674D01*
X130613000Y-114277131D01*
X130718771Y-114223238D01*
X130758263Y-114203116D01*
X130853116Y-114108263D01*
X130914015Y-113988741D01*
X130923219Y-113930630D01*
X130950997Y-113876114D01*
X130962312Y-113870349D01*
X130940790Y-113848827D01*
X130930000Y-113803882D01*
X130930000Y-113565744D01*
X130948907Y-113507553D01*
X130998407Y-113471589D01*
X131059593Y-113471589D01*
X131099002Y-113495739D01*
G37*
%TD.AperFunction*%
%TD*%
M02*
