%TF.GenerationSoftware,KiCad,Pcbnew,5.99.0-unknown-acf13a186~104~ubuntu20.04.1*%
%TF.CreationDate,2020-09-23T14:04:27+02:00*%
%TF.ProjectId,matrixctl,6d617472-6978-4637-946c-2e6b69636164,rev?*%
%TF.SameCoordinates,Original*%
%TF.FileFunction,Copper,L2,Bot*%
%TF.FilePolarity,Positive*%
%FSLAX46Y46*%
G04 Gerber Fmt 4.6, Leading zero omitted, Abs format (unit mm)*
G04 Created by KiCad (PCBNEW 5.99.0-unknown-acf13a186~104~ubuntu20.04.1) date 2020-09-23 14:04:27*
%MOMM*%
%LPD*%
G01*
G04 APERTURE LIST*
%TA.AperFunction,ComponentPad*%
%ADD10R,1.700000X1.700000*%
%TD*%
%TA.AperFunction,ComponentPad*%
%ADD11O,1.700000X1.700000*%
%TD*%
%TA.AperFunction,ComponentPad*%
%ADD12O,1.100000X5.500000*%
%TD*%
%TA.AperFunction,ComponentPad*%
%ADD13C,1.450000*%
%TD*%
%TA.AperFunction,ComponentPad*%
%ADD14O,1.200000X1.900000*%
%TD*%
%TA.AperFunction,ComponentPad*%
%ADD15C,0.600000*%
%TD*%
%TA.AperFunction,ViaPad*%
%ADD16C,0.600000*%
%TD*%
%TA.AperFunction,Conductor*%
%ADD17C,0.400000*%
%TD*%
%TA.AperFunction,Conductor*%
%ADD18C,0.250000*%
%TD*%
%TA.AperFunction,Conductor*%
%ADD19C,0.600000*%
%TD*%
G04 APERTURE END LIST*
D10*
%TO.P,J103,1,Pin_1*%
%TO.N,Net-(FB102-Pad2)*%
X121200000Y-117800000D03*
D11*
%TO.P,J103,2,Pin_2*%
%TO.N,GND*%
X123740000Y-117800000D03*
%TO.P,J103,3,Pin_3*%
%TO.N,/VIO*%
X126280000Y-117800000D03*
%TO.P,J103,4,Pin_4*%
%TO.N,/SDA*%
X128820000Y-117800000D03*
%TO.P,J103,5,Pin_5*%
%TO.N,/SCL*%
X131360000Y-117800000D03*
%TO.P,J103,6,Pin_6*%
%TO.N,GND*%
X133900000Y-117800000D03*
%TO.P,J103,7,Pin_7*%
%TO.N,/~INTB*%
X136440000Y-117800000D03*
%TO.P,J103,8,Pin_8*%
%TO.N,/~SDB*%
X138980000Y-117800000D03*
%TD*%
D10*
%TO.P,J1,1,Pin_1*%
%TO.N,Net-(F1-Pad2)*%
X155700000Y-126200000D03*
D11*
%TO.P,J1,2,Pin_2*%
%TO.N,GND*%
X158240000Y-126200000D03*
%TD*%
D12*
%TO.P,U2,41*%
%TO.N,N/C*%
X150400000Y-130810000D03*
%TO.P,U2,42*%
X96400000Y-130810000D03*
%TD*%
D13*
%TO.P,J104,6,Shield*%
%TO.N,GND*%
X154500000Y-129737500D03*
X159500000Y-129737500D03*
D14*
X153500000Y-132437500D03*
X160500000Y-132437500D03*
%TD*%
D15*
%TO.P,U101,29,PGND*%
%TO.N,GND*%
X131300000Y-110600000D03*
%TA.AperFunction,SMDPad,CuDef*%
G36*
G01*
X131550000Y-108600000D02*
X131550000Y-110600000D01*
G75*
G02*
X131300000Y-110850000I-250000J0D01*
G01*
X129300000Y-110850000D01*
G75*
G02*
X129050000Y-110600000I0J250000D01*
G01*
X129050000Y-108600000D01*
G75*
G02*
X129300000Y-108350000I250000J0D01*
G01*
X131300000Y-108350000D01*
G75*
G02*
X131550000Y-108600000I0J-250000D01*
G01*
G37*
%TD.AperFunction*%
X130300000Y-108600000D03*
X131300000Y-108600000D03*
X129300000Y-108600000D03*
X129300000Y-110600000D03*
X130300000Y-110600000D03*
X131300000Y-109600000D03*
X130300000Y-109600000D03*
X129300000Y-109600000D03*
%TD*%
D10*
%TO.P,J101,1,Pin_1*%
%TO.N,GND*%
X99060000Y-106875000D03*
D11*
%TO.P,J101,2,Pin_2*%
%TO.N,/CS5*%
X101600000Y-106875000D03*
%TO.P,J101,3,Pin_3*%
%TO.N,GND*%
X99060000Y-109415000D03*
%TO.P,J101,4,Pin_4*%
%TO.N,/CS4*%
X101600000Y-109415000D03*
%TO.P,J101,5,Pin_5*%
%TO.N,GND*%
X99060000Y-111955000D03*
%TO.P,J101,6,Pin_6*%
%TO.N,/CS3*%
X101600000Y-111955000D03*
%TO.P,J101,7,Pin_7*%
%TO.N,GND*%
X99060000Y-114495000D03*
%TO.P,J101,8,Pin_8*%
%TO.N,/CS2*%
X101600000Y-114495000D03*
%TO.P,J101,9,Pin_9*%
%TO.N,GND*%
X99060000Y-117035000D03*
%TO.P,J101,10,Pin_10*%
%TO.N,/CS1*%
X101600000Y-117035000D03*
%TD*%
D10*
%TO.P,J102,1,Pin_1*%
%TO.N,/SW5*%
X144780000Y-106875000D03*
D11*
%TO.P,J102,2,Pin_2*%
%TO.N,GND*%
X147320000Y-106875000D03*
%TO.P,J102,3,Pin_3*%
%TO.N,/SW4*%
X144780000Y-109415000D03*
%TO.P,J102,4,Pin_4*%
%TO.N,GND*%
X147320000Y-109415000D03*
%TO.P,J102,5,Pin_5*%
%TO.N,/SW3*%
X144780000Y-111955000D03*
%TO.P,J102,6,Pin_6*%
%TO.N,GND*%
X147320000Y-111955000D03*
%TO.P,J102,7,Pin_7*%
%TO.N,/SW2*%
X144780000Y-114495000D03*
%TO.P,J102,8,Pin_8*%
%TO.N,GND*%
X147320000Y-114495000D03*
%TO.P,J102,9,Pin_9*%
%TO.N,/SW1*%
X144780000Y-117035000D03*
%TO.P,J102,10,Pin_10*%
%TO.N,GND*%
X147320000Y-117035000D03*
%TD*%
D16*
%TO.N,GND*%
X98000000Y-130500000D03*
X104500000Y-107800000D03*
X142000000Y-118500000D03*
X122100000Y-111200000D03*
X120700000Y-129300000D03*
X116000000Y-113700000D03*
X109800000Y-112100000D03*
X98800000Y-124900000D03*
X114400000Y-120100000D03*
X117700000Y-106400000D03*
X113000000Y-117800000D03*
X106900000Y-129200000D03*
X151600000Y-127700000D03*
X126300000Y-106400000D03*
X111300000Y-117800000D03*
X110300000Y-120000000D03*
X117200000Y-117700000D03*
X103000000Y-113200000D03*
X143000000Y-108100000D03*
X110300000Y-127100000D03*
X104200000Y-129200000D03*
X115800000Y-129300000D03*
X113200000Y-106400000D03*
X142600000Y-115800000D03*
X137700000Y-116500000D03*
X133400000Y-133200000D03*
X120500000Y-106000000D03*
X108200000Y-116900000D03*
X108300000Y-119900000D03*
X143000000Y-110700000D03*
X123900000Y-106000000D03*
X140700000Y-109000000D03*
X126200000Y-116200000D03*
X111700000Y-110600000D03*
X106200000Y-115500000D03*
X124700000Y-133200000D03*
X139000000Y-129300000D03*
X115700000Y-111400000D03*
X95700000Y-120000000D03*
X117000000Y-133200000D03*
X143000000Y-113200000D03*
X120300000Y-114600000D03*
X140000000Y-113700000D03*
X95700000Y-122600000D03*
X160700000Y-120000000D03*
X158600000Y-122100000D03*
X143000000Y-105100000D03*
X104500000Y-104900000D03*
X148800000Y-133200000D03*
X132800000Y-111700000D03*
X139000000Y-125800000D03*
X125600000Y-112700000D03*
X137700000Y-118900000D03*
X98000000Y-133200000D03*
X103000000Y-108100000D03*
X158600000Y-120000000D03*
X132700000Y-120000000D03*
X109300000Y-109800000D03*
X158700000Y-124100000D03*
X110500000Y-116200000D03*
X104400000Y-124900000D03*
X160700000Y-127600000D03*
X101300000Y-129200000D03*
X95700000Y-127600000D03*
X130000000Y-125800000D03*
X144300000Y-129300000D03*
X118262500Y-113700000D03*
X124800000Y-109500000D03*
X135800000Y-120000000D03*
X103100000Y-110600000D03*
X119900000Y-119400000D03*
X102900000Y-115500000D03*
X112300000Y-129300000D03*
X115600000Y-106400000D03*
X137900000Y-111700000D03*
X103000000Y-133200000D03*
X153300000Y-127700000D03*
X106400000Y-126500000D03*
X140700000Y-120000000D03*
X144300000Y-125800000D03*
X106200000Y-118400000D03*
X106000000Y-106500000D03*
X134400000Y-125600000D03*
X99900000Y-119900000D03*
X119500000Y-109000000D03*
X150300000Y-122500000D03*
X136400000Y-113100000D03*
X127900000Y-120000000D03*
X101700000Y-124900000D03*
X108200000Y-108100000D03*
X148800000Y-131100000D03*
X132700000Y-105200000D03*
X111700000Y-114300000D03*
X144900000Y-120000000D03*
X109400000Y-106400000D03*
X141500000Y-133200000D03*
X95700000Y-125300000D03*
X160700000Y-124100000D03*
X132700000Y-107100000D03*
X149000000Y-120000000D03*
X139300000Y-110300000D03*
X114000000Y-113700000D03*
X134400000Y-129300000D03*
X110000000Y-133200000D03*
X113200000Y-107900000D03*
X98000000Y-127600000D03*
X104200000Y-119900000D03*
X148800000Y-127700000D03*
X105200000Y-110600000D03*
X102900000Y-118400000D03*
X105500000Y-113200000D03*
X121500000Y-115900000D03*
X152500000Y-120000000D03*
X128300000Y-129300000D03*
X125600000Y-120000000D03*
%TO.N,/CS1*%
X114200000Y-110000000D03*
X131400000Y-106200000D03*
%TO.N,/CS2*%
X115500000Y-109400000D03*
X130300000Y-106200000D03*
%TO.N,/CS3*%
X115200000Y-108100000D03*
X128400000Y-106000000D03*
%TO.N,/CS4*%
X124000000Y-107000000D03*
X127800000Y-106600000D03*
%TO.N,/CS5*%
X119800000Y-106800000D03*
X125400000Y-108099999D03*
%TO.N,/SCL*%
X131400000Y-124900000D03*
%TO.N,/SDA*%
X128800000Y-126100000D03*
%TO.N,Net-(TP101-Pad1)*%
X124200000Y-113300000D03*
X128000000Y-112800000D03*
%TO.N,VBUS*%
X153000000Y-124500000D03*
X112900000Y-119100000D03*
X153000000Y-125500000D03*
X111600000Y-119100000D03*
X114700000Y-111900000D03*
X116100000Y-114700000D03*
%TO.N,+2V8*%
X125700000Y-111300000D03*
X123700000Y-111300000D03*
%TD*%
D17*
%TO.N,/CS1*%
X115000000Y-105200000D02*
X114200000Y-106000000D01*
X114200000Y-106000000D02*
X114200000Y-110000000D01*
X131100000Y-105200000D02*
X115000000Y-105200000D01*
X131400000Y-106200000D02*
X131400000Y-105500000D01*
X131400000Y-105500000D02*
X131100000Y-105200000D01*
%TO.N,/CS2*%
X118799998Y-109400000D02*
X119599999Y-110200001D01*
X130300000Y-106200000D02*
X126299999Y-110200001D01*
X126299999Y-110200001D02*
X119599999Y-110200001D01*
X115500000Y-109400000D02*
X118799998Y-109400000D01*
%TO.N,/CS3*%
X126800001Y-108799999D02*
X128500001Y-107099999D01*
X119450000Y-108250000D02*
X119300000Y-108100000D01*
X119950000Y-108250000D02*
X119450000Y-108250000D01*
X120050000Y-108350000D02*
X119950000Y-108250000D01*
X128500001Y-106100001D02*
X128400000Y-106000000D01*
X120499999Y-108799999D02*
X120050000Y-108350000D01*
X128500001Y-107099999D02*
X128500001Y-106100001D01*
X121400001Y-108799999D02*
X120499999Y-108799999D01*
X119300000Y-108100000D02*
X115200000Y-108100000D01*
X121400001Y-108799999D02*
X126800001Y-108799999D01*
%TO.N,/CS4*%
X124299999Y-107299999D02*
X127100001Y-107299999D01*
X127100001Y-107299999D02*
X127800000Y-106600000D01*
X124000000Y-107000000D02*
X124299999Y-107299999D01*
%TO.N,/CS5*%
X121099999Y-108099999D02*
X119800000Y-106800000D01*
X125400000Y-108099999D02*
X121099999Y-108099999D01*
%TO.N,/SCL*%
X131400000Y-124900000D02*
X131400000Y-117840000D01*
X131400000Y-117840000D02*
X131360000Y-117800000D01*
%TO.N,/SDA*%
X128820000Y-126080000D02*
X128800000Y-126100000D01*
X128820000Y-117800000D02*
X128820000Y-126080000D01*
D18*
%TO.N,Net-(TP101-Pad1)*%
X128000000Y-112800000D02*
X126900000Y-113900000D01*
X124800000Y-113900000D02*
X124200000Y-113300000D01*
X126900000Y-113900000D02*
X124800000Y-113900000D01*
%TO.N,VBUS*%
X114700000Y-113300000D02*
X116100000Y-114700000D01*
X114700000Y-111900000D02*
X114700000Y-113300000D01*
D19*
%TO.N,+2V8*%
X123700000Y-111300000D02*
X125700000Y-111300000D01*
%TD*%
%TA.AperFunction,Conductor*%
%TO.N,VBUS*%
G36*
X113500000Y-126500000D02*
G01*
X128335156Y-126500000D01*
X128425386Y-126569235D01*
X128497250Y-126624378D01*
X128643285Y-126684868D01*
X128800000Y-126705500D01*
X128956715Y-126684868D01*
X129102750Y-126624378D01*
X129174614Y-126569235D01*
X129264844Y-126500000D01*
X146000000Y-126500000D01*
X146000000Y-124000000D01*
X153500000Y-124000000D01*
X153500000Y-127000000D01*
X148000000Y-127000000D01*
X148000000Y-128500000D01*
X137288210Y-128500000D01*
X137200210Y-128387970D01*
X137041677Y-128250402D01*
X136859990Y-128145294D01*
X136661706Y-128076438D01*
X136453979Y-128046319D01*
X136453978Y-128046319D01*
X136384087Y-128049554D01*
X136244304Y-128056024D01*
X136040247Y-128105202D01*
X135849168Y-128192080D01*
X135677970Y-128313519D01*
X135657921Y-128334463D01*
X135532822Y-128465144D01*
X135532820Y-128465147D01*
X135499456Y-128500000D01*
X111288210Y-128500000D01*
X111200210Y-128387970D01*
X111041677Y-128250402D01*
X111041675Y-128250401D01*
X111000000Y-128214237D01*
X111000000Y-118500000D01*
X113500000Y-118500000D01*
X113500000Y-126500000D01*
G37*
%TD.AperFunction*%
%TD*%
%TA.AperFunction,Conductor*%
%TO.N,GND*%
G36*
X148946753Y-104506280D02*
G01*
X149060552Y-104517840D01*
X149134042Y-104540870D01*
X149214551Y-104566100D01*
X149258064Y-104590219D01*
X149355696Y-104644338D01*
X149478231Y-104749362D01*
X149577140Y-104876876D01*
X149648390Y-105021678D01*
X149689692Y-105180237D01*
X149699501Y-105307707D01*
X149699500Y-118286000D01*
X149698396Y-118293344D01*
X149699500Y-118307690D01*
X149699500Y-118321920D01*
X149701152Y-118329163D01*
X149711728Y-118466599D01*
X149712175Y-118482136D01*
X149713235Y-118486206D01*
X149713544Y-118490221D01*
X149716581Y-118499998D01*
X149718115Y-118504939D01*
X149755901Y-118650000D01*
X149769654Y-118702800D01*
X149773058Y-118717254D01*
X149773060Y-118717262D01*
X149773827Y-118718821D01*
X149774218Y-118720322D01*
X149774220Y-118720327D01*
X149774221Y-118720329D01*
X149780810Y-118733013D01*
X149873749Y-118921891D01*
X149879977Y-118935337D01*
X149879979Y-118935341D01*
X149881043Y-118936712D01*
X149881729Y-118938107D01*
X149890748Y-118949224D01*
X150019750Y-119115534D01*
X150024089Y-119121408D01*
X150028567Y-119127471D01*
X150029884Y-119128601D01*
X150030834Y-119129824D01*
X150030836Y-119129826D01*
X150041884Y-119138884D01*
X150182802Y-119259666D01*
X150201755Y-119275911D01*
X150212751Y-119285794D01*
X150214266Y-119286634D01*
X150215448Y-119287647D01*
X150215450Y-119287648D01*
X150215451Y-119287649D01*
X150218156Y-119289072D01*
X150228150Y-119294330D01*
X150412219Y-119396361D01*
X150425009Y-119403850D01*
X150426666Y-119404369D01*
X150428024Y-119405122D01*
X150428026Y-119405123D01*
X150441763Y-119409100D01*
X150642655Y-119472057D01*
X150656671Y-119476814D01*
X150658397Y-119476989D01*
X150659880Y-119477454D01*
X150674158Y-119478590D01*
X150868436Y-119498325D01*
X150877895Y-119500500D01*
X150889850Y-119500500D01*
X150901545Y-119501688D01*
X150901546Y-119501688D01*
X150911156Y-119500500D01*
X160589852Y-119500500D01*
X160628905Y-119504467D01*
X160760552Y-119517840D01*
X160815442Y-119535041D01*
X160914551Y-119566100D01*
X160939976Y-119580193D01*
X161055696Y-119644338D01*
X161146316Y-119722008D01*
X161178231Y-119749362D01*
X161277140Y-119876876D01*
X161348390Y-120021678D01*
X161389692Y-120180237D01*
X161399501Y-120307707D01*
X161399500Y-132989852D01*
X161382160Y-133160552D01*
X161346868Y-133273172D01*
X161333901Y-133314551D01*
X161268237Y-133433014D01*
X161255666Y-133455692D01*
X161241709Y-133471976D01*
X161150641Y-133578227D01*
X161023125Y-133677139D01*
X160878323Y-133748389D01*
X160754694Y-133780593D01*
X160719763Y-133789692D01*
X160592303Y-133799500D01*
X150893969Y-133799500D01*
X150835778Y-133780593D01*
X150799814Y-133731093D01*
X150799814Y-133669907D01*
X150835290Y-133620764D01*
X150841328Y-133616321D01*
X150893092Y-133578227D01*
X150914910Y-133562171D01*
X151028125Y-133428908D01*
X151107647Y-133273175D01*
X151111517Y-133257359D01*
X151149211Y-133103319D01*
X151150000Y-133090600D01*
X151150000Y-128567114D01*
X151134750Y-128436312D01*
X151102269Y-128346828D01*
X151075087Y-128271944D01*
X151058545Y-128246712D01*
X150999616Y-128156830D01*
X150979209Y-128125704D01*
X150907556Y-128057828D01*
X150852263Y-128005448D01*
X150764002Y-127954182D01*
X150701059Y-127917621D01*
X150701056Y-127917620D01*
X150533699Y-127866932D01*
X150359171Y-127856105D01*
X150186832Y-127885718D01*
X150025931Y-127954182D01*
X150025929Y-127954183D01*
X150025930Y-127954183D01*
X149885092Y-128057828D01*
X149810015Y-128146200D01*
X149771876Y-128191092D01*
X149692354Y-128346825D01*
X149692354Y-128346827D01*
X149692353Y-128346828D01*
X149654872Y-128500002D01*
X149650790Y-128516683D01*
X149650001Y-128529399D01*
X149650000Y-133052884D01*
X149665250Y-133183687D01*
X149724914Y-133348058D01*
X149820789Y-133494292D01*
X149820790Y-133494293D01*
X149947737Y-133614552D01*
X149948328Y-133614895D01*
X149949605Y-133616321D01*
X149956117Y-133622490D01*
X149955610Y-133623025D01*
X149989147Y-133660470D01*
X149995383Y-133721337D01*
X149964652Y-133774245D01*
X149898601Y-133799500D01*
X96893969Y-133799500D01*
X96835778Y-133780593D01*
X96799814Y-133731093D01*
X96799814Y-133669907D01*
X96835290Y-133620764D01*
X96841328Y-133616321D01*
X96893092Y-133578227D01*
X96914910Y-133562171D01*
X97028125Y-133428908D01*
X97107647Y-133273175D01*
X97111517Y-133257359D01*
X97149211Y-133103319D01*
X97150000Y-133090600D01*
X97150000Y-129248071D01*
X109399796Y-129248071D01*
X109439945Y-129447187D01*
X109519312Y-129634163D01*
X109580045Y-129722201D01*
X109634654Y-129801361D01*
X109634656Y-129801363D01*
X109781261Y-129941952D01*
X109882947Y-130005986D01*
X109953142Y-130050190D01*
X110143277Y-130121658D01*
X110293743Y-130145489D01*
X110343898Y-130153433D01*
X110343899Y-130153433D01*
X110546813Y-130144219D01*
X110743730Y-130094391D01*
X110835165Y-130050190D01*
X110926605Y-130005987D01*
X111010360Y-129941951D01*
X111087970Y-129882613D01*
X111158602Y-129801361D01*
X111221232Y-129729313D01*
X111320945Y-129552352D01*
X111383038Y-129358951D01*
X111404977Y-129157013D01*
X111405000Y-129150004D01*
X111384473Y-128947917D01*
X111338120Y-128800000D01*
X135451677Y-128800000D01*
X135422339Y-128940437D01*
X135400505Y-129044949D01*
X135399796Y-129248071D01*
X135439945Y-129447187D01*
X135519312Y-129634163D01*
X135580045Y-129722201D01*
X135634654Y-129801361D01*
X135634656Y-129801363D01*
X135781261Y-129941952D01*
X135882947Y-130005986D01*
X135953142Y-130050190D01*
X136143277Y-130121658D01*
X136293743Y-130145489D01*
X136343898Y-130153433D01*
X136343899Y-130153433D01*
X136546813Y-130144219D01*
X136743730Y-130094391D01*
X136835165Y-130050190D01*
X136926605Y-130005987D01*
X137010360Y-129941951D01*
X137087970Y-129882613D01*
X137158602Y-129801361D01*
X137221232Y-129729313D01*
X137320945Y-129552352D01*
X137383038Y-129358951D01*
X137404977Y-129157013D01*
X137405000Y-129150004D01*
X137384473Y-128947917D01*
X137338120Y-128800000D01*
X148000002Y-128800000D01*
X148133720Y-128768550D01*
X148133721Y-128768549D01*
X148133722Y-128768549D01*
X148221703Y-128702109D01*
X148279742Y-128608372D01*
X148287455Y-128567115D01*
X148300000Y-128500002D01*
X148300000Y-127300000D01*
X153500002Y-127300000D01*
X153633720Y-127268550D01*
X153633721Y-127268549D01*
X153633722Y-127268549D01*
X153721703Y-127202109D01*
X153779742Y-127108372D01*
X153800000Y-127000000D01*
X153800000Y-124400000D01*
X154100000Y-124400000D01*
X154100000Y-128000000D01*
X157200000Y-128000000D01*
X157200000Y-124400000D01*
X154100000Y-124400000D01*
X153800000Y-124400000D01*
X153800000Y-124000000D01*
X153774512Y-123891631D01*
X153768550Y-123866280D01*
X153768549Y-123866279D01*
X153768549Y-123866278D01*
X153702109Y-123778297D01*
X153608372Y-123720258D01*
X153608370Y-123720258D01*
X153608369Y-123720257D01*
X153500002Y-123700000D01*
X145999998Y-123700000D01*
X145866280Y-123731450D01*
X145866279Y-123731451D01*
X145866278Y-123731451D01*
X145778297Y-123797891D01*
X145720258Y-123891628D01*
X145700000Y-124000000D01*
X145700000Y-126200000D01*
X129304278Y-126200000D01*
X129305348Y-126112355D01*
X129305349Y-126112350D01*
X129305500Y-126100000D01*
X129285182Y-125958123D01*
X129225860Y-125827651D01*
X129225859Y-125827650D01*
X129220500Y-125815863D01*
X129220500Y-118774011D01*
X129385299Y-118690765D01*
X129547548Y-118564002D01*
X129574425Y-118532865D01*
X129682088Y-118408136D01*
X129739149Y-118307690D01*
X129783789Y-118229110D01*
X129835397Y-118073972D01*
X129848783Y-118033734D01*
X129850695Y-118018603D01*
X129874589Y-117829456D01*
X129875001Y-117799998D01*
X129873557Y-117785270D01*
X130305103Y-117785270D01*
X130322332Y-117990448D01*
X130379086Y-118188371D01*
X130379088Y-118188375D01*
X130451443Y-118329163D01*
X130473202Y-118371502D01*
X130601097Y-118532865D01*
X130637682Y-118564001D01*
X130757897Y-118666313D01*
X130914448Y-118753806D01*
X130937632Y-118766763D01*
X130999501Y-118786865D01*
X130999500Y-124597557D01*
X130977499Y-124622469D01*
X130916588Y-124752206D01*
X130916587Y-124752209D01*
X130894537Y-124893824D01*
X130913120Y-125035938D01*
X130920931Y-125053689D01*
X130970845Y-125167126D01*
X131063068Y-125276838D01*
X131182377Y-125356257D01*
X131307744Y-125395424D01*
X131319183Y-125398998D01*
X131462479Y-125401624D01*
X131462481Y-125401624D01*
X131554666Y-125376491D01*
X131600759Y-125363925D01*
X131722896Y-125288932D01*
X131733843Y-125276838D01*
X131819078Y-125182672D01*
X131881570Y-125053689D01*
X131905349Y-124912350D01*
X131905500Y-124900000D01*
X131885182Y-124758123D01*
X131825860Y-124627651D01*
X131800500Y-124598220D01*
X131800500Y-118753806D01*
X131925297Y-118690766D01*
X132052996Y-118590997D01*
X132087548Y-118564002D01*
X132114425Y-118532865D01*
X132222088Y-118408136D01*
X132279149Y-118307690D01*
X132323789Y-118229110D01*
X132375397Y-118073972D01*
X132388783Y-118033734D01*
X132390695Y-118018603D01*
X132414589Y-117829456D01*
X132415001Y-117799998D01*
X132413557Y-117785270D01*
X135385103Y-117785270D01*
X135402332Y-117990448D01*
X135459086Y-118188371D01*
X135459088Y-118188375D01*
X135531443Y-118329163D01*
X135553202Y-118371502D01*
X135681097Y-118532865D01*
X135717682Y-118564001D01*
X135837897Y-118666313D01*
X136017629Y-118766762D01*
X136017632Y-118766763D01*
X136213454Y-118830389D01*
X136417906Y-118854769D01*
X136417909Y-118854769D01*
X136623201Y-118838972D01*
X136821512Y-118783603D01*
X137005299Y-118690765D01*
X137167548Y-118564002D01*
X137194425Y-118532865D01*
X137302088Y-118408136D01*
X137359149Y-118307690D01*
X137403789Y-118229110D01*
X137455397Y-118073972D01*
X137468783Y-118033734D01*
X137470695Y-118018603D01*
X137494589Y-117829456D01*
X137495001Y-117799998D01*
X137493557Y-117785270D01*
X137925103Y-117785270D01*
X137942332Y-117990448D01*
X137999086Y-118188371D01*
X137999088Y-118188375D01*
X138071443Y-118329163D01*
X138093202Y-118371502D01*
X138221097Y-118532865D01*
X138257682Y-118564001D01*
X138377897Y-118666313D01*
X138557629Y-118766762D01*
X138557632Y-118766763D01*
X138753454Y-118830389D01*
X138957906Y-118854769D01*
X138957909Y-118854769D01*
X139163201Y-118838972D01*
X139361512Y-118783603D01*
X139545299Y-118690765D01*
X139707548Y-118564002D01*
X139734425Y-118532865D01*
X139842088Y-118408136D01*
X139899149Y-118307690D01*
X139943789Y-118229110D01*
X139995397Y-118073972D01*
X140008783Y-118033734D01*
X140010695Y-118018603D01*
X140034589Y-117829456D01*
X140035001Y-117799998D01*
X140014909Y-117595087D01*
X140010552Y-117580654D01*
X139955396Y-117397971D01*
X139858732Y-117216172D01*
X139858731Y-117216170D01*
X139728596Y-117056610D01*
X139684670Y-117020270D01*
X143725103Y-117020270D01*
X143742332Y-117225448D01*
X143799086Y-117423371D01*
X143799088Y-117423375D01*
X143887336Y-117595087D01*
X143893202Y-117606502D01*
X144021097Y-117767865D01*
X144041547Y-117785269D01*
X144177897Y-117901313D01*
X144357629Y-118001762D01*
X144357632Y-118001763D01*
X144553454Y-118065389D01*
X144757906Y-118089769D01*
X144757909Y-118089769D01*
X144963201Y-118073972D01*
X145161512Y-118018603D01*
X145345299Y-117925765D01*
X145507548Y-117799002D01*
X145534425Y-117767865D01*
X145642088Y-117643136D01*
X145687497Y-117563201D01*
X145743789Y-117464110D01*
X145808784Y-117268730D01*
X145834589Y-117064456D01*
X145835001Y-117034998D01*
X145814909Y-116830087D01*
X145814109Y-116827435D01*
X145755396Y-116632971D01*
X145658732Y-116451172D01*
X145658731Y-116451170D01*
X145528596Y-116291610D01*
X145369952Y-116160366D01*
X145188831Y-116062435D01*
X145188829Y-116062434D01*
X144992137Y-116001548D01*
X144787365Y-115980026D01*
X144613886Y-115995814D01*
X144582311Y-115998687D01*
X144492482Y-116025126D01*
X144384790Y-116056821D01*
X144288981Y-116106909D01*
X144202324Y-116152212D01*
X144202322Y-116152213D01*
X144202321Y-116152214D01*
X144041855Y-116281231D01*
X144041852Y-116281234D01*
X143909505Y-116438959D01*
X143902792Y-116451170D01*
X143810312Y-116619391D01*
X143748054Y-116815653D01*
X143725103Y-117020270D01*
X139684670Y-117020270D01*
X139569952Y-116925366D01*
X139388831Y-116827435D01*
X139388829Y-116827434D01*
X139192137Y-116766548D01*
X138987365Y-116745026D01*
X138816179Y-116760605D01*
X138782311Y-116763687D01*
X138692482Y-116790126D01*
X138584790Y-116821821D01*
X138568979Y-116830087D01*
X138402324Y-116917212D01*
X138402322Y-116917213D01*
X138402321Y-116917214D01*
X138241855Y-117046231D01*
X138241852Y-117046234D01*
X138109505Y-117203959D01*
X138073897Y-117268730D01*
X138010312Y-117384391D01*
X137948054Y-117580653D01*
X137925103Y-117785270D01*
X137493557Y-117785270D01*
X137474909Y-117595087D01*
X137470552Y-117580654D01*
X137415396Y-117397971D01*
X137318732Y-117216172D01*
X137318731Y-117216170D01*
X137188596Y-117056610D01*
X137029952Y-116925366D01*
X136848831Y-116827435D01*
X136848829Y-116827434D01*
X136652137Y-116766548D01*
X136447365Y-116745026D01*
X136276179Y-116760605D01*
X136242311Y-116763687D01*
X136152482Y-116790126D01*
X136044790Y-116821821D01*
X136028979Y-116830087D01*
X135862324Y-116917212D01*
X135862322Y-116917213D01*
X135862321Y-116917214D01*
X135701855Y-117046231D01*
X135701852Y-117046234D01*
X135569505Y-117203959D01*
X135533897Y-117268730D01*
X135470312Y-117384391D01*
X135408054Y-117580653D01*
X135385103Y-117785270D01*
X132413557Y-117785270D01*
X132394909Y-117595087D01*
X132390552Y-117580654D01*
X132335396Y-117397971D01*
X132238732Y-117216172D01*
X132238731Y-117216170D01*
X132108596Y-117056610D01*
X131949952Y-116925366D01*
X131768831Y-116827435D01*
X131768829Y-116827434D01*
X131572137Y-116766548D01*
X131367365Y-116745026D01*
X131196179Y-116760605D01*
X131162311Y-116763687D01*
X131072482Y-116790126D01*
X130964790Y-116821821D01*
X130948979Y-116830087D01*
X130782324Y-116917212D01*
X130782322Y-116917213D01*
X130782321Y-116917214D01*
X130621855Y-117046231D01*
X130621852Y-117046234D01*
X130489505Y-117203959D01*
X130453897Y-117268730D01*
X130390312Y-117384391D01*
X130328054Y-117580653D01*
X130305103Y-117785270D01*
X129873557Y-117785270D01*
X129854909Y-117595087D01*
X129850552Y-117580654D01*
X129795396Y-117397971D01*
X129698732Y-117216172D01*
X129698731Y-117216170D01*
X129568596Y-117056610D01*
X129409952Y-116925366D01*
X129228831Y-116827435D01*
X129228829Y-116827434D01*
X129032137Y-116766548D01*
X128827365Y-116745026D01*
X128656179Y-116760605D01*
X128622311Y-116763687D01*
X128532482Y-116790126D01*
X128424790Y-116821821D01*
X128408979Y-116830087D01*
X128242324Y-116917212D01*
X128242322Y-116917213D01*
X128242321Y-116917214D01*
X128081855Y-117046231D01*
X128081852Y-117046234D01*
X127949505Y-117203959D01*
X127913897Y-117268730D01*
X127850312Y-117384391D01*
X127788054Y-117580653D01*
X127765103Y-117785270D01*
X127782332Y-117990448D01*
X127839086Y-118188371D01*
X127839088Y-118188375D01*
X127911443Y-118329163D01*
X127933202Y-118371502D01*
X128061097Y-118532865D01*
X128097682Y-118564001D01*
X128217897Y-118666313D01*
X128319551Y-118723125D01*
X128397632Y-118766763D01*
X128397634Y-118766764D01*
X128419500Y-118778984D01*
X128419501Y-125774910D01*
X128386288Y-125812518D01*
X128377499Y-125822469D01*
X128319899Y-125945154D01*
X128316587Y-125952208D01*
X128294538Y-126093822D01*
X128308419Y-126200000D01*
X113800000Y-126200000D01*
X113800000Y-118499998D01*
X113768550Y-118366280D01*
X113768549Y-118366279D01*
X113768549Y-118366278D01*
X113702109Y-118278297D01*
X113608372Y-118220258D01*
X113608370Y-118220258D01*
X113608369Y-118220257D01*
X113500002Y-118200000D01*
X110999998Y-118200000D01*
X110866280Y-118231450D01*
X110866279Y-118231451D01*
X110866278Y-118231451D01*
X110778297Y-118297891D01*
X110720258Y-118391628D01*
X110720258Y-118391630D01*
X110720257Y-118391631D01*
X110700000Y-118499998D01*
X110700000Y-128194925D01*
X110553751Y-128156830D01*
X110350908Y-128146199D01*
X110185854Y-128171162D01*
X110150067Y-128176574D01*
X109959437Y-128246712D01*
X109786804Y-128353749D01*
X109786803Y-128353750D01*
X109639221Y-128493310D01*
X109558656Y-128608369D01*
X109522713Y-128659701D01*
X109442043Y-128846118D01*
X109400505Y-129044949D01*
X109399796Y-129248071D01*
X97150000Y-129248071D01*
X97150000Y-128567114D01*
X97134750Y-128436312D01*
X97102269Y-128346828D01*
X97075087Y-128271944D01*
X97058545Y-128246712D01*
X96999616Y-128156830D01*
X96979209Y-128125704D01*
X96907556Y-128057828D01*
X96852263Y-128005448D01*
X96764002Y-127954182D01*
X96701059Y-127917621D01*
X96701056Y-127917620D01*
X96533699Y-127866932D01*
X96359171Y-127856105D01*
X96186832Y-127885718D01*
X96025931Y-127954182D01*
X96025929Y-127954183D01*
X96025930Y-127954183D01*
X95885092Y-128057828D01*
X95810015Y-128146200D01*
X95771876Y-128191092D01*
X95692354Y-128346825D01*
X95692354Y-128346827D01*
X95692353Y-128346828D01*
X95654872Y-128500002D01*
X95650790Y-128516683D01*
X95650001Y-128529399D01*
X95650000Y-133052884D01*
X95665250Y-133183687D01*
X95724914Y-133348058D01*
X95820789Y-133494292D01*
X95820790Y-133494293D01*
X95947737Y-133614552D01*
X95948328Y-133614895D01*
X95949605Y-133616321D01*
X95956117Y-133622490D01*
X95955610Y-133623025D01*
X95989147Y-133660470D01*
X95995383Y-133721337D01*
X95964652Y-133774245D01*
X95898601Y-133799500D01*
X95810149Y-133799500D01*
X95713595Y-133789692D01*
X95639448Y-133782160D01*
X95485447Y-133733900D01*
X95428583Y-133702380D01*
X95344307Y-133655665D01*
X95235225Y-133562171D01*
X95221773Y-133550641D01*
X95122861Y-133423125D01*
X95112873Y-133402827D01*
X95051611Y-133278323D01*
X95010308Y-133119763D01*
X95000500Y-132992305D01*
X95000500Y-120012084D01*
X95016339Y-119881198D01*
X95058638Y-119769259D01*
X95068911Y-119754313D01*
X95126416Y-119670643D01*
X95215764Y-119591037D01*
X95321518Y-119535042D01*
X95419172Y-119510513D01*
X95443239Y-119504468D01*
X95506294Y-119500500D01*
X95784504Y-119500500D01*
X95790529Y-119501492D01*
X95790531Y-119501492D01*
X95794034Y-119501272D01*
X95806303Y-119500500D01*
X95821920Y-119500500D01*
X95827868Y-119499143D01*
X95875722Y-119496131D01*
X95899458Y-119494638D01*
X95913433Y-119494357D01*
X95915145Y-119494323D01*
X95918706Y-119493429D01*
X95922193Y-119493209D01*
X95937098Y-119488808D01*
X96045264Y-119461638D01*
X96057196Y-119458641D01*
X96058388Y-119458868D01*
X96058389Y-119458868D01*
X96091598Y-119450001D01*
X96120857Y-119442651D01*
X96120961Y-119442625D01*
X96122887Y-119441646D01*
X96125144Y-119441043D01*
X96151013Y-119427346D01*
X96182400Y-119411388D01*
X96183246Y-119410279D01*
X96209553Y-119396350D01*
X96254586Y-119372507D01*
X96255797Y-119372442D01*
X96285951Y-119355899D01*
X96312690Y-119341741D01*
X96314325Y-119340332D01*
X96316374Y-119339208D01*
X96316375Y-119339207D01*
X96316377Y-119339206D01*
X96338249Y-119319718D01*
X96364913Y-119296743D01*
X96365471Y-119295465D01*
X96372646Y-119289072D01*
X96425733Y-119241774D01*
X96426894Y-119241422D01*
X96452208Y-119218185D01*
X96474821Y-119198038D01*
X96476075Y-119196277D01*
X96477795Y-119194698D01*
X96480406Y-119190900D01*
X96494371Y-119170580D01*
X96502645Y-119158959D01*
X96514797Y-119141892D01*
X96514797Y-119141891D01*
X96514800Y-119141887D01*
X96515036Y-119140513D01*
X96532199Y-119115540D01*
X96560757Y-119073989D01*
X96561800Y-119073371D01*
X96580816Y-119044804D01*
X96597997Y-119019806D01*
X96598796Y-119017793D01*
X96600084Y-119015857D01*
X96600086Y-119015854D01*
X96610426Y-118988491D01*
X96623423Y-118955746D01*
X96623325Y-118954355D01*
X96651858Y-118878844D01*
X96652723Y-118877995D01*
X96664388Y-118845684D01*
X96675095Y-118817348D01*
X96675098Y-118817340D01*
X96675393Y-118815199D01*
X96676186Y-118813003D01*
X96678370Y-118794957D01*
X96679709Y-118783896D01*
X96684512Y-118749057D01*
X96684085Y-118747732D01*
X96697942Y-118633227D01*
X96700500Y-118622103D01*
X96700500Y-118612087D01*
X96701681Y-118602328D01*
X96700500Y-118590994D01*
X96700500Y-117020270D01*
X100545103Y-117020270D01*
X100562332Y-117225448D01*
X100619086Y-117423371D01*
X100619088Y-117423375D01*
X100707336Y-117595087D01*
X100713202Y-117606502D01*
X100841097Y-117767865D01*
X100861547Y-117785269D01*
X100997897Y-117901313D01*
X101177629Y-118001762D01*
X101177632Y-118001763D01*
X101373454Y-118065389D01*
X101577906Y-118089769D01*
X101577909Y-118089769D01*
X101783201Y-118073972D01*
X101981512Y-118018603D01*
X102165299Y-117925765D01*
X102327548Y-117799002D01*
X102354425Y-117767865D01*
X102462088Y-117643136D01*
X102507497Y-117563201D01*
X102563789Y-117464110D01*
X102628784Y-117268730D01*
X102654589Y-117064456D01*
X102655001Y-117034998D01*
X102646667Y-116950000D01*
X120145000Y-116950000D01*
X120145000Y-118650000D01*
X120160605Y-118728450D01*
X120205043Y-118794957D01*
X120271550Y-118839395D01*
X120350000Y-118855000D01*
X122050000Y-118855000D01*
X122128450Y-118839395D01*
X122194957Y-118794957D01*
X122239395Y-118728450D01*
X122255000Y-118650000D01*
X122255000Y-117785270D01*
X125225103Y-117785270D01*
X125242332Y-117990448D01*
X125299086Y-118188371D01*
X125299088Y-118188375D01*
X125371443Y-118329163D01*
X125393202Y-118371502D01*
X125521097Y-118532865D01*
X125557682Y-118564001D01*
X125677897Y-118666313D01*
X125857629Y-118766762D01*
X125857632Y-118766763D01*
X126053454Y-118830389D01*
X126257906Y-118854769D01*
X126257909Y-118854769D01*
X126463201Y-118838972D01*
X126661512Y-118783603D01*
X126845299Y-118690765D01*
X127007548Y-118564002D01*
X127034425Y-118532865D01*
X127142088Y-118408136D01*
X127199149Y-118307690D01*
X127243789Y-118229110D01*
X127295397Y-118073972D01*
X127308783Y-118033734D01*
X127310695Y-118018603D01*
X127334589Y-117829456D01*
X127335001Y-117799998D01*
X127314909Y-117595087D01*
X127310552Y-117580654D01*
X127255396Y-117397971D01*
X127158732Y-117216172D01*
X127158731Y-117216170D01*
X127028596Y-117056610D01*
X126869952Y-116925366D01*
X126688831Y-116827435D01*
X126688829Y-116827434D01*
X126492137Y-116766548D01*
X126287365Y-116745026D01*
X126116179Y-116760605D01*
X126082311Y-116763687D01*
X125992482Y-116790126D01*
X125884790Y-116821821D01*
X125868979Y-116830087D01*
X125702324Y-116917212D01*
X125702322Y-116917213D01*
X125702321Y-116917214D01*
X125541855Y-117046231D01*
X125541852Y-117046234D01*
X125409505Y-117203959D01*
X125373897Y-117268730D01*
X125310312Y-117384391D01*
X125248054Y-117580653D01*
X125225103Y-117785270D01*
X122255000Y-117785270D01*
X122255000Y-116950000D01*
X122239395Y-116871550D01*
X122194957Y-116805043D01*
X122128450Y-116760605D01*
X122050000Y-116745000D01*
X120350000Y-116745000D01*
X120271550Y-116760605D01*
X120205043Y-116805043D01*
X120160605Y-116871550D01*
X120145000Y-116950000D01*
X102646667Y-116950000D01*
X102634909Y-116830087D01*
X102634109Y-116827435D01*
X102575396Y-116632971D01*
X102478732Y-116451172D01*
X102478731Y-116451170D01*
X102348596Y-116291610D01*
X102189952Y-116160366D01*
X102008831Y-116062435D01*
X102008829Y-116062434D01*
X101812137Y-116001548D01*
X101607365Y-115980026D01*
X101433886Y-115995814D01*
X101402311Y-115998687D01*
X101312482Y-116025126D01*
X101204790Y-116056821D01*
X101108981Y-116106909D01*
X101022324Y-116152212D01*
X101022322Y-116152213D01*
X101022321Y-116152214D01*
X100861855Y-116281231D01*
X100861852Y-116281234D01*
X100729505Y-116438959D01*
X100722792Y-116451170D01*
X100630312Y-116619391D01*
X100568054Y-116815653D01*
X100545103Y-117020270D01*
X96700500Y-117020270D01*
X96700500Y-114480270D01*
X100545103Y-114480270D01*
X100562332Y-114685448D01*
X100619086Y-114883371D01*
X100713202Y-115066502D01*
X100841097Y-115227865D01*
X100877682Y-115259001D01*
X100997897Y-115361313D01*
X101177629Y-115461762D01*
X101177632Y-115461763D01*
X101373454Y-115525389D01*
X101577906Y-115549769D01*
X101577909Y-115549769D01*
X101783201Y-115533972D01*
X101981512Y-115478603D01*
X102165299Y-115385765D01*
X102327548Y-115259002D01*
X102416235Y-115156257D01*
X102462088Y-115103136D01*
X102539352Y-114967126D01*
X102563789Y-114924110D01*
X102628784Y-114728730D01*
X102654589Y-114524456D01*
X102655001Y-114494998D01*
X102634909Y-114290087D01*
X102630552Y-114275654D01*
X102575396Y-114092971D01*
X102478732Y-113911172D01*
X102478731Y-113911170D01*
X102348596Y-113751610D01*
X102189952Y-113620366D01*
X102008831Y-113522435D01*
X102008829Y-113522434D01*
X101812137Y-113461548D01*
X101607365Y-113440026D01*
X101433886Y-113455814D01*
X101402311Y-113458687D01*
X101346743Y-113475042D01*
X101204790Y-113516821D01*
X101160373Y-113540042D01*
X101022324Y-113612212D01*
X101022322Y-113612213D01*
X101022321Y-113612214D01*
X100861855Y-113741231D01*
X100861852Y-113741234D01*
X100729505Y-113898959D01*
X100722792Y-113911170D01*
X100630312Y-114079391D01*
X100568054Y-114275653D01*
X100545103Y-114480270D01*
X96700500Y-114480270D01*
X96700500Y-111940270D01*
X100545103Y-111940270D01*
X100562332Y-112145448D01*
X100619086Y-112343371D01*
X100619088Y-112343375D01*
X100655920Y-112415042D01*
X100713202Y-112526502D01*
X100841097Y-112687865D01*
X100877682Y-112719001D01*
X100997897Y-112821313D01*
X101177629Y-112921762D01*
X101177632Y-112921763D01*
X101373454Y-112985389D01*
X101577906Y-113009769D01*
X101577909Y-113009769D01*
X101783201Y-112993972D01*
X101981512Y-112938603D01*
X102165299Y-112845765D01*
X102327548Y-112719002D01*
X102354425Y-112687865D01*
X102462088Y-112563136D01*
X102507497Y-112483201D01*
X102563789Y-112384110D01*
X102628784Y-112188730D01*
X102654589Y-111984456D01*
X102655001Y-111954998D01*
X102649003Y-111893824D01*
X114194537Y-111893824D01*
X114213120Y-112035938D01*
X114270845Y-112167126D01*
X114374500Y-112290438D01*
X114374501Y-113286023D01*
X114370758Y-113328805D01*
X114381936Y-113370520D01*
X114389433Y-113413038D01*
X114396702Y-113425628D01*
X114399465Y-113435939D01*
X114400466Y-113439674D01*
X114425231Y-113475042D01*
X114446824Y-113512442D01*
X114479716Y-113540042D01*
X115588677Y-114649004D01*
X115613120Y-114835938D01*
X115633993Y-114883375D01*
X115670845Y-114967126D01*
X115763068Y-115076838D01*
X115882377Y-115156257D01*
X116007744Y-115195424D01*
X116019183Y-115198998D01*
X116162479Y-115201624D01*
X116162481Y-115201624D01*
X116254666Y-115176491D01*
X116300759Y-115163925D01*
X116422896Y-115088932D01*
X116433843Y-115076838D01*
X116519078Y-114982672D01*
X116581570Y-114853689D01*
X116605349Y-114712350D01*
X116605500Y-114700000D01*
X116585182Y-114558123D01*
X116549785Y-114480270D01*
X143725103Y-114480270D01*
X143742332Y-114685448D01*
X143799086Y-114883371D01*
X143893202Y-115066502D01*
X144021097Y-115227865D01*
X144057682Y-115259001D01*
X144177897Y-115361313D01*
X144357629Y-115461762D01*
X144357632Y-115461763D01*
X144553454Y-115525389D01*
X144757906Y-115549769D01*
X144757909Y-115549769D01*
X144963201Y-115533972D01*
X145161512Y-115478603D01*
X145345299Y-115385765D01*
X145507548Y-115259002D01*
X145596235Y-115156257D01*
X145642088Y-115103136D01*
X145719352Y-114967126D01*
X145743789Y-114924110D01*
X145808784Y-114728730D01*
X145834589Y-114524456D01*
X145835001Y-114494998D01*
X145814909Y-114290087D01*
X145810552Y-114275654D01*
X145755396Y-114092971D01*
X145658732Y-113911172D01*
X145658731Y-113911170D01*
X145528596Y-113751610D01*
X145369952Y-113620366D01*
X145188831Y-113522435D01*
X145188829Y-113522434D01*
X144992137Y-113461548D01*
X144787365Y-113440026D01*
X144613886Y-113455814D01*
X144582311Y-113458687D01*
X144526743Y-113475042D01*
X144384790Y-113516821D01*
X144340373Y-113540042D01*
X144202324Y-113612212D01*
X144202322Y-113612213D01*
X144202321Y-113612214D01*
X144041855Y-113741231D01*
X144041852Y-113741234D01*
X143909505Y-113898959D01*
X143902792Y-113911170D01*
X143810312Y-114079391D01*
X143748054Y-114275653D01*
X143725103Y-114480270D01*
X116549785Y-114480270D01*
X116525860Y-114427651D01*
X116525860Y-114427650D01*
X116432303Y-114319074D01*
X116312033Y-114241118D01*
X116174718Y-114200052D01*
X116059676Y-114199350D01*
X115154150Y-113293824D01*
X123694537Y-113293824D01*
X123713120Y-113435938D01*
X123751180Y-113522434D01*
X123770845Y-113567126D01*
X123863068Y-113676838D01*
X123982377Y-113756257D01*
X124070888Y-113783910D01*
X124119182Y-113798998D01*
X124178906Y-113800092D01*
X124240903Y-113801228D01*
X124559956Y-114120282D01*
X124587559Y-114153178D01*
X124587561Y-114153179D01*
X124624965Y-114174775D01*
X124660325Y-114199534D01*
X124674367Y-114203297D01*
X124681638Y-114207494D01*
X124686962Y-114210568D01*
X124721988Y-114216744D01*
X124729487Y-114218067D01*
X124750341Y-114223654D01*
X124771194Y-114229242D01*
X124771195Y-114229242D01*
X124779748Y-114228494D01*
X124813965Y-114225500D01*
X126886035Y-114225500D01*
X126928805Y-114229242D01*
X126970508Y-114218067D01*
X127013036Y-114210569D01*
X127013038Y-114210568D01*
X127025633Y-114203296D01*
X127037741Y-114200052D01*
X127039675Y-114199534D01*
X127055154Y-114188695D01*
X127075034Y-114174775D01*
X127112441Y-114153178D01*
X127112442Y-114153177D01*
X127140052Y-114120273D01*
X127960571Y-113299756D01*
X128060678Y-113301591D01*
X128062480Y-113301624D01*
X128062481Y-113301624D01*
X128131619Y-113282775D01*
X128200759Y-113263925D01*
X128322896Y-113188932D01*
X128356137Y-113152208D01*
X128419078Y-113082672D01*
X128481570Y-112953689D01*
X128500509Y-112841118D01*
X128505349Y-112812352D01*
X128505352Y-112812067D01*
X128505500Y-112800000D01*
X128485182Y-112658123D01*
X128425860Y-112527651D01*
X128425860Y-112527650D01*
X128332303Y-112419074D01*
X128212033Y-112341118D01*
X128074718Y-112300051D01*
X127931398Y-112299177D01*
X127931396Y-112299177D01*
X127793589Y-112338562D01*
X127793586Y-112338563D01*
X127672375Y-112415041D01*
X127597351Y-112499991D01*
X127577499Y-112522469D01*
X127519899Y-112645154D01*
X127516587Y-112652208D01*
X127494538Y-112793822D01*
X127494538Y-112793824D01*
X127500472Y-112839201D01*
X126765174Y-113574500D01*
X124934827Y-113574500D01*
X124704955Y-113344629D01*
X124705500Y-113299998D01*
X124685182Y-113158124D01*
X124682493Y-113152208D01*
X124625860Y-113027651D01*
X124625860Y-113027650D01*
X124532303Y-112919074D01*
X124412033Y-112841118D01*
X124274718Y-112800051D01*
X124131398Y-112799177D01*
X124131396Y-112799177D01*
X123993589Y-112838562D01*
X123993586Y-112838563D01*
X123872375Y-112915041D01*
X123838244Y-112953688D01*
X123777499Y-113022469D01*
X123749234Y-113082672D01*
X123716587Y-113152208D01*
X123694537Y-113293824D01*
X115154150Y-113293824D01*
X115025500Y-113165174D01*
X115025500Y-112286055D01*
X115113591Y-112188734D01*
X115119078Y-112182672D01*
X115181570Y-112053689D01*
X115200651Y-111940270D01*
X143725103Y-111940270D01*
X143742332Y-112145448D01*
X143799086Y-112343371D01*
X143799088Y-112343375D01*
X143835920Y-112415042D01*
X143893202Y-112526502D01*
X144021097Y-112687865D01*
X144057682Y-112719001D01*
X144177897Y-112821313D01*
X144357629Y-112921762D01*
X144357632Y-112921763D01*
X144553454Y-112985389D01*
X144757906Y-113009769D01*
X144757909Y-113009769D01*
X144963201Y-112993972D01*
X145161512Y-112938603D01*
X145345299Y-112845765D01*
X145507548Y-112719002D01*
X145534425Y-112687865D01*
X145642088Y-112563136D01*
X145687497Y-112483201D01*
X145743789Y-112384110D01*
X145808784Y-112188730D01*
X145834589Y-111984456D01*
X145835001Y-111954998D01*
X145814909Y-111750087D01*
X145810552Y-111735654D01*
X145755396Y-111552971D01*
X145674087Y-111400051D01*
X145658731Y-111371170D01*
X145528596Y-111211610D01*
X145369952Y-111080366D01*
X145188831Y-110982435D01*
X145188829Y-110982434D01*
X144992137Y-110921548D01*
X144787365Y-110900026D01*
X144613886Y-110915814D01*
X144582311Y-110918687D01*
X144499065Y-110943188D01*
X144384790Y-110976821D01*
X144346909Y-110996625D01*
X144202324Y-111072212D01*
X144202322Y-111072213D01*
X144202321Y-111072214D01*
X144041855Y-111201231D01*
X144041852Y-111201234D01*
X143909505Y-111358959D01*
X143887395Y-111399177D01*
X143810312Y-111539391D01*
X143748054Y-111735653D01*
X143725103Y-111940270D01*
X115200651Y-111940270D01*
X115205349Y-111912350D01*
X115205500Y-111900000D01*
X115185182Y-111758123D01*
X115127976Y-111632305D01*
X115125860Y-111627650D01*
X115032303Y-111519074D01*
X114912033Y-111441118D01*
X114774718Y-111400051D01*
X114631398Y-111399177D01*
X114631396Y-111399177D01*
X114502767Y-111435939D01*
X114493586Y-111438563D01*
X114372375Y-111515041D01*
X114344926Y-111546122D01*
X114277499Y-111622469D01*
X114224360Y-111735653D01*
X114216587Y-111752208D01*
X114194537Y-111893824D01*
X102649003Y-111893824D01*
X102634909Y-111750087D01*
X102630552Y-111735654D01*
X102575396Y-111552971D01*
X102494087Y-111400051D01*
X102478731Y-111371170D01*
X102415649Y-111293824D01*
X123194538Y-111293824D01*
X123199406Y-111331054D01*
X123199177Y-111368604D01*
X123208651Y-111401752D01*
X123213121Y-111435939D01*
X123214276Y-111438563D01*
X123228245Y-111470312D01*
X123238562Y-111506411D01*
X123256959Y-111535570D01*
X123270844Y-111567125D01*
X123270845Y-111567126D01*
X123295004Y-111595866D01*
X123315042Y-111627625D01*
X123340884Y-111650448D01*
X123363068Y-111676838D01*
X123394325Y-111697645D01*
X123422467Y-111722500D01*
X123422469Y-111722501D01*
X123453679Y-111737154D01*
X123482377Y-111756257D01*
X123482381Y-111756259D01*
X123518221Y-111767456D01*
X123552206Y-111783412D01*
X123586272Y-111788716D01*
X123593391Y-111790940D01*
X123619180Y-111798997D01*
X123656722Y-111799685D01*
X123661955Y-111800500D01*
X123701168Y-111800500D01*
X123756642Y-111801517D01*
X123762479Y-111801624D01*
X123762481Y-111801624D01*
X123766604Y-111800500D01*
X125701168Y-111800500D01*
X125762481Y-111801624D01*
X125801672Y-111790940D01*
X125841877Y-111785182D01*
X125845772Y-111783411D01*
X125870465Y-111772184D01*
X125900758Y-111763925D01*
X125935368Y-111742674D01*
X125972349Y-111725860D01*
X125972351Y-111725859D01*
X125984245Y-111715609D01*
X125996141Y-111705359D01*
X126022897Y-111688931D01*
X126050153Y-111658819D01*
X126080926Y-111632303D01*
X126098006Y-111605952D01*
X126119078Y-111582672D01*
X126136787Y-111546122D01*
X126156932Y-111515042D01*
X126158883Y-111512032D01*
X126167881Y-111481943D01*
X126181570Y-111453688D01*
X126188308Y-111413640D01*
X126199948Y-111374718D01*
X126200140Y-111343313D01*
X126205349Y-111312353D01*
X126205354Y-111311935D01*
X126205500Y-111300000D01*
X126200613Y-111265872D01*
X126200823Y-111231396D01*
X126190505Y-111195295D01*
X126185182Y-111158123D01*
X126182493Y-111152207D01*
X126170912Y-111126738D01*
X126161438Y-111093589D01*
X126141403Y-111061833D01*
X126125860Y-111027651D01*
X126103357Y-111001535D01*
X126084959Y-110972377D01*
X126084958Y-110972375D01*
X126056811Y-110947516D01*
X126032303Y-110919074D01*
X126032302Y-110919073D01*
X126003375Y-110900324D01*
X125977531Y-110877499D01*
X125943549Y-110861544D01*
X125912035Y-110841119D01*
X125912034Y-110841119D01*
X125912033Y-110841118D01*
X125879000Y-110831239D01*
X125847794Y-110816588D01*
X125810698Y-110810812D01*
X125774719Y-110800052D01*
X125767822Y-110800010D01*
X125740238Y-110799841D01*
X125738045Y-110799500D01*
X125684302Y-110799500D01*
X125638450Y-110799220D01*
X125631400Y-110799177D01*
X125631396Y-110799177D01*
X125630266Y-110799500D01*
X123684302Y-110799500D01*
X123635175Y-110799200D01*
X123631398Y-110799177D01*
X123631396Y-110799177D01*
X123595295Y-110809495D01*
X123562260Y-110814226D01*
X123558122Y-110814818D01*
X123542430Y-110821953D01*
X123526737Y-110829088D01*
X123493589Y-110838562D01*
X123461833Y-110858597D01*
X123427651Y-110874140D01*
X123401535Y-110896643D01*
X123384480Y-110907404D01*
X123372375Y-110915042D01*
X123347516Y-110943189D01*
X123319074Y-110967697D01*
X123319073Y-110967698D01*
X123309522Y-110982434D01*
X123300324Y-110996625D01*
X123277499Y-111022469D01*
X123261545Y-111056450D01*
X123241119Y-111087965D01*
X123241118Y-111087967D01*
X123231239Y-111121000D01*
X123216588Y-111152206D01*
X123216588Y-111152207D01*
X123210812Y-111189302D01*
X123200052Y-111225281D01*
X123199841Y-111259758D01*
X123198889Y-111265874D01*
X123194538Y-111293824D01*
X102415649Y-111293824D01*
X102348596Y-111211610D01*
X102189952Y-111080366D01*
X102008831Y-110982435D01*
X102008829Y-110982434D01*
X101812137Y-110921548D01*
X101607365Y-110900026D01*
X101433886Y-110915814D01*
X101402311Y-110918687D01*
X101319065Y-110943188D01*
X101204790Y-110976821D01*
X101166909Y-110996625D01*
X101022324Y-111072212D01*
X101022322Y-111072213D01*
X101022321Y-111072214D01*
X100861855Y-111201231D01*
X100861852Y-111201234D01*
X100729505Y-111358959D01*
X100707395Y-111399177D01*
X100630312Y-111539391D01*
X100568054Y-111735653D01*
X100545103Y-111940270D01*
X96700500Y-111940270D01*
X96700500Y-109400270D01*
X100545103Y-109400270D01*
X100562332Y-109605448D01*
X100619086Y-109803371D01*
X100619088Y-109803375D01*
X100647225Y-109858123D01*
X100713202Y-109986502D01*
X100841097Y-110147865D01*
X100877682Y-110179001D01*
X100997897Y-110281313D01*
X101177629Y-110381762D01*
X101177632Y-110381763D01*
X101373454Y-110445389D01*
X101577906Y-110469769D01*
X101577909Y-110469769D01*
X101783201Y-110453972D01*
X101981512Y-110398603D01*
X102165299Y-110305765D01*
X102327548Y-110179002D01*
X102327549Y-110179001D01*
X102462088Y-110023136D01*
X102478739Y-109993824D01*
X113694537Y-109993824D01*
X113713120Y-110135938D01*
X113732069Y-110179002D01*
X113770845Y-110267126D01*
X113863068Y-110376838D01*
X113982377Y-110456257D01*
X114107744Y-110495424D01*
X114119183Y-110498998D01*
X114262479Y-110501624D01*
X114262481Y-110501624D01*
X114379323Y-110469769D01*
X114400759Y-110463925D01*
X114522896Y-110388932D01*
X114598174Y-110305766D01*
X114619078Y-110282672D01*
X114681570Y-110153689D01*
X114689496Y-110106576D01*
X114705349Y-110012352D01*
X114705352Y-110012067D01*
X114705500Y-110000000D01*
X114685182Y-109858123D01*
X114625860Y-109727651D01*
X114600500Y-109698220D01*
X114600500Y-108436108D01*
X114619407Y-108377917D01*
X114668907Y-108341953D01*
X114730093Y-108341953D01*
X114775283Y-108372406D01*
X114863068Y-108476838D01*
X114982377Y-108556257D01*
X115098532Y-108592546D01*
X115119183Y-108598998D01*
X115262479Y-108601624D01*
X115262481Y-108601624D01*
X115354666Y-108576491D01*
X115400759Y-108563925D01*
X115504055Y-108500500D01*
X119134096Y-108500500D01*
X119211654Y-108578057D01*
X119240093Y-108592548D01*
X119265907Y-108611302D01*
X119296256Y-108621163D01*
X119324693Y-108635653D01*
X119356214Y-108640646D01*
X119386565Y-108650507D01*
X119513433Y-108650507D01*
X119513455Y-108650500D01*
X119784108Y-108650500D01*
X120171932Y-109038325D01*
X120171943Y-109038346D01*
X120261652Y-109128055D01*
X120261654Y-109128056D01*
X120261655Y-109128057D01*
X120290089Y-109142544D01*
X120315906Y-109161301D01*
X120346255Y-109171162D01*
X120374692Y-109185652D01*
X120406213Y-109190645D01*
X120436564Y-109200506D01*
X120563433Y-109200506D01*
X120563455Y-109200499D01*
X126494101Y-109200499D01*
X126552292Y-109219406D01*
X126588256Y-109268906D01*
X126588256Y-109330092D01*
X126564105Y-109369503D01*
X126134106Y-109799501D01*
X119765893Y-109799501D01*
X119128065Y-109161675D01*
X119128053Y-109161651D01*
X119038344Y-109071943D01*
X119009905Y-109057452D01*
X118984091Y-109038698D01*
X118953743Y-109028837D01*
X118925305Y-109014347D01*
X118893784Y-109009354D01*
X118863433Y-108999493D01*
X118736565Y-108999493D01*
X118736543Y-108999500D01*
X115802104Y-108999500D01*
X115712033Y-108941118D01*
X115712032Y-108941118D01*
X115712031Y-108941117D01*
X115574718Y-108900051D01*
X115431398Y-108899177D01*
X115431396Y-108899177D01*
X115293589Y-108938562D01*
X115293586Y-108938563D01*
X115172375Y-109015041D01*
X115134918Y-109057454D01*
X115077499Y-109122469D01*
X115019899Y-109245154D01*
X115016587Y-109252208D01*
X114994537Y-109393824D01*
X115013120Y-109535938D01*
X115062752Y-109648734D01*
X115070845Y-109667126D01*
X115163068Y-109776838D01*
X115282377Y-109856257D01*
X115407744Y-109895424D01*
X115419183Y-109898998D01*
X115562479Y-109901624D01*
X115562481Y-109901624D01*
X115654666Y-109876491D01*
X115700759Y-109863925D01*
X115804055Y-109800500D01*
X118634105Y-109800500D01*
X119271934Y-110438329D01*
X119271943Y-110438348D01*
X119361652Y-110528057D01*
X119390087Y-110542545D01*
X119390090Y-110542547D01*
X119415906Y-110561304D01*
X119436395Y-110567961D01*
X119446256Y-110571165D01*
X119474693Y-110585654D01*
X119506214Y-110590647D01*
X119536564Y-110600508D01*
X119663432Y-110600508D01*
X119663454Y-110600501D01*
X126236544Y-110600501D01*
X126236566Y-110600508D01*
X126363434Y-110600508D01*
X126393785Y-110590647D01*
X126425306Y-110585654D01*
X126453744Y-110571164D01*
X126484092Y-110561303D01*
X126509906Y-110542549D01*
X126538345Y-110528058D01*
X126628054Y-110438350D01*
X126628066Y-110438326D01*
X127666122Y-109400270D01*
X143725103Y-109400270D01*
X143742332Y-109605448D01*
X143799086Y-109803371D01*
X143799088Y-109803375D01*
X143827225Y-109858123D01*
X143893202Y-109986502D01*
X144021097Y-110147865D01*
X144057682Y-110179001D01*
X144177897Y-110281313D01*
X144357629Y-110381762D01*
X144357632Y-110381763D01*
X144553454Y-110445389D01*
X144757906Y-110469769D01*
X144757909Y-110469769D01*
X144963201Y-110453972D01*
X145161512Y-110398603D01*
X145345299Y-110305765D01*
X145507548Y-110179002D01*
X145507549Y-110179001D01*
X145642088Y-110023136D01*
X145712608Y-109898998D01*
X145743789Y-109844110D01*
X145784254Y-109722469D01*
X145808783Y-109648734D01*
X145814252Y-109605448D01*
X145834589Y-109444456D01*
X145835001Y-109414998D01*
X145814909Y-109210087D01*
X145812017Y-109200506D01*
X145755396Y-109012971D01*
X145658732Y-108831172D01*
X145658731Y-108831170D01*
X145528596Y-108671610D01*
X145369952Y-108540366D01*
X145188831Y-108442435D01*
X145188829Y-108442434D01*
X144992137Y-108381548D01*
X144787365Y-108360026D01*
X144613886Y-108375814D01*
X144582311Y-108378687D01*
X144492482Y-108405126D01*
X144384790Y-108436821D01*
X144308245Y-108476838D01*
X144202324Y-108532212D01*
X144202322Y-108532213D01*
X144202321Y-108532214D01*
X144041855Y-108661231D01*
X144041852Y-108661234D01*
X143909505Y-108818959D01*
X143902792Y-108831170D01*
X143810312Y-108999391D01*
X143748054Y-109195653D01*
X143725103Y-109400270D01*
X127666122Y-109400270D01*
X130365628Y-106700766D01*
X130500759Y-106663925D01*
X130622896Y-106588932D01*
X130666175Y-106541118D01*
X130719078Y-106482672D01*
X130761185Y-106395764D01*
X130803571Y-106351640D01*
X130863799Y-106340858D01*
X130918862Y-106367535D01*
X130940894Y-106399058D01*
X130970845Y-106467126D01*
X131063068Y-106576838D01*
X131182377Y-106656257D01*
X131307744Y-106695424D01*
X131319183Y-106698998D01*
X131462479Y-106701624D01*
X131462481Y-106701624D01*
X131554666Y-106676491D01*
X131600759Y-106663925D01*
X131722896Y-106588932D01*
X131766175Y-106541118D01*
X131819078Y-106482672D01*
X131881570Y-106353689D01*
X131892088Y-106291170D01*
X131905349Y-106212352D01*
X131905352Y-106212067D01*
X131905500Y-106200000D01*
X131885182Y-106058123D01*
X131870122Y-106025000D01*
X143725000Y-106025000D01*
X143725000Y-107725000D01*
X143740605Y-107803450D01*
X143785043Y-107869957D01*
X143851550Y-107914395D01*
X143930000Y-107930000D01*
X145630000Y-107930000D01*
X145708450Y-107914395D01*
X145774957Y-107869957D01*
X145819395Y-107803450D01*
X145835000Y-107725000D01*
X145835000Y-106025000D01*
X145819395Y-105946550D01*
X145774957Y-105880043D01*
X145708450Y-105835605D01*
X145630000Y-105820000D01*
X143930000Y-105820000D01*
X143851550Y-105835605D01*
X143785043Y-105880043D01*
X143740605Y-105946550D01*
X143725000Y-106025000D01*
X131870122Y-106025000D01*
X131825860Y-105927651D01*
X131800500Y-105898220D01*
X131800500Y-105563455D01*
X131800507Y-105563433D01*
X131800507Y-105436566D01*
X131790646Y-105406216D01*
X131785653Y-105374694D01*
X131771164Y-105346257D01*
X131767960Y-105336396D01*
X131761303Y-105315907D01*
X131750867Y-105301544D01*
X131742544Y-105290088D01*
X131728056Y-105261653D01*
X131638347Y-105171944D01*
X131638326Y-105171933D01*
X131428067Y-104961675D01*
X131428055Y-104961651D01*
X131338346Y-104871943D01*
X131309907Y-104857452D01*
X131284093Y-104838698D01*
X131253745Y-104828837D01*
X131225307Y-104814347D01*
X131193786Y-104809354D01*
X131163435Y-104799493D01*
X131036567Y-104799493D01*
X131036545Y-104799500D01*
X115063455Y-104799500D01*
X115063433Y-104799493D01*
X114936566Y-104799493D01*
X114906215Y-104809354D01*
X114874694Y-104814347D01*
X114846257Y-104828836D01*
X114836396Y-104832040D01*
X114815907Y-104838697D01*
X114815905Y-104838698D01*
X114815906Y-104838698D01*
X114790088Y-104857456D01*
X114761653Y-104871944D01*
X114671944Y-104961653D01*
X114671935Y-104961672D01*
X114287351Y-105346257D01*
X113961675Y-105671933D01*
X113961653Y-105671944D01*
X113871944Y-105761654D01*
X113857456Y-105790089D01*
X113843827Y-105808848D01*
X113838697Y-105815908D01*
X113837359Y-105820027D01*
X113828836Y-105846258D01*
X113825804Y-105852209D01*
X113814347Y-105874695D01*
X113809354Y-105906216D01*
X113802390Y-105927650D01*
X113799493Y-105936567D01*
X113799493Y-106063433D01*
X113799500Y-106063455D01*
X113799501Y-109697556D01*
X113777499Y-109722469D01*
X113720389Y-109844110D01*
X113716587Y-109852209D01*
X113694537Y-109993824D01*
X102478739Y-109993824D01*
X102532608Y-109898998D01*
X102563789Y-109844110D01*
X102604254Y-109722469D01*
X102628783Y-109648734D01*
X102634252Y-109605448D01*
X102654589Y-109444456D01*
X102655001Y-109414998D01*
X102634909Y-109210087D01*
X102632017Y-109200506D01*
X102575396Y-109012971D01*
X102478732Y-108831172D01*
X102478731Y-108831170D01*
X102348596Y-108671610D01*
X102189952Y-108540366D01*
X102008831Y-108442435D01*
X102008829Y-108442434D01*
X101812137Y-108381548D01*
X101607365Y-108360026D01*
X101433886Y-108375814D01*
X101402311Y-108378687D01*
X101312482Y-108405126D01*
X101204790Y-108436821D01*
X101128245Y-108476838D01*
X101022324Y-108532212D01*
X101022322Y-108532213D01*
X101022321Y-108532214D01*
X100861855Y-108661231D01*
X100861852Y-108661234D01*
X100729505Y-108818959D01*
X100722792Y-108831170D01*
X100630312Y-108999391D01*
X100568054Y-109195653D01*
X100545103Y-109400270D01*
X96700500Y-109400270D01*
X96700500Y-106860270D01*
X100545103Y-106860270D01*
X100562332Y-107065448D01*
X100619086Y-107263371D01*
X100619088Y-107263375D01*
X100677400Y-107376838D01*
X100713202Y-107446502D01*
X100841097Y-107607865D01*
X100877166Y-107638562D01*
X100997897Y-107741313D01*
X101177629Y-107841762D01*
X101177632Y-107841763D01*
X101373454Y-107905389D01*
X101577906Y-107929769D01*
X101577909Y-107929769D01*
X101783201Y-107913972D01*
X101981512Y-107858603D01*
X102165299Y-107765765D01*
X102327548Y-107639002D01*
X102361169Y-107600052D01*
X102462088Y-107483136D01*
X102522473Y-107376838D01*
X102563789Y-107304110D01*
X102628784Y-107108730D01*
X102654589Y-106904456D01*
X102655001Y-106874998D01*
X102634909Y-106670087D01*
X102630734Y-106656257D01*
X102575396Y-106472971D01*
X102478732Y-106291172D01*
X102478731Y-106291170D01*
X102348596Y-106131610D01*
X102189952Y-106000366D01*
X102008831Y-105902435D01*
X102008829Y-105902434D01*
X101812137Y-105841548D01*
X101607365Y-105820026D01*
X101436179Y-105835605D01*
X101402311Y-105838687D01*
X101312482Y-105865126D01*
X101204790Y-105896821D01*
X101109668Y-105946550D01*
X101022324Y-105992212D01*
X101022322Y-105992213D01*
X101022321Y-105992214D01*
X100861855Y-106121231D01*
X100861852Y-106121234D01*
X100729505Y-106278959D01*
X100698180Y-106335939D01*
X100630312Y-106459391D01*
X100568054Y-106655653D01*
X100566435Y-106670087D01*
X100546008Y-106852206D01*
X100545103Y-106860270D01*
X96700500Y-106860270D01*
X96700500Y-105310147D01*
X96702538Y-105290090D01*
X96706280Y-105253247D01*
X96717840Y-105139448D01*
X96743779Y-105056675D01*
X96766100Y-104985449D01*
X96815018Y-104897198D01*
X96844338Y-104844304D01*
X96949363Y-104721768D01*
X97005579Y-104678163D01*
X97076876Y-104622860D01*
X97091937Y-104615449D01*
X97221678Y-104551610D01*
X97380237Y-104510308D01*
X97507696Y-104500500D01*
X148889852Y-104500500D01*
X148946753Y-104506280D01*
G37*
%TD.AperFunction*%
%TA.AperFunction,Conductor*%
G36*
X127977501Y-105722467D02*
G01*
X127977499Y-105722469D01*
X127916588Y-105852206D01*
X127916587Y-105852209D01*
X127894537Y-105993827D01*
X127908447Y-106100258D01*
X127874718Y-106100052D01*
X127743959Y-106099254D01*
X127731397Y-106099177D01*
X127731396Y-106099177D01*
X127593589Y-106138562D01*
X127593586Y-106138563D01*
X127472375Y-106215041D01*
X127415925Y-106278960D01*
X127377499Y-106322469D01*
X127316588Y-106452206D01*
X127304636Y-106528971D01*
X126934108Y-106899499D01*
X124503993Y-106899499D01*
X124485182Y-106858126D01*
X124485182Y-106858123D01*
X124455947Y-106793824D01*
X124425861Y-106727651D01*
X124332303Y-106619074D01*
X124212033Y-106541118D01*
X124074718Y-106500051D01*
X123931398Y-106499177D01*
X123931396Y-106499177D01*
X123793589Y-106538562D01*
X123793586Y-106538563D01*
X123672375Y-106615041D01*
X123623761Y-106670087D01*
X123577499Y-106722469D01*
X123522768Y-106839043D01*
X123516587Y-106852208D01*
X123494537Y-106993824D01*
X123513120Y-107135938D01*
X123570845Y-107267126D01*
X123663068Y-107376838D01*
X123782376Y-107456257D01*
X123853257Y-107478401D01*
X123919180Y-107498997D01*
X123919181Y-107498997D01*
X123938703Y-107505096D01*
X123971863Y-107538256D01*
X123978863Y-107551557D01*
X123975678Y-107553233D01*
X123991870Y-107585012D01*
X123982299Y-107645444D01*
X123939034Y-107688709D01*
X123894089Y-107699499D01*
X121265893Y-107699499D01*
X120295322Y-106728929D01*
X120285182Y-106658123D01*
X120231983Y-106541118D01*
X120225860Y-106527650D01*
X120132303Y-106419074D01*
X120012033Y-106341118D01*
X119874718Y-106300051D01*
X119731398Y-106299177D01*
X119731396Y-106299177D01*
X119602767Y-106335939D01*
X119593586Y-106338563D01*
X119472375Y-106415041D01*
X119433208Y-106459390D01*
X119377499Y-106522469D01*
X119319899Y-106645154D01*
X119316587Y-106652208D01*
X119294537Y-106793824D01*
X119313120Y-106935938D01*
X119370845Y-107067126D01*
X119463068Y-107176838D01*
X119582376Y-107256257D01*
X119653257Y-107278401D01*
X119719180Y-107298997D01*
X119719181Y-107298997D01*
X119738703Y-107305096D01*
X120121306Y-107687698D01*
X120149083Y-107742215D01*
X120139512Y-107802647D01*
X120096247Y-107845912D01*
X120020712Y-107851857D01*
X120013436Y-107849493D01*
X119886567Y-107849493D01*
X119886545Y-107849500D01*
X119615904Y-107849500D01*
X119538346Y-107771943D01*
X119509907Y-107757452D01*
X119484093Y-107738698D01*
X119453745Y-107728837D01*
X119425307Y-107714347D01*
X119393786Y-107709354D01*
X119363435Y-107699493D01*
X119236567Y-107699493D01*
X119236545Y-107699500D01*
X115502104Y-107699500D01*
X115412033Y-107641118D01*
X115412032Y-107641118D01*
X115412031Y-107641117D01*
X115274718Y-107600051D01*
X115131398Y-107599177D01*
X115131396Y-107599177D01*
X114993589Y-107638562D01*
X114993586Y-107638563D01*
X114872375Y-107715041D01*
X114773704Y-107826765D01*
X114721012Y-107857865D01*
X114660103Y-107852055D01*
X114614243Y-107811552D01*
X114600500Y-107761231D01*
X114600500Y-106165893D01*
X115165894Y-105600500D01*
X128034764Y-105600500D01*
X127977501Y-105722467D01*
G37*
%TD.AperFunction*%
%TD*%
M02*
