M48
; DRILL file {KiCad 5.99.0-unknown-acf13a186~104~ubuntu20.04.1} date Wed Sep 23 14:04:25 2020
; FORMAT={-:-/ absolute / metric / decimal}
; #@! TF.CreationDate,2020-09-23T14:04:25+02:00
; #@! TF.GenerationSoftware,Kicad,Pcbnew,5.99.0-unknown-acf13a186~104~ubuntu20.04.1
; #@! TF.FileFunction,Plated,1,2,PTH
FMAT,2
METRIC
T1C0.300
T2C0.500
T3C0.600
T4C0.850
T5C1.000
%
G90
G05
T1
X95.7Y-120.0
X95.7Y-122.6
X95.7Y-125.3
X95.7Y-127.6
X98.0Y-127.6
X98.0Y-130.5
X98.0Y-133.2
X98.8Y-124.9
X99.9Y-119.9
X101.3Y-129.2
X101.7Y-124.9
X102.9Y-115.5
X102.9Y-118.4
X103.0Y-108.1
X103.0Y-113.2
X103.0Y-133.2
X103.1Y-110.6
X104.2Y-119.9
X104.2Y-129.2
X104.4Y-124.9
X104.5Y-104.9
X104.5Y-107.8
X105.2Y-110.6
X105.5Y-113.2
X106.0Y-106.5
X106.2Y-115.5
X106.2Y-118.4
X106.4Y-126.5
X106.9Y-129.2
X108.2Y-108.1
X108.2Y-116.9
X108.3Y-119.9
X109.3Y-109.8
X109.4Y-106.4
X109.8Y-112.1
X110.0Y-133.2
X110.3Y-120.0
X110.3Y-127.1
X110.5Y-116.2
X111.3Y-117.8
X111.6Y-119.1
X111.7Y-110.6
X111.7Y-114.3
X112.3Y-129.3
X112.9Y-119.1
X113.0Y-117.8
X113.2Y-106.4
X113.2Y-107.9
X114.0Y-113.7
X114.2Y-110.0
X114.4Y-120.1
X114.7Y-111.9
X115.2Y-108.1
X115.5Y-109.4
X115.6Y-106.4
X115.7Y-111.4
X115.8Y-129.3
X116.0Y-113.7
X116.1Y-114.7
X117.0Y-133.2
X117.2Y-117.7
X117.7Y-106.4
X118.262Y-113.7
X119.5Y-109.0
X119.8Y-106.8
X119.9Y-119.4
X120.3Y-114.6
X120.5Y-106.0
X120.7Y-129.3
X121.5Y-115.9
X122.1Y-111.2
X123.7Y-111.3
X123.9Y-106.0
X124.0Y-107.0
X124.2Y-113.3
X124.7Y-133.2
X124.8Y-109.5
X125.4Y-108.1
X125.6Y-112.7
X125.6Y-120.0
X125.7Y-111.3
X126.2Y-116.2
X126.3Y-106.4
X127.8Y-106.6
X127.9Y-120.0
X128.0Y-112.8
X128.3Y-129.3
X128.4Y-106.0
X128.8Y-126.1
X130.0Y-125.8
X130.3Y-106.2
X131.4Y-106.2
X131.4Y-124.9
X132.7Y-105.2
X132.7Y-107.1
X132.7Y-120.0
X132.8Y-111.7
X133.4Y-133.2
X134.4Y-125.6
X134.4Y-129.3
X135.8Y-120.0
X136.4Y-113.1
X137.7Y-116.5
X137.7Y-118.9
X137.9Y-111.7
X139.0Y-125.8
X139.0Y-129.3
X139.3Y-110.3
X140.0Y-113.7
X140.7Y-109.0
X140.7Y-120.0
X141.5Y-133.2
X142.0Y-118.5
X142.6Y-115.8
X143.0Y-105.1
X143.0Y-108.1
X143.0Y-110.7
X143.0Y-113.2
X144.3Y-125.8
X144.3Y-129.3
X144.9Y-120.0
X148.8Y-127.7
X148.8Y-131.1
X148.8Y-133.2
X149.0Y-120.0
X150.3Y-122.5
X151.6Y-127.7
X152.5Y-120.0
X153.0Y-124.5
X153.0Y-125.5
X153.3Y-127.7
X158.6Y-120.0
X158.6Y-122.1
X158.7Y-124.1
X160.7Y-120.0
X160.7Y-124.1
X160.7Y-127.6
X129.3Y-108.6
X129.3Y-109.6
X129.3Y-110.6
X130.3Y-108.6
X130.3Y-109.6
X130.3Y-110.6
X131.3Y-108.6
X131.3Y-109.6
X131.3Y-110.6
T4
X154.5Y-129.737
X159.5Y-129.737
T5
X99.06Y-106.875
X99.06Y-109.415
X99.06Y-111.955
X99.06Y-114.495
X99.06Y-117.035
X101.6Y-106.875
X101.6Y-109.415
X101.6Y-111.955
X101.6Y-114.495
X101.6Y-117.035
X144.78Y-106.875
X144.78Y-109.415
X144.78Y-111.955
X144.78Y-114.495
X144.78Y-117.035
X147.32Y-106.875
X147.32Y-109.415
X147.32Y-111.955
X147.32Y-114.495
X147.32Y-117.035
X121.2Y-117.8
X123.74Y-117.8
X126.28Y-117.8
X128.82Y-117.8
X131.36Y-117.8
X133.9Y-117.8
X136.44Y-117.8
X138.98Y-117.8
X155.7Y-126.2
X158.24Y-126.2
T2
G00X96.4Y-131.46
M15
G01X96.4Y-130.16
M16
G05
G00X150.4Y-131.46
M15
G01X150.4Y-130.16
M16
G05
T3
G00X153.5Y-132.787
M15
G01X153.5Y-132.088
M16
G05
G00X160.5Y-132.088
M15
G01X160.5Y-132.787
M16
G05
T0
M30
