%TF.GenerationSoftware,KiCad,Pcbnew,5.99.0-unknown-e376750~101~ubuntu19.10.1*%
%TF.CreationDate,2020-06-25T20:18:13+02:00*%
%TF.ProjectId,leds,6c656473-2e6b-4696-9361-645f70636258,rev?*%
%TF.SameCoordinates,Original*%
%TF.FileFunction,Legend,Top*%
%TF.FilePolarity,Positive*%
%FSLAX46Y46*%
G04 Gerber Fmt 4.6, Leading zero omitted, Abs format (unit mm)*
G04 Created by KiCad (PCBNEW 5.99.0-unknown-e376750~101~ubuntu19.10.1) date 2020-06-25 20:18:13*
%MOMM*%
%LPD*%
G01*
G04 APERTURE LIST*
%ADD10C,0.300000*%
%ADD11R,0.800000X0.800000*%
G04 APERTURE END LIST*
D10*
%TO.C,D141*%
X240824380Y-215666860D02*
G75*
G03*
X240824380Y-215666860I-141421J0D01*
G01*
%TO.C,D140*%
X17408281Y-49917041D02*
G75*
G03*
X17408281Y-49917041I-141421J0D01*
G01*
%TO.C,D139*%
X18424380Y-216066860D02*
G75*
G03*
X18424380Y-216066860I-141421J0D01*
G01*
%TO.C,D138*%
X240824380Y7133140D02*
G75*
G03*
X240824380Y7133140I-141421J0D01*
G01*
%TO.C,D137*%
X17408281Y-161517041D02*
G75*
G03*
X17408281Y-161517041I-141421J0D01*
G01*
%TO.C,D136*%
X241408281Y-161517041D02*
G75*
G03*
X241408281Y-161517041I-141421J0D01*
G01*
%TO.C,D135*%
X130024380Y7933140D02*
G75*
G03*
X130024380Y7933140I-141421J0D01*
G01*
%TO.C,D134*%
X185024380Y-216466860D02*
G75*
G03*
X185024380Y-216466860I-141421J0D01*
G01*
%TO.C,D133*%
X74224380Y7933140D02*
G75*
G03*
X74224380Y7933140I-141421J0D01*
G01*
%TO.C,D132*%
X129224380Y-216466860D02*
G75*
G03*
X129224380Y-216466860I-141421J0D01*
G01*
%TO.C,D131*%
X17408281Y-105717041D02*
G75*
G03*
X17408281Y-105717041I-141421J0D01*
G01*
%TO.C,D130*%
X73424380Y-216466860D02*
G75*
G03*
X73424380Y-216466860I-141421J0D01*
G01*
%TO.C,D129*%
X241408281Y-105717041D02*
G75*
G03*
X241408281Y-105717041I-141421J0D01*
G01*
%TO.C,D128*%
X241408281Y-49917041D02*
G75*
G03*
X241408281Y-49917041I-141421J0D01*
G01*
%TO.C,D127*%
X185824380Y7933140D02*
G75*
G03*
X185824380Y7933140I-141421J0D01*
G01*
%TO.C,D126*%
X18424380Y7133140D02*
G75*
G03*
X18424380Y7133140I-141421J0D01*
G01*
%TO.C,D125*%
X189624380Y-164266860D02*
G75*
G03*
X189624380Y-164266860I-141421J0D01*
G01*
%TO.C,D124*%
X189624380Y-134266860D02*
G75*
G03*
X189624380Y-134266860I-141421J0D01*
G01*
%TO.C,D123*%
X189624380Y-104266860D02*
G75*
G03*
X189624380Y-104266860I-141421J0D01*
G01*
%TO.C,D122*%
X189624380Y-74266860D02*
G75*
G03*
X189624380Y-74266860I-141421J0D01*
G01*
%TO.C,D121*%
X189624380Y-44266860D02*
G75*
G03*
X189624380Y-44266860I-141421J0D01*
G01*
%TO.C,D120*%
X159624380Y-164266860D02*
G75*
G03*
X159624380Y-164266860I-141421J0D01*
G01*
%TO.C,D119*%
X159624380Y-134266860D02*
G75*
G03*
X159624380Y-134266860I-141421J0D01*
G01*
%TO.C,D118*%
X159624380Y-104266860D02*
G75*
G03*
X159624380Y-104266860I-141421J0D01*
G01*
%TO.C,D117*%
X159624380Y-74266860D02*
G75*
G03*
X159624380Y-74266860I-141421J0D01*
G01*
%TO.C,D116*%
X159624380Y-44266860D02*
G75*
G03*
X159624380Y-44266860I-141421J0D01*
G01*
%TO.C,D115*%
X129624380Y-164266860D02*
G75*
G03*
X129624380Y-164266860I-141421J0D01*
G01*
%TO.C,D114*%
X129624380Y-134266860D02*
G75*
G03*
X129624380Y-134266860I-141421J0D01*
G01*
%TO.C,D113*%
X129624380Y-104266860D02*
G75*
G03*
X129624380Y-104266860I-141421J0D01*
G01*
%TO.C,D112*%
X129624380Y-74266860D02*
G75*
G03*
X129624380Y-74266860I-141421J0D01*
G01*
%TO.C,D111*%
X129624380Y-44266860D02*
G75*
G03*
X129624380Y-44266860I-141421J0D01*
G01*
%TO.C,D110*%
X99624380Y-164266860D02*
G75*
G03*
X99624380Y-164266860I-141421J0D01*
G01*
%TO.C,D109*%
X99624380Y-134266860D02*
G75*
G03*
X99624380Y-134266860I-141421J0D01*
G01*
%TO.C,D108*%
X99624380Y-104266860D02*
G75*
G03*
X99624380Y-104266860I-141421J0D01*
G01*
%TO.C,D107*%
X99624380Y-74266860D02*
G75*
G03*
X99624380Y-74266860I-141421J0D01*
G01*
%TO.C,D106*%
X99624380Y-44266860D02*
G75*
G03*
X99624380Y-44266860I-141421J0D01*
G01*
%TO.C,D105*%
X69624380Y-164266860D02*
G75*
G03*
X69624380Y-164266860I-141421J0D01*
G01*
%TO.C,D104*%
X69624380Y-134266860D02*
G75*
G03*
X69624380Y-134266860I-141421J0D01*
G01*
%TO.C,D103*%
X69624380Y-104266860D02*
G75*
G03*
X69624380Y-104266860I-141421J0D01*
G01*
%TO.C,D102*%
X69624380Y-74266860D02*
G75*
G03*
X69624380Y-74266860I-141421J0D01*
G01*
%TO.C,D101*%
X69624380Y-44266860D02*
G75*
G03*
X69624380Y-44266860I-141421J0D01*
G01*
%TD*%
%LPC*%
D11*
%TO.C,D141*%
X239900000Y-215675000D03*
X242500000Y-217125000D03*
X239900000Y-217125000D03*
X242500000Y-215675000D03*
%TD*%
%TO.C,D140*%
X17275000Y-50700000D03*
X18725000Y-48100000D03*
X18725000Y-50700000D03*
X17275000Y-48100000D03*
%TD*%
%TO.C,D139*%
X17500000Y-216075000D03*
X20100000Y-217525000D03*
X17500000Y-217525000D03*
X20100000Y-216075000D03*
%TD*%
%TO.C,D138*%
X239900000Y7125000D03*
X242500000Y5675000D03*
X239900000Y5675000D03*
X242500000Y7125000D03*
%TD*%
%TO.C,D137*%
X17275000Y-162300000D03*
X18725000Y-159700000D03*
X18725000Y-162300000D03*
X17275000Y-159700000D03*
%TD*%
%TO.C,D136*%
X241275000Y-162300000D03*
X242725000Y-159700000D03*
X242725000Y-162300000D03*
X241275000Y-159700000D03*
%TD*%
%TO.C,D135*%
X129100000Y7925000D03*
X131700000Y6475000D03*
X129100000Y6475000D03*
X131700000Y7925000D03*
%TD*%
%TO.C,D134*%
X184100000Y-216475000D03*
X186700000Y-217925000D03*
X184100000Y-217925000D03*
X186700000Y-216475000D03*
%TD*%
%TO.C,D133*%
X73300000Y7925000D03*
X75900000Y6475000D03*
X73300000Y6475000D03*
X75900000Y7925000D03*
%TD*%
%TO.C,D132*%
X128300000Y-216475000D03*
X130900000Y-217925000D03*
X128300000Y-217925000D03*
X130900000Y-216475000D03*
%TD*%
%TO.C,D131*%
X17275000Y-106500000D03*
X18725000Y-103900000D03*
X18725000Y-106500000D03*
X17275000Y-103900000D03*
%TD*%
%TO.C,D130*%
X72500000Y-216475000D03*
X75100000Y-217925000D03*
X72500000Y-217925000D03*
X75100000Y-216475000D03*
%TD*%
%TO.C,D129*%
X241275000Y-106500000D03*
X242725000Y-103900000D03*
X242725000Y-106500000D03*
X241275000Y-103900000D03*
%TD*%
%TO.C,D128*%
X241275000Y-50700000D03*
X242725000Y-48100000D03*
X242725000Y-50700000D03*
X241275000Y-48100000D03*
%TD*%
%TO.C,D127*%
X184900000Y7925000D03*
X187500000Y6475000D03*
X184900000Y6475000D03*
X187500000Y7925000D03*
%TD*%
%TO.C,D126*%
X17500000Y7125000D03*
X20100000Y5675000D03*
X17500000Y5675000D03*
X20100000Y7125000D03*
%TD*%
%TO.C,D125*%
X188700000Y-164275000D03*
X191300000Y-165725000D03*
X188700000Y-165725000D03*
X191300000Y-164275000D03*
%TD*%
%TO.C,D124*%
X188700000Y-134275000D03*
X191300000Y-135725000D03*
X188700000Y-135725000D03*
X191300000Y-134275000D03*
%TD*%
%TO.C,D123*%
X188700000Y-104275000D03*
X191300000Y-105725000D03*
X188700000Y-105725000D03*
X191300000Y-104275000D03*
%TD*%
%TO.C,D122*%
X188700000Y-74275000D03*
X191300000Y-75725000D03*
X188700000Y-75725000D03*
X191300000Y-74275000D03*
%TD*%
%TO.C,D121*%
X188700000Y-44275000D03*
X191300000Y-45725000D03*
X188700000Y-45725000D03*
X191300000Y-44275000D03*
%TD*%
%TO.C,D120*%
X158700000Y-164275000D03*
X161300000Y-165725000D03*
X158700000Y-165725000D03*
X161300000Y-164275000D03*
%TD*%
%TO.C,D119*%
X158700000Y-134275000D03*
X161300000Y-135725000D03*
X158700000Y-135725000D03*
X161300000Y-134275000D03*
%TD*%
%TO.C,D118*%
X158700000Y-104275000D03*
X161300000Y-105725000D03*
X158700000Y-105725000D03*
X161300000Y-104275000D03*
%TD*%
%TO.C,D117*%
X158700000Y-74275000D03*
X161300000Y-75725000D03*
X158700000Y-75725000D03*
X161300000Y-74275000D03*
%TD*%
%TO.C,D116*%
X158700000Y-44275000D03*
X161300000Y-45725000D03*
X158700000Y-45725000D03*
X161300000Y-44275000D03*
%TD*%
%TO.C,D115*%
X128700000Y-164275000D03*
X131300000Y-165725000D03*
X128700000Y-165725000D03*
X131300000Y-164275000D03*
%TD*%
%TO.C,D114*%
X128700000Y-134275000D03*
X131300000Y-135725000D03*
X128700000Y-135725000D03*
X131300000Y-134275000D03*
%TD*%
%TO.C,D113*%
X128700000Y-104275000D03*
X131300000Y-105725000D03*
X128700000Y-105725000D03*
X131300000Y-104275000D03*
%TD*%
%TO.C,D112*%
X128700000Y-74275000D03*
X131300000Y-75725000D03*
X128700000Y-75725000D03*
X131300000Y-74275000D03*
%TD*%
%TO.C,D111*%
X128700000Y-44275000D03*
X131300000Y-45725000D03*
X128700000Y-45725000D03*
X131300000Y-44275000D03*
%TD*%
%TO.C,D110*%
X98700000Y-164275000D03*
X101300000Y-165725000D03*
X98700000Y-165725000D03*
X101300000Y-164275000D03*
%TD*%
%TO.C,D109*%
X98700000Y-134275000D03*
X101300000Y-135725000D03*
X98700000Y-135725000D03*
X101300000Y-134275000D03*
%TD*%
%TO.C,D108*%
X98700000Y-104275000D03*
X101300000Y-105725000D03*
X98700000Y-105725000D03*
X101300000Y-104275000D03*
%TD*%
%TO.C,D107*%
X98700000Y-74275000D03*
X101300000Y-75725000D03*
X98700000Y-75725000D03*
X101300000Y-74275000D03*
%TD*%
%TO.C,D106*%
X98700000Y-44275000D03*
X101300000Y-45725000D03*
X98700000Y-45725000D03*
X101300000Y-44275000D03*
%TD*%
%TO.C,D105*%
X68700000Y-164275000D03*
X71300000Y-165725000D03*
X68700000Y-165725000D03*
X71300000Y-164275000D03*
%TD*%
%TO.C,D104*%
X68700000Y-134275000D03*
X71300000Y-135725000D03*
X68700000Y-135725000D03*
X71300000Y-134275000D03*
%TD*%
%TO.C,D103*%
X68700000Y-104275000D03*
X71300000Y-105725000D03*
X68700000Y-105725000D03*
X71300000Y-104275000D03*
%TD*%
%TO.C,D102*%
X68700000Y-74275000D03*
X71300000Y-75725000D03*
X68700000Y-75725000D03*
X71300000Y-74275000D03*
%TD*%
%TO.C,D101*%
X68700000Y-44275000D03*
X71300000Y-45725000D03*
X68700000Y-45725000D03*
X71300000Y-44275000D03*
%TD*%
M02*
