M48
; DRILL file {KiCad 5.99.0-unknown-acf13a186~104~ubuntu20.04.1} date Wed Sep 23 10:38:47 2020
; FORMAT={-:-/ absolute / metric / decimal}
; #@! TF.CreationDate,2020-09-23T10:38:47+02:00
; #@! TF.GenerationSoftware,Kicad,Pcbnew,5.99.0-unknown-acf13a186~104~ubuntu20.04.1
; #@! TF.FileFunction,Plated,1,2,PTH
FMAT,2
METRIC
T1C0.300
%
G90
G05
T1
X69.5Y-74.8
X69.6Y-104.9
X69.6Y-134.8
X69.6Y-164.9
X69.7Y-44.0
X70.0Y-45.9
X70.0Y-73.9
X70.0Y-76.0
X70.0Y-104.0
X70.0Y-106.0
X70.0Y-134.0
X70.0Y-136.0
X70.0Y-164.0
X99.6Y-44.0
X99.6Y-74.8
X99.6Y-104.9
X99.6Y-134.8
X99.6Y-164.9
X100.0Y-45.9
X100.0Y-73.9
X100.0Y-76.0
X100.0Y-103.9
X100.0Y-106.0
X100.0Y-133.9
X100.0Y-136.0
X100.0Y-164.0
X129.6Y-44.0
X129.6Y-74.8
X129.6Y-104.9
X129.6Y-134.8
X129.6Y-164.9
X130.0Y-46.0
X130.0Y-73.8
X130.0Y-76.1
X130.0Y-103.9
X130.0Y-106.1
X130.0Y-133.9
X130.0Y-136.1
X130.0Y-163.9
X159.6Y-44.0
X159.6Y-74.8
X159.6Y-104.9
X159.6Y-134.8
X159.6Y-164.9
X160.0Y-45.9
X160.0Y-74.0
X160.0Y-75.9
X160.0Y-103.9
X160.0Y-106.0
X160.0Y-133.9
X160.0Y-136.0
X160.0Y-163.9
X189.6Y-74.8
X189.6Y-104.9
X189.6Y-134.8
X189.6Y-164.9
X189.7Y-44.0
X190.0Y-45.9
X190.0Y-74.0
X190.0Y-76.0
X190.0Y-104.0
X190.0Y-106.0
X190.0Y-134.0
X190.0Y-135.9
X190.0Y-164.0
T0
M30
