%FSLAX45Y45*%
G04 Gerber Fmt 4.5, Leading zero omitted, Abs format (unit mm)*
G04 Created by KiCad (PCBNEW 5.99.0-unknown-e376750~101~ubuntu19.10.1) date 2020-06-25 20:18:26*
%MOMM*%
%LPD*%
G01*
G04 APERTURE LIST*
%TA.AperFunction,Profile*%
%ADD10C,0.050000*%
%TD*%
%ADD11C,0.200000*%
G04 APERTURE END LIST*
D10*
X1500000Y-22000000D02*
X1500000Y1000000D01*
X24500000Y-22000000D02*
X1500000Y-22000000D01*
X24500000Y1000000D02*
X24500000Y-22000000D01*
X1500000Y1000000D02*
X24500000Y1000000D01*
D11*
X1755119Y-22312976D02*
X1755119Y-22112976D01*
X1802738Y-22112976D01*
X1831309Y-22122500D01*
X1850357Y-22141548D01*
X1859881Y-22160595D01*
X1869405Y-22198691D01*
X1869405Y-22227262D01*
X1859881Y-22265357D01*
X1850357Y-22284405D01*
X1831309Y-22303452D01*
X1802738Y-22312976D01*
X1755119Y-22312976D01*
X1955119Y-22312976D02*
X1955119Y-22179643D01*
X1955119Y-22217738D02*
X1964643Y-22198691D01*
X1974166Y-22189167D01*
X1993214Y-22179643D01*
X2012262Y-22179643D01*
X2078928Y-22312976D02*
X2078928Y-22179643D01*
X2078928Y-22112976D02*
X2069405Y-22122500D01*
X2078928Y-22132024D01*
X2088452Y-22122500D01*
X2078928Y-22112976D01*
X2078928Y-22132024D01*
X2202738Y-22312976D02*
X2183690Y-22303452D01*
X2174167Y-22284405D01*
X2174167Y-22112976D01*
X2307500Y-22312976D02*
X2288452Y-22303452D01*
X2278928Y-22284405D01*
X2278928Y-22112976D01*
X2536071Y-22312976D02*
X2536071Y-22112976D01*
X2602738Y-22255833D01*
X2669405Y-22112976D01*
X2669405Y-22312976D01*
X2850357Y-22312976D02*
X2850357Y-22208214D01*
X2840833Y-22189167D01*
X2821786Y-22179643D01*
X2783690Y-22179643D01*
X2764643Y-22189167D01*
X2850357Y-22303452D02*
X2831309Y-22312976D01*
X2783690Y-22312976D01*
X2764643Y-22303452D01*
X2755119Y-22284405D01*
X2755119Y-22265357D01*
X2764643Y-22246310D01*
X2783690Y-22236786D01*
X2831309Y-22236786D01*
X2850357Y-22227262D01*
X2945595Y-22179643D02*
X2945595Y-22379643D01*
X2945595Y-22189167D02*
X2964643Y-22179643D01*
X3002738Y-22179643D01*
X3021786Y-22189167D01*
X3031309Y-22198691D01*
X3040833Y-22217738D01*
X3040833Y-22274881D01*
X3031309Y-22293929D01*
X3021786Y-22303452D01*
X3002738Y-22312976D01*
X2964643Y-22312976D01*
X2945595Y-22303452D01*
X3126547Y-22293929D02*
X3136071Y-22303452D01*
X3126547Y-22312976D01*
X3117024Y-22303452D01*
X3126547Y-22293929D01*
X3126547Y-22312976D01*
X3126547Y-22189167D02*
X3136071Y-22198691D01*
X3126547Y-22208214D01*
X3117024Y-22198691D01*
X3126547Y-22189167D01*
X3126547Y-22208214D01*
M02*
