%TF.GenerationSoftware,KiCad,Pcbnew,5.99.0-unknown-e376750~101~ubuntu19.10.1*%
%TF.CreationDate,2020-06-25T20:18:14+02:00*%
%TF.ProjectId,leds,6c656473-2e6b-4696-9361-645f70636258,rev?*%
%TF.SameCoordinates,Original*%
%TF.FileFunction,Soldermask,Bot*%
%TF.FilePolarity,Negative*%
%FSLAX46Y46*%
G04 Gerber Fmt 4.6, Leading zero omitted, Abs format (unit mm)*
G04 Created by KiCad (PCBNEW 5.99.0-unknown-e376750~101~ubuntu19.10.1) date 2020-06-25 20:18:14*
%MOMM*%
%LPD*%
G01*
G04 APERTURE LIST*
%ADD10R,3.150000X1.000000*%
G04 APERTURE END LIST*
%TO.C,R108*%
G36*
G01*
X116175000Y-165675000D02*
X117425000Y-165675000D01*
G75*
G02*
X117675000Y-165925000I0J-250000D01*
G01*
X117675000Y-166675000D01*
G75*
G02*
X117425000Y-166925000I-250000J0D01*
G01*
X116175000Y-166925000D01*
G75*
G02*
X115925000Y-166675000I0J250000D01*
G01*
X115925000Y-165925000D01*
G75*
G02*
X116175000Y-165675000I250000J0D01*
G01*
G37*
G36*
G01*
X116175000Y-162875000D02*
X117425000Y-162875000D01*
G75*
G02*
X117675000Y-163125000I0J-250000D01*
G01*
X117675000Y-163875000D01*
G75*
G02*
X117425000Y-164125000I-250000J0D01*
G01*
X116175000Y-164125000D01*
G75*
G02*
X115925000Y-163875000I0J250000D01*
G01*
X115925000Y-163125000D01*
G75*
G02*
X116175000Y-162875000I250000J0D01*
G01*
G37*
%TD*%
%TO.C,R107*%
G36*
G01*
X116175000Y-135575000D02*
X117425000Y-135575000D01*
G75*
G02*
X117675000Y-135825000I0J-250000D01*
G01*
X117675000Y-136575000D01*
G75*
G02*
X117425000Y-136825000I-250000J0D01*
G01*
X116175000Y-136825000D01*
G75*
G02*
X115925000Y-136575000I0J250000D01*
G01*
X115925000Y-135825000D01*
G75*
G02*
X116175000Y-135575000I250000J0D01*
G01*
G37*
G36*
G01*
X116175000Y-132775000D02*
X117425000Y-132775000D01*
G75*
G02*
X117675000Y-133025000I0J-250000D01*
G01*
X117675000Y-133775000D01*
G75*
G02*
X117425000Y-134025000I-250000J0D01*
G01*
X116175000Y-134025000D01*
G75*
G02*
X115925000Y-133775000I0J250000D01*
G01*
X115925000Y-133025000D01*
G75*
G02*
X116175000Y-132775000I250000J0D01*
G01*
G37*
%TD*%
%TO.C,R106*%
G36*
G01*
X130775000Y-122525000D02*
X130775000Y-121275000D01*
G75*
G02*
X131025000Y-121025000I250000J0D01*
G01*
X131775000Y-121025000D01*
G75*
G02*
X132025000Y-121275000I0J-250000D01*
G01*
X132025000Y-122525000D01*
G75*
G02*
X131775000Y-122775000I-250000J0D01*
G01*
X131025000Y-122775000D01*
G75*
G02*
X130775000Y-122525000I0J250000D01*
G01*
G37*
G36*
G01*
X127975000Y-122525000D02*
X127975000Y-121275000D01*
G75*
G02*
X128225000Y-121025000I250000J0D01*
G01*
X128975000Y-121025000D01*
G75*
G02*
X129225000Y-121275000I0J-250000D01*
G01*
X129225000Y-122525000D01*
G75*
G02*
X128975000Y-122775000I-250000J0D01*
G01*
X128225000Y-122775000D01*
G75*
G02*
X127975000Y-122525000I0J250000D01*
G01*
G37*
%TD*%
%TO.C,R105*%
G36*
G01*
X99225000Y-114975000D02*
X99225000Y-116225000D01*
G75*
G02*
X98975000Y-116475000I-250000J0D01*
G01*
X98225000Y-116475000D01*
G75*
G02*
X97975000Y-116225000I0J250000D01*
G01*
X97975000Y-114975000D01*
G75*
G02*
X98225000Y-114725000I250000J0D01*
G01*
X98975000Y-114725000D01*
G75*
G02*
X99225000Y-114975000I0J-250000D01*
G01*
G37*
G36*
G01*
X102025000Y-114975000D02*
X102025000Y-116225000D01*
G75*
G02*
X101775000Y-116475000I-250000J0D01*
G01*
X101025000Y-116475000D01*
G75*
G02*
X100775000Y-116225000I0J250000D01*
G01*
X100775000Y-114975000D01*
G75*
G02*
X101025000Y-114725000I250000J0D01*
G01*
X101775000Y-114725000D01*
G75*
G02*
X102025000Y-114975000I0J-250000D01*
G01*
G37*
%TD*%
%TO.C,R104*%
G36*
G01*
X156875000Y-75575000D02*
X158125000Y-75575000D01*
G75*
G02*
X158375000Y-75825000I0J-250000D01*
G01*
X158375000Y-76575000D01*
G75*
G02*
X158125000Y-76825000I-250000J0D01*
G01*
X156875000Y-76825000D01*
G75*
G02*
X156625000Y-76575000I0J250000D01*
G01*
X156625000Y-75825000D01*
G75*
G02*
X156875000Y-75575000I250000J0D01*
G01*
G37*
G36*
G01*
X156875000Y-72775000D02*
X158125000Y-72775000D01*
G75*
G02*
X158375000Y-73025000I0J-250000D01*
G01*
X158375000Y-73775000D01*
G75*
G02*
X158125000Y-74025000I-250000J0D01*
G01*
X156875000Y-74025000D01*
G75*
G02*
X156625000Y-73775000I0J250000D01*
G01*
X156625000Y-73025000D01*
G75*
G02*
X156875000Y-72775000I250000J0D01*
G01*
G37*
%TD*%
%TO.C,R103*%
G36*
G01*
X156875000Y-105675000D02*
X158125000Y-105675000D01*
G75*
G02*
X158375000Y-105925000I0J-250000D01*
G01*
X158375000Y-106675000D01*
G75*
G02*
X158125000Y-106925000I-250000J0D01*
G01*
X156875000Y-106925000D01*
G75*
G02*
X156625000Y-106675000I0J250000D01*
G01*
X156625000Y-105925000D01*
G75*
G02*
X156875000Y-105675000I250000J0D01*
G01*
G37*
G36*
G01*
X156875000Y-102875000D02*
X158125000Y-102875000D01*
G75*
G02*
X158375000Y-103125000I0J-250000D01*
G01*
X158375000Y-103875000D01*
G75*
G02*
X158125000Y-104125000I-250000J0D01*
G01*
X156875000Y-104125000D01*
G75*
G02*
X156625000Y-103875000I0J250000D01*
G01*
X156625000Y-103125000D01*
G75*
G02*
X156875000Y-102875000I250000J0D01*
G01*
G37*
%TD*%
%TO.C,R102*%
G36*
G01*
X153375000Y-105675000D02*
X154625000Y-105675000D01*
G75*
G02*
X154875000Y-105925000I0J-250000D01*
G01*
X154875000Y-106675000D01*
G75*
G02*
X154625000Y-106925000I-250000J0D01*
G01*
X153375000Y-106925000D01*
G75*
G02*
X153125000Y-106675000I0J250000D01*
G01*
X153125000Y-105925000D01*
G75*
G02*
X153375000Y-105675000I250000J0D01*
G01*
G37*
G36*
G01*
X153375000Y-102875000D02*
X154625000Y-102875000D01*
G75*
G02*
X154875000Y-103125000I0J-250000D01*
G01*
X154875000Y-103875000D01*
G75*
G02*
X154625000Y-104125000I-250000J0D01*
G01*
X153375000Y-104125000D01*
G75*
G02*
X153125000Y-103875000I0J250000D01*
G01*
X153125000Y-103125000D01*
G75*
G02*
X153375000Y-102875000I250000J0D01*
G01*
G37*
%TD*%
%TO.C,R101*%
G36*
G01*
X158125000Y-134025000D02*
X156875000Y-134025000D01*
G75*
G02*
X156625000Y-133775000I0J250000D01*
G01*
X156625000Y-133025000D01*
G75*
G02*
X156875000Y-132775000I250000J0D01*
G01*
X158125000Y-132775000D01*
G75*
G02*
X158375000Y-133025000I0J-250000D01*
G01*
X158375000Y-133775000D01*
G75*
G02*
X158125000Y-134025000I-250000J0D01*
G01*
G37*
G36*
G01*
X158125000Y-136825000D02*
X156875000Y-136825000D01*
G75*
G02*
X156625000Y-136575000I0J250000D01*
G01*
X156625000Y-135825000D01*
G75*
G02*
X156875000Y-135575000I250000J0D01*
G01*
X158125000Y-135575000D01*
G75*
G02*
X158375000Y-135825000I0J-250000D01*
G01*
X158375000Y-136575000D01*
G75*
G02*
X158125000Y-136825000I-250000J0D01*
G01*
G37*
%TD*%
D10*
%TO.C,J102*%
X157495000Y-124460000D03*
X162545000Y-124460000D03*
X157495000Y-121920000D03*
X162545000Y-121920000D03*
X157495000Y-119380000D03*
X162545000Y-119380000D03*
X157495000Y-116840000D03*
X162545000Y-116840000D03*
X157495000Y-114300000D03*
X162545000Y-114300000D03*
%TD*%
%TO.C,J101*%
X116825000Y-114300000D03*
X111775000Y-114300000D03*
X116825000Y-116840000D03*
X111775000Y-116840000D03*
X116825000Y-119380000D03*
X111775000Y-119380000D03*
X116825000Y-121920000D03*
X111775000Y-121920000D03*
X116825000Y-124460000D03*
X111775000Y-124460000D03*
%TD*%
M02*
