%TF.GenerationSoftware,KiCad,Pcbnew,5.99.0-unknown-acf13a186~104~ubuntu20.04.1*%
%TF.CreationDate,2020-09-23T10:38:41+02:00*%
%TF.ProjectId,leds,6c656473-2e6b-4696-9361-645f70636258,rev?*%
%TF.SameCoordinates,Original*%
%TF.FileFunction,Legend,Bot*%
%TF.FilePolarity,Positive*%
%FSLAX46Y46*%
G04 Gerber Fmt 4.6, Leading zero omitted, Abs format (unit mm)*
G04 Created by KiCad (PCBNEW 5.99.0-unknown-acf13a186~104~ubuntu20.04.1) date 2020-09-23 10:38:41*
%MOMM*%
%LPD*%
G01*
G04 APERTURE LIST*
%ADD10C,0.300000*%
%ADD11C,0.120000*%
%ADD12C,0.150000*%
%ADD13R,3.150000X1.000000*%
G04 APERTURE END LIST*
D10*
X123285714Y-114074285D02*
X123380952Y-114169523D01*
X123666666Y-114264761D01*
X123857142Y-114264761D01*
X124142857Y-114169523D01*
X124333333Y-113979047D01*
X124428571Y-113788571D01*
X124523809Y-113407619D01*
X124523809Y-113121904D01*
X124428571Y-112740952D01*
X124333333Y-112550476D01*
X124142857Y-112360000D01*
X123857142Y-112264761D01*
X123666666Y-112264761D01*
X123380952Y-112360000D01*
X123285714Y-112455238D01*
X122523809Y-114169523D02*
X122238095Y-114264761D01*
X121761904Y-114264761D01*
X121571428Y-114169523D01*
X121476190Y-114074285D01*
X121380952Y-113883809D01*
X121380952Y-113693333D01*
X121476190Y-113502857D01*
X121571428Y-113407619D01*
X121761904Y-113312380D01*
X122142857Y-113217142D01*
X122333333Y-113121904D01*
X122428571Y-113026666D01*
X122523809Y-112836190D01*
X122523809Y-112645714D01*
X122428571Y-112455238D01*
X122333333Y-112360000D01*
X122142857Y-112264761D01*
X121666666Y-112264761D01*
X121380952Y-112360000D01*
X119571428Y-112264761D02*
X120523809Y-112264761D01*
X120619047Y-113217142D01*
X120523809Y-113121904D01*
X120333333Y-113026666D01*
X119857142Y-113026666D01*
X119666666Y-113121904D01*
X119571428Y-113217142D01*
X119476190Y-113407619D01*
X119476190Y-113883809D01*
X119571428Y-114074285D01*
X119666666Y-114169523D01*
X119857142Y-114264761D01*
X120333333Y-114264761D01*
X120523809Y-114169523D01*
X120619047Y-114074285D01*
X123285714Y-117294285D02*
X123380952Y-117389523D01*
X123666666Y-117484761D01*
X123857142Y-117484761D01*
X124142857Y-117389523D01*
X124333333Y-117199047D01*
X124428571Y-117008571D01*
X124523809Y-116627619D01*
X124523809Y-116341904D01*
X124428571Y-115960952D01*
X124333333Y-115770476D01*
X124142857Y-115580000D01*
X123857142Y-115484761D01*
X123666666Y-115484761D01*
X123380952Y-115580000D01*
X123285714Y-115675238D01*
X122523809Y-117389523D02*
X122238095Y-117484761D01*
X121761904Y-117484761D01*
X121571428Y-117389523D01*
X121476190Y-117294285D01*
X121380952Y-117103809D01*
X121380952Y-116913333D01*
X121476190Y-116722857D01*
X121571428Y-116627619D01*
X121761904Y-116532380D01*
X122142857Y-116437142D01*
X122333333Y-116341904D01*
X122428571Y-116246666D01*
X122523809Y-116056190D01*
X122523809Y-115865714D01*
X122428571Y-115675238D01*
X122333333Y-115580000D01*
X122142857Y-115484761D01*
X121666666Y-115484761D01*
X121380952Y-115580000D01*
X119666666Y-116151428D02*
X119666666Y-117484761D01*
X120142857Y-115389523D02*
X120619047Y-116818095D01*
X119380952Y-116818095D01*
X123285714Y-120514285D02*
X123380952Y-120609523D01*
X123666666Y-120704761D01*
X123857142Y-120704761D01*
X124142857Y-120609523D01*
X124333333Y-120419047D01*
X124428571Y-120228571D01*
X124523809Y-119847619D01*
X124523809Y-119561904D01*
X124428571Y-119180952D01*
X124333333Y-118990476D01*
X124142857Y-118800000D01*
X123857142Y-118704761D01*
X123666666Y-118704761D01*
X123380952Y-118800000D01*
X123285714Y-118895238D01*
X122523809Y-120609523D02*
X122238095Y-120704761D01*
X121761904Y-120704761D01*
X121571428Y-120609523D01*
X121476190Y-120514285D01*
X121380952Y-120323809D01*
X121380952Y-120133333D01*
X121476190Y-119942857D01*
X121571428Y-119847619D01*
X121761904Y-119752380D01*
X122142857Y-119657142D01*
X122333333Y-119561904D01*
X122428571Y-119466666D01*
X122523809Y-119276190D01*
X122523809Y-119085714D01*
X122428571Y-118895238D01*
X122333333Y-118800000D01*
X122142857Y-118704761D01*
X121666666Y-118704761D01*
X121380952Y-118800000D01*
X120714285Y-118704761D02*
X119476190Y-118704761D01*
X120142857Y-119466666D01*
X119857142Y-119466666D01*
X119666666Y-119561904D01*
X119571428Y-119657142D01*
X119476190Y-119847619D01*
X119476190Y-120323809D01*
X119571428Y-120514285D01*
X119666666Y-120609523D01*
X119857142Y-120704761D01*
X120428571Y-120704761D01*
X120619047Y-120609523D01*
X120714285Y-120514285D01*
X123285714Y-123734285D02*
X123380952Y-123829523D01*
X123666666Y-123924761D01*
X123857142Y-123924761D01*
X124142857Y-123829523D01*
X124333333Y-123639047D01*
X124428571Y-123448571D01*
X124523809Y-123067619D01*
X124523809Y-122781904D01*
X124428571Y-122400952D01*
X124333333Y-122210476D01*
X124142857Y-122020000D01*
X123857142Y-121924761D01*
X123666666Y-121924761D01*
X123380952Y-122020000D01*
X123285714Y-122115238D01*
X122523809Y-123829523D02*
X122238095Y-123924761D01*
X121761904Y-123924761D01*
X121571428Y-123829523D01*
X121476190Y-123734285D01*
X121380952Y-123543809D01*
X121380952Y-123353333D01*
X121476190Y-123162857D01*
X121571428Y-123067619D01*
X121761904Y-122972380D01*
X122142857Y-122877142D01*
X122333333Y-122781904D01*
X122428571Y-122686666D01*
X122523809Y-122496190D01*
X122523809Y-122305714D01*
X122428571Y-122115238D01*
X122333333Y-122020000D01*
X122142857Y-121924761D01*
X121666666Y-121924761D01*
X121380952Y-122020000D01*
X120619047Y-122115238D02*
X120523809Y-122020000D01*
X120333333Y-121924761D01*
X119857142Y-121924761D01*
X119666666Y-122020000D01*
X119571428Y-122115238D01*
X119476190Y-122305714D01*
X119476190Y-122496190D01*
X119571428Y-122781904D01*
X120714285Y-123924761D01*
X119476190Y-123924761D01*
X123285714Y-126954285D02*
X123380952Y-127049523D01*
X123666666Y-127144761D01*
X123857142Y-127144761D01*
X124142857Y-127049523D01*
X124333333Y-126859047D01*
X124428571Y-126668571D01*
X124523809Y-126287619D01*
X124523809Y-126001904D01*
X124428571Y-125620952D01*
X124333333Y-125430476D01*
X124142857Y-125240000D01*
X123857142Y-125144761D01*
X123666666Y-125144761D01*
X123380952Y-125240000D01*
X123285714Y-125335238D01*
X122523809Y-127049523D02*
X122238095Y-127144761D01*
X121761904Y-127144761D01*
X121571428Y-127049523D01*
X121476190Y-126954285D01*
X121380952Y-126763809D01*
X121380952Y-126573333D01*
X121476190Y-126382857D01*
X121571428Y-126287619D01*
X121761904Y-126192380D01*
X122142857Y-126097142D01*
X122333333Y-126001904D01*
X122428571Y-125906666D01*
X122523809Y-125716190D01*
X122523809Y-125525714D01*
X122428571Y-125335238D01*
X122333333Y-125240000D01*
X122142857Y-125144761D01*
X121666666Y-125144761D01*
X121380952Y-125240000D01*
X119476190Y-127144761D02*
X120619047Y-127144761D01*
X120047619Y-127144761D02*
X120047619Y-125144761D01*
X120238095Y-125430476D01*
X120428571Y-125620952D01*
X120619047Y-125716190D01*
X153766666Y-113669523D02*
X153480952Y-113764761D01*
X153004761Y-113764761D01*
X152814285Y-113669523D01*
X152719047Y-113574285D01*
X152623809Y-113383809D01*
X152623809Y-113193333D01*
X152719047Y-113002857D01*
X152814285Y-112907619D01*
X153004761Y-112812380D01*
X153385714Y-112717142D01*
X153576190Y-112621904D01*
X153671428Y-112526666D01*
X153766666Y-112336190D01*
X153766666Y-112145714D01*
X153671428Y-111955238D01*
X153576190Y-111860000D01*
X153385714Y-111764761D01*
X152909523Y-111764761D01*
X152623809Y-111860000D01*
X151957142Y-111764761D02*
X151480952Y-113764761D01*
X151100000Y-112336190D01*
X150719047Y-113764761D01*
X150242857Y-111764761D01*
X148528571Y-111764761D02*
X149480952Y-111764761D01*
X149576190Y-112717142D01*
X149480952Y-112621904D01*
X149290476Y-112526666D01*
X148814285Y-112526666D01*
X148623809Y-112621904D01*
X148528571Y-112717142D01*
X148433333Y-112907619D01*
X148433333Y-113383809D01*
X148528571Y-113574285D01*
X148623809Y-113669523D01*
X148814285Y-113764761D01*
X149290476Y-113764761D01*
X149480952Y-113669523D01*
X149576190Y-113574285D01*
X153766666Y-116889523D02*
X153480952Y-116984761D01*
X153004761Y-116984761D01*
X152814285Y-116889523D01*
X152719047Y-116794285D01*
X152623809Y-116603809D01*
X152623809Y-116413333D01*
X152719047Y-116222857D01*
X152814285Y-116127619D01*
X153004761Y-116032380D01*
X153385714Y-115937142D01*
X153576190Y-115841904D01*
X153671428Y-115746666D01*
X153766666Y-115556190D01*
X153766666Y-115365714D01*
X153671428Y-115175238D01*
X153576190Y-115080000D01*
X153385714Y-114984761D01*
X152909523Y-114984761D01*
X152623809Y-115080000D01*
X151957142Y-114984761D02*
X151480952Y-116984761D01*
X151100000Y-115556190D01*
X150719047Y-116984761D01*
X150242857Y-114984761D01*
X148623809Y-115651428D02*
X148623809Y-116984761D01*
X149100000Y-114889523D02*
X149576190Y-116318095D01*
X148338095Y-116318095D01*
X153766666Y-120109523D02*
X153480952Y-120204761D01*
X153004761Y-120204761D01*
X152814285Y-120109523D01*
X152719047Y-120014285D01*
X152623809Y-119823809D01*
X152623809Y-119633333D01*
X152719047Y-119442857D01*
X152814285Y-119347619D01*
X153004761Y-119252380D01*
X153385714Y-119157142D01*
X153576190Y-119061904D01*
X153671428Y-118966666D01*
X153766666Y-118776190D01*
X153766666Y-118585714D01*
X153671428Y-118395238D01*
X153576190Y-118300000D01*
X153385714Y-118204761D01*
X152909523Y-118204761D01*
X152623809Y-118300000D01*
X151957142Y-118204761D02*
X151480952Y-120204761D01*
X151100000Y-118776190D01*
X150719047Y-120204761D01*
X150242857Y-118204761D01*
X149671428Y-118204761D02*
X148433333Y-118204761D01*
X149100000Y-118966666D01*
X148814285Y-118966666D01*
X148623809Y-119061904D01*
X148528571Y-119157142D01*
X148433333Y-119347619D01*
X148433333Y-119823809D01*
X148528571Y-120014285D01*
X148623809Y-120109523D01*
X148814285Y-120204761D01*
X149385714Y-120204761D01*
X149576190Y-120109523D01*
X149671428Y-120014285D01*
X153766666Y-123329523D02*
X153480952Y-123424761D01*
X153004761Y-123424761D01*
X152814285Y-123329523D01*
X152719047Y-123234285D01*
X152623809Y-123043809D01*
X152623809Y-122853333D01*
X152719047Y-122662857D01*
X152814285Y-122567619D01*
X153004761Y-122472380D01*
X153385714Y-122377142D01*
X153576190Y-122281904D01*
X153671428Y-122186666D01*
X153766666Y-121996190D01*
X153766666Y-121805714D01*
X153671428Y-121615238D01*
X153576190Y-121520000D01*
X153385714Y-121424761D01*
X152909523Y-121424761D01*
X152623809Y-121520000D01*
X151957142Y-121424761D02*
X151480952Y-123424761D01*
X151100000Y-121996190D01*
X150719047Y-123424761D01*
X150242857Y-121424761D01*
X149576190Y-121615238D02*
X149480952Y-121520000D01*
X149290476Y-121424761D01*
X148814285Y-121424761D01*
X148623809Y-121520000D01*
X148528571Y-121615238D01*
X148433333Y-121805714D01*
X148433333Y-121996190D01*
X148528571Y-122281904D01*
X149671428Y-123424761D01*
X148433333Y-123424761D01*
X153766666Y-126549523D02*
X153480952Y-126644761D01*
X153004761Y-126644761D01*
X152814285Y-126549523D01*
X152719047Y-126454285D01*
X152623809Y-126263809D01*
X152623809Y-126073333D01*
X152719047Y-125882857D01*
X152814285Y-125787619D01*
X153004761Y-125692380D01*
X153385714Y-125597142D01*
X153576190Y-125501904D01*
X153671428Y-125406666D01*
X153766666Y-125216190D01*
X153766666Y-125025714D01*
X153671428Y-124835238D01*
X153576190Y-124740000D01*
X153385714Y-124644761D01*
X152909523Y-124644761D01*
X152623809Y-124740000D01*
X151957142Y-124644761D02*
X151480952Y-126644761D01*
X151100000Y-125216190D01*
X150719047Y-126644761D01*
X150242857Y-124644761D01*
X148433333Y-126644761D02*
X149576190Y-126644761D01*
X149004761Y-126644761D02*
X149004761Y-124644761D01*
X149195238Y-124930476D01*
X149385714Y-125120952D01*
X149576190Y-125216190D01*
X98228809Y-160594761D02*
X98228809Y-159261428D01*
X98228809Y-159451904D02*
X98133571Y-159356666D01*
X97943095Y-159261428D01*
X97657380Y-159261428D01*
X97466904Y-159356666D01*
X97371666Y-159547142D01*
X97371666Y-160594761D01*
X97371666Y-159547142D02*
X97276428Y-159356666D01*
X97085952Y-159261428D01*
X96800238Y-159261428D01*
X96609761Y-159356666D01*
X96514523Y-159547142D01*
X96514523Y-160594761D01*
X94705000Y-160499523D02*
X94895476Y-160594761D01*
X95276428Y-160594761D01*
X95466904Y-160499523D01*
X95562142Y-160404285D01*
X95657380Y-160213809D01*
X95657380Y-159642380D01*
X95562142Y-159451904D01*
X95466904Y-159356666D01*
X95276428Y-159261428D01*
X94895476Y-159261428D01*
X94705000Y-159356666D01*
X93943095Y-160499523D02*
X93752619Y-160594761D01*
X93371666Y-160594761D01*
X93181190Y-160499523D01*
X93085952Y-160309047D01*
X93085952Y-160213809D01*
X93181190Y-160023333D01*
X93371666Y-159928095D01*
X93657380Y-159928095D01*
X93847857Y-159832857D01*
X93943095Y-159642380D01*
X93943095Y-159547142D01*
X93847857Y-159356666D01*
X93657380Y-159261428D01*
X93371666Y-159261428D01*
X93181190Y-159356666D01*
X90419285Y-160594761D02*
X90609761Y-160499523D01*
X90705000Y-160309047D01*
X90705000Y-158594761D01*
X88895476Y-160499523D02*
X89085952Y-160594761D01*
X89466904Y-160594761D01*
X89657380Y-160499523D01*
X89752619Y-160309047D01*
X89752619Y-159547142D01*
X89657380Y-159356666D01*
X89466904Y-159261428D01*
X89085952Y-159261428D01*
X88895476Y-159356666D01*
X88800238Y-159547142D01*
X88800238Y-159737619D01*
X89752619Y-159928095D01*
X87085952Y-160594761D02*
X87085952Y-158594761D01*
X87085952Y-160499523D02*
X87276428Y-160594761D01*
X87657380Y-160594761D01*
X87847857Y-160499523D01*
X87943095Y-160404285D01*
X88038333Y-160213809D01*
X88038333Y-159642380D01*
X87943095Y-159451904D01*
X87847857Y-159356666D01*
X87657380Y-159261428D01*
X87276428Y-159261428D01*
X87085952Y-159356666D01*
X84609761Y-160594761D02*
X84609761Y-159261428D01*
X84609761Y-159451904D02*
X84514523Y-159356666D01*
X84324047Y-159261428D01*
X84038333Y-159261428D01*
X83847857Y-159356666D01*
X83752619Y-159547142D01*
X83752619Y-160594761D01*
X83752619Y-159547142D02*
X83657380Y-159356666D01*
X83466904Y-159261428D01*
X83181190Y-159261428D01*
X82990714Y-159356666D01*
X82895476Y-159547142D01*
X82895476Y-160594761D01*
X81085952Y-160594761D02*
X81085952Y-159547142D01*
X81181190Y-159356666D01*
X81371666Y-159261428D01*
X81752619Y-159261428D01*
X81943095Y-159356666D01*
X81085952Y-160499523D02*
X81276428Y-160594761D01*
X81752619Y-160594761D01*
X81943095Y-160499523D01*
X82038333Y-160309047D01*
X82038333Y-160118571D01*
X81943095Y-159928095D01*
X81752619Y-159832857D01*
X81276428Y-159832857D01*
X81085952Y-159737619D01*
X80419285Y-159261428D02*
X79657380Y-159261428D01*
X80133571Y-158594761D02*
X80133571Y-160309047D01*
X80038333Y-160499523D01*
X79847857Y-160594761D01*
X79657380Y-160594761D01*
X78990714Y-160594761D02*
X78990714Y-159261428D01*
X78990714Y-159642380D02*
X78895476Y-159451904D01*
X78800238Y-159356666D01*
X78609761Y-159261428D01*
X78419285Y-159261428D01*
X77752619Y-160594761D02*
X77752619Y-159261428D01*
X77752619Y-158594761D02*
X77847857Y-158690000D01*
X77752619Y-158785238D01*
X77657380Y-158690000D01*
X77752619Y-158594761D01*
X77752619Y-158785238D01*
X76990714Y-160594761D02*
X75943095Y-159261428D01*
X76990714Y-159261428D02*
X75943095Y-160594761D01*
X73847857Y-159261428D02*
X73371666Y-160594761D01*
X72895476Y-159261428D01*
X71085952Y-160594761D02*
X72228809Y-160594761D01*
X71657380Y-160594761D02*
X71657380Y-158594761D01*
X71847857Y-158880476D01*
X72038333Y-159070952D01*
X72228809Y-159166190D01*
X98228809Y-163814761D02*
X98228809Y-161814761D01*
X97371666Y-163814761D02*
X97371666Y-162767142D01*
X97466904Y-162576666D01*
X97657380Y-162481428D01*
X97943095Y-162481428D01*
X98133571Y-162576666D01*
X98228809Y-162671904D01*
X95562142Y-162481428D02*
X95562142Y-163814761D01*
X96419285Y-162481428D02*
X96419285Y-163529047D01*
X96324047Y-163719523D01*
X96133571Y-163814761D01*
X95847857Y-163814761D01*
X95657380Y-163719523D01*
X95562142Y-163624285D01*
X94609761Y-162481428D02*
X94609761Y-163814761D01*
X94609761Y-162671904D02*
X94514523Y-162576666D01*
X94324047Y-162481428D01*
X94038333Y-162481428D01*
X93847857Y-162576666D01*
X93752619Y-162767142D01*
X93752619Y-163814761D01*
X92990714Y-162481428D02*
X91943095Y-162481428D01*
X92990714Y-163814761D01*
X91943095Y-163814761D01*
X89752619Y-162005238D02*
X89657380Y-161910000D01*
X89466904Y-161814761D01*
X88990714Y-161814761D01*
X88800238Y-161910000D01*
X88705000Y-162005238D01*
X88609761Y-162195714D01*
X88609761Y-162386190D01*
X88705000Y-162671904D01*
X89847857Y-163814761D01*
X88609761Y-163814761D01*
X87371666Y-161814761D02*
X87181190Y-161814761D01*
X86990714Y-161910000D01*
X86895476Y-162005238D01*
X86800238Y-162195714D01*
X86705000Y-162576666D01*
X86705000Y-163052857D01*
X86800238Y-163433809D01*
X86895476Y-163624285D01*
X86990714Y-163719523D01*
X87181190Y-163814761D01*
X87371666Y-163814761D01*
X87562142Y-163719523D01*
X87657380Y-163624285D01*
X87752619Y-163433809D01*
X87847857Y-163052857D01*
X87847857Y-162576666D01*
X87752619Y-162195714D01*
X87657380Y-162005238D01*
X87562142Y-161910000D01*
X87371666Y-161814761D01*
X85943095Y-162005238D02*
X85847857Y-161910000D01*
X85657380Y-161814761D01*
X85181190Y-161814761D01*
X84990714Y-161910000D01*
X84895476Y-162005238D01*
X84800238Y-162195714D01*
X84800238Y-162386190D01*
X84895476Y-162671904D01*
X86038333Y-163814761D01*
X84800238Y-163814761D01*
X83562142Y-161814761D02*
X83371666Y-161814761D01*
X83181190Y-161910000D01*
X83085952Y-162005238D01*
X82990714Y-162195714D01*
X82895476Y-162576666D01*
X82895476Y-163052857D01*
X82990714Y-163433809D01*
X83085952Y-163624285D01*
X83181190Y-163719523D01*
X83371666Y-163814761D01*
X83562142Y-163814761D01*
X83752619Y-163719523D01*
X83847857Y-163624285D01*
X83943095Y-163433809D01*
X84038333Y-163052857D01*
X84038333Y-162576666D01*
X83943095Y-162195714D01*
X83847857Y-162005238D01*
X83752619Y-161910000D01*
X83562142Y-161814761D01*
D11*
X70000000Y-135000000D02*
X190000000Y-135000000D01*
X70000000Y-105000000D02*
X190000000Y-105000000D01*
X70000000Y-75000000D02*
X190000000Y-75000000D01*
X130000000Y-45000000D02*
X130000000Y-165000000D01*
X160000000Y-45000000D02*
X160000000Y-165000000D01*
X100000000Y-45000000D02*
X100000000Y-165000000D01*
X70000000Y-165000000D02*
X70000000Y-45000000D01*
X190000000Y-165000000D02*
X70000000Y-165000000D01*
X190000000Y-45000000D02*
X190000000Y-165000000D01*
X70000000Y-45000000D02*
X190000000Y-45000000D01*
X22000000Y3000000D02*
X238000000Y3000000D01*
X22000000Y-213000000D02*
X22000000Y3000000D01*
X238000000Y-213000000D02*
X22000000Y-213000000D01*
X238000000Y3000000D02*
X238000000Y-213000000D01*
D12*
%TO.C,R108*%
X115432380Y-163780952D02*
X114956190Y-163447619D01*
X115432380Y-163209523D02*
X114432380Y-163209523D01*
X114432380Y-163590476D01*
X114480000Y-163685714D01*
X114527619Y-163733333D01*
X114622857Y-163780952D01*
X114765714Y-163780952D01*
X114860952Y-163733333D01*
X114908571Y-163685714D01*
X114956190Y-163590476D01*
X114956190Y-163209523D01*
X115432380Y-164733333D02*
X115432380Y-164161904D01*
X115432380Y-164447619D02*
X114432380Y-164447619D01*
X114575238Y-164352380D01*
X114670476Y-164257142D01*
X114718095Y-164161904D01*
X114432380Y-165352380D02*
X114432380Y-165447619D01*
X114480000Y-165542857D01*
X114527619Y-165590476D01*
X114622857Y-165638095D01*
X114813333Y-165685714D01*
X115051428Y-165685714D01*
X115241904Y-165638095D01*
X115337142Y-165590476D01*
X115384761Y-165542857D01*
X115432380Y-165447619D01*
X115432380Y-165352380D01*
X115384761Y-165257142D01*
X115337142Y-165209523D01*
X115241904Y-165161904D01*
X115051428Y-165114285D01*
X114813333Y-165114285D01*
X114622857Y-165161904D01*
X114527619Y-165209523D01*
X114480000Y-165257142D01*
X114432380Y-165352380D01*
X114860952Y-166257142D02*
X114813333Y-166161904D01*
X114765714Y-166114285D01*
X114670476Y-166066666D01*
X114622857Y-166066666D01*
X114527619Y-166114285D01*
X114480000Y-166161904D01*
X114432380Y-166257142D01*
X114432380Y-166447619D01*
X114480000Y-166542857D01*
X114527619Y-166590476D01*
X114622857Y-166638095D01*
X114670476Y-166638095D01*
X114765714Y-166590476D01*
X114813333Y-166542857D01*
X114860952Y-166447619D01*
X114860952Y-166257142D01*
X114908571Y-166161904D01*
X114956190Y-166114285D01*
X115051428Y-166066666D01*
X115241904Y-166066666D01*
X115337142Y-166114285D01*
X115384761Y-166161904D01*
X115432380Y-166257142D01*
X115432380Y-166447619D01*
X115384761Y-166542857D01*
X115337142Y-166590476D01*
X115241904Y-166638095D01*
X115051428Y-166638095D01*
X114956190Y-166590476D01*
X114908571Y-166542857D01*
X114860952Y-166447619D01*
%TO.C,R107*%
X115432380Y-133680952D02*
X114956190Y-133347619D01*
X115432380Y-133109523D02*
X114432380Y-133109523D01*
X114432380Y-133490476D01*
X114480000Y-133585714D01*
X114527619Y-133633333D01*
X114622857Y-133680952D01*
X114765714Y-133680952D01*
X114860952Y-133633333D01*
X114908571Y-133585714D01*
X114956190Y-133490476D01*
X114956190Y-133109523D01*
X115432380Y-134633333D02*
X115432380Y-134061904D01*
X115432380Y-134347619D02*
X114432380Y-134347619D01*
X114575238Y-134252380D01*
X114670476Y-134157142D01*
X114718095Y-134061904D01*
X114432380Y-135252380D02*
X114432380Y-135347619D01*
X114480000Y-135442857D01*
X114527619Y-135490476D01*
X114622857Y-135538095D01*
X114813333Y-135585714D01*
X115051428Y-135585714D01*
X115241904Y-135538095D01*
X115337142Y-135490476D01*
X115384761Y-135442857D01*
X115432380Y-135347619D01*
X115432380Y-135252380D01*
X115384761Y-135157142D01*
X115337142Y-135109523D01*
X115241904Y-135061904D01*
X115051428Y-135014285D01*
X114813333Y-135014285D01*
X114622857Y-135061904D01*
X114527619Y-135109523D01*
X114480000Y-135157142D01*
X114432380Y-135252380D01*
X114432380Y-135919047D02*
X114432380Y-136585714D01*
X115432380Y-136157142D01*
%TO.C,R106*%
X131119047Y-124172380D02*
X131452380Y-123696190D01*
X131690476Y-124172380D02*
X131690476Y-123172380D01*
X131309523Y-123172380D01*
X131214285Y-123220000D01*
X131166666Y-123267619D01*
X131119047Y-123362857D01*
X131119047Y-123505714D01*
X131166666Y-123600952D01*
X131214285Y-123648571D01*
X131309523Y-123696190D01*
X131690476Y-123696190D01*
X130166666Y-124172380D02*
X130738095Y-124172380D01*
X130452380Y-124172380D02*
X130452380Y-123172380D01*
X130547619Y-123315238D01*
X130642857Y-123410476D01*
X130738095Y-123458095D01*
X129547619Y-123172380D02*
X129452380Y-123172380D01*
X129357142Y-123220000D01*
X129309523Y-123267619D01*
X129261904Y-123362857D01*
X129214285Y-123553333D01*
X129214285Y-123791428D01*
X129261904Y-123981904D01*
X129309523Y-124077142D01*
X129357142Y-124124761D01*
X129452380Y-124172380D01*
X129547619Y-124172380D01*
X129642857Y-124124761D01*
X129690476Y-124077142D01*
X129738095Y-123981904D01*
X129785714Y-123791428D01*
X129785714Y-123553333D01*
X129738095Y-123362857D01*
X129690476Y-123267619D01*
X129642857Y-123220000D01*
X129547619Y-123172380D01*
X128357142Y-123172380D02*
X128547619Y-123172380D01*
X128642857Y-123220000D01*
X128690476Y-123267619D01*
X128785714Y-123410476D01*
X128833333Y-123600952D01*
X128833333Y-123981904D01*
X128785714Y-124077142D01*
X128738095Y-124124761D01*
X128642857Y-124172380D01*
X128452380Y-124172380D01*
X128357142Y-124124761D01*
X128309523Y-124077142D01*
X128261904Y-123981904D01*
X128261904Y-123743809D01*
X128309523Y-123648571D01*
X128357142Y-123600952D01*
X128452380Y-123553333D01*
X128642857Y-123553333D01*
X128738095Y-123600952D01*
X128785714Y-123648571D01*
X128833333Y-123743809D01*
%TO.C,R105*%
X101119047Y-114232380D02*
X101452380Y-113756190D01*
X101690476Y-114232380D02*
X101690476Y-113232380D01*
X101309523Y-113232380D01*
X101214285Y-113280000D01*
X101166666Y-113327619D01*
X101119047Y-113422857D01*
X101119047Y-113565714D01*
X101166666Y-113660952D01*
X101214285Y-113708571D01*
X101309523Y-113756190D01*
X101690476Y-113756190D01*
X100166666Y-114232380D02*
X100738095Y-114232380D01*
X100452380Y-114232380D02*
X100452380Y-113232380D01*
X100547619Y-113375238D01*
X100642857Y-113470476D01*
X100738095Y-113518095D01*
X99547619Y-113232380D02*
X99452380Y-113232380D01*
X99357142Y-113280000D01*
X99309523Y-113327619D01*
X99261904Y-113422857D01*
X99214285Y-113613333D01*
X99214285Y-113851428D01*
X99261904Y-114041904D01*
X99309523Y-114137142D01*
X99357142Y-114184761D01*
X99452380Y-114232380D01*
X99547619Y-114232380D01*
X99642857Y-114184761D01*
X99690476Y-114137142D01*
X99738095Y-114041904D01*
X99785714Y-113851428D01*
X99785714Y-113613333D01*
X99738095Y-113422857D01*
X99690476Y-113327619D01*
X99642857Y-113280000D01*
X99547619Y-113232380D01*
X98309523Y-113232380D02*
X98785714Y-113232380D01*
X98833333Y-113708571D01*
X98785714Y-113660952D01*
X98690476Y-113613333D01*
X98452380Y-113613333D01*
X98357142Y-113660952D01*
X98309523Y-113708571D01*
X98261904Y-113803809D01*
X98261904Y-114041904D01*
X98309523Y-114137142D01*
X98357142Y-114184761D01*
X98452380Y-114232380D01*
X98690476Y-114232380D01*
X98785714Y-114184761D01*
X98833333Y-114137142D01*
%TO.C,R104*%
X156132380Y-73680952D02*
X155656190Y-73347619D01*
X156132380Y-73109523D02*
X155132380Y-73109523D01*
X155132380Y-73490476D01*
X155180000Y-73585714D01*
X155227619Y-73633333D01*
X155322857Y-73680952D01*
X155465714Y-73680952D01*
X155560952Y-73633333D01*
X155608571Y-73585714D01*
X155656190Y-73490476D01*
X155656190Y-73109523D01*
X156132380Y-74633333D02*
X156132380Y-74061904D01*
X156132380Y-74347619D02*
X155132380Y-74347619D01*
X155275238Y-74252380D01*
X155370476Y-74157142D01*
X155418095Y-74061904D01*
X155132380Y-75252380D02*
X155132380Y-75347619D01*
X155180000Y-75442857D01*
X155227619Y-75490476D01*
X155322857Y-75538095D01*
X155513333Y-75585714D01*
X155751428Y-75585714D01*
X155941904Y-75538095D01*
X156037142Y-75490476D01*
X156084761Y-75442857D01*
X156132380Y-75347619D01*
X156132380Y-75252380D01*
X156084761Y-75157142D01*
X156037142Y-75109523D01*
X155941904Y-75061904D01*
X155751428Y-75014285D01*
X155513333Y-75014285D01*
X155322857Y-75061904D01*
X155227619Y-75109523D01*
X155180000Y-75157142D01*
X155132380Y-75252380D01*
X155465714Y-76442857D02*
X156132380Y-76442857D01*
X155084761Y-76204761D02*
X155799047Y-75966666D01*
X155799047Y-76585714D01*
%TO.C,R103*%
X155227619Y-106019047D02*
X155703809Y-106352380D01*
X155227619Y-106590476D02*
X156227619Y-106590476D01*
X156227619Y-106209523D01*
X156180000Y-106114285D01*
X156132380Y-106066666D01*
X156037142Y-106019047D01*
X155894285Y-106019047D01*
X155799047Y-106066666D01*
X155751428Y-106114285D01*
X155703809Y-106209523D01*
X155703809Y-106590476D01*
X155227619Y-105066666D02*
X155227619Y-105638095D01*
X155227619Y-105352380D02*
X156227619Y-105352380D01*
X156084761Y-105447619D01*
X155989523Y-105542857D01*
X155941904Y-105638095D01*
X156227619Y-104447619D02*
X156227619Y-104352380D01*
X156180000Y-104257142D01*
X156132380Y-104209523D01*
X156037142Y-104161904D01*
X155846666Y-104114285D01*
X155608571Y-104114285D01*
X155418095Y-104161904D01*
X155322857Y-104209523D01*
X155275238Y-104257142D01*
X155227619Y-104352380D01*
X155227619Y-104447619D01*
X155275238Y-104542857D01*
X155322857Y-104590476D01*
X155418095Y-104638095D01*
X155608571Y-104685714D01*
X155846666Y-104685714D01*
X156037142Y-104638095D01*
X156132380Y-104590476D01*
X156180000Y-104542857D01*
X156227619Y-104447619D01*
X156227619Y-103780952D02*
X156227619Y-103161904D01*
X155846666Y-103495238D01*
X155846666Y-103352380D01*
X155799047Y-103257142D01*
X155751428Y-103209523D01*
X155656190Y-103161904D01*
X155418095Y-103161904D01*
X155322857Y-103209523D01*
X155275238Y-103257142D01*
X155227619Y-103352380D01*
X155227619Y-103638095D01*
X155275238Y-103733333D01*
X155322857Y-103780952D01*
%TO.C,R102*%
X151727619Y-106019047D02*
X152203809Y-106352380D01*
X151727619Y-106590476D02*
X152727619Y-106590476D01*
X152727619Y-106209523D01*
X152680000Y-106114285D01*
X152632380Y-106066666D01*
X152537142Y-106019047D01*
X152394285Y-106019047D01*
X152299047Y-106066666D01*
X152251428Y-106114285D01*
X152203809Y-106209523D01*
X152203809Y-106590476D01*
X151727619Y-105066666D02*
X151727619Y-105638095D01*
X151727619Y-105352380D02*
X152727619Y-105352380D01*
X152584761Y-105447619D01*
X152489523Y-105542857D01*
X152441904Y-105638095D01*
X152727619Y-104447619D02*
X152727619Y-104352380D01*
X152680000Y-104257142D01*
X152632380Y-104209523D01*
X152537142Y-104161904D01*
X152346666Y-104114285D01*
X152108571Y-104114285D01*
X151918095Y-104161904D01*
X151822857Y-104209523D01*
X151775238Y-104257142D01*
X151727619Y-104352380D01*
X151727619Y-104447619D01*
X151775238Y-104542857D01*
X151822857Y-104590476D01*
X151918095Y-104638095D01*
X152108571Y-104685714D01*
X152346666Y-104685714D01*
X152537142Y-104638095D01*
X152632380Y-104590476D01*
X152680000Y-104542857D01*
X152727619Y-104447619D01*
X152632380Y-103733333D02*
X152680000Y-103685714D01*
X152727619Y-103590476D01*
X152727619Y-103352380D01*
X152680000Y-103257142D01*
X152632380Y-103209523D01*
X152537142Y-103161904D01*
X152441904Y-103161904D01*
X152299047Y-103209523D01*
X151727619Y-103780952D01*
X151727619Y-103161904D01*
%TO.C,R101*%
X159772380Y-133680952D02*
X159296190Y-133347619D01*
X159772380Y-133109523D02*
X158772380Y-133109523D01*
X158772380Y-133490476D01*
X158820000Y-133585714D01*
X158867619Y-133633333D01*
X158962857Y-133680952D01*
X159105714Y-133680952D01*
X159200952Y-133633333D01*
X159248571Y-133585714D01*
X159296190Y-133490476D01*
X159296190Y-133109523D01*
X159772380Y-134633333D02*
X159772380Y-134061904D01*
X159772380Y-134347619D02*
X158772380Y-134347619D01*
X158915238Y-134252380D01*
X159010476Y-134157142D01*
X159058095Y-134061904D01*
X158772380Y-135252380D02*
X158772380Y-135347619D01*
X158820000Y-135442857D01*
X158867619Y-135490476D01*
X158962857Y-135538095D01*
X159153333Y-135585714D01*
X159391428Y-135585714D01*
X159581904Y-135538095D01*
X159677142Y-135490476D01*
X159724761Y-135442857D01*
X159772380Y-135347619D01*
X159772380Y-135252380D01*
X159724761Y-135157142D01*
X159677142Y-135109523D01*
X159581904Y-135061904D01*
X159391428Y-135014285D01*
X159153333Y-135014285D01*
X158962857Y-135061904D01*
X158867619Y-135109523D01*
X158820000Y-135157142D01*
X158772380Y-135252380D01*
X159772380Y-136538095D02*
X159772380Y-135966666D01*
X159772380Y-136252380D02*
X158772380Y-136252380D01*
X158915238Y-136157142D01*
X159010476Y-136061904D01*
X159058095Y-135966666D01*
%TO.C,J102*%
X161305714Y-126242380D02*
X161305714Y-126956666D01*
X161353333Y-127099523D01*
X161448571Y-127194761D01*
X161591428Y-127242380D01*
X161686666Y-127242380D01*
X160305714Y-127242380D02*
X160877142Y-127242380D01*
X160591428Y-127242380D02*
X160591428Y-126242380D01*
X160686666Y-126385238D01*
X160781904Y-126480476D01*
X160877142Y-126528095D01*
X159686666Y-126242380D02*
X159591428Y-126242380D01*
X159496190Y-126290000D01*
X159448571Y-126337619D01*
X159400952Y-126432857D01*
X159353333Y-126623333D01*
X159353333Y-126861428D01*
X159400952Y-127051904D01*
X159448571Y-127147142D01*
X159496190Y-127194761D01*
X159591428Y-127242380D01*
X159686666Y-127242380D01*
X159781904Y-127194761D01*
X159829523Y-127147142D01*
X159877142Y-127051904D01*
X159924761Y-126861428D01*
X159924761Y-126623333D01*
X159877142Y-126432857D01*
X159829523Y-126337619D01*
X159781904Y-126290000D01*
X159686666Y-126242380D01*
X158972380Y-126337619D02*
X158924761Y-126290000D01*
X158829523Y-126242380D01*
X158591428Y-126242380D01*
X158496190Y-126290000D01*
X158448571Y-126337619D01*
X158400952Y-126432857D01*
X158400952Y-126528095D01*
X158448571Y-126670952D01*
X159020000Y-127242380D01*
X158400952Y-127242380D01*
%TO.C,J101*%
X115585714Y-126242380D02*
X115585714Y-126956666D01*
X115633333Y-127099523D01*
X115728571Y-127194761D01*
X115871428Y-127242380D01*
X115966666Y-127242380D01*
X114585714Y-127242380D02*
X115157142Y-127242380D01*
X114871428Y-127242380D02*
X114871428Y-126242380D01*
X114966666Y-126385238D01*
X115061904Y-126480476D01*
X115157142Y-126528095D01*
X113966666Y-126242380D02*
X113871428Y-126242380D01*
X113776190Y-126290000D01*
X113728571Y-126337619D01*
X113680952Y-126432857D01*
X113633333Y-126623333D01*
X113633333Y-126861428D01*
X113680952Y-127051904D01*
X113728571Y-127147142D01*
X113776190Y-127194761D01*
X113871428Y-127242380D01*
X113966666Y-127242380D01*
X114061904Y-127194761D01*
X114109523Y-127147142D01*
X114157142Y-127051904D01*
X114204761Y-126861428D01*
X114204761Y-126623333D01*
X114157142Y-126432857D01*
X114109523Y-126337619D01*
X114061904Y-126290000D01*
X113966666Y-126242380D01*
X112680952Y-127242380D02*
X113252380Y-127242380D01*
X112966666Y-127242380D02*
X112966666Y-126242380D01*
X113061904Y-126385238D01*
X113157142Y-126480476D01*
X113252380Y-126528095D01*
D11*
%TO.C,R108*%
X117710000Y-164297936D02*
X117710000Y-165502064D01*
X115890000Y-164297936D02*
X115890000Y-165502064D01*
%TO.C,R107*%
X117710000Y-134197936D02*
X117710000Y-135402064D01*
X115890000Y-134197936D02*
X115890000Y-135402064D01*
%TO.C,R106*%
X129397936Y-120990000D02*
X130602064Y-120990000D01*
X129397936Y-122810000D02*
X130602064Y-122810000D01*
%TO.C,R105*%
X100602064Y-116510000D02*
X99397936Y-116510000D01*
X100602064Y-114690000D02*
X99397936Y-114690000D01*
%TO.C,R104*%
X158410000Y-74197936D02*
X158410000Y-75402064D01*
X156590000Y-74197936D02*
X156590000Y-75402064D01*
%TO.C,R103*%
X158410000Y-104297936D02*
X158410000Y-105502064D01*
X156590000Y-104297936D02*
X156590000Y-105502064D01*
%TO.C,R102*%
X154910000Y-104297936D02*
X154910000Y-105502064D01*
X153090000Y-104297936D02*
X153090000Y-105502064D01*
%TO.C,R101*%
X156590000Y-135402064D02*
X156590000Y-134197936D01*
X158410000Y-135402064D02*
X158410000Y-134197936D01*
%TO.C,J102*%
X157420000Y-125790000D02*
X162620000Y-125790000D01*
X157420000Y-112970000D02*
X162620000Y-112970000D01*
X155980000Y-125220000D02*
X157420000Y-125220000D01*
X157420000Y-125790000D02*
X157420000Y-125220000D01*
X162620000Y-125790000D02*
X162620000Y-125220000D01*
X157420000Y-113540000D02*
X157420000Y-112970000D01*
X162620000Y-113540000D02*
X162620000Y-112970000D01*
X157420000Y-123700000D02*
X157420000Y-122680000D01*
X162620000Y-123700000D02*
X162620000Y-122680000D01*
X157420000Y-121160000D02*
X157420000Y-120140000D01*
X162620000Y-121160000D02*
X162620000Y-120140000D01*
X157420000Y-118620000D02*
X157420000Y-117600000D01*
X162620000Y-118620000D02*
X162620000Y-117600000D01*
X157420000Y-116080000D02*
X157420000Y-115060000D01*
X162620000Y-116080000D02*
X162620000Y-115060000D01*
%TO.C,J101*%
X116900000Y-116080000D02*
X116900000Y-115060000D01*
X111700000Y-116080000D02*
X111700000Y-115060000D01*
X116900000Y-118620000D02*
X116900000Y-117600000D01*
X111700000Y-118620000D02*
X111700000Y-117600000D01*
X116900000Y-121160000D02*
X116900000Y-120140000D01*
X111700000Y-121160000D02*
X111700000Y-120140000D01*
X116900000Y-123700000D02*
X116900000Y-122680000D01*
X111700000Y-123700000D02*
X111700000Y-122680000D01*
X116900000Y-113540000D02*
X116900000Y-112970000D01*
X111700000Y-113540000D02*
X111700000Y-112970000D01*
X116900000Y-125790000D02*
X116900000Y-125220000D01*
X111700000Y-125790000D02*
X111700000Y-125220000D01*
X110260000Y-125220000D02*
X111700000Y-125220000D01*
X111700000Y-112970000D02*
X116900000Y-112970000D01*
X111700000Y-125790000D02*
X116900000Y-125790000D01*
%TD*%
%LPC*%
%TO.C,R108*%
G36*
G01*
X116175000Y-165675000D02*
X117425000Y-165675000D01*
G75*
G02*
X117675000Y-165925000I0J-250000D01*
G01*
X117675000Y-166675000D01*
G75*
G02*
X117425000Y-166925000I-250000J0D01*
G01*
X116175000Y-166925000D01*
G75*
G02*
X115925000Y-166675000I0J250000D01*
G01*
X115925000Y-165925000D01*
G75*
G02*
X116175000Y-165675000I250000J0D01*
G01*
G37*
G36*
G01*
X116175000Y-162875000D02*
X117425000Y-162875000D01*
G75*
G02*
X117675000Y-163125000I0J-250000D01*
G01*
X117675000Y-163875000D01*
G75*
G02*
X117425000Y-164125000I-250000J0D01*
G01*
X116175000Y-164125000D01*
G75*
G02*
X115925000Y-163875000I0J250000D01*
G01*
X115925000Y-163125000D01*
G75*
G02*
X116175000Y-162875000I250000J0D01*
G01*
G37*
%TD*%
%TO.C,R107*%
G36*
G01*
X116175000Y-135575000D02*
X117425000Y-135575000D01*
G75*
G02*
X117675000Y-135825000I0J-250000D01*
G01*
X117675000Y-136575000D01*
G75*
G02*
X117425000Y-136825000I-250000J0D01*
G01*
X116175000Y-136825000D01*
G75*
G02*
X115925000Y-136575000I0J250000D01*
G01*
X115925000Y-135825000D01*
G75*
G02*
X116175000Y-135575000I250000J0D01*
G01*
G37*
G36*
G01*
X116175000Y-132775000D02*
X117425000Y-132775000D01*
G75*
G02*
X117675000Y-133025000I0J-250000D01*
G01*
X117675000Y-133775000D01*
G75*
G02*
X117425000Y-134025000I-250000J0D01*
G01*
X116175000Y-134025000D01*
G75*
G02*
X115925000Y-133775000I0J250000D01*
G01*
X115925000Y-133025000D01*
G75*
G02*
X116175000Y-132775000I250000J0D01*
G01*
G37*
%TD*%
%TO.C,R106*%
G36*
G01*
X130775000Y-122525000D02*
X130775000Y-121275000D01*
G75*
G02*
X131025000Y-121025000I250000J0D01*
G01*
X131775000Y-121025000D01*
G75*
G02*
X132025000Y-121275000I0J-250000D01*
G01*
X132025000Y-122525000D01*
G75*
G02*
X131775000Y-122775000I-250000J0D01*
G01*
X131025000Y-122775000D01*
G75*
G02*
X130775000Y-122525000I0J250000D01*
G01*
G37*
G36*
G01*
X127975000Y-122525000D02*
X127975000Y-121275000D01*
G75*
G02*
X128225000Y-121025000I250000J0D01*
G01*
X128975000Y-121025000D01*
G75*
G02*
X129225000Y-121275000I0J-250000D01*
G01*
X129225000Y-122525000D01*
G75*
G02*
X128975000Y-122775000I-250000J0D01*
G01*
X128225000Y-122775000D01*
G75*
G02*
X127975000Y-122525000I0J250000D01*
G01*
G37*
%TD*%
%TO.C,R105*%
G36*
G01*
X99225000Y-114975000D02*
X99225000Y-116225000D01*
G75*
G02*
X98975000Y-116475000I-250000J0D01*
G01*
X98225000Y-116475000D01*
G75*
G02*
X97975000Y-116225000I0J250000D01*
G01*
X97975000Y-114975000D01*
G75*
G02*
X98225000Y-114725000I250000J0D01*
G01*
X98975000Y-114725000D01*
G75*
G02*
X99225000Y-114975000I0J-250000D01*
G01*
G37*
G36*
G01*
X102025000Y-114975000D02*
X102025000Y-116225000D01*
G75*
G02*
X101775000Y-116475000I-250000J0D01*
G01*
X101025000Y-116475000D01*
G75*
G02*
X100775000Y-116225000I0J250000D01*
G01*
X100775000Y-114975000D01*
G75*
G02*
X101025000Y-114725000I250000J0D01*
G01*
X101775000Y-114725000D01*
G75*
G02*
X102025000Y-114975000I0J-250000D01*
G01*
G37*
%TD*%
%TO.C,R104*%
G36*
G01*
X156875000Y-75575000D02*
X158125000Y-75575000D01*
G75*
G02*
X158375000Y-75825000I0J-250000D01*
G01*
X158375000Y-76575000D01*
G75*
G02*
X158125000Y-76825000I-250000J0D01*
G01*
X156875000Y-76825000D01*
G75*
G02*
X156625000Y-76575000I0J250000D01*
G01*
X156625000Y-75825000D01*
G75*
G02*
X156875000Y-75575000I250000J0D01*
G01*
G37*
G36*
G01*
X156875000Y-72775000D02*
X158125000Y-72775000D01*
G75*
G02*
X158375000Y-73025000I0J-250000D01*
G01*
X158375000Y-73775000D01*
G75*
G02*
X158125000Y-74025000I-250000J0D01*
G01*
X156875000Y-74025000D01*
G75*
G02*
X156625000Y-73775000I0J250000D01*
G01*
X156625000Y-73025000D01*
G75*
G02*
X156875000Y-72775000I250000J0D01*
G01*
G37*
%TD*%
%TO.C,R103*%
G36*
G01*
X156875000Y-105675000D02*
X158125000Y-105675000D01*
G75*
G02*
X158375000Y-105925000I0J-250000D01*
G01*
X158375000Y-106675000D01*
G75*
G02*
X158125000Y-106925000I-250000J0D01*
G01*
X156875000Y-106925000D01*
G75*
G02*
X156625000Y-106675000I0J250000D01*
G01*
X156625000Y-105925000D01*
G75*
G02*
X156875000Y-105675000I250000J0D01*
G01*
G37*
G36*
G01*
X156875000Y-102875000D02*
X158125000Y-102875000D01*
G75*
G02*
X158375000Y-103125000I0J-250000D01*
G01*
X158375000Y-103875000D01*
G75*
G02*
X158125000Y-104125000I-250000J0D01*
G01*
X156875000Y-104125000D01*
G75*
G02*
X156625000Y-103875000I0J250000D01*
G01*
X156625000Y-103125000D01*
G75*
G02*
X156875000Y-102875000I250000J0D01*
G01*
G37*
%TD*%
%TO.C,R102*%
G36*
G01*
X153375000Y-105675000D02*
X154625000Y-105675000D01*
G75*
G02*
X154875000Y-105925000I0J-250000D01*
G01*
X154875000Y-106675000D01*
G75*
G02*
X154625000Y-106925000I-250000J0D01*
G01*
X153375000Y-106925000D01*
G75*
G02*
X153125000Y-106675000I0J250000D01*
G01*
X153125000Y-105925000D01*
G75*
G02*
X153375000Y-105675000I250000J0D01*
G01*
G37*
G36*
G01*
X153375000Y-102875000D02*
X154625000Y-102875000D01*
G75*
G02*
X154875000Y-103125000I0J-250000D01*
G01*
X154875000Y-103875000D01*
G75*
G02*
X154625000Y-104125000I-250000J0D01*
G01*
X153375000Y-104125000D01*
G75*
G02*
X153125000Y-103875000I0J250000D01*
G01*
X153125000Y-103125000D01*
G75*
G02*
X153375000Y-102875000I250000J0D01*
G01*
G37*
%TD*%
%TO.C,R101*%
G36*
G01*
X158125000Y-134025000D02*
X156875000Y-134025000D01*
G75*
G02*
X156625000Y-133775000I0J250000D01*
G01*
X156625000Y-133025000D01*
G75*
G02*
X156875000Y-132775000I250000J0D01*
G01*
X158125000Y-132775000D01*
G75*
G02*
X158375000Y-133025000I0J-250000D01*
G01*
X158375000Y-133775000D01*
G75*
G02*
X158125000Y-134025000I-250000J0D01*
G01*
G37*
G36*
G01*
X158125000Y-136825000D02*
X156875000Y-136825000D01*
G75*
G02*
X156625000Y-136575000I0J250000D01*
G01*
X156625000Y-135825000D01*
G75*
G02*
X156875000Y-135575000I250000J0D01*
G01*
X158125000Y-135575000D01*
G75*
G02*
X158375000Y-135825000I0J-250000D01*
G01*
X158375000Y-136575000D01*
G75*
G02*
X158125000Y-136825000I-250000J0D01*
G01*
G37*
%TD*%
D13*
%TO.C,J102*%
X157495000Y-124460000D03*
X162545000Y-124460000D03*
X157495000Y-121920000D03*
X162545000Y-121920000D03*
X157495000Y-119380000D03*
X162545000Y-119380000D03*
X157495000Y-116840000D03*
X162545000Y-116840000D03*
X157495000Y-114300000D03*
X162545000Y-114300000D03*
%TD*%
%TO.C,J101*%
X116825000Y-114300000D03*
X111775000Y-114300000D03*
X116825000Y-116840000D03*
X111775000Y-116840000D03*
X116825000Y-119380000D03*
X111775000Y-119380000D03*
X116825000Y-121920000D03*
X111775000Y-121920000D03*
X116825000Y-124460000D03*
X111775000Y-124460000D03*
%TD*%
M02*
