%TF.GenerationSoftware,KiCad,Pcbnew,5.99.0-unknown-acf13a186~104~ubuntu20.04.1*%
%TF.CreationDate,2020-09-23T10:38:41+02:00*%
%TF.ProjectId,leds,6c656473-2e6b-4696-9361-645f70636258,rev?*%
%TF.SameCoordinates,Original*%
%TF.FileFunction,Paste,Top*%
%TF.FilePolarity,Positive*%
%FSLAX46Y46*%
G04 Gerber Fmt 4.6, Leading zero omitted, Abs format (unit mm)*
G04 Created by KiCad (PCBNEW 5.99.0-unknown-acf13a186~104~ubuntu20.04.1) date 2020-09-23 10:38:41*
%MOMM*%
%LPD*%
G01*
G04 APERTURE LIST*
%ADD10R,0.800000X0.800000*%
G04 APERTURE END LIST*
D10*
%TO.C,D125*%
X188700000Y-164275000D03*
X191300000Y-165725000D03*
X188700000Y-165725000D03*
X191300000Y-164275000D03*
%TD*%
%TO.C,D124*%
X188700000Y-134275000D03*
X191300000Y-135725000D03*
X188700000Y-135725000D03*
X191300000Y-134275000D03*
%TD*%
%TO.C,D123*%
X188700000Y-104275000D03*
X191300000Y-105725000D03*
X188700000Y-105725000D03*
X191300000Y-104275000D03*
%TD*%
%TO.C,D122*%
X188700000Y-74275000D03*
X191300000Y-75725000D03*
X188700000Y-75725000D03*
X191300000Y-74275000D03*
%TD*%
%TO.C,D121*%
X188700000Y-44275000D03*
X191300000Y-45725000D03*
X188700000Y-45725000D03*
X191300000Y-44275000D03*
%TD*%
%TO.C,D120*%
X158700000Y-164275000D03*
X161300000Y-165725000D03*
X158700000Y-165725000D03*
X161300000Y-164275000D03*
%TD*%
%TO.C,D119*%
X158700000Y-134275000D03*
X161300000Y-135725000D03*
X158700000Y-135725000D03*
X161300000Y-134275000D03*
%TD*%
%TO.C,D118*%
X158700000Y-104275000D03*
X161300000Y-105725000D03*
X158700000Y-105725000D03*
X161300000Y-104275000D03*
%TD*%
%TO.C,D117*%
X158700000Y-74275000D03*
X161300000Y-75725000D03*
X158700000Y-75725000D03*
X161300000Y-74275000D03*
%TD*%
%TO.C,D116*%
X158700000Y-44275000D03*
X161300000Y-45725000D03*
X158700000Y-45725000D03*
X161300000Y-44275000D03*
%TD*%
%TO.C,D115*%
X128700000Y-164275000D03*
X131300000Y-165725000D03*
X128700000Y-165725000D03*
X131300000Y-164275000D03*
%TD*%
%TO.C,D114*%
X128700000Y-134275000D03*
X131300000Y-135725000D03*
X128700000Y-135725000D03*
X131300000Y-134275000D03*
%TD*%
%TO.C,D113*%
X128700000Y-104275000D03*
X131300000Y-105725000D03*
X128700000Y-105725000D03*
X131300000Y-104275000D03*
%TD*%
%TO.C,D112*%
X128700000Y-74275000D03*
X131300000Y-75725000D03*
X128700000Y-75725000D03*
X131300000Y-74275000D03*
%TD*%
%TO.C,D111*%
X128700000Y-44275000D03*
X131300000Y-45725000D03*
X128700000Y-45725000D03*
X131300000Y-44275000D03*
%TD*%
%TO.C,D110*%
X98700000Y-164275000D03*
X101300000Y-165725000D03*
X98700000Y-165725000D03*
X101300000Y-164275000D03*
%TD*%
%TO.C,D109*%
X98700000Y-134275000D03*
X101300000Y-135725000D03*
X98700000Y-135725000D03*
X101300000Y-134275000D03*
%TD*%
%TO.C,D108*%
X98700000Y-104275000D03*
X101300000Y-105725000D03*
X98700000Y-105725000D03*
X101300000Y-104275000D03*
%TD*%
%TO.C,D107*%
X98700000Y-74275000D03*
X101300000Y-75725000D03*
X98700000Y-75725000D03*
X101300000Y-74275000D03*
%TD*%
%TO.C,D106*%
X98700000Y-44275000D03*
X101300000Y-45725000D03*
X98700000Y-45725000D03*
X101300000Y-44275000D03*
%TD*%
%TO.C,D105*%
X68700000Y-164275000D03*
X71300000Y-165725000D03*
X68700000Y-165725000D03*
X71300000Y-164275000D03*
%TD*%
%TO.C,D104*%
X68700000Y-134275000D03*
X71300000Y-135725000D03*
X68700000Y-135725000D03*
X71300000Y-134275000D03*
%TD*%
%TO.C,D103*%
X68700000Y-104275000D03*
X71300000Y-105725000D03*
X68700000Y-105725000D03*
X71300000Y-104275000D03*
%TD*%
%TO.C,D102*%
X68700000Y-74275000D03*
X71300000Y-75725000D03*
X68700000Y-75725000D03*
X71300000Y-74275000D03*
%TD*%
%TO.C,D101*%
X68700000Y-44275000D03*
X71300000Y-45725000D03*
X68700000Y-45725000D03*
X71300000Y-44275000D03*
%TD*%
M02*
