%TF.GenerationSoftware,KiCad,Pcbnew,5.99.0-unknown-acf13a186~104~ubuntu20.04.1*%
%TF.CreationDate,2020-09-23T10:38:40+02:00*%
%TF.ProjectId,leds,6c656473-2e6b-4696-9361-645f70636258,rev?*%
%TF.SameCoordinates,Original*%
%TF.FileFunction,Copper,L1,Top*%
%TF.FilePolarity,Positive*%
%FSLAX46Y46*%
G04 Gerber Fmt 4.6, Leading zero omitted, Abs format (unit mm)*
G04 Created by KiCad (PCBNEW 5.99.0-unknown-acf13a186~104~ubuntu20.04.1) date 2020-09-23 10:38:40*
%MOMM*%
%LPD*%
G01*
G04 APERTURE LIST*
%TA.AperFunction,SMDPad,CuDef*%
%ADD10R,0.800000X0.800000*%
%TD*%
%TA.AperFunction,ViaPad*%
%ADD11C,0.600000*%
%TD*%
%TA.AperFunction,Conductor*%
%ADD12C,0.600000*%
%TD*%
G04 APERTURE END LIST*
D10*
%TO.P,D125,3,K1*%
%TO.N,SW1*%
X188700000Y-164275000D03*
%TO.P,D125,2,A2*%
%TO.N,Net-(D125-Pad2)*%
X191300000Y-165725000D03*
%TO.P,D125,4,K2*%
%TO.N,Net-(D125-Pad4)*%
X188700000Y-165725000D03*
%TO.P,D125,1,A1*%
%TO.N,CS1*%
X191300000Y-164275000D03*
%TD*%
%TO.P,D124,3,K1*%
%TO.N,SW2*%
X188700000Y-134275000D03*
%TO.P,D124,2,A2*%
%TO.N,Net-(D124-Pad2)*%
X191300000Y-135725000D03*
%TO.P,D124,4,K2*%
%TO.N,Net-(D124-Pad4)*%
X188700000Y-135725000D03*
%TO.P,D124,1,A1*%
%TO.N,CS1*%
X191300000Y-134275000D03*
%TD*%
%TO.P,D123,3,K1*%
%TO.N,SW3*%
X188700000Y-104275000D03*
%TO.P,D123,2,A2*%
%TO.N,Net-(D123-Pad2)*%
X191300000Y-105725000D03*
%TO.P,D123,4,K2*%
%TO.N,Net-(D123-Pad4)*%
X188700000Y-105725000D03*
%TO.P,D123,1,A1*%
%TO.N,CS1*%
X191300000Y-104275000D03*
%TD*%
%TO.P,D122,3,K1*%
%TO.N,SW4*%
X188700000Y-74275000D03*
%TO.P,D122,2,A2*%
%TO.N,Net-(D122-Pad2)*%
X191300000Y-75725000D03*
%TO.P,D122,4,K2*%
%TO.N,Net-(D122-Pad4)*%
X188700000Y-75725000D03*
%TO.P,D122,1,A1*%
%TO.N,CS1*%
X191300000Y-74275000D03*
%TD*%
%TO.P,D121,3,K1*%
%TO.N,SW5*%
X188700000Y-44275000D03*
%TO.P,D121,2,A2*%
%TO.N,Net-(D121-Pad2)*%
X191300000Y-45725000D03*
%TO.P,D121,4,K2*%
%TO.N,Net-(D121-Pad4)*%
X188700000Y-45725000D03*
%TO.P,D121,1,A1*%
%TO.N,CS1*%
X191300000Y-44275000D03*
%TD*%
%TO.P,D120,3,K1*%
%TO.N,SW1*%
X158700000Y-164275000D03*
%TO.P,D120,2,A2*%
%TO.N,Net-(D120-Pad2)*%
X161300000Y-165725000D03*
%TO.P,D120,4,K2*%
%TO.N,Net-(D120-Pad4)*%
X158700000Y-165725000D03*
%TO.P,D120,1,A1*%
%TO.N,CS2*%
X161300000Y-164275000D03*
%TD*%
%TO.P,D119,3,K1*%
%TO.N,SW2*%
X158700000Y-134275000D03*
%TO.P,D119,2,A2*%
%TO.N,Net-(D119-Pad2)*%
X161300000Y-135725000D03*
%TO.P,D119,4,K2*%
%TO.N,Net-(D119-Pad4)*%
X158700000Y-135725000D03*
%TO.P,D119,1,A1*%
%TO.N,CS2*%
X161300000Y-134275000D03*
%TD*%
%TO.P,D118,3,K1*%
%TO.N,SW3*%
X158700000Y-104275000D03*
%TO.P,D118,2,A2*%
%TO.N,Net-(D118-Pad2)*%
X161300000Y-105725000D03*
%TO.P,D118,4,K2*%
%TO.N,Net-(D118-Pad4)*%
X158700000Y-105725000D03*
%TO.P,D118,1,A1*%
%TO.N,CS2*%
X161300000Y-104275000D03*
%TD*%
%TO.P,D117,3,K1*%
%TO.N,SW4*%
X158700000Y-74275000D03*
%TO.P,D117,2,A2*%
%TO.N,Net-(D117-Pad2)*%
X161300000Y-75725000D03*
%TO.P,D117,4,K2*%
%TO.N,Net-(D117-Pad4)*%
X158700000Y-75725000D03*
%TO.P,D117,1,A1*%
%TO.N,CS2*%
X161300000Y-74275000D03*
%TD*%
%TO.P,D116,3,K1*%
%TO.N,SW5*%
X158700000Y-44275000D03*
%TO.P,D116,2,A2*%
%TO.N,Net-(D116-Pad2)*%
X161300000Y-45725000D03*
%TO.P,D116,4,K2*%
%TO.N,Net-(D116-Pad4)*%
X158700000Y-45725000D03*
%TO.P,D116,1,A1*%
%TO.N,CS2*%
X161300000Y-44275000D03*
%TD*%
%TO.P,D115,3,K1*%
%TO.N,SW1*%
X128700000Y-164275000D03*
%TO.P,D115,2,A2*%
%TO.N,Net-(D115-Pad2)*%
X131300000Y-165725000D03*
%TO.P,D115,4,K2*%
%TO.N,Net-(D115-Pad4)*%
X128700000Y-165725000D03*
%TO.P,D115,1,A1*%
%TO.N,CS3*%
X131300000Y-164275000D03*
%TD*%
%TO.P,D114,3,K1*%
%TO.N,SW2*%
X128700000Y-134275000D03*
%TO.P,D114,2,A2*%
%TO.N,Net-(D114-Pad2)*%
X131300000Y-135725000D03*
%TO.P,D114,4,K2*%
%TO.N,Net-(D114-Pad4)*%
X128700000Y-135725000D03*
%TO.P,D114,1,A1*%
%TO.N,CS3*%
X131300000Y-134275000D03*
%TD*%
%TO.P,D113,3,K1*%
%TO.N,SW3*%
X128700000Y-104275000D03*
%TO.P,D113,2,A2*%
%TO.N,Net-(D113-Pad2)*%
X131300000Y-105725000D03*
%TO.P,D113,4,K2*%
%TO.N,Net-(D113-Pad4)*%
X128700000Y-105725000D03*
%TO.P,D113,1,A1*%
%TO.N,CS3*%
X131300000Y-104275000D03*
%TD*%
%TO.P,D112,3,K1*%
%TO.N,SW4*%
X128700000Y-74275000D03*
%TO.P,D112,2,A2*%
%TO.N,Net-(D112-Pad2)*%
X131300000Y-75725000D03*
%TO.P,D112,4,K2*%
%TO.N,Net-(D112-Pad4)*%
X128700000Y-75725000D03*
%TO.P,D112,1,A1*%
%TO.N,CS3*%
X131300000Y-74275000D03*
%TD*%
%TO.P,D111,3,K1*%
%TO.N,SW5*%
X128700000Y-44275000D03*
%TO.P,D111,2,A2*%
%TO.N,Net-(D111-Pad2)*%
X131300000Y-45725000D03*
%TO.P,D111,4,K2*%
%TO.N,Net-(D111-Pad4)*%
X128700000Y-45725000D03*
%TO.P,D111,1,A1*%
%TO.N,CS3*%
X131300000Y-44275000D03*
%TD*%
%TO.P,D110,3,K1*%
%TO.N,SW1*%
X98700000Y-164275000D03*
%TO.P,D110,2,A2*%
%TO.N,Net-(D110-Pad2)*%
X101300000Y-165725000D03*
%TO.P,D110,4,K2*%
%TO.N,Net-(D110-Pad4)*%
X98700000Y-165725000D03*
%TO.P,D110,1,A1*%
%TO.N,CS4*%
X101300000Y-164275000D03*
%TD*%
%TO.P,D109,3,K1*%
%TO.N,SW2*%
X98700000Y-134275000D03*
%TO.P,D109,2,A2*%
%TO.N,Net-(D109-Pad2)*%
X101300000Y-135725000D03*
%TO.P,D109,4,K2*%
%TO.N,Net-(D109-Pad4)*%
X98700000Y-135725000D03*
%TO.P,D109,1,A1*%
%TO.N,CS4*%
X101300000Y-134275000D03*
%TD*%
%TO.P,D108,3,K1*%
%TO.N,SW3*%
X98700000Y-104275000D03*
%TO.P,D108,2,A2*%
%TO.N,Net-(D108-Pad2)*%
X101300000Y-105725000D03*
%TO.P,D108,4,K2*%
%TO.N,Net-(D108-Pad4)*%
X98700000Y-105725000D03*
%TO.P,D108,1,A1*%
%TO.N,CS4*%
X101300000Y-104275000D03*
%TD*%
%TO.P,D107,3,K1*%
%TO.N,SW4*%
X98700000Y-74275000D03*
%TO.P,D107,2,A2*%
%TO.N,Net-(D107-Pad2)*%
X101300000Y-75725000D03*
%TO.P,D107,4,K2*%
%TO.N,Net-(D107-Pad4)*%
X98700000Y-75725000D03*
%TO.P,D107,1,A1*%
%TO.N,CS4*%
X101300000Y-74275000D03*
%TD*%
%TO.P,D106,3,K1*%
%TO.N,SW5*%
X98700000Y-44275000D03*
%TO.P,D106,2,A2*%
%TO.N,Net-(D106-Pad2)*%
X101300000Y-45725000D03*
%TO.P,D106,4,K2*%
%TO.N,Net-(D106-Pad4)*%
X98700000Y-45725000D03*
%TO.P,D106,1,A1*%
%TO.N,CS4*%
X101300000Y-44275000D03*
%TD*%
%TO.P,D105,3,K1*%
%TO.N,SW1*%
X68700000Y-164275000D03*
%TO.P,D105,2,A2*%
%TO.N,Net-(D105-Pad2)*%
X71300000Y-165725000D03*
%TO.P,D105,4,K2*%
%TO.N,Net-(D105-Pad4)*%
X68700000Y-165725000D03*
%TO.P,D105,1,A1*%
%TO.N,CS5*%
X71300000Y-164275000D03*
%TD*%
%TO.P,D104,3,K1*%
%TO.N,SW2*%
X68700000Y-134275000D03*
%TO.P,D104,2,A2*%
%TO.N,Net-(D104-Pad2)*%
X71300000Y-135725000D03*
%TO.P,D104,4,K2*%
%TO.N,Net-(D104-Pad4)*%
X68700000Y-135725000D03*
%TO.P,D104,1,A1*%
%TO.N,CS5*%
X71300000Y-134275000D03*
%TD*%
%TO.P,D103,3,K1*%
%TO.N,SW3*%
X68700000Y-104275000D03*
%TO.P,D103,2,A2*%
%TO.N,Net-(D103-Pad2)*%
X71300000Y-105725000D03*
%TO.P,D103,4,K2*%
%TO.N,Net-(D103-Pad4)*%
X68700000Y-105725000D03*
%TO.P,D103,1,A1*%
%TO.N,CS5*%
X71300000Y-104275000D03*
%TD*%
%TO.P,D102,3,K1*%
%TO.N,SW4*%
X68700000Y-74275000D03*
%TO.P,D102,2,A2*%
%TO.N,Net-(D102-Pad2)*%
X71300000Y-75725000D03*
%TO.P,D102,4,K2*%
%TO.N,Net-(D102-Pad4)*%
X68700000Y-75725000D03*
%TO.P,D102,1,A1*%
%TO.N,CS5*%
X71300000Y-74275000D03*
%TD*%
%TO.P,D101,3,K1*%
%TO.N,SW5*%
X68700000Y-44275000D03*
%TO.P,D101,2,A2*%
%TO.N,Net-(D101-Pad2)*%
X71300000Y-45725000D03*
%TO.P,D101,4,K2*%
%TO.N,Net-(D101-Pad4)*%
X68700000Y-45725000D03*
%TO.P,D101,1,A1*%
%TO.N,CS5*%
X71300000Y-44275000D03*
%TD*%
D11*
%TO.N,SW1*%
X99600000Y-164900000D03*
X129600000Y-164900000D03*
X159600000Y-164900000D03*
X69600000Y-164900000D03*
X189600000Y-164900000D03*
%TO.N,CS5*%
X70000000Y-136000000D03*
X70000000Y-164000000D03*
X70000000Y-134000000D03*
X70000000Y-106000000D03*
X70000000Y-104000000D03*
X70000000Y-76000000D03*
X70000000Y-45900000D03*
X70000000Y-73900000D03*
%TO.N,CS1*%
X190000000Y-135900000D03*
X190000000Y-164000000D03*
X190000000Y-106000000D03*
X190000000Y-134000000D03*
X190000000Y-76000000D03*
X190000000Y-104000000D03*
X190000000Y-74000000D03*
X190000000Y-45900000D03*
%TO.N,CS2*%
X160000000Y-136000000D03*
X160000000Y-163900000D03*
X160000000Y-106000000D03*
X160000000Y-133900000D03*
X160000000Y-103900000D03*
X160000000Y-75900000D03*
X160000000Y-74000000D03*
X160000000Y-45900000D03*
%TO.N,CS4*%
X100000000Y-164000000D03*
X100000000Y-136000000D03*
X100000000Y-106000000D03*
X100000000Y-133900000D03*
%TO.N,SW3*%
X99600000Y-104900000D03*
%TO.N,CS4*%
X100000000Y-76000000D03*
X100000000Y-103900000D03*
X100000000Y-73900000D03*
X100000000Y-45900000D03*
%TO.N,CS3*%
X130000000Y-163900000D03*
X130000000Y-136100000D03*
X130000000Y-106100000D03*
X130000000Y-133900000D03*
%TO.N,SW2*%
X129600000Y-134800000D03*
X159600000Y-134800000D03*
X189600000Y-134800000D03*
X99600000Y-134800000D03*
X69600000Y-134800000D03*
%TO.N,SW3*%
X69600000Y-104900000D03*
X159600000Y-104900000D03*
X129600000Y-104900000D03*
X189600000Y-104900000D03*
%TO.N,SW4*%
X69500000Y-74800000D03*
X99600000Y-74800000D03*
X189600000Y-74800000D03*
X129600000Y-74800000D03*
X159600000Y-74800000D03*
%TO.N,CS3*%
X130000000Y-76100000D03*
X130000000Y-103900000D03*
X130000000Y-46000000D03*
X130000000Y-73800000D03*
%TO.N,SW5*%
X99600000Y-44000000D03*
X129600000Y-44000000D03*
X159600000Y-44000000D03*
X69700000Y-44000000D03*
X189700000Y-44000000D03*
%TD*%
D12*
%TO.N,SW1*%
X98700000Y-164275000D02*
X98975000Y-164275000D01*
X98975000Y-164275000D02*
X99600000Y-164900000D01*
X128975000Y-164275000D02*
X129600000Y-164900000D01*
X128700000Y-164275000D02*
X128975000Y-164275000D01*
X158700000Y-164275000D02*
X158975000Y-164275000D01*
X158975000Y-164275000D02*
X159600000Y-164900000D01*
X68700000Y-164275000D02*
X68975000Y-164275000D01*
X68975000Y-164275000D02*
X69600000Y-164900000D01*
X188975000Y-164275000D02*
X188700000Y-164275000D01*
X189600000Y-164900000D02*
X188975000Y-164275000D01*
%TO.N,CS5*%
X71300000Y-134275000D02*
X71242876Y-134275000D01*
X70000000Y-135531384D02*
X70000000Y-136000000D01*
X71025000Y-164000000D02*
X71300000Y-164275000D01*
X70400008Y-135117868D02*
X70400008Y-135131376D01*
X71242876Y-134275000D02*
X70400008Y-135117868D01*
X70400008Y-135131376D02*
X70000000Y-135531384D01*
X70000000Y-164000000D02*
X71025000Y-164000000D01*
X70000000Y-105631384D02*
X70000000Y-106000000D01*
X70400008Y-105117868D02*
X70400008Y-105231376D01*
X71300000Y-104275000D02*
X71242876Y-104275000D01*
X71025000Y-134000000D02*
X71300000Y-134275000D01*
X71242876Y-104275000D02*
X70400008Y-105117868D01*
X70400008Y-105231376D02*
X70000000Y-105631384D01*
X70000000Y-134000000D02*
X71025000Y-134000000D01*
X71150010Y-74824990D02*
X70692886Y-74824990D01*
X71300000Y-74675000D02*
X71150010Y-74824990D01*
X71025000Y-104000000D02*
X71300000Y-104275000D01*
X71300000Y-74275000D02*
X71300000Y-74675000D01*
X70000000Y-75517876D02*
X70000000Y-76000000D01*
X70692886Y-74824990D02*
X70000000Y-75517876D01*
X70000000Y-104000000D02*
X71025000Y-104000000D01*
X70900000Y-44275000D02*
X70000000Y-45175000D01*
X70000000Y-45175000D02*
X70000000Y-45900000D01*
X71300000Y-44275000D02*
X70900000Y-44275000D01*
X70925000Y-73900000D02*
X71300000Y-74275000D01*
X70000000Y-73900000D02*
X70925000Y-73900000D01*
%TO.N,CS1*%
X191025000Y-164000000D02*
X191300000Y-164275000D01*
X190399990Y-135500010D02*
X190000000Y-135900000D01*
X190399990Y-135117886D02*
X190399990Y-135500010D01*
X191300000Y-134275000D02*
X191242876Y-134275000D01*
X190000000Y-164000000D02*
X191025000Y-164000000D01*
X191242876Y-134275000D02*
X190399990Y-135117886D01*
X191300000Y-104675000D02*
X191150010Y-104824990D01*
X190399990Y-105117886D02*
X190399990Y-105600010D01*
X191025000Y-134000000D02*
X191300000Y-134275000D01*
X190399990Y-105600010D02*
X190000000Y-106000000D01*
X191300000Y-104275000D02*
X191300000Y-104675000D01*
X191150010Y-104824990D02*
X190692886Y-104824990D01*
X190692886Y-104824990D02*
X190399990Y-105117886D01*
X190000000Y-134000000D02*
X191025000Y-134000000D01*
X190400010Y-75117866D02*
X190400010Y-75131374D01*
X191300000Y-74275000D02*
X191300000Y-74675000D01*
X191025000Y-104000000D02*
X191300000Y-104275000D01*
X190400010Y-75131374D02*
X190000000Y-75531384D01*
X190692886Y-74824990D02*
X190400010Y-75117866D01*
X190000000Y-104000000D02*
X191025000Y-104000000D01*
X191150010Y-74824990D02*
X190692886Y-74824990D01*
X191300000Y-74675000D02*
X191150010Y-74824990D01*
X190000000Y-75531384D02*
X190000000Y-76000000D01*
X190000000Y-74000000D02*
X191025000Y-74000000D01*
X191025000Y-74000000D02*
X191300000Y-74275000D01*
X191300000Y-44275000D02*
X190900000Y-44275000D01*
X190000000Y-45175000D02*
X190000000Y-45900000D01*
X190900000Y-44275000D02*
X190000000Y-45175000D01*
%TO.N,CS2*%
X161300000Y-134675000D02*
X161150010Y-134824990D01*
X160400008Y-135131376D02*
X160000000Y-135531384D01*
X161300000Y-134275000D02*
X161300000Y-134675000D01*
X160000000Y-135531384D02*
X160000000Y-136000000D01*
X160692886Y-134824990D02*
X160400008Y-135117868D01*
X160400008Y-135117868D02*
X160400008Y-135131376D01*
X161150010Y-134824990D02*
X160692886Y-134824990D01*
X160000000Y-163900000D02*
X160925000Y-163900000D01*
X160925000Y-163900000D02*
X161300000Y-164275000D01*
X160000000Y-74000000D02*
X161025000Y-74000000D01*
X161025000Y-74000000D02*
X161300000Y-74275000D01*
X161242876Y-104275000D02*
X160400008Y-105117868D01*
X160000000Y-133900000D02*
X160925000Y-133900000D01*
X160000000Y-105631384D02*
X160000000Y-106000000D01*
X161300000Y-104275000D02*
X161242876Y-104275000D01*
X160400008Y-105117868D02*
X160400008Y-105231376D01*
X160400008Y-105231376D02*
X160000000Y-105631384D01*
X160925000Y-133900000D02*
X161300000Y-134275000D01*
X160000000Y-103900000D02*
X160925000Y-103900000D01*
X160925000Y-103900000D02*
X161300000Y-104275000D01*
X161242876Y-74275000D02*
X160400010Y-75117866D01*
X160400010Y-75117866D02*
X160400010Y-75131374D01*
X161300000Y-74275000D02*
X161242876Y-74275000D01*
X160000000Y-75531384D02*
X160000000Y-75900000D01*
X160400010Y-75131374D02*
X160000000Y-75531384D01*
X160000000Y-45175000D02*
X160000000Y-45900000D01*
X160900000Y-44275000D02*
X160000000Y-45175000D01*
X161300000Y-44275000D02*
X160900000Y-44275000D01*
%TO.N,CS3*%
X131300000Y-164275000D02*
X130375000Y-164275000D01*
X130375000Y-164275000D02*
X130000000Y-163900000D01*
%TO.N,CS4*%
X101300000Y-164275000D02*
X100275000Y-164275000D01*
X100275000Y-164275000D02*
X100000000Y-164000000D01*
X100400010Y-135131374D02*
X100000000Y-135531384D01*
X100400010Y-135117866D02*
X100400010Y-135131374D01*
X101300000Y-134275000D02*
X101242876Y-134275000D01*
X100000000Y-135531384D02*
X100000000Y-136000000D01*
X101242876Y-134275000D02*
X100400010Y-135117866D01*
X100900000Y-104275000D02*
X100400008Y-104774992D01*
X100399990Y-105600010D02*
X100000000Y-106000000D01*
X100399990Y-105117886D02*
X100399990Y-105600010D01*
X100400008Y-105117868D02*
X100399990Y-105117886D01*
X101300000Y-104275000D02*
X100900000Y-104275000D01*
X100400008Y-104774992D02*
X100400008Y-105117868D01*
X100000000Y-133900000D02*
X100925000Y-133900000D01*
X100925000Y-133900000D02*
X101300000Y-134275000D01*
%TO.N,SW3*%
X98700000Y-104275000D02*
X98975000Y-104275000D01*
X98975000Y-104275000D02*
X99600000Y-104900000D01*
%TO.N,CS4*%
X100399990Y-75117886D02*
X100399990Y-75600010D01*
X101300000Y-74275000D02*
X101242876Y-74275000D01*
X100925000Y-103900000D02*
X101300000Y-104275000D01*
X100399990Y-75600010D02*
X100000000Y-76000000D01*
X101242876Y-74275000D02*
X100399990Y-75117886D01*
X100000000Y-103900000D02*
X100925000Y-103900000D01*
X101300000Y-44275000D02*
X100900000Y-44275000D01*
X100900000Y-44275000D02*
X100000000Y-45175000D01*
X100000000Y-45175000D02*
X100000000Y-45900000D01*
X100000000Y-73900000D02*
X100925000Y-73900000D01*
X100925000Y-73900000D02*
X101300000Y-74275000D01*
%TO.N,CS3*%
X130000000Y-135531384D02*
X130000000Y-136100000D01*
X131242876Y-134275000D02*
X130400008Y-135117868D01*
X131300000Y-134275000D02*
X131242876Y-134275000D01*
X130400008Y-135117868D02*
X130400008Y-135131376D01*
X130400008Y-135131376D02*
X130000000Y-135531384D01*
X131300000Y-104675000D02*
X131150010Y-104824990D01*
X130399990Y-105700010D02*
X130000000Y-106100000D01*
X130399990Y-105117886D02*
X130399990Y-105700010D01*
X131300000Y-104275000D02*
X131300000Y-104675000D01*
X130692886Y-104824990D02*
X130399990Y-105117886D01*
X131150010Y-104824990D02*
X130692886Y-104824990D01*
X130000000Y-133900000D02*
X130925000Y-133900000D01*
X130925000Y-133900000D02*
X131300000Y-134275000D01*
%TO.N,SW2*%
X128700000Y-134275000D02*
X129075000Y-134275000D01*
X129075000Y-134275000D02*
X129600000Y-134800000D01*
X158700000Y-134275000D02*
X159075000Y-134275000D01*
X159075000Y-134275000D02*
X159600000Y-134800000D01*
X189600000Y-134800000D02*
X189225000Y-134800000D01*
X189225000Y-134800000D02*
X188700000Y-134275000D01*
X99225000Y-134800000D02*
X98700000Y-134275000D01*
X99600000Y-134800000D02*
X99225000Y-134800000D01*
X68700000Y-134275000D02*
X69075000Y-134275000D01*
X69075000Y-134275000D02*
X69600000Y-134800000D01*
%TO.N,SW3*%
X68975000Y-104275000D02*
X68700000Y-104275000D01*
X69600000Y-104900000D02*
X68975000Y-104275000D01*
X158975000Y-104275000D02*
X159600000Y-104900000D01*
X158700000Y-104275000D02*
X158975000Y-104275000D01*
X128975000Y-104275000D02*
X129600000Y-104900000D01*
X128700000Y-104275000D02*
X128975000Y-104275000D01*
X189600000Y-104900000D02*
X188975000Y-104275000D01*
X188975000Y-104275000D02*
X188700000Y-104275000D01*
%TO.N,SW4*%
X69225000Y-74800000D02*
X68700000Y-74275000D01*
X69500000Y-74800000D02*
X69225000Y-74800000D01*
X99600000Y-74800000D02*
X99225000Y-74800000D01*
X99225000Y-74800000D02*
X98700000Y-74275000D01*
X189600000Y-74800000D02*
X189225000Y-74800000D01*
X189225000Y-74800000D02*
X188700000Y-74275000D01*
X128700000Y-74275000D02*
X129075000Y-74275000D01*
X129075000Y-74275000D02*
X129600000Y-74800000D01*
X159600000Y-74800000D02*
X159225000Y-74800000D01*
X159225000Y-74800000D02*
X158700000Y-74275000D01*
%TO.N,CS3*%
X131225000Y-74275000D02*
X130350000Y-75150000D01*
X130000000Y-76100000D02*
X130200000Y-76100000D01*
X130200000Y-76100000D02*
X130350000Y-75950000D01*
X130350000Y-75950000D02*
X130350000Y-75150000D01*
X130000000Y-103900000D02*
X130925000Y-103900000D01*
X131300000Y-74275000D02*
X131225000Y-74275000D01*
X130925000Y-103900000D02*
X131300000Y-104275000D01*
X130900000Y-44275000D02*
X130000000Y-45175000D01*
X130825000Y-73800000D02*
X131300000Y-74275000D01*
X130000000Y-45175000D02*
X130000000Y-46000000D01*
X130000000Y-73800000D02*
X130825000Y-73800000D01*
X131300000Y-44275000D02*
X130900000Y-44275000D01*
%TO.N,SW5*%
X99325000Y-44275000D02*
X99600000Y-44000000D01*
X98700000Y-44275000D02*
X99325000Y-44275000D01*
X128700000Y-44275000D02*
X129325000Y-44275000D01*
X129325000Y-44275000D02*
X129600000Y-44000000D01*
X159325000Y-44275000D02*
X159600000Y-44000000D01*
X158700000Y-44275000D02*
X159325000Y-44275000D01*
X68700000Y-44275000D02*
X69425000Y-44275000D01*
X69425000Y-44275000D02*
X69700000Y-44000000D01*
X189700000Y-44000000D02*
X188975000Y-44000000D01*
X188975000Y-44000000D02*
X188700000Y-44275000D01*
%TD*%
M02*
