%FSLAX45Y45*%
G04 Gerber Fmt 4.5, Leading zero omitted, Abs format (unit mm)*
G04 Created by KiCad (PCBNEW 5.99.0-unknown-acf13a186~104~ubuntu20.04.1) date 2020-09-23 10:38:48*
%MOMM*%
%LPD*%
G01*
G04 APERTURE LIST*
%TA.AperFunction,Profile*%
%ADD10C,0.050000*%
%TD*%
%ADD11C,0.200000*%
%ADD12C,0.030000*%
G04 APERTURE END LIST*
D10*
X1500000Y-22000000D02*
X1500000Y1000000D01*
X24500000Y-22000000D02*
X1500000Y-22000000D01*
X24500000Y1000000D02*
X24500000Y-22000000D01*
X1500000Y1000000D02*
X24500000Y1000000D01*
D11*
D12*
X6935000Y-7465000D02*
X6965000Y-7495000D01*
X6965000Y-7465000D02*
X6935000Y-7495000D01*
X6945000Y-10475000D02*
X6975000Y-10505000D01*
X6975000Y-10475000D02*
X6945000Y-10505000D01*
X6945000Y-13465000D02*
X6975000Y-13495000D01*
X6975000Y-13465000D02*
X6945000Y-13495000D01*
X6945000Y-16475000D02*
X6975000Y-16505000D01*
X6975000Y-16475000D02*
X6945000Y-16505000D01*
X6955000Y-4385000D02*
X6985000Y-4415000D01*
X6985000Y-4385000D02*
X6955000Y-4415000D01*
X6985000Y-4575000D02*
X7015000Y-4605000D01*
X7015000Y-4575000D02*
X6985000Y-4605000D01*
X6985000Y-7375000D02*
X7015000Y-7405000D01*
X7015000Y-7375000D02*
X6985000Y-7405000D01*
X6985000Y-7585000D02*
X7015000Y-7615000D01*
X7015000Y-7585000D02*
X6985000Y-7615000D01*
X6985000Y-10385000D02*
X7015000Y-10415000D01*
X7015000Y-10385000D02*
X6985000Y-10415000D01*
X6985000Y-10585000D02*
X7015000Y-10615000D01*
X7015000Y-10585000D02*
X6985000Y-10615000D01*
X6985000Y-13385000D02*
X7015000Y-13415000D01*
X7015000Y-13385000D02*
X6985000Y-13415000D01*
X6985000Y-13585000D02*
X7015000Y-13615000D01*
X7015000Y-13585000D02*
X6985000Y-13615000D01*
X6985000Y-16385000D02*
X7015000Y-16415000D01*
X7015000Y-16385000D02*
X6985000Y-16415000D01*
X9945000Y-4385000D02*
X9975000Y-4415000D01*
X9975000Y-4385000D02*
X9945000Y-4415000D01*
X9945000Y-7465000D02*
X9975000Y-7495000D01*
X9975000Y-7465000D02*
X9945000Y-7495000D01*
X9945000Y-10475000D02*
X9975000Y-10505000D01*
X9975000Y-10475000D02*
X9945000Y-10505000D01*
X9945000Y-13465000D02*
X9975000Y-13495000D01*
X9975000Y-13465000D02*
X9945000Y-13495000D01*
X9945000Y-16475000D02*
X9975000Y-16505000D01*
X9975000Y-16475000D02*
X9945000Y-16505000D01*
X9985000Y-4575000D02*
X10015000Y-4605000D01*
X10015000Y-4575000D02*
X9985000Y-4605000D01*
X9985000Y-7375000D02*
X10015000Y-7405000D01*
X10015000Y-7375000D02*
X9985000Y-7405000D01*
X9985000Y-7585000D02*
X10015000Y-7615000D01*
X10015000Y-7585000D02*
X9985000Y-7615000D01*
X9985000Y-10375000D02*
X10015000Y-10405000D01*
X10015000Y-10375000D02*
X9985000Y-10405000D01*
X9985000Y-10585000D02*
X10015000Y-10615000D01*
X10015000Y-10585000D02*
X9985000Y-10615000D01*
X9985000Y-13375000D02*
X10015000Y-13405000D01*
X10015000Y-13375000D02*
X9985000Y-13405000D01*
X9985000Y-13585000D02*
X10015000Y-13615000D01*
X10015000Y-13585000D02*
X9985000Y-13615000D01*
X9985000Y-16385000D02*
X10015000Y-16415000D01*
X10015000Y-16385000D02*
X9985000Y-16415000D01*
X12945000Y-4385000D02*
X12975000Y-4415000D01*
X12975000Y-4385000D02*
X12945000Y-4415000D01*
X12945000Y-7465000D02*
X12975000Y-7495000D01*
X12975000Y-7465000D02*
X12945000Y-7495000D01*
X12945000Y-10475000D02*
X12975000Y-10505000D01*
X12975000Y-10475000D02*
X12945000Y-10505000D01*
X12945000Y-13465000D02*
X12975000Y-13495000D01*
X12975000Y-13465000D02*
X12945000Y-13495000D01*
X12945000Y-16475000D02*
X12975000Y-16505000D01*
X12975000Y-16475000D02*
X12945000Y-16505000D01*
X12985000Y-4585000D02*
X13015000Y-4615000D01*
X13015000Y-4585000D02*
X12985000Y-4615000D01*
X12985000Y-7365000D02*
X13015000Y-7395000D01*
X13015000Y-7365000D02*
X12985000Y-7395000D01*
X12985000Y-7595000D02*
X13015000Y-7625000D01*
X13015000Y-7595000D02*
X12985000Y-7625000D01*
X12985000Y-10375000D02*
X13015000Y-10405000D01*
X13015000Y-10375000D02*
X12985000Y-10405000D01*
X12985000Y-10595000D02*
X13015000Y-10625000D01*
X13015000Y-10595000D02*
X12985000Y-10625000D01*
X12985000Y-13375000D02*
X13015000Y-13405000D01*
X13015000Y-13375000D02*
X12985000Y-13405000D01*
X12985000Y-13595000D02*
X13015000Y-13625000D01*
X13015000Y-13595000D02*
X12985000Y-13625000D01*
X12985000Y-16375000D02*
X13015000Y-16405000D01*
X13015000Y-16375000D02*
X12985000Y-16405000D01*
X15945000Y-4385000D02*
X15975000Y-4415000D01*
X15975000Y-4385000D02*
X15945000Y-4415000D01*
X15945000Y-7465000D02*
X15975000Y-7495000D01*
X15975000Y-7465000D02*
X15945000Y-7495000D01*
X15945000Y-10475000D02*
X15975000Y-10505000D01*
X15975000Y-10475000D02*
X15945000Y-10505000D01*
X15945000Y-13465000D02*
X15975000Y-13495000D01*
X15975000Y-13465000D02*
X15945000Y-13495000D01*
X15945000Y-16475000D02*
X15975000Y-16505000D01*
X15975000Y-16475000D02*
X15945000Y-16505000D01*
X15985000Y-4575000D02*
X16015000Y-4605000D01*
X16015000Y-4575000D02*
X15985000Y-4605000D01*
X15985000Y-7385000D02*
X16015000Y-7415000D01*
X16015000Y-7385000D02*
X15985000Y-7415000D01*
X15985000Y-7575000D02*
X16015000Y-7605000D01*
X16015000Y-7575000D02*
X15985000Y-7605000D01*
X15985000Y-10375000D02*
X16015000Y-10405000D01*
X16015000Y-10375000D02*
X15985000Y-10405000D01*
X15985000Y-10585000D02*
X16015000Y-10615000D01*
X16015000Y-10585000D02*
X15985000Y-10615000D01*
X15985000Y-13375000D02*
X16015000Y-13405000D01*
X16015000Y-13375000D02*
X15985000Y-13405000D01*
X15985000Y-13585000D02*
X16015000Y-13615000D01*
X16015000Y-13585000D02*
X15985000Y-13615000D01*
X15985000Y-16375000D02*
X16015000Y-16405000D01*
X16015000Y-16375000D02*
X15985000Y-16405000D01*
X18945000Y-7465000D02*
X18975000Y-7495000D01*
X18975000Y-7465000D02*
X18945000Y-7495000D01*
X18945000Y-10475000D02*
X18975000Y-10505000D01*
X18975000Y-10475000D02*
X18945000Y-10505000D01*
X18945000Y-13465000D02*
X18975000Y-13495000D01*
X18975000Y-13465000D02*
X18945000Y-13495000D01*
X18945000Y-16475000D02*
X18975000Y-16505000D01*
X18975000Y-16475000D02*
X18945000Y-16505000D01*
X18955000Y-4385000D02*
X18985000Y-4415000D01*
X18985000Y-4385000D02*
X18955000Y-4415000D01*
X18985000Y-4575000D02*
X19015000Y-4605000D01*
X19015000Y-4575000D02*
X18985000Y-4605000D01*
X18985000Y-7385000D02*
X19015000Y-7415000D01*
X19015000Y-7385000D02*
X18985000Y-7415000D01*
X18985000Y-7585000D02*
X19015000Y-7615000D01*
X19015000Y-7585000D02*
X18985000Y-7615000D01*
X18985000Y-10385000D02*
X19015000Y-10415000D01*
X19015000Y-10385000D02*
X18985000Y-10415000D01*
X18985000Y-10585000D02*
X19015000Y-10615000D01*
X19015000Y-10585000D02*
X18985000Y-10615000D01*
X18985000Y-13385000D02*
X19015000Y-13415000D01*
X19015000Y-13385000D02*
X18985000Y-13415000D01*
X18985000Y-13575000D02*
X19015000Y-13605000D01*
X19015000Y-13575000D02*
X18985000Y-13605000D01*
X18985000Y-16385000D02*
X19015000Y-16415000D01*
X19015000Y-16385000D02*
X18985000Y-16415000D01*
D11*
X1755119Y-22312976D02*
X1755119Y-22112976D01*
X1802738Y-22112976D01*
X1831309Y-22122500D01*
X1850357Y-22141548D01*
X1859881Y-22160595D01*
X1869405Y-22198691D01*
X1869405Y-22227262D01*
X1859881Y-22265357D01*
X1850357Y-22284405D01*
X1831309Y-22303452D01*
X1802738Y-22312976D01*
X1755119Y-22312976D01*
X1955119Y-22312976D02*
X1955119Y-22179643D01*
X1955119Y-22217738D02*
X1964643Y-22198691D01*
X1974166Y-22189167D01*
X1993214Y-22179643D01*
X2012262Y-22179643D01*
X2078928Y-22312976D02*
X2078928Y-22179643D01*
X2078928Y-22112976D02*
X2069405Y-22122500D01*
X2078928Y-22132024D01*
X2088452Y-22122500D01*
X2078928Y-22112976D01*
X2078928Y-22132024D01*
X2202738Y-22312976D02*
X2183690Y-22303452D01*
X2174167Y-22284405D01*
X2174167Y-22112976D01*
X2307500Y-22312976D02*
X2288452Y-22303452D01*
X2278928Y-22284405D01*
X2278928Y-22112976D01*
X2536071Y-22312976D02*
X2536071Y-22112976D01*
X2602738Y-22255833D01*
X2669405Y-22112976D01*
X2669405Y-22312976D01*
X2850357Y-22312976D02*
X2850357Y-22208214D01*
X2840833Y-22189167D01*
X2821786Y-22179643D01*
X2783690Y-22179643D01*
X2764643Y-22189167D01*
X2850357Y-22303452D02*
X2831309Y-22312976D01*
X2783690Y-22312976D01*
X2764643Y-22303452D01*
X2755119Y-22284405D01*
X2755119Y-22265357D01*
X2764643Y-22246310D01*
X2783690Y-22236786D01*
X2831309Y-22236786D01*
X2850357Y-22227262D01*
X2945595Y-22179643D02*
X2945595Y-22379643D01*
X2945595Y-22189167D02*
X2964643Y-22179643D01*
X3002738Y-22179643D01*
X3021786Y-22189167D01*
X3031309Y-22198691D01*
X3040833Y-22217738D01*
X3040833Y-22274881D01*
X3031309Y-22293929D01*
X3021786Y-22303452D01*
X3002738Y-22312976D01*
X2964643Y-22312976D01*
X2945595Y-22303452D01*
X3126547Y-22293929D02*
X3136071Y-22303452D01*
X3126547Y-22312976D01*
X3117024Y-22303452D01*
X3126547Y-22293929D01*
X3126547Y-22312976D01*
X3126547Y-22189167D02*
X3136071Y-22198691D01*
X3126547Y-22208214D01*
X3117024Y-22198691D01*
X3126547Y-22189167D01*
X3126547Y-22208214D01*
D12*
X1467500Y-22627500D02*
X1497500Y-22657500D01*
X1497500Y-22627500D02*
X1467500Y-22657500D01*
D11*
X1793214Y-22532976D02*
X1812262Y-22532976D01*
X1831309Y-22542500D01*
X1840833Y-22552024D01*
X1850357Y-22571071D01*
X1859881Y-22609167D01*
X1859881Y-22656786D01*
X1850357Y-22694881D01*
X1840833Y-22713929D01*
X1831309Y-22723452D01*
X1812262Y-22732976D01*
X1793214Y-22732976D01*
X1774166Y-22723452D01*
X1764643Y-22713929D01*
X1755119Y-22694881D01*
X1745595Y-22656786D01*
X1745595Y-22609167D01*
X1755119Y-22571071D01*
X1764643Y-22552024D01*
X1774166Y-22542500D01*
X1793214Y-22532976D01*
X1945595Y-22713929D02*
X1955119Y-22723452D01*
X1945595Y-22732976D01*
X1936071Y-22723452D01*
X1945595Y-22713929D01*
X1945595Y-22732976D01*
X2021786Y-22532976D02*
X2145595Y-22532976D01*
X2078928Y-22609167D01*
X2107500Y-22609167D01*
X2126548Y-22618690D01*
X2136071Y-22628214D01*
X2145595Y-22647262D01*
X2145595Y-22694881D01*
X2136071Y-22713929D01*
X2126548Y-22723452D01*
X2107500Y-22732976D01*
X2050357Y-22732976D01*
X2031309Y-22723452D01*
X2021786Y-22713929D01*
X2269405Y-22532976D02*
X2288452Y-22532976D01*
X2307500Y-22542500D01*
X2317024Y-22552024D01*
X2326548Y-22571071D01*
X2336071Y-22609167D01*
X2336071Y-22656786D01*
X2326548Y-22694881D01*
X2317024Y-22713929D01*
X2307500Y-22723452D01*
X2288452Y-22732976D01*
X2269405Y-22732976D01*
X2250357Y-22723452D01*
X2240833Y-22713929D01*
X2231309Y-22694881D01*
X2221786Y-22656786D01*
X2221786Y-22609167D01*
X2231309Y-22571071D01*
X2240833Y-22552024D01*
X2250357Y-22542500D01*
X2269405Y-22532976D01*
X2459881Y-22532976D02*
X2478928Y-22532976D01*
X2497976Y-22542500D01*
X2507500Y-22552024D01*
X2517024Y-22571071D01*
X2526548Y-22609167D01*
X2526548Y-22656786D01*
X2517024Y-22694881D01*
X2507500Y-22713929D01*
X2497976Y-22723452D01*
X2478928Y-22732976D01*
X2459881Y-22732976D01*
X2440833Y-22723452D01*
X2431309Y-22713929D01*
X2421786Y-22694881D01*
X2412262Y-22656786D01*
X2412262Y-22609167D01*
X2421786Y-22571071D01*
X2431309Y-22552024D01*
X2440833Y-22542500D01*
X2459881Y-22532976D01*
X2612262Y-22732976D02*
X2612262Y-22599643D01*
X2612262Y-22618690D02*
X2621786Y-22609167D01*
X2640833Y-22599643D01*
X2669405Y-22599643D01*
X2688452Y-22609167D01*
X2697976Y-22628214D01*
X2697976Y-22732976D01*
X2697976Y-22628214D02*
X2707500Y-22609167D01*
X2726548Y-22599643D01*
X2755119Y-22599643D01*
X2774167Y-22609167D01*
X2783690Y-22628214D01*
X2783690Y-22732976D01*
X2878928Y-22732976D02*
X2878928Y-22599643D01*
X2878928Y-22618690D02*
X2888452Y-22609167D01*
X2907500Y-22599643D01*
X2936071Y-22599643D01*
X2955119Y-22609167D01*
X2964643Y-22628214D01*
X2964643Y-22732976D01*
X2964643Y-22628214D02*
X2974166Y-22609167D01*
X2993214Y-22599643D01*
X3021786Y-22599643D01*
X3040833Y-22609167D01*
X3050357Y-22628214D01*
X3050357Y-22732976D01*
X3440833Y-22523452D02*
X3269405Y-22780595D01*
X3697976Y-22532976D02*
X3717024Y-22532976D01*
X3736071Y-22542500D01*
X3745595Y-22552024D01*
X3755119Y-22571071D01*
X3764643Y-22609167D01*
X3764643Y-22656786D01*
X3755119Y-22694881D01*
X3745595Y-22713929D01*
X3736071Y-22723452D01*
X3717024Y-22732976D01*
X3697976Y-22732976D01*
X3678928Y-22723452D01*
X3669405Y-22713929D01*
X3659881Y-22694881D01*
X3650357Y-22656786D01*
X3650357Y-22609167D01*
X3659881Y-22571071D01*
X3669405Y-22552024D01*
X3678928Y-22542500D01*
X3697976Y-22532976D01*
X3850357Y-22713929D02*
X3859881Y-22723452D01*
X3850357Y-22732976D01*
X3840833Y-22723452D01*
X3850357Y-22713929D01*
X3850357Y-22732976D01*
X3983690Y-22532976D02*
X4002738Y-22532976D01*
X4021786Y-22542500D01*
X4031309Y-22552024D01*
X4040833Y-22571071D01*
X4050357Y-22609167D01*
X4050357Y-22656786D01*
X4040833Y-22694881D01*
X4031309Y-22713929D01*
X4021786Y-22723452D01*
X4002738Y-22732976D01*
X3983690Y-22732976D01*
X3964643Y-22723452D01*
X3955119Y-22713929D01*
X3945595Y-22694881D01*
X3936071Y-22656786D01*
X3936071Y-22609167D01*
X3945595Y-22571071D01*
X3955119Y-22552024D01*
X3964643Y-22542500D01*
X3983690Y-22532976D01*
X4240833Y-22732976D02*
X4126547Y-22732976D01*
X4183690Y-22732976D02*
X4183690Y-22532976D01*
X4164643Y-22561548D01*
X4145595Y-22580595D01*
X4126547Y-22590119D01*
X4431309Y-22732976D02*
X4317024Y-22732976D01*
X4374167Y-22732976D02*
X4374167Y-22532976D01*
X4355119Y-22561548D01*
X4336071Y-22580595D01*
X4317024Y-22590119D01*
X4545595Y-22618690D02*
X4526548Y-22609167D01*
X4517024Y-22599643D01*
X4507500Y-22580595D01*
X4507500Y-22571071D01*
X4517024Y-22552024D01*
X4526548Y-22542500D01*
X4545595Y-22532976D01*
X4583690Y-22532976D01*
X4602738Y-22542500D01*
X4612262Y-22552024D01*
X4621786Y-22571071D01*
X4621786Y-22580595D01*
X4612262Y-22599643D01*
X4602738Y-22609167D01*
X4583690Y-22618690D01*
X4545595Y-22618690D01*
X4526548Y-22628214D01*
X4517024Y-22637738D01*
X4507500Y-22656786D01*
X4507500Y-22694881D01*
X4517024Y-22713929D01*
X4526548Y-22723452D01*
X4545595Y-22732976D01*
X4583690Y-22732976D01*
X4602738Y-22723452D01*
X4612262Y-22713929D01*
X4621786Y-22694881D01*
X4621786Y-22656786D01*
X4612262Y-22637738D01*
X4602738Y-22628214D01*
X4583690Y-22618690D01*
X4697976Y-22532976D02*
X4697976Y-22571071D01*
X4774167Y-22532976D02*
X4774167Y-22571071D01*
X5069405Y-22809167D02*
X5059881Y-22799643D01*
X5040833Y-22771071D01*
X5031309Y-22752024D01*
X5021786Y-22723452D01*
X5012262Y-22675833D01*
X5012262Y-22637738D01*
X5021786Y-22590119D01*
X5031309Y-22561548D01*
X5040833Y-22542500D01*
X5059881Y-22513929D01*
X5069405Y-22504405D01*
X5231309Y-22532976D02*
X5193214Y-22532976D01*
X5174167Y-22542500D01*
X5164643Y-22552024D01*
X5145595Y-22580595D01*
X5136071Y-22618690D01*
X5136071Y-22694881D01*
X5145595Y-22713929D01*
X5155119Y-22723452D01*
X5174167Y-22732976D01*
X5212262Y-22732976D01*
X5231309Y-22723452D01*
X5240833Y-22713929D01*
X5250357Y-22694881D01*
X5250357Y-22647262D01*
X5240833Y-22628214D01*
X5231309Y-22618690D01*
X5212262Y-22609167D01*
X5174167Y-22609167D01*
X5155119Y-22618690D01*
X5145595Y-22628214D01*
X5136071Y-22647262D01*
X5431309Y-22532976D02*
X5336071Y-22532976D01*
X5326548Y-22628214D01*
X5336071Y-22618690D01*
X5355119Y-22609167D01*
X5402738Y-22609167D01*
X5421786Y-22618690D01*
X5431309Y-22628214D01*
X5440833Y-22647262D01*
X5440833Y-22694881D01*
X5431309Y-22713929D01*
X5421786Y-22723452D01*
X5402738Y-22732976D01*
X5355119Y-22732976D01*
X5336071Y-22723452D01*
X5326548Y-22713929D01*
X5678928Y-22732976D02*
X5678928Y-22532976D01*
X5764643Y-22732976D02*
X5764643Y-22628214D01*
X5755119Y-22609167D01*
X5736071Y-22599643D01*
X5707500Y-22599643D01*
X5688452Y-22609167D01*
X5678928Y-22618690D01*
X5888452Y-22732976D02*
X5869405Y-22723452D01*
X5859881Y-22713929D01*
X5850357Y-22694881D01*
X5850357Y-22637738D01*
X5859881Y-22618690D01*
X5869405Y-22609167D01*
X5888452Y-22599643D01*
X5917024Y-22599643D01*
X5936071Y-22609167D01*
X5945595Y-22618690D01*
X5955119Y-22637738D01*
X5955119Y-22694881D01*
X5945595Y-22713929D01*
X5936071Y-22723452D01*
X5917024Y-22732976D01*
X5888452Y-22732976D01*
X6069405Y-22732976D02*
X6050357Y-22723452D01*
X6040833Y-22704405D01*
X6040833Y-22532976D01*
X6221786Y-22723452D02*
X6202738Y-22732976D01*
X6164643Y-22732976D01*
X6145595Y-22723452D01*
X6136071Y-22704405D01*
X6136071Y-22628214D01*
X6145595Y-22609167D01*
X6164643Y-22599643D01*
X6202738Y-22599643D01*
X6221786Y-22609167D01*
X6231309Y-22628214D01*
X6231309Y-22647262D01*
X6136071Y-22666310D01*
X6307500Y-22723452D02*
X6326547Y-22732976D01*
X6364643Y-22732976D01*
X6383690Y-22723452D01*
X6393214Y-22704405D01*
X6393214Y-22694881D01*
X6383690Y-22675833D01*
X6364643Y-22666310D01*
X6336071Y-22666310D01*
X6317024Y-22656786D01*
X6307500Y-22637738D01*
X6307500Y-22628214D01*
X6317024Y-22609167D01*
X6336071Y-22599643D01*
X6364643Y-22599643D01*
X6383690Y-22609167D01*
X6459881Y-22809167D02*
X6469405Y-22799643D01*
X6488452Y-22771071D01*
X6497976Y-22752024D01*
X6507500Y-22723452D01*
X6517024Y-22675833D01*
X6517024Y-22637738D01*
X6507500Y-22590119D01*
X6497976Y-22561548D01*
X6488452Y-22542500D01*
X6469405Y-22513929D01*
X6459881Y-22504405D01*
M02*
