%TF.GenerationSoftware,KiCad,Pcbnew,5.99.0-unknown-476558e~101~ubuntu19.10.1*%
%TF.CreationDate,2020-07-07T10:55:02+02:00*%
%TF.ProjectId,matrixctl,6d617472-6978-4637-946c-2e6b69636164,rev?*%
%TF.SameCoordinates,Original*%
%TF.FileFunction,Soldermask,Top*%
%TF.FilePolarity,Negative*%
%FSLAX46Y46*%
G04 Gerber Fmt 4.6, Leading zero omitted, Abs format (unit mm)*
G04 Created by KiCad (PCBNEW 5.99.0-unknown-476558e~101~ubuntu19.10.1) date 2020-07-07 10:55:02*
%MOMM*%
%LPD*%
G01*
G04 APERTURE LIST*
%ADD10R,0.900000X0.800000*%
%ADD11R,1.200000X1.900000*%
%ADD12O,1.200000X1.900000*%
%ADD13R,1.500000X1.900000*%
%ADD14C,1.450000*%
%ADD15R,0.400000X1.350000*%
%ADD16R,0.600000X0.450000*%
%ADD17O,1.700000X1.700000*%
%ADD18R,1.700000X1.700000*%
%ADD19C,1.000000*%
G04 APERTURE END LIST*
%TO.C,R112*%
G36*
G01*
X133656250Y-113950000D02*
X133143750Y-113950000D01*
G75*
G02*
X132925000Y-113731250I0J218750D01*
G01*
X132925000Y-113293750D01*
G75*
G02*
X133143750Y-113075000I218750J0D01*
G01*
X133656250Y-113075000D01*
G75*
G02*
X133875000Y-113293750I0J-218750D01*
G01*
X133875000Y-113731250D01*
G75*
G02*
X133656250Y-113950000I-218750J0D01*
G01*
G37*
G36*
G01*
X133656250Y-115525000D02*
X133143750Y-115525000D01*
G75*
G02*
X132925000Y-115306250I0J218750D01*
G01*
X132925000Y-114868750D01*
G75*
G02*
X133143750Y-114650000I218750J0D01*
G01*
X133656250Y-114650000D01*
G75*
G02*
X133875000Y-114868750I0J-218750D01*
G01*
X133875000Y-115306250D01*
G75*
G02*
X133656250Y-115525000I-218750J0D01*
G01*
G37*
%TD*%
D10*
%TO.C,U102*%
X118500000Y-114000000D03*
X120500000Y-113050000D03*
X120500000Y-114950000D03*
%TD*%
D11*
%TO.C,J104*%
X109900000Y-118137500D03*
X115700000Y-118137500D03*
D12*
X116300000Y-118137500D03*
X109300000Y-118137500D03*
D13*
X111800000Y-118137500D03*
D14*
X115300000Y-115437500D03*
D15*
X112800000Y-115437500D03*
X113450000Y-115437500D03*
X114100000Y-115437500D03*
X111500000Y-115437500D03*
X112150000Y-115437500D03*
D14*
X110300000Y-115437500D03*
D13*
X113800000Y-118137500D03*
%TD*%
%TO.C,FB102*%
G36*
G01*
X117843750Y-118050000D02*
X118756250Y-118050000D01*
G75*
G02*
X119000000Y-118293750I0J-243750D01*
G01*
X119000000Y-118781250D01*
G75*
G02*
X118756250Y-119025000I-243750J0D01*
G01*
X117843750Y-119025000D01*
G75*
G02*
X117600000Y-118781250I0J243750D01*
G01*
X117600000Y-118293750D01*
G75*
G02*
X117843750Y-118050000I243750J0D01*
G01*
G37*
G36*
G01*
X117843750Y-116175000D02*
X118756250Y-116175000D01*
G75*
G02*
X119000000Y-116418750I0J-243750D01*
G01*
X119000000Y-116906250D01*
G75*
G02*
X118756250Y-117150000I-243750J0D01*
G01*
X117843750Y-117150000D01*
G75*
G02*
X117600000Y-116906250I0J243750D01*
G01*
X117600000Y-116418750D01*
G75*
G02*
X117843750Y-116175000I243750J0D01*
G01*
G37*
%TD*%
%TO.C,FB101*%
G36*
G01*
X112150000Y-112743750D02*
X112150000Y-113656250D01*
G75*
G02*
X111906250Y-113900000I-243750J0D01*
G01*
X111418750Y-113900000D01*
G75*
G02*
X111175000Y-113656250I0J243750D01*
G01*
X111175000Y-112743750D01*
G75*
G02*
X111418750Y-112500000I243750J0D01*
G01*
X111906250Y-112500000D01*
G75*
G02*
X112150000Y-112743750I0J-243750D01*
G01*
G37*
G36*
G01*
X114025000Y-112743750D02*
X114025000Y-113656250D01*
G75*
G02*
X113781250Y-113900000I-243750J0D01*
G01*
X113293750Y-113900000D01*
G75*
G02*
X113050000Y-113656250I0J243750D01*
G01*
X113050000Y-112743750D01*
G75*
G02*
X113293750Y-112500000I243750J0D01*
G01*
X113781250Y-112500000D01*
G75*
G02*
X114025000Y-112743750I0J-243750D01*
G01*
G37*
%TD*%
D16*
%TO.C,D101*%
X121850000Y-114800000D03*
X123950000Y-114800000D03*
%TD*%
%TO.C,C107*%
G36*
G01*
X115850000Y-113143750D02*
X115850000Y-113656250D01*
G75*
G02*
X115631250Y-113875000I-218750J0D01*
G01*
X115193750Y-113875000D01*
G75*
G02*
X114975000Y-113656250I0J218750D01*
G01*
X114975000Y-113143750D01*
G75*
G02*
X115193750Y-112925000I218750J0D01*
G01*
X115631250Y-112925000D01*
G75*
G02*
X115850000Y-113143750I0J-218750D01*
G01*
G37*
G36*
G01*
X117425000Y-113143750D02*
X117425000Y-113656250D01*
G75*
G02*
X117206250Y-113875000I-218750J0D01*
G01*
X116768750Y-113875000D01*
G75*
G02*
X116550000Y-113656250I0J218750D01*
G01*
X116550000Y-113143750D01*
G75*
G02*
X116768750Y-112925000I218750J0D01*
G01*
X117206250Y-112925000D01*
G75*
G02*
X117425000Y-113143750I0J-218750D01*
G01*
G37*
%TD*%
%TO.C,C106*%
G36*
G01*
X119362500Y-111143750D02*
X119362500Y-111656250D01*
G75*
G02*
X119143750Y-111875000I-218750J0D01*
G01*
X118706250Y-111875000D01*
G75*
G02*
X118487500Y-111656250I0J218750D01*
G01*
X118487500Y-111143750D01*
G75*
G02*
X118706250Y-110925000I218750J0D01*
G01*
X119143750Y-110925000D01*
G75*
G02*
X119362500Y-111143750I0J-218750D01*
G01*
G37*
G36*
G01*
X120937500Y-111143750D02*
X120937500Y-111656250D01*
G75*
G02*
X120718750Y-111875000I-218750J0D01*
G01*
X120281250Y-111875000D01*
G75*
G02*
X120062500Y-111656250I0J218750D01*
G01*
X120062500Y-111143750D01*
G75*
G02*
X120281250Y-110925000I218750J0D01*
G01*
X120718750Y-110925000D01*
G75*
G02*
X120937500Y-111143750I0J-218750D01*
G01*
G37*
%TD*%
%TO.C,C101*%
G36*
G01*
X123125000Y-106625000D02*
X121275000Y-106625000D01*
G75*
G02*
X121025000Y-106375000I0J250000D01*
G01*
X121025000Y-105550000D01*
G75*
G02*
X121275000Y-105300000I250000J0D01*
G01*
X123125000Y-105300000D01*
G75*
G02*
X123375000Y-105550000I0J-250000D01*
G01*
X123375000Y-106375000D01*
G75*
G02*
X123125000Y-106625000I-250000J0D01*
G01*
G37*
G36*
G01*
X123125000Y-109700000D02*
X121275000Y-109700000D01*
G75*
G02*
X121025000Y-109450000I0J250000D01*
G01*
X121025000Y-108625000D01*
G75*
G02*
X121275000Y-108375000I250000J0D01*
G01*
X123125000Y-108375000D01*
G75*
G02*
X123375000Y-108625000I0J-250000D01*
G01*
X123375000Y-109450000D01*
G75*
G02*
X123125000Y-109700000I-250000J0D01*
G01*
G37*
%TD*%
%TO.C,U101*%
G36*
G01*
X132050000Y-108112500D02*
X132050000Y-111087500D01*
G75*
G02*
X131787500Y-111350000I-262500J0D01*
G01*
X128812500Y-111350000D01*
G75*
G02*
X128550000Y-111087500I0J262500D01*
G01*
X128550000Y-108112500D01*
G75*
G02*
X128812500Y-107850000I262500J0D01*
G01*
X131787500Y-107850000D01*
G75*
G02*
X132050000Y-108112500I0J-262500D01*
G01*
G37*
G36*
G01*
X133150000Y-111037500D02*
X133150000Y-111162500D01*
G75*
G02*
X133087500Y-111225000I-62500J0D01*
G01*
X132412500Y-111225000D01*
G75*
G02*
X132350000Y-111162500I0J62500D01*
G01*
X132350000Y-111037500D01*
G75*
G02*
X132412500Y-110975000I62500J0D01*
G01*
X133087500Y-110975000D01*
G75*
G02*
X133150000Y-111037500I0J-62500D01*
G01*
G37*
G36*
G01*
X133150000Y-110537500D02*
X133150000Y-110662500D01*
G75*
G02*
X133087500Y-110725000I-62500J0D01*
G01*
X132412500Y-110725000D01*
G75*
G02*
X132350000Y-110662500I0J62500D01*
G01*
X132350000Y-110537500D01*
G75*
G02*
X132412500Y-110475000I62500J0D01*
G01*
X133087500Y-110475000D01*
G75*
G02*
X133150000Y-110537500I0J-62500D01*
G01*
G37*
G36*
G01*
X133150000Y-110037500D02*
X133150000Y-110162500D01*
G75*
G02*
X133087500Y-110225000I-62500J0D01*
G01*
X132412500Y-110225000D01*
G75*
G02*
X132350000Y-110162500I0J62500D01*
G01*
X132350000Y-110037500D01*
G75*
G02*
X132412500Y-109975000I62500J0D01*
G01*
X133087500Y-109975000D01*
G75*
G02*
X133150000Y-110037500I0J-62500D01*
G01*
G37*
G36*
G01*
X133150000Y-109537500D02*
X133150000Y-109662500D01*
G75*
G02*
X133087500Y-109725000I-62500J0D01*
G01*
X132412500Y-109725000D01*
G75*
G02*
X132350000Y-109662500I0J62500D01*
G01*
X132350000Y-109537500D01*
G75*
G02*
X132412500Y-109475000I62500J0D01*
G01*
X133087500Y-109475000D01*
G75*
G02*
X133150000Y-109537500I0J-62500D01*
G01*
G37*
G36*
G01*
X133150000Y-109037500D02*
X133150000Y-109162500D01*
G75*
G02*
X133087500Y-109225000I-62500J0D01*
G01*
X132412500Y-109225000D01*
G75*
G02*
X132350000Y-109162500I0J62500D01*
G01*
X132350000Y-109037500D01*
G75*
G02*
X132412500Y-108975000I62500J0D01*
G01*
X133087500Y-108975000D01*
G75*
G02*
X133150000Y-109037500I0J-62500D01*
G01*
G37*
G36*
G01*
X133150000Y-108537500D02*
X133150000Y-108662500D01*
G75*
G02*
X133087500Y-108725000I-62500J0D01*
G01*
X132412500Y-108725000D01*
G75*
G02*
X132350000Y-108662500I0J62500D01*
G01*
X132350000Y-108537500D01*
G75*
G02*
X132412500Y-108475000I62500J0D01*
G01*
X133087500Y-108475000D01*
G75*
G02*
X133150000Y-108537500I0J-62500D01*
G01*
G37*
G36*
G01*
X133150000Y-108037500D02*
X133150000Y-108162500D01*
G75*
G02*
X133087500Y-108225000I-62500J0D01*
G01*
X132412500Y-108225000D01*
G75*
G02*
X132350000Y-108162500I0J62500D01*
G01*
X132350000Y-108037500D01*
G75*
G02*
X132412500Y-107975000I62500J0D01*
G01*
X133087500Y-107975000D01*
G75*
G02*
X133150000Y-108037500I0J-62500D01*
G01*
G37*
G36*
G01*
X131925000Y-106812500D02*
X131925000Y-107487500D01*
G75*
G02*
X131862500Y-107550000I-62500J0D01*
G01*
X131737500Y-107550000D01*
G75*
G02*
X131675000Y-107487500I0J62500D01*
G01*
X131675000Y-106812500D01*
G75*
G02*
X131737500Y-106750000I62500J0D01*
G01*
X131862500Y-106750000D01*
G75*
G02*
X131925000Y-106812500I0J-62500D01*
G01*
G37*
G36*
G01*
X131425000Y-106812500D02*
X131425000Y-107487500D01*
G75*
G02*
X131362500Y-107550000I-62500J0D01*
G01*
X131237500Y-107550000D01*
G75*
G02*
X131175000Y-107487500I0J62500D01*
G01*
X131175000Y-106812500D01*
G75*
G02*
X131237500Y-106750000I62500J0D01*
G01*
X131362500Y-106750000D01*
G75*
G02*
X131425000Y-106812500I0J-62500D01*
G01*
G37*
G36*
G01*
X130925000Y-106812500D02*
X130925000Y-107487500D01*
G75*
G02*
X130862500Y-107550000I-62500J0D01*
G01*
X130737500Y-107550000D01*
G75*
G02*
X130675000Y-107487500I0J62500D01*
G01*
X130675000Y-106812500D01*
G75*
G02*
X130737500Y-106750000I62500J0D01*
G01*
X130862500Y-106750000D01*
G75*
G02*
X130925000Y-106812500I0J-62500D01*
G01*
G37*
G36*
G01*
X130425000Y-106812500D02*
X130425000Y-107487500D01*
G75*
G02*
X130362500Y-107550000I-62500J0D01*
G01*
X130237500Y-107550000D01*
G75*
G02*
X130175000Y-107487500I0J62500D01*
G01*
X130175000Y-106812500D01*
G75*
G02*
X130237500Y-106750000I62500J0D01*
G01*
X130362500Y-106750000D01*
G75*
G02*
X130425000Y-106812500I0J-62500D01*
G01*
G37*
G36*
G01*
X129925000Y-106812500D02*
X129925000Y-107487500D01*
G75*
G02*
X129862500Y-107550000I-62500J0D01*
G01*
X129737500Y-107550000D01*
G75*
G02*
X129675000Y-107487500I0J62500D01*
G01*
X129675000Y-106812500D01*
G75*
G02*
X129737500Y-106750000I62500J0D01*
G01*
X129862500Y-106750000D01*
G75*
G02*
X129925000Y-106812500I0J-62500D01*
G01*
G37*
G36*
G01*
X129425000Y-106812500D02*
X129425000Y-107487500D01*
G75*
G02*
X129362500Y-107550000I-62500J0D01*
G01*
X129237500Y-107550000D01*
G75*
G02*
X129175000Y-107487500I0J62500D01*
G01*
X129175000Y-106812500D01*
G75*
G02*
X129237500Y-106750000I62500J0D01*
G01*
X129362500Y-106750000D01*
G75*
G02*
X129425000Y-106812500I0J-62500D01*
G01*
G37*
G36*
G01*
X128925000Y-106812500D02*
X128925000Y-107487500D01*
G75*
G02*
X128862500Y-107550000I-62500J0D01*
G01*
X128737500Y-107550000D01*
G75*
G02*
X128675000Y-107487500I0J62500D01*
G01*
X128675000Y-106812500D01*
G75*
G02*
X128737500Y-106750000I62500J0D01*
G01*
X128862500Y-106750000D01*
G75*
G02*
X128925000Y-106812500I0J-62500D01*
G01*
G37*
G36*
G01*
X128250000Y-108037500D02*
X128250000Y-108162500D01*
G75*
G02*
X128187500Y-108225000I-62500J0D01*
G01*
X127512500Y-108225000D01*
G75*
G02*
X127450000Y-108162500I0J62500D01*
G01*
X127450000Y-108037500D01*
G75*
G02*
X127512500Y-107975000I62500J0D01*
G01*
X128187500Y-107975000D01*
G75*
G02*
X128250000Y-108037500I0J-62500D01*
G01*
G37*
G36*
G01*
X128250000Y-108537500D02*
X128250000Y-108662500D01*
G75*
G02*
X128187500Y-108725000I-62500J0D01*
G01*
X127512500Y-108725000D01*
G75*
G02*
X127450000Y-108662500I0J62500D01*
G01*
X127450000Y-108537500D01*
G75*
G02*
X127512500Y-108475000I62500J0D01*
G01*
X128187500Y-108475000D01*
G75*
G02*
X128250000Y-108537500I0J-62500D01*
G01*
G37*
G36*
G01*
X128250000Y-109037500D02*
X128250000Y-109162500D01*
G75*
G02*
X128187500Y-109225000I-62500J0D01*
G01*
X127512500Y-109225000D01*
G75*
G02*
X127450000Y-109162500I0J62500D01*
G01*
X127450000Y-109037500D01*
G75*
G02*
X127512500Y-108975000I62500J0D01*
G01*
X128187500Y-108975000D01*
G75*
G02*
X128250000Y-109037500I0J-62500D01*
G01*
G37*
G36*
G01*
X128250000Y-109537500D02*
X128250000Y-109662500D01*
G75*
G02*
X128187500Y-109725000I-62500J0D01*
G01*
X127512500Y-109725000D01*
G75*
G02*
X127450000Y-109662500I0J62500D01*
G01*
X127450000Y-109537500D01*
G75*
G02*
X127512500Y-109475000I62500J0D01*
G01*
X128187500Y-109475000D01*
G75*
G02*
X128250000Y-109537500I0J-62500D01*
G01*
G37*
G36*
G01*
X128250000Y-110037500D02*
X128250000Y-110162500D01*
G75*
G02*
X128187500Y-110225000I-62500J0D01*
G01*
X127512500Y-110225000D01*
G75*
G02*
X127450000Y-110162500I0J62500D01*
G01*
X127450000Y-110037500D01*
G75*
G02*
X127512500Y-109975000I62500J0D01*
G01*
X128187500Y-109975000D01*
G75*
G02*
X128250000Y-110037500I0J-62500D01*
G01*
G37*
G36*
G01*
X128250000Y-110537500D02*
X128250000Y-110662500D01*
G75*
G02*
X128187500Y-110725000I-62500J0D01*
G01*
X127512500Y-110725000D01*
G75*
G02*
X127450000Y-110662500I0J62500D01*
G01*
X127450000Y-110537500D01*
G75*
G02*
X127512500Y-110475000I62500J0D01*
G01*
X128187500Y-110475000D01*
G75*
G02*
X128250000Y-110537500I0J-62500D01*
G01*
G37*
G36*
G01*
X128250000Y-111037500D02*
X128250000Y-111162500D01*
G75*
G02*
X128187500Y-111225000I-62500J0D01*
G01*
X127512500Y-111225000D01*
G75*
G02*
X127450000Y-111162500I0J62500D01*
G01*
X127450000Y-111037500D01*
G75*
G02*
X127512500Y-110975000I62500J0D01*
G01*
X128187500Y-110975000D01*
G75*
G02*
X128250000Y-111037500I0J-62500D01*
G01*
G37*
G36*
G01*
X128925000Y-111712500D02*
X128925000Y-112387500D01*
G75*
G02*
X128862500Y-112450000I-62500J0D01*
G01*
X128737500Y-112450000D01*
G75*
G02*
X128675000Y-112387500I0J62500D01*
G01*
X128675000Y-111712500D01*
G75*
G02*
X128737500Y-111650000I62500J0D01*
G01*
X128862500Y-111650000D01*
G75*
G02*
X128925000Y-111712500I0J-62500D01*
G01*
G37*
G36*
G01*
X129425000Y-111712500D02*
X129425000Y-112387500D01*
G75*
G02*
X129362500Y-112450000I-62500J0D01*
G01*
X129237500Y-112450000D01*
G75*
G02*
X129175000Y-112387500I0J62500D01*
G01*
X129175000Y-111712500D01*
G75*
G02*
X129237500Y-111650000I62500J0D01*
G01*
X129362500Y-111650000D01*
G75*
G02*
X129425000Y-111712500I0J-62500D01*
G01*
G37*
G36*
G01*
X129925000Y-111712500D02*
X129925000Y-112387500D01*
G75*
G02*
X129862500Y-112450000I-62500J0D01*
G01*
X129737500Y-112450000D01*
G75*
G02*
X129675000Y-112387500I0J62500D01*
G01*
X129675000Y-111712500D01*
G75*
G02*
X129737500Y-111650000I62500J0D01*
G01*
X129862500Y-111650000D01*
G75*
G02*
X129925000Y-111712500I0J-62500D01*
G01*
G37*
G36*
G01*
X130425000Y-111712500D02*
X130425000Y-112387500D01*
G75*
G02*
X130362500Y-112450000I-62500J0D01*
G01*
X130237500Y-112450000D01*
G75*
G02*
X130175000Y-112387500I0J62500D01*
G01*
X130175000Y-111712500D01*
G75*
G02*
X130237500Y-111650000I62500J0D01*
G01*
X130362500Y-111650000D01*
G75*
G02*
X130425000Y-111712500I0J-62500D01*
G01*
G37*
G36*
G01*
X130925000Y-111712500D02*
X130925000Y-112387500D01*
G75*
G02*
X130862500Y-112450000I-62500J0D01*
G01*
X130737500Y-112450000D01*
G75*
G02*
X130675000Y-112387500I0J62500D01*
G01*
X130675000Y-111712500D01*
G75*
G02*
X130737500Y-111650000I62500J0D01*
G01*
X130862500Y-111650000D01*
G75*
G02*
X130925000Y-111712500I0J-62500D01*
G01*
G37*
G36*
G01*
X131425000Y-111712500D02*
X131425000Y-112387500D01*
G75*
G02*
X131362500Y-112450000I-62500J0D01*
G01*
X131237500Y-112450000D01*
G75*
G02*
X131175000Y-112387500I0J62500D01*
G01*
X131175000Y-111712500D01*
G75*
G02*
X131237500Y-111650000I62500J0D01*
G01*
X131362500Y-111650000D01*
G75*
G02*
X131425000Y-111712500I0J-62500D01*
G01*
G37*
G36*
G01*
X131925000Y-111712500D02*
X131925000Y-112387500D01*
G75*
G02*
X131862500Y-112450000I-62500J0D01*
G01*
X131737500Y-112450000D01*
G75*
G02*
X131675000Y-112387500I0J62500D01*
G01*
X131675000Y-111712500D01*
G75*
G02*
X131737500Y-111650000I62500J0D01*
G01*
X131862500Y-111650000D01*
G75*
G02*
X131925000Y-111712500I0J-62500D01*
G01*
G37*
%TD*%
D17*
%TO.C,J103*%
X138980000Y-117800000D03*
X136440000Y-117800000D03*
X133900000Y-117800000D03*
X131360000Y-117800000D03*
X128820000Y-117800000D03*
X126280000Y-117800000D03*
X123740000Y-117800000D03*
D18*
X121200000Y-117800000D03*
%TD*%
D19*
%TO.C,TP101*%
X122900000Y-112700000D03*
%TD*%
%TO.C,R106*%
G36*
G01*
X131543750Y-115250000D02*
X132056250Y-115250000D01*
G75*
G02*
X132275000Y-115468750I0J-218750D01*
G01*
X132275000Y-115906250D01*
G75*
G02*
X132056250Y-116125000I-218750J0D01*
G01*
X131543750Y-116125000D01*
G75*
G02*
X131325000Y-115906250I0J218750D01*
G01*
X131325000Y-115468750D01*
G75*
G02*
X131543750Y-115250000I218750J0D01*
G01*
G37*
G36*
G01*
X131543750Y-113675000D02*
X132056250Y-113675000D01*
G75*
G02*
X132275000Y-113893750I0J-218750D01*
G01*
X132275000Y-114331250D01*
G75*
G02*
X132056250Y-114550000I-218750J0D01*
G01*
X131543750Y-114550000D01*
G75*
G02*
X131325000Y-114331250I0J218750D01*
G01*
X131325000Y-113893750D01*
G75*
G02*
X131543750Y-113675000I218750J0D01*
G01*
G37*
%TD*%
%TO.C,R105*%
G36*
G01*
X125250000Y-110143750D02*
X125250000Y-110656250D01*
G75*
G02*
X125031250Y-110875000I-218750J0D01*
G01*
X124593750Y-110875000D01*
G75*
G02*
X124375000Y-110656250I0J218750D01*
G01*
X124375000Y-110143750D01*
G75*
G02*
X124593750Y-109925000I218750J0D01*
G01*
X125031250Y-109925000D01*
G75*
G02*
X125250000Y-110143750I0J-218750D01*
G01*
G37*
G36*
G01*
X126825000Y-110143750D02*
X126825000Y-110656250D01*
G75*
G02*
X126606250Y-110875000I-218750J0D01*
G01*
X126168750Y-110875000D01*
G75*
G02*
X125950000Y-110656250I0J218750D01*
G01*
X125950000Y-110143750D01*
G75*
G02*
X126168750Y-109925000I218750J0D01*
G01*
X126606250Y-109925000D01*
G75*
G02*
X126825000Y-110143750I0J-218750D01*
G01*
G37*
%TD*%
%TO.C,R104*%
G36*
G01*
X128250000Y-115456250D02*
X128250000Y-114943750D01*
G75*
G02*
X128468750Y-114725000I218750J0D01*
G01*
X128906250Y-114725000D01*
G75*
G02*
X129125000Y-114943750I0J-218750D01*
G01*
X129125000Y-115456250D01*
G75*
G02*
X128906250Y-115675000I-218750J0D01*
G01*
X128468750Y-115675000D01*
G75*
G02*
X128250000Y-115456250I0J218750D01*
G01*
G37*
G36*
G01*
X126675000Y-115456250D02*
X126675000Y-114943750D01*
G75*
G02*
X126893750Y-114725000I218750J0D01*
G01*
X127331250Y-114725000D01*
G75*
G02*
X127550000Y-114943750I0J-218750D01*
G01*
X127550000Y-115456250D01*
G75*
G02*
X127331250Y-115675000I-218750J0D01*
G01*
X126893750Y-115675000D01*
G75*
G02*
X126675000Y-115456250I0J218750D01*
G01*
G37*
%TD*%
%TO.C,R103*%
G36*
G01*
X129850000Y-113856250D02*
X129850000Y-113343750D01*
G75*
G02*
X130068750Y-113125000I218750J0D01*
G01*
X130506250Y-113125000D01*
G75*
G02*
X130725000Y-113343750I0J-218750D01*
G01*
X130725000Y-113856250D01*
G75*
G02*
X130506250Y-114075000I-218750J0D01*
G01*
X130068750Y-114075000D01*
G75*
G02*
X129850000Y-113856250I0J218750D01*
G01*
G37*
G36*
G01*
X128275000Y-113856250D02*
X128275000Y-113343750D01*
G75*
G02*
X128493750Y-113125000I218750J0D01*
G01*
X128931250Y-113125000D01*
G75*
G02*
X129150000Y-113343750I0J-218750D01*
G01*
X129150000Y-113856250D01*
G75*
G02*
X128931250Y-114075000I-218750J0D01*
G01*
X128493750Y-114075000D01*
G75*
G02*
X128275000Y-113856250I0J218750D01*
G01*
G37*
%TD*%
%TO.C,R102*%
G36*
G01*
X135156250Y-112250000D02*
X134643750Y-112250000D01*
G75*
G02*
X134425000Y-112031250I0J218750D01*
G01*
X134425000Y-111593750D01*
G75*
G02*
X134643750Y-111375000I218750J0D01*
G01*
X135156250Y-111375000D01*
G75*
G02*
X135375000Y-111593750I0J-218750D01*
G01*
X135375000Y-112031250D01*
G75*
G02*
X135156250Y-112250000I-218750J0D01*
G01*
G37*
G36*
G01*
X135156250Y-113825000D02*
X134643750Y-113825000D01*
G75*
G02*
X134425000Y-113606250I0J218750D01*
G01*
X134425000Y-113168750D01*
G75*
G02*
X134643750Y-112950000I218750J0D01*
G01*
X135156250Y-112950000D01*
G75*
G02*
X135375000Y-113168750I0J-218750D01*
G01*
X135375000Y-113606250D01*
G75*
G02*
X135156250Y-113825000I-218750J0D01*
G01*
G37*
%TD*%
%TO.C,R101*%
G36*
G01*
X135950000Y-115356250D02*
X135950000Y-114843750D01*
G75*
G02*
X136168750Y-114625000I218750J0D01*
G01*
X136606250Y-114625000D01*
G75*
G02*
X136825000Y-114843750I0J-218750D01*
G01*
X136825000Y-115356250D01*
G75*
G02*
X136606250Y-115575000I-218750J0D01*
G01*
X136168750Y-115575000D01*
G75*
G02*
X135950000Y-115356250I0J218750D01*
G01*
G37*
G36*
G01*
X134375000Y-115356250D02*
X134375000Y-114843750D01*
G75*
G02*
X134593750Y-114625000I218750J0D01*
G01*
X135031250Y-114625000D01*
G75*
G02*
X135250000Y-114843750I0J-218750D01*
G01*
X135250000Y-115356250D01*
G75*
G02*
X135031250Y-115575000I-218750J0D01*
G01*
X134593750Y-115575000D01*
G75*
G02*
X134375000Y-115356250I0J218750D01*
G01*
G37*
%TD*%
%TO.C,C105*%
G36*
G01*
X127625000Y-113343750D02*
X127625000Y-113856250D01*
G75*
G02*
X127406250Y-114075000I-218750J0D01*
G01*
X126968750Y-114075000D01*
G75*
G02*
X126750000Y-113856250I0J218750D01*
G01*
X126750000Y-113343750D01*
G75*
G02*
X126968750Y-113125000I218750J0D01*
G01*
X127406250Y-113125000D01*
G75*
G02*
X127625000Y-113343750I0J-218750D01*
G01*
G37*
G36*
G01*
X126050000Y-113343750D02*
X126050000Y-113856250D01*
G75*
G02*
X125831250Y-114075000I-218750J0D01*
G01*
X125393750Y-114075000D01*
G75*
G02*
X125175000Y-113856250I0J218750D01*
G01*
X125175000Y-113343750D01*
G75*
G02*
X125393750Y-113125000I218750J0D01*
G01*
X125831250Y-113125000D01*
G75*
G02*
X126050000Y-113343750I0J-218750D01*
G01*
G37*
%TD*%
%TO.C,C104*%
G36*
G01*
X125250000Y-111743750D02*
X125250000Y-112256250D01*
G75*
G02*
X125031250Y-112475000I-218750J0D01*
G01*
X124593750Y-112475000D01*
G75*
G02*
X124375000Y-112256250I0J218750D01*
G01*
X124375000Y-111743750D01*
G75*
G02*
X124593750Y-111525000I218750J0D01*
G01*
X125031250Y-111525000D01*
G75*
G02*
X125250000Y-111743750I0J-218750D01*
G01*
G37*
G36*
G01*
X126825000Y-111743750D02*
X126825000Y-112256250D01*
G75*
G02*
X126606250Y-112475000I-218750J0D01*
G01*
X126168750Y-112475000D01*
G75*
G02*
X125950000Y-112256250I0J218750D01*
G01*
X125950000Y-111743750D01*
G75*
G02*
X126168750Y-111525000I218750J0D01*
G01*
X126606250Y-111525000D01*
G75*
G02*
X126825000Y-111743750I0J-218750D01*
G01*
G37*
%TD*%
%TO.C,C103*%
G36*
G01*
X131350000Y-105456250D02*
X131350000Y-104943750D01*
G75*
G02*
X131568750Y-104725000I218750J0D01*
G01*
X132006250Y-104725000D01*
G75*
G02*
X132225000Y-104943750I0J-218750D01*
G01*
X132225000Y-105456250D01*
G75*
G02*
X132006250Y-105675000I-218750J0D01*
G01*
X131568750Y-105675000D01*
G75*
G02*
X131350000Y-105456250I0J218750D01*
G01*
G37*
G36*
G01*
X129775000Y-105456250D02*
X129775000Y-104943750D01*
G75*
G02*
X129993750Y-104725000I218750J0D01*
G01*
X130431250Y-104725000D01*
G75*
G02*
X130650000Y-104943750I0J-218750D01*
G01*
X130650000Y-105456250D01*
G75*
G02*
X130431250Y-105675000I-218750J0D01*
G01*
X129993750Y-105675000D01*
G75*
G02*
X129775000Y-105456250I0J218750D01*
G01*
G37*
%TD*%
%TO.C,C102*%
G36*
G01*
X126556250Y-107750000D02*
X126043750Y-107750000D01*
G75*
G02*
X125825000Y-107531250I0J218750D01*
G01*
X125825000Y-107093750D01*
G75*
G02*
X126043750Y-106875000I218750J0D01*
G01*
X126556250Y-106875000D01*
G75*
G02*
X126775000Y-107093750I0J-218750D01*
G01*
X126775000Y-107531250D01*
G75*
G02*
X126556250Y-107750000I-218750J0D01*
G01*
G37*
G36*
G01*
X126556250Y-109325000D02*
X126043750Y-109325000D01*
G75*
G02*
X125825000Y-109106250I0J218750D01*
G01*
X125825000Y-108668750D01*
G75*
G02*
X126043750Y-108450000I218750J0D01*
G01*
X126556250Y-108450000D01*
G75*
G02*
X126775000Y-108668750I0J-218750D01*
G01*
X126775000Y-109106250D01*
G75*
G02*
X126556250Y-109325000I-218750J0D01*
G01*
G37*
%TD*%
D18*
%TO.C,J102*%
X144780000Y-106875000D03*
D17*
X147320000Y-106875000D03*
X144780000Y-109415000D03*
X147320000Y-109415000D03*
X144780000Y-111955000D03*
X147320000Y-111955000D03*
X144780000Y-114495000D03*
X147320000Y-114495000D03*
X144780000Y-117035000D03*
X147320000Y-117035000D03*
%TD*%
%TO.C,J101*%
X101600000Y-117035000D03*
X99060000Y-117035000D03*
X101600000Y-114495000D03*
X99060000Y-114495000D03*
X101600000Y-111955000D03*
X99060000Y-111955000D03*
X101600000Y-109415000D03*
X99060000Y-109415000D03*
X101600000Y-106875000D03*
D18*
X99060000Y-106875000D03*
%TD*%
M02*
