M48
; DRILL file {KiCad 5.99.0-unknown-acf13a186~104~ubuntu20.04.1} date Wed Sep 23 14:06:46 2020
; FORMAT={-:-/ absolute / metric / decimal}
; #@! TF.CreationDate,2020-09-23T14:06:46+02:00
; #@! TF.GenerationSoftware,Kicad,Pcbnew,5.99.0-unknown-acf13a186~104~ubuntu20.04.1
; #@! TF.FileFunction,Plated,1,2,PTH
FMAT,2
METRIC
T1C0.300
T2C0.600
T3C0.850
T4C1.000
%
G90
G05
T1
X102.9Y-115.5
X102.9Y-118.4
X103.0Y-108.1
X103.0Y-113.2
X103.1Y-110.6
X104.5Y-104.9
X104.5Y-107.8
X105.2Y-110.6
X105.5Y-113.2
X106.0Y-106.5
X106.2Y-115.5
X106.2Y-118.4
X108.2Y-108.1
X109.3Y-109.8
X109.4Y-106.4
X109.8Y-112.1
X111.7Y-110.6
X113.2Y-106.4
X113.2Y-107.9
X114.2Y-110.0
X115.5Y-109.4
X115.6Y-106.4
X115.7Y-107.9
X115.7Y-111.4
X117.1Y-108.8
X117.7Y-106.4
X117.9Y-111.4
X118.1Y-108.0
X119.5Y-109.0
X119.5Y-117.6
X119.6Y-114.0
X119.8Y-106.8
X120.5Y-106.0
X122.1Y-111.2
X123.7Y-111.3
X123.9Y-106.0
X124.0Y-107.0
X124.2Y-113.3
X124.8Y-109.5
X125.4Y-108.1
X125.6Y-112.7
X125.7Y-111.3
X126.2Y-116.2
X126.3Y-106.4
X127.8Y-106.6
X128.0Y-112.8
X128.4Y-106.0
X130.3Y-106.2
X131.4Y-106.2
X132.7Y-105.2
X132.7Y-107.1
X132.8Y-111.7
X136.4Y-113.1
X137.7Y-116.5
X137.7Y-118.9
X137.9Y-111.7
X139.3Y-110.3
X140.0Y-113.7
X140.7Y-109.0
X142.0Y-118.5
X142.6Y-115.8
X143.0Y-105.1
X143.0Y-108.1
X143.0Y-110.7
X143.0Y-113.2
X129.3Y-108.6
X129.3Y-109.6
X129.3Y-110.6
X130.3Y-108.6
X130.3Y-109.6
X130.3Y-110.6
X131.3Y-108.6
X131.3Y-109.6
X131.3Y-110.6
T3
X110.3Y-115.438
X115.3Y-115.438
T4
X99.06Y-106.875
X99.06Y-109.415
X99.06Y-111.955
X99.06Y-114.495
X99.06Y-117.035
X101.6Y-106.875
X101.6Y-109.415
X101.6Y-111.955
X101.6Y-114.495
X101.6Y-117.035
X121.2Y-117.8
X123.74Y-117.8
X126.28Y-117.8
X128.82Y-117.8
X131.36Y-117.8
X133.9Y-117.8
X136.44Y-117.8
X138.98Y-117.8
X144.78Y-106.875
X144.78Y-109.415
X144.78Y-111.955
X144.78Y-114.495
X144.78Y-117.035
X147.32Y-106.875
X147.32Y-109.415
X147.32Y-111.955
X147.32Y-114.495
X147.32Y-117.035
T2
G00X109.3Y-118.487
M15
G01X109.3Y-117.787
M16
G05
G00X116.3Y-117.787
M15
G01X116.3Y-118.487
M16
G05
T0
M30
