%FSLAX45Y45*%
G04 Gerber Fmt 4.5, Leading zero omitted, Abs format (unit mm)*
G04 Created by KiCad (PCBNEW 5.99.0-unknown-acf13a186~104~ubuntu20.04.1) date 2020-09-23 14:06:45*
%MOMM*%
%LPD*%
G01*
G04 APERTURE LIST*
%TA.AperFunction,Profile*%
%ADD10C,0.050000*%
%TD*%
%ADD11C,0.200000*%
%ADD12C,0.030000*%
%ADD13C,0.060000*%
%ADD14C,0.085000*%
%ADD15C,0.100000*%
G04 APERTURE END LIST*
D10*
X9652000Y-10433500D02*
X9652000Y-11957500D01*
X9652000Y-11957500D02*
X14986000Y-11957500D01*
X14986000Y-10433500D02*
X9652000Y-10433500D01*
X14986000Y-11957500D02*
X14986000Y-10433500D01*
D11*
D12*
X10275000Y-11535000D02*
X10305000Y-11565000D01*
X10305000Y-11535000D02*
X10275000Y-11565000D01*
X10275000Y-11825000D02*
X10305000Y-11855000D01*
X10305000Y-11825000D02*
X10275000Y-11855000D01*
X10285000Y-10795000D02*
X10315000Y-10825000D01*
X10315000Y-10795000D02*
X10285000Y-10825000D01*
X10285000Y-11305000D02*
X10315000Y-11335000D01*
X10315000Y-11305000D02*
X10285000Y-11335000D01*
X10295000Y-11045000D02*
X10325000Y-11075000D01*
X10325000Y-11045000D02*
X10295000Y-11075000D01*
X10435000Y-10475000D02*
X10465000Y-10505000D01*
X10465000Y-10475000D02*
X10435000Y-10505000D01*
X10435000Y-10765000D02*
X10465000Y-10795000D01*
X10465000Y-10765000D02*
X10435000Y-10795000D01*
X10505000Y-11045000D02*
X10535000Y-11075000D01*
X10535000Y-11045000D02*
X10505000Y-11075000D01*
X10535000Y-11305000D02*
X10565000Y-11335000D01*
X10565000Y-11305000D02*
X10535000Y-11335000D01*
X10585000Y-10635000D02*
X10615000Y-10665000D01*
X10615000Y-10635000D02*
X10585000Y-10665000D01*
X10605000Y-11535000D02*
X10635000Y-11565000D01*
X10635000Y-11535000D02*
X10605000Y-11565000D01*
X10605000Y-11825000D02*
X10635000Y-11855000D01*
X10635000Y-11825000D02*
X10605000Y-11855000D01*
X10805000Y-10795000D02*
X10835000Y-10825000D01*
X10835000Y-10795000D02*
X10805000Y-10825000D01*
X10915000Y-10965000D02*
X10945000Y-10995000D01*
X10945000Y-10965000D02*
X10915000Y-10995000D01*
X10925000Y-10625000D02*
X10955000Y-10655000D01*
X10955000Y-10625000D02*
X10925000Y-10655000D01*
X10965000Y-11195000D02*
X10995000Y-11225000D01*
X10995000Y-11195000D02*
X10965000Y-11225000D01*
X11155000Y-11045000D02*
X11185000Y-11075000D01*
X11185000Y-11045000D02*
X11155000Y-11075000D01*
X11305000Y-10625000D02*
X11335000Y-10655000D01*
X11335000Y-10625000D02*
X11305000Y-10655000D01*
X11305000Y-10775000D02*
X11335000Y-10805000D01*
X11335000Y-10775000D02*
X11305000Y-10805000D01*
X11405000Y-10985000D02*
X11435000Y-11015000D01*
X11435000Y-10985000D02*
X11405000Y-11015000D01*
X11535000Y-10925000D02*
X11565000Y-10955000D01*
X11565000Y-10925000D02*
X11535000Y-10955000D01*
X11545000Y-10625000D02*
X11575000Y-10655000D01*
X11575000Y-10625000D02*
X11545000Y-10655000D01*
X11555000Y-10775000D02*
X11585000Y-10805000D01*
X11585000Y-10775000D02*
X11555000Y-10805000D01*
X11555000Y-11125000D02*
X11585000Y-11155000D01*
X11585000Y-11125000D02*
X11555000Y-11155000D01*
X11695000Y-10865000D02*
X11725000Y-10895000D01*
X11725000Y-10865000D02*
X11695000Y-10895000D01*
X11755000Y-10625000D02*
X11785000Y-10655000D01*
X11785000Y-10625000D02*
X11755000Y-10655000D01*
X11775000Y-11125000D02*
X11805000Y-11155000D01*
X11805000Y-11125000D02*
X11775000Y-11155000D01*
X11795000Y-10785000D02*
X11825000Y-10815000D01*
X11825000Y-10785000D02*
X11795000Y-10815000D01*
X11935000Y-10885000D02*
X11965000Y-10915000D01*
X11965000Y-10885000D02*
X11935000Y-10915000D01*
X11935000Y-11745000D02*
X11965000Y-11775000D01*
X11965000Y-11745000D02*
X11935000Y-11775000D01*
X11945000Y-11385000D02*
X11975000Y-11415000D01*
X11975000Y-11385000D02*
X11945000Y-11415000D01*
X11965000Y-10665000D02*
X11995000Y-10695000D01*
X11995000Y-10665000D02*
X11965000Y-10695000D01*
X12035000Y-10585000D02*
X12065000Y-10615000D01*
X12065000Y-10585000D02*
X12035000Y-10615000D01*
X12195000Y-11105000D02*
X12225000Y-11135000D01*
X12225000Y-11105000D02*
X12195000Y-11135000D01*
X12355000Y-11115000D02*
X12385000Y-11145000D01*
X12385000Y-11115000D02*
X12355000Y-11145000D01*
X12375000Y-10585000D02*
X12405000Y-10615000D01*
X12405000Y-10585000D02*
X12375000Y-10615000D01*
X12385000Y-10685000D02*
X12415000Y-10715000D01*
X12415000Y-10685000D02*
X12385000Y-10715000D01*
X12405000Y-11315000D02*
X12435000Y-11345000D01*
X12435000Y-11315000D02*
X12405000Y-11345000D01*
X12465000Y-10935000D02*
X12495000Y-10965000D01*
X12495000Y-10935000D02*
X12465000Y-10965000D01*
X12525000Y-10795000D02*
X12555000Y-10825000D01*
X12555000Y-10795000D02*
X12525000Y-10825000D01*
X12545000Y-11255000D02*
X12575000Y-11285000D01*
X12575000Y-11255000D02*
X12545000Y-11285000D01*
X12555000Y-11115000D02*
X12585000Y-11145000D01*
X12585000Y-11115000D02*
X12555000Y-11145000D01*
X12605000Y-11605000D02*
X12635000Y-11635000D01*
X12635000Y-11605000D02*
X12605000Y-11635000D01*
X12615000Y-10625000D02*
X12645000Y-10655000D01*
X12645000Y-10625000D02*
X12615000Y-10655000D01*
X12765000Y-10645000D02*
X12795000Y-10675000D01*
X12795000Y-10645000D02*
X12765000Y-10675000D01*
X12785000Y-11265000D02*
X12815000Y-11295000D01*
X12815000Y-11265000D02*
X12785000Y-11295000D01*
X12825000Y-10585000D02*
X12855000Y-10615000D01*
X12855000Y-10585000D02*
X12825000Y-10615000D01*
X13015000Y-10605000D02*
X13045000Y-10635000D01*
X13045000Y-10605000D02*
X13015000Y-10635000D01*
X13125000Y-10605000D02*
X13155000Y-10635000D01*
X13155000Y-10605000D02*
X13125000Y-10635000D01*
X13255000Y-10505000D02*
X13285000Y-10535000D01*
X13285000Y-10505000D02*
X13255000Y-10535000D01*
X13255000Y-10695000D02*
X13285000Y-10725000D01*
X13285000Y-10695000D02*
X13255000Y-10725000D01*
X13265000Y-11155000D02*
X13295000Y-11185000D01*
X13295000Y-11155000D02*
X13265000Y-11185000D01*
X13625000Y-11295000D02*
X13655000Y-11325000D01*
X13655000Y-11295000D02*
X13625000Y-11325000D01*
X13755000Y-11635000D02*
X13785000Y-11665000D01*
X13785000Y-11635000D02*
X13755000Y-11665000D01*
X13755000Y-11875000D02*
X13785000Y-11905000D01*
X13785000Y-11875000D02*
X13755000Y-11905000D01*
X13775000Y-11155000D02*
X13805000Y-11185000D01*
X13805000Y-11155000D02*
X13775000Y-11185000D01*
X13915000Y-11015000D02*
X13945000Y-11045000D01*
X13945000Y-11015000D02*
X13915000Y-11045000D01*
X13985000Y-11355000D02*
X14015000Y-11385000D01*
X14015000Y-11355000D02*
X13985000Y-11385000D01*
X14055000Y-10885000D02*
X14085000Y-10915000D01*
X14085000Y-10885000D02*
X14055000Y-10915000D01*
X14185000Y-11835000D02*
X14215000Y-11865000D01*
X14215000Y-11835000D02*
X14185000Y-11865000D01*
X14245000Y-11565000D02*
X14275000Y-11595000D01*
X14275000Y-11565000D02*
X14245000Y-11595000D01*
X14285000Y-10495000D02*
X14315000Y-10525000D01*
X14315000Y-10495000D02*
X14285000Y-10525000D01*
X14285000Y-10795000D02*
X14315000Y-10825000D01*
X14315000Y-10795000D02*
X14285000Y-10825000D01*
X14285000Y-11055000D02*
X14315000Y-11085000D01*
X14315000Y-11055000D02*
X14285000Y-11085000D01*
X14285000Y-11305000D02*
X14315000Y-11335000D01*
X14315000Y-11305000D02*
X14285000Y-11335000D01*
X12915000Y-10845000D02*
X12945000Y-10875000D01*
X12945000Y-10845000D02*
X12915000Y-10875000D01*
X12915000Y-10945000D02*
X12945000Y-10975000D01*
X12945000Y-10945000D02*
X12915000Y-10975000D01*
X12915000Y-11045000D02*
X12945000Y-11075000D01*
X12945000Y-11045000D02*
X12915000Y-11075000D01*
X13015000Y-10845000D02*
X13045000Y-10875000D01*
X13045000Y-10845000D02*
X13015000Y-10875000D01*
X13015000Y-10945000D02*
X13045000Y-10975000D01*
X13045000Y-10945000D02*
X13015000Y-10975000D01*
X13015000Y-11045000D02*
X13045000Y-11075000D01*
X13045000Y-11045000D02*
X13015000Y-11075000D01*
X13115000Y-10845000D02*
X13145000Y-10875000D01*
X13145000Y-10845000D02*
X13115000Y-10875000D01*
X13115000Y-10945000D02*
X13145000Y-10975000D01*
X13145000Y-10945000D02*
X13115000Y-10975000D01*
X13115000Y-11045000D02*
X13145000Y-11075000D01*
X13145000Y-11045000D02*
X13115000Y-11075000D01*
D13*
X10960000Y-11813750D02*
G75*
G03*
X10960000Y-11813750I-30000J0D01*
G01*
D11*
X10950000Y-11848750D02*
X10950000Y-11778750D01*
X10910000Y-11848750D02*
X10910000Y-11778750D01*
X10950000Y-11778750D02*
G75*
G03*
X10910000Y-11778750I-20000J0D01*
G01*
X10910000Y-11848750D02*
G75*
G03*
X10950000Y-11848750I20000J0D01*
G01*
D13*
X11660000Y-11813750D02*
G75*
G03*
X11660000Y-11813750I-30000J0D01*
G01*
D11*
X11610000Y-11778750D02*
X11610000Y-11848750D01*
X11650000Y-11778750D02*
X11650000Y-11848750D01*
X11610000Y-11848750D02*
G75*
G03*
X11650000Y-11848750I20000J0D01*
G01*
X11650000Y-11778750D02*
G75*
G03*
X11610000Y-11778750I-20000J0D01*
G01*
D14*
X11030000Y-11501250D02*
X11030000Y-11586250D01*
X10987500Y-11543750D02*
X11072500Y-11543750D01*
X11530000Y-11501250D02*
X11530000Y-11586250D01*
X11487500Y-11543750D02*
X11572500Y-11543750D01*
D15*
X9941356Y-10722856D02*
X9941356Y-10652144D01*
X9870644Y-10652144D01*
X9870644Y-10722856D01*
X9941356Y-10722856D01*
X9941356Y-10976856D02*
X9941356Y-10906144D01*
X9870644Y-10906144D01*
X9870644Y-10976856D01*
X9941356Y-10976856D01*
X9941356Y-11230856D02*
X9941356Y-11160144D01*
X9870644Y-11160144D01*
X9870644Y-11230856D01*
X9941356Y-11230856D01*
X9941356Y-11484856D02*
X9941356Y-11414144D01*
X9870644Y-11414144D01*
X9870644Y-11484856D01*
X9941356Y-11484856D01*
X9941356Y-11738856D02*
X9941356Y-11668144D01*
X9870644Y-11668144D01*
X9870644Y-11738856D01*
X9941356Y-11738856D01*
X10195356Y-10722856D02*
X10195356Y-10652144D01*
X10124644Y-10652144D01*
X10124644Y-10722856D01*
X10195356Y-10722856D01*
X10195356Y-10976856D02*
X10195356Y-10906144D01*
X10124644Y-10906144D01*
X10124644Y-10976856D01*
X10195356Y-10976856D01*
X10195356Y-11230856D02*
X10195356Y-11160144D01*
X10124644Y-11160144D01*
X10124644Y-11230856D01*
X10195356Y-11230856D01*
X10195356Y-11484856D02*
X10195356Y-11414144D01*
X10124644Y-11414144D01*
X10124644Y-11484856D01*
X10195356Y-11484856D01*
X10195356Y-11738856D02*
X10195356Y-11668144D01*
X10124644Y-11668144D01*
X10124644Y-11738856D01*
X10195356Y-11738856D01*
X12155356Y-11815356D02*
X12155356Y-11744644D01*
X12084644Y-11744644D01*
X12084644Y-11815356D01*
X12155356Y-11815356D01*
X12409356Y-11815356D02*
X12409356Y-11744644D01*
X12338644Y-11744644D01*
X12338644Y-11815356D01*
X12409356Y-11815356D01*
X12663356Y-11815356D02*
X12663356Y-11744644D01*
X12592644Y-11744644D01*
X12592644Y-11815356D01*
X12663356Y-11815356D01*
X12917356Y-11815356D02*
X12917356Y-11744644D01*
X12846644Y-11744644D01*
X12846644Y-11815356D01*
X12917356Y-11815356D01*
X13171356Y-11815356D02*
X13171356Y-11744644D01*
X13100644Y-11744644D01*
X13100644Y-11815356D01*
X13171356Y-11815356D01*
X13425356Y-11815356D02*
X13425356Y-11744644D01*
X13354644Y-11744644D01*
X13354644Y-11815356D01*
X13425356Y-11815356D01*
X13679356Y-11815356D02*
X13679356Y-11744644D01*
X13608644Y-11744644D01*
X13608644Y-11815356D01*
X13679356Y-11815356D01*
X13933356Y-11815356D02*
X13933356Y-11744644D01*
X13862644Y-11744644D01*
X13862644Y-11815356D01*
X13933356Y-11815356D01*
X14513356Y-10722856D02*
X14513356Y-10652144D01*
X14442644Y-10652144D01*
X14442644Y-10722856D01*
X14513356Y-10722856D01*
X14513356Y-10976856D02*
X14513356Y-10906144D01*
X14442644Y-10906144D01*
X14442644Y-10976856D01*
X14513356Y-10976856D01*
X14513356Y-11230856D02*
X14513356Y-11160144D01*
X14442644Y-11160144D01*
X14442644Y-11230856D01*
X14513356Y-11230856D01*
X14513356Y-11484856D02*
X14513356Y-11414144D01*
X14442644Y-11414144D01*
X14442644Y-11484856D01*
X14513356Y-11484856D01*
X14513356Y-11738856D02*
X14513356Y-11668144D01*
X14442644Y-11668144D01*
X14442644Y-11738856D01*
X14513356Y-11738856D01*
X14767356Y-10722856D02*
X14767356Y-10652144D01*
X14696644Y-10652144D01*
X14696644Y-10722856D01*
X14767356Y-10722856D01*
X14767356Y-10976856D02*
X14767356Y-10906144D01*
X14696644Y-10906144D01*
X14696644Y-10976856D01*
X14767356Y-10976856D01*
X14767356Y-11230856D02*
X14767356Y-11160144D01*
X14696644Y-11160144D01*
X14696644Y-11230856D01*
X14767356Y-11230856D01*
X14767356Y-11484856D02*
X14767356Y-11414144D01*
X14696644Y-11414144D01*
X14696644Y-11484856D01*
X14767356Y-11484856D01*
X14767356Y-11738856D02*
X14767356Y-11668144D01*
X14696644Y-11668144D01*
X14696644Y-11738856D01*
X14767356Y-11738856D01*
D11*
X9907119Y-12270476D02*
X9907119Y-12070476D01*
X9954738Y-12070476D01*
X9983309Y-12080000D01*
X10002357Y-12099048D01*
X10011881Y-12118095D01*
X10021405Y-12156190D01*
X10021405Y-12184762D01*
X10011881Y-12222857D01*
X10002357Y-12241905D01*
X9983309Y-12260952D01*
X9954738Y-12270476D01*
X9907119Y-12270476D01*
X10107119Y-12270476D02*
X10107119Y-12137143D01*
X10107119Y-12175238D02*
X10116643Y-12156190D01*
X10126167Y-12146667D01*
X10145214Y-12137143D01*
X10164262Y-12137143D01*
X10230928Y-12270476D02*
X10230928Y-12137143D01*
X10230928Y-12070476D02*
X10221405Y-12080000D01*
X10230928Y-12089524D01*
X10240452Y-12080000D01*
X10230928Y-12070476D01*
X10230928Y-12089524D01*
X10354738Y-12270476D02*
X10335690Y-12260952D01*
X10326167Y-12241905D01*
X10326167Y-12070476D01*
X10459500Y-12270476D02*
X10440452Y-12260952D01*
X10430928Y-12241905D01*
X10430928Y-12070476D01*
X10688071Y-12270476D02*
X10688071Y-12070476D01*
X10754738Y-12213333D01*
X10821405Y-12070476D01*
X10821405Y-12270476D01*
X11002357Y-12270476D02*
X11002357Y-12165714D01*
X10992833Y-12146667D01*
X10973786Y-12137143D01*
X10935690Y-12137143D01*
X10916643Y-12146667D01*
X11002357Y-12260952D02*
X10983309Y-12270476D01*
X10935690Y-12270476D01*
X10916643Y-12260952D01*
X10907119Y-12241905D01*
X10907119Y-12222857D01*
X10916643Y-12203810D01*
X10935690Y-12194286D01*
X10983309Y-12194286D01*
X11002357Y-12184762D01*
X11097595Y-12137143D02*
X11097595Y-12337143D01*
X11097595Y-12146667D02*
X11116643Y-12137143D01*
X11154738Y-12137143D01*
X11173786Y-12146667D01*
X11183309Y-12156190D01*
X11192833Y-12175238D01*
X11192833Y-12232381D01*
X11183309Y-12251429D01*
X11173786Y-12260952D01*
X11154738Y-12270476D01*
X11116643Y-12270476D01*
X11097595Y-12260952D01*
X11278547Y-12251429D02*
X11288071Y-12260952D01*
X11278547Y-12270476D01*
X11269024Y-12260952D01*
X11278547Y-12251429D01*
X11278547Y-12270476D01*
X11278547Y-12146667D02*
X11288071Y-12156190D01*
X11278547Y-12165714D01*
X11269024Y-12156190D01*
X11278547Y-12146667D01*
X11278547Y-12165714D01*
D12*
X9619500Y-12585000D02*
X9649500Y-12615000D01*
X9649500Y-12585000D02*
X9619500Y-12615000D01*
D11*
X9945214Y-12490476D02*
X9964262Y-12490476D01*
X9983309Y-12500000D01*
X9992833Y-12509524D01*
X10002357Y-12528571D01*
X10011881Y-12566667D01*
X10011881Y-12614286D01*
X10002357Y-12652381D01*
X9992833Y-12671429D01*
X9983309Y-12680952D01*
X9964262Y-12690476D01*
X9945214Y-12690476D01*
X9926167Y-12680952D01*
X9916643Y-12671429D01*
X9907119Y-12652381D01*
X9897595Y-12614286D01*
X9897595Y-12566667D01*
X9907119Y-12528571D01*
X9916643Y-12509524D01*
X9926167Y-12500000D01*
X9945214Y-12490476D01*
X10097595Y-12671429D02*
X10107119Y-12680952D01*
X10097595Y-12690476D01*
X10088071Y-12680952D01*
X10097595Y-12671429D01*
X10097595Y-12690476D01*
X10173786Y-12490476D02*
X10297595Y-12490476D01*
X10230928Y-12566667D01*
X10259500Y-12566667D01*
X10278548Y-12576190D01*
X10288071Y-12585714D01*
X10297595Y-12604762D01*
X10297595Y-12652381D01*
X10288071Y-12671429D01*
X10278548Y-12680952D01*
X10259500Y-12690476D01*
X10202357Y-12690476D01*
X10183309Y-12680952D01*
X10173786Y-12671429D01*
X10421405Y-12490476D02*
X10440452Y-12490476D01*
X10459500Y-12500000D01*
X10469024Y-12509524D01*
X10478548Y-12528571D01*
X10488071Y-12566667D01*
X10488071Y-12614286D01*
X10478548Y-12652381D01*
X10469024Y-12671429D01*
X10459500Y-12680952D01*
X10440452Y-12690476D01*
X10421405Y-12690476D01*
X10402357Y-12680952D01*
X10392833Y-12671429D01*
X10383309Y-12652381D01*
X10373786Y-12614286D01*
X10373786Y-12566667D01*
X10383309Y-12528571D01*
X10392833Y-12509524D01*
X10402357Y-12500000D01*
X10421405Y-12490476D01*
X10611881Y-12490476D02*
X10630928Y-12490476D01*
X10649976Y-12500000D01*
X10659500Y-12509524D01*
X10669024Y-12528571D01*
X10678548Y-12566667D01*
X10678548Y-12614286D01*
X10669024Y-12652381D01*
X10659500Y-12671429D01*
X10649976Y-12680952D01*
X10630928Y-12690476D01*
X10611881Y-12690476D01*
X10592833Y-12680952D01*
X10583309Y-12671429D01*
X10573786Y-12652381D01*
X10564262Y-12614286D01*
X10564262Y-12566667D01*
X10573786Y-12528571D01*
X10583309Y-12509524D01*
X10592833Y-12500000D01*
X10611881Y-12490476D01*
X10764262Y-12690476D02*
X10764262Y-12557143D01*
X10764262Y-12576190D02*
X10773786Y-12566667D01*
X10792833Y-12557143D01*
X10821405Y-12557143D01*
X10840452Y-12566667D01*
X10849976Y-12585714D01*
X10849976Y-12690476D01*
X10849976Y-12585714D02*
X10859500Y-12566667D01*
X10878548Y-12557143D01*
X10907119Y-12557143D01*
X10926167Y-12566667D01*
X10935690Y-12585714D01*
X10935690Y-12690476D01*
X11030928Y-12690476D02*
X11030928Y-12557143D01*
X11030928Y-12576190D02*
X11040452Y-12566667D01*
X11059500Y-12557143D01*
X11088071Y-12557143D01*
X11107119Y-12566667D01*
X11116643Y-12585714D01*
X11116643Y-12690476D01*
X11116643Y-12585714D02*
X11126167Y-12566667D01*
X11145214Y-12557143D01*
X11173786Y-12557143D01*
X11192833Y-12566667D01*
X11202357Y-12585714D01*
X11202357Y-12690476D01*
X11592833Y-12480952D02*
X11421405Y-12738095D01*
X11849976Y-12490476D02*
X11869024Y-12490476D01*
X11888071Y-12500000D01*
X11897595Y-12509524D01*
X11907119Y-12528571D01*
X11916643Y-12566667D01*
X11916643Y-12614286D01*
X11907119Y-12652381D01*
X11897595Y-12671429D01*
X11888071Y-12680952D01*
X11869024Y-12690476D01*
X11849976Y-12690476D01*
X11830928Y-12680952D01*
X11821405Y-12671429D01*
X11811881Y-12652381D01*
X11802357Y-12614286D01*
X11802357Y-12566667D01*
X11811881Y-12528571D01*
X11821405Y-12509524D01*
X11830928Y-12500000D01*
X11849976Y-12490476D01*
X12002357Y-12671429D02*
X12011881Y-12680952D01*
X12002357Y-12690476D01*
X11992833Y-12680952D01*
X12002357Y-12671429D01*
X12002357Y-12690476D01*
X12135690Y-12490476D02*
X12154738Y-12490476D01*
X12173786Y-12500000D01*
X12183309Y-12509524D01*
X12192833Y-12528571D01*
X12202357Y-12566667D01*
X12202357Y-12614286D01*
X12192833Y-12652381D01*
X12183309Y-12671429D01*
X12173786Y-12680952D01*
X12154738Y-12690476D01*
X12135690Y-12690476D01*
X12116643Y-12680952D01*
X12107119Y-12671429D01*
X12097595Y-12652381D01*
X12088071Y-12614286D01*
X12088071Y-12566667D01*
X12097595Y-12528571D01*
X12107119Y-12509524D01*
X12116643Y-12500000D01*
X12135690Y-12490476D01*
X12392833Y-12690476D02*
X12278547Y-12690476D01*
X12335690Y-12690476D02*
X12335690Y-12490476D01*
X12316643Y-12519048D01*
X12297595Y-12538095D01*
X12278547Y-12547619D01*
X12583309Y-12690476D02*
X12469024Y-12690476D01*
X12526166Y-12690476D02*
X12526166Y-12490476D01*
X12507119Y-12519048D01*
X12488071Y-12538095D01*
X12469024Y-12547619D01*
X12697595Y-12576190D02*
X12678547Y-12566667D01*
X12669024Y-12557143D01*
X12659500Y-12538095D01*
X12659500Y-12528571D01*
X12669024Y-12509524D01*
X12678547Y-12500000D01*
X12697595Y-12490476D01*
X12735690Y-12490476D01*
X12754738Y-12500000D01*
X12764262Y-12509524D01*
X12773786Y-12528571D01*
X12773786Y-12538095D01*
X12764262Y-12557143D01*
X12754738Y-12566667D01*
X12735690Y-12576190D01*
X12697595Y-12576190D01*
X12678547Y-12585714D01*
X12669024Y-12595238D01*
X12659500Y-12614286D01*
X12659500Y-12652381D01*
X12669024Y-12671429D01*
X12678547Y-12680952D01*
X12697595Y-12690476D01*
X12735690Y-12690476D01*
X12754738Y-12680952D01*
X12764262Y-12671429D01*
X12773786Y-12652381D01*
X12773786Y-12614286D01*
X12764262Y-12595238D01*
X12754738Y-12585714D01*
X12735690Y-12576190D01*
X12849976Y-12490476D02*
X12849976Y-12528571D01*
X12926166Y-12490476D02*
X12926166Y-12528571D01*
X13221405Y-12766667D02*
X13211881Y-12757143D01*
X13192833Y-12728571D01*
X13183309Y-12709524D01*
X13173786Y-12680952D01*
X13164262Y-12633333D01*
X13164262Y-12595238D01*
X13173786Y-12547619D01*
X13183309Y-12519048D01*
X13192833Y-12500000D01*
X13211881Y-12471429D01*
X13221405Y-12461905D01*
X13278547Y-12490476D02*
X13411881Y-12490476D01*
X13326166Y-12690476D01*
X13573786Y-12557143D02*
X13573786Y-12690476D01*
X13526166Y-12480952D02*
X13478547Y-12623810D01*
X13602357Y-12623810D01*
X13830928Y-12690476D02*
X13830928Y-12490476D01*
X13916643Y-12690476D02*
X13916643Y-12585714D01*
X13907119Y-12566667D01*
X13888071Y-12557143D01*
X13859500Y-12557143D01*
X13840452Y-12566667D01*
X13830928Y-12576190D01*
X14040452Y-12690476D02*
X14021405Y-12680952D01*
X14011881Y-12671429D01*
X14002357Y-12652381D01*
X14002357Y-12595238D01*
X14011881Y-12576190D01*
X14021405Y-12566667D01*
X14040452Y-12557143D01*
X14069024Y-12557143D01*
X14088071Y-12566667D01*
X14097595Y-12576190D01*
X14107119Y-12595238D01*
X14107119Y-12652381D01*
X14097595Y-12671429D01*
X14088071Y-12680952D01*
X14069024Y-12690476D01*
X14040452Y-12690476D01*
X14221405Y-12690476D02*
X14202357Y-12680952D01*
X14192833Y-12661905D01*
X14192833Y-12490476D01*
X14373786Y-12680952D02*
X14354738Y-12690476D01*
X14316643Y-12690476D01*
X14297595Y-12680952D01*
X14288071Y-12661905D01*
X14288071Y-12585714D01*
X14297595Y-12566667D01*
X14316643Y-12557143D01*
X14354738Y-12557143D01*
X14373786Y-12566667D01*
X14383309Y-12585714D01*
X14383309Y-12604762D01*
X14288071Y-12623810D01*
X14459500Y-12680952D02*
X14478547Y-12690476D01*
X14516643Y-12690476D01*
X14535690Y-12680952D01*
X14545214Y-12661905D01*
X14545214Y-12652381D01*
X14535690Y-12633333D01*
X14516643Y-12623810D01*
X14488071Y-12623810D01*
X14469024Y-12614286D01*
X14459500Y-12595238D01*
X14459500Y-12585714D01*
X14469024Y-12566667D01*
X14488071Y-12557143D01*
X14516643Y-12557143D01*
X14535690Y-12566667D01*
X14611881Y-12766667D02*
X14621405Y-12757143D01*
X14640452Y-12728571D01*
X14649976Y-12709524D01*
X14659500Y-12680952D01*
X14669024Y-12633333D01*
X14669024Y-12595238D01*
X14659500Y-12547619D01*
X14649976Y-12519048D01*
X14640452Y-12500000D01*
X14621405Y-12471429D01*
X14611881Y-12461905D01*
D13*
X9649500Y-12864000D02*
G75*
G03*
X9649500Y-12864000I-30000J0D01*
G01*
D11*
X9945214Y-12754476D02*
X9964262Y-12754476D01*
X9983309Y-12764000D01*
X9992833Y-12773524D01*
X10002357Y-12792571D01*
X10011881Y-12830667D01*
X10011881Y-12878286D01*
X10002357Y-12916381D01*
X9992833Y-12935429D01*
X9983309Y-12944952D01*
X9964262Y-12954476D01*
X9945214Y-12954476D01*
X9926167Y-12944952D01*
X9916643Y-12935429D01*
X9907119Y-12916381D01*
X9897595Y-12878286D01*
X9897595Y-12830667D01*
X9907119Y-12792571D01*
X9916643Y-12773524D01*
X9926167Y-12764000D01*
X9945214Y-12754476D01*
X10097595Y-12935429D02*
X10107119Y-12944952D01*
X10097595Y-12954476D01*
X10088071Y-12944952D01*
X10097595Y-12935429D01*
X10097595Y-12954476D01*
X10278548Y-12754476D02*
X10240452Y-12754476D01*
X10221405Y-12764000D01*
X10211881Y-12773524D01*
X10192833Y-12802095D01*
X10183309Y-12840190D01*
X10183309Y-12916381D01*
X10192833Y-12935429D01*
X10202357Y-12944952D01*
X10221405Y-12954476D01*
X10259500Y-12954476D01*
X10278548Y-12944952D01*
X10288071Y-12935429D01*
X10297595Y-12916381D01*
X10297595Y-12868762D01*
X10288071Y-12849714D01*
X10278548Y-12840190D01*
X10259500Y-12830667D01*
X10221405Y-12830667D01*
X10202357Y-12840190D01*
X10192833Y-12849714D01*
X10183309Y-12868762D01*
X10421405Y-12754476D02*
X10440452Y-12754476D01*
X10459500Y-12764000D01*
X10469024Y-12773524D01*
X10478548Y-12792571D01*
X10488071Y-12830667D01*
X10488071Y-12878286D01*
X10478548Y-12916381D01*
X10469024Y-12935429D01*
X10459500Y-12944952D01*
X10440452Y-12954476D01*
X10421405Y-12954476D01*
X10402357Y-12944952D01*
X10392833Y-12935429D01*
X10383309Y-12916381D01*
X10373786Y-12878286D01*
X10373786Y-12830667D01*
X10383309Y-12792571D01*
X10392833Y-12773524D01*
X10402357Y-12764000D01*
X10421405Y-12754476D01*
X10611881Y-12754476D02*
X10630928Y-12754476D01*
X10649976Y-12764000D01*
X10659500Y-12773524D01*
X10669024Y-12792571D01*
X10678548Y-12830667D01*
X10678548Y-12878286D01*
X10669024Y-12916381D01*
X10659500Y-12935429D01*
X10649976Y-12944952D01*
X10630928Y-12954476D01*
X10611881Y-12954476D01*
X10592833Y-12944952D01*
X10583309Y-12935429D01*
X10573786Y-12916381D01*
X10564262Y-12878286D01*
X10564262Y-12830667D01*
X10573786Y-12792571D01*
X10583309Y-12773524D01*
X10592833Y-12764000D01*
X10611881Y-12754476D01*
X10764262Y-12954476D02*
X10764262Y-12821143D01*
X10764262Y-12840190D02*
X10773786Y-12830667D01*
X10792833Y-12821143D01*
X10821405Y-12821143D01*
X10840452Y-12830667D01*
X10849976Y-12849714D01*
X10849976Y-12954476D01*
X10849976Y-12849714D02*
X10859500Y-12830667D01*
X10878548Y-12821143D01*
X10907119Y-12821143D01*
X10926167Y-12830667D01*
X10935690Y-12849714D01*
X10935690Y-12954476D01*
X11030928Y-12954476D02*
X11030928Y-12821143D01*
X11030928Y-12840190D02*
X11040452Y-12830667D01*
X11059500Y-12821143D01*
X11088071Y-12821143D01*
X11107119Y-12830667D01*
X11116643Y-12849714D01*
X11116643Y-12954476D01*
X11116643Y-12849714D02*
X11126167Y-12830667D01*
X11145214Y-12821143D01*
X11173786Y-12821143D01*
X11192833Y-12830667D01*
X11202357Y-12849714D01*
X11202357Y-12954476D01*
X11592833Y-12744952D02*
X11421405Y-13002095D01*
X11849976Y-12754476D02*
X11869024Y-12754476D01*
X11888071Y-12764000D01*
X11897595Y-12773524D01*
X11907119Y-12792571D01*
X11916643Y-12830667D01*
X11916643Y-12878286D01*
X11907119Y-12916381D01*
X11897595Y-12935429D01*
X11888071Y-12944952D01*
X11869024Y-12954476D01*
X11849976Y-12954476D01*
X11830928Y-12944952D01*
X11821405Y-12935429D01*
X11811881Y-12916381D01*
X11802357Y-12878286D01*
X11802357Y-12830667D01*
X11811881Y-12792571D01*
X11821405Y-12773524D01*
X11830928Y-12764000D01*
X11849976Y-12754476D01*
X12002357Y-12935429D02*
X12011881Y-12944952D01*
X12002357Y-12954476D01*
X11992833Y-12944952D01*
X12002357Y-12935429D01*
X12002357Y-12954476D01*
X12135690Y-12754476D02*
X12154738Y-12754476D01*
X12173786Y-12764000D01*
X12183309Y-12773524D01*
X12192833Y-12792571D01*
X12202357Y-12830667D01*
X12202357Y-12878286D01*
X12192833Y-12916381D01*
X12183309Y-12935429D01*
X12173786Y-12944952D01*
X12154738Y-12954476D01*
X12135690Y-12954476D01*
X12116643Y-12944952D01*
X12107119Y-12935429D01*
X12097595Y-12916381D01*
X12088071Y-12878286D01*
X12088071Y-12830667D01*
X12097595Y-12792571D01*
X12107119Y-12773524D01*
X12116643Y-12764000D01*
X12135690Y-12754476D01*
X12278547Y-12773524D02*
X12288071Y-12764000D01*
X12307119Y-12754476D01*
X12354738Y-12754476D01*
X12373786Y-12764000D01*
X12383309Y-12773524D01*
X12392833Y-12792571D01*
X12392833Y-12811619D01*
X12383309Y-12840190D01*
X12269024Y-12954476D01*
X12392833Y-12954476D01*
X12459500Y-12754476D02*
X12583309Y-12754476D01*
X12516643Y-12830667D01*
X12545214Y-12830667D01*
X12564262Y-12840190D01*
X12573786Y-12849714D01*
X12583309Y-12868762D01*
X12583309Y-12916381D01*
X12573786Y-12935429D01*
X12564262Y-12944952D01*
X12545214Y-12954476D01*
X12488071Y-12954476D01*
X12469024Y-12944952D01*
X12459500Y-12935429D01*
X12754738Y-12754476D02*
X12716643Y-12754476D01*
X12697595Y-12764000D01*
X12688071Y-12773524D01*
X12669024Y-12802095D01*
X12659500Y-12840190D01*
X12659500Y-12916381D01*
X12669024Y-12935429D01*
X12678547Y-12944952D01*
X12697595Y-12954476D01*
X12735690Y-12954476D01*
X12754738Y-12944952D01*
X12764262Y-12935429D01*
X12773786Y-12916381D01*
X12773786Y-12868762D01*
X12764262Y-12849714D01*
X12754738Y-12840190D01*
X12735690Y-12830667D01*
X12697595Y-12830667D01*
X12678547Y-12840190D01*
X12669024Y-12849714D01*
X12659500Y-12868762D01*
X12849976Y-12754476D02*
X12849976Y-12792571D01*
X12926166Y-12754476D02*
X12926166Y-12792571D01*
X13221405Y-13030667D02*
X13211881Y-13021143D01*
X13192833Y-12992571D01*
X13183309Y-12973524D01*
X13173786Y-12944952D01*
X13164262Y-12897333D01*
X13164262Y-12859238D01*
X13173786Y-12811619D01*
X13183309Y-12783048D01*
X13192833Y-12764000D01*
X13211881Y-12735429D01*
X13221405Y-12725905D01*
X13335690Y-12754476D02*
X13354738Y-12754476D01*
X13373786Y-12764000D01*
X13383309Y-12773524D01*
X13392833Y-12792571D01*
X13402357Y-12830667D01*
X13402357Y-12878286D01*
X13392833Y-12916381D01*
X13383309Y-12935429D01*
X13373786Y-12944952D01*
X13354738Y-12954476D01*
X13335690Y-12954476D01*
X13316643Y-12944952D01*
X13307119Y-12935429D01*
X13297595Y-12916381D01*
X13288071Y-12878286D01*
X13288071Y-12830667D01*
X13297595Y-12792571D01*
X13307119Y-12773524D01*
X13316643Y-12764000D01*
X13335690Y-12754476D01*
X13640452Y-12954476D02*
X13640452Y-12754476D01*
X13726166Y-12954476D02*
X13726166Y-12849714D01*
X13716643Y-12830667D01*
X13697595Y-12821143D01*
X13669024Y-12821143D01*
X13649976Y-12830667D01*
X13640452Y-12840190D01*
X13849976Y-12954476D02*
X13830928Y-12944952D01*
X13821405Y-12935429D01*
X13811881Y-12916381D01*
X13811881Y-12859238D01*
X13821405Y-12840190D01*
X13830928Y-12830667D01*
X13849976Y-12821143D01*
X13878547Y-12821143D01*
X13897595Y-12830667D01*
X13907119Y-12840190D01*
X13916643Y-12859238D01*
X13916643Y-12916381D01*
X13907119Y-12935429D01*
X13897595Y-12944952D01*
X13878547Y-12954476D01*
X13849976Y-12954476D01*
X14030928Y-12954476D02*
X14011881Y-12944952D01*
X14002357Y-12925905D01*
X14002357Y-12754476D01*
X14183309Y-12944952D02*
X14164262Y-12954476D01*
X14126166Y-12954476D01*
X14107119Y-12944952D01*
X14097595Y-12925905D01*
X14097595Y-12849714D01*
X14107119Y-12830667D01*
X14126166Y-12821143D01*
X14164262Y-12821143D01*
X14183309Y-12830667D01*
X14192833Y-12849714D01*
X14192833Y-12868762D01*
X14097595Y-12887810D01*
X14269024Y-12944952D02*
X14288071Y-12954476D01*
X14326166Y-12954476D01*
X14345214Y-12944952D01*
X14354738Y-12925905D01*
X14354738Y-12916381D01*
X14345214Y-12897333D01*
X14326166Y-12887810D01*
X14297595Y-12887810D01*
X14278547Y-12878286D01*
X14269024Y-12859238D01*
X14269024Y-12849714D01*
X14278547Y-12830667D01*
X14297595Y-12821143D01*
X14326166Y-12821143D01*
X14345214Y-12830667D01*
X14592833Y-12878286D02*
X14745214Y-12878286D01*
X14669024Y-12954476D02*
X14669024Y-12802095D01*
X14983309Y-12773524D02*
X14992833Y-12764000D01*
X15011881Y-12754476D01*
X15059500Y-12754476D01*
X15078547Y-12764000D01*
X15088071Y-12773524D01*
X15097595Y-12792571D01*
X15097595Y-12811619D01*
X15088071Y-12840190D01*
X14973786Y-12954476D01*
X15097595Y-12954476D01*
X15326166Y-12944952D02*
X15345214Y-12954476D01*
X15383309Y-12954476D01*
X15402357Y-12944952D01*
X15411881Y-12925905D01*
X15411881Y-12916381D01*
X15402357Y-12897333D01*
X15383309Y-12887810D01*
X15354738Y-12887810D01*
X15335690Y-12878286D01*
X15326166Y-12859238D01*
X15326166Y-12849714D01*
X15335690Y-12830667D01*
X15354738Y-12821143D01*
X15383309Y-12821143D01*
X15402357Y-12830667D01*
X15526166Y-12954476D02*
X15507119Y-12944952D01*
X15497595Y-12925905D01*
X15497595Y-12754476D01*
X15630928Y-12954476D02*
X15611881Y-12944952D01*
X15602357Y-12935429D01*
X15592833Y-12916381D01*
X15592833Y-12859238D01*
X15602357Y-12840190D01*
X15611881Y-12830667D01*
X15630928Y-12821143D01*
X15659500Y-12821143D01*
X15678547Y-12830667D01*
X15688071Y-12840190D01*
X15697595Y-12859238D01*
X15697595Y-12916381D01*
X15688071Y-12935429D01*
X15678547Y-12944952D01*
X15659500Y-12954476D01*
X15630928Y-12954476D01*
X15754738Y-12821143D02*
X15830928Y-12821143D01*
X15783309Y-12754476D02*
X15783309Y-12925905D01*
X15792833Y-12944952D01*
X15811881Y-12954476D01*
X15830928Y-12954476D01*
X15888071Y-12944952D02*
X15907119Y-12954476D01*
X15945214Y-12954476D01*
X15964262Y-12944952D01*
X15973786Y-12925905D01*
X15973786Y-12916381D01*
X15964262Y-12897333D01*
X15945214Y-12887810D01*
X15916643Y-12887810D01*
X15897595Y-12878286D01*
X15888071Y-12859238D01*
X15888071Y-12849714D01*
X15897595Y-12830667D01*
X15916643Y-12821143D01*
X15945214Y-12821143D01*
X15964262Y-12830667D01*
X16040452Y-13030667D02*
X16049976Y-13021143D01*
X16069024Y-12992571D01*
X16078547Y-12973524D01*
X16088071Y-12944952D01*
X16097595Y-12897333D01*
X16097595Y-12859238D01*
X16088071Y-12811619D01*
X16078547Y-12783048D01*
X16069024Y-12764000D01*
X16049976Y-12735429D01*
X16040452Y-12725905D01*
D14*
X9607000Y-13085500D02*
X9607000Y-13170500D01*
X9564500Y-13128000D02*
X9649500Y-13128000D01*
D11*
X9945214Y-13018476D02*
X9964262Y-13018476D01*
X9983309Y-13028000D01*
X9992833Y-13037524D01*
X10002357Y-13056571D01*
X10011881Y-13094667D01*
X10011881Y-13142286D01*
X10002357Y-13180381D01*
X9992833Y-13199429D01*
X9983309Y-13208952D01*
X9964262Y-13218476D01*
X9945214Y-13218476D01*
X9926167Y-13208952D01*
X9916643Y-13199429D01*
X9907119Y-13180381D01*
X9897595Y-13142286D01*
X9897595Y-13094667D01*
X9907119Y-13056571D01*
X9916643Y-13037524D01*
X9926167Y-13028000D01*
X9945214Y-13018476D01*
X10097595Y-13199429D02*
X10107119Y-13208952D01*
X10097595Y-13218476D01*
X10088071Y-13208952D01*
X10097595Y-13199429D01*
X10097595Y-13218476D01*
X10221405Y-13104190D02*
X10202357Y-13094667D01*
X10192833Y-13085143D01*
X10183309Y-13066095D01*
X10183309Y-13056571D01*
X10192833Y-13037524D01*
X10202357Y-13028000D01*
X10221405Y-13018476D01*
X10259500Y-13018476D01*
X10278548Y-13028000D01*
X10288071Y-13037524D01*
X10297595Y-13056571D01*
X10297595Y-13066095D01*
X10288071Y-13085143D01*
X10278548Y-13094667D01*
X10259500Y-13104190D01*
X10221405Y-13104190D01*
X10202357Y-13113714D01*
X10192833Y-13123238D01*
X10183309Y-13142286D01*
X10183309Y-13180381D01*
X10192833Y-13199429D01*
X10202357Y-13208952D01*
X10221405Y-13218476D01*
X10259500Y-13218476D01*
X10278548Y-13208952D01*
X10288071Y-13199429D01*
X10297595Y-13180381D01*
X10297595Y-13142286D01*
X10288071Y-13123238D01*
X10278548Y-13113714D01*
X10259500Y-13104190D01*
X10478548Y-13018476D02*
X10383309Y-13018476D01*
X10373786Y-13113714D01*
X10383309Y-13104190D01*
X10402357Y-13094667D01*
X10449976Y-13094667D01*
X10469024Y-13104190D01*
X10478548Y-13113714D01*
X10488071Y-13132762D01*
X10488071Y-13180381D01*
X10478548Y-13199429D01*
X10469024Y-13208952D01*
X10449976Y-13218476D01*
X10402357Y-13218476D01*
X10383309Y-13208952D01*
X10373786Y-13199429D01*
X10611881Y-13018476D02*
X10630928Y-13018476D01*
X10649976Y-13028000D01*
X10659500Y-13037524D01*
X10669024Y-13056571D01*
X10678548Y-13094667D01*
X10678548Y-13142286D01*
X10669024Y-13180381D01*
X10659500Y-13199429D01*
X10649976Y-13208952D01*
X10630928Y-13218476D01*
X10611881Y-13218476D01*
X10592833Y-13208952D01*
X10583309Y-13199429D01*
X10573786Y-13180381D01*
X10564262Y-13142286D01*
X10564262Y-13094667D01*
X10573786Y-13056571D01*
X10583309Y-13037524D01*
X10592833Y-13028000D01*
X10611881Y-13018476D01*
X10764262Y-13218476D02*
X10764262Y-13085143D01*
X10764262Y-13104190D02*
X10773786Y-13094667D01*
X10792833Y-13085143D01*
X10821405Y-13085143D01*
X10840452Y-13094667D01*
X10849976Y-13113714D01*
X10849976Y-13218476D01*
X10849976Y-13113714D02*
X10859500Y-13094667D01*
X10878548Y-13085143D01*
X10907119Y-13085143D01*
X10926167Y-13094667D01*
X10935690Y-13113714D01*
X10935690Y-13218476D01*
X11030928Y-13218476D02*
X11030928Y-13085143D01*
X11030928Y-13104190D02*
X11040452Y-13094667D01*
X11059500Y-13085143D01*
X11088071Y-13085143D01*
X11107119Y-13094667D01*
X11116643Y-13113714D01*
X11116643Y-13218476D01*
X11116643Y-13113714D02*
X11126167Y-13094667D01*
X11145214Y-13085143D01*
X11173786Y-13085143D01*
X11192833Y-13094667D01*
X11202357Y-13113714D01*
X11202357Y-13218476D01*
X11592833Y-13008952D02*
X11421405Y-13266095D01*
X11849976Y-13018476D02*
X11869024Y-13018476D01*
X11888071Y-13028000D01*
X11897595Y-13037524D01*
X11907119Y-13056571D01*
X11916643Y-13094667D01*
X11916643Y-13142286D01*
X11907119Y-13180381D01*
X11897595Y-13199429D01*
X11888071Y-13208952D01*
X11869024Y-13218476D01*
X11849976Y-13218476D01*
X11830928Y-13208952D01*
X11821405Y-13199429D01*
X11811881Y-13180381D01*
X11802357Y-13142286D01*
X11802357Y-13094667D01*
X11811881Y-13056571D01*
X11821405Y-13037524D01*
X11830928Y-13028000D01*
X11849976Y-13018476D01*
X12002357Y-13199429D02*
X12011881Y-13208952D01*
X12002357Y-13218476D01*
X11992833Y-13208952D01*
X12002357Y-13199429D01*
X12002357Y-13218476D01*
X12135690Y-13018476D02*
X12154738Y-13018476D01*
X12173786Y-13028000D01*
X12183309Y-13037524D01*
X12192833Y-13056571D01*
X12202357Y-13094667D01*
X12202357Y-13142286D01*
X12192833Y-13180381D01*
X12183309Y-13199429D01*
X12173786Y-13208952D01*
X12154738Y-13218476D01*
X12135690Y-13218476D01*
X12116643Y-13208952D01*
X12107119Y-13199429D01*
X12097595Y-13180381D01*
X12088071Y-13142286D01*
X12088071Y-13094667D01*
X12097595Y-13056571D01*
X12107119Y-13037524D01*
X12116643Y-13028000D01*
X12135690Y-13018476D01*
X12269024Y-13018476D02*
X12392833Y-13018476D01*
X12326166Y-13094667D01*
X12354738Y-13094667D01*
X12373786Y-13104190D01*
X12383309Y-13113714D01*
X12392833Y-13132762D01*
X12392833Y-13180381D01*
X12383309Y-13199429D01*
X12373786Y-13208952D01*
X12354738Y-13218476D01*
X12297595Y-13218476D01*
X12278547Y-13208952D01*
X12269024Y-13199429D01*
X12459500Y-13018476D02*
X12583309Y-13018476D01*
X12516643Y-13094667D01*
X12545214Y-13094667D01*
X12564262Y-13104190D01*
X12573786Y-13113714D01*
X12583309Y-13132762D01*
X12583309Y-13180381D01*
X12573786Y-13199429D01*
X12564262Y-13208952D01*
X12545214Y-13218476D01*
X12488071Y-13218476D01*
X12469024Y-13208952D01*
X12459500Y-13199429D01*
X12764262Y-13018476D02*
X12669024Y-13018476D01*
X12659500Y-13113714D01*
X12669024Y-13104190D01*
X12688071Y-13094667D01*
X12735690Y-13094667D01*
X12754738Y-13104190D01*
X12764262Y-13113714D01*
X12773786Y-13132762D01*
X12773786Y-13180381D01*
X12764262Y-13199429D01*
X12754738Y-13208952D01*
X12735690Y-13218476D01*
X12688071Y-13218476D01*
X12669024Y-13208952D01*
X12659500Y-13199429D01*
X12849976Y-13018476D02*
X12849976Y-13056571D01*
X12926166Y-13018476D02*
X12926166Y-13056571D01*
X13221405Y-13294667D02*
X13211881Y-13285143D01*
X13192833Y-13256571D01*
X13183309Y-13237524D01*
X13173786Y-13208952D01*
X13164262Y-13161333D01*
X13164262Y-13123238D01*
X13173786Y-13075619D01*
X13183309Y-13047048D01*
X13192833Y-13028000D01*
X13211881Y-12999429D01*
X13221405Y-12989905D01*
X13288071Y-13037524D02*
X13297595Y-13028000D01*
X13316643Y-13018476D01*
X13364262Y-13018476D01*
X13383309Y-13028000D01*
X13392833Y-13037524D01*
X13402357Y-13056571D01*
X13402357Y-13075619D01*
X13392833Y-13104190D01*
X13278547Y-13218476D01*
X13402357Y-13218476D01*
X13640452Y-13218476D02*
X13640452Y-13018476D01*
X13726166Y-13218476D02*
X13726166Y-13113714D01*
X13716643Y-13094667D01*
X13697595Y-13085143D01*
X13669024Y-13085143D01*
X13649976Y-13094667D01*
X13640452Y-13104190D01*
X13849976Y-13218476D02*
X13830928Y-13208952D01*
X13821405Y-13199429D01*
X13811881Y-13180381D01*
X13811881Y-13123238D01*
X13821405Y-13104190D01*
X13830928Y-13094667D01*
X13849976Y-13085143D01*
X13878547Y-13085143D01*
X13897595Y-13094667D01*
X13907119Y-13104190D01*
X13916643Y-13123238D01*
X13916643Y-13180381D01*
X13907119Y-13199429D01*
X13897595Y-13208952D01*
X13878547Y-13218476D01*
X13849976Y-13218476D01*
X14030928Y-13218476D02*
X14011881Y-13208952D01*
X14002357Y-13189905D01*
X14002357Y-13018476D01*
X14183309Y-13208952D02*
X14164262Y-13218476D01*
X14126166Y-13218476D01*
X14107119Y-13208952D01*
X14097595Y-13189905D01*
X14097595Y-13113714D01*
X14107119Y-13094667D01*
X14126166Y-13085143D01*
X14164262Y-13085143D01*
X14183309Y-13094667D01*
X14192833Y-13113714D01*
X14192833Y-13132762D01*
X14097595Y-13151810D01*
X14269024Y-13208952D02*
X14288071Y-13218476D01*
X14326166Y-13218476D01*
X14345214Y-13208952D01*
X14354738Y-13189905D01*
X14354738Y-13180381D01*
X14345214Y-13161333D01*
X14326166Y-13151810D01*
X14297595Y-13151810D01*
X14278547Y-13142286D01*
X14269024Y-13123238D01*
X14269024Y-13113714D01*
X14278547Y-13094667D01*
X14297595Y-13085143D01*
X14326166Y-13085143D01*
X14345214Y-13094667D01*
X14421405Y-13294667D02*
X14430928Y-13285143D01*
X14449976Y-13256571D01*
X14459500Y-13237524D01*
X14469024Y-13208952D01*
X14478547Y-13161333D01*
X14478547Y-13123238D01*
X14469024Y-13075619D01*
X14459500Y-13047048D01*
X14449976Y-13028000D01*
X14430928Y-12999429D01*
X14421405Y-12989905D01*
D15*
X9634856Y-13427356D02*
X9634856Y-13356644D01*
X9564144Y-13356644D01*
X9564144Y-13427356D01*
X9634856Y-13427356D01*
D11*
X10011881Y-13482476D02*
X9897595Y-13482476D01*
X9954738Y-13482476D02*
X9954738Y-13282476D01*
X9935690Y-13311048D01*
X9916643Y-13330095D01*
X9897595Y-13339619D01*
X10097595Y-13463429D02*
X10107119Y-13472952D01*
X10097595Y-13482476D01*
X10088071Y-13472952D01*
X10097595Y-13463429D01*
X10097595Y-13482476D01*
X10230928Y-13282476D02*
X10249976Y-13282476D01*
X10269024Y-13292000D01*
X10278548Y-13301524D01*
X10288071Y-13320571D01*
X10297595Y-13358667D01*
X10297595Y-13406286D01*
X10288071Y-13444381D01*
X10278548Y-13463429D01*
X10269024Y-13472952D01*
X10249976Y-13482476D01*
X10230928Y-13482476D01*
X10211881Y-13472952D01*
X10202357Y-13463429D01*
X10192833Y-13444381D01*
X10183309Y-13406286D01*
X10183309Y-13358667D01*
X10192833Y-13320571D01*
X10202357Y-13301524D01*
X10211881Y-13292000D01*
X10230928Y-13282476D01*
X10421405Y-13282476D02*
X10440452Y-13282476D01*
X10459500Y-13292000D01*
X10469024Y-13301524D01*
X10478548Y-13320571D01*
X10488071Y-13358667D01*
X10488071Y-13406286D01*
X10478548Y-13444381D01*
X10469024Y-13463429D01*
X10459500Y-13472952D01*
X10440452Y-13482476D01*
X10421405Y-13482476D01*
X10402357Y-13472952D01*
X10392833Y-13463429D01*
X10383309Y-13444381D01*
X10373786Y-13406286D01*
X10373786Y-13358667D01*
X10383309Y-13320571D01*
X10392833Y-13301524D01*
X10402357Y-13292000D01*
X10421405Y-13282476D01*
X10611881Y-13282476D02*
X10630928Y-13282476D01*
X10649976Y-13292000D01*
X10659500Y-13301524D01*
X10669024Y-13320571D01*
X10678548Y-13358667D01*
X10678548Y-13406286D01*
X10669024Y-13444381D01*
X10659500Y-13463429D01*
X10649976Y-13472952D01*
X10630928Y-13482476D01*
X10611881Y-13482476D01*
X10592833Y-13472952D01*
X10583309Y-13463429D01*
X10573786Y-13444381D01*
X10564262Y-13406286D01*
X10564262Y-13358667D01*
X10573786Y-13320571D01*
X10583309Y-13301524D01*
X10592833Y-13292000D01*
X10611881Y-13282476D01*
X10764262Y-13482476D02*
X10764262Y-13349143D01*
X10764262Y-13368190D02*
X10773786Y-13358667D01*
X10792833Y-13349143D01*
X10821405Y-13349143D01*
X10840452Y-13358667D01*
X10849976Y-13377714D01*
X10849976Y-13482476D01*
X10849976Y-13377714D02*
X10859500Y-13358667D01*
X10878548Y-13349143D01*
X10907119Y-13349143D01*
X10926167Y-13358667D01*
X10935690Y-13377714D01*
X10935690Y-13482476D01*
X11030928Y-13482476D02*
X11030928Y-13349143D01*
X11030928Y-13368190D02*
X11040452Y-13358667D01*
X11059500Y-13349143D01*
X11088071Y-13349143D01*
X11107119Y-13358667D01*
X11116643Y-13377714D01*
X11116643Y-13482476D01*
X11116643Y-13377714D02*
X11126167Y-13358667D01*
X11145214Y-13349143D01*
X11173786Y-13349143D01*
X11192833Y-13358667D01*
X11202357Y-13377714D01*
X11202357Y-13482476D01*
X11592833Y-13272952D02*
X11421405Y-13530095D01*
X11849976Y-13282476D02*
X11869024Y-13282476D01*
X11888071Y-13292000D01*
X11897595Y-13301524D01*
X11907119Y-13320571D01*
X11916643Y-13358667D01*
X11916643Y-13406286D01*
X11907119Y-13444381D01*
X11897595Y-13463429D01*
X11888071Y-13472952D01*
X11869024Y-13482476D01*
X11849976Y-13482476D01*
X11830928Y-13472952D01*
X11821405Y-13463429D01*
X11811881Y-13444381D01*
X11802357Y-13406286D01*
X11802357Y-13358667D01*
X11811881Y-13320571D01*
X11821405Y-13301524D01*
X11830928Y-13292000D01*
X11849976Y-13282476D01*
X12002357Y-13463429D02*
X12011881Y-13472952D01*
X12002357Y-13482476D01*
X11992833Y-13472952D01*
X12002357Y-13463429D01*
X12002357Y-13482476D01*
X12135690Y-13282476D02*
X12154738Y-13282476D01*
X12173786Y-13292000D01*
X12183309Y-13301524D01*
X12192833Y-13320571D01*
X12202357Y-13358667D01*
X12202357Y-13406286D01*
X12192833Y-13444381D01*
X12183309Y-13463429D01*
X12173786Y-13472952D01*
X12154738Y-13482476D01*
X12135690Y-13482476D01*
X12116643Y-13472952D01*
X12107119Y-13463429D01*
X12097595Y-13444381D01*
X12088071Y-13406286D01*
X12088071Y-13358667D01*
X12097595Y-13320571D01*
X12107119Y-13301524D01*
X12116643Y-13292000D01*
X12135690Y-13282476D01*
X12269024Y-13282476D02*
X12392833Y-13282476D01*
X12326166Y-13358667D01*
X12354738Y-13358667D01*
X12373786Y-13368190D01*
X12383309Y-13377714D01*
X12392833Y-13396762D01*
X12392833Y-13444381D01*
X12383309Y-13463429D01*
X12373786Y-13472952D01*
X12354738Y-13482476D01*
X12297595Y-13482476D01*
X12278547Y-13472952D01*
X12269024Y-13463429D01*
X12488071Y-13482476D02*
X12526166Y-13482476D01*
X12545214Y-13472952D01*
X12554738Y-13463429D01*
X12573786Y-13434857D01*
X12583309Y-13396762D01*
X12583309Y-13320571D01*
X12573786Y-13301524D01*
X12564262Y-13292000D01*
X12545214Y-13282476D01*
X12507119Y-13282476D01*
X12488071Y-13292000D01*
X12478547Y-13301524D01*
X12469024Y-13320571D01*
X12469024Y-13368190D01*
X12478547Y-13387238D01*
X12488071Y-13396762D01*
X12507119Y-13406286D01*
X12545214Y-13406286D01*
X12564262Y-13396762D01*
X12573786Y-13387238D01*
X12583309Y-13368190D01*
X12754738Y-13349143D02*
X12754738Y-13482476D01*
X12707119Y-13272952D02*
X12659500Y-13415810D01*
X12783309Y-13415810D01*
X12849976Y-13282476D02*
X12849976Y-13320571D01*
X12926166Y-13282476D02*
X12926166Y-13320571D01*
X13221405Y-13558667D02*
X13211881Y-13549143D01*
X13192833Y-13520571D01*
X13183309Y-13501524D01*
X13173786Y-13472952D01*
X13164262Y-13425333D01*
X13164262Y-13387238D01*
X13173786Y-13339619D01*
X13183309Y-13311048D01*
X13192833Y-13292000D01*
X13211881Y-13263429D01*
X13221405Y-13253905D01*
X13288071Y-13301524D02*
X13297595Y-13292000D01*
X13316643Y-13282476D01*
X13364262Y-13282476D01*
X13383309Y-13292000D01*
X13392833Y-13301524D01*
X13402357Y-13320571D01*
X13402357Y-13339619D01*
X13392833Y-13368190D01*
X13278547Y-13482476D01*
X13402357Y-13482476D01*
X13516643Y-13368190D02*
X13497595Y-13358667D01*
X13488071Y-13349143D01*
X13478547Y-13330095D01*
X13478547Y-13320571D01*
X13488071Y-13301524D01*
X13497595Y-13292000D01*
X13516643Y-13282476D01*
X13554738Y-13282476D01*
X13573786Y-13292000D01*
X13583309Y-13301524D01*
X13592833Y-13320571D01*
X13592833Y-13330095D01*
X13583309Y-13349143D01*
X13573786Y-13358667D01*
X13554738Y-13368190D01*
X13516643Y-13368190D01*
X13497595Y-13377714D01*
X13488071Y-13387238D01*
X13478547Y-13406286D01*
X13478547Y-13444381D01*
X13488071Y-13463429D01*
X13497595Y-13472952D01*
X13516643Y-13482476D01*
X13554738Y-13482476D01*
X13573786Y-13472952D01*
X13583309Y-13463429D01*
X13592833Y-13444381D01*
X13592833Y-13406286D01*
X13583309Y-13387238D01*
X13573786Y-13377714D01*
X13554738Y-13368190D01*
X13830928Y-13482476D02*
X13830928Y-13282476D01*
X13916643Y-13482476D02*
X13916643Y-13377714D01*
X13907119Y-13358667D01*
X13888071Y-13349143D01*
X13859500Y-13349143D01*
X13840452Y-13358667D01*
X13830928Y-13368190D01*
X14040452Y-13482476D02*
X14021405Y-13472952D01*
X14011881Y-13463429D01*
X14002357Y-13444381D01*
X14002357Y-13387238D01*
X14011881Y-13368190D01*
X14021405Y-13358667D01*
X14040452Y-13349143D01*
X14069024Y-13349143D01*
X14088071Y-13358667D01*
X14097595Y-13368190D01*
X14107119Y-13387238D01*
X14107119Y-13444381D01*
X14097595Y-13463429D01*
X14088071Y-13472952D01*
X14069024Y-13482476D01*
X14040452Y-13482476D01*
X14221405Y-13482476D02*
X14202357Y-13472952D01*
X14192833Y-13453905D01*
X14192833Y-13282476D01*
X14373786Y-13472952D02*
X14354738Y-13482476D01*
X14316643Y-13482476D01*
X14297595Y-13472952D01*
X14288071Y-13453905D01*
X14288071Y-13377714D01*
X14297595Y-13358667D01*
X14316643Y-13349143D01*
X14354738Y-13349143D01*
X14373786Y-13358667D01*
X14383309Y-13377714D01*
X14383309Y-13396762D01*
X14288071Y-13415810D01*
X14459500Y-13472952D02*
X14478547Y-13482476D01*
X14516643Y-13482476D01*
X14535690Y-13472952D01*
X14545214Y-13453905D01*
X14545214Y-13444381D01*
X14535690Y-13425333D01*
X14516643Y-13415810D01*
X14488071Y-13415810D01*
X14469024Y-13406286D01*
X14459500Y-13387238D01*
X14459500Y-13377714D01*
X14469024Y-13358667D01*
X14488071Y-13349143D01*
X14516643Y-13349143D01*
X14535690Y-13358667D01*
X14611881Y-13558667D02*
X14621405Y-13549143D01*
X14640452Y-13520571D01*
X14649976Y-13501524D01*
X14659500Y-13472952D01*
X14669024Y-13425333D01*
X14669024Y-13387238D01*
X14659500Y-13339619D01*
X14649976Y-13311048D01*
X14640452Y-13292000D01*
X14621405Y-13263429D01*
X14611881Y-13253905D01*
M02*
