%TF.GenerationSoftware,KiCad,Pcbnew,5.99.0-unknown-476558e~101~ubuntu19.10.1*%
%TF.CreationDate,2020-07-07T10:55:02+02:00*%
%TF.ProjectId,matrixctl,6d617472-6978-4637-946c-2e6b69636164,rev?*%
%TF.SameCoordinates,Original*%
%TF.FileFunction,Copper,L2,Bot*%
%TF.FilePolarity,Positive*%
%FSLAX46Y46*%
G04 Gerber Fmt 4.6, Leading zero omitted, Abs format (unit mm)*
G04 Created by KiCad (PCBNEW 5.99.0-unknown-476558e~101~ubuntu19.10.1) date 2020-07-07 10:55:02*
%MOMM*%
%LPD*%
G01*
G04 APERTURE LIST*
%TA.AperFunction,ComponentPad*%
%ADD10O,1.200000X1.900000*%
%TD*%
%TA.AperFunction,ComponentPad*%
%ADD11C,1.450000*%
%TD*%
%TA.AperFunction,ComponentPad*%
%ADD12C,0.600000*%
%TD*%
%TA.AperFunction,ComponentPad*%
%ADD13O,1.700000X1.700000*%
%TD*%
%TA.AperFunction,ComponentPad*%
%ADD14R,1.700000X1.700000*%
%TD*%
%TA.AperFunction,ViaPad*%
%ADD15C,0.600000*%
%TD*%
%TA.AperFunction,Conductor*%
%ADD16C,0.400000*%
%TD*%
%TA.AperFunction,Conductor*%
%ADD17C,0.600000*%
%TD*%
%TA.AperFunction,Conductor*%
%ADD18C,0.250000*%
%TD*%
%TA.AperFunction,Conductor*%
%ADD19C,0.200000*%
%TD*%
G04 APERTURE END LIST*
D10*
%TO.P,J104,6,Shield*%
%TO.N,GND*%
X116300000Y-118137500D03*
X109300000Y-118137500D03*
D11*
X115300000Y-115437500D03*
X110300000Y-115437500D03*
%TD*%
D12*
%TO.P,U101,29,PGND*%
%TO.N,GND*%
X131300000Y-110600000D03*
X130300000Y-110600000D03*
X129300000Y-110600000D03*
X131300000Y-109600000D03*
X130300000Y-109600000D03*
X129300000Y-109600000D03*
X131300000Y-108600000D03*
X130300000Y-108600000D03*
X129300000Y-108600000D03*
%TA.AperFunction,SMDPad,CuDef*%
G36*
G01*
X131550000Y-108600000D02*
X131550000Y-110600000D01*
G75*
G02*
X131300000Y-110850000I-250000J0D01*
G01*
X129300000Y-110850000D01*
G75*
G02*
X129050000Y-110600000I0J250000D01*
G01*
X129050000Y-108600000D01*
G75*
G02*
X129300000Y-108350000I250000J0D01*
G01*
X131300000Y-108350000D01*
G75*
G02*
X131550000Y-108600000I0J-250000D01*
G01*
G37*
%TD.AperFunction*%
%TD*%
D13*
%TO.P,J103,8,Pin_8*%
%TO.N,/~SDB*%
X138980000Y-117800000D03*
%TO.P,J103,7,Pin_7*%
%TO.N,/~INTB*%
X136440000Y-117800000D03*
%TO.P,J103,6,Pin_6*%
%TO.N,GND*%
X133900000Y-117800000D03*
%TO.P,J103,5,Pin_5*%
%TO.N,/SCL*%
X131360000Y-117800000D03*
%TO.P,J103,4,Pin_4*%
%TO.N,/SDA*%
X128820000Y-117800000D03*
%TO.P,J103,3,Pin_3*%
%TO.N,/VIO*%
X126280000Y-117800000D03*
%TO.P,J103,2,Pin_2*%
%TO.N,GND*%
X123740000Y-117800000D03*
D14*
%TO.P,J103,1,Pin_1*%
%TO.N,Net-(FB102-Pad2)*%
X121200000Y-117800000D03*
%TD*%
%TO.P,J102,1,Pin_1*%
%TO.N,/SW5*%
X144780000Y-106875000D03*
D13*
%TO.P,J102,2,Pin_2*%
%TO.N,GND*%
X147320000Y-106875000D03*
%TO.P,J102,3,Pin_3*%
%TO.N,/SW4*%
X144780000Y-109415000D03*
%TO.P,J102,4,Pin_4*%
%TO.N,GND*%
X147320000Y-109415000D03*
%TO.P,J102,5,Pin_5*%
%TO.N,/SW3*%
X144780000Y-111955000D03*
%TO.P,J102,6,Pin_6*%
%TO.N,GND*%
X147320000Y-111955000D03*
%TO.P,J102,7,Pin_7*%
%TO.N,/SW2*%
X144780000Y-114495000D03*
%TO.P,J102,8,Pin_8*%
%TO.N,GND*%
X147320000Y-114495000D03*
%TO.P,J102,9,Pin_9*%
%TO.N,/SW1*%
X144780000Y-117035000D03*
%TO.P,J102,10,Pin_10*%
%TO.N,GND*%
X147320000Y-117035000D03*
%TD*%
%TO.P,J101,10,Pin_10*%
%TO.N,/CS1*%
X101600000Y-117035000D03*
%TO.P,J101,9,Pin_9*%
%TO.N,GND*%
X99060000Y-117035000D03*
%TO.P,J101,8,Pin_8*%
%TO.N,/CS2*%
X101600000Y-114495000D03*
%TO.P,J101,7,Pin_7*%
%TO.N,GND*%
X99060000Y-114495000D03*
%TO.P,J101,6,Pin_6*%
%TO.N,/CS3*%
X101600000Y-111955000D03*
%TO.P,J101,5,Pin_5*%
%TO.N,GND*%
X99060000Y-111955000D03*
%TO.P,J101,4,Pin_4*%
%TO.N,/CS4*%
X101600000Y-109415000D03*
%TO.P,J101,3,Pin_3*%
%TO.N,GND*%
X99060000Y-109415000D03*
%TO.P,J101,2,Pin_2*%
%TO.N,/CS5*%
X101600000Y-106875000D03*
D14*
%TO.P,J101,1,Pin_1*%
%TO.N,GND*%
X99060000Y-106875000D03*
%TD*%
D15*
%TO.N,/CS5*%
X119800000Y-106800000D03*
%TO.N,GND*%
X119500000Y-109000000D03*
X118100000Y-108000000D03*
%TO.N,/CS3*%
X117100000Y-108800000D03*
%TO.N,GND*%
X136400000Y-113100000D03*
X111700000Y-110600000D03*
X102900000Y-118400000D03*
X106200000Y-118400000D03*
%TO.N,/CS4*%
X127800000Y-106600000D03*
%TO.N,/CS3*%
X128400000Y-106000000D03*
%TO.N,GND*%
X137700000Y-118900000D03*
X137700000Y-116500000D03*
X137900000Y-111700000D03*
X126200000Y-116200000D03*
X119500000Y-117600000D03*
X122100000Y-111200000D03*
X104500000Y-104900000D03*
X109400000Y-106400000D03*
X106000000Y-106500000D03*
X104500000Y-107800000D03*
X103000000Y-108100000D03*
X103100000Y-110600000D03*
X105200000Y-110600000D03*
X108200000Y-108100000D03*
X113200000Y-107900000D03*
X113200000Y-106400000D03*
X115600000Y-106400000D03*
X117700000Y-106400000D03*
X115700000Y-107900000D03*
X109300000Y-109800000D03*
X105500000Y-113200000D03*
X103000000Y-113200000D03*
X102900000Y-115500000D03*
X106200000Y-115500000D03*
X109800000Y-112100000D03*
%TO.N,/CS1*%
X114200000Y-110000000D03*
%TO.N,/CS2*%
X115500000Y-109400000D03*
%TO.N,/CS1*%
X131400000Y-106200000D03*
%TO.N,/CS4*%
X124000000Y-107000000D03*
%TO.N,GND*%
X132700000Y-107100000D03*
%TO.N,/CS2*%
X130300000Y-106200000D03*
%TO.N,/CS5*%
X125400000Y-108099999D03*
%TO.N,GND*%
X143000000Y-108100000D03*
X143000000Y-113200000D03*
X139300000Y-110300000D03*
X132700000Y-105200000D03*
X143000000Y-105100000D03*
X142000000Y-118500000D03*
X142600000Y-115800000D03*
X140000000Y-113700000D03*
X143000000Y-110700000D03*
X140700000Y-109000000D03*
X115700000Y-111400000D03*
%TO.N,VBUS*%
X123700000Y-111300000D03*
%TO.N,GND*%
X123900000Y-106000000D03*
X120500000Y-106000000D03*
%TO.N,Net-(TP101-Pad1)*%
X124200000Y-113300000D03*
%TO.N,GND*%
X117900000Y-111400000D03*
X119600000Y-114000000D03*
%TO.N,VBUS*%
X125700000Y-111300000D03*
%TO.N,GND*%
X125600000Y-112700000D03*
%TO.N,Net-(TP101-Pad1)*%
X128000000Y-112800000D03*
%TO.N,GND*%
X124800000Y-109500000D03*
X126300000Y-106400000D03*
X132800000Y-111700000D03*
%TD*%
D16*
%TO.N,/CS3*%
X118950000Y-108250000D02*
X118400000Y-108800000D01*
X120499999Y-108799999D02*
X120050000Y-108350000D01*
X120050000Y-108350000D02*
X119950000Y-108250000D01*
X119950000Y-108250000D02*
X118950000Y-108250000D01*
%TO.N,/CS5*%
X125400000Y-108099999D02*
X121099999Y-108099999D01*
X121099999Y-108099999D02*
X119800000Y-106800000D01*
%TO.N,/CS3*%
X121400001Y-108799999D02*
X120499999Y-108799999D01*
X121400001Y-108799999D02*
X126800001Y-108799999D01*
X118400000Y-108800000D02*
X117100000Y-108800000D01*
X128500001Y-107099999D02*
X128500001Y-106100001D01*
X128500001Y-106100001D02*
X128400000Y-106000000D01*
X126800001Y-108799999D02*
X128500001Y-107099999D01*
%TO.N,/CS4*%
X124000000Y-107000000D02*
X124299999Y-107299999D01*
X124299999Y-107299999D02*
X127100001Y-107299999D01*
X127100001Y-107299999D02*
X127800000Y-106600000D01*
%TO.N,/CS1*%
X131400000Y-106200000D02*
X131400000Y-105500000D01*
X114200000Y-106000000D02*
X114200000Y-110000000D01*
X115000000Y-105200000D02*
X114200000Y-106000000D01*
X131100000Y-105200000D02*
X115000000Y-105200000D01*
X131400000Y-105500000D02*
X131100000Y-105200000D01*
%TO.N,/CS2*%
X116300001Y-110200001D02*
X115500000Y-109400000D01*
X130300000Y-106200000D02*
X126299999Y-110200001D01*
X126299999Y-110200001D02*
X116300001Y-110200001D01*
D17*
%TO.N,VBUS*%
X123700000Y-111300000D02*
X125700000Y-111300000D01*
D18*
%TO.N,Net-(TP101-Pad1)*%
X126900000Y-113900000D02*
X124800000Y-113900000D01*
X128000000Y-112800000D02*
X126900000Y-113900000D01*
X124800000Y-113900000D02*
X124200000Y-113300000D01*
%TD*%
%TO.N,GND*%
D19*
X149561000Y-119276000D02*
X96819000Y-119276000D01*
X96819000Y-117126746D01*
X100449562Y-117126746D01*
X100450372Y-117136396D01*
X100489293Y-117348453D01*
X100491962Y-117357762D01*
X100571330Y-117558221D01*
X100575756Y-117566834D01*
X100692548Y-117748060D01*
X100698563Y-117755649D01*
X100848331Y-117910738D01*
X100855705Y-117917014D01*
X101032744Y-118040060D01*
X101041197Y-118044784D01*
X101238764Y-118131099D01*
X101247974Y-118134092D01*
X101458544Y-118180388D01*
X101468160Y-118181535D01*
X101683713Y-118186050D01*
X101693368Y-118185307D01*
X101905691Y-118147869D01*
X101915019Y-118145265D01*
X102116027Y-118067298D01*
X102124671Y-118062932D01*
X102306707Y-117947408D01*
X102314338Y-117941446D01*
X102470469Y-117792765D01*
X102476796Y-117785434D01*
X102601075Y-117609258D01*
X102605859Y-117600838D01*
X102693550Y-117403879D01*
X102696607Y-117394690D01*
X102744449Y-117184111D01*
X102745678Y-117173807D01*
X102748871Y-116945137D01*
X120047082Y-116945137D01*
X120047082Y-118654863D01*
X120048035Y-118664544D01*
X120066408Y-118756913D01*
X120073871Y-118774930D01*
X120128910Y-118857301D01*
X120142699Y-118871090D01*
X120225070Y-118926129D01*
X120243087Y-118933592D01*
X120335456Y-118951965D01*
X120345137Y-118952918D01*
X122054863Y-118952918D01*
X122064544Y-118951965D01*
X122156913Y-118933592D01*
X122174930Y-118926129D01*
X122257301Y-118871090D01*
X122271090Y-118857301D01*
X122326129Y-118774930D01*
X122333592Y-118756913D01*
X122351965Y-118664544D01*
X122352918Y-118654863D01*
X122352918Y-117891746D01*
X125129562Y-117891746D01*
X125130372Y-117901396D01*
X125169293Y-118113453D01*
X125171962Y-118122762D01*
X125251330Y-118323221D01*
X125255756Y-118331834D01*
X125372548Y-118513060D01*
X125378563Y-118520649D01*
X125528331Y-118675738D01*
X125535705Y-118682014D01*
X125712744Y-118805060D01*
X125721197Y-118809784D01*
X125918764Y-118896099D01*
X125927974Y-118899092D01*
X126138544Y-118945388D01*
X126148160Y-118946535D01*
X126363713Y-118951050D01*
X126373368Y-118950307D01*
X126585691Y-118912869D01*
X126595019Y-118910265D01*
X126796027Y-118832298D01*
X126804671Y-118827932D01*
X126986707Y-118712408D01*
X126994338Y-118706446D01*
X127150469Y-118557765D01*
X127156796Y-118550434D01*
X127281075Y-118374258D01*
X127285859Y-118365838D01*
X127373550Y-118168879D01*
X127376607Y-118159690D01*
X127424449Y-117949111D01*
X127425678Y-117938807D01*
X127426335Y-117891746D01*
X127669562Y-117891746D01*
X127670372Y-117901396D01*
X127709293Y-118113453D01*
X127711962Y-118122762D01*
X127791330Y-118323221D01*
X127795756Y-118331834D01*
X127912548Y-118513060D01*
X127918563Y-118520649D01*
X128068331Y-118675738D01*
X128075705Y-118682014D01*
X128252744Y-118805060D01*
X128261197Y-118809784D01*
X128458764Y-118896099D01*
X128467974Y-118899092D01*
X128678544Y-118945388D01*
X128688160Y-118946535D01*
X128903713Y-118951050D01*
X128913368Y-118950307D01*
X129125691Y-118912869D01*
X129135019Y-118910265D01*
X129336027Y-118832298D01*
X129344671Y-118827932D01*
X129526707Y-118712408D01*
X129534338Y-118706446D01*
X129690469Y-118557765D01*
X129696796Y-118550434D01*
X129821075Y-118374258D01*
X129825859Y-118365838D01*
X129913550Y-118168879D01*
X129916607Y-118159690D01*
X129964449Y-117949111D01*
X129965678Y-117938807D01*
X129966335Y-117891746D01*
X130209562Y-117891746D01*
X130210372Y-117901396D01*
X130249293Y-118113453D01*
X130251962Y-118122762D01*
X130331330Y-118323221D01*
X130335756Y-118331834D01*
X130452548Y-118513060D01*
X130458563Y-118520649D01*
X130608331Y-118675738D01*
X130615705Y-118682014D01*
X130792744Y-118805060D01*
X130801197Y-118809784D01*
X130998764Y-118896099D01*
X131007974Y-118899092D01*
X131218544Y-118945388D01*
X131228160Y-118946535D01*
X131443713Y-118951050D01*
X131453368Y-118950307D01*
X131665691Y-118912869D01*
X131675019Y-118910265D01*
X131876027Y-118832298D01*
X131884671Y-118827932D01*
X132066707Y-118712408D01*
X132074338Y-118706446D01*
X132230469Y-118557765D01*
X132236796Y-118550434D01*
X132361075Y-118374258D01*
X132365859Y-118365838D01*
X132453550Y-118168879D01*
X132456607Y-118159690D01*
X132504449Y-117949111D01*
X132505678Y-117938807D01*
X132506335Y-117891746D01*
X135289562Y-117891746D01*
X135290372Y-117901396D01*
X135329293Y-118113453D01*
X135331962Y-118122762D01*
X135411330Y-118323221D01*
X135415756Y-118331834D01*
X135532548Y-118513060D01*
X135538563Y-118520649D01*
X135688331Y-118675738D01*
X135695705Y-118682014D01*
X135872744Y-118805060D01*
X135881197Y-118809784D01*
X136078764Y-118896099D01*
X136087974Y-118899092D01*
X136298544Y-118945388D01*
X136308160Y-118946535D01*
X136523713Y-118951050D01*
X136533368Y-118950307D01*
X136745691Y-118912869D01*
X136755019Y-118910265D01*
X136956027Y-118832298D01*
X136964671Y-118827932D01*
X137146707Y-118712408D01*
X137154338Y-118706446D01*
X137310469Y-118557765D01*
X137316796Y-118550434D01*
X137441075Y-118374258D01*
X137445859Y-118365838D01*
X137533550Y-118168879D01*
X137536607Y-118159690D01*
X137584449Y-117949111D01*
X137585678Y-117938807D01*
X137586335Y-117891746D01*
X137829562Y-117891746D01*
X137830372Y-117901396D01*
X137869293Y-118113453D01*
X137871962Y-118122762D01*
X137951330Y-118323221D01*
X137955756Y-118331834D01*
X138072548Y-118513060D01*
X138078563Y-118520649D01*
X138228331Y-118675738D01*
X138235705Y-118682014D01*
X138412744Y-118805060D01*
X138421197Y-118809784D01*
X138618764Y-118896099D01*
X138627974Y-118899092D01*
X138838544Y-118945388D01*
X138848160Y-118946535D01*
X139063713Y-118951050D01*
X139073368Y-118950307D01*
X139285691Y-118912869D01*
X139295019Y-118910265D01*
X139496027Y-118832298D01*
X139504671Y-118827932D01*
X139686707Y-118712408D01*
X139694338Y-118706446D01*
X139850469Y-118557765D01*
X139856796Y-118550434D01*
X139981075Y-118374258D01*
X139985859Y-118365838D01*
X140073550Y-118168879D01*
X140076607Y-118159690D01*
X140124449Y-117949111D01*
X140125678Y-117938807D01*
X140129108Y-117693237D01*
X140128167Y-117682902D01*
X140086223Y-117471069D01*
X140083424Y-117461798D01*
X140001265Y-117262467D01*
X139996719Y-117253917D01*
X139912227Y-117126746D01*
X143629562Y-117126746D01*
X143630372Y-117136396D01*
X143669293Y-117348453D01*
X143671962Y-117357762D01*
X143751330Y-117558221D01*
X143755756Y-117566834D01*
X143872548Y-117748060D01*
X143878563Y-117755649D01*
X144028331Y-117910738D01*
X144035705Y-117917014D01*
X144212744Y-118040060D01*
X144221197Y-118044784D01*
X144418764Y-118131099D01*
X144427974Y-118134092D01*
X144638544Y-118180388D01*
X144648160Y-118181535D01*
X144863713Y-118186050D01*
X144873368Y-118185307D01*
X145085691Y-118147869D01*
X145095019Y-118145265D01*
X145296027Y-118067298D01*
X145304671Y-118062932D01*
X145486707Y-117947408D01*
X145494338Y-117941446D01*
X145650469Y-117792765D01*
X145656796Y-117785434D01*
X145781075Y-117609258D01*
X145785859Y-117600838D01*
X145873550Y-117403879D01*
X145876607Y-117394690D01*
X145924449Y-117184111D01*
X145925678Y-117173807D01*
X145929108Y-116928237D01*
X145928167Y-116917902D01*
X145886223Y-116706069D01*
X145883424Y-116696798D01*
X145801265Y-116497467D01*
X145796719Y-116488917D01*
X145677408Y-116309340D01*
X145671287Y-116301836D01*
X145519369Y-116148853D01*
X145511907Y-116142680D01*
X145333168Y-116022118D01*
X145324650Y-116017512D01*
X145125896Y-115933964D01*
X145116646Y-115931101D01*
X144905450Y-115887748D01*
X144895819Y-115886736D01*
X144680224Y-115885231D01*
X144670580Y-115886108D01*
X144458800Y-115926508D01*
X144449510Y-115929242D01*
X144249611Y-116010007D01*
X144241029Y-116014493D01*
X144060623Y-116132548D01*
X144053076Y-116138616D01*
X143899036Y-116289463D01*
X143892811Y-116296881D01*
X143771004Y-116474774D01*
X143766339Y-116483261D01*
X143681406Y-116681426D01*
X143678478Y-116690656D01*
X143633652Y-116901544D01*
X143632572Y-116911167D01*
X143629562Y-117126746D01*
X139912227Y-117126746D01*
X139877408Y-117074340D01*
X139871287Y-117066836D01*
X139719369Y-116913853D01*
X139711907Y-116907680D01*
X139533168Y-116787118D01*
X139524650Y-116782512D01*
X139325896Y-116698964D01*
X139316646Y-116696101D01*
X139105450Y-116652748D01*
X139095819Y-116651736D01*
X138880224Y-116650231D01*
X138870580Y-116651108D01*
X138658800Y-116691508D01*
X138649510Y-116694242D01*
X138449611Y-116775007D01*
X138441029Y-116779493D01*
X138260623Y-116897548D01*
X138253076Y-116903616D01*
X138099036Y-117054463D01*
X138092811Y-117061881D01*
X137971004Y-117239774D01*
X137966339Y-117248261D01*
X137881406Y-117446426D01*
X137878478Y-117455656D01*
X137833652Y-117666544D01*
X137832572Y-117676167D01*
X137829562Y-117891746D01*
X137586335Y-117891746D01*
X137589108Y-117693237D01*
X137588167Y-117682902D01*
X137546223Y-117471069D01*
X137543424Y-117461798D01*
X137461265Y-117262467D01*
X137456719Y-117253917D01*
X137337408Y-117074340D01*
X137331287Y-117066836D01*
X137179369Y-116913853D01*
X137171907Y-116907680D01*
X136993168Y-116787118D01*
X136984650Y-116782512D01*
X136785896Y-116698964D01*
X136776646Y-116696101D01*
X136565450Y-116652748D01*
X136555819Y-116651736D01*
X136340224Y-116650231D01*
X136330580Y-116651108D01*
X136118800Y-116691508D01*
X136109510Y-116694242D01*
X135909611Y-116775007D01*
X135901029Y-116779493D01*
X135720623Y-116897548D01*
X135713076Y-116903616D01*
X135559036Y-117054463D01*
X135552811Y-117061881D01*
X135431004Y-117239774D01*
X135426339Y-117248261D01*
X135341406Y-117446426D01*
X135338478Y-117455656D01*
X135293652Y-117666544D01*
X135292572Y-117676167D01*
X135289562Y-117891746D01*
X132506335Y-117891746D01*
X132509108Y-117693237D01*
X132508167Y-117682902D01*
X132466223Y-117471069D01*
X132463424Y-117461798D01*
X132381265Y-117262467D01*
X132376719Y-117253917D01*
X132257408Y-117074340D01*
X132251287Y-117066836D01*
X132099369Y-116913853D01*
X132091907Y-116907680D01*
X131913168Y-116787118D01*
X131904650Y-116782512D01*
X131705896Y-116698964D01*
X131696646Y-116696101D01*
X131485450Y-116652748D01*
X131475819Y-116651736D01*
X131260224Y-116650231D01*
X131250580Y-116651108D01*
X131038800Y-116691508D01*
X131029510Y-116694242D01*
X130829611Y-116775007D01*
X130821029Y-116779493D01*
X130640623Y-116897548D01*
X130633076Y-116903616D01*
X130479036Y-117054463D01*
X130472811Y-117061881D01*
X130351004Y-117239774D01*
X130346339Y-117248261D01*
X130261406Y-117446426D01*
X130258478Y-117455656D01*
X130213652Y-117666544D01*
X130212572Y-117676167D01*
X130209562Y-117891746D01*
X129966335Y-117891746D01*
X129969108Y-117693237D01*
X129968167Y-117682902D01*
X129926223Y-117471069D01*
X129923424Y-117461798D01*
X129841265Y-117262467D01*
X129836719Y-117253917D01*
X129717408Y-117074340D01*
X129711287Y-117066836D01*
X129559369Y-116913853D01*
X129551907Y-116907680D01*
X129373168Y-116787118D01*
X129364650Y-116782512D01*
X129165896Y-116698964D01*
X129156646Y-116696101D01*
X128945450Y-116652748D01*
X128935819Y-116651736D01*
X128720224Y-116650231D01*
X128710580Y-116651108D01*
X128498800Y-116691508D01*
X128489510Y-116694242D01*
X128289611Y-116775007D01*
X128281029Y-116779493D01*
X128100623Y-116897548D01*
X128093076Y-116903616D01*
X127939036Y-117054463D01*
X127932811Y-117061881D01*
X127811004Y-117239774D01*
X127806339Y-117248261D01*
X127721406Y-117446426D01*
X127718478Y-117455656D01*
X127673652Y-117666544D01*
X127672572Y-117676167D01*
X127669562Y-117891746D01*
X127426335Y-117891746D01*
X127429108Y-117693237D01*
X127428167Y-117682902D01*
X127386223Y-117471069D01*
X127383424Y-117461798D01*
X127301265Y-117262467D01*
X127296719Y-117253917D01*
X127177408Y-117074340D01*
X127171287Y-117066836D01*
X127019369Y-116913853D01*
X127011907Y-116907680D01*
X126833168Y-116787118D01*
X126824650Y-116782512D01*
X126625896Y-116698964D01*
X126616646Y-116696101D01*
X126405450Y-116652748D01*
X126395819Y-116651736D01*
X126180224Y-116650231D01*
X126170580Y-116651108D01*
X125958800Y-116691508D01*
X125949510Y-116694242D01*
X125749611Y-116775007D01*
X125741029Y-116779493D01*
X125560623Y-116897548D01*
X125553076Y-116903616D01*
X125399036Y-117054463D01*
X125392811Y-117061881D01*
X125271004Y-117239774D01*
X125266339Y-117248261D01*
X125181406Y-117446426D01*
X125178478Y-117455656D01*
X125133652Y-117666544D01*
X125132572Y-117676167D01*
X125129562Y-117891746D01*
X122352918Y-117891746D01*
X122352918Y-116945137D01*
X122351965Y-116935456D01*
X122333592Y-116843087D01*
X122326129Y-116825070D01*
X122271090Y-116742699D01*
X122257301Y-116728910D01*
X122174930Y-116673871D01*
X122156913Y-116666408D01*
X122064544Y-116648035D01*
X122054863Y-116647082D01*
X120345137Y-116647082D01*
X120335456Y-116648035D01*
X120243087Y-116666408D01*
X120225070Y-116673871D01*
X120142699Y-116728910D01*
X120128910Y-116742699D01*
X120073871Y-116825070D01*
X120066408Y-116843087D01*
X120048035Y-116935456D01*
X120047082Y-116945137D01*
X102748871Y-116945137D01*
X102749108Y-116928237D01*
X102748167Y-116917902D01*
X102706223Y-116706069D01*
X102703424Y-116696798D01*
X102621265Y-116497467D01*
X102616719Y-116488917D01*
X102497408Y-116309340D01*
X102491287Y-116301836D01*
X102339369Y-116148853D01*
X102331907Y-116142680D01*
X102153168Y-116022118D01*
X102144650Y-116017512D01*
X101945896Y-115933964D01*
X101936646Y-115931101D01*
X101725450Y-115887748D01*
X101715819Y-115886736D01*
X101500224Y-115885231D01*
X101490580Y-115886108D01*
X101278800Y-115926508D01*
X101269510Y-115929242D01*
X101069611Y-116010007D01*
X101061029Y-116014493D01*
X100880623Y-116132548D01*
X100873076Y-116138616D01*
X100719036Y-116289463D01*
X100712811Y-116296881D01*
X100591004Y-116474774D01*
X100586339Y-116483261D01*
X100501406Y-116681426D01*
X100498478Y-116690656D01*
X100453652Y-116901544D01*
X100452572Y-116911167D01*
X100449562Y-117126746D01*
X96819000Y-117126746D01*
X96819000Y-114586746D01*
X100449562Y-114586746D01*
X100450372Y-114596396D01*
X100489293Y-114808453D01*
X100491962Y-114817762D01*
X100571330Y-115018221D01*
X100575756Y-115026834D01*
X100692548Y-115208060D01*
X100698563Y-115215649D01*
X100848331Y-115370738D01*
X100855705Y-115377014D01*
X101032744Y-115500060D01*
X101041197Y-115504784D01*
X101238764Y-115591099D01*
X101247974Y-115594092D01*
X101458544Y-115640388D01*
X101468160Y-115641535D01*
X101683713Y-115646050D01*
X101693368Y-115645307D01*
X101905691Y-115607869D01*
X101915019Y-115605265D01*
X102116027Y-115527298D01*
X102124671Y-115522932D01*
X102306707Y-115407408D01*
X102314338Y-115401446D01*
X102470469Y-115252765D01*
X102476796Y-115245434D01*
X102601075Y-115069258D01*
X102605859Y-115060838D01*
X102693550Y-114863879D01*
X102696607Y-114854690D01*
X102744449Y-114644111D01*
X102745678Y-114633807D01*
X102746335Y-114586746D01*
X143629562Y-114586746D01*
X143630372Y-114596396D01*
X143669293Y-114808453D01*
X143671962Y-114817762D01*
X143751330Y-115018221D01*
X143755756Y-115026834D01*
X143872548Y-115208060D01*
X143878563Y-115215649D01*
X144028331Y-115370738D01*
X144035705Y-115377014D01*
X144212744Y-115500060D01*
X144221197Y-115504784D01*
X144418764Y-115591099D01*
X144427974Y-115594092D01*
X144638544Y-115640388D01*
X144648160Y-115641535D01*
X144863713Y-115646050D01*
X144873368Y-115645307D01*
X145085691Y-115607869D01*
X145095019Y-115605265D01*
X145296027Y-115527298D01*
X145304671Y-115522932D01*
X145486707Y-115407408D01*
X145494338Y-115401446D01*
X145650469Y-115252765D01*
X145656796Y-115245434D01*
X145781075Y-115069258D01*
X145785859Y-115060838D01*
X145873550Y-114863879D01*
X145876607Y-114854690D01*
X145924449Y-114644111D01*
X145925678Y-114633807D01*
X145929108Y-114388237D01*
X145928167Y-114377902D01*
X145886223Y-114166069D01*
X145883424Y-114156798D01*
X145801265Y-113957467D01*
X145796719Y-113948917D01*
X145677408Y-113769340D01*
X145671287Y-113761836D01*
X145519369Y-113608853D01*
X145511907Y-113602680D01*
X145333168Y-113482118D01*
X145324650Y-113477512D01*
X145125896Y-113393964D01*
X145116646Y-113391101D01*
X144905450Y-113347748D01*
X144895819Y-113346736D01*
X144680224Y-113345231D01*
X144670580Y-113346108D01*
X144458800Y-113386508D01*
X144449510Y-113389242D01*
X144249611Y-113470007D01*
X144241029Y-113474493D01*
X144060623Y-113592548D01*
X144053076Y-113598616D01*
X143899036Y-113749463D01*
X143892811Y-113756881D01*
X143771004Y-113934774D01*
X143766339Y-113943261D01*
X143681406Y-114141426D01*
X143678478Y-114150656D01*
X143633652Y-114361544D01*
X143632572Y-114371167D01*
X143629562Y-114586746D01*
X102746335Y-114586746D01*
X102749108Y-114388237D01*
X102748167Y-114377902D01*
X102706223Y-114166069D01*
X102703424Y-114156798D01*
X102621265Y-113957467D01*
X102616719Y-113948917D01*
X102497408Y-113769340D01*
X102491287Y-113761836D01*
X102339369Y-113608853D01*
X102331907Y-113602680D01*
X102153168Y-113482118D01*
X102144650Y-113477512D01*
X101945896Y-113393964D01*
X101936646Y-113391101D01*
X101725450Y-113347748D01*
X101715819Y-113346736D01*
X101500224Y-113345231D01*
X101490580Y-113346108D01*
X101278800Y-113386508D01*
X101269510Y-113389242D01*
X101069611Y-113470007D01*
X101061029Y-113474493D01*
X100880623Y-113592548D01*
X100873076Y-113598616D01*
X100719036Y-113749463D01*
X100712811Y-113756881D01*
X100591004Y-113934774D01*
X100586339Y-113943261D01*
X100501406Y-114141426D01*
X100498478Y-114150656D01*
X100453652Y-114361544D01*
X100452572Y-114371167D01*
X100449562Y-114586746D01*
X96819000Y-114586746D01*
X96819000Y-113202823D01*
X123599000Y-113202823D01*
X123599000Y-113397177D01*
X123602008Y-113414237D01*
X123668482Y-113596871D01*
X123677143Y-113611873D01*
X123802072Y-113760758D01*
X123815342Y-113771893D01*
X123983658Y-113869070D01*
X123999936Y-113874995D01*
X124191339Y-113908744D01*
X124206290Y-113908744D01*
X124469104Y-114171559D01*
X124487348Y-114198863D01*
X124501137Y-114212653D01*
X124625517Y-114295760D01*
X124643534Y-114303223D01*
X124748481Y-114324098D01*
X124790249Y-114332406D01*
X124809750Y-114332406D01*
X124841956Y-114326000D01*
X126858043Y-114326000D01*
X126890249Y-114332406D01*
X126909751Y-114332406D01*
X126951519Y-114324098D01*
X127056466Y-114303222D01*
X127074483Y-114295760D01*
X127198863Y-114212652D01*
X127212653Y-114198862D01*
X127230896Y-114171559D01*
X127993712Y-113408744D01*
X128008662Y-113408744D01*
X128200064Y-113374995D01*
X128216342Y-113369070D01*
X128384658Y-113271893D01*
X128397928Y-113260758D01*
X128522857Y-113111873D01*
X128531518Y-113096871D01*
X128597992Y-112914237D01*
X128601000Y-112897177D01*
X128601000Y-112702823D01*
X128597992Y-112685763D01*
X128531518Y-112503129D01*
X128522857Y-112488127D01*
X128397928Y-112339242D01*
X128384658Y-112328107D01*
X128216342Y-112230930D01*
X128200064Y-112225005D01*
X128008661Y-112191256D01*
X127991339Y-112191256D01*
X127799936Y-112225005D01*
X127783658Y-112230930D01*
X127615342Y-112328107D01*
X127602072Y-112339242D01*
X127477143Y-112488127D01*
X127468482Y-112503129D01*
X127402008Y-112685763D01*
X127399000Y-112702823D01*
X127399000Y-112798544D01*
X126723545Y-113474000D01*
X124976455Y-113474000D01*
X124801000Y-113298546D01*
X124801000Y-113202823D01*
X124797992Y-113185763D01*
X124731518Y-113003129D01*
X124722857Y-112988127D01*
X124597928Y-112839242D01*
X124584658Y-112828107D01*
X124416342Y-112730930D01*
X124400064Y-112725005D01*
X124208661Y-112691256D01*
X124191339Y-112691256D01*
X123999936Y-112725005D01*
X123983658Y-112730930D01*
X123815342Y-112828107D01*
X123802072Y-112839242D01*
X123677143Y-112988127D01*
X123668482Y-113003129D01*
X123602008Y-113185763D01*
X123599000Y-113202823D01*
X96819000Y-113202823D01*
X96819000Y-112046746D01*
X100449562Y-112046746D01*
X100450372Y-112056396D01*
X100489293Y-112268453D01*
X100491962Y-112277762D01*
X100571330Y-112478221D01*
X100575756Y-112486834D01*
X100692548Y-112668060D01*
X100698563Y-112675649D01*
X100848331Y-112830738D01*
X100855705Y-112837014D01*
X101032744Y-112960060D01*
X101041197Y-112964784D01*
X101238764Y-113051099D01*
X101247974Y-113054092D01*
X101458544Y-113100388D01*
X101468160Y-113101535D01*
X101683713Y-113106050D01*
X101693368Y-113105307D01*
X101905691Y-113067869D01*
X101915019Y-113065265D01*
X102116027Y-112987298D01*
X102124671Y-112982932D01*
X102306707Y-112867408D01*
X102314338Y-112861446D01*
X102470469Y-112712765D01*
X102476796Y-112705434D01*
X102601075Y-112529258D01*
X102605859Y-112520838D01*
X102693550Y-112323879D01*
X102696607Y-112314690D01*
X102744449Y-112104111D01*
X102745678Y-112093807D01*
X102746335Y-112046746D01*
X143629562Y-112046746D01*
X143630372Y-112056396D01*
X143669293Y-112268453D01*
X143671962Y-112277762D01*
X143751330Y-112478221D01*
X143755756Y-112486834D01*
X143872548Y-112668060D01*
X143878563Y-112675649D01*
X144028331Y-112830738D01*
X144035705Y-112837014D01*
X144212744Y-112960060D01*
X144221197Y-112964784D01*
X144418764Y-113051099D01*
X144427974Y-113054092D01*
X144638544Y-113100388D01*
X144648160Y-113101535D01*
X144863713Y-113106050D01*
X144873368Y-113105307D01*
X145085691Y-113067869D01*
X145095019Y-113065265D01*
X145296027Y-112987298D01*
X145304671Y-112982932D01*
X145486707Y-112867408D01*
X145494338Y-112861446D01*
X145650469Y-112712765D01*
X145656796Y-112705434D01*
X145781075Y-112529258D01*
X145785859Y-112520838D01*
X145873550Y-112323879D01*
X145876607Y-112314690D01*
X145924449Y-112104111D01*
X145925678Y-112093807D01*
X145929108Y-111848237D01*
X145928167Y-111837902D01*
X145886223Y-111626069D01*
X145883424Y-111616798D01*
X145801265Y-111417467D01*
X145796719Y-111408917D01*
X145677408Y-111229340D01*
X145671287Y-111221836D01*
X145519369Y-111068853D01*
X145511907Y-111062680D01*
X145333168Y-110942118D01*
X145324650Y-110937512D01*
X145125896Y-110853964D01*
X145116646Y-110851101D01*
X144905450Y-110807748D01*
X144895819Y-110806736D01*
X144680224Y-110805231D01*
X144670580Y-110806108D01*
X144458800Y-110846508D01*
X144449510Y-110849242D01*
X144249611Y-110930007D01*
X144241029Y-110934493D01*
X144060623Y-111052548D01*
X144053076Y-111058616D01*
X143899036Y-111209463D01*
X143892811Y-111216881D01*
X143771004Y-111394774D01*
X143766339Y-111403261D01*
X143681406Y-111601426D01*
X143678478Y-111610656D01*
X143633652Y-111821544D01*
X143632572Y-111831167D01*
X143629562Y-112046746D01*
X102746335Y-112046746D01*
X102749108Y-111848237D01*
X102748167Y-111837902D01*
X102706223Y-111626069D01*
X102703424Y-111616798D01*
X102621265Y-111417467D01*
X102616719Y-111408917D01*
X102497408Y-111229340D01*
X102491287Y-111221836D01*
X102339369Y-111068853D01*
X102331907Y-111062680D01*
X102153168Y-110942118D01*
X102144650Y-110937512D01*
X101945896Y-110853964D01*
X101936646Y-110851101D01*
X101725450Y-110807748D01*
X101715819Y-110806736D01*
X101500224Y-110805231D01*
X101490580Y-110806108D01*
X101278800Y-110846508D01*
X101269510Y-110849242D01*
X101069611Y-110930007D01*
X101061029Y-110934493D01*
X100880623Y-111052548D01*
X100873076Y-111058616D01*
X100719036Y-111209463D01*
X100712811Y-111216881D01*
X100591004Y-111394774D01*
X100586339Y-111403261D01*
X100501406Y-111601426D01*
X100498478Y-111610656D01*
X100453652Y-111821544D01*
X100452572Y-111831167D01*
X100449562Y-112046746D01*
X96819000Y-112046746D01*
X96819000Y-109506746D01*
X100449562Y-109506746D01*
X100450372Y-109516396D01*
X100489293Y-109728453D01*
X100491962Y-109737762D01*
X100571330Y-109938221D01*
X100575756Y-109946834D01*
X100692548Y-110128060D01*
X100698563Y-110135649D01*
X100848331Y-110290738D01*
X100855705Y-110297014D01*
X101032744Y-110420060D01*
X101041197Y-110424784D01*
X101238764Y-110511099D01*
X101247974Y-110514092D01*
X101458544Y-110560388D01*
X101468160Y-110561535D01*
X101683713Y-110566050D01*
X101693368Y-110565307D01*
X101905691Y-110527869D01*
X101915019Y-110525265D01*
X102116027Y-110447298D01*
X102124671Y-110442932D01*
X102306707Y-110327408D01*
X102314338Y-110321446D01*
X102470469Y-110172765D01*
X102476796Y-110165434D01*
X102601075Y-109989258D01*
X102605859Y-109980838D01*
X102640593Y-109902823D01*
X113599000Y-109902823D01*
X113599000Y-110097177D01*
X113602008Y-110114237D01*
X113668482Y-110296871D01*
X113677143Y-110311873D01*
X113802072Y-110460758D01*
X113815342Y-110471893D01*
X113983658Y-110569070D01*
X113999936Y-110574995D01*
X114191339Y-110608744D01*
X114208661Y-110608744D01*
X114400064Y-110574995D01*
X114416342Y-110569070D01*
X114584658Y-110471893D01*
X114597928Y-110460758D01*
X114722857Y-110311873D01*
X114731518Y-110296871D01*
X114797992Y-110114237D01*
X114801000Y-110097177D01*
X114801000Y-109902823D01*
X114797992Y-109885763D01*
X114731518Y-109703129D01*
X114722857Y-109688127D01*
X114701000Y-109662079D01*
X114701000Y-106207521D01*
X115207522Y-105701000D01*
X127869711Y-105701000D01*
X127868482Y-105703129D01*
X127802008Y-105885763D01*
X127799000Y-105902823D01*
X127799000Y-105991256D01*
X127791339Y-105991256D01*
X127599936Y-106025005D01*
X127583658Y-106030930D01*
X127415342Y-106128107D01*
X127402072Y-106139242D01*
X127277143Y-106288127D01*
X127268482Y-106303129D01*
X127202008Y-106485763D01*
X127201214Y-106490265D01*
X126892481Y-106798999D01*
X124566412Y-106798999D01*
X124531518Y-106703129D01*
X124522857Y-106688127D01*
X124397928Y-106539242D01*
X124384658Y-106528107D01*
X124216342Y-106430930D01*
X124200064Y-106425005D01*
X124008661Y-106391256D01*
X123991339Y-106391256D01*
X123799936Y-106425005D01*
X123783658Y-106430930D01*
X123615342Y-106528107D01*
X123602072Y-106539242D01*
X123477143Y-106688127D01*
X123468482Y-106703129D01*
X123402008Y-106885763D01*
X123399000Y-106902823D01*
X123399000Y-107097177D01*
X123402008Y-107114237D01*
X123468482Y-107296871D01*
X123477143Y-107311873D01*
X123602072Y-107460758D01*
X123615342Y-107471893D01*
X123783658Y-107569070D01*
X123799936Y-107574995D01*
X123880717Y-107589239D01*
X123890477Y-107598999D01*
X121307521Y-107598999D01*
X120398786Y-106690265D01*
X120397992Y-106685763D01*
X120331518Y-106503129D01*
X120322857Y-106488127D01*
X120197928Y-106339242D01*
X120184658Y-106328107D01*
X120016342Y-106230930D01*
X120000064Y-106225005D01*
X119808661Y-106191256D01*
X119791339Y-106191256D01*
X119599936Y-106225005D01*
X119583658Y-106230930D01*
X119415342Y-106328107D01*
X119402072Y-106339242D01*
X119277143Y-106488127D01*
X119268482Y-106503129D01*
X119202008Y-106685763D01*
X119199000Y-106702823D01*
X119199000Y-106897177D01*
X119202008Y-106914237D01*
X119268482Y-107096871D01*
X119277143Y-107111873D01*
X119402072Y-107260758D01*
X119415342Y-107271893D01*
X119583658Y-107369070D01*
X119599936Y-107374995D01*
X119680718Y-107389239D01*
X120050693Y-107759215D01*
X120004134Y-107749953D01*
X120004122Y-107749952D01*
X119959751Y-107741126D01*
X119940249Y-107741126D01*
X119900663Y-107749000D01*
X118999336Y-107749000D01*
X118959750Y-107741126D01*
X118940248Y-107741126D01*
X118895876Y-107749952D01*
X118895866Y-107749953D01*
X118764271Y-107776130D01*
X118746254Y-107783592D01*
X118597066Y-107883277D01*
X118583277Y-107897066D01*
X118560852Y-107930627D01*
X118192479Y-108299000D01*
X117434242Y-108299000D01*
X117316342Y-108230930D01*
X117300064Y-108225005D01*
X117108661Y-108191256D01*
X117091339Y-108191256D01*
X116899936Y-108225005D01*
X116883658Y-108230930D01*
X116715342Y-108328107D01*
X116702072Y-108339242D01*
X116577143Y-108488127D01*
X116568482Y-108503129D01*
X116502008Y-108685763D01*
X116499000Y-108702823D01*
X116499000Y-108897177D01*
X116502008Y-108914237D01*
X116568482Y-109096871D01*
X116577143Y-109111873D01*
X116702072Y-109260758D01*
X116715342Y-109271893D01*
X116883658Y-109369070D01*
X116899936Y-109374995D01*
X117091339Y-109408744D01*
X117108661Y-109408744D01*
X117300064Y-109374995D01*
X117316342Y-109369070D01*
X117434242Y-109301000D01*
X118350663Y-109301000D01*
X118390249Y-109308874D01*
X118409751Y-109308874D01*
X118454122Y-109300048D01*
X118454134Y-109300047D01*
X118585729Y-109273870D01*
X118603746Y-109266408D01*
X118752934Y-109166723D01*
X118766723Y-109152934D01*
X118789148Y-109119373D01*
X119157521Y-108751000D01*
X119742480Y-108751000D01*
X120110851Y-109119372D01*
X120133276Y-109152933D01*
X120147065Y-109166722D01*
X120184686Y-109191860D01*
X120184691Y-109191864D01*
X120237941Y-109227444D01*
X120296253Y-109266407D01*
X120314270Y-109273869D01*
X120445865Y-109300046D01*
X120445877Y-109300047D01*
X120490248Y-109308873D01*
X120509750Y-109308873D01*
X120549336Y-109300999D01*
X126490480Y-109300999D01*
X126092478Y-109699001D01*
X116507522Y-109699001D01*
X116098786Y-109290266D01*
X116097992Y-109285763D01*
X116031518Y-109103129D01*
X116022857Y-109088127D01*
X115897928Y-108939242D01*
X115884658Y-108928107D01*
X115716342Y-108830930D01*
X115700064Y-108825005D01*
X115508661Y-108791256D01*
X115491339Y-108791256D01*
X115299936Y-108825005D01*
X115283658Y-108830930D01*
X115115342Y-108928107D01*
X115102072Y-108939242D01*
X114977143Y-109088127D01*
X114968482Y-109103129D01*
X114902008Y-109285763D01*
X114899000Y-109302823D01*
X114899000Y-109497177D01*
X114902008Y-109514237D01*
X114968482Y-109696871D01*
X114977143Y-109711873D01*
X115102072Y-109860758D01*
X115115342Y-109871893D01*
X115283658Y-109969070D01*
X115299936Y-109974995D01*
X115380718Y-109989239D01*
X115910855Y-110519377D01*
X115933278Y-110552935D01*
X115947067Y-110566724D01*
X115984693Y-110591865D01*
X116049302Y-110635036D01*
X116096255Y-110666409D01*
X116114272Y-110673871D01*
X116245867Y-110700048D01*
X116245877Y-110700049D01*
X116290249Y-110708875D01*
X116309751Y-110708875D01*
X116349337Y-110701001D01*
X123636072Y-110701001D01*
X123499936Y-110725005D01*
X123483658Y-110730930D01*
X123315342Y-110828107D01*
X123302072Y-110839242D01*
X123177143Y-110988127D01*
X123168482Y-111003129D01*
X123102008Y-111185763D01*
X123099000Y-111202823D01*
X123099000Y-111397177D01*
X123102008Y-111414237D01*
X123168482Y-111596871D01*
X123177143Y-111611873D01*
X123302072Y-111760758D01*
X123315342Y-111771893D01*
X123483658Y-111869070D01*
X123499936Y-111874995D01*
X123691339Y-111908744D01*
X123708661Y-111908744D01*
X123752580Y-111901000D01*
X125647420Y-111901000D01*
X125691339Y-111908744D01*
X125708661Y-111908744D01*
X125900064Y-111874995D01*
X125916342Y-111869070D01*
X126084658Y-111771893D01*
X126097928Y-111760758D01*
X126222857Y-111611873D01*
X126231518Y-111596871D01*
X126297992Y-111414237D01*
X126301000Y-111397177D01*
X126301000Y-111202823D01*
X126297992Y-111185763D01*
X126231518Y-111003129D01*
X126222857Y-110988127D01*
X126097928Y-110839242D01*
X126084658Y-110828107D01*
X125916342Y-110730930D01*
X125900064Y-110725005D01*
X125763928Y-110701001D01*
X126250662Y-110701001D01*
X126290248Y-110708875D01*
X126309750Y-110708875D01*
X126354121Y-110700049D01*
X126354133Y-110700048D01*
X126485728Y-110673871D01*
X126503745Y-110666409D01*
X126652933Y-110566724D01*
X126666722Y-110552935D01*
X126689147Y-110519374D01*
X127701775Y-109506746D01*
X143629562Y-109506746D01*
X143630372Y-109516396D01*
X143669293Y-109728453D01*
X143671962Y-109737762D01*
X143751330Y-109938221D01*
X143755756Y-109946834D01*
X143872548Y-110128060D01*
X143878563Y-110135649D01*
X144028331Y-110290738D01*
X144035705Y-110297014D01*
X144212744Y-110420060D01*
X144221197Y-110424784D01*
X144418764Y-110511099D01*
X144427974Y-110514092D01*
X144638544Y-110560388D01*
X144648160Y-110561535D01*
X144863713Y-110566050D01*
X144873368Y-110565307D01*
X145085691Y-110527869D01*
X145095019Y-110525265D01*
X145296027Y-110447298D01*
X145304671Y-110442932D01*
X145486707Y-110327408D01*
X145494338Y-110321446D01*
X145650469Y-110172765D01*
X145656796Y-110165434D01*
X145781075Y-109989258D01*
X145785859Y-109980838D01*
X145873550Y-109783879D01*
X145876607Y-109774690D01*
X145924449Y-109564111D01*
X145925678Y-109553807D01*
X145929108Y-109308237D01*
X145928167Y-109297902D01*
X145886223Y-109086069D01*
X145883424Y-109076798D01*
X145801265Y-108877467D01*
X145796719Y-108868917D01*
X145677408Y-108689340D01*
X145671287Y-108681836D01*
X145519369Y-108528853D01*
X145511907Y-108522680D01*
X145333168Y-108402118D01*
X145324650Y-108397512D01*
X145125896Y-108313964D01*
X145116646Y-108311101D01*
X144905450Y-108267748D01*
X144895819Y-108266736D01*
X144680224Y-108265231D01*
X144670580Y-108266108D01*
X144458800Y-108306508D01*
X144449510Y-108309242D01*
X144249611Y-108390007D01*
X144241029Y-108394493D01*
X144060623Y-108512548D01*
X144053076Y-108518616D01*
X143899036Y-108669463D01*
X143892811Y-108676881D01*
X143771004Y-108854774D01*
X143766339Y-108863261D01*
X143681406Y-109061426D01*
X143678478Y-109070656D01*
X143633652Y-109281544D01*
X143632572Y-109291167D01*
X143629562Y-109506746D01*
X127701775Y-109506746D01*
X130419283Y-106789239D01*
X130500064Y-106774995D01*
X130516342Y-106769070D01*
X130684658Y-106671893D01*
X130697928Y-106660758D01*
X130822857Y-106511873D01*
X130831518Y-106496871D01*
X130850000Y-106446093D01*
X130868482Y-106496871D01*
X130877143Y-106511873D01*
X131002072Y-106660758D01*
X131015342Y-106671893D01*
X131183658Y-106769070D01*
X131199936Y-106774995D01*
X131391339Y-106808744D01*
X131408661Y-106808744D01*
X131600064Y-106774995D01*
X131616342Y-106769070D01*
X131784658Y-106671893D01*
X131797928Y-106660758D01*
X131922857Y-106511873D01*
X131931518Y-106496871D01*
X131997992Y-106314237D01*
X132001000Y-106297177D01*
X132001000Y-106102823D01*
X131997992Y-106085763D01*
X131974106Y-106020137D01*
X143627082Y-106020137D01*
X143627082Y-107729863D01*
X143628035Y-107739544D01*
X143646408Y-107831913D01*
X143653871Y-107849930D01*
X143708910Y-107932301D01*
X143722699Y-107946090D01*
X143805070Y-108001129D01*
X143823087Y-108008592D01*
X143915456Y-108026965D01*
X143925137Y-108027918D01*
X145634863Y-108027918D01*
X145644544Y-108026965D01*
X145736913Y-108008592D01*
X145754930Y-108001129D01*
X145837301Y-107946090D01*
X145851090Y-107932301D01*
X145906129Y-107849930D01*
X145913592Y-107831913D01*
X145931965Y-107739544D01*
X145932918Y-107729863D01*
X145932918Y-106020137D01*
X145931965Y-106010456D01*
X145913592Y-105918087D01*
X145906129Y-105900070D01*
X145851090Y-105817699D01*
X145837301Y-105803910D01*
X145754930Y-105748871D01*
X145736913Y-105741408D01*
X145644544Y-105723035D01*
X145634863Y-105722082D01*
X143925137Y-105722082D01*
X143915456Y-105723035D01*
X143823087Y-105741408D01*
X143805070Y-105748871D01*
X143722699Y-105803910D01*
X143708910Y-105817699D01*
X143653871Y-105900070D01*
X143646408Y-105918087D01*
X143628035Y-106010456D01*
X143627082Y-106020137D01*
X131974106Y-106020137D01*
X131931518Y-105903129D01*
X131922857Y-105888127D01*
X131901000Y-105862079D01*
X131901000Y-105549336D01*
X131908874Y-105509750D01*
X131908874Y-105490248D01*
X131900048Y-105445876D01*
X131900047Y-105445866D01*
X131873870Y-105314271D01*
X131866408Y-105296254D01*
X131835036Y-105249302D01*
X131791865Y-105184692D01*
X131791861Y-105184687D01*
X131766723Y-105147066D01*
X131752934Y-105133277D01*
X131719373Y-105110852D01*
X131489150Y-104880630D01*
X131466723Y-104847066D01*
X131452934Y-104833277D01*
X131303746Y-104733592D01*
X131285729Y-104726130D01*
X131154134Y-104699953D01*
X131154122Y-104699952D01*
X131109751Y-104691126D01*
X131090249Y-104691126D01*
X131050663Y-104699000D01*
X115049337Y-104699000D01*
X115009751Y-104691126D01*
X114990249Y-104691126D01*
X114945878Y-104699952D01*
X114945866Y-104699953D01*
X114817336Y-104725520D01*
X114804800Y-104729814D01*
X114728793Y-104767817D01*
X114731006Y-104777190D01*
X114684692Y-104808135D01*
X114684687Y-104808139D01*
X114647066Y-104833277D01*
X114633277Y-104847066D01*
X114610854Y-104880624D01*
X113880627Y-105610852D01*
X113847066Y-105633277D01*
X113833277Y-105647066D01*
X113733592Y-105796255D01*
X113726130Y-105814272D01*
X113699953Y-105945867D01*
X113699952Y-105945877D01*
X113691126Y-105990249D01*
X113691126Y-106009751D01*
X113699000Y-106049337D01*
X113699001Y-109662078D01*
X113677143Y-109688127D01*
X113668482Y-109703129D01*
X113602008Y-109885763D01*
X113599000Y-109902823D01*
X102640593Y-109902823D01*
X102693550Y-109783879D01*
X102696607Y-109774690D01*
X102744449Y-109564111D01*
X102745678Y-109553807D01*
X102749108Y-109308237D01*
X102748167Y-109297902D01*
X102706223Y-109086069D01*
X102703424Y-109076798D01*
X102621265Y-108877467D01*
X102616719Y-108868917D01*
X102497408Y-108689340D01*
X102491287Y-108681836D01*
X102339369Y-108528853D01*
X102331907Y-108522680D01*
X102153168Y-108402118D01*
X102144650Y-108397512D01*
X101945896Y-108313964D01*
X101936646Y-108311101D01*
X101725450Y-108267748D01*
X101715819Y-108266736D01*
X101500224Y-108265231D01*
X101490580Y-108266108D01*
X101278800Y-108306508D01*
X101269510Y-108309242D01*
X101069611Y-108390007D01*
X101061029Y-108394493D01*
X100880623Y-108512548D01*
X100873076Y-108518616D01*
X100719036Y-108669463D01*
X100712811Y-108676881D01*
X100591004Y-108854774D01*
X100586339Y-108863261D01*
X100501406Y-109061426D01*
X100498478Y-109070656D01*
X100453652Y-109281544D01*
X100452572Y-109291167D01*
X100449562Y-109506746D01*
X96819000Y-109506746D01*
X96819000Y-106966746D01*
X100449562Y-106966746D01*
X100450372Y-106976396D01*
X100489293Y-107188453D01*
X100491962Y-107197762D01*
X100571330Y-107398221D01*
X100575756Y-107406834D01*
X100692548Y-107588060D01*
X100698563Y-107595649D01*
X100848331Y-107750738D01*
X100855705Y-107757014D01*
X101032744Y-107880060D01*
X101041197Y-107884784D01*
X101238764Y-107971099D01*
X101247974Y-107974092D01*
X101458544Y-108020388D01*
X101468160Y-108021535D01*
X101683713Y-108026050D01*
X101693368Y-108025307D01*
X101905691Y-107987869D01*
X101915019Y-107985265D01*
X102116027Y-107907298D01*
X102124671Y-107902932D01*
X102306707Y-107787408D01*
X102314338Y-107781446D01*
X102470469Y-107632765D01*
X102476796Y-107625434D01*
X102601075Y-107449258D01*
X102605859Y-107440838D01*
X102693550Y-107243879D01*
X102696607Y-107234690D01*
X102744449Y-107024111D01*
X102745678Y-107013807D01*
X102749108Y-106768237D01*
X102748167Y-106757902D01*
X102706223Y-106546069D01*
X102703424Y-106536798D01*
X102621265Y-106337467D01*
X102616719Y-106328917D01*
X102497408Y-106149340D01*
X102491287Y-106141836D01*
X102339369Y-105988853D01*
X102331907Y-105982680D01*
X102153168Y-105862118D01*
X102144650Y-105857512D01*
X101945896Y-105773964D01*
X101936646Y-105771101D01*
X101725450Y-105727748D01*
X101715819Y-105726736D01*
X101500224Y-105725231D01*
X101490580Y-105726108D01*
X101278800Y-105766508D01*
X101269510Y-105769242D01*
X101069611Y-105850007D01*
X101061029Y-105854493D01*
X100880623Y-105972548D01*
X100873076Y-105978616D01*
X100719036Y-106129463D01*
X100712811Y-106136881D01*
X100591004Y-106314774D01*
X100586339Y-106323261D01*
X100501406Y-106521426D01*
X100498478Y-106530656D01*
X100453652Y-106741544D01*
X100452572Y-106751167D01*
X100449562Y-106966746D01*
X96819000Y-106966746D01*
X96819000Y-104634000D01*
X149561001Y-104634000D01*
X149561000Y-119276000D01*
%TA.AperFunction,Conductor*%
G36*
X149561000Y-119276000D02*
G01*
X96819000Y-119276000D01*
X96819000Y-117126746D01*
X100449562Y-117126746D01*
X100450372Y-117136396D01*
X100489293Y-117348453D01*
X100491962Y-117357762D01*
X100571330Y-117558221D01*
X100575756Y-117566834D01*
X100692548Y-117748060D01*
X100698563Y-117755649D01*
X100848331Y-117910738D01*
X100855705Y-117917014D01*
X101032744Y-118040060D01*
X101041197Y-118044784D01*
X101238764Y-118131099D01*
X101247974Y-118134092D01*
X101458544Y-118180388D01*
X101468160Y-118181535D01*
X101683713Y-118186050D01*
X101693368Y-118185307D01*
X101905691Y-118147869D01*
X101915019Y-118145265D01*
X102116027Y-118067298D01*
X102124671Y-118062932D01*
X102306707Y-117947408D01*
X102314338Y-117941446D01*
X102470469Y-117792765D01*
X102476796Y-117785434D01*
X102601075Y-117609258D01*
X102605859Y-117600838D01*
X102693550Y-117403879D01*
X102696607Y-117394690D01*
X102744449Y-117184111D01*
X102745678Y-117173807D01*
X102748871Y-116945137D01*
X120047082Y-116945137D01*
X120047082Y-118654863D01*
X120048035Y-118664544D01*
X120066408Y-118756913D01*
X120073871Y-118774930D01*
X120128910Y-118857301D01*
X120142699Y-118871090D01*
X120225070Y-118926129D01*
X120243087Y-118933592D01*
X120335456Y-118951965D01*
X120345137Y-118952918D01*
X122054863Y-118952918D01*
X122064544Y-118951965D01*
X122156913Y-118933592D01*
X122174930Y-118926129D01*
X122257301Y-118871090D01*
X122271090Y-118857301D01*
X122326129Y-118774930D01*
X122333592Y-118756913D01*
X122351965Y-118664544D01*
X122352918Y-118654863D01*
X122352918Y-117891746D01*
X125129562Y-117891746D01*
X125130372Y-117901396D01*
X125169293Y-118113453D01*
X125171962Y-118122762D01*
X125251330Y-118323221D01*
X125255756Y-118331834D01*
X125372548Y-118513060D01*
X125378563Y-118520649D01*
X125528331Y-118675738D01*
X125535705Y-118682014D01*
X125712744Y-118805060D01*
X125721197Y-118809784D01*
X125918764Y-118896099D01*
X125927974Y-118899092D01*
X126138544Y-118945388D01*
X126148160Y-118946535D01*
X126363713Y-118951050D01*
X126373368Y-118950307D01*
X126585691Y-118912869D01*
X126595019Y-118910265D01*
X126796027Y-118832298D01*
X126804671Y-118827932D01*
X126986707Y-118712408D01*
X126994338Y-118706446D01*
X127150469Y-118557765D01*
X127156796Y-118550434D01*
X127281075Y-118374258D01*
X127285859Y-118365838D01*
X127373550Y-118168879D01*
X127376607Y-118159690D01*
X127424449Y-117949111D01*
X127425678Y-117938807D01*
X127426335Y-117891746D01*
X127669562Y-117891746D01*
X127670372Y-117901396D01*
X127709293Y-118113453D01*
X127711962Y-118122762D01*
X127791330Y-118323221D01*
X127795756Y-118331834D01*
X127912548Y-118513060D01*
X127918563Y-118520649D01*
X128068331Y-118675738D01*
X128075705Y-118682014D01*
X128252744Y-118805060D01*
X128261197Y-118809784D01*
X128458764Y-118896099D01*
X128467974Y-118899092D01*
X128678544Y-118945388D01*
X128688160Y-118946535D01*
X128903713Y-118951050D01*
X128913368Y-118950307D01*
X129125691Y-118912869D01*
X129135019Y-118910265D01*
X129336027Y-118832298D01*
X129344671Y-118827932D01*
X129526707Y-118712408D01*
X129534338Y-118706446D01*
X129690469Y-118557765D01*
X129696796Y-118550434D01*
X129821075Y-118374258D01*
X129825859Y-118365838D01*
X129913550Y-118168879D01*
X129916607Y-118159690D01*
X129964449Y-117949111D01*
X129965678Y-117938807D01*
X129966335Y-117891746D01*
X130209562Y-117891746D01*
X130210372Y-117901396D01*
X130249293Y-118113453D01*
X130251962Y-118122762D01*
X130331330Y-118323221D01*
X130335756Y-118331834D01*
X130452548Y-118513060D01*
X130458563Y-118520649D01*
X130608331Y-118675738D01*
X130615705Y-118682014D01*
X130792744Y-118805060D01*
X130801197Y-118809784D01*
X130998764Y-118896099D01*
X131007974Y-118899092D01*
X131218544Y-118945388D01*
X131228160Y-118946535D01*
X131443713Y-118951050D01*
X131453368Y-118950307D01*
X131665691Y-118912869D01*
X131675019Y-118910265D01*
X131876027Y-118832298D01*
X131884671Y-118827932D01*
X132066707Y-118712408D01*
X132074338Y-118706446D01*
X132230469Y-118557765D01*
X132236796Y-118550434D01*
X132361075Y-118374258D01*
X132365859Y-118365838D01*
X132453550Y-118168879D01*
X132456607Y-118159690D01*
X132504449Y-117949111D01*
X132505678Y-117938807D01*
X132506335Y-117891746D01*
X135289562Y-117891746D01*
X135290372Y-117901396D01*
X135329293Y-118113453D01*
X135331962Y-118122762D01*
X135411330Y-118323221D01*
X135415756Y-118331834D01*
X135532548Y-118513060D01*
X135538563Y-118520649D01*
X135688331Y-118675738D01*
X135695705Y-118682014D01*
X135872744Y-118805060D01*
X135881197Y-118809784D01*
X136078764Y-118896099D01*
X136087974Y-118899092D01*
X136298544Y-118945388D01*
X136308160Y-118946535D01*
X136523713Y-118951050D01*
X136533368Y-118950307D01*
X136745691Y-118912869D01*
X136755019Y-118910265D01*
X136956027Y-118832298D01*
X136964671Y-118827932D01*
X137146707Y-118712408D01*
X137154338Y-118706446D01*
X137310469Y-118557765D01*
X137316796Y-118550434D01*
X137441075Y-118374258D01*
X137445859Y-118365838D01*
X137533550Y-118168879D01*
X137536607Y-118159690D01*
X137584449Y-117949111D01*
X137585678Y-117938807D01*
X137586335Y-117891746D01*
X137829562Y-117891746D01*
X137830372Y-117901396D01*
X137869293Y-118113453D01*
X137871962Y-118122762D01*
X137951330Y-118323221D01*
X137955756Y-118331834D01*
X138072548Y-118513060D01*
X138078563Y-118520649D01*
X138228331Y-118675738D01*
X138235705Y-118682014D01*
X138412744Y-118805060D01*
X138421197Y-118809784D01*
X138618764Y-118896099D01*
X138627974Y-118899092D01*
X138838544Y-118945388D01*
X138848160Y-118946535D01*
X139063713Y-118951050D01*
X139073368Y-118950307D01*
X139285691Y-118912869D01*
X139295019Y-118910265D01*
X139496027Y-118832298D01*
X139504671Y-118827932D01*
X139686707Y-118712408D01*
X139694338Y-118706446D01*
X139850469Y-118557765D01*
X139856796Y-118550434D01*
X139981075Y-118374258D01*
X139985859Y-118365838D01*
X140073550Y-118168879D01*
X140076607Y-118159690D01*
X140124449Y-117949111D01*
X140125678Y-117938807D01*
X140129108Y-117693237D01*
X140128167Y-117682902D01*
X140086223Y-117471069D01*
X140083424Y-117461798D01*
X140001265Y-117262467D01*
X139996719Y-117253917D01*
X139912227Y-117126746D01*
X143629562Y-117126746D01*
X143630372Y-117136396D01*
X143669293Y-117348453D01*
X143671962Y-117357762D01*
X143751330Y-117558221D01*
X143755756Y-117566834D01*
X143872548Y-117748060D01*
X143878563Y-117755649D01*
X144028331Y-117910738D01*
X144035705Y-117917014D01*
X144212744Y-118040060D01*
X144221197Y-118044784D01*
X144418764Y-118131099D01*
X144427974Y-118134092D01*
X144638544Y-118180388D01*
X144648160Y-118181535D01*
X144863713Y-118186050D01*
X144873368Y-118185307D01*
X145085691Y-118147869D01*
X145095019Y-118145265D01*
X145296027Y-118067298D01*
X145304671Y-118062932D01*
X145486707Y-117947408D01*
X145494338Y-117941446D01*
X145650469Y-117792765D01*
X145656796Y-117785434D01*
X145781075Y-117609258D01*
X145785859Y-117600838D01*
X145873550Y-117403879D01*
X145876607Y-117394690D01*
X145924449Y-117184111D01*
X145925678Y-117173807D01*
X145929108Y-116928237D01*
X145928167Y-116917902D01*
X145886223Y-116706069D01*
X145883424Y-116696798D01*
X145801265Y-116497467D01*
X145796719Y-116488917D01*
X145677408Y-116309340D01*
X145671287Y-116301836D01*
X145519369Y-116148853D01*
X145511907Y-116142680D01*
X145333168Y-116022118D01*
X145324650Y-116017512D01*
X145125896Y-115933964D01*
X145116646Y-115931101D01*
X144905450Y-115887748D01*
X144895819Y-115886736D01*
X144680224Y-115885231D01*
X144670580Y-115886108D01*
X144458800Y-115926508D01*
X144449510Y-115929242D01*
X144249611Y-116010007D01*
X144241029Y-116014493D01*
X144060623Y-116132548D01*
X144053076Y-116138616D01*
X143899036Y-116289463D01*
X143892811Y-116296881D01*
X143771004Y-116474774D01*
X143766339Y-116483261D01*
X143681406Y-116681426D01*
X143678478Y-116690656D01*
X143633652Y-116901544D01*
X143632572Y-116911167D01*
X143629562Y-117126746D01*
X139912227Y-117126746D01*
X139877408Y-117074340D01*
X139871287Y-117066836D01*
X139719369Y-116913853D01*
X139711907Y-116907680D01*
X139533168Y-116787118D01*
X139524650Y-116782512D01*
X139325896Y-116698964D01*
X139316646Y-116696101D01*
X139105450Y-116652748D01*
X139095819Y-116651736D01*
X138880224Y-116650231D01*
X138870580Y-116651108D01*
X138658800Y-116691508D01*
X138649510Y-116694242D01*
X138449611Y-116775007D01*
X138441029Y-116779493D01*
X138260623Y-116897548D01*
X138253076Y-116903616D01*
X138099036Y-117054463D01*
X138092811Y-117061881D01*
X137971004Y-117239774D01*
X137966339Y-117248261D01*
X137881406Y-117446426D01*
X137878478Y-117455656D01*
X137833652Y-117666544D01*
X137832572Y-117676167D01*
X137829562Y-117891746D01*
X137586335Y-117891746D01*
X137589108Y-117693237D01*
X137588167Y-117682902D01*
X137546223Y-117471069D01*
X137543424Y-117461798D01*
X137461265Y-117262467D01*
X137456719Y-117253917D01*
X137337408Y-117074340D01*
X137331287Y-117066836D01*
X137179369Y-116913853D01*
X137171907Y-116907680D01*
X136993168Y-116787118D01*
X136984650Y-116782512D01*
X136785896Y-116698964D01*
X136776646Y-116696101D01*
X136565450Y-116652748D01*
X136555819Y-116651736D01*
X136340224Y-116650231D01*
X136330580Y-116651108D01*
X136118800Y-116691508D01*
X136109510Y-116694242D01*
X135909611Y-116775007D01*
X135901029Y-116779493D01*
X135720623Y-116897548D01*
X135713076Y-116903616D01*
X135559036Y-117054463D01*
X135552811Y-117061881D01*
X135431004Y-117239774D01*
X135426339Y-117248261D01*
X135341406Y-117446426D01*
X135338478Y-117455656D01*
X135293652Y-117666544D01*
X135292572Y-117676167D01*
X135289562Y-117891746D01*
X132506335Y-117891746D01*
X132509108Y-117693237D01*
X132508167Y-117682902D01*
X132466223Y-117471069D01*
X132463424Y-117461798D01*
X132381265Y-117262467D01*
X132376719Y-117253917D01*
X132257408Y-117074340D01*
X132251287Y-117066836D01*
X132099369Y-116913853D01*
X132091907Y-116907680D01*
X131913168Y-116787118D01*
X131904650Y-116782512D01*
X131705896Y-116698964D01*
X131696646Y-116696101D01*
X131485450Y-116652748D01*
X131475819Y-116651736D01*
X131260224Y-116650231D01*
X131250580Y-116651108D01*
X131038800Y-116691508D01*
X131029510Y-116694242D01*
X130829611Y-116775007D01*
X130821029Y-116779493D01*
X130640623Y-116897548D01*
X130633076Y-116903616D01*
X130479036Y-117054463D01*
X130472811Y-117061881D01*
X130351004Y-117239774D01*
X130346339Y-117248261D01*
X130261406Y-117446426D01*
X130258478Y-117455656D01*
X130213652Y-117666544D01*
X130212572Y-117676167D01*
X130209562Y-117891746D01*
X129966335Y-117891746D01*
X129969108Y-117693237D01*
X129968167Y-117682902D01*
X129926223Y-117471069D01*
X129923424Y-117461798D01*
X129841265Y-117262467D01*
X129836719Y-117253917D01*
X129717408Y-117074340D01*
X129711287Y-117066836D01*
X129559369Y-116913853D01*
X129551907Y-116907680D01*
X129373168Y-116787118D01*
X129364650Y-116782512D01*
X129165896Y-116698964D01*
X129156646Y-116696101D01*
X128945450Y-116652748D01*
X128935819Y-116651736D01*
X128720224Y-116650231D01*
X128710580Y-116651108D01*
X128498800Y-116691508D01*
X128489510Y-116694242D01*
X128289611Y-116775007D01*
X128281029Y-116779493D01*
X128100623Y-116897548D01*
X128093076Y-116903616D01*
X127939036Y-117054463D01*
X127932811Y-117061881D01*
X127811004Y-117239774D01*
X127806339Y-117248261D01*
X127721406Y-117446426D01*
X127718478Y-117455656D01*
X127673652Y-117666544D01*
X127672572Y-117676167D01*
X127669562Y-117891746D01*
X127426335Y-117891746D01*
X127429108Y-117693237D01*
X127428167Y-117682902D01*
X127386223Y-117471069D01*
X127383424Y-117461798D01*
X127301265Y-117262467D01*
X127296719Y-117253917D01*
X127177408Y-117074340D01*
X127171287Y-117066836D01*
X127019369Y-116913853D01*
X127011907Y-116907680D01*
X126833168Y-116787118D01*
X126824650Y-116782512D01*
X126625896Y-116698964D01*
X126616646Y-116696101D01*
X126405450Y-116652748D01*
X126395819Y-116651736D01*
X126180224Y-116650231D01*
X126170580Y-116651108D01*
X125958800Y-116691508D01*
X125949510Y-116694242D01*
X125749611Y-116775007D01*
X125741029Y-116779493D01*
X125560623Y-116897548D01*
X125553076Y-116903616D01*
X125399036Y-117054463D01*
X125392811Y-117061881D01*
X125271004Y-117239774D01*
X125266339Y-117248261D01*
X125181406Y-117446426D01*
X125178478Y-117455656D01*
X125133652Y-117666544D01*
X125132572Y-117676167D01*
X125129562Y-117891746D01*
X122352918Y-117891746D01*
X122352918Y-116945137D01*
X122351965Y-116935456D01*
X122333592Y-116843087D01*
X122326129Y-116825070D01*
X122271090Y-116742699D01*
X122257301Y-116728910D01*
X122174930Y-116673871D01*
X122156913Y-116666408D01*
X122064544Y-116648035D01*
X122054863Y-116647082D01*
X120345137Y-116647082D01*
X120335456Y-116648035D01*
X120243087Y-116666408D01*
X120225070Y-116673871D01*
X120142699Y-116728910D01*
X120128910Y-116742699D01*
X120073871Y-116825070D01*
X120066408Y-116843087D01*
X120048035Y-116935456D01*
X120047082Y-116945137D01*
X102748871Y-116945137D01*
X102749108Y-116928237D01*
X102748167Y-116917902D01*
X102706223Y-116706069D01*
X102703424Y-116696798D01*
X102621265Y-116497467D01*
X102616719Y-116488917D01*
X102497408Y-116309340D01*
X102491287Y-116301836D01*
X102339369Y-116148853D01*
X102331907Y-116142680D01*
X102153168Y-116022118D01*
X102144650Y-116017512D01*
X101945896Y-115933964D01*
X101936646Y-115931101D01*
X101725450Y-115887748D01*
X101715819Y-115886736D01*
X101500224Y-115885231D01*
X101490580Y-115886108D01*
X101278800Y-115926508D01*
X101269510Y-115929242D01*
X101069611Y-116010007D01*
X101061029Y-116014493D01*
X100880623Y-116132548D01*
X100873076Y-116138616D01*
X100719036Y-116289463D01*
X100712811Y-116296881D01*
X100591004Y-116474774D01*
X100586339Y-116483261D01*
X100501406Y-116681426D01*
X100498478Y-116690656D01*
X100453652Y-116901544D01*
X100452572Y-116911167D01*
X100449562Y-117126746D01*
X96819000Y-117126746D01*
X96819000Y-114586746D01*
X100449562Y-114586746D01*
X100450372Y-114596396D01*
X100489293Y-114808453D01*
X100491962Y-114817762D01*
X100571330Y-115018221D01*
X100575756Y-115026834D01*
X100692548Y-115208060D01*
X100698563Y-115215649D01*
X100848331Y-115370738D01*
X100855705Y-115377014D01*
X101032744Y-115500060D01*
X101041197Y-115504784D01*
X101238764Y-115591099D01*
X101247974Y-115594092D01*
X101458544Y-115640388D01*
X101468160Y-115641535D01*
X101683713Y-115646050D01*
X101693368Y-115645307D01*
X101905691Y-115607869D01*
X101915019Y-115605265D01*
X102116027Y-115527298D01*
X102124671Y-115522932D01*
X102306707Y-115407408D01*
X102314338Y-115401446D01*
X102470469Y-115252765D01*
X102476796Y-115245434D01*
X102601075Y-115069258D01*
X102605859Y-115060838D01*
X102693550Y-114863879D01*
X102696607Y-114854690D01*
X102744449Y-114644111D01*
X102745678Y-114633807D01*
X102746335Y-114586746D01*
X143629562Y-114586746D01*
X143630372Y-114596396D01*
X143669293Y-114808453D01*
X143671962Y-114817762D01*
X143751330Y-115018221D01*
X143755756Y-115026834D01*
X143872548Y-115208060D01*
X143878563Y-115215649D01*
X144028331Y-115370738D01*
X144035705Y-115377014D01*
X144212744Y-115500060D01*
X144221197Y-115504784D01*
X144418764Y-115591099D01*
X144427974Y-115594092D01*
X144638544Y-115640388D01*
X144648160Y-115641535D01*
X144863713Y-115646050D01*
X144873368Y-115645307D01*
X145085691Y-115607869D01*
X145095019Y-115605265D01*
X145296027Y-115527298D01*
X145304671Y-115522932D01*
X145486707Y-115407408D01*
X145494338Y-115401446D01*
X145650469Y-115252765D01*
X145656796Y-115245434D01*
X145781075Y-115069258D01*
X145785859Y-115060838D01*
X145873550Y-114863879D01*
X145876607Y-114854690D01*
X145924449Y-114644111D01*
X145925678Y-114633807D01*
X145929108Y-114388237D01*
X145928167Y-114377902D01*
X145886223Y-114166069D01*
X145883424Y-114156798D01*
X145801265Y-113957467D01*
X145796719Y-113948917D01*
X145677408Y-113769340D01*
X145671287Y-113761836D01*
X145519369Y-113608853D01*
X145511907Y-113602680D01*
X145333168Y-113482118D01*
X145324650Y-113477512D01*
X145125896Y-113393964D01*
X145116646Y-113391101D01*
X144905450Y-113347748D01*
X144895819Y-113346736D01*
X144680224Y-113345231D01*
X144670580Y-113346108D01*
X144458800Y-113386508D01*
X144449510Y-113389242D01*
X144249611Y-113470007D01*
X144241029Y-113474493D01*
X144060623Y-113592548D01*
X144053076Y-113598616D01*
X143899036Y-113749463D01*
X143892811Y-113756881D01*
X143771004Y-113934774D01*
X143766339Y-113943261D01*
X143681406Y-114141426D01*
X143678478Y-114150656D01*
X143633652Y-114361544D01*
X143632572Y-114371167D01*
X143629562Y-114586746D01*
X102746335Y-114586746D01*
X102749108Y-114388237D01*
X102748167Y-114377902D01*
X102706223Y-114166069D01*
X102703424Y-114156798D01*
X102621265Y-113957467D01*
X102616719Y-113948917D01*
X102497408Y-113769340D01*
X102491287Y-113761836D01*
X102339369Y-113608853D01*
X102331907Y-113602680D01*
X102153168Y-113482118D01*
X102144650Y-113477512D01*
X101945896Y-113393964D01*
X101936646Y-113391101D01*
X101725450Y-113347748D01*
X101715819Y-113346736D01*
X101500224Y-113345231D01*
X101490580Y-113346108D01*
X101278800Y-113386508D01*
X101269510Y-113389242D01*
X101069611Y-113470007D01*
X101061029Y-113474493D01*
X100880623Y-113592548D01*
X100873076Y-113598616D01*
X100719036Y-113749463D01*
X100712811Y-113756881D01*
X100591004Y-113934774D01*
X100586339Y-113943261D01*
X100501406Y-114141426D01*
X100498478Y-114150656D01*
X100453652Y-114361544D01*
X100452572Y-114371167D01*
X100449562Y-114586746D01*
X96819000Y-114586746D01*
X96819000Y-113202823D01*
X123599000Y-113202823D01*
X123599000Y-113397177D01*
X123602008Y-113414237D01*
X123668482Y-113596871D01*
X123677143Y-113611873D01*
X123802072Y-113760758D01*
X123815342Y-113771893D01*
X123983658Y-113869070D01*
X123999936Y-113874995D01*
X124191339Y-113908744D01*
X124206290Y-113908744D01*
X124469104Y-114171559D01*
X124487348Y-114198863D01*
X124501137Y-114212653D01*
X124625517Y-114295760D01*
X124643534Y-114303223D01*
X124748481Y-114324098D01*
X124790249Y-114332406D01*
X124809750Y-114332406D01*
X124841956Y-114326000D01*
X126858043Y-114326000D01*
X126890249Y-114332406D01*
X126909751Y-114332406D01*
X126951519Y-114324098D01*
X127056466Y-114303222D01*
X127074483Y-114295760D01*
X127198863Y-114212652D01*
X127212653Y-114198862D01*
X127230896Y-114171559D01*
X127993712Y-113408744D01*
X128008662Y-113408744D01*
X128200064Y-113374995D01*
X128216342Y-113369070D01*
X128384658Y-113271893D01*
X128397928Y-113260758D01*
X128522857Y-113111873D01*
X128531518Y-113096871D01*
X128597992Y-112914237D01*
X128601000Y-112897177D01*
X128601000Y-112702823D01*
X128597992Y-112685763D01*
X128531518Y-112503129D01*
X128522857Y-112488127D01*
X128397928Y-112339242D01*
X128384658Y-112328107D01*
X128216342Y-112230930D01*
X128200064Y-112225005D01*
X128008661Y-112191256D01*
X127991339Y-112191256D01*
X127799936Y-112225005D01*
X127783658Y-112230930D01*
X127615342Y-112328107D01*
X127602072Y-112339242D01*
X127477143Y-112488127D01*
X127468482Y-112503129D01*
X127402008Y-112685763D01*
X127399000Y-112702823D01*
X127399000Y-112798544D01*
X126723545Y-113474000D01*
X124976455Y-113474000D01*
X124801000Y-113298546D01*
X124801000Y-113202823D01*
X124797992Y-113185763D01*
X124731518Y-113003129D01*
X124722857Y-112988127D01*
X124597928Y-112839242D01*
X124584658Y-112828107D01*
X124416342Y-112730930D01*
X124400064Y-112725005D01*
X124208661Y-112691256D01*
X124191339Y-112691256D01*
X123999936Y-112725005D01*
X123983658Y-112730930D01*
X123815342Y-112828107D01*
X123802072Y-112839242D01*
X123677143Y-112988127D01*
X123668482Y-113003129D01*
X123602008Y-113185763D01*
X123599000Y-113202823D01*
X96819000Y-113202823D01*
X96819000Y-112046746D01*
X100449562Y-112046746D01*
X100450372Y-112056396D01*
X100489293Y-112268453D01*
X100491962Y-112277762D01*
X100571330Y-112478221D01*
X100575756Y-112486834D01*
X100692548Y-112668060D01*
X100698563Y-112675649D01*
X100848331Y-112830738D01*
X100855705Y-112837014D01*
X101032744Y-112960060D01*
X101041197Y-112964784D01*
X101238764Y-113051099D01*
X101247974Y-113054092D01*
X101458544Y-113100388D01*
X101468160Y-113101535D01*
X101683713Y-113106050D01*
X101693368Y-113105307D01*
X101905691Y-113067869D01*
X101915019Y-113065265D01*
X102116027Y-112987298D01*
X102124671Y-112982932D01*
X102306707Y-112867408D01*
X102314338Y-112861446D01*
X102470469Y-112712765D01*
X102476796Y-112705434D01*
X102601075Y-112529258D01*
X102605859Y-112520838D01*
X102693550Y-112323879D01*
X102696607Y-112314690D01*
X102744449Y-112104111D01*
X102745678Y-112093807D01*
X102746335Y-112046746D01*
X143629562Y-112046746D01*
X143630372Y-112056396D01*
X143669293Y-112268453D01*
X143671962Y-112277762D01*
X143751330Y-112478221D01*
X143755756Y-112486834D01*
X143872548Y-112668060D01*
X143878563Y-112675649D01*
X144028331Y-112830738D01*
X144035705Y-112837014D01*
X144212744Y-112960060D01*
X144221197Y-112964784D01*
X144418764Y-113051099D01*
X144427974Y-113054092D01*
X144638544Y-113100388D01*
X144648160Y-113101535D01*
X144863713Y-113106050D01*
X144873368Y-113105307D01*
X145085691Y-113067869D01*
X145095019Y-113065265D01*
X145296027Y-112987298D01*
X145304671Y-112982932D01*
X145486707Y-112867408D01*
X145494338Y-112861446D01*
X145650469Y-112712765D01*
X145656796Y-112705434D01*
X145781075Y-112529258D01*
X145785859Y-112520838D01*
X145873550Y-112323879D01*
X145876607Y-112314690D01*
X145924449Y-112104111D01*
X145925678Y-112093807D01*
X145929108Y-111848237D01*
X145928167Y-111837902D01*
X145886223Y-111626069D01*
X145883424Y-111616798D01*
X145801265Y-111417467D01*
X145796719Y-111408917D01*
X145677408Y-111229340D01*
X145671287Y-111221836D01*
X145519369Y-111068853D01*
X145511907Y-111062680D01*
X145333168Y-110942118D01*
X145324650Y-110937512D01*
X145125896Y-110853964D01*
X145116646Y-110851101D01*
X144905450Y-110807748D01*
X144895819Y-110806736D01*
X144680224Y-110805231D01*
X144670580Y-110806108D01*
X144458800Y-110846508D01*
X144449510Y-110849242D01*
X144249611Y-110930007D01*
X144241029Y-110934493D01*
X144060623Y-111052548D01*
X144053076Y-111058616D01*
X143899036Y-111209463D01*
X143892811Y-111216881D01*
X143771004Y-111394774D01*
X143766339Y-111403261D01*
X143681406Y-111601426D01*
X143678478Y-111610656D01*
X143633652Y-111821544D01*
X143632572Y-111831167D01*
X143629562Y-112046746D01*
X102746335Y-112046746D01*
X102749108Y-111848237D01*
X102748167Y-111837902D01*
X102706223Y-111626069D01*
X102703424Y-111616798D01*
X102621265Y-111417467D01*
X102616719Y-111408917D01*
X102497408Y-111229340D01*
X102491287Y-111221836D01*
X102339369Y-111068853D01*
X102331907Y-111062680D01*
X102153168Y-110942118D01*
X102144650Y-110937512D01*
X101945896Y-110853964D01*
X101936646Y-110851101D01*
X101725450Y-110807748D01*
X101715819Y-110806736D01*
X101500224Y-110805231D01*
X101490580Y-110806108D01*
X101278800Y-110846508D01*
X101269510Y-110849242D01*
X101069611Y-110930007D01*
X101061029Y-110934493D01*
X100880623Y-111052548D01*
X100873076Y-111058616D01*
X100719036Y-111209463D01*
X100712811Y-111216881D01*
X100591004Y-111394774D01*
X100586339Y-111403261D01*
X100501406Y-111601426D01*
X100498478Y-111610656D01*
X100453652Y-111821544D01*
X100452572Y-111831167D01*
X100449562Y-112046746D01*
X96819000Y-112046746D01*
X96819000Y-109506746D01*
X100449562Y-109506746D01*
X100450372Y-109516396D01*
X100489293Y-109728453D01*
X100491962Y-109737762D01*
X100571330Y-109938221D01*
X100575756Y-109946834D01*
X100692548Y-110128060D01*
X100698563Y-110135649D01*
X100848331Y-110290738D01*
X100855705Y-110297014D01*
X101032744Y-110420060D01*
X101041197Y-110424784D01*
X101238764Y-110511099D01*
X101247974Y-110514092D01*
X101458544Y-110560388D01*
X101468160Y-110561535D01*
X101683713Y-110566050D01*
X101693368Y-110565307D01*
X101905691Y-110527869D01*
X101915019Y-110525265D01*
X102116027Y-110447298D01*
X102124671Y-110442932D01*
X102306707Y-110327408D01*
X102314338Y-110321446D01*
X102470469Y-110172765D01*
X102476796Y-110165434D01*
X102601075Y-109989258D01*
X102605859Y-109980838D01*
X102640593Y-109902823D01*
X113599000Y-109902823D01*
X113599000Y-110097177D01*
X113602008Y-110114237D01*
X113668482Y-110296871D01*
X113677143Y-110311873D01*
X113802072Y-110460758D01*
X113815342Y-110471893D01*
X113983658Y-110569070D01*
X113999936Y-110574995D01*
X114191339Y-110608744D01*
X114208661Y-110608744D01*
X114400064Y-110574995D01*
X114416342Y-110569070D01*
X114584658Y-110471893D01*
X114597928Y-110460758D01*
X114722857Y-110311873D01*
X114731518Y-110296871D01*
X114797992Y-110114237D01*
X114801000Y-110097177D01*
X114801000Y-109902823D01*
X114797992Y-109885763D01*
X114731518Y-109703129D01*
X114722857Y-109688127D01*
X114701000Y-109662079D01*
X114701000Y-106207521D01*
X115207522Y-105701000D01*
X127869711Y-105701000D01*
X127868482Y-105703129D01*
X127802008Y-105885763D01*
X127799000Y-105902823D01*
X127799000Y-105991256D01*
X127791339Y-105991256D01*
X127599936Y-106025005D01*
X127583658Y-106030930D01*
X127415342Y-106128107D01*
X127402072Y-106139242D01*
X127277143Y-106288127D01*
X127268482Y-106303129D01*
X127202008Y-106485763D01*
X127201214Y-106490265D01*
X126892481Y-106798999D01*
X124566412Y-106798999D01*
X124531518Y-106703129D01*
X124522857Y-106688127D01*
X124397928Y-106539242D01*
X124384658Y-106528107D01*
X124216342Y-106430930D01*
X124200064Y-106425005D01*
X124008661Y-106391256D01*
X123991339Y-106391256D01*
X123799936Y-106425005D01*
X123783658Y-106430930D01*
X123615342Y-106528107D01*
X123602072Y-106539242D01*
X123477143Y-106688127D01*
X123468482Y-106703129D01*
X123402008Y-106885763D01*
X123399000Y-106902823D01*
X123399000Y-107097177D01*
X123402008Y-107114237D01*
X123468482Y-107296871D01*
X123477143Y-107311873D01*
X123602072Y-107460758D01*
X123615342Y-107471893D01*
X123783658Y-107569070D01*
X123799936Y-107574995D01*
X123880717Y-107589239D01*
X123890477Y-107598999D01*
X121307521Y-107598999D01*
X120398786Y-106690265D01*
X120397992Y-106685763D01*
X120331518Y-106503129D01*
X120322857Y-106488127D01*
X120197928Y-106339242D01*
X120184658Y-106328107D01*
X120016342Y-106230930D01*
X120000064Y-106225005D01*
X119808661Y-106191256D01*
X119791339Y-106191256D01*
X119599936Y-106225005D01*
X119583658Y-106230930D01*
X119415342Y-106328107D01*
X119402072Y-106339242D01*
X119277143Y-106488127D01*
X119268482Y-106503129D01*
X119202008Y-106685763D01*
X119199000Y-106702823D01*
X119199000Y-106897177D01*
X119202008Y-106914237D01*
X119268482Y-107096871D01*
X119277143Y-107111873D01*
X119402072Y-107260758D01*
X119415342Y-107271893D01*
X119583658Y-107369070D01*
X119599936Y-107374995D01*
X119680718Y-107389239D01*
X120050693Y-107759215D01*
X120004134Y-107749953D01*
X120004122Y-107749952D01*
X119959751Y-107741126D01*
X119940249Y-107741126D01*
X119900663Y-107749000D01*
X118999336Y-107749000D01*
X118959750Y-107741126D01*
X118940248Y-107741126D01*
X118895876Y-107749952D01*
X118895866Y-107749953D01*
X118764271Y-107776130D01*
X118746254Y-107783592D01*
X118597066Y-107883277D01*
X118583277Y-107897066D01*
X118560852Y-107930627D01*
X118192479Y-108299000D01*
X117434242Y-108299000D01*
X117316342Y-108230930D01*
X117300064Y-108225005D01*
X117108661Y-108191256D01*
X117091339Y-108191256D01*
X116899936Y-108225005D01*
X116883658Y-108230930D01*
X116715342Y-108328107D01*
X116702072Y-108339242D01*
X116577143Y-108488127D01*
X116568482Y-108503129D01*
X116502008Y-108685763D01*
X116499000Y-108702823D01*
X116499000Y-108897177D01*
X116502008Y-108914237D01*
X116568482Y-109096871D01*
X116577143Y-109111873D01*
X116702072Y-109260758D01*
X116715342Y-109271893D01*
X116883658Y-109369070D01*
X116899936Y-109374995D01*
X117091339Y-109408744D01*
X117108661Y-109408744D01*
X117300064Y-109374995D01*
X117316342Y-109369070D01*
X117434242Y-109301000D01*
X118350663Y-109301000D01*
X118390249Y-109308874D01*
X118409751Y-109308874D01*
X118454122Y-109300048D01*
X118454134Y-109300047D01*
X118585729Y-109273870D01*
X118603746Y-109266408D01*
X118752934Y-109166723D01*
X118766723Y-109152934D01*
X118789148Y-109119373D01*
X119157521Y-108751000D01*
X119742480Y-108751000D01*
X120110851Y-109119372D01*
X120133276Y-109152933D01*
X120147065Y-109166722D01*
X120184686Y-109191860D01*
X120184691Y-109191864D01*
X120237941Y-109227444D01*
X120296253Y-109266407D01*
X120314270Y-109273869D01*
X120445865Y-109300046D01*
X120445877Y-109300047D01*
X120490248Y-109308873D01*
X120509750Y-109308873D01*
X120549336Y-109300999D01*
X126490480Y-109300999D01*
X126092478Y-109699001D01*
X116507522Y-109699001D01*
X116098786Y-109290266D01*
X116097992Y-109285763D01*
X116031518Y-109103129D01*
X116022857Y-109088127D01*
X115897928Y-108939242D01*
X115884658Y-108928107D01*
X115716342Y-108830930D01*
X115700064Y-108825005D01*
X115508661Y-108791256D01*
X115491339Y-108791256D01*
X115299936Y-108825005D01*
X115283658Y-108830930D01*
X115115342Y-108928107D01*
X115102072Y-108939242D01*
X114977143Y-109088127D01*
X114968482Y-109103129D01*
X114902008Y-109285763D01*
X114899000Y-109302823D01*
X114899000Y-109497177D01*
X114902008Y-109514237D01*
X114968482Y-109696871D01*
X114977143Y-109711873D01*
X115102072Y-109860758D01*
X115115342Y-109871893D01*
X115283658Y-109969070D01*
X115299936Y-109974995D01*
X115380718Y-109989239D01*
X115910855Y-110519377D01*
X115933278Y-110552935D01*
X115947067Y-110566724D01*
X115984693Y-110591865D01*
X116049302Y-110635036D01*
X116096255Y-110666409D01*
X116114272Y-110673871D01*
X116245867Y-110700048D01*
X116245877Y-110700049D01*
X116290249Y-110708875D01*
X116309751Y-110708875D01*
X116349337Y-110701001D01*
X123636072Y-110701001D01*
X123499936Y-110725005D01*
X123483658Y-110730930D01*
X123315342Y-110828107D01*
X123302072Y-110839242D01*
X123177143Y-110988127D01*
X123168482Y-111003129D01*
X123102008Y-111185763D01*
X123099000Y-111202823D01*
X123099000Y-111397177D01*
X123102008Y-111414237D01*
X123168482Y-111596871D01*
X123177143Y-111611873D01*
X123302072Y-111760758D01*
X123315342Y-111771893D01*
X123483658Y-111869070D01*
X123499936Y-111874995D01*
X123691339Y-111908744D01*
X123708661Y-111908744D01*
X123752580Y-111901000D01*
X125647420Y-111901000D01*
X125691339Y-111908744D01*
X125708661Y-111908744D01*
X125900064Y-111874995D01*
X125916342Y-111869070D01*
X126084658Y-111771893D01*
X126097928Y-111760758D01*
X126222857Y-111611873D01*
X126231518Y-111596871D01*
X126297992Y-111414237D01*
X126301000Y-111397177D01*
X126301000Y-111202823D01*
X126297992Y-111185763D01*
X126231518Y-111003129D01*
X126222857Y-110988127D01*
X126097928Y-110839242D01*
X126084658Y-110828107D01*
X125916342Y-110730930D01*
X125900064Y-110725005D01*
X125763928Y-110701001D01*
X126250662Y-110701001D01*
X126290248Y-110708875D01*
X126309750Y-110708875D01*
X126354121Y-110700049D01*
X126354133Y-110700048D01*
X126485728Y-110673871D01*
X126503745Y-110666409D01*
X126652933Y-110566724D01*
X126666722Y-110552935D01*
X126689147Y-110519374D01*
X127701775Y-109506746D01*
X143629562Y-109506746D01*
X143630372Y-109516396D01*
X143669293Y-109728453D01*
X143671962Y-109737762D01*
X143751330Y-109938221D01*
X143755756Y-109946834D01*
X143872548Y-110128060D01*
X143878563Y-110135649D01*
X144028331Y-110290738D01*
X144035705Y-110297014D01*
X144212744Y-110420060D01*
X144221197Y-110424784D01*
X144418764Y-110511099D01*
X144427974Y-110514092D01*
X144638544Y-110560388D01*
X144648160Y-110561535D01*
X144863713Y-110566050D01*
X144873368Y-110565307D01*
X145085691Y-110527869D01*
X145095019Y-110525265D01*
X145296027Y-110447298D01*
X145304671Y-110442932D01*
X145486707Y-110327408D01*
X145494338Y-110321446D01*
X145650469Y-110172765D01*
X145656796Y-110165434D01*
X145781075Y-109989258D01*
X145785859Y-109980838D01*
X145873550Y-109783879D01*
X145876607Y-109774690D01*
X145924449Y-109564111D01*
X145925678Y-109553807D01*
X145929108Y-109308237D01*
X145928167Y-109297902D01*
X145886223Y-109086069D01*
X145883424Y-109076798D01*
X145801265Y-108877467D01*
X145796719Y-108868917D01*
X145677408Y-108689340D01*
X145671287Y-108681836D01*
X145519369Y-108528853D01*
X145511907Y-108522680D01*
X145333168Y-108402118D01*
X145324650Y-108397512D01*
X145125896Y-108313964D01*
X145116646Y-108311101D01*
X144905450Y-108267748D01*
X144895819Y-108266736D01*
X144680224Y-108265231D01*
X144670580Y-108266108D01*
X144458800Y-108306508D01*
X144449510Y-108309242D01*
X144249611Y-108390007D01*
X144241029Y-108394493D01*
X144060623Y-108512548D01*
X144053076Y-108518616D01*
X143899036Y-108669463D01*
X143892811Y-108676881D01*
X143771004Y-108854774D01*
X143766339Y-108863261D01*
X143681406Y-109061426D01*
X143678478Y-109070656D01*
X143633652Y-109281544D01*
X143632572Y-109291167D01*
X143629562Y-109506746D01*
X127701775Y-109506746D01*
X130419283Y-106789239D01*
X130500064Y-106774995D01*
X130516342Y-106769070D01*
X130684658Y-106671893D01*
X130697928Y-106660758D01*
X130822857Y-106511873D01*
X130831518Y-106496871D01*
X130850000Y-106446093D01*
X130868482Y-106496871D01*
X130877143Y-106511873D01*
X131002072Y-106660758D01*
X131015342Y-106671893D01*
X131183658Y-106769070D01*
X131199936Y-106774995D01*
X131391339Y-106808744D01*
X131408661Y-106808744D01*
X131600064Y-106774995D01*
X131616342Y-106769070D01*
X131784658Y-106671893D01*
X131797928Y-106660758D01*
X131922857Y-106511873D01*
X131931518Y-106496871D01*
X131997992Y-106314237D01*
X132001000Y-106297177D01*
X132001000Y-106102823D01*
X131997992Y-106085763D01*
X131974106Y-106020137D01*
X143627082Y-106020137D01*
X143627082Y-107729863D01*
X143628035Y-107739544D01*
X143646408Y-107831913D01*
X143653871Y-107849930D01*
X143708910Y-107932301D01*
X143722699Y-107946090D01*
X143805070Y-108001129D01*
X143823087Y-108008592D01*
X143915456Y-108026965D01*
X143925137Y-108027918D01*
X145634863Y-108027918D01*
X145644544Y-108026965D01*
X145736913Y-108008592D01*
X145754930Y-108001129D01*
X145837301Y-107946090D01*
X145851090Y-107932301D01*
X145906129Y-107849930D01*
X145913592Y-107831913D01*
X145931965Y-107739544D01*
X145932918Y-107729863D01*
X145932918Y-106020137D01*
X145931965Y-106010456D01*
X145913592Y-105918087D01*
X145906129Y-105900070D01*
X145851090Y-105817699D01*
X145837301Y-105803910D01*
X145754930Y-105748871D01*
X145736913Y-105741408D01*
X145644544Y-105723035D01*
X145634863Y-105722082D01*
X143925137Y-105722082D01*
X143915456Y-105723035D01*
X143823087Y-105741408D01*
X143805070Y-105748871D01*
X143722699Y-105803910D01*
X143708910Y-105817699D01*
X143653871Y-105900070D01*
X143646408Y-105918087D01*
X143628035Y-106010456D01*
X143627082Y-106020137D01*
X131974106Y-106020137D01*
X131931518Y-105903129D01*
X131922857Y-105888127D01*
X131901000Y-105862079D01*
X131901000Y-105549336D01*
X131908874Y-105509750D01*
X131908874Y-105490248D01*
X131900048Y-105445876D01*
X131900047Y-105445866D01*
X131873870Y-105314271D01*
X131866408Y-105296254D01*
X131835036Y-105249302D01*
X131791865Y-105184692D01*
X131791861Y-105184687D01*
X131766723Y-105147066D01*
X131752934Y-105133277D01*
X131719373Y-105110852D01*
X131489150Y-104880630D01*
X131466723Y-104847066D01*
X131452934Y-104833277D01*
X131303746Y-104733592D01*
X131285729Y-104726130D01*
X131154134Y-104699953D01*
X131154122Y-104699952D01*
X131109751Y-104691126D01*
X131090249Y-104691126D01*
X131050663Y-104699000D01*
X115049337Y-104699000D01*
X115009751Y-104691126D01*
X114990249Y-104691126D01*
X114945878Y-104699952D01*
X114945866Y-104699953D01*
X114817336Y-104725520D01*
X114804800Y-104729814D01*
X114728793Y-104767817D01*
X114731006Y-104777190D01*
X114684692Y-104808135D01*
X114684687Y-104808139D01*
X114647066Y-104833277D01*
X114633277Y-104847066D01*
X114610854Y-104880624D01*
X113880627Y-105610852D01*
X113847066Y-105633277D01*
X113833277Y-105647066D01*
X113733592Y-105796255D01*
X113726130Y-105814272D01*
X113699953Y-105945867D01*
X113699952Y-105945877D01*
X113691126Y-105990249D01*
X113691126Y-106009751D01*
X113699000Y-106049337D01*
X113699001Y-109662078D01*
X113677143Y-109688127D01*
X113668482Y-109703129D01*
X113602008Y-109885763D01*
X113599000Y-109902823D01*
X102640593Y-109902823D01*
X102693550Y-109783879D01*
X102696607Y-109774690D01*
X102744449Y-109564111D01*
X102745678Y-109553807D01*
X102749108Y-109308237D01*
X102748167Y-109297902D01*
X102706223Y-109086069D01*
X102703424Y-109076798D01*
X102621265Y-108877467D01*
X102616719Y-108868917D01*
X102497408Y-108689340D01*
X102491287Y-108681836D01*
X102339369Y-108528853D01*
X102331907Y-108522680D01*
X102153168Y-108402118D01*
X102144650Y-108397512D01*
X101945896Y-108313964D01*
X101936646Y-108311101D01*
X101725450Y-108267748D01*
X101715819Y-108266736D01*
X101500224Y-108265231D01*
X101490580Y-108266108D01*
X101278800Y-108306508D01*
X101269510Y-108309242D01*
X101069611Y-108390007D01*
X101061029Y-108394493D01*
X100880623Y-108512548D01*
X100873076Y-108518616D01*
X100719036Y-108669463D01*
X100712811Y-108676881D01*
X100591004Y-108854774D01*
X100586339Y-108863261D01*
X100501406Y-109061426D01*
X100498478Y-109070656D01*
X100453652Y-109281544D01*
X100452572Y-109291167D01*
X100449562Y-109506746D01*
X96819000Y-109506746D01*
X96819000Y-106966746D01*
X100449562Y-106966746D01*
X100450372Y-106976396D01*
X100489293Y-107188453D01*
X100491962Y-107197762D01*
X100571330Y-107398221D01*
X100575756Y-107406834D01*
X100692548Y-107588060D01*
X100698563Y-107595649D01*
X100848331Y-107750738D01*
X100855705Y-107757014D01*
X101032744Y-107880060D01*
X101041197Y-107884784D01*
X101238764Y-107971099D01*
X101247974Y-107974092D01*
X101458544Y-108020388D01*
X101468160Y-108021535D01*
X101683713Y-108026050D01*
X101693368Y-108025307D01*
X101905691Y-107987869D01*
X101915019Y-107985265D01*
X102116027Y-107907298D01*
X102124671Y-107902932D01*
X102306707Y-107787408D01*
X102314338Y-107781446D01*
X102470469Y-107632765D01*
X102476796Y-107625434D01*
X102601075Y-107449258D01*
X102605859Y-107440838D01*
X102693550Y-107243879D01*
X102696607Y-107234690D01*
X102744449Y-107024111D01*
X102745678Y-107013807D01*
X102749108Y-106768237D01*
X102748167Y-106757902D01*
X102706223Y-106546069D01*
X102703424Y-106536798D01*
X102621265Y-106337467D01*
X102616719Y-106328917D01*
X102497408Y-106149340D01*
X102491287Y-106141836D01*
X102339369Y-105988853D01*
X102331907Y-105982680D01*
X102153168Y-105862118D01*
X102144650Y-105857512D01*
X101945896Y-105773964D01*
X101936646Y-105771101D01*
X101725450Y-105727748D01*
X101715819Y-105726736D01*
X101500224Y-105725231D01*
X101490580Y-105726108D01*
X101278800Y-105766508D01*
X101269510Y-105769242D01*
X101069611Y-105850007D01*
X101061029Y-105854493D01*
X100880623Y-105972548D01*
X100873076Y-105978616D01*
X100719036Y-106129463D01*
X100712811Y-106136881D01*
X100591004Y-106314774D01*
X100586339Y-106323261D01*
X100501406Y-106521426D01*
X100498478Y-106530656D01*
X100453652Y-106741544D01*
X100452572Y-106751167D01*
X100449562Y-106966746D01*
X96819000Y-106966746D01*
X96819000Y-104634000D01*
X149561001Y-104634000D01*
X149561000Y-119276000D01*
G37*
%TD.AperFunction*%
%TD*%
M02*
