%TF.GenerationSoftware,KiCad,Pcbnew,5.99.0-unknown-acf13a186~104~ubuntu20.04.1*%
%TF.CreationDate,2020-09-23T11:08:06+02:00*%
%TF.ProjectId,matrixctl,6d617472-6978-4637-946c-2e6b69636164,rev?*%
%TF.SameCoordinates,Original*%
%TF.FileFunction,Paste,Top*%
%TF.FilePolarity,Positive*%
%FSLAX46Y46*%
G04 Gerber Fmt 4.6, Leading zero omitted, Abs format (unit mm)*
G04 Created by KiCad (PCBNEW 5.99.0-unknown-acf13a186~104~ubuntu20.04.1) date 2020-09-23 11:08:06*
%MOMM*%
%LPD*%
G01*
G04 APERTURE LIST*
%ADD10R,0.900000X0.800000*%
%ADD11R,1.500000X1.900000*%
%ADD12R,0.400000X1.350000*%
%ADD13R,0.600000X0.450000*%
G04 APERTURE END LIST*
%TO.C,R112*%
G36*
G01*
X133656250Y-113950000D02*
X133143750Y-113950000D01*
G75*
G02*
X132925000Y-113731250I0J218750D01*
G01*
X132925000Y-113293750D01*
G75*
G02*
X133143750Y-113075000I218750J0D01*
G01*
X133656250Y-113075000D01*
G75*
G02*
X133875000Y-113293750I0J-218750D01*
G01*
X133875000Y-113731250D01*
G75*
G02*
X133656250Y-113950000I-218750J0D01*
G01*
G37*
G36*
G01*
X133656250Y-115525000D02*
X133143750Y-115525000D01*
G75*
G02*
X132925000Y-115306250I0J218750D01*
G01*
X132925000Y-114868750D01*
G75*
G02*
X133143750Y-114650000I218750J0D01*
G01*
X133656250Y-114650000D01*
G75*
G02*
X133875000Y-114868750I0J-218750D01*
G01*
X133875000Y-115306250D01*
G75*
G02*
X133656250Y-115525000I-218750J0D01*
G01*
G37*
%TD*%
D10*
%TO.C,U102*%
X118500000Y-114000000D03*
X120500000Y-113050000D03*
X120500000Y-114950000D03*
%TD*%
D11*
%TO.C,J104*%
X111800000Y-118137500D03*
D12*
X112800000Y-115437500D03*
X113450000Y-115437500D03*
X114100000Y-115437500D03*
X111500000Y-115437500D03*
X112150000Y-115437500D03*
D11*
X113800000Y-118137500D03*
%TD*%
%TO.C,FB102*%
G36*
G01*
X117843750Y-118050000D02*
X118756250Y-118050000D01*
G75*
G02*
X119000000Y-118293750I0J-243750D01*
G01*
X119000000Y-118781250D01*
G75*
G02*
X118756250Y-119025000I-243750J0D01*
G01*
X117843750Y-119025000D01*
G75*
G02*
X117600000Y-118781250I0J243750D01*
G01*
X117600000Y-118293750D01*
G75*
G02*
X117843750Y-118050000I243750J0D01*
G01*
G37*
G36*
G01*
X117843750Y-116175000D02*
X118756250Y-116175000D01*
G75*
G02*
X119000000Y-116418750I0J-243750D01*
G01*
X119000000Y-116906250D01*
G75*
G02*
X118756250Y-117150000I-243750J0D01*
G01*
X117843750Y-117150000D01*
G75*
G02*
X117600000Y-116906250I0J243750D01*
G01*
X117600000Y-116418750D01*
G75*
G02*
X117843750Y-116175000I243750J0D01*
G01*
G37*
%TD*%
%TO.C,FB101*%
G36*
G01*
X112150000Y-112743750D02*
X112150000Y-113656250D01*
G75*
G02*
X111906250Y-113900000I-243750J0D01*
G01*
X111418750Y-113900000D01*
G75*
G02*
X111175000Y-113656250I0J243750D01*
G01*
X111175000Y-112743750D01*
G75*
G02*
X111418750Y-112500000I243750J0D01*
G01*
X111906250Y-112500000D01*
G75*
G02*
X112150000Y-112743750I0J-243750D01*
G01*
G37*
G36*
G01*
X114025000Y-112743750D02*
X114025000Y-113656250D01*
G75*
G02*
X113781250Y-113900000I-243750J0D01*
G01*
X113293750Y-113900000D01*
G75*
G02*
X113050000Y-113656250I0J243750D01*
G01*
X113050000Y-112743750D01*
G75*
G02*
X113293750Y-112500000I243750J0D01*
G01*
X113781250Y-112500000D01*
G75*
G02*
X114025000Y-112743750I0J-243750D01*
G01*
G37*
%TD*%
D13*
%TO.C,D101*%
X121850000Y-114800000D03*
X123950000Y-114800000D03*
%TD*%
%TO.C,C107*%
G36*
G01*
X115850000Y-113143750D02*
X115850000Y-113656250D01*
G75*
G02*
X115631250Y-113875000I-218750J0D01*
G01*
X115193750Y-113875000D01*
G75*
G02*
X114975000Y-113656250I0J218750D01*
G01*
X114975000Y-113143750D01*
G75*
G02*
X115193750Y-112925000I218750J0D01*
G01*
X115631250Y-112925000D01*
G75*
G02*
X115850000Y-113143750I0J-218750D01*
G01*
G37*
G36*
G01*
X117425000Y-113143750D02*
X117425000Y-113656250D01*
G75*
G02*
X117206250Y-113875000I-218750J0D01*
G01*
X116768750Y-113875000D01*
G75*
G02*
X116550000Y-113656250I0J218750D01*
G01*
X116550000Y-113143750D01*
G75*
G02*
X116768750Y-112925000I218750J0D01*
G01*
X117206250Y-112925000D01*
G75*
G02*
X117425000Y-113143750I0J-218750D01*
G01*
G37*
%TD*%
%TO.C,C106*%
G36*
G01*
X119362500Y-111143750D02*
X119362500Y-111656250D01*
G75*
G02*
X119143750Y-111875000I-218750J0D01*
G01*
X118706250Y-111875000D01*
G75*
G02*
X118487500Y-111656250I0J218750D01*
G01*
X118487500Y-111143750D01*
G75*
G02*
X118706250Y-110925000I218750J0D01*
G01*
X119143750Y-110925000D01*
G75*
G02*
X119362500Y-111143750I0J-218750D01*
G01*
G37*
G36*
G01*
X120937500Y-111143750D02*
X120937500Y-111656250D01*
G75*
G02*
X120718750Y-111875000I-218750J0D01*
G01*
X120281250Y-111875000D01*
G75*
G02*
X120062500Y-111656250I0J218750D01*
G01*
X120062500Y-111143750D01*
G75*
G02*
X120281250Y-110925000I218750J0D01*
G01*
X120718750Y-110925000D01*
G75*
G02*
X120937500Y-111143750I0J-218750D01*
G01*
G37*
%TD*%
%TO.C,C101*%
G36*
G01*
X123125000Y-106625000D02*
X121275000Y-106625000D01*
G75*
G02*
X121025000Y-106375000I0J250000D01*
G01*
X121025000Y-105550000D01*
G75*
G02*
X121275000Y-105300000I250000J0D01*
G01*
X123125000Y-105300000D01*
G75*
G02*
X123375000Y-105550000I0J-250000D01*
G01*
X123375000Y-106375000D01*
G75*
G02*
X123125000Y-106625000I-250000J0D01*
G01*
G37*
G36*
G01*
X123125000Y-109700000D02*
X121275000Y-109700000D01*
G75*
G02*
X121025000Y-109450000I0J250000D01*
G01*
X121025000Y-108625000D01*
G75*
G02*
X121275000Y-108375000I250000J0D01*
G01*
X123125000Y-108375000D01*
G75*
G02*
X123375000Y-108625000I0J-250000D01*
G01*
X123375000Y-109450000D01*
G75*
G02*
X123125000Y-109700000I-250000J0D01*
G01*
G37*
%TD*%
%TO.C,U101*%
G36*
G01*
X131203113Y-109898444D02*
X131203113Y-110301556D01*
G75*
G02*
X131001556Y-110503113I-201557J0D01*
G01*
X130598444Y-110503113D01*
G75*
G02*
X130396887Y-110301556I0J201557D01*
G01*
X130396887Y-109898444D01*
G75*
G02*
X130598444Y-109696887I201557J0D01*
G01*
X131001556Y-109696887D01*
G75*
G02*
X131203113Y-109898444I0J-201557D01*
G01*
G37*
G36*
G01*
X131203113Y-108898444D02*
X131203113Y-109301556D01*
G75*
G02*
X131001556Y-109503113I-201557J0D01*
G01*
X130598444Y-109503113D01*
G75*
G02*
X130396887Y-109301556I0J201557D01*
G01*
X130396887Y-108898444D01*
G75*
G02*
X130598444Y-108696887I201557J0D01*
G01*
X131001556Y-108696887D01*
G75*
G02*
X131203113Y-108898444I0J-201557D01*
G01*
G37*
G36*
G01*
X130203113Y-109898444D02*
X130203113Y-110301556D01*
G75*
G02*
X130001556Y-110503113I-201557J0D01*
G01*
X129598444Y-110503113D01*
G75*
G02*
X129396887Y-110301556I0J201557D01*
G01*
X129396887Y-109898444D01*
G75*
G02*
X129598444Y-109696887I201557J0D01*
G01*
X130001556Y-109696887D01*
G75*
G02*
X130203113Y-109898444I0J-201557D01*
G01*
G37*
G36*
G01*
X130203113Y-108898444D02*
X130203113Y-109301556D01*
G75*
G02*
X130001556Y-109503113I-201557J0D01*
G01*
X129598444Y-109503113D01*
G75*
G02*
X129396887Y-109301556I0J201557D01*
G01*
X129396887Y-108898444D01*
G75*
G02*
X129598444Y-108696887I201557J0D01*
G01*
X130001556Y-108696887D01*
G75*
G02*
X130203113Y-108898444I0J-201557D01*
G01*
G37*
G36*
X131846311Y-109696888D02*
G01*
X131852714Y-109696888D01*
X131855221Y-109697330D01*
X131873186Y-109712405D01*
X131893486Y-109724126D01*
X131896271Y-109731776D01*
X131902510Y-109737012D01*
X131906583Y-109760108D01*
X131909600Y-109768398D01*
X131909600Y-109777220D01*
X131913230Y-109797806D01*
X131909600Y-109804093D01*
X131909600Y-110412956D01*
X131913229Y-110433537D01*
X131909600Y-110439823D01*
X131909600Y-110446224D01*
X131909158Y-110448731D01*
X131894086Y-110466693D01*
X131882363Y-110486998D01*
X131874711Y-110489783D01*
X131869477Y-110496021D01*
X131846386Y-110500093D01*
X131838091Y-110503112D01*
X131829264Y-110503112D01*
X131808684Y-110506741D01*
X131802398Y-110503112D01*
X131530777Y-110503112D01*
X131513402Y-110507768D01*
X131503417Y-110503112D01*
X131492907Y-110503112D01*
X131490400Y-110502670D01*
X131475305Y-110490003D01*
X131470702Y-110487857D01*
X131460034Y-110477190D01*
X131443111Y-110462989D01*
X131442528Y-110459684D01*
X131397093Y-110414249D01*
X131381513Y-110405254D01*
X131377745Y-110394902D01*
X131370315Y-110387472D01*
X131368855Y-110385386D01*
X131367138Y-110365760D01*
X131365399Y-110360982D01*
X131365399Y-110345882D01*
X131363475Y-110323889D01*
X131365399Y-110321141D01*
X131365400Y-109862261D01*
X131360745Y-109844887D01*
X131365400Y-109834904D01*
X131365400Y-109824395D01*
X131365842Y-109821888D01*
X131378508Y-109806793D01*
X131380656Y-109802188D01*
X131391329Y-109791515D01*
X131405524Y-109774599D01*
X131408828Y-109774016D01*
X131454262Y-109728584D01*
X131463258Y-109713002D01*
X131473613Y-109709233D01*
X131481043Y-109701803D01*
X131483128Y-109700343D01*
X131502754Y-109698626D01*
X131507530Y-109696888D01*
X131522628Y-109696888D01*
X131544624Y-109694964D01*
X131547372Y-109696888D01*
X131819445Y-109696888D01*
X131840025Y-109693259D01*
X131846311Y-109696888D01*
G37*
G36*
X131846311Y-108696888D02*
G01*
X131852714Y-108696888D01*
X131855221Y-108697330D01*
X131873186Y-108712405D01*
X131893486Y-108724126D01*
X131896271Y-108731776D01*
X131902510Y-108737012D01*
X131906583Y-108760108D01*
X131909600Y-108768398D01*
X131909600Y-108777220D01*
X131913230Y-108797806D01*
X131909600Y-108804093D01*
X131909600Y-109412956D01*
X131913229Y-109433537D01*
X131909600Y-109439823D01*
X131909600Y-109446224D01*
X131909158Y-109448731D01*
X131894086Y-109466693D01*
X131882363Y-109486998D01*
X131874711Y-109489783D01*
X131869477Y-109496021D01*
X131846386Y-109500093D01*
X131838091Y-109503112D01*
X131829264Y-109503112D01*
X131808684Y-109506741D01*
X131802398Y-109503112D01*
X131530777Y-109503112D01*
X131513402Y-109507768D01*
X131503417Y-109503112D01*
X131492907Y-109503112D01*
X131490400Y-109502670D01*
X131475305Y-109490003D01*
X131470702Y-109487857D01*
X131460034Y-109477190D01*
X131443111Y-109462989D01*
X131442528Y-109459684D01*
X131397093Y-109414249D01*
X131381513Y-109405254D01*
X131377745Y-109394902D01*
X131370315Y-109387472D01*
X131368855Y-109385386D01*
X131367138Y-109365760D01*
X131365399Y-109360982D01*
X131365399Y-109345882D01*
X131363475Y-109323889D01*
X131365399Y-109321141D01*
X131365400Y-108862261D01*
X131360745Y-108844887D01*
X131365400Y-108834904D01*
X131365400Y-108824395D01*
X131365842Y-108821888D01*
X131378508Y-108806793D01*
X131380656Y-108802188D01*
X131391329Y-108791515D01*
X131405524Y-108774599D01*
X131408828Y-108774016D01*
X131454262Y-108728584D01*
X131463258Y-108713002D01*
X131473613Y-108709233D01*
X131481043Y-108701803D01*
X131483128Y-108700343D01*
X131502754Y-108698626D01*
X131507530Y-108696888D01*
X131522628Y-108696888D01*
X131544624Y-108694964D01*
X131547372Y-108696888D01*
X131819445Y-108696888D01*
X131840025Y-108693259D01*
X131846311Y-108696888D01*
G37*
G36*
X129096582Y-109696888D02*
G01*
X129107093Y-109696888D01*
X129109600Y-109697330D01*
X129124694Y-109709996D01*
X129129299Y-109712143D01*
X129139970Y-109722814D01*
X129156889Y-109737011D01*
X129157472Y-109740316D01*
X129202906Y-109785751D01*
X129218486Y-109794746D01*
X129222254Y-109805099D01*
X129229685Y-109812530D01*
X129231145Y-109814615D01*
X129232862Y-109834244D01*
X129234600Y-109839018D01*
X129234600Y-109854108D01*
X129236525Y-109876111D01*
X129234600Y-109878860D01*
X129234600Y-110337734D01*
X129239256Y-110355111D01*
X129234600Y-110365096D01*
X129234600Y-110375604D01*
X129234158Y-110378111D01*
X129221492Y-110393206D01*
X129219345Y-110397810D01*
X129208678Y-110408477D01*
X129194477Y-110425401D01*
X129191171Y-110425984D01*
X129145738Y-110471416D01*
X129136742Y-110486998D01*
X129126387Y-110490767D01*
X129118958Y-110498196D01*
X129116873Y-110499656D01*
X129097248Y-110501373D01*
X129092470Y-110503112D01*
X129077369Y-110503112D01*
X129055376Y-110505036D01*
X129052628Y-110503112D01*
X128780554Y-110503112D01*
X128759974Y-110506741D01*
X128753688Y-110503112D01*
X128747286Y-110503112D01*
X128744779Y-110502670D01*
X128726816Y-110487597D01*
X128706513Y-110475874D01*
X128703728Y-110468222D01*
X128697490Y-110462988D01*
X128693418Y-110439898D01*
X128690399Y-110431602D01*
X128690399Y-110422774D01*
X128686770Y-110402194D01*
X128690399Y-110395908D01*
X128690400Y-109787043D01*
X128686771Y-109766463D01*
X128690400Y-109760177D01*
X128690400Y-109753775D01*
X128690842Y-109751268D01*
X128705914Y-109733307D01*
X128717637Y-109713002D01*
X128725290Y-109710217D01*
X128730524Y-109703979D01*
X128753613Y-109699908D01*
X128761909Y-109696888D01*
X128770737Y-109696888D01*
X128791317Y-109693259D01*
X128797602Y-109696888D01*
X129069226Y-109696888D01*
X129086599Y-109692233D01*
X129096582Y-109696888D01*
G37*
G36*
X129096582Y-108696888D02*
G01*
X129107093Y-108696888D01*
X129109600Y-108697330D01*
X129124694Y-108709996D01*
X129129299Y-108712143D01*
X129139970Y-108722814D01*
X129156889Y-108737011D01*
X129157472Y-108740316D01*
X129202906Y-108785751D01*
X129218486Y-108794746D01*
X129222254Y-108805099D01*
X129229685Y-108812530D01*
X129231145Y-108814615D01*
X129232862Y-108834244D01*
X129234600Y-108839018D01*
X129234600Y-108854108D01*
X129236525Y-108876111D01*
X129234600Y-108878860D01*
X129234600Y-109337734D01*
X129239256Y-109355111D01*
X129234600Y-109365096D01*
X129234600Y-109375604D01*
X129234158Y-109378111D01*
X129221492Y-109393206D01*
X129219345Y-109397810D01*
X129208678Y-109408477D01*
X129194477Y-109425401D01*
X129191171Y-109425984D01*
X129145738Y-109471416D01*
X129136742Y-109486998D01*
X129126387Y-109490767D01*
X129118958Y-109498196D01*
X129116873Y-109499656D01*
X129097248Y-109501373D01*
X129092470Y-109503112D01*
X129077369Y-109503112D01*
X129055376Y-109505036D01*
X129052628Y-109503112D01*
X128780554Y-109503112D01*
X128759974Y-109506741D01*
X128753688Y-109503112D01*
X128747286Y-109503112D01*
X128744779Y-109502670D01*
X128726816Y-109487597D01*
X128706513Y-109475874D01*
X128703728Y-109468222D01*
X128697490Y-109462988D01*
X128693418Y-109439898D01*
X128690399Y-109431602D01*
X128690399Y-109422774D01*
X128686770Y-109402194D01*
X128690399Y-109395908D01*
X128690400Y-108787043D01*
X128686771Y-108766463D01*
X128690400Y-108760177D01*
X128690400Y-108753775D01*
X128690842Y-108751268D01*
X128705914Y-108733307D01*
X128717637Y-108713002D01*
X128725290Y-108710217D01*
X128730524Y-108703979D01*
X128753613Y-108699908D01*
X128761909Y-108696888D01*
X128770737Y-108696888D01*
X128791317Y-108693259D01*
X128797602Y-108696888D01*
X129069226Y-108696888D01*
X129086599Y-108692233D01*
X129096582Y-108696888D01*
G37*
G36*
X130504091Y-110665399D02*
G01*
X131112956Y-110665400D01*
X131133536Y-110661771D01*
X131139822Y-110665400D01*
X131146225Y-110665400D01*
X131148732Y-110665842D01*
X131166697Y-110680917D01*
X131186997Y-110692637D01*
X131189782Y-110700287D01*
X131196021Y-110705523D01*
X131200094Y-110728619D01*
X131203111Y-110736909D01*
X131203111Y-110745731D01*
X131206741Y-110766317D01*
X131203111Y-110772604D01*
X131203112Y-111044222D01*
X131207768Y-111061598D01*
X131203112Y-111071583D01*
X131203112Y-111082092D01*
X131202670Y-111084599D01*
X131190004Y-111099694D01*
X131187857Y-111104298D01*
X131177188Y-111114968D01*
X131162989Y-111131889D01*
X131159684Y-111132472D01*
X131114249Y-111177907D01*
X131105254Y-111193487D01*
X131094902Y-111197255D01*
X131087472Y-111204685D01*
X131085386Y-111206145D01*
X131065760Y-111207862D01*
X131060982Y-111209601D01*
X131045882Y-111209601D01*
X131023889Y-111211525D01*
X131021141Y-111209601D01*
X130562265Y-111209600D01*
X130544889Y-111214256D01*
X130534904Y-111209600D01*
X130524395Y-111209600D01*
X130521888Y-111209158D01*
X130506793Y-111196491D01*
X130502190Y-111194345D01*
X130491525Y-111183680D01*
X130474599Y-111169477D01*
X130474016Y-111166171D01*
X130428584Y-111120738D01*
X130413002Y-111111742D01*
X130409233Y-111101387D01*
X130401804Y-111093958D01*
X130400344Y-111091873D01*
X130398627Y-111072248D01*
X130396888Y-111067470D01*
X130396888Y-111052369D01*
X130394964Y-111030376D01*
X130396888Y-111027628D01*
X130396888Y-110755554D01*
X130393259Y-110734974D01*
X130396888Y-110728688D01*
X130396888Y-110722286D01*
X130397330Y-110719779D01*
X130412402Y-110701818D01*
X130424126Y-110681513D01*
X130431779Y-110678728D01*
X130437013Y-110672490D01*
X130460102Y-110668419D01*
X130468398Y-110665399D01*
X130477226Y-110665399D01*
X130497806Y-110661770D01*
X130504091Y-110665399D01*
G37*
G36*
X129504091Y-110665399D02*
G01*
X130112956Y-110665400D01*
X130133536Y-110661771D01*
X130139822Y-110665400D01*
X130146225Y-110665400D01*
X130148732Y-110665842D01*
X130166697Y-110680917D01*
X130186997Y-110692637D01*
X130189782Y-110700287D01*
X130196021Y-110705523D01*
X130200094Y-110728619D01*
X130203111Y-110736909D01*
X130203111Y-110745731D01*
X130206741Y-110766317D01*
X130203111Y-110772604D01*
X130203112Y-111044222D01*
X130207768Y-111061598D01*
X130203112Y-111071583D01*
X130203112Y-111082092D01*
X130202670Y-111084599D01*
X130190004Y-111099694D01*
X130187857Y-111104298D01*
X130177188Y-111114968D01*
X130162989Y-111131889D01*
X130159684Y-111132472D01*
X130114249Y-111177907D01*
X130105254Y-111193487D01*
X130094902Y-111197255D01*
X130087472Y-111204685D01*
X130085386Y-111206145D01*
X130065760Y-111207862D01*
X130060982Y-111209601D01*
X130045882Y-111209601D01*
X130023889Y-111211525D01*
X130021141Y-111209601D01*
X129562265Y-111209600D01*
X129544889Y-111214256D01*
X129534904Y-111209600D01*
X129524395Y-111209600D01*
X129521888Y-111209158D01*
X129506793Y-111196491D01*
X129502190Y-111194345D01*
X129491525Y-111183680D01*
X129474599Y-111169477D01*
X129474016Y-111166171D01*
X129428584Y-111120738D01*
X129413002Y-111111742D01*
X129409233Y-111101387D01*
X129401804Y-111093958D01*
X129400344Y-111091873D01*
X129398627Y-111072248D01*
X129396888Y-111067470D01*
X129396888Y-111052369D01*
X129394964Y-111030376D01*
X129396888Y-111027628D01*
X129396888Y-110755554D01*
X129393259Y-110734974D01*
X129396888Y-110728688D01*
X129396888Y-110722286D01*
X129397330Y-110719779D01*
X129412402Y-110701818D01*
X129424126Y-110681513D01*
X129431779Y-110678728D01*
X129437013Y-110672490D01*
X129460102Y-110668419D01*
X129468398Y-110665399D01*
X129477226Y-110665399D01*
X129497806Y-110661770D01*
X129504091Y-110665399D01*
G37*
G36*
X131065096Y-107990400D02*
G01*
X131075605Y-107990400D01*
X131078112Y-107990842D01*
X131093207Y-108003509D01*
X131097812Y-108005656D01*
X131108481Y-108016325D01*
X131125401Y-108030523D01*
X131125984Y-108033828D01*
X131171418Y-108079263D01*
X131186997Y-108088258D01*
X131190765Y-108098611D01*
X131198197Y-108106043D01*
X131199657Y-108108128D01*
X131201374Y-108127758D01*
X131203111Y-108132530D01*
X131203111Y-108147617D01*
X131205036Y-108169624D01*
X131203111Y-108172373D01*
X131203112Y-108444445D01*
X131206741Y-108465026D01*
X131203112Y-108471312D01*
X131203112Y-108477713D01*
X131202670Y-108480220D01*
X131187598Y-108498182D01*
X131175874Y-108518487D01*
X131168222Y-108521272D01*
X131162988Y-108527510D01*
X131139897Y-108531582D01*
X131131602Y-108534601D01*
X131122775Y-108534601D01*
X131102195Y-108538230D01*
X131095909Y-108534601D01*
X130487043Y-108534600D01*
X130466463Y-108538229D01*
X130460177Y-108534600D01*
X130453775Y-108534600D01*
X130451268Y-108534158D01*
X130433305Y-108519085D01*
X130413002Y-108507363D01*
X130410217Y-108499711D01*
X130403979Y-108494477D01*
X130399907Y-108471387D01*
X130396888Y-108463091D01*
X130396888Y-108454263D01*
X130393259Y-108433683D01*
X130396888Y-108427397D01*
X130396888Y-108155774D01*
X130392233Y-108138401D01*
X130396888Y-108128418D01*
X130396888Y-108117907D01*
X130397330Y-108115400D01*
X130409996Y-108100306D01*
X130412143Y-108095701D01*
X130422818Y-108085026D01*
X130437012Y-108068111D01*
X130440316Y-108067528D01*
X130485749Y-108022096D01*
X130494746Y-108006513D01*
X130505101Y-108002744D01*
X130512530Y-107995315D01*
X130514615Y-107993855D01*
X130534240Y-107992138D01*
X130539018Y-107990399D01*
X130554119Y-107990399D01*
X130576111Y-107988475D01*
X130578859Y-107990399D01*
X131037739Y-107990400D01*
X131055113Y-107985745D01*
X131065096Y-107990400D01*
G37*
G36*
X130065096Y-107990400D02*
G01*
X130075605Y-107990400D01*
X130078112Y-107990842D01*
X130093207Y-108003509D01*
X130097812Y-108005656D01*
X130108481Y-108016325D01*
X130125401Y-108030523D01*
X130125984Y-108033828D01*
X130171418Y-108079263D01*
X130186997Y-108088258D01*
X130190765Y-108098611D01*
X130198197Y-108106043D01*
X130199657Y-108108128D01*
X130201374Y-108127758D01*
X130203111Y-108132530D01*
X130203111Y-108147617D01*
X130205036Y-108169624D01*
X130203111Y-108172373D01*
X130203112Y-108444445D01*
X130206741Y-108465026D01*
X130203112Y-108471312D01*
X130203112Y-108477713D01*
X130202670Y-108480220D01*
X130187598Y-108498182D01*
X130175874Y-108518487D01*
X130168222Y-108521272D01*
X130162988Y-108527510D01*
X130139897Y-108531582D01*
X130131602Y-108534601D01*
X130122775Y-108534601D01*
X130102195Y-108538230D01*
X130095909Y-108534601D01*
X129487043Y-108534600D01*
X129466463Y-108538229D01*
X129460177Y-108534600D01*
X129453775Y-108534600D01*
X129451268Y-108534158D01*
X129433305Y-108519085D01*
X129413002Y-108507363D01*
X129410217Y-108499711D01*
X129403979Y-108494477D01*
X129399907Y-108471387D01*
X129396888Y-108463091D01*
X129396888Y-108454263D01*
X129393259Y-108433683D01*
X129396888Y-108427397D01*
X129396888Y-108155774D01*
X129392233Y-108138401D01*
X129396888Y-108128418D01*
X129396888Y-108117907D01*
X129397330Y-108115400D01*
X129409996Y-108100306D01*
X129412143Y-108095701D01*
X129422818Y-108085026D01*
X129437012Y-108068111D01*
X129440316Y-108067528D01*
X129485749Y-108022096D01*
X129494746Y-108006513D01*
X129505101Y-108002744D01*
X129512530Y-107995315D01*
X129514615Y-107993855D01*
X129534240Y-107992138D01*
X129539018Y-107990399D01*
X129554119Y-107990399D01*
X129576111Y-107988475D01*
X129578859Y-107990399D01*
X130037739Y-107990400D01*
X130055113Y-107985745D01*
X130065096Y-107990400D01*
G37*
G36*
X131819037Y-110665906D02*
G01*
X131836856Y-110665906D01*
X131851272Y-110676381D01*
X131868222Y-110681888D01*
X131878697Y-110696306D01*
X131893112Y-110706779D01*
X131898618Y-110723725D01*
X131909094Y-110738144D01*
X131909094Y-110755967D01*
X131909600Y-110757524D01*
X131909601Y-111117476D01*
X131909094Y-111119036D01*
X131909094Y-111136857D01*
X131898619Y-111151274D01*
X131893112Y-111168222D01*
X131878695Y-111178696D01*
X131868221Y-111193113D01*
X131851273Y-111198620D01*
X131836856Y-111209094D01*
X131819036Y-111209094D01*
X131817476Y-111209601D01*
X131567194Y-111209601D01*
X131544377Y-111213215D01*
X131520906Y-111201256D01*
X131495844Y-111193112D01*
X131482260Y-111174415D01*
X131400581Y-111092737D01*
X131381887Y-111079155D01*
X131373745Y-111054096D01*
X131361785Y-111030623D01*
X131365399Y-111007805D01*
X131365399Y-110757523D01*
X131365906Y-110755963D01*
X131365906Y-110738143D01*
X131376381Y-110723726D01*
X131381888Y-110706778D01*
X131396304Y-110696304D01*
X131406779Y-110681887D01*
X131423729Y-110676380D01*
X131438145Y-110665906D01*
X131455964Y-110665906D01*
X131457524Y-110665399D01*
X131817477Y-110665399D01*
X131819037Y-110665906D01*
G37*
G36*
X131567195Y-107990399D02*
G01*
X131817477Y-107990399D01*
X131819037Y-107990906D01*
X131836856Y-107990906D01*
X131851272Y-108001381D01*
X131868222Y-108006888D01*
X131878697Y-108021306D01*
X131893112Y-108031779D01*
X131898618Y-108048725D01*
X131909094Y-108063144D01*
X131909094Y-108080967D01*
X131909600Y-108082524D01*
X131909601Y-108442476D01*
X131909094Y-108444036D01*
X131909094Y-108461857D01*
X131898619Y-108476274D01*
X131893112Y-108493222D01*
X131878695Y-108503696D01*
X131868221Y-108518113D01*
X131851273Y-108523620D01*
X131836856Y-108534094D01*
X131819036Y-108534094D01*
X131817476Y-108534601D01*
X131457523Y-108534601D01*
X131455963Y-108534094D01*
X131438143Y-108534094D01*
X131423726Y-108523619D01*
X131406778Y-108518112D01*
X131396304Y-108503695D01*
X131381887Y-108493221D01*
X131376380Y-108476273D01*
X131365906Y-108461856D01*
X131365906Y-108444036D01*
X131365399Y-108442476D01*
X131365399Y-108192194D01*
X131361785Y-108169376D01*
X131373745Y-108145903D01*
X131381888Y-108120844D01*
X131400581Y-108107263D01*
X131482261Y-108025584D01*
X131495845Y-108006887D01*
X131520907Y-107998744D01*
X131544378Y-107986785D01*
X131567195Y-107990399D01*
G37*
G36*
X129144037Y-110665906D02*
G01*
X129161856Y-110665906D01*
X129176272Y-110676381D01*
X129193222Y-110681888D01*
X129203697Y-110696306D01*
X129218112Y-110706779D01*
X129223618Y-110723725D01*
X129234094Y-110738144D01*
X129234094Y-110755967D01*
X129234600Y-110757524D01*
X129234601Y-111007805D01*
X129238215Y-111030623D01*
X129226256Y-111054095D01*
X129218112Y-111079156D01*
X129199415Y-111092740D01*
X129117737Y-111174419D01*
X129104155Y-111193113D01*
X129079096Y-111201255D01*
X129055623Y-111213215D01*
X129032805Y-111209601D01*
X128782523Y-111209601D01*
X128780963Y-111209094D01*
X128763143Y-111209094D01*
X128748726Y-111198619D01*
X128731778Y-111193112D01*
X128721304Y-111178695D01*
X128706887Y-111168221D01*
X128701380Y-111151273D01*
X128690906Y-111136856D01*
X128690906Y-111119036D01*
X128690399Y-111117476D01*
X128690399Y-110757523D01*
X128690906Y-110755963D01*
X128690906Y-110738143D01*
X128701381Y-110723726D01*
X128706888Y-110706778D01*
X128721304Y-110696304D01*
X128731779Y-110681887D01*
X128748729Y-110676380D01*
X128763145Y-110665906D01*
X128780964Y-110665906D01*
X128782524Y-110665399D01*
X129142477Y-110665399D01*
X129144037Y-110665906D01*
G37*
G36*
X129079097Y-107998745D02*
G01*
X129104156Y-108006888D01*
X129117738Y-108025582D01*
X129199419Y-108107264D01*
X129218112Y-108120845D01*
X129226253Y-108145902D01*
X129238215Y-108169378D01*
X129234600Y-108192201D01*
X129234601Y-108442476D01*
X129234094Y-108444036D01*
X129234094Y-108461857D01*
X129223619Y-108476274D01*
X129218112Y-108493222D01*
X129203695Y-108503696D01*
X129193221Y-108518113D01*
X129176273Y-108523620D01*
X129161856Y-108534094D01*
X129144036Y-108534094D01*
X129142476Y-108534601D01*
X128782523Y-108534601D01*
X128780963Y-108534094D01*
X128763143Y-108534094D01*
X128748726Y-108523619D01*
X128731778Y-108518112D01*
X128721304Y-108503695D01*
X128706887Y-108493221D01*
X128701380Y-108476273D01*
X128690906Y-108461856D01*
X128690906Y-108444036D01*
X128690399Y-108442476D01*
X128690399Y-108082523D01*
X128690906Y-108080963D01*
X128690906Y-108063143D01*
X128701381Y-108048726D01*
X128706888Y-108031778D01*
X128721304Y-108021304D01*
X128731779Y-108006887D01*
X128748729Y-108001380D01*
X128763145Y-107990906D01*
X128780964Y-107990906D01*
X128782524Y-107990399D01*
X129032806Y-107990399D01*
X129055624Y-107986785D01*
X129079097Y-107998745D01*
G37*
G36*
G01*
X133150000Y-111037500D02*
X133150000Y-111162500D01*
G75*
G02*
X133087500Y-111225000I-62500J0D01*
G01*
X132412500Y-111225000D01*
G75*
G02*
X132350000Y-111162500I0J62500D01*
G01*
X132350000Y-111037500D01*
G75*
G02*
X132412500Y-110975000I62500J0D01*
G01*
X133087500Y-110975000D01*
G75*
G02*
X133150000Y-111037500I0J-62500D01*
G01*
G37*
G36*
G01*
X133150000Y-110537500D02*
X133150000Y-110662500D01*
G75*
G02*
X133087500Y-110725000I-62500J0D01*
G01*
X132412500Y-110725000D01*
G75*
G02*
X132350000Y-110662500I0J62500D01*
G01*
X132350000Y-110537500D01*
G75*
G02*
X132412500Y-110475000I62500J0D01*
G01*
X133087500Y-110475000D01*
G75*
G02*
X133150000Y-110537500I0J-62500D01*
G01*
G37*
G36*
G01*
X133150000Y-110037500D02*
X133150000Y-110162500D01*
G75*
G02*
X133087500Y-110225000I-62500J0D01*
G01*
X132412500Y-110225000D01*
G75*
G02*
X132350000Y-110162500I0J62500D01*
G01*
X132350000Y-110037500D01*
G75*
G02*
X132412500Y-109975000I62500J0D01*
G01*
X133087500Y-109975000D01*
G75*
G02*
X133150000Y-110037500I0J-62500D01*
G01*
G37*
G36*
G01*
X133150000Y-109537500D02*
X133150000Y-109662500D01*
G75*
G02*
X133087500Y-109725000I-62500J0D01*
G01*
X132412500Y-109725000D01*
G75*
G02*
X132350000Y-109662500I0J62500D01*
G01*
X132350000Y-109537500D01*
G75*
G02*
X132412500Y-109475000I62500J0D01*
G01*
X133087500Y-109475000D01*
G75*
G02*
X133150000Y-109537500I0J-62500D01*
G01*
G37*
G36*
G01*
X133150000Y-109037500D02*
X133150000Y-109162500D01*
G75*
G02*
X133087500Y-109225000I-62500J0D01*
G01*
X132412500Y-109225000D01*
G75*
G02*
X132350000Y-109162500I0J62500D01*
G01*
X132350000Y-109037500D01*
G75*
G02*
X132412500Y-108975000I62500J0D01*
G01*
X133087500Y-108975000D01*
G75*
G02*
X133150000Y-109037500I0J-62500D01*
G01*
G37*
G36*
G01*
X133150000Y-108537500D02*
X133150000Y-108662500D01*
G75*
G02*
X133087500Y-108725000I-62500J0D01*
G01*
X132412500Y-108725000D01*
G75*
G02*
X132350000Y-108662500I0J62500D01*
G01*
X132350000Y-108537500D01*
G75*
G02*
X132412500Y-108475000I62500J0D01*
G01*
X133087500Y-108475000D01*
G75*
G02*
X133150000Y-108537500I0J-62500D01*
G01*
G37*
G36*
G01*
X133150000Y-108037500D02*
X133150000Y-108162500D01*
G75*
G02*
X133087500Y-108225000I-62500J0D01*
G01*
X132412500Y-108225000D01*
G75*
G02*
X132350000Y-108162500I0J62500D01*
G01*
X132350000Y-108037500D01*
G75*
G02*
X132412500Y-107975000I62500J0D01*
G01*
X133087500Y-107975000D01*
G75*
G02*
X133150000Y-108037500I0J-62500D01*
G01*
G37*
G36*
G01*
X131925000Y-106812500D02*
X131925000Y-107487500D01*
G75*
G02*
X131862500Y-107550000I-62500J0D01*
G01*
X131737500Y-107550000D01*
G75*
G02*
X131675000Y-107487500I0J62500D01*
G01*
X131675000Y-106812500D01*
G75*
G02*
X131737500Y-106750000I62500J0D01*
G01*
X131862500Y-106750000D01*
G75*
G02*
X131925000Y-106812500I0J-62500D01*
G01*
G37*
G36*
G01*
X131425000Y-106812500D02*
X131425000Y-107487500D01*
G75*
G02*
X131362500Y-107550000I-62500J0D01*
G01*
X131237500Y-107550000D01*
G75*
G02*
X131175000Y-107487500I0J62500D01*
G01*
X131175000Y-106812500D01*
G75*
G02*
X131237500Y-106750000I62500J0D01*
G01*
X131362500Y-106750000D01*
G75*
G02*
X131425000Y-106812500I0J-62500D01*
G01*
G37*
G36*
G01*
X130925000Y-106812500D02*
X130925000Y-107487500D01*
G75*
G02*
X130862500Y-107550000I-62500J0D01*
G01*
X130737500Y-107550000D01*
G75*
G02*
X130675000Y-107487500I0J62500D01*
G01*
X130675000Y-106812500D01*
G75*
G02*
X130737500Y-106750000I62500J0D01*
G01*
X130862500Y-106750000D01*
G75*
G02*
X130925000Y-106812500I0J-62500D01*
G01*
G37*
G36*
G01*
X130425000Y-106812500D02*
X130425000Y-107487500D01*
G75*
G02*
X130362500Y-107550000I-62500J0D01*
G01*
X130237500Y-107550000D01*
G75*
G02*
X130175000Y-107487500I0J62500D01*
G01*
X130175000Y-106812500D01*
G75*
G02*
X130237500Y-106750000I62500J0D01*
G01*
X130362500Y-106750000D01*
G75*
G02*
X130425000Y-106812500I0J-62500D01*
G01*
G37*
G36*
G01*
X129925000Y-106812500D02*
X129925000Y-107487500D01*
G75*
G02*
X129862500Y-107550000I-62500J0D01*
G01*
X129737500Y-107550000D01*
G75*
G02*
X129675000Y-107487500I0J62500D01*
G01*
X129675000Y-106812500D01*
G75*
G02*
X129737500Y-106750000I62500J0D01*
G01*
X129862500Y-106750000D01*
G75*
G02*
X129925000Y-106812500I0J-62500D01*
G01*
G37*
G36*
G01*
X129425000Y-106812500D02*
X129425000Y-107487500D01*
G75*
G02*
X129362500Y-107550000I-62500J0D01*
G01*
X129237500Y-107550000D01*
G75*
G02*
X129175000Y-107487500I0J62500D01*
G01*
X129175000Y-106812500D01*
G75*
G02*
X129237500Y-106750000I62500J0D01*
G01*
X129362500Y-106750000D01*
G75*
G02*
X129425000Y-106812500I0J-62500D01*
G01*
G37*
G36*
G01*
X128925000Y-106812500D02*
X128925000Y-107487500D01*
G75*
G02*
X128862500Y-107550000I-62500J0D01*
G01*
X128737500Y-107550000D01*
G75*
G02*
X128675000Y-107487500I0J62500D01*
G01*
X128675000Y-106812500D01*
G75*
G02*
X128737500Y-106750000I62500J0D01*
G01*
X128862500Y-106750000D01*
G75*
G02*
X128925000Y-106812500I0J-62500D01*
G01*
G37*
G36*
G01*
X128250000Y-108037500D02*
X128250000Y-108162500D01*
G75*
G02*
X128187500Y-108225000I-62500J0D01*
G01*
X127512500Y-108225000D01*
G75*
G02*
X127450000Y-108162500I0J62500D01*
G01*
X127450000Y-108037500D01*
G75*
G02*
X127512500Y-107975000I62500J0D01*
G01*
X128187500Y-107975000D01*
G75*
G02*
X128250000Y-108037500I0J-62500D01*
G01*
G37*
G36*
G01*
X128250000Y-108537500D02*
X128250000Y-108662500D01*
G75*
G02*
X128187500Y-108725000I-62500J0D01*
G01*
X127512500Y-108725000D01*
G75*
G02*
X127450000Y-108662500I0J62500D01*
G01*
X127450000Y-108537500D01*
G75*
G02*
X127512500Y-108475000I62500J0D01*
G01*
X128187500Y-108475000D01*
G75*
G02*
X128250000Y-108537500I0J-62500D01*
G01*
G37*
G36*
G01*
X128250000Y-109037500D02*
X128250000Y-109162500D01*
G75*
G02*
X128187500Y-109225000I-62500J0D01*
G01*
X127512500Y-109225000D01*
G75*
G02*
X127450000Y-109162500I0J62500D01*
G01*
X127450000Y-109037500D01*
G75*
G02*
X127512500Y-108975000I62500J0D01*
G01*
X128187500Y-108975000D01*
G75*
G02*
X128250000Y-109037500I0J-62500D01*
G01*
G37*
G36*
G01*
X128250000Y-109537500D02*
X128250000Y-109662500D01*
G75*
G02*
X128187500Y-109725000I-62500J0D01*
G01*
X127512500Y-109725000D01*
G75*
G02*
X127450000Y-109662500I0J62500D01*
G01*
X127450000Y-109537500D01*
G75*
G02*
X127512500Y-109475000I62500J0D01*
G01*
X128187500Y-109475000D01*
G75*
G02*
X128250000Y-109537500I0J-62500D01*
G01*
G37*
G36*
G01*
X128250000Y-110037500D02*
X128250000Y-110162500D01*
G75*
G02*
X128187500Y-110225000I-62500J0D01*
G01*
X127512500Y-110225000D01*
G75*
G02*
X127450000Y-110162500I0J62500D01*
G01*
X127450000Y-110037500D01*
G75*
G02*
X127512500Y-109975000I62500J0D01*
G01*
X128187500Y-109975000D01*
G75*
G02*
X128250000Y-110037500I0J-62500D01*
G01*
G37*
G36*
G01*
X128250000Y-110537500D02*
X128250000Y-110662500D01*
G75*
G02*
X128187500Y-110725000I-62500J0D01*
G01*
X127512500Y-110725000D01*
G75*
G02*
X127450000Y-110662500I0J62500D01*
G01*
X127450000Y-110537500D01*
G75*
G02*
X127512500Y-110475000I62500J0D01*
G01*
X128187500Y-110475000D01*
G75*
G02*
X128250000Y-110537500I0J-62500D01*
G01*
G37*
G36*
G01*
X128250000Y-111037500D02*
X128250000Y-111162500D01*
G75*
G02*
X128187500Y-111225000I-62500J0D01*
G01*
X127512500Y-111225000D01*
G75*
G02*
X127450000Y-111162500I0J62500D01*
G01*
X127450000Y-111037500D01*
G75*
G02*
X127512500Y-110975000I62500J0D01*
G01*
X128187500Y-110975000D01*
G75*
G02*
X128250000Y-111037500I0J-62500D01*
G01*
G37*
G36*
G01*
X128925000Y-111712500D02*
X128925000Y-112387500D01*
G75*
G02*
X128862500Y-112450000I-62500J0D01*
G01*
X128737500Y-112450000D01*
G75*
G02*
X128675000Y-112387500I0J62500D01*
G01*
X128675000Y-111712500D01*
G75*
G02*
X128737500Y-111650000I62500J0D01*
G01*
X128862500Y-111650000D01*
G75*
G02*
X128925000Y-111712500I0J-62500D01*
G01*
G37*
G36*
G01*
X129425000Y-111712500D02*
X129425000Y-112387500D01*
G75*
G02*
X129362500Y-112450000I-62500J0D01*
G01*
X129237500Y-112450000D01*
G75*
G02*
X129175000Y-112387500I0J62500D01*
G01*
X129175000Y-111712500D01*
G75*
G02*
X129237500Y-111650000I62500J0D01*
G01*
X129362500Y-111650000D01*
G75*
G02*
X129425000Y-111712500I0J-62500D01*
G01*
G37*
G36*
G01*
X129925000Y-111712500D02*
X129925000Y-112387500D01*
G75*
G02*
X129862500Y-112450000I-62500J0D01*
G01*
X129737500Y-112450000D01*
G75*
G02*
X129675000Y-112387500I0J62500D01*
G01*
X129675000Y-111712500D01*
G75*
G02*
X129737500Y-111650000I62500J0D01*
G01*
X129862500Y-111650000D01*
G75*
G02*
X129925000Y-111712500I0J-62500D01*
G01*
G37*
G36*
G01*
X130425000Y-111712500D02*
X130425000Y-112387500D01*
G75*
G02*
X130362500Y-112450000I-62500J0D01*
G01*
X130237500Y-112450000D01*
G75*
G02*
X130175000Y-112387500I0J62500D01*
G01*
X130175000Y-111712500D01*
G75*
G02*
X130237500Y-111650000I62500J0D01*
G01*
X130362500Y-111650000D01*
G75*
G02*
X130425000Y-111712500I0J-62500D01*
G01*
G37*
G36*
G01*
X130925000Y-111712500D02*
X130925000Y-112387500D01*
G75*
G02*
X130862500Y-112450000I-62500J0D01*
G01*
X130737500Y-112450000D01*
G75*
G02*
X130675000Y-112387500I0J62500D01*
G01*
X130675000Y-111712500D01*
G75*
G02*
X130737500Y-111650000I62500J0D01*
G01*
X130862500Y-111650000D01*
G75*
G02*
X130925000Y-111712500I0J-62500D01*
G01*
G37*
G36*
G01*
X131425000Y-111712500D02*
X131425000Y-112387500D01*
G75*
G02*
X131362500Y-112450000I-62500J0D01*
G01*
X131237500Y-112450000D01*
G75*
G02*
X131175000Y-112387500I0J62500D01*
G01*
X131175000Y-111712500D01*
G75*
G02*
X131237500Y-111650000I62500J0D01*
G01*
X131362500Y-111650000D01*
G75*
G02*
X131425000Y-111712500I0J-62500D01*
G01*
G37*
G36*
G01*
X131925000Y-111712500D02*
X131925000Y-112387500D01*
G75*
G02*
X131862500Y-112450000I-62500J0D01*
G01*
X131737500Y-112450000D01*
G75*
G02*
X131675000Y-112387500I0J62500D01*
G01*
X131675000Y-111712500D01*
G75*
G02*
X131737500Y-111650000I62500J0D01*
G01*
X131862500Y-111650000D01*
G75*
G02*
X131925000Y-111712500I0J-62500D01*
G01*
G37*
%TD*%
%TO.C,R106*%
G36*
G01*
X131543750Y-115250000D02*
X132056250Y-115250000D01*
G75*
G02*
X132275000Y-115468750I0J-218750D01*
G01*
X132275000Y-115906250D01*
G75*
G02*
X132056250Y-116125000I-218750J0D01*
G01*
X131543750Y-116125000D01*
G75*
G02*
X131325000Y-115906250I0J218750D01*
G01*
X131325000Y-115468750D01*
G75*
G02*
X131543750Y-115250000I218750J0D01*
G01*
G37*
G36*
G01*
X131543750Y-113675000D02*
X132056250Y-113675000D01*
G75*
G02*
X132275000Y-113893750I0J-218750D01*
G01*
X132275000Y-114331250D01*
G75*
G02*
X132056250Y-114550000I-218750J0D01*
G01*
X131543750Y-114550000D01*
G75*
G02*
X131325000Y-114331250I0J218750D01*
G01*
X131325000Y-113893750D01*
G75*
G02*
X131543750Y-113675000I218750J0D01*
G01*
G37*
%TD*%
%TO.C,R105*%
G36*
G01*
X125250000Y-110143750D02*
X125250000Y-110656250D01*
G75*
G02*
X125031250Y-110875000I-218750J0D01*
G01*
X124593750Y-110875000D01*
G75*
G02*
X124375000Y-110656250I0J218750D01*
G01*
X124375000Y-110143750D01*
G75*
G02*
X124593750Y-109925000I218750J0D01*
G01*
X125031250Y-109925000D01*
G75*
G02*
X125250000Y-110143750I0J-218750D01*
G01*
G37*
G36*
G01*
X126825000Y-110143750D02*
X126825000Y-110656250D01*
G75*
G02*
X126606250Y-110875000I-218750J0D01*
G01*
X126168750Y-110875000D01*
G75*
G02*
X125950000Y-110656250I0J218750D01*
G01*
X125950000Y-110143750D01*
G75*
G02*
X126168750Y-109925000I218750J0D01*
G01*
X126606250Y-109925000D01*
G75*
G02*
X126825000Y-110143750I0J-218750D01*
G01*
G37*
%TD*%
%TO.C,R104*%
G36*
G01*
X128250000Y-115456250D02*
X128250000Y-114943750D01*
G75*
G02*
X128468750Y-114725000I218750J0D01*
G01*
X128906250Y-114725000D01*
G75*
G02*
X129125000Y-114943750I0J-218750D01*
G01*
X129125000Y-115456250D01*
G75*
G02*
X128906250Y-115675000I-218750J0D01*
G01*
X128468750Y-115675000D01*
G75*
G02*
X128250000Y-115456250I0J218750D01*
G01*
G37*
G36*
G01*
X126675000Y-115456250D02*
X126675000Y-114943750D01*
G75*
G02*
X126893750Y-114725000I218750J0D01*
G01*
X127331250Y-114725000D01*
G75*
G02*
X127550000Y-114943750I0J-218750D01*
G01*
X127550000Y-115456250D01*
G75*
G02*
X127331250Y-115675000I-218750J0D01*
G01*
X126893750Y-115675000D01*
G75*
G02*
X126675000Y-115456250I0J218750D01*
G01*
G37*
%TD*%
%TO.C,R103*%
G36*
G01*
X129850000Y-113856250D02*
X129850000Y-113343750D01*
G75*
G02*
X130068750Y-113125000I218750J0D01*
G01*
X130506250Y-113125000D01*
G75*
G02*
X130725000Y-113343750I0J-218750D01*
G01*
X130725000Y-113856250D01*
G75*
G02*
X130506250Y-114075000I-218750J0D01*
G01*
X130068750Y-114075000D01*
G75*
G02*
X129850000Y-113856250I0J218750D01*
G01*
G37*
G36*
G01*
X128275000Y-113856250D02*
X128275000Y-113343750D01*
G75*
G02*
X128493750Y-113125000I218750J0D01*
G01*
X128931250Y-113125000D01*
G75*
G02*
X129150000Y-113343750I0J-218750D01*
G01*
X129150000Y-113856250D01*
G75*
G02*
X128931250Y-114075000I-218750J0D01*
G01*
X128493750Y-114075000D01*
G75*
G02*
X128275000Y-113856250I0J218750D01*
G01*
G37*
%TD*%
%TO.C,R102*%
G36*
G01*
X135156250Y-112250000D02*
X134643750Y-112250000D01*
G75*
G02*
X134425000Y-112031250I0J218750D01*
G01*
X134425000Y-111593750D01*
G75*
G02*
X134643750Y-111375000I218750J0D01*
G01*
X135156250Y-111375000D01*
G75*
G02*
X135375000Y-111593750I0J-218750D01*
G01*
X135375000Y-112031250D01*
G75*
G02*
X135156250Y-112250000I-218750J0D01*
G01*
G37*
G36*
G01*
X135156250Y-113825000D02*
X134643750Y-113825000D01*
G75*
G02*
X134425000Y-113606250I0J218750D01*
G01*
X134425000Y-113168750D01*
G75*
G02*
X134643750Y-112950000I218750J0D01*
G01*
X135156250Y-112950000D01*
G75*
G02*
X135375000Y-113168750I0J-218750D01*
G01*
X135375000Y-113606250D01*
G75*
G02*
X135156250Y-113825000I-218750J0D01*
G01*
G37*
%TD*%
%TO.C,R101*%
G36*
G01*
X135950000Y-115356250D02*
X135950000Y-114843750D01*
G75*
G02*
X136168750Y-114625000I218750J0D01*
G01*
X136606250Y-114625000D01*
G75*
G02*
X136825000Y-114843750I0J-218750D01*
G01*
X136825000Y-115356250D01*
G75*
G02*
X136606250Y-115575000I-218750J0D01*
G01*
X136168750Y-115575000D01*
G75*
G02*
X135950000Y-115356250I0J218750D01*
G01*
G37*
G36*
G01*
X134375000Y-115356250D02*
X134375000Y-114843750D01*
G75*
G02*
X134593750Y-114625000I218750J0D01*
G01*
X135031250Y-114625000D01*
G75*
G02*
X135250000Y-114843750I0J-218750D01*
G01*
X135250000Y-115356250D01*
G75*
G02*
X135031250Y-115575000I-218750J0D01*
G01*
X134593750Y-115575000D01*
G75*
G02*
X134375000Y-115356250I0J218750D01*
G01*
G37*
%TD*%
%TO.C,C105*%
G36*
G01*
X127625000Y-113343750D02*
X127625000Y-113856250D01*
G75*
G02*
X127406250Y-114075000I-218750J0D01*
G01*
X126968750Y-114075000D01*
G75*
G02*
X126750000Y-113856250I0J218750D01*
G01*
X126750000Y-113343750D01*
G75*
G02*
X126968750Y-113125000I218750J0D01*
G01*
X127406250Y-113125000D01*
G75*
G02*
X127625000Y-113343750I0J-218750D01*
G01*
G37*
G36*
G01*
X126050000Y-113343750D02*
X126050000Y-113856250D01*
G75*
G02*
X125831250Y-114075000I-218750J0D01*
G01*
X125393750Y-114075000D01*
G75*
G02*
X125175000Y-113856250I0J218750D01*
G01*
X125175000Y-113343750D01*
G75*
G02*
X125393750Y-113125000I218750J0D01*
G01*
X125831250Y-113125000D01*
G75*
G02*
X126050000Y-113343750I0J-218750D01*
G01*
G37*
%TD*%
%TO.C,C104*%
G36*
G01*
X125250000Y-111743750D02*
X125250000Y-112256250D01*
G75*
G02*
X125031250Y-112475000I-218750J0D01*
G01*
X124593750Y-112475000D01*
G75*
G02*
X124375000Y-112256250I0J218750D01*
G01*
X124375000Y-111743750D01*
G75*
G02*
X124593750Y-111525000I218750J0D01*
G01*
X125031250Y-111525000D01*
G75*
G02*
X125250000Y-111743750I0J-218750D01*
G01*
G37*
G36*
G01*
X126825000Y-111743750D02*
X126825000Y-112256250D01*
G75*
G02*
X126606250Y-112475000I-218750J0D01*
G01*
X126168750Y-112475000D01*
G75*
G02*
X125950000Y-112256250I0J218750D01*
G01*
X125950000Y-111743750D01*
G75*
G02*
X126168750Y-111525000I218750J0D01*
G01*
X126606250Y-111525000D01*
G75*
G02*
X126825000Y-111743750I0J-218750D01*
G01*
G37*
%TD*%
%TO.C,C103*%
G36*
G01*
X131350000Y-105456250D02*
X131350000Y-104943750D01*
G75*
G02*
X131568750Y-104725000I218750J0D01*
G01*
X132006250Y-104725000D01*
G75*
G02*
X132225000Y-104943750I0J-218750D01*
G01*
X132225000Y-105456250D01*
G75*
G02*
X132006250Y-105675000I-218750J0D01*
G01*
X131568750Y-105675000D01*
G75*
G02*
X131350000Y-105456250I0J218750D01*
G01*
G37*
G36*
G01*
X129775000Y-105456250D02*
X129775000Y-104943750D01*
G75*
G02*
X129993750Y-104725000I218750J0D01*
G01*
X130431250Y-104725000D01*
G75*
G02*
X130650000Y-104943750I0J-218750D01*
G01*
X130650000Y-105456250D01*
G75*
G02*
X130431250Y-105675000I-218750J0D01*
G01*
X129993750Y-105675000D01*
G75*
G02*
X129775000Y-105456250I0J218750D01*
G01*
G37*
%TD*%
%TO.C,C102*%
G36*
G01*
X126556250Y-107750000D02*
X126043750Y-107750000D01*
G75*
G02*
X125825000Y-107531250I0J218750D01*
G01*
X125825000Y-107093750D01*
G75*
G02*
X126043750Y-106875000I218750J0D01*
G01*
X126556250Y-106875000D01*
G75*
G02*
X126775000Y-107093750I0J-218750D01*
G01*
X126775000Y-107531250D01*
G75*
G02*
X126556250Y-107750000I-218750J0D01*
G01*
G37*
G36*
G01*
X126556250Y-109325000D02*
X126043750Y-109325000D01*
G75*
G02*
X125825000Y-109106250I0J218750D01*
G01*
X125825000Y-108668750D01*
G75*
G02*
X126043750Y-108450000I218750J0D01*
G01*
X126556250Y-108450000D01*
G75*
G02*
X126775000Y-108668750I0J-218750D01*
G01*
X126775000Y-109106250D01*
G75*
G02*
X126556250Y-109325000I-218750J0D01*
G01*
G37*
%TD*%
M02*
